<?xml version="1.0" standalone="no"?>
 <!DOCTYPE svg PUBLIC "-//W3C//DTD SVG 1.1//EN" 
 "http://www.w3.org/Graphics/SVG/1.1/DTD/svg11.dtd"> 
<svg
  xmlns:svg="http://www.w3.org/2000/svg"
  xmlns="http://www.w3.org/2000/svg"
  xmlns:xlink="http://www.w3.org/1999/xlink"
  version="1.1"
  width="29.700220cm" height="21.000720cm" viewBox="0 0 116930 82680">
<title>SVG Picture created as candleLight-B_SilkS.svg date 2021/03/04 17:41:33 </title>
  <desc>Picture generated by PCBNEW </desc>
<g style="fill:#000000; fill-opacity:1;stroke:#000000; stroke-opacity:1;
stroke-linecap:round; stroke-linejoin:round;"
 transform="translate(0 0) scale(1 1)">
</g>
<g style="fill:#000000; fill-opacity:0.0; 
stroke:#000000; stroke-width:-0.000393701; stroke-opacity:1; 
stroke-linecap:round; stroke-linejoin:round;">
</g>
<g style="fill:#000000; fill-opacity:0.0; 
stroke:#000000; stroke-width:39.3701; stroke-opacity:1; 
stroke-linecap:round; stroke-linejoin:round;">
</g>
<g style="fill:#000000; fill-opacity:0.0; 
stroke:#000000; stroke-width:59.0551; stroke-opacity:1; 
stroke-linecap:round; stroke-linejoin:round;">
<rect x="69685.9" y="70869" width="43307.1" height="7874.02" rx="0" />
</g>
<g style="fill:#000000; fill-opacity:0.0; 
stroke:#000000; stroke-width:39.3701; stroke-opacity:1; 
stroke-linecap:round; stroke-linejoin:round;">
</g>
<g style="fill:#000000; fill-opacity:0.0; 
stroke:#000000; stroke-width:59.0551; stroke-opacity:1; 
stroke-linecap:round; stroke-linejoin:round;">
<rect x="3937.01" y="3937.01" width="109056" height="74806" rx="0" />
</g>
<g style="fill:#000000; fill-opacity:0.0; 
stroke:#000000; stroke-width:39.3701; stroke-opacity:1; 
stroke-linecap:round; stroke-linejoin:round;">
</g>
<g style="fill:#000000; fill-opacity:0.0; 
stroke:#000000; stroke-width:59.0551; stroke-opacity:1; 
stroke-linecap:round; stroke-linejoin:round;">
<text x="78741" y="77109.1"
textLength="8789.37" font-size="787.402" lengthAdjust="spacingAndGlyphs"
text-anchor="start" opacity="0">Date: 2021-03-03</text>
<path d="M78911 77081
L78911 76490
L79051 76490
L79136 76518
L79192 76574
L79220 76631
L79248 76743
L79248 76827
L79220 76940
L79192 76996
L79136 77052
L79051 77081
L78911 77081
" />
<path d="M79754 77081
L79754 76771
L79726 76715
L79670 76687
L79557 76687
L79501 76715
" />
<path d="M79754 77052
L79698 77081
L79557 77081
L79501 77052
L79473 76996
L79473 76940
L79501 76884
L79557 76856
L79698 76856
L79754 76827
" />
<path d="M79951 76687
L80176 76687
" />
<path d="M80036 76490
L80036 76996
L80064 77052
L80120 77081
L80176 77081
" />
<path d="M80598 77052
L80542 77081
L80429 77081
L80373 77052
L80345 76996
L80345 76771
L80373 76715
L80429 76687
L80542 76687
L80598 76715
L80626 76771
L80626 76827
L80345 76884
" />
<path d="M80879 77024
L80907 77052
L80879 77081
L80851 77052
L80879 77024
L80879 77081
" />
<path d="M80879 76715
L80907 76743
L80879 76771
L80851 76743
L80879 76715
L80879 76771
" />
<path d="M81582 76546
L81610 76518
L81667 76490
L81807 76490
L81863 76518
L81892 76546
L81920 76602
L81920 76659
L81892 76743
L81554 77081
L81920 77081
" />
<path d="M82285 76490
L82341 76490
L82398 76518
L82426 76546
L82454 76602
L82482 76715
L82482 76856
L82454 76968
L82426 77024
L82398 77052
L82341 77081
L82285 77081
L82229 77052
L82201 77024
L82173 76968
L82145 76856
L82145 76715
L82173 76602
L82201 76546
L82229 76518
L82285 76490
" />
<path d="M82707 76546
L82735 76518
L82791 76490
L82932 76490
L82988 76518
L83016 76546
L83045 76602
L83045 76659
L83016 76743
L82679 77081
L83045 77081
" />
<path d="M83607 77081
L83269 77081
" />
<path d="M83438 77081
L83438 76490
L83382 76574
L83326 76631
L83269 76659
" />
<path d="M83860 76856
L84310 76856
" />
<path d="M84704 76490
L84760 76490
L84816 76518
L84844 76546
L84872 76602
L84901 76715
L84901 76856
L84872 76968
L84844 77024
L84816 77052
L84760 77081
L84704 77081
L84647 77052
L84619 77024
L84591 76968
L84563 76856
L84563 76715
L84591 76602
L84619 76546
L84647 76518
L84704 76490
" />
<path d="M85097 76490
L85463 76490
L85266 76715
L85350 76715
L85407 76743
L85435 76771
L85463 76827
L85463 76968
L85435 77024
L85407 77052
L85350 77081
L85182 77081
L85126 77052
L85097 77024
" />
<path d="M85716 76856
L86166 76856
" />
<path d="M86560 76490
L86616 76490
L86672 76518
L86700 76546
L86728 76602
L86757 76715
L86757 76856
L86728 76968
L86700 77024
L86672 77052
L86616 77081
L86560 77081
L86503 77052
L86475 77024
L86447 76968
L86419 76856
L86419 76715
L86447 76602
L86475 76546
L86503 76518
L86560 76490
" />
<path d="M86953 76490
L87319 76490
L87122 76715
L87206 76715
L87263 76743
L87291 76771
L87319 76827
L87319 76968
L87291 77024
L87263 77052
L87206 77081
L87038 77081
L86982 77052
L86953 77024
" />
</g>
<g style="fill:#000000; fill-opacity:0.0; 
stroke:#000000; stroke-width:39.3701; stroke-opacity:1; 
stroke-linecap:round; stroke-linejoin:round;">
</g>
<g style="fill:#000000; fill-opacity:0.0; 
stroke:#000000; stroke-width:59.0551; stroke-opacity:1; 
stroke-linecap:round; stroke-linejoin:round;">
<text x="70079.6" y="74195.7"
textLength="17410" font-size="787.402" lengthAdjust="spacingAndGlyphs"
text-anchor="start" opacity="0">Item: candlelight-P01-R01-B01-C00</text>
<path d="M70249 74167
L70249 73577
" />
<path d="M70446 73773
L70671 73773
" />
<path d="M70530 73577
L70530 74083
L70559 74139
L70615 74167
L70671 74167
" />
<path d="M71093 74139
L71037 74167
L70924 74167
L70868 74139
L70840 74083
L70840 73858
L70868 73802
L70924 73773
L71037 73773
L71093 73802
L71121 73858
L71121 73914
L70840 73970
" />
<path d="M71374 74167
L71374 73773
" />
<path d="M71374 73830
L71402 73802
L71458 73773
L71543 73773
L71599 73802
L71627 73858
L71627 74167
" />
<path d="M71627 73858
L71655 73802
L71712 73773
L71796 73773
L71852 73802
L71880 73858
L71880 74167
" />
<path d="M72162 74111
L72190 74139
L72162 74167
L72133 74139
L72162 74111
L72162 74167
" />
<path d="M72162 73802
L72190 73830
L72162 73858
L72133 73830
L72162 73802
L72162 73858
" />
<path d="M73146 74139
L73090 74167
L72977 74167
L72921 74139
L72893 74111
L72865 74055
L72865 73886
L72893 73830
L72921 73802
L72977 73773
L73090 73773
L73146 73802
" />
<path d="M73652 74167
L73652 73858
L73624 73802
L73568 73773
L73455 73773
L73399 73802
" />
<path d="M73652 74139
L73596 74167
L73455 74167
L73399 74139
L73371 74083
L73371 74027
L73399 73970
L73455 73942
L73596 73942
L73652 73914
" />
<path d="M73933 73773
L73933 74167
" />
<path d="M73933 73830
L73961 73802
L74018 73773
L74102 73773
L74158 73802
L74186 73858
L74186 74167
" />
<path d="M74721 74167
L74721 73577
" />
<path d="M74721 74139
L74664 74167
L74552 74167
L74496 74139
L74467 74111
L74439 74055
L74439 73886
L74467 73830
L74496 73802
L74552 73773
L74664 73773
L74721 73802
" />
<path d="M75086 74167
L75030 74139
L75002 74083
L75002 73577
" />
<path d="M75536 74139
L75480 74167
L75367 74167
L75311 74139
L75283 74083
L75283 73858
L75311 73802
L75367 73773
L75480 73773
L75536 73802
L75564 73858
L75564 73914
L75283 73970
" />
<path d="M75902 74167
L75845 74139
L75817 74083
L75817 73577
" />
<path d="M76127 74167
L76127 73773
" />
<path d="M76127 73577
L76099 73605
L76127 73633
L76155 73605
L76127 73577
L76127 73633
" />
<path d="M76661 73773
L76661 74251
L76633 74308
L76605 74336
L76548 74364
L76464 74364
L76408 74336
" />
<path d="M76661 74139
L76605 74167
L76492 74167
L76436 74139
L76408 74111
L76380 74055
L76380 73886
L76408 73830
L76436 73802
L76492 73773
L76605 73773
L76661 73802
" />
<path d="M76942 74167
L76942 73577
" />
<path d="M77195 74167
L77195 73858
L77167 73802
L77111 73773
L77027 73773
L76970 73802
L76942 73830
" />
<path d="M77392 73773
L77617 73773
" />
<path d="M77476 73577
L77476 74083
L77505 74139
L77561 74167
L77617 74167
" />
<path d="M77814 73942
L78264 73942
" />
<path d="M78545 74167
L78545 73577
L78770 73577
L78826 73605
L78854 73633
L78883 73689
L78883 73773
L78854 73830
L78826 73858
L78770 73886
L78545 73886
" />
<path d="M79248 73577
L79304 73577
L79361 73605
L79389 73633
L79417 73689
L79445 73802
L79445 73942
L79417 74055
L79389 74111
L79361 74139
L79304 74167
L79248 74167
L79192 74139
L79164 74111
L79136 74055
L79108 73942
L79108 73802
L79136 73689
L79164 73633
L79192 73605
L79248 73577
" />
<path d="M80007 74167
L79670 74167
" />
<path d="M79839 74167
L79839 73577
L79782 73661
L79726 73717
L79670 73745
" />
<path d="M80260 73942
L80710 73942
" />
<path d="M81329 74167
L81132 73886
" />
<path d="M80992 74167
L80992 73577
L81217 73577
L81273 73605
L81301 73633
L81329 73689
L81329 73773
L81301 73830
L81273 73858
L81217 73886
L80992 73886
" />
<path d="M81695 73577
L81751 73577
L81807 73605
L81835 73633
L81863 73689
L81892 73802
L81892 73942
L81863 74055
L81835 74111
L81807 74139
L81751 74167
L81695 74167
L81638 74139
L81610 74111
L81582 74055
L81554 73942
L81554 73802
L81582 73689
L81610 73633
L81638 73605
L81695 73577
" />
<path d="M82454 74167
L82117 74167
" />
<path d="M82285 74167
L82285 73577
L82229 73661
L82173 73717
L82117 73745
" />
<path d="M82707 73942
L83157 73942
" />
<path d="M83635 73858
L83719 73886
L83748 73914
L83776 73970
L83776 74055
L83748 74111
L83719 74139
L83663 74167
L83438 74167
L83438 73577
L83635 73577
L83691 73605
L83719 73633
L83748 73689
L83748 73745
L83719 73802
L83691 73830
L83635 73858
L83438 73858
" />
<path d="M84141 73577
L84197 73577
L84254 73605
L84282 73633
L84310 73689
L84338 73802
L84338 73942
L84310 74055
L84282 74111
L84254 74139
L84197 74167
L84141 74167
L84085 74139
L84057 74111
L84029 74055
L84001 73942
L84001 73802
L84029 73689
L84057 73633
L84085 73605
L84141 73577
" />
<path d="M84901 74167
L84563 74167
" />
<path d="M84732 74167
L84732 73577
L84676 73661
L84619 73717
L84563 73745
" />
<path d="M85154 73942
L85604 73942
" />
<path d="M86222 74111
L86194 74139
L86110 74167
L86054 74167
L85969 74139
L85913 74083
L85885 74027
L85857 73914
L85857 73830
L85885 73717
L85913 73661
L85969 73605
L86054 73577
L86110 73577
L86194 73605
L86222 73633
" />
<path d="M86588 73577
L86644 73577
L86700 73605
L86728 73633
L86757 73689
L86785 73802
L86785 73942
L86757 74055
L86728 74111
L86700 74139
L86644 74167
L86588 74167
L86532 74139
L86503 74111
L86475 74055
L86447 73942
L86447 73802
L86475 73689
L86503 73633
L86532 73605
L86588 73577
" />
<path d="M87150 73577
L87206 73577
L87263 73605
L87291 73633
L87319 73689
L87347 73802
L87347 73942
L87319 74055
L87291 74111
L87263 74139
L87206 74167
L87150 74167
L87094 74139
L87066 74111
L87038 74055
L87010 73942
L87010 73802
L87038 73689
L87066 73633
L87094 73605
L87150 73577
" />
</g>
<g style="fill:#000000; fill-opacity:0.0; 
stroke:#000000; stroke-width:39.3701; stroke-opacity:1; 
stroke-linecap:round; stroke-linejoin:round;">
</g>
<g style="fill:#000000; fill-opacity:0.0; 
stroke:#000000; stroke-width:59.0551; stroke-opacity:1; 
stroke-linecap:round; stroke-linejoin:round;">
<path d="M69685 77365
L112992 77365
" />
</g>
<g style="fill:#000000; fill-opacity:0.0; 
stroke:#000000; stroke-width:39.3701; stroke-opacity:1; 
stroke-linecap:round; stroke-linejoin:round;">
</g>
<g style="fill:#000000; fill-opacity:0.0; 
stroke:#000000; stroke-width:59.0551; stroke-opacity:1; 
stroke-linecap:round; stroke-linejoin:round;">
<text x="70079.6" y="78211.5"
textLength="5514.62" font-size="787.402" lengthAdjust="spacingAndGlyphs"
text-anchor="start" opacity="0">KiCad E.D.A.</text>
<path d="M70249 78183
L70249 77592
" />
<path d="M70587 78183
L70334 77845
" />
<path d="M70587 77592
L70249 77930
" />
<path d="M70840 78183
L70840 77789
" />
<path d="M70840 77592
L70812 77620
L70840 77649
L70868 77620
L70840 77592
L70840 77649
" />
<path d="M71458 78127
L71430 78155
L71346 78183
L71290 78183
L71205 78155
L71149 78099
L71121 78042
L71093 77930
L71093 77845
L71121 77733
L71149 77677
L71205 77620
L71290 77592
L71346 77592
L71430 77620
L71458 77649
" />
<path d="M71965 78183
L71965 77874
L71937 77817
L71880 77789
L71768 77789
L71712 77817
" />
<path d="M71965 78155
L71908 78183
L71768 78183
L71712 78155
L71683 78099
L71683 78042
L71712 77986
L71768 77958
L71908 77958
L71965 77930
" />
<path d="M72499 78183
L72499 77592
" />
<path d="M72499 78155
L72443 78183
L72330 78183
L72274 78155
L72246 78127
L72218 78070
L72218 77902
L72246 77845
L72274 77817
L72330 77789
L72443 77789
L72499 77817
" />
<path d="M73230 77874
L73427 77874
" />
<path d="M73511 78183
L73230 78183
L73230 77592
L73511 77592
" />
<path d="M73764 78127
L73793 78155
L73764 78183
L73736 78155
L73764 78127
L73764 78183
" />
<path d="M74046 78183
L74046 77592
L74186 77592
L74271 77620
L74327 77677
L74355 77733
L74383 77845
L74383 77930
L74355 78042
L74327 78099
L74271 78155
L74186 78183
L74046 78183
" />
<path d="M74636 78127
L74664 78155
L74636 78183
L74608 78155
L74636 78127
L74636 78183
" />
<path d="M74889 78014
L75171 78014
" />
<path d="M74833 78183
L75030 77592
L75227 78183
" />
<path d="M75424 78127
L75452 78155
L75424 78183
L75395 78155
L75424 78127
L75424 78183
" />
</g>
<g style="fill:#000000; fill-opacity:0.0; 
stroke:#000000; stroke-width:39.3701; stroke-opacity:1; 
stroke-linecap:round; stroke-linejoin:round;">
</g>
<g style="fill:#000000; fill-opacity:0.0; 
stroke:#000000; stroke-width:59.0551; stroke-opacity:1; 
stroke-linecap:round; stroke-linejoin:round;">
<path d="M69685 76183
L112992 76183
" />
</g>
<g style="fill:#000000; fill-opacity:0.0; 
stroke:#000000; stroke-width:39.3701; stroke-opacity:1; 
stroke-linecap:round; stroke-linejoin:round;">
</g>
<g style="fill:#000000; fill-opacity:0.0; 
stroke:#000000; stroke-width:118.11; stroke-opacity:1; 
stroke-linecap:round; stroke-linejoin:round;">
<text x="104332" y="77109.1"
textLength="4052.31" font-size="787.402" lengthAdjust="spacingAndGlyphs"
text-anchor="start" opacity="0">Rev: R01</text>
<path d="M104886 77081
L104689 76799
" />
<path d="M104548 77081
L104548 76490
L104773 76490
L104830 76518
L104858 76546
L104886 76602
L104886 76687
L104858 76743
L104830 76771
L104773 76799
L104548 76799
" />
<path d="M105364 77052
L105308 77081
L105195 77081
L105139 77052
L105111 76996
L105111 76771
L105139 76715
L105195 76687
L105308 76687
L105364 76715
L105392 76771
L105392 76827
L105111 76884
" />
<path d="M105589 76687
L105730 77081
L105870 76687
" />
<path d="M106095 77024
L106123 77052
L106095 77081
L106067 77052
L106095 77024
L106095 77081
" />
<path d="M106095 76715
L106123 76743
L106095 76771
L106067 76743
L106095 76715
L106095 76771
" />
<path d="M107164 77081
L106967 76799
" />
<path d="M106826 77081
L106826 76490
L107051 76490
L107108 76518
L107136 76546
L107164 76602
L107164 76687
L107136 76743
L107108 76771
L107051 76799
L106826 76799
" />
<path d="M107529 76490
L107586 76490
L107642 76518
L107670 76546
L107698 76602
L107726 76715
L107726 76856
L107698 76968
L107670 77024
L107642 77052
L107586 77081
L107529 77081
L107473 77052
L107445 77024
L107417 76968
L107389 76856
L107389 76715
L107417 76602
L107445 76546
L107473 76518
L107529 76490
" />
<path d="M108289 77081
L107951 77081
" />
<path d="M108120 77081
L108120 76490
L108064 76574
L108007 76631
L107951 76659
" />
</g>
<g style="fill:#000000; fill-opacity:0.0; 
stroke:#000000; stroke-width:39.3701; stroke-opacity:1; 
stroke-linecap:round; stroke-linejoin:round;">
</g>
<g style="fill:#000000; fill-opacity:0.0; 
stroke:#000000; stroke-width:59.0551; stroke-opacity:1; 
stroke-linecap:round; stroke-linejoin:round;">
<text x="70079.6" y="77109.1"
textLength="3781.21" font-size="787.402" lengthAdjust="spacingAndGlyphs"
text-anchor="start" opacity="0">Size: A4</text>
<path d="M70221 77052
L70305 77081
L70446 77081
L70502 77052
L70530 77024
L70559 76968
L70559 76912
L70530 76856
L70502 76827
L70446 76799
L70334 76771
L70277 76743
L70249 76715
L70221 76659
L70221 76602
L70249 76546
L70277 76518
L70334 76490
L70474 76490
L70559 76518
" />
<path d="M70812 77081
L70812 76687
" />
<path d="M70812 76490
L70784 76518
L70812 76546
L70840 76518
L70812 76490
L70812 76546
" />
<path d="M71037 76687
L71346 76687
L71037 77081
L71346 77081
" />
<path d="M71796 77052
L71740 77081
L71627 77081
L71571 77052
L71543 76996
L71543 76771
L71571 76715
L71627 76687
L71740 76687
L71796 76715
L71824 76771
L71824 76827
L71543 76884
" />
<path d="M72077 77024
L72105 77052
L72077 77081
L72049 77052
L72077 77024
L72077 77081
" />
<path d="M72077 76715
L72105 76743
L72077 76771
L72049 76743
L72077 76715
L72077 76771
" />
<path d="M72780 76912
L73061 76912
" />
<path d="M72724 77081
L72921 76490
L73118 77081
" />
<path d="M73568 76687
L73568 77081
" />
<path d="M73427 76462
L73286 76884
L73652 76884
" />
</g>
<g style="fill:#000000; fill-opacity:0.0; 
stroke:#000000; stroke-width:39.3701; stroke-opacity:1; 
stroke-linecap:round; stroke-linejoin:round;">
</g>
<g style="fill:#000000; fill-opacity:0.0; 
stroke:#000000; stroke-width:59.0551; stroke-opacity:1; 
stroke-linecap:round; stroke-linejoin:round;">
<text x="104332" y="78211.5"
textLength="4699.1" font-size="787.402" lengthAdjust="spacingAndGlyphs"
text-anchor="start" opacity="0">Sheet 1/1</text>
<path d="M104473 78155
L104557 78183
L104698 78183
L104754 78155
L104782 78127
L104811 78070
L104811 78014
L104782 77958
L104754 77930
L104698 77902
L104586 77874
L104529 77845
L104501 77817
L104473 77761
L104473 77705
L104501 77649
L104529 77620
L104586 77592
L104726 77592
L104811 77620
" />
<path d="M105064 78183
L105064 77592
" />
<path d="M105317 78183
L105317 77874
L105289 77817
L105232 77789
L105148 77789
L105092 77817
L105064 77845
" />
<path d="M105823 78155
L105767 78183
L105654 78183
L105598 78155
L105570 78099
L105570 77874
L105598 77817
L105654 77789
L105767 77789
L105823 77817
L105851 77874
L105851 77930
L105570 77986
" />
<path d="M106329 78155
L106273 78183
L106160 78183
L106104 78155
L106076 78099
L106076 77874
L106104 77817
L106160 77789
L106273 77789
L106329 77817
L106357 77874
L106357 77930
L106076 77986
" />
<path d="M106526 77789
L106751 77789
" />
<path d="M106610 77592
L106610 78099
L106638 78155
L106695 78183
L106751 78183
" />
<path d="M107707 78183
L107370 78183
" />
<path d="M107538 78183
L107538 77592
L107482 77677
L107426 77733
L107370 77761
" />
<path d="M108382 77564
L107876 78323
" />
<path d="M108888 78183
L108551 78183
" />
<path d="M108719 78183
L108719 77592
L108663 77677
L108607 77733
L108551 77761
" />
</g>
<g style="fill:#000000; fill-opacity:0.0; 
stroke:#000000; stroke-width:39.3701; stroke-opacity:1; 
stroke-linecap:round; stroke-linejoin:round;">
</g>
<g style="fill:#000000; fill-opacity:0.0; 
stroke:#000000; stroke-width:59.0551; stroke-opacity:1; 
stroke-linecap:round; stroke-linejoin:round;">
<path d="M69685 74609
L112992 74609
" />
</g>
<g style="fill:#000000; fill-opacity:0.0; 
stroke:#000000; stroke-width:39.3701; stroke-opacity:1; 
stroke-linecap:round; stroke-linejoin:round;">
</g>
<g style="fill:#000000; fill-opacity:0.0; 
stroke:#000000; stroke-width:157.48; stroke-opacity:1; 
stroke-linecap:round; stroke-linejoin:round;">
<text x="70079.6" y="75711.5"
textLength="10332.8" font-size="1049.87" lengthAdjust="spacingAndGlyphs"
text-anchor="start" opacity="0">Title: candleLight</text>
<path d="M70256 74886
L70706 74886
" />
<path d="M70481 75674
L70481 74886
" />
<path d="M70969 75674
L70969 75149
" />
<path d="M70969 74886
L70931 74924
L70969 74961
L71006 74924
L70969 74886
L70969 74961
" />
<path d="M71231 75149
L71531 75149
" />
<path d="M71344 74886
L71344 75561
L71381 75636
L71456 75674
L71531 75674
" />
<path d="M71906 75674
L71831 75636
L71794 75561
L71794 74886
" />
<path d="M72506 75636
L72431 75674
L72281 75674
L72206 75636
L72169 75561
L72169 75261
L72206 75186
L72281 75149
L72431 75149
L72506 75186
L72544 75261
L72544 75336
L72169 75411
" />
<path d="M72881 75599
L72919 75636
L72881 75674
L72844 75636
L72881 75599
L72881 75674
" />
<path d="M72881 75186
L72919 75224
L72881 75261
L72844 75224
L72881 75186
L72881 75261
" />
<path d="M74193 75636
L74118 75674
L73968 75674
L73894 75636
L73856 75599
L73819 75524
L73819 75299
L73856 75224
L73894 75186
L73968 75149
L74118 75149
L74193 75186
" />
<path d="M74868 75674
L74868 75261
L74831 75186
L74756 75149
L74606 75149
L74531 75186
" />
<path d="M74868 75636
L74793 75674
L74606 75674
L74531 75636
L74493 75561
L74493 75486
L74531 75411
L74606 75374
L74793 75374
L74868 75336
" />
<path d="M75243 75149
L75243 75674
" />
<path d="M75243 75224
L75281 75186
L75356 75149
L75468 75149
L75543 75186
L75581 75261
L75581 75674
" />
<path d="M76293 75674
L76293 74886
" />
<path d="M76293 75636
L76218 75674
L76068 75674
L75993 75636
L75956 75599
L75918 75524
L75918 75299
L75956 75224
L75993 75186
L76068 75149
L76218 75149
L76293 75186
" />
<path d="M76781 75674
L76706 75636
L76668 75561
L76668 74886
" />
<path d="M77381 75636
L77306 75674
L77156 75674
L77081 75636
L77043 75561
L77043 75261
L77081 75186
L77156 75149
L77306 75149
L77381 75186
L77418 75261
L77418 75336
L77043 75411
" />
<path d="M78130 75674
L77756 75674
L77756 74886
" />
<path d="M78393 75674
L78393 75149
" />
<path d="M78393 74886
L78355 74924
L78393 74961
L78430 74924
L78393 74886
L78393 74961
" />
<path d="M79105 75149
L79105 75786
L79068 75861
L79030 75898
L78955 75936
L78843 75936
L78768 75898
" />
<path d="M79105 75636
L79030 75674
L78880 75674
L78805 75636
L78768 75599
L78730 75524
L78730 75299
L78768 75224
L78805 75186
L78880 75149
L79030 75149
L79105 75186
" />
<path d="M79480 75674
L79480 74886
" />
<path d="M79818 75674
L79818 75261
L79780 75186
L79705 75149
L79593 75149
L79518 75186
L79480 75224
" />
<path d="M80080 75149
L80380 75149
" />
<path d="M80193 74886
L80193 75561
L80230 75636
L80305 75674
L80380 75674
" />
</g>
<g style="fill:#000000; fill-opacity:0.0; 
stroke:#000000; stroke-width:39.3701; stroke-opacity:1; 
stroke-linecap:round; stroke-linejoin:round;">
</g>
<g style="fill:#000000; fill-opacity:0.0; 
stroke:#000000; stroke-width:59.0551; stroke-opacity:1; 
stroke-linecap:round; stroke-linejoin:round;">
<path d="M69685 72246
L112992 72246
" />
</g>
<g style="fill:#000000; fill-opacity:0.0; 
stroke:#000000; stroke-width:39.3701; stroke-opacity:1; 
stroke-linecap:round; stroke-linejoin:round;">
</g>
<g style="fill:#000000; fill-opacity:0.0; 
stroke:#000000; stroke-width:59.0551; stroke-opacity:1; 
stroke-linecap:round; stroke-linejoin:round;">
<text x="70079.6" y="73132.8"
textLength="18961.8" font-size="787.402" lengthAdjust="spacingAndGlyphs"
text-anchor="start" opacity="0">Further Specifications: See LayerStack.txt</text>
<path d="M70446 72795
L70249 72795
" />
<path d="M70249 73104
L70249 72514
L70530 72514
" />
<path d="M71009 72710
L71009 73104
" />
<path d="M70755 72710
L70755 73020
L70784 73076
L70840 73104
L70924 73104
L70980 73076
L71009 73048
" />
<path d="M71290 73104
L71290 72710
" />
<path d="M71290 72823
L71318 72767
L71346 72739
L71402 72710
L71458 72710
" />
<path d="M71571 72710
L71796 72710
" />
<path d="M71655 72514
L71655 73020
L71683 73076
L71740 73104
L71796 73104
" />
<path d="M71993 73104
L71993 72514
" />
<path d="M72246 73104
L72246 72795
L72218 72739
L72162 72710
L72077 72710
L72021 72739
L71993 72767
" />
<path d="M72752 73076
L72696 73104
L72583 73104
L72527 73076
L72499 73020
L72499 72795
L72527 72739
L72583 72710
L72696 72710
L72752 72739
L72780 72795
L72780 72851
L72499 72907
" />
<path d="M73033 73104
L73033 72710
" />
<path d="M73033 72823
L73061 72767
L73090 72739
L73146 72710
L73202 72710
" />
<path d="M73821 73076
L73905 73104
L74046 73104
L74102 73076
L74130 73048
L74158 72992
L74158 72935
L74130 72879
L74102 72851
L74046 72823
L73933 72795
L73877 72767
L73849 72739
L73821 72682
L73821 72626
L73849 72570
L73877 72542
L73933 72514
L74074 72514
L74158 72542
" />
<path d="M74411 72710
L74411 73301
" />
<path d="M74411 72739
L74467 72710
L74580 72710
L74636 72739
L74664 72767
L74692 72823
L74692 72992
L74664 73048
L74636 73076
L74580 73104
L74467 73104
L74411 73076
" />
<path d="M75171 73076
L75114 73104
L75002 73104
L74946 73076
L74917 73020
L74917 72795
L74946 72739
L75002 72710
L75114 72710
L75171 72739
L75199 72795
L75199 72851
L74917 72907
" />
<path d="M75705 73076
L75649 73104
L75536 73104
L75480 73076
L75452 73048
L75424 72992
L75424 72823
L75452 72767
L75480 72739
L75536 72710
L75649 72710
L75705 72739
" />
<path d="M75958 73104
L75958 72710
" />
<path d="M75958 72514
L75930 72542
L75958 72570
L75986 72542
L75958 72514
L75958 72570
" />
<path d="M76155 72710
L76380 72710
" />
<path d="M76239 73104
L76239 72598
L76267 72542
L76323 72514
L76380 72514
" />
<path d="M76577 73104
L76577 72710
" />
<path d="M76577 72514
L76548 72542
L76577 72570
L76605 72542
L76577 72514
L76577 72570
" />
<path d="M77111 73076
L77055 73104
L76942 73104
L76886 73076
L76858 73048
L76830 72992
L76830 72823
L76858 72767
L76886 72739
L76942 72710
L77055 72710
L77111 72739
" />
<path d="M77617 73104
L77617 72795
L77589 72739
L77533 72710
L77420 72710
L77364 72739
" />
<path d="M77617 73076
L77561 73104
L77420 73104
L77364 73076
L77336 73020
L77336 72964
L77364 72907
L77420 72879
L77561 72879
L77617 72851
" />
<path d="M77814 72710
L78039 72710
" />
<path d="M77898 72514
L77898 73020
L77926 73076
L77983 73104
L78039 73104
" />
<path d="M78236 73104
L78236 72710
" />
<path d="M78236 72514
L78208 72542
L78236 72570
L78264 72542
L78236 72514
L78236 72570
" />
<path d="M78601 73104
L78545 73076
L78517 73048
L78489 72992
L78489 72823
L78517 72767
L78545 72739
L78601 72710
L78686 72710
L78742 72739
L78770 72767
L78798 72823
L78798 72992
L78770 73048
L78742 73076
L78686 73104
L78601 73104
" />
<path d="M79051 72710
L79051 73104
" />
<path d="M79051 72767
L79079 72739
L79136 72710
L79220 72710
L79276 72739
L79304 72795
L79304 73104
" />
<path d="M79557 73076
L79614 73104
L79726 73104
L79782 73076
L79811 73020
L79811 72992
L79782 72935
L79726 72907
L79642 72907
L79586 72879
L79557 72823
L79557 72795
L79586 72739
L79642 72710
L79726 72710
L79782 72739
" />
<path d="M80064 73048
L80092 73076
L80064 73104
L80036 73076
L80064 73048
L80064 73104
" />
<path d="M80064 72739
L80092 72767
L80064 72795
L80036 72767
L80064 72739
L80064 72795
" />
<path d="M80767 73076
L80851 73104
L80992 73104
L81048 73076
L81076 73048
L81104 72992
L81104 72935
L81076 72879
L81048 72851
L80992 72823
L80879 72795
L80823 72767
L80795 72739
L80767 72682
L80767 72626
L80795 72570
L80823 72542
L80879 72514
L81020 72514
L81104 72542
" />
<path d="M81582 73076
L81526 73104
L81413 73104
L81357 73076
L81329 73020
L81329 72795
L81357 72739
L81413 72710
L81526 72710
L81582 72739
L81610 72795
L81610 72851
L81329 72907
" />
<path d="M82088 73076
L82032 73104
L81920 73104
L81863 73076
L81835 73020
L81835 72795
L81863 72739
L81920 72710
L82032 72710
L82088 72739
L82117 72795
L82117 72851
L81835 72907
" />
<path d="M83101 73104
L82820 73104
L82820 72514
" />
<path d="M83551 73104
L83551 72795
L83523 72739
L83466 72710
L83354 72710
L83298 72739
" />
<path d="M83551 73076
L83494 73104
L83354 73104
L83298 73076
L83269 73020
L83269 72964
L83298 72907
L83354 72879
L83494 72879
L83551 72851
" />
<path d="M83776 72710
L83916 73104
" />
<path d="M84057 72710
L83916 73104
L83860 73245
L83832 73273
L83776 73301
" />
<path d="M84507 73076
L84451 73104
L84338 73104
L84282 73076
L84254 73020
L84254 72795
L84282 72739
L84338 72710
L84451 72710
L84507 72739
L84535 72795
L84535 72851
L84254 72907
" />
<path d="M84788 73104
L84788 72710
" />
<path d="M84788 72823
L84816 72767
L84844 72739
L84901 72710
L84957 72710
" />
<path d="M85126 73076
L85210 73104
L85350 73104
L85407 73076
L85435 73048
L85463 72992
L85463 72935
L85435 72879
L85407 72851
L85350 72823
L85238 72795
L85182 72767
L85154 72739
L85126 72682
L85126 72626
L85154 72570
L85182 72542
L85238 72514
L85379 72514
L85463 72542
" />
<path d="M85632 72710
L85857 72710
" />
<path d="M85716 72514
L85716 73020
L85744 73076
L85800 73104
L85857 73104
" />
<path d="M86307 73104
L86307 72795
L86278 72739
L86222 72710
L86110 72710
L86054 72739
" />
<path d="M86307 73076
L86250 73104
L86110 73104
L86054 73076
L86025 73020
L86025 72964
L86054 72907
L86110 72879
L86250 72879
L86307 72851
" />
<path d="M86841 73076
L86785 73104
L86672 73104
L86616 73076
L86588 73048
L86560 72992
L86560 72823
L86588 72767
L86616 72739
L86672 72710
L86785 72710
L86841 72739
" />
<path d="M87094 73104
L87094 72514
" />
<path d="M87150 72879
L87319 73104
" />
<path d="M87319 72710
L87094 72935
" />
<path d="M87572 73048
L87600 73076
L87572 73104
L87544 73076
L87572 73048
L87572 73104
" />
<path d="M87769 72710
L87994 72710
" />
<path d="M87853 72514
L87853 73020
L87881 73076
L87938 73104
L87994 73104
" />
<path d="M88135 73104
L88444 72710
" />
<path d="M88135 72710
L88444 73104
" />
<path d="M88584 72710
L88809 72710
" />
<path d="M88669 72514
L88669 73020
L88697 73076
L88753 73104
L88809 73104
" />
</g>
<g style="fill:#000000; fill-opacity:0.0; 
stroke:#000000; stroke-width:39.3701; stroke-opacity:1; 
stroke-linecap:round; stroke-linejoin:round;">
</g>
<g style="fill:#000000; fill-opacity:0.0; 
stroke:#000000; stroke-width:118.11; stroke-opacity:1; 
stroke-linecap:round; stroke-linejoin:round;">
<text x="70079.6" y="71951.7"
textLength="10717.1" font-size="787.402" lengthAdjust="spacingAndGlyphs"
text-anchor="start" opacity="0">Linux Automation GmbH</text>
<path d="M70578 71923
L70296 71923
L70296 71332
" />
<path d="M70775 71923
L70775 71529
" />
<path d="M70775 71332
L70746 71361
L70775 71389
L70803 71361
L70775 71332
L70775 71389
" />
<path d="M71056 71529
L71056 71923
" />
<path d="M71056 71586
L71084 71557
L71140 71529
L71224 71529
L71281 71557
L71309 71614
L71309 71923
" />
<path d="M71843 71529
L71843 71923
" />
<path d="M71590 71529
L71590 71839
L71618 71895
L71674 71923
L71759 71923
L71815 71895
L71843 71867
" />
<path d="M72068 71923
L72377 71529
" />
<path d="M72068 71529
L72377 71923
" />
<path d="M73024 71754
L73305 71754
" />
<path d="M72968 71923
L73165 71332
L73362 71923
" />
<path d="M73812 71529
L73812 71923
" />
<path d="M73559 71529
L73559 71839
L73587 71895
L73643 71923
L73727 71923
L73784 71895
L73812 71867
" />
<path d="M74009 71529
L74233 71529
" />
<path d="M74093 71332
L74093 71839
L74121 71895
L74177 71923
L74233 71923
" />
<path d="M74515 71923
L74458 71895
L74430 71867
L74402 71811
L74402 71642
L74430 71586
L74458 71557
L74515 71529
L74599 71529
L74655 71557
L74683 71586
L74712 71642
L74712 71811
L74683 71867
L74655 71895
L74599 71923
L74515 71923
" />
<path d="M74965 71923
L74965 71529
" />
<path d="M74965 71586
L74993 71557
L75049 71529
L75133 71529
L75190 71557
L75218 71614
L75218 71923
" />
<path d="M75218 71614
L75246 71557
L75302 71529
L75386 71529
L75443 71557
L75471 71614
L75471 71923
" />
<path d="M76005 71923
L76005 71614
L75977 71557
L75921 71529
L75808 71529
L75752 71557
" />
<path d="M76005 71895
L75949 71923
L75808 71923
L75752 71895
L75724 71839
L75724 71782
L75752 71726
L75808 71698
L75949 71698
L76005 71670
" />
<path d="M76202 71529
L76427 71529
" />
<path d="M76286 71332
L76286 71839
L76314 71895
L76371 71923
L76427 71923
" />
<path d="M76624 71923
L76624 71529
" />
<path d="M76624 71332
L76596 71361
L76624 71389
L76652 71361
L76624 71332
L76624 71389
" />
<path d="M76989 71923
L76933 71895
L76905 71867
L76877 71811
L76877 71642
L76905 71586
L76933 71557
L76989 71529
L77074 71529
L77130 71557
L77158 71586
L77186 71642
L77186 71811
L77158 71867
L77130 71895
L77074 71923
L76989 71923
" />
<path d="M77439 71529
L77439 71923
" />
<path d="M77439 71586
L77467 71557
L77524 71529
L77608 71529
L77664 71557
L77692 71614
L77692 71923
" />
<path d="M78733 71361
L78677 71332
L78592 71332
L78508 71361
L78452 71417
L78424 71473
L78395 71586
L78395 71670
L78424 71782
L78452 71839
L78508 71895
L78592 71923
L78649 71923
L78733 71895
L78761 71867
L78761 71670
L78649 71670
" />
<path d="M79014 71923
L79014 71529
" />
<path d="M79014 71586
L79042 71557
L79099 71529
L79183 71529
L79239 71557
L79267 71614
L79267 71923
" />
<path d="M79267 71614
L79295 71557
L79352 71529
L79436 71529
L79492 71557
L79520 71614
L79520 71923
" />
<path d="M79802 71923
L79802 71332
" />
<path d="M79802 71557
L79858 71529
L79970 71529
L80027 71557
L80055 71586
L80083 71642
L80083 71811
L80055 71867
L80027 71895
L79970 71923
L79858 71923
L79802 71895
" />
<path d="M80336 71923
L80336 71332
" />
<path d="M80336 71614
L80673 71614
" />
<path d="M80673 71923
L80673 71332
" />
</g>
<g style="fill:#000000; fill-opacity:0.0; 
stroke:#000000; stroke-width:39.3701; stroke-opacity:1; 
stroke-linecap:round; stroke-linejoin:round;">
</g>
<g style="fill:#000000; fill-opacity:0.0; 
stroke:#000000; stroke-width:59.0551; stroke-opacity:1; 
stroke-linecap:round; stroke-linejoin:round;">
<text x="78741" y="78211.5"
textLength="23297.5" font-size="787.402" lengthAdjust="spacingAndGlyphs"
text-anchor="start" opacity="0">git: github.com/linux-automation/candlelight-S01</text>
<path d="M79164 77789
L79164 78267
L79136 78323
L79108 78352
L79051 78380
L78967 78380
L78911 78352
" />
<path d="M79164 78155
L79108 78183
L78995 78183
L78939 78155
L78911 78127
L78883 78070
L78883 77902
L78911 77845
L78939 77817
L78995 77789
L79108 77789
L79164 77817
" />
<path d="M79445 78183
L79445 77789
" />
<path d="M79445 77592
L79417 77620
L79445 77649
L79473 77620
L79445 77592
L79445 77649
" />
<path d="M79642 77789
L79867 77789
" />
<path d="M79726 77592
L79726 78099
L79754 78155
L79811 78183
L79867 78183
" />
<path d="M80064 78127
L80092 78155
L80064 78183
L80036 78155
L80064 78127
L80064 78183
" />
<path d="M80064 77817
L80092 77845
L80064 77874
L80036 77845
L80064 77817
L80064 77874
" />
<path d="M81048 77789
L81048 78267
L81020 78323
L80992 78352
L80935 78380
L80851 78380
L80795 78352
" />
<path d="M81048 78155
L80992 78183
L80879 78183
L80823 78155
L80795 78127
L80767 78070
L80767 77902
L80795 77845
L80823 77817
L80879 77789
L80992 77789
L81048 77817
" />
<path d="M81329 78183
L81329 77789
" />
<path d="M81329 77592
L81301 77620
L81329 77649
L81357 77620
L81329 77592
L81329 77649
" />
<path d="M81526 77789
L81751 77789
" />
<path d="M81610 77592
L81610 78099
L81638 78155
L81695 78183
L81751 78183
" />
<path d="M81948 78183
L81948 77592
" />
<path d="M82201 78183
L82201 77874
L82173 77817
L82117 77789
L82032 77789
L81976 77817
L81948 77845
" />
<path d="M82735 77789
L82735 78183
" />
<path d="M82482 77789
L82482 78099
L82510 78155
L82566 78183
L82651 78183
L82707 78155
L82735 78127
" />
<path d="M83016 78183
L83016 77592
" />
<path d="M83016 77817
L83073 77789
L83185 77789
L83241 77817
L83269 77845
L83298 77902
L83298 78070
L83269 78127
L83241 78155
L83185 78183
L83073 78183
L83016 78155
" />
<path d="M83551 78127
L83579 78155
L83551 78183
L83523 78155
L83551 78127
L83551 78183
" />
<path d="M84085 78155
L84029 78183
L83916 78183
L83860 78155
L83832 78127
L83804 78070
L83804 77902
L83832 77845
L83860 77817
L83916 77789
L84029 77789
L84085 77817
" />
<path d="M84422 78183
L84366 78155
L84338 78127
L84310 78070
L84310 77902
L84338 77845
L84366 77817
L84422 77789
L84507 77789
L84563 77817
L84591 77845
L84619 77902
L84619 78070
L84591 78127
L84563 78155
L84507 78183
L84422 78183
" />
<path d="M84872 78183
L84872 77789
" />
<path d="M84872 77845
L84901 77817
L84957 77789
L85041 77789
L85097 77817
L85126 77874
L85126 78183
" />
<path d="M85126 77874
L85154 77817
L85210 77789
L85294 77789
L85350 77817
L85379 77874
L85379 78183
" />
<path d="M86082 77564
L85575 78323
" />
<path d="M86363 78183
L86307 78155
L86278 78099
L86278 77592
" />
<path d="M86588 78183
L86588 77789
" />
<path d="M86588 77592
L86560 77620
L86588 77649
L86616 77620
L86588 77592
L86588 77649
" />
<path d="M86869 77789
L86869 78183
" />
<path d="M86869 77845
L86897 77817
L86953 77789
L87038 77789
L87094 77817
L87122 77874
L87122 78183
" />
<path d="M87656 77789
L87656 78183
" />
<path d="M87403 77789
L87403 78099
L87431 78155
L87488 78183
L87572 78183
L87628 78155
L87656 78127
" />
<path d="M87881 78183
L88191 77789
" />
<path d="M87881 77789
L88191 78183
" />
<path d="M88416 77958
L88866 77958
" />
<path d="M89400 78183
L89400 77874
L89372 77817
L89316 77789
L89203 77789
L89147 77817
" />
<path d="M89400 78155
L89344 78183
L89203 78183
L89147 78155
L89119 78099
L89119 78042
L89147 77986
L89203 77958
L89344 77958
L89400 77930
" />
<path d="M89934 77789
L89934 78183
" />
<path d="M89681 77789
L89681 78099
L89709 78155
L89766 78183
L89850 78183
L89906 78155
L89934 78127
" />
<path d="M90131 77789
L90356 77789
" />
<path d="M90215 77592
L90215 78099
L90244 78155
L90300 78183
L90356 78183
" />
<path d="M90637 78183
L90581 78155
L90553 78127
L90525 78070
L90525 77902
L90553 77845
L90581 77817
L90637 77789
L90722 77789
L90778 77817
L90806 77845
L90834 77902
L90834 78070
L90806 78127
L90778 78155
L90722 78183
L90637 78183
" />
<path d="M91087 78183
L91087 77789
" />
<path d="M91087 77845
L91115 77817
L91172 77789
L91256 77789
L91312 77817
L91340 77874
L91340 78183
" />
<path d="M91340 77874
L91368 77817
L91425 77789
L91509 77789
L91565 77817
L91593 77874
L91593 78183
" />
<path d="M92128 78183
L92128 77874
L92100 77817
L92043 77789
L91931 77789
L91875 77817
" />
<path d="M92128 78155
L92072 78183
L91931 78183
L91875 78155
L91847 78099
L91847 78042
L91875 77986
L91931 77958
L92072 77958
L92128 77930
" />
<path d="M92325 77789
L92550 77789
" />
<path d="M92409 77592
L92409 78099
L92437 78155
L92493 78183
L92550 78183
" />
<path d="M92746 78183
L92746 77789
" />
<path d="M92746 77592
L92718 77620
L92746 77649
L92775 77620
L92746 77592
L92746 77649
" />
<path d="M93112 78183
L93056 78155
L93028 78127
L93000 78070
L93000 77902
L93028 77845
L93056 77817
L93112 77789
L93196 77789
L93253 77817
L93281 77845
L93309 77902
L93309 78070
L93281 78127
L93253 78155
L93196 78183
L93112 78183
" />
<path d="M93562 77789
L93562 78183
" />
<path d="M93562 77845
L93590 77817
L93646 77789
L93731 77789
L93787 77817
L93815 77874
L93815 78183
" />
<path d="M94518 77564
L94012 78323
" />
<path d="M94968 78155
L94912 78183
L94799 78183
L94743 78155
L94715 78127
L94687 78070
L94687 77902
L94715 77845
L94743 77817
L94799 77789
L94912 77789
L94968 77817
" />
<path d="M95474 78183
L95474 77874
L95446 77817
L95390 77789
L95277 77789
L95221 77817
" />
<path d="M95474 78155
L95418 78183
L95277 78183
L95221 78155
L95193 78099
L95193 78042
L95221 77986
L95277 77958
L95418 77958
L95474 77930
" />
<path d="M95755 77789
L95755 78183
" />
<path d="M95755 77845
L95784 77817
L95840 77789
L95924 77789
L95980 77817
L96009 77874
L96009 78183
" />
<path d="M96543 78183
L96543 77592
" />
<path d="M96543 78155
L96487 78183
L96374 78183
L96318 78155
L96290 78127
L96262 78070
L96262 77902
L96290 77845
L96318 77817
L96374 77789
L96487 77789
L96543 77817
" />
<path d="M96908 78183
L96852 78155
L96824 78099
L96824 77592
" />
<path d="M97358 78155
L97302 78183
L97190 78183
L97133 78155
L97105 78099
L97105 77874
L97133 77817
L97190 77789
L97302 77789
L97358 77817
L97386 77874
L97386 77930
L97105 77986
" />
<path d="M97724 78183
L97668 78155
L97640 78099
L97640 77592
" />
<path d="M97949 78183
L97949 77789
" />
<path d="M97949 77592
L97921 77620
L97949 77649
L97977 77620
L97949 77592
L97949 77649
" />
<path d="M98483 77789
L98483 78267
L98455 78323
L98427 78352
L98371 78380
L98286 78380
L98230 78352
" />
<path d="M98483 78155
L98427 78183
L98314 78183
L98258 78155
L98230 78127
L98202 78070
L98202 77902
L98230 77845
L98258 77817
L98314 77789
L98427 77789
L98483 77817
" />
<path d="M98764 78183
L98764 77592
" />
<path d="M99018 78183
L99018 77874
L98989 77817
L98933 77789
L98849 77789
L98793 77817
L98764 77845
" />
<path d="M99214 77789
L99439 77789
" />
<path d="M99299 77592
L99299 78099
L99327 78155
L99383 78183
L99439 78183
" />
<path d="M99636 77958
L100086 77958
" />
<path d="M100339 78155
L100424 78183
L100564 78183
L100620 78155
L100649 78127
L100677 78070
L100677 78014
L100649 77958
L100620 77930
L100564 77902
L100452 77874
L100395 77845
L100367 77817
L100339 77761
L100339 77705
L100367 77649
L100395 77620
L100452 77592
L100592 77592
L100677 77620
" />
<path d="M101042 77592
L101099 77592
L101155 77620
L101183 77649
L101211 77705
L101239 77817
L101239 77958
L101211 78070
L101183 78127
L101155 78155
L101099 78183
L101042 78183
L100986 78155
L100958 78127
L100930 78070
L100902 77958
L100902 77817
L100930 77705
L100958 77649
L100986 77620
L101042 77592
" />
<path d="M101802 78183
L101464 78183
" />
<path d="M101633 78183
L101633 77592
L101577 77677
L101520 77733
L101464 77761
" />
</g>
<g style="fill:#000000; fill-opacity:0.0; 
stroke:#000000; stroke-width:39.3701; stroke-opacity:1; 
stroke-linecap:round; stroke-linejoin:round;">
</g>
<g style="fill:#000000; fill-opacity:0.0; 
stroke:#000000; stroke-width:59.0551; stroke-opacity:1; 
stroke-linecap:round; stroke-linejoin:round;">
<path d="M77559 76183
L77559 78742
" />
</g>
<g style="fill:#000000; fill-opacity:0.0; 
stroke:#000000; stroke-width:39.3701; stroke-opacity:1; 
stroke-linecap:round; stroke-linejoin:round;">
</g>
<g style="fill:#000000; fill-opacity:0.0; 
stroke:#000000; stroke-width:59.0551; stroke-opacity:1; 
stroke-linecap:round; stroke-linejoin:round;">
<text x="93661.4" y="77106.3"
textLength="6808.21" font-size="787.402" lengthAdjust="spacingAndGlyphs"
text-anchor="start" opacity="0">State: released</text>
<path d="M93803 77050
L93887 77078
L94028 77078
L94084 77050
L94112 77021
L94140 76965
L94140 76909
L94112 76853
L94084 76825
L94028 76796
L93915 76768
L93859 76740
L93831 76712
L93803 76656
L93803 76600
L93831 76543
L93859 76515
L93915 76487
L94056 76487
L94140 76515
" />
<path d="M94309 76684
L94534 76684
" />
<path d="M94393 76487
L94393 76993
L94422 77050
L94478 77078
L94534 77078
" />
<path d="M94984 77078
L94984 76768
L94956 76712
L94900 76684
L94787 76684
L94731 76712
" />
<path d="M94984 77050
L94928 77078
L94787 77078
L94731 77050
L94703 76993
L94703 76937
L94731 76881
L94787 76853
L94928 76853
L94984 76825
" />
<path d="M95181 76684
L95406 76684
" />
<path d="M95265 76487
L95265 76993
L95293 77050
L95350 77078
L95406 77078
" />
<path d="M95828 77050
L95771 77078
L95659 77078
L95603 77050
L95575 76993
L95575 76768
L95603 76712
L95659 76684
L95771 76684
L95828 76712
L95856 76768
L95856 76825
L95575 76881
" />
<path d="M96109 77021
L96137 77050
L96109 77078
L96081 77050
L96109 77021
L96109 77078
" />
<path d="M96109 76712
L96137 76740
L96109 76768
L96081 76740
L96109 76712
L96109 76768
" />
<path d="M96840 77078
L96840 76684
" />
<path d="M96840 76796
L96868 76740
L96896 76712
L96953 76684
L97009 76684
" />
<path d="M97431 77050
L97374 77078
L97262 77078
L97206 77050
L97178 76993
L97178 76768
L97206 76712
L97262 76684
L97374 76684
L97431 76712
L97459 76768
L97459 76825
L97178 76881
" />
<path d="M97796 77078
L97740 77050
L97712 76993
L97712 76487
" />
<path d="M98246 77050
L98190 77078
L98077 77078
L98021 77050
L97993 76993
L97993 76768
L98021 76712
L98077 76684
L98190 76684
L98246 76712
L98274 76768
L98274 76825
L97993 76881
" />
<path d="M98780 77078
L98780 76768
L98752 76712
L98696 76684
L98584 76684
L98527 76712
" />
<path d="M98780 77050
L98724 77078
L98584 77078
L98527 77050
L98499 76993
L98499 76937
L98527 76881
L98584 76853
L98724 76853
L98780 76825
" />
<path d="M99034 77050
L99090 77078
L99202 77078
L99258 77050
L99287 76993
L99287 76965
L99258 76909
L99202 76881
L99118 76881
L99062 76853
L99034 76796
L99034 76768
L99062 76712
L99118 76684
L99202 76684
L99258 76712
" />
<path d="M99765 77050
L99708 77078
L99596 77078
L99540 77050
L99512 76993
L99512 76768
L99540 76712
L99596 76684
L99708 76684
L99765 76712
L99793 76768
L99793 76825
L99512 76881
" />
<path d="M100299 77078
L100299 76487
" />
<path d="M100299 77050
L100243 77078
L100130 77078
L100074 77050
L100046 77021
L100018 76965
L100018 76796
L100046 76740
L100074 76712
L100130 76684
L100243 76684
L100299 76712
" />
</g>
<g style="fill:#000000; fill-opacity:0.0; 
stroke:#000000; stroke-width:39.3701; stroke-opacity:1; 
stroke-linecap:round; stroke-linejoin:round;">
</g>
<g style="fill:#000000; fill-opacity:0.0; 
stroke:#000000; stroke-width:59.0551; stroke-opacity:1; 
stroke-linecap:round; stroke-linejoin:round;">
<path d="M93425 76181
L93425 77362
" />
</g>
<g style="fill:#000000; fill-opacity:0.0; 
stroke:#000000; stroke-width:39.3701; stroke-opacity:1; 
stroke-linecap:round; stroke-linejoin:round;">
</g>
<g style="fill:#000000; fill-opacity:0.0; 
stroke:#000000; stroke-width:59.0551; stroke-opacity:1; 
stroke-linecap:round; stroke-linejoin:round;">
<path d="M103937 76183
L103937 78742
" />
</g>
<g style="fill:#840084; fill-opacity:0.0; 
stroke:#840084; stroke-width:59.0551; stroke-opacity:1; 
stroke-linecap:round; stroke-linejoin:round;">
<text x="31023.6" y="31122"
transform="scale(-1 1) translate(-62047.244094 0)"
textLength="9052.31" font-size="524.934" lengthAdjust="spacingAndGlyphs"
text-anchor="start" opacity="0">https://linux-automation.com</text>
<path d="M30891 31103
L30891 30709
" />
<path d="M30722 31103
L30722 30897
L30741 30859
L30779 30840
L30835 30840
L30872 30859
L30891 30878
" />
<path d="M30591 30840
L30441 30840
" />
<path d="M30535 30709
L30535 31047
L30516 31084
L30479 31103
L30441 31103
" />
<path d="M30366 30840
L30216 30840
" />
<path d="M30310 30709
L30310 31047
L30291 31084
L30254 31103
L30216 31103
" />
<path d="M30085 30840
L30085 31234
" />
<path d="M30085 30859
L30047 30840
L29972 30840
L29935 30859
L29916 30878
L29897 30915
L29897 31028
L29916 31065
L29935 31084
L29972 31103
L30047 31103
L30085 31084
" />
<path d="M29747 31084
L29710 31103
L29635 31103
L29597 31084
L29579 31047
L29579 31028
L29597 30990
L29635 30972
L29691 30972
L29729 30953
L29747 30915
L29747 30897
L29729 30859
L29691 30840
L29635 30840
L29597 30859
" />
<path d="M29410 31065
L29391 31084
L29410 31103
L29429 31084
L29410 31065
L29410 31103
" />
<path d="M29410 30859
L29391 30878
L29410 30897
L29429 30878
L29410 30859
L29410 30897
" />
<path d="M28941 30690
L29279 31197
" />
<path d="M28529 30690
L28866 31197
" />
<path d="M28341 31103
L28379 31084
L28398 31047
L28398 30709
" />
<path d="M28191 31103
L28191 30840
" />
<path d="M28191 30709
L28210 30728
L28191 30747
L28173 30728
L28191 30709
L28191 30747
" />
<path d="M28004 30840
L28004 31103
" />
<path d="M28004 30878
L27985 30859
L27948 30840
L27891 30840
L27854 30859
L27835 30897
L27835 31103
" />
<path d="M27479 30840
L27479 31103
" />
<path d="M27648 30840
L27648 31047
L27629 31084
L27591 31103
L27535 31103
L27498 31084
L27479 31065
" />
<path d="M27329 31103
L27123 30840
" />
<path d="M27329 30840
L27123 31103
" />
<path d="M26973 30953
L26673 30953
" />
<path d="M26317 31103
L26317 30897
L26335 30859
L26373 30840
L26448 30840
L26485 30859
" />
<path d="M26317 31084
L26354 31103
L26448 31103
L26485 31084
L26504 31047
L26504 31009
L26485 30972
L26448 30953
L26354 30953
L26317 30934
" />
<path d="M25960 30840
L25960 31103
" />
<path d="M26129 30840
L26129 31047
L26110 31084
L26073 31103
L26017 31103
L25979 31084
L25960 31065
" />
<path d="M25829 30840
L25679 30840
" />
<path d="M25773 30709
L25773 31047
L25754 31084
L25717 31103
L25679 31103
" />
<path d="M25492 31103
L25529 31084
L25548 31065
L25567 31028
L25567 30915
L25548 30878
L25529 30859
L25492 30840
L25435 30840
L25398 30859
L25379 30878
L25360 30915
L25360 31028
L25379 31065
L25398 31084
L25435 31103
L25492 31103
" />
<path d="M25192 31103
L25192 30840
" />
<path d="M25192 30878
L25173 30859
L25135 30840
L25079 30840
L25042 30859
L25023 30897
L25023 31103
" />
<path d="M25023 30897
L25004 30859
L24967 30840
L24910 30840
L24873 30859
L24854 30897
L24854 31103
" />
<path d="M24498 31103
L24498 30897
L24517 30859
L24554 30840
L24629 30840
L24667 30859
" />
<path d="M24498 31084
L24536 31103
L24629 31103
L24667 31084
L24686 31047
L24686 31009
L24667 30972
L24629 30953
L24536 30953
L24498 30934
" />
<path d="M24367 30840
L24217 30840
" />
<path d="M24311 30709
L24311 31047
L24292 31084
L24254 31103
L24217 31103
" />
<path d="M24086 31103
L24086 30840
" />
<path d="M24086 30709
L24104 30728
L24086 30747
L24067 30728
L24086 30709
L24086 30747
" />
<path d="M23842 31103
L23879 31084
L23898 31065
L23917 31028
L23917 30915
L23898 30878
L23879 30859
L23842 30840
L23786 30840
L23748 30859
L23729 30878
L23711 30915
L23711 31028
L23729 31065
L23748 31084
L23786 31103
L23842 31103
" />
<path d="M23542 30840
L23542 31103
" />
<path d="M23542 30878
L23523 30859
L23486 30840
L23429 30840
L23392 30859
L23373 30897
L23373 31103
" />
<path d="M23186 31065
L23167 31084
L23186 31103
L23204 31084
L23186 31065
L23186 31103
" />
<path d="M22830 31084
L22867 31103
L22942 31103
L22979 31084
L22998 31065
L23017 31028
L23017 30915
L22998 30878
L22979 30859
L22942 30840
L22867 30840
L22830 30859
" />
<path d="M22605 31103
L22642 31084
L22661 31065
L22680 31028
L22680 30915
L22661 30878
L22642 30859
L22605 30840
L22548 30840
L22511 30859
L22492 30878
L22473 30915
L22473 31028
L22492 31065
L22511 31084
L22548 31103
L22605 31103
" />
<path d="M22305 31103
L22305 30840
" />
<path d="M22305 30878
L22286 30859
L22248 30840
L22192 30840
L22155 30859
L22136 30897
L22136 31103
" />
<path d="M22136 30897
L22117 30859
L22080 30840
L22023 30840
L21986 30859
L21967 30897
L21967 31103
" />
</g>
<g style="fill:#840084; fill-opacity:0.0; 
stroke:#840084; stroke-width:78.7402; stroke-opacity:1; 
stroke-linecap:round; stroke-linejoin:round;">
<text x="21063" y="35787.4"
transform="scale(-1 1) translate(-42125.984252 0)"
textLength="1010.59" font-size="524.934" lengthAdjust="spacingAndGlyphs"
text-anchor="start" opacity="0">SCL</text>
<path d="M20936 35749
L20880 35768
L20786 35768
L20749 35749
L20730 35731
L20711 35693
L20711 35656
L20730 35618
L20749 35599
L20786 35581
L20861 35562
L20899 35543
L20918 35524
L20936 35487
L20936 35449
L20918 35412
L20899 35393
L20861 35374
L20768 35374
L20711 35393
" />
<path d="M20318 35731
L20336 35749
L20393 35768
L20430 35768
L20486 35749
L20524 35712
L20543 35674
L20561 35599
L20561 35543
L20543 35468
L20524 35431
L20486 35393
L20430 35374
L20393 35374
L20336 35393
L20318 35412
" />
<path d="M19961 35768
L20149 35768
L20149 35374
" />
<text x="22440.9" y="35787.4"
transform="scale(-1 1) translate(-44881.889764 0)"
textLength="1003.75" font-size="524.934" lengthAdjust="spacingAndGlyphs"
text-anchor="start" opacity="0">SDA</text>
<path d="M22314 35749
L22258 35768
L22164 35768
L22127 35749
L22108 35731
L22089 35693
L22089 35656
L22108 35618
L22127 35599
L22164 35581
L22239 35562
L22277 35543
L22296 35524
L22314 35487
L22314 35449
L22296 35412
L22277 35393
L22239 35374
L22146 35374
L22089 35393
" />
<path d="M21921 35768
L21921 35374
L21827 35374
L21771 35393
L21733 35431
L21714 35468
L21696 35543
L21696 35599
L21714 35674
L21733 35712
L21771 35749
L21827 35768
L21921 35768
" />
<path d="M21546 35656
L21358 35656
" />
<path d="M21583 35768
L21452 35374
L21321 35768
" />
<text x="19921.3" y="32126"
transform="scale(-1 1) translate(-39842.519685 0)"
textLength="1059.99" font-size="524.934" lengthAdjust="spacingAndGlyphs"
text-anchor="start" opacity="0">SCK</text>
<path d="M19795 32088
L19738 32107
L19645 32107
L19607 32088
L19588 32069
L19570 32032
L19570 31994
L19588 31957
L19607 31938
L19645 31919
L19720 31901
L19757 31882
L19776 31863
L19795 31826
L19795 31788
L19776 31751
L19757 31732
L19720 31713
L19626 31713
L19570 31732
" />
<path d="M19176 32069
L19195 32088
L19251 32107
L19288 32107
L19345 32088
L19382 32050
L19401 32013
L19420 31938
L19420 31882
L19401 31807
L19382 31769
L19345 31732
L19288 31713
L19251 31713
L19195 31732
L19176 31751
" />
<path d="M19007 32107
L19007 31713
" />
<path d="M18782 32107
L18951 31882
" />
<path d="M18782 31713
L19007 31938
" />
<text x="20000" y="33169.3"
transform="scale(-1 1) translate(-40000.000000 0)"
textLength="1322.46" font-size="524.934" lengthAdjust="spacingAndGlyphs"
text-anchor="start" opacity="0">MISO</text>
<path d="M19855 33150
L19855 32756
L19723 33038
L19592 32756
L19592 33150
" />
<path d="M19405 33150
L19405 32756
" />
<path d="M19236 33131
L19180 33150
L19086 33150
L19048 33131
L19030 33113
L19011 33075
L19011 33038
L19030 33000
L19048 32981
L19086 32963
L19161 32944
L19198 32925
L19217 32906
L19236 32869
L19236 32831
L19217 32794
L19198 32775
L19161 32756
L19067 32756
L19011 32775
" />
<path d="M18767 32756
L18692 32756
L18655 32775
L18617 32813
L18598 32888
L18598 33019
L18617 33094
L18655 33131
L18692 33150
L18767 33150
L18805 33131
L18842 33094
L18861 33019
L18861 32888
L18842 32813
L18805 32775
L18767 32756
" />
<text x="19940.9" y="34055.1"
transform="scale(-1 1) translate(-39881.889764 0)"
textLength="572.554" font-size="524.934" lengthAdjust="spacingAndGlyphs"
text-anchor="start" opacity="0">TX</text>
<path d="M19852 33642
L19627 33642
" />
<path d="M19739 34036
L19739 33642
" />
<path d="M19533 33642
L19271 34036
" />
<path d="M19271 33642
L19533 34036
" />
<text x="21889.8" y="34015.7"
transform="scale(-1 1) translate(-43779.527559 0)"
textLength="666.292" font-size="524.934" lengthAdjust="spacingAndGlyphs"
text-anchor="end" opacity="0">RX</text>
<path d="M22390 33997
L22522 33809
" />
<path d="M22615 33997
L22615 33603
L22465 33603
L22428 33622
L22409 33640
L22390 33678
L22390 33734
L22409 33772
L22428 33790
L22465 33809
L22615 33809
" />
<path d="M22259 33603
L21997 33997
" />
<path d="M21997 33603
L22259 33997
" />
<text x="21614.2" y="32755.9"
transform="scale(-1 1) translate(-43228.346457 0)"
textLength="1322.46" font-size="524.934" lengthAdjust="spacingAndGlyphs"
text-anchor="end" opacity="0">MOSI</text>
<path d="M22996 32737
L22996 32343
L22865 32624
L22733 32343
L22733 32737
" />
<path d="M22471 32343
L22396 32343
L22359 32362
L22321 32399
L22302 32474
L22302 32605
L22321 32680
L22359 32718
L22396 32737
L22471 32737
L22508 32718
L22546 32680
L22565 32605
L22565 32474
L22546 32399
L22508 32362
L22471 32343
" />
<path d="M22152 32718
L22096 32737
L22002 32737
L21965 32718
L21946 32699
L21927 32662
L21927 32624
L21946 32587
L21965 32568
L22002 32549
L22077 32530
L22115 32512
L22134 32493
L22152 32455
L22152 32418
L22134 32380
L22115 32362
L22077 32343
L21984 32343
L21927 32362
" />
<path d="M21759 32737
L21759 32343
" />
<text x="21692.9" y="31968.5"
transform="scale(-1 1) translate(-43385.826772 0)"
textLength="666.292" font-size="524.934" lengthAdjust="spacingAndGlyphs"
text-anchor="end" opacity="0">CS</text>
<path d="M22194 31912
L22212 31931
L22269 31949
L22306 31949
L22362 31931
L22400 31893
L22419 31856
L22437 31781
L22437 31724
L22419 31649
L22400 31612
L22362 31574
L22306 31556
L22269 31556
L22212 31574
L22194 31593
" />
<path d="M22044 31931
L21987 31949
L21894 31949
L21856 31931
L21837 31912
L21819 31874
L21819 31837
L21837 31799
L21856 31781
L21894 31762
L21969 31743
L22006 31724
L22025 31706
L22044 31668
L22044 31631
L22025 31593
L22006 31574
L21969 31556
L21875 31556
L21819 31574
" />
<text x="28956.7" y="31968.5"
transform="scale(-1 1) translate(-57913.385827 0)"
textLength="1116.24" font-size="524.934" lengthAdjust="spacingAndGlyphs"
text-anchor="start" opacity="0">VB+</text>
<path d="M28868 31556
L28736 31949
L28605 31556
" />
<path d="M28343 31743
L28286 31762
L28268 31781
L28249 31818
L28249 31874
L28268 31912
L28286 31931
L28324 31949
L28474 31949
L28474 31556
L28343 31556
L28305 31574
L28286 31593
L28268 31631
L28268 31668
L28286 31706
L28305 31724
L28343 31743
L28474 31743
" />
<path d="M28080 31799
L27780 31799
" />
<path d="M27930 31949
L27930 31649
" />
<text x="28976.4" y="35315"
transform="scale(-1 1) translate(-57952.755906 0)"
textLength="1116.24" font-size="524.934" lengthAdjust="spacingAndGlyphs"
text-anchor="start" opacity="0">VB-</text>
<path d="M28887 34902
L28756 35296
L28625 34902
" />
<path d="M28362 35089
L28306 35108
L28287 35127
L28269 35164
L28269 35221
L28287 35258
L28306 35277
L28344 35296
L28494 35296
L28494 34902
L28362 34902
L28325 34921
L28306 34940
L28287 34977
L28287 35014
L28306 35052
L28325 35071
L28362 35089
L28494 35089
" />
<path d="M28100 35146
L27800 35146
" />
<text x="28976.4" y="34232.3"
transform="scale(-1 1) translate(-57952.755906 0)"
textLength="1753.66" font-size="524.934" lengthAdjust="spacingAndGlyphs"
text-anchor="start" opacity="0">CAN_H</text>
<path d="M28606 34176
L28625 34194
L28681 34213
L28718 34213
L28775 34194
L28812 34157
L28831 34119
L28850 34044
L28850 33988
L28831 33913
L28812 33876
L28775 33838
L28718 33819
L28681 33819
L28625 33838
L28606 33857
" />
<path d="M28456 34101
L28269 34101
" />
<path d="M28494 34213
L28362 33819
L28231 34213
" />
<path d="M28100 34213
L28100 33819
L27875 34213
L27875 33819
" />
<path d="M27781 34251
L27481 34251
" />
<path d="M27387 34213
L27387 33819
" />
<path d="M27387 34007
L27162 34007
" />
<path d="M27162 34213
L27162 33819
" />
</g>
<g style="fill:#840084; fill-opacity:0.0; 
stroke:#840084; stroke-width:98.4252; stroke-opacity:1; 
stroke-linecap:round; stroke-linejoin:round;">
<text x="19133.9" y="30157.5"
transform="scale(-1 1) translate(-38267.716535 0)"
textLength="1097.49" font-size="524.934" lengthAdjust="spacingAndGlyphs"
text-anchor="middle" opacity="0">+5V</text>
<path d="M19640 29988
L19340 29988
" />
<path d="M19490 30138
L19490 29838
" />
<path d="M18965 29745
L19152 29745
L19171 29932
L19152 29913
L19115 29895
L19021 29895
L18983 29913
L18965 29932
L18946 29970
L18946 30063
L18965 30101
L18983 30119
L19021 30138
L19115 30138
L19152 30119
L19171 30101
" />
<path d="M18833 29745
L18702 30138
L18571 29745
" />
<text x="17421.3" y="30157.5"
transform="scale(-1 1) translate(-34842.519685 0)"
textLength="1071.9" font-size="524.934" lengthAdjust="spacingAndGlyphs"
text-anchor="middle" opacity="0">GND</text>
<path d="M17721 29763
L17758 29745
L17814 29745
L17871 29763
L17908 29801
L17927 29838
L17946 29913
L17946 29970
L17927 30044
L17908 30082
L17871 30119
L17814 30138
L17777 30138
L17721 30119
L17702 30101
L17702 29970
L17777 29970
" />
<path d="M17533 30138
L17533 29745
L17308 30138
L17308 29745
" />
<path d="M17121 30138
L17121 29745
L17027 29745
L16971 29763
L16933 29801
L16915 29838
L16896 29913
L16896 29970
L16915 30044
L16933 30082
L16971 30119
L17027 30138
L17121 30138
" />
</g>
<g style="fill:#840084; fill-opacity:1.0; 
stroke:#840084; stroke-width:3.93701; stroke-opacity:1; 
stroke-linecap:round; stroke-linejoin:round;">
<path style="fill:#840084; fill-opacity:1.0; 
stroke:#840084; stroke-width:3.93701; stroke-opacity:1; 
stroke-linecap:round; stroke-linejoin:round;fill-rule:evenodd;"
d="M 24644.5,32871.1
24602.6,32884.3
24567,32905.7
24546.5,32926.6
24523.1,32968.1
24509.4,33017.4
24505.3,33072.1
24510.9,33130.3
24526,33189.7
24550.6,33248.3
24551.1,33249.2
24567,33280.1
24640,33288.2
24683.1,33293.7
24714.1,33299.9
24734.7,33307.4
24746.5,33316.9
24751.2,33329.2
24751.4,33336.3
24746.5,33359.5
24734.5,33389
24717.7,33420.8
24697.9,33450.8
24685.1,33466.8
24658.2,33494.5
24633.5,33512.1
24606.7,33521.6
24573.4,33525.1
24561.4,33525.2
24527.7,33523.3
24491.6,33518.1
24455.5,33510.3
24422.1,33500.8
24393.8,33490.3
24373.4,33479.5
24363.3,33469.2
24362.6,33466.2
24367.7,33446.4
24381.7,33420.3
24403.1,33390.7
24430.1,33360.1
24435.8,33354.3
24466.7,33323.3
24383.9,33323.3
24378.9,33350.6
24364.9,33373.6
24338,33397.1
24307.7,33407.3
24273.6,33404.3
24256,33398.2
24232,33381.6
24217.2,33358
24211.6,33330.5
24215.1,33302.3
24227.7,33276.6
24249.4,33256.7
24256.5,33252.9
24287.9,33243.9
24317.5,33245.8
24343.6,33256.6
24364.6,33274.4
24378.6,33297.3
24383.9,33323.3
24466.7,33323.3
24479.4,33310.7
24465.3,33274.8
24439.9,33222.5
24407,33172.6
24368.9,33128.1
24328.1,33091.9
24293.9,33070.1
24250,33054.7
24203.6,33050.7
24158,33057.5
24116.3,33074.9
24087.3,33096.6
24073.4,33111.1
24065.1,33124.2
24060.3,33140.8
24057.3,33165.5
24056.7,33171.5
24056.4,33249.3
24068.9,33325
24093.2,33397.2
24128.4,33464.6
24173.5,33525.8
24227.5,33579.5
24289.5,33624.2
24358.5,33658.7
24415.1,33677.1
24470.1,33686.9
24531.1,33690.5
24592.3,33687.9
24648,33679.2
24656.7,33677.1
24731.4,33650.5
24800.6,33612.1
24862.6,33563.1
24916,33504.7
24959.1,33438.4
24965.9,33425.2
24978.2,33399.3
24984.7,33381.8
24986.2,33369.2
24983.7,33357.8
24982.8,33355.4
24979.6,33340.8
24976.7,33315.9
24974.5,33284.4
24973.4,33252.8
24972.1,33212.9
24969.5,33182.1
24969,33179.4
24791.6,33179.4
24781.1,33207.6
24759.7,33231.4
24755.7,33234.2
24725.7,33246.8
24693.1,33247.8
24662.3,33237.6
24645.2,33225
24626.6,33199.7
24619.7,33173.1
24623,33146.9
24634.7,33123
24653.2,33103.3
24676.9,33089.7
24704,33084
24733,33088.1
24756.4,33099.6
24779.2,33122.2
24790.9,33149.9
24791.6,33179.4
24969,33179.4
24964.9,33156
24957.8,33129.8
24952.9,33114.9
24925.9,33050
24892.3,32992.4
24853.4,32943.7
24810.5,32905.7
24777.7,32885.8
24735.2,32871.3
24689.8,32866.5
Z" /> 
<path style="fill:#840084; fill-opacity:1.0; 
stroke:#840084; stroke-width:3.93701; stroke-opacity:1; 
stroke-linecap:round; stroke-linejoin:round;fill-rule:evenodd;"
d="M 25719.1,32659
25697.8,32674.7
25680.9,32699.5
25675.7,32725.8
25680.4,32751.4
25693.5,32773.8
25713.5,32790.7
25738.5,32799.8
25767.2,32798.7
25779.9,32794.6
25803.4,32778.5
25817.7,32755.5
25822.8,32728.9
25818.6,32702.1
25805.3,32678.2
25782.8,32660.6
25778.7,32658.8
25747.6,32652.1
Z" /> 
<path style="fill:#840084; fill-opacity:1.0; 
stroke:#840084; stroke-width:3.93701; stroke-opacity:1; 
stroke-linecap:round; stroke-linejoin:round;fill-rule:evenodd;"
d="M 25720.3,33029.1
25700.8,33042.4
25684.1,33062.5
25674.2,33084.2
25673,33093.1
25678.7,33117.9
25693.3,33142.2
25713.1,33160.2
25717.7,33162.6
25738.5,33171
25755.1,33172.2
25774.7,33166.2
25781.2,33163.4
25804.1,33146.5
25818.8,33121.3
25823,33092.2
25822.3,33085.2
25811.4,33056.6
25791.3,33035.9
25764.8,33024.6
25735,33024.6
Z" /> 
<path style="fill:#840084; fill-opacity:1.0; 
stroke:#840084; stroke-width:3.93701; stroke-opacity:1; 
stroke-linecap:round; stroke-linejoin:round;fill-rule:evenodd;"
d="M 26283,33211
26260.4,33223.5
26243.1,33242.7
26232.8,33266.4
26231.2,33292.2
26240.1,33317.7
26251.8,33332.7
26266.9,33345.4
26279.7,33352.4
26282.2,33352.8
26298,33354.9
26301.7,33356
26314,33355.6
26331.2,33350.4
26332.4,33349.8
26357,33332.6
26371.9,33308.9
26377,33281.8
26372.3,33254.7
26357.5,33230.9
26337.2,33215.7
26309.1,33207.6
Z" /> 
<path style="fill:#840084; fill-opacity:1.0; 
stroke:#840084; stroke-width:3.93701; stroke-opacity:1; 
stroke-linecap:round; stroke-linejoin:round;fill-rule:evenodd;"
d="M 23503.8,33397.9
23482.3,33410.8
23478.3,33414.3
23463.8,33429.5
23457.2,33444.8
23455.7,33466.6
23457.3,33488.7
23463.9,33503.9
23478.3,33518.9
23499.9,33533.8
23523.3,33538.9
23528.2,33539
23552.5,33535.3
23574,33522.4
23578,33518.9
23592.5,33503.7
23599.1,33488.4
23600.6,33466.6
23599,33444.5
23592.4,33429.3
23578,33414.3
23556.4,33399.4
23533.1,33394.3
23528.2,33394.2
Z" /> 
<path style="fill:#840084; fill-opacity:1.0; 
stroke:#840084; stroke-width:3.93701; stroke-opacity:1; 
stroke-linecap:round; stroke-linejoin:round;fill-rule:evenodd;"
d="M 23599.2,33950.9
23583.9,33957.6
23569,33971.9
23552.2,33999.5
23548.4,34028.5
23557.8,34056.7
23567.8,34070.2
23591.3,34087.6
23619.1,34095.4
23646.3,34092.5
23649.6,34091.2
23673.6,34074.3
23688.4,34050
23693.1,34021.9
23687.2,33993.4
23673.5,33971.9
23658.4,33957.4
23643.1,33950.9
23621.3,33949.4
Z" /> 
<path style="fill:#840084; fill-opacity:1.0; 
stroke:#840084; stroke-width:3.93701; stroke-opacity:1; 
stroke-linecap:round; stroke-linejoin:round;fill-rule:evenodd;"
d="M 25703.2,33678.5
25700.6,33679.7
25703.1,33687.3
25710,33705.1
25720.4,33730.6
25733.1,33761.3
25735.8,33767.6
25753,33809.7
25772.3,33859.1
25792.6,33912.3
25812.5,33966
25830.7,34016.7
25846,34061
25855.8,34091
25867.7,34129.2
25953.4,34126.4
26031.8,34126.5
26118.1,34131.4
26207.5,34140.7
26287.6,34152.7
26325.4,34160
26370.5,34169.9
26419.4,34181.5
26468.4,34193.8
26514,34206.1
26552.4,34217.3
26575.6,34224.8
26599.4,34232.6
26614.3,34235
26624.3,34232.2
26630.2,34227.3
26636.7,34217
26636.9,34203.6
26630.1,34185.4
26615.7,34160.4
26593,34126.9
26591.8,34125.2
26518.7,34033.8
26436.1,33952.1
26344.3,33880.4
26243.7,33818.9
26134.9,33768
26018.3,33727.9
25894.2,33698.8
25873,33695
25838.9,33689.8
25803.7,33685.3
25769.8,33681.6
25740.1,33679.1
25717,33678
Z" /> 
<path style="fill:#840084; fill-opacity:1.0; 
stroke:#840084; stroke-width:3.93701; stroke-opacity:1; 
stroke-linecap:round; stroke-linejoin:round;fill-rule:evenodd;"
d="M 23921.9,34345.3
23898.3,34362.2
23883.8,34388.2
23879.9,34415.1
23886.2,34439.2
23902.6,34461
23925.4,34477
23951.2,34483.8
23953.5,34483.8
23975.6,34480.9
23994.5,34473.8
23996.3,34472.6
24017.1,34451
24026.8,34425.5
24026.4,34398.9
24016.9,34374.2
23999.1,34354.2
23973.9,34341.8
23953.1,34339.2
Z" /> 
<path style="fill:#840084; fill-opacity:1.0; 
stroke:#840084; stroke-width:3.93701; stroke-opacity:1; 
stroke-linecap:round; stroke-linejoin:round;fill-rule:evenodd;"
d="M 23503.8,34508.2
23482.3,34521.1
23478.3,34524.7
23463.8,34539.8
23457.2,34555.1
23455.7,34576.9
23457.3,34599
23463.9,34614.3
23478.3,34629.2
23499.9,34644.1
23523.3,34649.3
23528.2,34649.4
23552.5,34645.7
23574,34632.8
23578,34629.2
23592.5,34614.1
23599.1,34598.8
23600.6,34576.9
23599,34554.9
23592.4,34539.6
23578,34524.7
23556.4,34509.8
23533.1,34504.6
23528.2,34504.5
Z" /> 
<path style="fill:#840084; fill-opacity:1.0; 
stroke:#840084; stroke-width:3.93701; stroke-opacity:1; 
stroke-linecap:round; stroke-linejoin:round;fill-rule:evenodd;"
d="M 23720.7,31868.1
23716.7,31879
23712.8,31902.2
23709.2,31936.1
23705.9,31979.3
23703.1,32030
23700.8,32086.9
23699.2,32148.4
23698.2,32213
23698,32266.6
23704.1,32485.6
23721.7,32697.9
23750.7,32903.3
23791.2,33101.5
23843,33292.5
23906.1,33476
23980.4,33651.9
24066,33819.9
24111.1,33897.6
24196.2,34033.5
24286.4,34167.5
24380.5,34298.1
24476.9,34423.3
24574.4,34541.5
24671.5,34650.9
24766.9,34749.7
24814.9,34795.9
24864.6,34842.4
24904.8,34792.4
24960.5,34728.8
25025.9,34663.5
25097.8,34599.5
25172.8,34539.5
25247.7,34486.5
25287.1,34461.6
25385.4,34407.6
25490.1,34359.5
25597.6,34318.8
25703.9,34286.9
25781.6,34269.5
25803.8,34264.6
25819.4,34259.8
25824.7,34256.4
25822.7,34246.6
25817.2,34226.3
25808.9,34197.9
25798.7,34163.9
25787.3,34126.8
25775.5,34089.2
25764,34053.6
25753.7,34022.5
25746.3,34001.1
25679.4,33828.1
25602.4,33651.4
25516.6,33474.4
25423.8,33300.5
25400.1,33258.6
25370.1,33208
25089.7,33208
25088.9,33262
25085.7,33306.4
25079.1,33345.3
25068.4,33382.7
25052.5,33422.6
25035.3,33459.7
24992.5,33532.7
24939.1,33597.8
24876.4,33654.1
24805.6,33700.6
24727.9,33736.4
24644.8,33760.6
24614.1,33766.3
24574.4,33769.7
24526.8,33769.7
24476.7,33766.6
24429.7,33760.5
24404,33755.2
24364.3,33743.1
24318.8,33725
24272.8,33703.6
24231.7,33681.1
24213.3,33669.3
24151,33618.3
24096.9,33557.5
24051.8,33488.6
24016.6,33413.7
23992.1,33334.5
23979.4,33252.9
23978.8,33176.9
23991.1,33092.8
24015.9,33012
24052.2,32936.1
24099,32866.4
24155.4,32804.4
24220.4,32751.5
24292.9,32709.2
24303.6,32704.2
24368.3,32679.4
24433.4,32664.2
24503.2,32657.8
24555.7,32658.2
24611.9,32661.7
24658.9,32668.2
24701.4,32678.8
24743.8,32694.4
24781.6,32711.8
24857,32756.2
24923.4,32810.9
24980.4,32875.2
25027.2,32948.3
25063.2,33029.5
25067.6,33042.3
25076.3,33069.4
25082.4,33091.7
25086.2,33113
25088.4,33137
25089.4,33167.3
25089.7,33207.7
25089.7,33208
25370.1,33208
25335.5,33149.4
25272,33050.7
25207.6,32959.3
25139.8,32872.4
25066.6,32787
24985.5,32700.1
24935.4,32649.3
24808.4,32528.3
24679.1,32416.9
24544.7,32313.1
24402.7,32215
24250.5,32120.4
24197.1,32089.4
24152.4,32064.5
24103.5,32038.4
24052.1,32011.9
23999.6,31985.7
23947.5,31960.4
23897.3,31936.7
23850.5,31915.4
23808.7,31897.2
23773.2,31882.7
23745.7,31872.6
23727.6,31867.7
Z" /> 
<path style="fill:#840084; fill-opacity:1.0; 
stroke:#840084; stroke-width:3.93701; stroke-opacity:1; 
stroke-linecap:round; stroke-linejoin:round;fill-rule:evenodd;"
d="M 25798,34344.9
25772.4,34349.3
25757.9,34352.3
25624.6,34389
25495.6,34438.5
25372,34500.2
25254.6,34573.6
25144.6,34658
25042.7,34752.9
24989,34811.2
24968,34835.6
24950.8,34856.4
24939.2,34871.2
24935.1,34877.9
24940.1,34883.9
24953.3,34896
24972.1,34912
24993.6,34929.6
25015.1,34946.8
25033.9,34961.1
25047.2,34970.5
25052,34972.9
25058,34967.9
25071.1,34954.8
25089.6,34935.8
25107.5,34916.8
25203.2,34824.1
25309.5,34740
25426,34664.8
25552.2,34598.6
25687.8,34541.7
25832.3,34494.3
25835.7,34493.4
25857.1,34487.3
25843.9,34418.3
25837.9,34388.8
25832.1,34364.5
25827.5,34348.5
25825.4,34343.9
25816.7,34343
Z" /> 
<path style="fill:#840084; fill-opacity:1.0; 
stroke:#840084; stroke-width:3.93701; stroke-opacity:1; 
stroke-linecap:round; stroke-linejoin:round;fill-rule:evenodd;"
d="M 24847.5,31888
24784.4,31889.3
24729.2,31891.9
24678.6,31896.1
24629.8,31902.2
24579.7,31910.6
24525.3,31921.4
24487.1,31929.7
24455.1,31937.3
24418.4,31947
24379.2,31958.1
24339.9,31969.7
24302.5,31981.4
24269.4,31992.2
24242.8,32001.6
24224.9,32008.9
24218,32013.3
24217.9,32013.4
24223.6,32018.7
24238.8,32029
24260.9,32042.8
24278.9,32053.4
24339.8,32088.4
24370.2,32079
24511.4,32042.1
24658.4,32016.4
24808.8,32002
24960,31999.2
25109.7,32008
25217.4,32022
25372.2,32054.1
25523.6,32099.4
25670.9,32157.5
25813,32227.9
25949.1,32310.4
26078.4,32404.4
26079.9,32405.6
26121.5,32440.8
26168.6,32483.9
26218.2,32532
26267.4,32582.2
26313.2,32631.4
26352.7,32676.8
26368.1,32695.6
26462.6,32826.2
26545.1,32962.9
26615.3,33105.3
26672.8,33252.7
26717.5,33404.4
26749.1,33559.9
26759.4,33634.7
26764.4,33691.2
26767.6,33757.2
26769.1,33828.7
26768.7,33901.6
26766.7,33971.8
26762.8,34035.2
26759.3,34071.4
26734.2,34227.3
26695.8,34379.9
26644.6,34528.6
26580.8,34672.6
26504.7,34811.1
26416.8,34943.4
26317.3,35068.7
26301.5,35086.8
26252.9,35141.6
26257.2,35197.2
26259.9,35233.4
26262.9,35257.8
26267.6,35270.8
26275.8,35272.7
26288.9,35264
26308.7,35244.8
26336.7,35215.7
26337.5,35214.9
26447.3,35090.7
26545.6,34959
26632,34820.5
26706.5,34675.5
26768.7,34524.7
26818.3,34368.5
26855.2,34207.4
26866.2,34141.8
26875.3,34067.8
26881.5,33984.7
26884.9,33897.1
26885.4,33809.5
26882.8,33726.3
26877.2,33652.8
26852.8,33487.6
26815.5,33327.1
26765.6,33171.7
26703.3,33021.9
26628.7,32878
26542.2,32740.5
26443.7,32609.9
26333.7,32486.7
26331.8,32484.7
26210.3,32369.1
26081.9,32265.6
25946.7,32174
25804.7,32094.3
25655.7,32026.7
25499.9,31971
25386.8,31939.1
25322.4,31923.8
25263,31911.6
25205.5,31902.4
25146.9,31895.7
25084,31891.3
25014,31888.7
24933.7,31887.7
24921.3,31887.7
Z" /> 
<path style="fill:#840084; fill-opacity:1.0; 
stroke:#840084; stroke-width:3.93701; stroke-opacity:1; 
stroke-linecap:round; stroke-linejoin:round;fill-rule:evenodd;"
d="M 24386.8,34501.2
24369.6,34543.3
24351.1,34594.3
24333,34649.7
24316.7,34704.7
24303.7,34754.9
24300.3,34770.1
24293.6,34806.5
24288.5,34846.6
24284.9,34893.3
24282.4,34949.9
24281.9,34966.6
24281,35033.9
24282.6,35091.4
24287.3,35143
24295.4,35192.5
24307.5,35243.7
24322,35294.2
24332.8,35326
24346.8,35362.5
24362.9,35401.1
24379.9,35439
24396.4,35473.5
24411.3,35502
24423.3,35521.7
24428.2,35527.8
24444.7,35537.5
24461.4,35537.3
24470.9,35530.4
24474.6,35520.7
24480,35500.3
24486.6,35471.8
24493.7,35438
24495.5,35428.7
24519.5,35322.3
24549.8,35215.7
24585.4,35111.7
24625.2,35013.4
24668.2,34923.5
24703.5,34860.7
24728,34820.3
24658.2,34746.9
24626.4,34712.8
24590,34672.7
24553.5,34631.6
24521.1,34594.2
24518.6,34591.3
24492.6,34560.7
24467.9,34531.8
24446.8,34507.2
24431.4,34489.5
24427.1,34484.5
24405.3,34459.9
Z" /> 
<path style="fill:#840084; fill-opacity:1.0; 
stroke:#840084; stroke-width:3.93701; stroke-opacity:1; 
stroke-linecap:round; stroke-linejoin:round;fill-rule:evenodd;"
d="M 23610.6,32378.4
23595.7,32391.9
23574.6,32412.5
23548.9,32438.6
23520.1,32468.5
23489.8,32500.7
23459.3,32533.4
23430.4,32565.2
23404.4,32594.4
23383,32619.4
23369.9,32635.6
23272,32772.6
23186.9,32914.8
23114.5,33062.1
23055,33214.6
23008.4,33372
22974.6,33534.4
22958.1,33655.1
22952.7,33726.1
22950.3,33806.1
22950.7,33891
22953.8,33976.4
22959.6,34058
22968,34131.5
22969.5,34141.8
23000.4,34301.7
23043.8,34456.7
23099.2,34606.3
23166,34749.9
23243.6,34887
23331.5,35017.1
23429.1,35139.5
23535.9,35253.7
23651.4,35359
23774.9,35455.1
23905.9,35541.2
24043.9,35616.9
24188.3,35681.6
24338.6,35734.6
24494.1,35775.5
24588,35793.6
24674.4,35805.8
24766.1,35814.7
24858.9,35820
24948.5,35821.5
25030.7,35819
25055.7,35817.2
25159.3,35806.1
25263.3,35790.1
25363.7,35769.9
25456.3,35746.3
25492.7,35735.4
25571.1,35710.5
25448.1,35630.9
25358.8,35653.2
25287.2,35669.7
25219.9,35682.3
25152.7,35691.5
25081.7,35697.8
25002.8,35701.7
24964.8,35702.8
24853.6,35703.2
24751.4,35698.4
24654.3,35688.1
24558.3,35671.9
24459.6,35649.1
24423.7,35639.6
24273.8,35591.4
24129.3,35530.8
23991,35458.4
23859.5,35374.8
23735.7,35280.6
23620.1,35176.3
23513.4,35062.5
23416.4,34939.8
23329.8,34808.7
23256.2,34674.1
23203.3,34558.5
23160,34444.6
23124.9,34328.5
23096.9,34205.9
23082.8,34127.3
23078,34088.8
23074,34039.7
23070.8,33982.9
23068.6,33921.6
23067.4,33858.7
23067.3,33797.4
23068.3,33740.8
23070.5,33691.8
23072.6,33665.6
23095.4,33507.8
23131.4,33353.6
23180.3,33203.6
23241.8,33058.5
23315.6,32918.7
23401.5,32785.1
23499.1,32658.1
23577,32570.7
23631.8,32512.8
23627.2,32443.2
23624.9,32414.1
23622.1,32390.9
23619.5,32376.7
23617.8,32373.5
Z" /> 
<g >
</g>
</g>
<g style="fill:#000000; fill-opacity:1.0; 
stroke:#000000; stroke-width:3.93701; stroke-opacity:1; 
stroke-linecap:round; stroke-linejoin:round;">
</g>
<g style="fill:#C2C200; fill-opacity:1.0; 
stroke:#C2C200; stroke-width:3.93701; stroke-opacity:1; 
stroke-linecap:round; stroke-linejoin:round;">
</g>
<g style="fill:#C2C200; fill-opacity:1.0; 
stroke:#C2C200; stroke-width:59.0551; stroke-opacity:1; 
stroke-linecap:round; stroke-linejoin:round;">
</g>
<g style="fill:#C2C200; fill-opacity:0.0; 
stroke:#C2C200; stroke-width:59.0551; stroke-opacity:1; 
stroke-linecap:round; stroke-linejoin:round;">
<path d="M16299 29527
L16299 31929
" />
<path d="M31141 29527
L31141 37401
" />
<path d="M18503 32244
L18503 34685
" />
<path d="M16299 31929
L18188 31929
" />
<path d="M18503.9 32244.1 A314.961 314.961 0.0 0 0 18189 31929.1" />
<path d="M18189 35000 A314.961 314.961 0.0 0 0 18503.9 34685" />
<path d="M16299 35000
L18188 35000
" />
<path d="M16299 37401
L16299 35000
" />
<path d="M31141 37401
L16299 37401
" />
<path d="M16299 29527
L31141 29527
" />
<g >
</g>
<g >
</g>
<g >
</g>
<g >
</g>
<g >
</g>
<g >
</g>
<g >
</g>
<g >
</g>
<g >
</g>
<g >
</g>
<g >
</g>
<g >
</g>
<g >
</g>
<g >
</g>
<g >
</g>
<g >
</g>
<g >
</g>
<g >
</g>
<g >
</g>
<g >
</g>
<g >
</g>
<g >
</g>
<g >
</g>
<g >
</g>
<g >
</g>
<g >
</g>
<g >
</g>
<g >
</g>
<g >
</g>
<g >
</g>
<g >
</g>
<g >
</g>
<g >
</g>
<g >
</g>
<g >
</g>
<g >
</g>
<g >
</g>
<g >
</g>
<g >
</g>
<g >
</g>
<g >
</g>
<g >
</g>
<g >
</g>
<g >
</g>
<g >
</g>
<g >
</g>
</g> 
</svg>
