<?xml version="1.0" standalone="no"?>
 <!DOCTYPE svg PUBLIC "-//W3C//DTD SVG 1.1//EN" 
 "http://www.w3.org/Graphics/SVG/1.1/DTD/svg11.dtd"> 
<svg
  xmlns:svg="http://www.w3.org/2000/svg"
  xmlns="http://www.w3.org/2000/svg"
  xmlns:xlink="http://www.w3.org/1999/xlink"
  version="1.1"
  width="29.700220cm" height="21.000720cm" viewBox="0 0 116930 82680">
<title>SVG Picture created as candleLight-F_Fab.svg date 2021/03/04 17:41:33 </title>
  <desc>Picture generated by PCBNEW </desc>
<g style="fill:#000000; fill-opacity:1;stroke:#000000; stroke-opacity:1;
stroke-linecap:round; stroke-linejoin:round;"
 transform="translate(0 0) scale(1 1)">
</g>
<g style="fill:#000000; fill-opacity:0.0; 
stroke:#000000; stroke-width:-0.000393701; stroke-opacity:1; 
stroke-linecap:round; stroke-linejoin:round;">
</g>
<g style="fill:#000000; fill-opacity:0.0; 
stroke:#000000; stroke-width:39.3701; stroke-opacity:1; 
stroke-linecap:round; stroke-linejoin:round;">
</g>
<g style="fill:#000000; fill-opacity:0.0; 
stroke:#000000; stroke-width:59.0551; stroke-opacity:1; 
stroke-linecap:round; stroke-linejoin:round;">
<rect x="69685.9" y="70869" width="43307.1" height="7874.02" rx="0" />
</g>
<g style="fill:#000000; fill-opacity:0.0; 
stroke:#000000; stroke-width:39.3701; stroke-opacity:1; 
stroke-linecap:round; stroke-linejoin:round;">
</g>
<g style="fill:#000000; fill-opacity:0.0; 
stroke:#000000; stroke-width:59.0551; stroke-opacity:1; 
stroke-linecap:round; stroke-linejoin:round;">
<rect x="3937.01" y="3937.01" width="109056" height="74806" rx="0" />
</g>
<g style="fill:#000000; fill-opacity:0.0; 
stroke:#000000; stroke-width:39.3701; stroke-opacity:1; 
stroke-linecap:round; stroke-linejoin:round;">
</g>
<g style="fill:#000000; fill-opacity:0.0; 
stroke:#000000; stroke-width:59.0551; stroke-opacity:1; 
stroke-linecap:round; stroke-linejoin:round;">
<text x="78741" y="77109.1"
textLength="8738.19" font-size="787.402" lengthAdjust="spacingAndGlyphs"
text-anchor="start" opacity="0">Date: 2021-03-03</text>
<path d="M78911 77081
L78911 76490
L79051 76490
L79136 76518
L79192 76574
L79220 76631
L79248 76743
L79248 76827
L79220 76940
L79192 76996
L79136 77052
L79051 77081
L78911 77081
" />
<path d="M79754 77081
L79754 76771
L79726 76715
L79670 76687
L79557 76687
L79501 76715
" />
<path d="M79754 77052
L79698 77081
L79557 77081
L79501 77052
L79473 76996
L79473 76940
L79501 76884
L79557 76856
L79698 76856
L79754 76827
" />
<path d="M79951 76687
L80176 76687
" />
<path d="M80036 76490
L80036 76996
L80064 77052
L80120 77081
L80176 77081
" />
<path d="M80598 77052
L80542 77081
L80429 77081
L80373 77052
L80345 76996
L80345 76771
L80373 76715
L80429 76687
L80542 76687
L80598 76715
L80626 76771
L80626 76827
L80345 76884
" />
<path d="M80879 77024
L80907 77052
L80879 77081
L80851 77052
L80879 77024
L80879 77081
" />
<path d="M80879 76715
L80907 76743
L80879 76771
L80851 76743
L80879 76715
L80879 76771
" />
<path d="M81582 76546
L81610 76518
L81667 76490
L81807 76490
L81863 76518
L81892 76546
L81920 76602
L81920 76659
L81892 76743
L81554 77081
L81920 77081
" />
<path d="M82285 76490
L82341 76490
L82398 76518
L82426 76546
L82454 76602
L82482 76715
L82482 76856
L82454 76968
L82426 77024
L82398 77052
L82341 77081
L82285 77081
L82229 77052
L82201 77024
L82173 76968
L82145 76856
L82145 76715
L82173 76602
L82201 76546
L82229 76518
L82285 76490
" />
<path d="M82707 76546
L82735 76518
L82791 76490
L82932 76490
L82988 76518
L83016 76546
L83045 76602
L83045 76659
L83016 76743
L82679 77081
L83045 77081
" />
<path d="M83607 77081
L83269 77081
" />
<path d="M83438 77081
L83438 76490
L83382 76574
L83326 76631
L83269 76659
" />
<path d="M83860 76856
L84310 76856
" />
<path d="M84704 76490
L84760 76490
L84816 76518
L84844 76546
L84872 76602
L84901 76715
L84901 76856
L84872 76968
L84844 77024
L84816 77052
L84760 77081
L84704 77081
L84647 77052
L84619 77024
L84591 76968
L84563 76856
L84563 76715
L84591 76602
L84619 76546
L84647 76518
L84704 76490
" />
<path d="M85097 76490
L85463 76490
L85266 76715
L85350 76715
L85407 76743
L85435 76771
L85463 76827
L85463 76968
L85435 77024
L85407 77052
L85350 77081
L85182 77081
L85126 77052
L85097 77024
" />
<path d="M85716 76856
L86166 76856
" />
<path d="M86560 76490
L86616 76490
L86672 76518
L86700 76546
L86728 76602
L86757 76715
L86757 76856
L86728 76968
L86700 77024
L86672 77052
L86616 77081
L86560 77081
L86503 77052
L86475 77024
L86447 76968
L86419 76856
L86419 76715
L86447 76602
L86475 76546
L86503 76518
L86560 76490
" />
<path d="M86953 76490
L87319 76490
L87122 76715
L87206 76715
L87263 76743
L87291 76771
L87319 76827
L87319 76968
L87291 77024
L87263 77052
L87206 77081
L87038 77081
L86982 77052
L86953 77024
" />
</g>
<g style="fill:#000000; fill-opacity:0.0; 
stroke:#000000; stroke-width:39.3701; stroke-opacity:1; 
stroke-linecap:round; stroke-linejoin:round;">
</g>
<g style="fill:#000000; fill-opacity:0.0; 
stroke:#000000; stroke-width:59.0551; stroke-opacity:1; 
stroke-linecap:round; stroke-linejoin:round;">
<text x="70079.6" y="74195.7"
textLength="17410" font-size="787.402" lengthAdjust="spacingAndGlyphs"
text-anchor="start" opacity="0">Item: candlelight-P01-R01-B01-C00</text>
<path d="M70249 74167
L70249 73577
" />
<path d="M70446 73773
L70671 73773
" />
<path d="M70530 73577
L70530 74083
L70559 74139
L70615 74167
L70671 74167
" />
<path d="M71093 74139
L71037 74167
L70924 74167
L70868 74139
L70840 74083
L70840 73858
L70868 73802
L70924 73773
L71037 73773
L71093 73802
L71121 73858
L71121 73914
L70840 73970
" />
<path d="M71374 74167
L71374 73773
" />
<path d="M71374 73830
L71402 73802
L71458 73773
L71543 73773
L71599 73802
L71627 73858
L71627 74167
" />
<path d="M71627 73858
L71655 73802
L71712 73773
L71796 73773
L71852 73802
L71880 73858
L71880 74167
" />
<path d="M72162 74111
L72190 74139
L72162 74167
L72133 74139
L72162 74111
L72162 74167
" />
<path d="M72162 73802
L72190 73830
L72162 73858
L72133 73830
L72162 73802
L72162 73858
" />
<path d="M73146 74139
L73090 74167
L72977 74167
L72921 74139
L72893 74111
L72865 74055
L72865 73886
L72893 73830
L72921 73802
L72977 73773
L73090 73773
L73146 73802
" />
<path d="M73652 74167
L73652 73858
L73624 73802
L73568 73773
L73455 73773
L73399 73802
" />
<path d="M73652 74139
L73596 74167
L73455 74167
L73399 74139
L73371 74083
L73371 74027
L73399 73970
L73455 73942
L73596 73942
L73652 73914
" />
<path d="M73933 73773
L73933 74167
" />
<path d="M73933 73830
L73961 73802
L74018 73773
L74102 73773
L74158 73802
L74186 73858
L74186 74167
" />
<path d="M74721 74167
L74721 73577
" />
<path d="M74721 74139
L74664 74167
L74552 74167
L74496 74139
L74467 74111
L74439 74055
L74439 73886
L74467 73830
L74496 73802
L74552 73773
L74664 73773
L74721 73802
" />
<path d="M75086 74167
L75030 74139
L75002 74083
L75002 73577
" />
<path d="M75536 74139
L75480 74167
L75367 74167
L75311 74139
L75283 74083
L75283 73858
L75311 73802
L75367 73773
L75480 73773
L75536 73802
L75564 73858
L75564 73914
L75283 73970
" />
<path d="M75902 74167
L75845 74139
L75817 74083
L75817 73577
" />
<path d="M76127 74167
L76127 73773
" />
<path d="M76127 73577
L76099 73605
L76127 73633
L76155 73605
L76127 73577
L76127 73633
" />
<path d="M76661 73773
L76661 74251
L76633 74308
L76605 74336
L76548 74364
L76464 74364
L76408 74336
" />
<path d="M76661 74139
L76605 74167
L76492 74167
L76436 74139
L76408 74111
L76380 74055
L76380 73886
L76408 73830
L76436 73802
L76492 73773
L76605 73773
L76661 73802
" />
<path d="M76942 74167
L76942 73577
" />
<path d="M77195 74167
L77195 73858
L77167 73802
L77111 73773
L77027 73773
L76970 73802
L76942 73830
" />
<path d="M77392 73773
L77617 73773
" />
<path d="M77476 73577
L77476 74083
L77505 74139
L77561 74167
L77617 74167
" />
<path d="M77814 73942
L78264 73942
" />
<path d="M78545 74167
L78545 73577
L78770 73577
L78826 73605
L78854 73633
L78883 73689
L78883 73773
L78854 73830
L78826 73858
L78770 73886
L78545 73886
" />
<path d="M79248 73577
L79304 73577
L79361 73605
L79389 73633
L79417 73689
L79445 73802
L79445 73942
L79417 74055
L79389 74111
L79361 74139
L79304 74167
L79248 74167
L79192 74139
L79164 74111
L79136 74055
L79108 73942
L79108 73802
L79136 73689
L79164 73633
L79192 73605
L79248 73577
" />
<path d="M80007 74167
L79670 74167
" />
<path d="M79839 74167
L79839 73577
L79782 73661
L79726 73717
L79670 73745
" />
<path d="M80260 73942
L80710 73942
" />
<path d="M81329 74167
L81132 73886
" />
<path d="M80992 74167
L80992 73577
L81217 73577
L81273 73605
L81301 73633
L81329 73689
L81329 73773
L81301 73830
L81273 73858
L81217 73886
L80992 73886
" />
<path d="M81695 73577
L81751 73577
L81807 73605
L81835 73633
L81863 73689
L81892 73802
L81892 73942
L81863 74055
L81835 74111
L81807 74139
L81751 74167
L81695 74167
L81638 74139
L81610 74111
L81582 74055
L81554 73942
L81554 73802
L81582 73689
L81610 73633
L81638 73605
L81695 73577
" />
<path d="M82454 74167
L82117 74167
" />
<path d="M82285 74167
L82285 73577
L82229 73661
L82173 73717
L82117 73745
" />
<path d="M82707 73942
L83157 73942
" />
<path d="M83635 73858
L83719 73886
L83748 73914
L83776 73970
L83776 74055
L83748 74111
L83719 74139
L83663 74167
L83438 74167
L83438 73577
L83635 73577
L83691 73605
L83719 73633
L83748 73689
L83748 73745
L83719 73802
L83691 73830
L83635 73858
L83438 73858
" />
<path d="M84141 73577
L84197 73577
L84254 73605
L84282 73633
L84310 73689
L84338 73802
L84338 73942
L84310 74055
L84282 74111
L84254 74139
L84197 74167
L84141 74167
L84085 74139
L84057 74111
L84029 74055
L84001 73942
L84001 73802
L84029 73689
L84057 73633
L84085 73605
L84141 73577
" />
<path d="M84901 74167
L84563 74167
" />
<path d="M84732 74167
L84732 73577
L84676 73661
L84619 73717
L84563 73745
" />
<path d="M85154 73942
L85604 73942
" />
<path d="M86222 74111
L86194 74139
L86110 74167
L86054 74167
L85969 74139
L85913 74083
L85885 74027
L85857 73914
L85857 73830
L85885 73717
L85913 73661
L85969 73605
L86054 73577
L86110 73577
L86194 73605
L86222 73633
" />
<path d="M86588 73577
L86644 73577
L86700 73605
L86728 73633
L86757 73689
L86785 73802
L86785 73942
L86757 74055
L86728 74111
L86700 74139
L86644 74167
L86588 74167
L86532 74139
L86503 74111
L86475 74055
L86447 73942
L86447 73802
L86475 73689
L86503 73633
L86532 73605
L86588 73577
" />
<path d="M87150 73577
L87206 73577
L87263 73605
L87291 73633
L87319 73689
L87347 73802
L87347 73942
L87319 74055
L87291 74111
L87263 74139
L87206 74167
L87150 74167
L87094 74139
L87066 74111
L87038 74055
L87010 73942
L87010 73802
L87038 73689
L87066 73633
L87094 73605
L87150 73577
" />
</g>
<g style="fill:#000000; fill-opacity:0.0; 
stroke:#000000; stroke-width:39.3701; stroke-opacity:1; 
stroke-linecap:round; stroke-linejoin:round;">
</g>
<g style="fill:#000000; fill-opacity:0.0; 
stroke:#000000; stroke-width:59.0551; stroke-opacity:1; 
stroke-linecap:round; stroke-linejoin:round;">
<path d="M69685 77365
L112992 77365
" />
</g>
<g style="fill:#000000; fill-opacity:0.0; 
stroke:#000000; stroke-width:39.3701; stroke-opacity:1; 
stroke-linecap:round; stroke-linejoin:round;">
</g>
<g style="fill:#000000; fill-opacity:0.0; 
stroke:#000000; stroke-width:59.0551; stroke-opacity:1; 
stroke-linecap:round; stroke-linejoin:round;">
<text x="70079.6" y="78211.5"
textLength="5514.62" font-size="787.402" lengthAdjust="spacingAndGlyphs"
text-anchor="start" opacity="0">KiCad E.D.A.</text>
<path d="M70249 78183
L70249 77592
" />
<path d="M70587 78183
L70334 77845
" />
<path d="M70587 77592
L70249 77930
" />
<path d="M70840 78183
L70840 77789
" />
<path d="M70840 77592
L70812 77620
L70840 77649
L70868 77620
L70840 77592
L70840 77649
" />
<path d="M71458 78127
L71430 78155
L71346 78183
L71290 78183
L71205 78155
L71149 78099
L71121 78042
L71093 77930
L71093 77845
L71121 77733
L71149 77677
L71205 77620
L71290 77592
L71346 77592
L71430 77620
L71458 77649
" />
<path d="M71965 78183
L71965 77874
L71937 77817
L71880 77789
L71768 77789
L71712 77817
" />
<path d="M71965 78155
L71908 78183
L71768 78183
L71712 78155
L71683 78099
L71683 78042
L71712 77986
L71768 77958
L71908 77958
L71965 77930
" />
<path d="M72499 78183
L72499 77592
" />
<path d="M72499 78155
L72443 78183
L72330 78183
L72274 78155
L72246 78127
L72218 78070
L72218 77902
L72246 77845
L72274 77817
L72330 77789
L72443 77789
L72499 77817
" />
<path d="M73230 77874
L73427 77874
" />
<path d="M73511 78183
L73230 78183
L73230 77592
L73511 77592
" />
<path d="M73764 78127
L73793 78155
L73764 78183
L73736 78155
L73764 78127
L73764 78183
" />
<path d="M74046 78183
L74046 77592
L74186 77592
L74271 77620
L74327 77677
L74355 77733
L74383 77845
L74383 77930
L74355 78042
L74327 78099
L74271 78155
L74186 78183
L74046 78183
" />
<path d="M74636 78127
L74664 78155
L74636 78183
L74608 78155
L74636 78127
L74636 78183
" />
<path d="M74889 78014
L75171 78014
" />
<path d="M74833 78183
L75030 77592
L75227 78183
" />
<path d="M75424 78127
L75452 78155
L75424 78183
L75395 78155
L75424 78127
L75424 78183
" />
</g>
<g style="fill:#000000; fill-opacity:0.0; 
stroke:#000000; stroke-width:39.3701; stroke-opacity:1; 
stroke-linecap:round; stroke-linejoin:round;">
</g>
<g style="fill:#000000; fill-opacity:0.0; 
stroke:#000000; stroke-width:59.0551; stroke-opacity:1; 
stroke-linecap:round; stroke-linejoin:round;">
<path d="M69685 76183
L112992 76183
" />
</g>
<g style="fill:#000000; fill-opacity:0.0; 
stroke:#000000; stroke-width:39.3701; stroke-opacity:1; 
stroke-linecap:round; stroke-linejoin:round;">
</g>
<g style="fill:#000000; fill-opacity:0.0; 
stroke:#000000; stroke-width:118.11; stroke-opacity:1; 
stroke-linecap:round; stroke-linejoin:round;">
<text x="104332" y="77109.1"
textLength="4052.31" font-size="787.402" lengthAdjust="spacingAndGlyphs"
text-anchor="start" opacity="0">Rev: R01</text>
<path d="M104886 77081
L104689 76799
" />
<path d="M104548 77081
L104548 76490
L104773 76490
L104830 76518
L104858 76546
L104886 76602
L104886 76687
L104858 76743
L104830 76771
L104773 76799
L104548 76799
" />
<path d="M105364 77052
L105308 77081
L105195 77081
L105139 77052
L105111 76996
L105111 76771
L105139 76715
L105195 76687
L105308 76687
L105364 76715
L105392 76771
L105392 76827
L105111 76884
" />
<path d="M105589 76687
L105730 77081
L105870 76687
" />
<path d="M106095 77024
L106123 77052
L106095 77081
L106067 77052
L106095 77024
L106095 77081
" />
<path d="M106095 76715
L106123 76743
L106095 76771
L106067 76743
L106095 76715
L106095 76771
" />
<path d="M107164 77081
L106967 76799
" />
<path d="M106826 77081
L106826 76490
L107051 76490
L107108 76518
L107136 76546
L107164 76602
L107164 76687
L107136 76743
L107108 76771
L107051 76799
L106826 76799
" />
<path d="M107529 76490
L107586 76490
L107642 76518
L107670 76546
L107698 76602
L107726 76715
L107726 76856
L107698 76968
L107670 77024
L107642 77052
L107586 77081
L107529 77081
L107473 77052
L107445 77024
L107417 76968
L107389 76856
L107389 76715
L107417 76602
L107445 76546
L107473 76518
L107529 76490
" />
<path d="M108289 77081
L107951 77081
" />
<path d="M108120 77081
L108120 76490
L108064 76574
L108007 76631
L107951 76659
" />
</g>
<g style="fill:#000000; fill-opacity:0.0; 
stroke:#000000; stroke-width:39.3701; stroke-opacity:1; 
stroke-linecap:round; stroke-linejoin:round;">
</g>
<g style="fill:#000000; fill-opacity:0.0; 
stroke:#000000; stroke-width:59.0551; stroke-opacity:1; 
stroke-linecap:round; stroke-linejoin:round;">
<text x="70079.6" y="77109.1"
textLength="3781.21" font-size="787.402" lengthAdjust="spacingAndGlyphs"
text-anchor="start" opacity="0">Size: A4</text>
<path d="M70221 77052
L70305 77081
L70446 77081
L70502 77052
L70530 77024
L70559 76968
L70559 76912
L70530 76856
L70502 76827
L70446 76799
L70334 76771
L70277 76743
L70249 76715
L70221 76659
L70221 76602
L70249 76546
L70277 76518
L70334 76490
L70474 76490
L70559 76518
" />
<path d="M70812 77081
L70812 76687
" />
<path d="M70812 76490
L70784 76518
L70812 76546
L70840 76518
L70812 76490
L70812 76546
" />
<path d="M71037 76687
L71346 76687
L71037 77081
L71346 77081
" />
<path d="M71796 77052
L71740 77081
L71627 77081
L71571 77052
L71543 76996
L71543 76771
L71571 76715
L71627 76687
L71740 76687
L71796 76715
L71824 76771
L71824 76827
L71543 76884
" />
<path d="M72077 77024
L72105 77052
L72077 77081
L72049 77052
L72077 77024
L72077 77081
" />
<path d="M72077 76715
L72105 76743
L72077 76771
L72049 76743
L72077 76715
L72077 76771
" />
<path d="M72780 76912
L73061 76912
" />
<path d="M72724 77081
L72921 76490
L73118 77081
" />
<path d="M73568 76687
L73568 77081
" />
<path d="M73427 76462
L73286 76884
L73652 76884
" />
</g>
<g style="fill:#000000; fill-opacity:0.0; 
stroke:#000000; stroke-width:39.3701; stroke-opacity:1; 
stroke-linecap:round; stroke-linejoin:round;">
</g>
<g style="fill:#000000; fill-opacity:0.0; 
stroke:#000000; stroke-width:59.0551; stroke-opacity:1; 
stroke-linecap:round; stroke-linejoin:round;">
<text x="104332" y="78211.5"
textLength="4699.1" font-size="787.402" lengthAdjust="spacingAndGlyphs"
text-anchor="start" opacity="0">Sheet 1/1</text>
<path d="M104473 78155
L104557 78183
L104698 78183
L104754 78155
L104782 78127
L104811 78070
L104811 78014
L104782 77958
L104754 77930
L104698 77902
L104586 77874
L104529 77845
L104501 77817
L104473 77761
L104473 77705
L104501 77649
L104529 77620
L104586 77592
L104726 77592
L104811 77620
" />
<path d="M105064 78183
L105064 77592
" />
<path d="M105317 78183
L105317 77874
L105289 77817
L105232 77789
L105148 77789
L105092 77817
L105064 77845
" />
<path d="M105823 78155
L105767 78183
L105654 78183
L105598 78155
L105570 78099
L105570 77874
L105598 77817
L105654 77789
L105767 77789
L105823 77817
L105851 77874
L105851 77930
L105570 77986
" />
<path d="M106329 78155
L106273 78183
L106160 78183
L106104 78155
L106076 78099
L106076 77874
L106104 77817
L106160 77789
L106273 77789
L106329 77817
L106357 77874
L106357 77930
L106076 77986
" />
<path d="M106526 77789
L106751 77789
" />
<path d="M106610 77592
L106610 78099
L106638 78155
L106695 78183
L106751 78183
" />
<path d="M107707 78183
L107370 78183
" />
<path d="M107538 78183
L107538 77592
L107482 77677
L107426 77733
L107370 77761
" />
<path d="M108382 77564
L107876 78323
" />
<path d="M108888 78183
L108551 78183
" />
<path d="M108719 78183
L108719 77592
L108663 77677
L108607 77733
L108551 77761
" />
</g>
<g style="fill:#000000; fill-opacity:0.0; 
stroke:#000000; stroke-width:39.3701; stroke-opacity:1; 
stroke-linecap:round; stroke-linejoin:round;">
</g>
<g style="fill:#000000; fill-opacity:0.0; 
stroke:#000000; stroke-width:59.0551; stroke-opacity:1; 
stroke-linecap:round; stroke-linejoin:round;">
<path d="M69685 74609
L112992 74609
" />
</g>
<g style="fill:#000000; fill-opacity:0.0; 
stroke:#000000; stroke-width:39.3701; stroke-opacity:1; 
stroke-linecap:round; stroke-linejoin:round;">
</g>
<g style="fill:#000000; fill-opacity:0.0; 
stroke:#000000; stroke-width:157.48; stroke-opacity:1; 
stroke-linecap:round; stroke-linejoin:round;">
<text x="70079.6" y="75711.5"
textLength="10332.8" font-size="1049.87" lengthAdjust="spacingAndGlyphs"
text-anchor="start" opacity="0">Title: candleLight</text>
<path d="M70256 74886
L70706 74886
" />
<path d="M70481 75674
L70481 74886
" />
<path d="M70969 75674
L70969 75149
" />
<path d="M70969 74886
L70931 74924
L70969 74961
L71006 74924
L70969 74886
L70969 74961
" />
<path d="M71231 75149
L71531 75149
" />
<path d="M71344 74886
L71344 75561
L71381 75636
L71456 75674
L71531 75674
" />
<path d="M71906 75674
L71831 75636
L71794 75561
L71794 74886
" />
<path d="M72506 75636
L72431 75674
L72281 75674
L72206 75636
L72169 75561
L72169 75261
L72206 75186
L72281 75149
L72431 75149
L72506 75186
L72544 75261
L72544 75336
L72169 75411
" />
<path d="M72881 75599
L72919 75636
L72881 75674
L72844 75636
L72881 75599
L72881 75674
" />
<path d="M72881 75186
L72919 75224
L72881 75261
L72844 75224
L72881 75186
L72881 75261
" />
<path d="M74193 75636
L74118 75674
L73968 75674
L73894 75636
L73856 75599
L73819 75524
L73819 75299
L73856 75224
L73894 75186
L73968 75149
L74118 75149
L74193 75186
" />
<path d="M74868 75674
L74868 75261
L74831 75186
L74756 75149
L74606 75149
L74531 75186
" />
<path d="M74868 75636
L74793 75674
L74606 75674
L74531 75636
L74493 75561
L74493 75486
L74531 75411
L74606 75374
L74793 75374
L74868 75336
" />
<path d="M75243 75149
L75243 75674
" />
<path d="M75243 75224
L75281 75186
L75356 75149
L75468 75149
L75543 75186
L75581 75261
L75581 75674
" />
<path d="M76293 75674
L76293 74886
" />
<path d="M76293 75636
L76218 75674
L76068 75674
L75993 75636
L75956 75599
L75918 75524
L75918 75299
L75956 75224
L75993 75186
L76068 75149
L76218 75149
L76293 75186
" />
<path d="M76781 75674
L76706 75636
L76668 75561
L76668 74886
" />
<path d="M77381 75636
L77306 75674
L77156 75674
L77081 75636
L77043 75561
L77043 75261
L77081 75186
L77156 75149
L77306 75149
L77381 75186
L77418 75261
L77418 75336
L77043 75411
" />
<path d="M78130 75674
L77756 75674
L77756 74886
" />
<path d="M78393 75674
L78393 75149
" />
<path d="M78393 74886
L78355 74924
L78393 74961
L78430 74924
L78393 74886
L78393 74961
" />
<path d="M79105 75149
L79105 75786
L79068 75861
L79030 75898
L78955 75936
L78843 75936
L78768 75898
" />
<path d="M79105 75636
L79030 75674
L78880 75674
L78805 75636
L78768 75599
L78730 75524
L78730 75299
L78768 75224
L78805 75186
L78880 75149
L79030 75149
L79105 75186
" />
<path d="M79480 75674
L79480 74886
" />
<path d="M79818 75674
L79818 75261
L79780 75186
L79705 75149
L79593 75149
L79518 75186
L79480 75224
" />
<path d="M80080 75149
L80380 75149
" />
<path d="M80193 74886
L80193 75561
L80230 75636
L80305 75674
L80380 75674
" />
</g>
<g style="fill:#000000; fill-opacity:0.0; 
stroke:#000000; stroke-width:39.3701; stroke-opacity:1; 
stroke-linecap:round; stroke-linejoin:round;">
</g>
<g style="fill:#000000; fill-opacity:0.0; 
stroke:#000000; stroke-width:59.0551; stroke-opacity:1; 
stroke-linecap:round; stroke-linejoin:round;">
<path d="M69685 72246
L112992 72246
" />
</g>
<g style="fill:#000000; fill-opacity:0.0; 
stroke:#000000; stroke-width:39.3701; stroke-opacity:1; 
stroke-linecap:round; stroke-linejoin:round;">
</g>
<g style="fill:#000000; fill-opacity:0.0; 
stroke:#000000; stroke-width:59.0551; stroke-opacity:1; 
stroke-linecap:round; stroke-linejoin:round;">
<text x="70079.6" y="73132.8"
textLength="18961.8" font-size="787.402" lengthAdjust="spacingAndGlyphs"
text-anchor="start" opacity="0">Further Specifications: See LayerStack.txt</text>
<path d="M70446 72795
L70249 72795
" />
<path d="M70249 73104
L70249 72514
L70530 72514
" />
<path d="M71009 72710
L71009 73104
" />
<path d="M70755 72710
L70755 73020
L70784 73076
L70840 73104
L70924 73104
L70980 73076
L71009 73048
" />
<path d="M71290 73104
L71290 72710
" />
<path d="M71290 72823
L71318 72767
L71346 72739
L71402 72710
L71458 72710
" />
<path d="M71571 72710
L71796 72710
" />
<path d="M71655 72514
L71655 73020
L71683 73076
L71740 73104
L71796 73104
" />
<path d="M71993 73104
L71993 72514
" />
<path d="M72246 73104
L72246 72795
L72218 72739
L72162 72710
L72077 72710
L72021 72739
L71993 72767
" />
<path d="M72752 73076
L72696 73104
L72583 73104
L72527 73076
L72499 73020
L72499 72795
L72527 72739
L72583 72710
L72696 72710
L72752 72739
L72780 72795
L72780 72851
L72499 72907
" />
<path d="M73033 73104
L73033 72710
" />
<path d="M73033 72823
L73061 72767
L73090 72739
L73146 72710
L73202 72710
" />
<path d="M73821 73076
L73905 73104
L74046 73104
L74102 73076
L74130 73048
L74158 72992
L74158 72935
L74130 72879
L74102 72851
L74046 72823
L73933 72795
L73877 72767
L73849 72739
L73821 72682
L73821 72626
L73849 72570
L73877 72542
L73933 72514
L74074 72514
L74158 72542
" />
<path d="M74411 72710
L74411 73301
" />
<path d="M74411 72739
L74467 72710
L74580 72710
L74636 72739
L74664 72767
L74692 72823
L74692 72992
L74664 73048
L74636 73076
L74580 73104
L74467 73104
L74411 73076
" />
<path d="M75171 73076
L75114 73104
L75002 73104
L74946 73076
L74917 73020
L74917 72795
L74946 72739
L75002 72710
L75114 72710
L75171 72739
L75199 72795
L75199 72851
L74917 72907
" />
<path d="M75705 73076
L75649 73104
L75536 73104
L75480 73076
L75452 73048
L75424 72992
L75424 72823
L75452 72767
L75480 72739
L75536 72710
L75649 72710
L75705 72739
" />
<path d="M75958 73104
L75958 72710
" />
<path d="M75958 72514
L75930 72542
L75958 72570
L75986 72542
L75958 72514
L75958 72570
" />
<path d="M76155 72710
L76380 72710
" />
<path d="M76239 73104
L76239 72598
L76267 72542
L76323 72514
L76380 72514
" />
<path d="M76577 73104
L76577 72710
" />
<path d="M76577 72514
L76548 72542
L76577 72570
L76605 72542
L76577 72514
L76577 72570
" />
<path d="M77111 73076
L77055 73104
L76942 73104
L76886 73076
L76858 73048
L76830 72992
L76830 72823
L76858 72767
L76886 72739
L76942 72710
L77055 72710
L77111 72739
" />
<path d="M77617 73104
L77617 72795
L77589 72739
L77533 72710
L77420 72710
L77364 72739
" />
<path d="M77617 73076
L77561 73104
L77420 73104
L77364 73076
L77336 73020
L77336 72964
L77364 72907
L77420 72879
L77561 72879
L77617 72851
" />
<path d="M77814 72710
L78039 72710
" />
<path d="M77898 72514
L77898 73020
L77926 73076
L77983 73104
L78039 73104
" />
<path d="M78236 73104
L78236 72710
" />
<path d="M78236 72514
L78208 72542
L78236 72570
L78264 72542
L78236 72514
L78236 72570
" />
<path d="M78601 73104
L78545 73076
L78517 73048
L78489 72992
L78489 72823
L78517 72767
L78545 72739
L78601 72710
L78686 72710
L78742 72739
L78770 72767
L78798 72823
L78798 72992
L78770 73048
L78742 73076
L78686 73104
L78601 73104
" />
<path d="M79051 72710
L79051 73104
" />
<path d="M79051 72767
L79079 72739
L79136 72710
L79220 72710
L79276 72739
L79304 72795
L79304 73104
" />
<path d="M79557 73076
L79614 73104
L79726 73104
L79782 73076
L79811 73020
L79811 72992
L79782 72935
L79726 72907
L79642 72907
L79586 72879
L79557 72823
L79557 72795
L79586 72739
L79642 72710
L79726 72710
L79782 72739
" />
<path d="M80064 73048
L80092 73076
L80064 73104
L80036 73076
L80064 73048
L80064 73104
" />
<path d="M80064 72739
L80092 72767
L80064 72795
L80036 72767
L80064 72739
L80064 72795
" />
<path d="M80767 73076
L80851 73104
L80992 73104
L81048 73076
L81076 73048
L81104 72992
L81104 72935
L81076 72879
L81048 72851
L80992 72823
L80879 72795
L80823 72767
L80795 72739
L80767 72682
L80767 72626
L80795 72570
L80823 72542
L80879 72514
L81020 72514
L81104 72542
" />
<path d="M81582 73076
L81526 73104
L81413 73104
L81357 73076
L81329 73020
L81329 72795
L81357 72739
L81413 72710
L81526 72710
L81582 72739
L81610 72795
L81610 72851
L81329 72907
" />
<path d="M82088 73076
L82032 73104
L81920 73104
L81863 73076
L81835 73020
L81835 72795
L81863 72739
L81920 72710
L82032 72710
L82088 72739
L82117 72795
L82117 72851
L81835 72907
" />
<path d="M83101 73104
L82820 73104
L82820 72514
" />
<path d="M83551 73104
L83551 72795
L83523 72739
L83466 72710
L83354 72710
L83298 72739
" />
<path d="M83551 73076
L83494 73104
L83354 73104
L83298 73076
L83269 73020
L83269 72964
L83298 72907
L83354 72879
L83494 72879
L83551 72851
" />
<path d="M83776 72710
L83916 73104
" />
<path d="M84057 72710
L83916 73104
L83860 73245
L83832 73273
L83776 73301
" />
<path d="M84507 73076
L84451 73104
L84338 73104
L84282 73076
L84254 73020
L84254 72795
L84282 72739
L84338 72710
L84451 72710
L84507 72739
L84535 72795
L84535 72851
L84254 72907
" />
<path d="M84788 73104
L84788 72710
" />
<path d="M84788 72823
L84816 72767
L84844 72739
L84901 72710
L84957 72710
" />
<path d="M85126 73076
L85210 73104
L85350 73104
L85407 73076
L85435 73048
L85463 72992
L85463 72935
L85435 72879
L85407 72851
L85350 72823
L85238 72795
L85182 72767
L85154 72739
L85126 72682
L85126 72626
L85154 72570
L85182 72542
L85238 72514
L85379 72514
L85463 72542
" />
<path d="M85632 72710
L85857 72710
" />
<path d="M85716 72514
L85716 73020
L85744 73076
L85800 73104
L85857 73104
" />
<path d="M86307 73104
L86307 72795
L86278 72739
L86222 72710
L86110 72710
L86054 72739
" />
<path d="M86307 73076
L86250 73104
L86110 73104
L86054 73076
L86025 73020
L86025 72964
L86054 72907
L86110 72879
L86250 72879
L86307 72851
" />
<path d="M86841 73076
L86785 73104
L86672 73104
L86616 73076
L86588 73048
L86560 72992
L86560 72823
L86588 72767
L86616 72739
L86672 72710
L86785 72710
L86841 72739
" />
<path d="M87094 73104
L87094 72514
" />
<path d="M87150 72879
L87319 73104
" />
<path d="M87319 72710
L87094 72935
" />
<path d="M87572 73048
L87600 73076
L87572 73104
L87544 73076
L87572 73048
L87572 73104
" />
<path d="M87769 72710
L87994 72710
" />
<path d="M87853 72514
L87853 73020
L87881 73076
L87938 73104
L87994 73104
" />
<path d="M88135 73104
L88444 72710
" />
<path d="M88135 72710
L88444 73104
" />
<path d="M88584 72710
L88809 72710
" />
<path d="M88669 72514
L88669 73020
L88697 73076
L88753 73104
L88809 73104
" />
</g>
<g style="fill:#000000; fill-opacity:0.0; 
stroke:#000000; stroke-width:39.3701; stroke-opacity:1; 
stroke-linecap:round; stroke-linejoin:round;">
</g>
<g style="fill:#000000; fill-opacity:0.0; 
stroke:#000000; stroke-width:118.11; stroke-opacity:1; 
stroke-linecap:round; stroke-linejoin:round;">
<text x="70079.6" y="71951.7"
textLength="10717.1" font-size="787.402" lengthAdjust="spacingAndGlyphs"
text-anchor="start" opacity="0">Linux Automation GmbH</text>
<path d="M70578 71923
L70296 71923
L70296 71332
" />
<path d="M70775 71923
L70775 71529
" />
<path d="M70775 71332
L70746 71361
L70775 71389
L70803 71361
L70775 71332
L70775 71389
" />
<path d="M71056 71529
L71056 71923
" />
<path d="M71056 71586
L71084 71557
L71140 71529
L71224 71529
L71281 71557
L71309 71614
L71309 71923
" />
<path d="M71843 71529
L71843 71923
" />
<path d="M71590 71529
L71590 71839
L71618 71895
L71674 71923
L71759 71923
L71815 71895
L71843 71867
" />
<path d="M72068 71923
L72377 71529
" />
<path d="M72068 71529
L72377 71923
" />
<path d="M73024 71754
L73305 71754
" />
<path d="M72968 71923
L73165 71332
L73362 71923
" />
<path d="M73812 71529
L73812 71923
" />
<path d="M73559 71529
L73559 71839
L73587 71895
L73643 71923
L73727 71923
L73784 71895
L73812 71867
" />
<path d="M74009 71529
L74233 71529
" />
<path d="M74093 71332
L74093 71839
L74121 71895
L74177 71923
L74233 71923
" />
<path d="M74515 71923
L74458 71895
L74430 71867
L74402 71811
L74402 71642
L74430 71586
L74458 71557
L74515 71529
L74599 71529
L74655 71557
L74683 71586
L74712 71642
L74712 71811
L74683 71867
L74655 71895
L74599 71923
L74515 71923
" />
<path d="M74965 71923
L74965 71529
" />
<path d="M74965 71586
L74993 71557
L75049 71529
L75133 71529
L75190 71557
L75218 71614
L75218 71923
" />
<path d="M75218 71614
L75246 71557
L75302 71529
L75386 71529
L75443 71557
L75471 71614
L75471 71923
" />
<path d="M76005 71923
L76005 71614
L75977 71557
L75921 71529
L75808 71529
L75752 71557
" />
<path d="M76005 71895
L75949 71923
L75808 71923
L75752 71895
L75724 71839
L75724 71782
L75752 71726
L75808 71698
L75949 71698
L76005 71670
" />
<path d="M76202 71529
L76427 71529
" />
<path d="M76286 71332
L76286 71839
L76314 71895
L76371 71923
L76427 71923
" />
<path d="M76624 71923
L76624 71529
" />
<path d="M76624 71332
L76596 71361
L76624 71389
L76652 71361
L76624 71332
L76624 71389
" />
<path d="M76989 71923
L76933 71895
L76905 71867
L76877 71811
L76877 71642
L76905 71586
L76933 71557
L76989 71529
L77074 71529
L77130 71557
L77158 71586
L77186 71642
L77186 71811
L77158 71867
L77130 71895
L77074 71923
L76989 71923
" />
<path d="M77439 71529
L77439 71923
" />
<path d="M77439 71586
L77467 71557
L77524 71529
L77608 71529
L77664 71557
L77692 71614
L77692 71923
" />
<path d="M78733 71361
L78677 71332
L78592 71332
L78508 71361
L78452 71417
L78424 71473
L78395 71586
L78395 71670
L78424 71782
L78452 71839
L78508 71895
L78592 71923
L78649 71923
L78733 71895
L78761 71867
L78761 71670
L78649 71670
" />
<path d="M79014 71923
L79014 71529
" />
<path d="M79014 71586
L79042 71557
L79099 71529
L79183 71529
L79239 71557
L79267 71614
L79267 71923
" />
<path d="M79267 71614
L79295 71557
L79352 71529
L79436 71529
L79492 71557
L79520 71614
L79520 71923
" />
<path d="M79802 71923
L79802 71332
" />
<path d="M79802 71557
L79858 71529
L79970 71529
L80027 71557
L80055 71586
L80083 71642
L80083 71811
L80055 71867
L80027 71895
L79970 71923
L79858 71923
L79802 71895
" />
<path d="M80336 71923
L80336 71332
" />
<path d="M80336 71614
L80673 71614
" />
<path d="M80673 71923
L80673 71332
" />
</g>
<g style="fill:#000000; fill-opacity:0.0; 
stroke:#000000; stroke-width:39.3701; stroke-opacity:1; 
stroke-linecap:round; stroke-linejoin:round;">
</g>
<g style="fill:#000000; fill-opacity:0.0; 
stroke:#000000; stroke-width:59.0551; stroke-opacity:1; 
stroke-linecap:round; stroke-linejoin:round;">
<text x="78741" y="78211.5"
textLength="23297.5" font-size="787.402" lengthAdjust="spacingAndGlyphs"
text-anchor="start" opacity="0">git: github.com/linux-automation/candlelight-S01</text>
<path d="M79164 77789
L79164 78267
L79136 78323
L79108 78352
L79051 78380
L78967 78380
L78911 78352
" />
<path d="M79164 78155
L79108 78183
L78995 78183
L78939 78155
L78911 78127
L78883 78070
L78883 77902
L78911 77845
L78939 77817
L78995 77789
L79108 77789
L79164 77817
" />
<path d="M79445 78183
L79445 77789
" />
<path d="M79445 77592
L79417 77620
L79445 77649
L79473 77620
L79445 77592
L79445 77649
" />
<path d="M79642 77789
L79867 77789
" />
<path d="M79726 77592
L79726 78099
L79754 78155
L79811 78183
L79867 78183
" />
<path d="M80064 78127
L80092 78155
L80064 78183
L80036 78155
L80064 78127
L80064 78183
" />
<path d="M80064 77817
L80092 77845
L80064 77874
L80036 77845
L80064 77817
L80064 77874
" />
<path d="M81048 77789
L81048 78267
L81020 78323
L80992 78352
L80935 78380
L80851 78380
L80795 78352
" />
<path d="M81048 78155
L80992 78183
L80879 78183
L80823 78155
L80795 78127
L80767 78070
L80767 77902
L80795 77845
L80823 77817
L80879 77789
L80992 77789
L81048 77817
" />
<path d="M81329 78183
L81329 77789
" />
<path d="M81329 77592
L81301 77620
L81329 77649
L81357 77620
L81329 77592
L81329 77649
" />
<path d="M81526 77789
L81751 77789
" />
<path d="M81610 77592
L81610 78099
L81638 78155
L81695 78183
L81751 78183
" />
<path d="M81948 78183
L81948 77592
" />
<path d="M82201 78183
L82201 77874
L82173 77817
L82117 77789
L82032 77789
L81976 77817
L81948 77845
" />
<path d="M82735 77789
L82735 78183
" />
<path d="M82482 77789
L82482 78099
L82510 78155
L82566 78183
L82651 78183
L82707 78155
L82735 78127
" />
<path d="M83016 78183
L83016 77592
" />
<path d="M83016 77817
L83073 77789
L83185 77789
L83241 77817
L83269 77845
L83298 77902
L83298 78070
L83269 78127
L83241 78155
L83185 78183
L83073 78183
L83016 78155
" />
<path d="M83551 78127
L83579 78155
L83551 78183
L83523 78155
L83551 78127
L83551 78183
" />
<path d="M84085 78155
L84029 78183
L83916 78183
L83860 78155
L83832 78127
L83804 78070
L83804 77902
L83832 77845
L83860 77817
L83916 77789
L84029 77789
L84085 77817
" />
<path d="M84422 78183
L84366 78155
L84338 78127
L84310 78070
L84310 77902
L84338 77845
L84366 77817
L84422 77789
L84507 77789
L84563 77817
L84591 77845
L84619 77902
L84619 78070
L84591 78127
L84563 78155
L84507 78183
L84422 78183
" />
<path d="M84872 78183
L84872 77789
" />
<path d="M84872 77845
L84901 77817
L84957 77789
L85041 77789
L85097 77817
L85126 77874
L85126 78183
" />
<path d="M85126 77874
L85154 77817
L85210 77789
L85294 77789
L85350 77817
L85379 77874
L85379 78183
" />
<path d="M86082 77564
L85575 78323
" />
<path d="M86363 78183
L86307 78155
L86278 78099
L86278 77592
" />
<path d="M86588 78183
L86588 77789
" />
<path d="M86588 77592
L86560 77620
L86588 77649
L86616 77620
L86588 77592
L86588 77649
" />
<path d="M86869 77789
L86869 78183
" />
<path d="M86869 77845
L86897 77817
L86953 77789
L87038 77789
L87094 77817
L87122 77874
L87122 78183
" />
<path d="M87656 77789
L87656 78183
" />
<path d="M87403 77789
L87403 78099
L87431 78155
L87488 78183
L87572 78183
L87628 78155
L87656 78127
" />
<path d="M87881 78183
L88191 77789
" />
<path d="M87881 77789
L88191 78183
" />
<path d="M88416 77958
L88866 77958
" />
<path d="M89400 78183
L89400 77874
L89372 77817
L89316 77789
L89203 77789
L89147 77817
" />
<path d="M89400 78155
L89344 78183
L89203 78183
L89147 78155
L89119 78099
L89119 78042
L89147 77986
L89203 77958
L89344 77958
L89400 77930
" />
<path d="M89934 77789
L89934 78183
" />
<path d="M89681 77789
L89681 78099
L89709 78155
L89766 78183
L89850 78183
L89906 78155
L89934 78127
" />
<path d="M90131 77789
L90356 77789
" />
<path d="M90215 77592
L90215 78099
L90244 78155
L90300 78183
L90356 78183
" />
<path d="M90637 78183
L90581 78155
L90553 78127
L90525 78070
L90525 77902
L90553 77845
L90581 77817
L90637 77789
L90722 77789
L90778 77817
L90806 77845
L90834 77902
L90834 78070
L90806 78127
L90778 78155
L90722 78183
L90637 78183
" />
<path d="M91087 78183
L91087 77789
" />
<path d="M91087 77845
L91115 77817
L91172 77789
L91256 77789
L91312 77817
L91340 77874
L91340 78183
" />
<path d="M91340 77874
L91368 77817
L91425 77789
L91509 77789
L91565 77817
L91593 77874
L91593 78183
" />
<path d="M92128 78183
L92128 77874
L92100 77817
L92043 77789
L91931 77789
L91875 77817
" />
<path d="M92128 78155
L92072 78183
L91931 78183
L91875 78155
L91847 78099
L91847 78042
L91875 77986
L91931 77958
L92072 77958
L92128 77930
" />
<path d="M92325 77789
L92550 77789
" />
<path d="M92409 77592
L92409 78099
L92437 78155
L92493 78183
L92550 78183
" />
<path d="M92746 78183
L92746 77789
" />
<path d="M92746 77592
L92718 77620
L92746 77649
L92775 77620
L92746 77592
L92746 77649
" />
<path d="M93112 78183
L93056 78155
L93028 78127
L93000 78070
L93000 77902
L93028 77845
L93056 77817
L93112 77789
L93196 77789
L93253 77817
L93281 77845
L93309 77902
L93309 78070
L93281 78127
L93253 78155
L93196 78183
L93112 78183
" />
<path d="M93562 77789
L93562 78183
" />
<path d="M93562 77845
L93590 77817
L93646 77789
L93731 77789
L93787 77817
L93815 77874
L93815 78183
" />
<path d="M94518 77564
L94012 78323
" />
<path d="M94968 78155
L94912 78183
L94799 78183
L94743 78155
L94715 78127
L94687 78070
L94687 77902
L94715 77845
L94743 77817
L94799 77789
L94912 77789
L94968 77817
" />
<path d="M95474 78183
L95474 77874
L95446 77817
L95390 77789
L95277 77789
L95221 77817
" />
<path d="M95474 78155
L95418 78183
L95277 78183
L95221 78155
L95193 78099
L95193 78042
L95221 77986
L95277 77958
L95418 77958
L95474 77930
" />
<path d="M95755 77789
L95755 78183
" />
<path d="M95755 77845
L95784 77817
L95840 77789
L95924 77789
L95980 77817
L96009 77874
L96009 78183
" />
<path d="M96543 78183
L96543 77592
" />
<path d="M96543 78155
L96487 78183
L96374 78183
L96318 78155
L96290 78127
L96262 78070
L96262 77902
L96290 77845
L96318 77817
L96374 77789
L96487 77789
L96543 77817
" />
<path d="M96908 78183
L96852 78155
L96824 78099
L96824 77592
" />
<path d="M97358 78155
L97302 78183
L97190 78183
L97133 78155
L97105 78099
L97105 77874
L97133 77817
L97190 77789
L97302 77789
L97358 77817
L97386 77874
L97386 77930
L97105 77986
" />
<path d="M97724 78183
L97668 78155
L97640 78099
L97640 77592
" />
<path d="M97949 78183
L97949 77789
" />
<path d="M97949 77592
L97921 77620
L97949 77649
L97977 77620
L97949 77592
L97949 77649
" />
<path d="M98483 77789
L98483 78267
L98455 78323
L98427 78352
L98371 78380
L98286 78380
L98230 78352
" />
<path d="M98483 78155
L98427 78183
L98314 78183
L98258 78155
L98230 78127
L98202 78070
L98202 77902
L98230 77845
L98258 77817
L98314 77789
L98427 77789
L98483 77817
" />
<path d="M98764 78183
L98764 77592
" />
<path d="M99018 78183
L99018 77874
L98989 77817
L98933 77789
L98849 77789
L98793 77817
L98764 77845
" />
<path d="M99214 77789
L99439 77789
" />
<path d="M99299 77592
L99299 78099
L99327 78155
L99383 78183
L99439 78183
" />
<path d="M99636 77958
L100086 77958
" />
<path d="M100339 78155
L100424 78183
L100564 78183
L100620 78155
L100649 78127
L100677 78070
L100677 78014
L100649 77958
L100620 77930
L100564 77902
L100452 77874
L100395 77845
L100367 77817
L100339 77761
L100339 77705
L100367 77649
L100395 77620
L100452 77592
L100592 77592
L100677 77620
" />
<path d="M101042 77592
L101099 77592
L101155 77620
L101183 77649
L101211 77705
L101239 77817
L101239 77958
L101211 78070
L101183 78127
L101155 78155
L101099 78183
L101042 78183
L100986 78155
L100958 78127
L100930 78070
L100902 77958
L100902 77817
L100930 77705
L100958 77649
L100986 77620
L101042 77592
" />
<path d="M101802 78183
L101464 78183
" />
<path d="M101633 78183
L101633 77592
L101577 77677
L101520 77733
L101464 77761
" />
</g>
<g style="fill:#000000; fill-opacity:0.0; 
stroke:#000000; stroke-width:39.3701; stroke-opacity:1; 
stroke-linecap:round; stroke-linejoin:round;">
</g>
<g style="fill:#000000; fill-opacity:0.0; 
stroke:#000000; stroke-width:59.0551; stroke-opacity:1; 
stroke-linecap:round; stroke-linejoin:round;">
<path d="M77559 76183
L77559 78742
" />
</g>
<g style="fill:#000000; fill-opacity:0.0; 
stroke:#000000; stroke-width:39.3701; stroke-opacity:1; 
stroke-linecap:round; stroke-linejoin:round;">
</g>
<g style="fill:#000000; fill-opacity:0.0; 
stroke:#000000; stroke-width:59.0551; stroke-opacity:1; 
stroke-linecap:round; stroke-linejoin:round;">
<text x="93661.4" y="77106.3"
textLength="6808.21" font-size="787.402" lengthAdjust="spacingAndGlyphs"
text-anchor="start" opacity="0">State: released</text>
<path d="M93803 77050
L93887 77078
L94028 77078
L94084 77050
L94112 77021
L94140 76965
L94140 76909
L94112 76853
L94084 76825
L94028 76796
L93915 76768
L93859 76740
L93831 76712
L93803 76656
L93803 76600
L93831 76543
L93859 76515
L93915 76487
L94056 76487
L94140 76515
" />
<path d="M94309 76684
L94534 76684
" />
<path d="M94393 76487
L94393 76993
L94422 77050
L94478 77078
L94534 77078
" />
<path d="M94984 77078
L94984 76768
L94956 76712
L94900 76684
L94787 76684
L94731 76712
" />
<path d="M94984 77050
L94928 77078
L94787 77078
L94731 77050
L94703 76993
L94703 76937
L94731 76881
L94787 76853
L94928 76853
L94984 76825
" />
<path d="M95181 76684
L95406 76684
" />
<path d="M95265 76487
L95265 76993
L95293 77050
L95350 77078
L95406 77078
" />
<path d="M95828 77050
L95771 77078
L95659 77078
L95603 77050
L95575 76993
L95575 76768
L95603 76712
L95659 76684
L95771 76684
L95828 76712
L95856 76768
L95856 76825
L95575 76881
" />
<path d="M96109 77021
L96137 77050
L96109 77078
L96081 77050
L96109 77021
L96109 77078
" />
<path d="M96109 76712
L96137 76740
L96109 76768
L96081 76740
L96109 76712
L96109 76768
" />
<path d="M96840 77078
L96840 76684
" />
<path d="M96840 76796
L96868 76740
L96896 76712
L96953 76684
L97009 76684
" />
<path d="M97431 77050
L97374 77078
L97262 77078
L97206 77050
L97178 76993
L97178 76768
L97206 76712
L97262 76684
L97374 76684
L97431 76712
L97459 76768
L97459 76825
L97178 76881
" />
<path d="M97796 77078
L97740 77050
L97712 76993
L97712 76487
" />
<path d="M98246 77050
L98190 77078
L98077 77078
L98021 77050
L97993 76993
L97993 76768
L98021 76712
L98077 76684
L98190 76684
L98246 76712
L98274 76768
L98274 76825
L97993 76881
" />
<path d="M98780 77078
L98780 76768
L98752 76712
L98696 76684
L98584 76684
L98527 76712
" />
<path d="M98780 77050
L98724 77078
L98584 77078
L98527 77050
L98499 76993
L98499 76937
L98527 76881
L98584 76853
L98724 76853
L98780 76825
" />
<path d="M99034 77050
L99090 77078
L99202 77078
L99258 77050
L99287 76993
L99287 76965
L99258 76909
L99202 76881
L99118 76881
L99062 76853
L99034 76796
L99034 76768
L99062 76712
L99118 76684
L99202 76684
L99258 76712
" />
<path d="M99765 77050
L99708 77078
L99596 77078
L99540 77050
L99512 76993
L99512 76768
L99540 76712
L99596 76684
L99708 76684
L99765 76712
L99793 76768
L99793 76825
L99512 76881
" />
<path d="M100299 77078
L100299 76487
" />
<path d="M100299 77050
L100243 77078
L100130 77078
L100074 77050
L100046 77021
L100018 76965
L100018 76796
L100046 76740
L100074 76712
L100130 76684
L100243 76684
L100299 76712
" />
</g>
<g style="fill:#000000; fill-opacity:0.0; 
stroke:#000000; stroke-width:39.3701; stroke-opacity:1; 
stroke-linecap:round; stroke-linejoin:round;">
</g>
<g style="fill:#000000; fill-opacity:0.0; 
stroke:#000000; stroke-width:59.0551; stroke-opacity:1; 
stroke-linecap:round; stroke-linejoin:round;">
<path d="M93425 76181
L93425 77362
" />
</g>
<g style="fill:#000000; fill-opacity:0.0; 
stroke:#000000; stroke-width:39.3701; stroke-opacity:1; 
stroke-linecap:round; stroke-linejoin:round;">
</g>
<g style="fill:#000000; fill-opacity:0.0; 
stroke:#000000; stroke-width:59.0551; stroke-opacity:1; 
stroke-linecap:round; stroke-linejoin:round;">
<path d="M103937 76183
L103937 78742
" />
<g >
</g>
<g >
</g>
<g >
</g>
<g >
</g>
<g >
</g>
<g >
</g>
<g >
</g>
<g >
</g>
<g >
</g>
<g >
</g>
<g >
</g>
<g >
</g>
<g >
</g>
<g >
</g>
<g >
</g>
<g >
</g>
<g >
</g>
<g >
</g>
<g >
</g>
<g >
</g>
<g >
</g>
<g >
</g>
<g >
</g>
<g >
</g>
<g >
</g>
<g >
</g>
<g >
</g>
<g >
</g>
<g >
</g>
<g >
</g>
<g >
</g>
<g >
</g>
<g >
</g>
<g >
</g>
<g >
</g>
<g >
</g>
<g >
</g>
<g >
</g>
<g >
</g>
<g >
</g>
<g >
</g>
<g >
</g>
<g >
</g>
<g >
</g>
<g >
</g>
</g>
<g style="fill:#848484; fill-opacity:0.0; 
stroke:#848484; stroke-width:59.0551; stroke-opacity:1; 
stroke-linecap:round; stroke-linejoin:round;">
</g>
<g style="fill:#848484; fill-opacity:0.0; 
stroke:#848484; stroke-width:49.2126; stroke-opacity:1; 
stroke-linecap:round; stroke-linejoin:round;">
<text x="26988.2" y="33720.5"
textLength="1228.91" font-size="419.947" lengthAdjust="spacingAndGlyphs"
text-anchor="middle" opacity="0">Y201</text>
<path d="M26538 33555
L26538 33705
" />
<path d="M26433 33390
L26538 33555
L26643 33390
" />
<path d="M26733 33420
L26748 33405
L26778 33390
L26853 33390
L26883 33405
L26898 33420
L26913 33450
L26913 33480
L26898 33525
L26718 33705
L26913 33705
" />
<path d="M27108 33390
L27138 33390
L27168 33405
L27183 33420
L27198 33450
L27213 33510
L27213 33585
L27198 33645
L27183 33675
L27168 33690
L27138 33705
L27108 33705
L27078 33690
L27063 33675
L27048 33645
L27033 33585
L27033 33510
L27048 33450
L27063 33420
L27078 33405
L27108 33390
" />
<path d="M27513 33705
L27333 33705
" />
<path d="M27423 33705
L27423 33390
L27393 33435
L27363 33465
L27333 33480
" />
</g>
<g style="fill:#848484; fill-opacity:0.0; 
stroke:#848484; stroke-width:98.4252; stroke-opacity:1; 
stroke-linecap:round; stroke-linejoin:round;">
<text x="22578.7" y="33789.4"
textLength="1985.61" font-size="656.168" lengthAdjust="spacingAndGlyphs"
text-anchor="middle" opacity="0">U201</text>
<path d="M21735 33273
L21735 33672
L21758 33719
L21781 33742
L21828 33765
L21922 33765
L21969 33742
L21992 33719
L22016 33672
L22016 33273
" />
<path d="M22227 33320
L22250 33297
L22297 33273
L22414 33273
L22461 33297
L22485 33320
L22508 33367
L22508 33414
L22485 33484
L22203 33765
L22508 33765
" />
<path d="M22813 33273
L22859 33273
L22906 33297
L22930 33320
L22953 33367
L22977 33461
L22977 33578
L22953 33672
L22930 33719
L22906 33742
L22859 33765
L22813 33765
L22766 33742
L22742 33719
L22719 33672
L22695 33578
L22695 33461
L22719 33367
L22742 33320
L22766 33297
L22813 33273
" />
<path d="M23445 33765
L23164 33765
" />
<path d="M23305 33765
L23305 33273
L23258 33344
L23211 33390
L23164 33414
" />
</g>
<g style="fill:#848484; fill-opacity:0.0; 
stroke:#848484; stroke-width:31.4961; stroke-opacity:1; 
stroke-linecap:round; stroke-linejoin:round;">
<g transform="rotate(-90 29133.9 36712.6)">
<text x="29133.9" y="36811"
textLength="887.233" font-size="262.467" lengthAdjust="spacingAndGlyphs"
text-anchor="middle" opacity="0">R401</text>
</g>
<path d="M29222 36932
L29129 36998
" />
<path d="M29222 37045
L29026 37045
L29026 36970
L29035 36951
L29044 36942
L29063 36932
L29091 36932
L29110 36942
L29119 36951
L29129 36970
L29129 37045
" />
<path d="M29091 36764
L29222 36764
" />
<path d="M29016 36811
L29157 36857
L29157 36736
" />
<path d="M29026 36623
L29026 36604
L29035 36586
L29044 36576
L29063 36567
L29101 36557
L29147 36557
L29185 36567
L29204 36576
L29213 36586
L29222 36604
L29222 36623
L29213 36642
L29204 36651
L29185 36661
L29147 36670
L29101 36670
L29063 36661
L29044 36651
L29035 36642
L29026 36623
" />
<path d="M29222 36370
L29222 36482
" />
<path d="M29222 36426
L29026 36426
L29054 36445
L29072 36464
L29082 36482
" />
<g transform="rotate(-90 23366.1 36633.9)">
<text x="23366.1" y="36732.3"
textLength="800.225" font-size="262.467" lengthAdjust="spacingAndGlyphs"
text-anchor="middle" opacity="0">C206</text>
</g>
<path d="M23436 36854
L23445 36863
L23455 36891
L23455 36910
L23445 36938
L23427 36957
L23408 36966
L23370 36976
L23342 36976
L23305 36966
L23286 36957
L23267 36938
L23258 36910
L23258 36891
L23267 36863
L23277 36854
" />
<path d="M23277 36779
L23267 36769
L23258 36751
L23258 36704
L23267 36685
L23277 36676
L23295 36666
L23314 36666
L23342 36676
L23455 36788
L23455 36666
" />
<path d="M23258 36544
L23258 36526
L23267 36507
L23277 36497
L23295 36488
L23333 36479
L23380 36479
L23417 36488
L23436 36497
L23445 36507
L23455 36526
L23455 36544
L23445 36563
L23436 36572
L23417 36582
L23380 36591
L23333 36591
L23295 36582
L23277 36572
L23267 36563
L23258 36544
" />
<path d="M23258 36310
L23258 36347
L23267 36366
L23277 36376
L23305 36394
L23342 36404
L23417 36404
L23436 36394
L23445 36385
L23455 36366
L23455 36329
L23445 36310
L23436 36301
L23417 36291
L23370 36291
L23352 36301
L23342 36310
L23333 36329
L23333 36366
L23342 36385
L23352 36394
L23370 36404
" />
<g transform="rotate(-90 28503.9 36653.5)">
<text x="28503.9" y="36752"
textLength="800.225" font-size="262.467" lengthAdjust="spacingAndGlyphs"
text-anchor="middle" opacity="0">C403</text>
</g>
<path d="M28574 36873
L28583 36883
L28592 36911
L28592 36930
L28583 36958
L28564 36976
L28546 36986
L28508 36995
L28480 36995
L28443 36986
L28424 36976
L28405 36958
L28396 36930
L28396 36911
L28405 36883
L28414 36873
" />
<path d="M28461 36705
L28592 36705
" />
<path d="M28386 36751
L28527 36798
L28527 36676
" />
<path d="M28396 36564
L28396 36545
L28405 36526
L28414 36517
L28433 36508
L28471 36498
L28517 36498
L28555 36508
L28574 36517
L28583 36526
L28592 36545
L28592 36564
L28583 36583
L28574 36592
L28555 36601
L28517 36611
L28471 36611
L28433 36601
L28414 36592
L28405 36583
L28396 36564
" />
<path d="M28396 36433
L28396 36311
L28471 36377
L28471 36348
L28480 36330
L28489 36320
L28508 36311
L28555 36311
L28574 36320
L28583 36330
L28592 36348
L28592 36405
L28583 36423
L28574 36433
" />
<g transform="rotate(-90 22677.2 36574.8)">
<text x="22677.2" y="36673.2"
textLength="800.225" font-size="262.467" lengthAdjust="spacingAndGlyphs"
text-anchor="middle" opacity="0">R203</text>
</g>
<path d="M22766 36795
L22672 36860
" />
<path d="M22766 36907
L22569 36907
L22569 36832
L22578 36813
L22588 36804
L22606 36795
L22634 36795
L22653 36804
L22663 36813
L22672 36832
L22672 36907
" />
<path d="M22588 36720
L22578 36710
L22569 36691
L22569 36645
L22578 36626
L22588 36616
L22606 36607
L22625 36607
L22653 36616
L22766 36729
L22766 36607
" />
<path d="M22569 36485
L22569 36467
L22578 36448
L22588 36438
L22606 36429
L22644 36420
L22691 36420
L22728 36429
L22747 36438
L22756 36448
L22766 36467
L22766 36485
L22756 36504
L22747 36513
L22728 36523
L22691 36532
L22644 36532
L22606 36523
L22588 36513
L22578 36504
L22569 36485
" />
<path d="M22569 36354
L22569 36232
L22644 36298
L22644 36270
L22653 36251
L22663 36242
L22681 36232
L22728 36232
L22747 36242
L22756 36251
L22766 36270
L22766 36326
L22756 36345
L22747 36354
" />
</g>
<g style="fill:#848484; fill-opacity:0.0; 
stroke:#848484; stroke-width:98.4252; stroke-opacity:1; 
stroke-linecap:round; stroke-linejoin:round;">
<g transform="rotate(-90 17834.6 33464.6)">
<text x="17834.6" y="33710.6"
textLength="1939.15" font-size="656.168" lengthAdjust="spacingAndGlyphs"
text-anchor="middle" opacity="0">P501</text>
</g>
<path d="M18057 34296
L17565 34296
L17565 34109
L17588 34062
L17612 34038
L17658 34015
L17729 34015
L17776 34038
L17799 34062
L17822 34109
L17822 34296
" />
<path d="M17565 33570
L17565 33804
L17799 33827
L17776 33804
L17752 33757
L17752 33640
L17776 33593
L17799 33570
L17846 33546
L17963 33546
L18010 33570
L18033 33593
L18057 33640
L18057 33757
L18033 33804
L18010 33827
" />
<path d="M17565 33241
L17565 33195
L17588 33148
L17612 33124
L17658 33101
L17752 33077
L17869 33077
L17963 33101
L18010 33124
L18033 33148
L18057 33195
L18057 33241
L18033 33288
L18010 33312
L17963 33335
L17869 33359
L17752 33359
L17658 33335
L17612 33312
L17588 33288
L17565 33241
" />
<path d="M18057 32609
L18057 32890
" />
<path d="M18057 32749
L17565 32749
L17635 32796
L17682 32843
L17705 32890
" />
</g>
<g style="fill:#848484; fill-opacity:0.0; 
stroke:#848484; stroke-width:31.4961; stroke-opacity:1; 
stroke-linecap:round; stroke-linejoin:round;">
<text x="25551.2" y="34566.9"
textLength="887.233" font-size="262.467" lengthAdjust="spacingAndGlyphs"
text-anchor="middle" opacity="0">C201</text>
<path d="M25330 34538
L25321 34548
L25293 34557
L25274 34557
L25246 34548
L25227 34529
L25218 34510
L25209 34473
L25209 34445
L25218 34407
L25227 34388
L25246 34370
L25274 34360
L25293 34360
L25321 34370
L25330 34379
" />
<path d="M25405 34379
L25415 34370
L25434 34360
L25480 34360
L25499 34370
L25508 34379
L25518 34398
L25518 34416
L25508 34445
L25396 34557
L25518 34557
" />
<path d="M25640 34360
L25658 34360
L25677 34370
L25687 34379
L25696 34398
L25705 34435
L25705 34482
L25696 34520
L25687 34538
L25677 34548
L25658 34557
L25640 34557
L25621 34548
L25612 34538
L25602 34520
L25593 34482
L25593 34435
L25602 34398
L25612 34379
L25621 34370
L25640 34360
" />
<path d="M25893 34557
L25780 34557
" />
<path d="M25837 34557
L25837 34360
L25818 34388
L25799 34407
L25780 34416
" />
<text x="25551.2" y="33956.7"
textLength="800.225" font-size="262.467" lengthAdjust="spacingAndGlyphs"
text-anchor="middle" opacity="0">C202</text>
<path d="M25330 33928
L25321 33937
L25293 33947
L25274 33947
L25246 33937
L25227 33919
L25218 33900
L25209 33862
L25209 33834
L25218 33797
L25227 33778
L25246 33759
L25274 33750
L25293 33750
L25321 33759
L25330 33769
" />
<path d="M25405 33769
L25415 33759
L25434 33750
L25480 33750
L25499 33759
L25508 33769
L25518 33787
L25518 33806
L25508 33834
L25396 33947
L25518 33947
" />
<path d="M25640 33750
L25658 33750
L25677 33759
L25687 33769
L25696 33787
L25705 33825
L25705 33872
L25696 33909
L25687 33928
L25677 33937
L25658 33947
L25640 33947
L25621 33937
L25612 33928
L25602 33909
L25593 33872
L25593 33825
L25602 33787
L25612 33769
L25621 33759
L25640 33750
" />
<path d="M25780 33769
L25790 33759
L25808 33750
L25855 33750
L25874 33759
L25883 33769
L25893 33787
L25893 33806
L25883 33834
L25771 33947
L25893 33947
" />
<text x="25551.2" y="32736.2"
textLength="800.225" font-size="262.467" lengthAdjust="spacingAndGlyphs"
text-anchor="middle" opacity="0">C203</text>
<path d="M25330 32708
L25321 32717
L25293 32726
L25274 32726
L25246 32717
L25227 32698
L25218 32679
L25209 32642
L25209 32614
L25218 32576
L25227 32558
L25246 32539
L25274 32529
L25293 32529
L25321 32539
L25330 32548
" />
<path d="M25405 32548
L25415 32539
L25434 32529
L25480 32529
L25499 32539
L25508 32548
L25518 32567
L25518 32586
L25508 32614
L25396 32726
L25518 32726
" />
<path d="M25640 32529
L25658 32529
L25677 32539
L25687 32548
L25696 32567
L25705 32604
L25705 32651
L25696 32689
L25687 32708
L25677 32717
L25658 32726
L25640 32726
L25621 32717
L25612 32708
L25602 32689
L25593 32651
L25593 32604
L25602 32567
L25612 32548
L25621 32539
L25640 32529
" />
<path d="M25771 32529
L25893 32529
L25827 32604
L25855 32604
L25874 32614
L25883 32623
L25893 32642
L25893 32689
L25883 32708
L25874 32717
L25855 32726
L25799 32726
L25780 32717
L25771 32708
" />
<text x="20059.1" y="35551.2"
textLength="800.225" font-size="262.467" lengthAdjust="spacingAndGlyphs"
text-anchor="middle" opacity="0">C204</text>
<path d="M19838 35523
L19829 35532
L19801 35541
L19782 35541
L19754 35532
L19735 35513
L19726 35494
L19716 35457
L19716 35429
L19726 35391
L19735 35373
L19754 35354
L19782 35344
L19801 35344
L19829 35354
L19838 35363
" />
<path d="M19913 35363
L19923 35354
L19941 35344
L19988 35344
L20007 35354
L20016 35363
L20026 35382
L20026 35401
L20016 35429
L19904 35541
L20026 35541
" />
<path d="M20148 35344
L20166 35344
L20185 35354
L20194 35363
L20204 35382
L20213 35419
L20213 35466
L20204 35504
L20194 35523
L20185 35532
L20166 35541
L20148 35541
L20129 35532
L20119 35523
L20110 35504
L20101 35466
L20101 35419
L20110 35382
L20119 35363
L20129 35354
L20148 35344
" />
<path d="M20382 35410
L20382 35541
" />
<path d="M20335 35335
L20288 35476
L20410 35476
" />
<g transform="rotate(-90 20629.9 30629.9)">
<text x="20629.9" y="30728.3"
textLength="800.225" font-size="262.467" lengthAdjust="spacingAndGlyphs"
text-anchor="middle" opacity="0">C205</text>
</g>
<path d="M20700 30850
L20709 30859
L20718 30887
L20718 30906
L20709 30934
L20690 30953
L20672 30962
L20634 30972
L20606 30972
L20568 30962
L20550 30953
L20531 30934
L20522 30906
L20522 30887
L20531 30859
L20540 30850
" />
<path d="M20540 30775
L20531 30765
L20522 30747
L20522 30700
L20531 30681
L20540 30672
L20559 30662
L20578 30662
L20606 30672
L20718 30784
L20718 30662
" />
<path d="M20522 30540
L20522 30522
L20531 30503
L20540 30494
L20559 30484
L20597 30475
L20643 30475
L20681 30484
L20700 30494
L20709 30503
L20718 30522
L20718 30540
L20709 30559
L20700 30568
L20681 30578
L20643 30587
L20597 30587
L20559 30578
L20540 30568
L20531 30559
L20522 30540
" />
<path d="M20522 30297
L20522 30390
L20615 30400
L20606 30390
L20597 30372
L20597 30325
L20606 30306
L20615 30297
L20634 30287
L20681 30287
L20700 30297
L20709 30306
L20718 30325
L20718 30372
L20709 30390
L20700 30400
" />
<g transform="rotate(-90 24055.1 36496.1)">
<text x="24055.1" y="36594.5"
textLength="800.225" font-size="262.467" lengthAdjust="spacingAndGlyphs"
text-anchor="middle" opacity="0">C207</text>
</g>
<path d="M24125 36716
L24134 36725
L24144 36753
L24144 36772
L24134 36800
L24116 36819
L24097 36828
L24059 36838
L24031 36838
L23994 36828
L23975 36819
L23956 36800
L23947 36772
L23947 36753
L23956 36725
L23966 36716
" />
<path d="M23966 36641
L23956 36631
L23947 36613
L23947 36566
L23956 36547
L23966 36538
L23984 36528
L24003 36528
L24031 36538
L24144 36650
L24144 36528
" />
<path d="M23947 36407
L23947 36388
L23956 36369
L23966 36360
L23984 36350
L24022 36341
L24069 36341
L24106 36350
L24125 36360
L24134 36369
L24144 36388
L24144 36407
L24134 36425
L24125 36435
L24106 36444
L24069 36453
L24022 36453
L23984 36444
L23966 36435
L23956 36425
L23947 36407
" />
<path d="M23947 36275
L23947 36144
L24144 36228
" />
<g transform="rotate(-90 28208.7 32303.1)">
<text x="28208.7" y="32401.6"
textLength="800.225" font-size="262.467" lengthAdjust="spacingAndGlyphs"
text-anchor="middle" opacity="0">C301</text>
</g>
<path d="M28278 32523
L28288 32532
L28297 32560
L28297 32579
L28288 32607
L28269 32626
L28250 32635
L28213 32645
L28185 32645
L28147 32635
L28128 32626
L28110 32607
L28100 32579
L28100 32560
L28110 32532
L28119 32523
" />
<path d="M28100 32457
L28100 32335
L28175 32401
L28175 32373
L28185 32354
L28194 32345
L28213 32335
L28260 32335
L28278 32345
L28288 32354
L28297 32373
L28297 32429
L28288 32448
L28278 32457
" />
<path d="M28100 32214
L28100 32195
L28110 32176
L28119 32167
L28138 32157
L28175 32148
L28222 32148
L28260 32157
L28278 32167
L28288 32176
L28297 32195
L28297 32214
L28288 32232
L28278 32242
L28260 32251
L28222 32260
L28175 32260
L28138 32251
L28119 32242
L28110 32232
L28100 32214
" />
<path d="M28297 31961
L28297 32073
" />
<path d="M28297 32017
L28100 32017
L28128 32035
L28147 32054
L28157 32073
" />
<g transform="rotate(-90 28208.7 30866.1)">
<text x="28208.7" y="30964.6"
textLength="800.225" font-size="262.467" lengthAdjust="spacingAndGlyphs"
text-anchor="middle" opacity="0">C303</text>
</g>
<path d="M28278 31086
L28288 31095
L28297 31123
L28297 31142
L28288 31170
L28269 31189
L28250 31198
L28213 31208
L28185 31208
L28147 31198
L28128 31189
L28110 31170
L28100 31142
L28100 31123
L28110 31095
L28119 31086
" />
<path d="M28100 31020
L28100 30898
L28175 30964
L28175 30936
L28185 30917
L28194 30908
L28213 30898
L28260 30898
L28278 30908
L28288 30917
L28297 30936
L28297 30992
L28288 31011
L28278 31020
" />
<path d="M28100 30777
L28100 30758
L28110 30739
L28119 30730
L28138 30720
L28175 30711
L28222 30711
L28260 30720
L28278 30730
L28288 30739
L28297 30758
L28297 30777
L28288 30795
L28278 30805
L28260 30814
L28222 30823
L28175 30823
L28138 30814
L28119 30805
L28110 30795
L28100 30777
" />
<path d="M28100 30645
L28100 30523
L28175 30589
L28175 30561
L28185 30542
L28194 30533
L28213 30523
L28260 30523
L28278 30533
L28288 30542
L28297 30561
L28297 30617
L28288 30636
L28278 30645
" />
<g transform="rotate(-90 24744.1 36633.9)">
<text x="24744.1" y="36732.3"
textLength="800.225" font-size="262.467" lengthAdjust="spacingAndGlyphs"
text-anchor="middle" opacity="0">C402</text>
</g>
<path d="M24814 36854
L24823 36863
L24833 36891
L24833 36910
L24823 36938
L24805 36957
L24786 36966
L24748 36976
L24720 36976
L24683 36966
L24664 36957
L24645 36938
L24636 36910
L24636 36891
L24645 36863
L24655 36854
" />
<path d="M24701 36685
L24833 36685
" />
<path d="M24626 36732
L24767 36779
L24767 36657
" />
<path d="M24636 36544
L24636 36526
L24645 36507
L24655 36497
L24673 36488
L24711 36479
L24758 36479
L24795 36488
L24814 36497
L24823 36507
L24833 36526
L24833 36544
L24823 36563
L24814 36572
L24795 36582
L24758 36591
L24711 36591
L24673 36582
L24655 36572
L24645 36563
L24636 36544
" />
<path d="M24655 36404
L24645 36394
L24636 36376
L24636 36329
L24645 36310
L24655 36301
L24673 36291
L24692 36291
L24720 36301
L24833 36413
L24833 36291
" />
<g transform="rotate(-90 23759.8 30610.2)">
<text x="23759.8" y="30708.7"
textLength="800.225" font-size="262.467" lengthAdjust="spacingAndGlyphs"
text-anchor="middle" opacity="0">D601</text>
</g>
<path d="M23848 30943
L23652 30943
L23652 30896
L23661 30868
L23680 30849
L23698 30839
L23736 30830
L23764 30830
L23802 30839
L23820 30849
L23839 30868
L23848 30896
L23848 30943
" />
<path d="M23652 30661
L23652 30699
L23661 30718
L23670 30727
L23698 30746
L23736 30755
L23811 30755
L23830 30746
L23839 30736
L23848 30718
L23848 30680
L23839 30661
L23830 30652
L23811 30643
L23764 30643
L23745 30652
L23736 30661
L23727 30680
L23727 30718
L23736 30736
L23745 30746
L23764 30755
" />
<path d="M23652 30521
L23652 30502
L23661 30483
L23670 30474
L23689 30464
L23727 30455
L23773 30455
L23811 30464
L23830 30474
L23839 30483
L23848 30502
L23848 30521
L23839 30539
L23830 30549
L23811 30558
L23773 30568
L23727 30568
L23689 30558
L23670 30549
L23661 30539
L23652 30521
" />
<path d="M23848 30268
L23848 30380
" />
<path d="M23848 30324
L23652 30324
L23680 30343
L23698 30361
L23708 30380
" />
<g transform="rotate(-90 22500 30610.2)">
<text x="22500" y="30708.7"
textLength="800.225" font-size="262.467" lengthAdjust="spacingAndGlyphs"
text-anchor="middle" opacity="0">D602</text>
</g>
<path d="M22589 30943
L22392 30943
L22392 30896
L22401 30868
L22420 30849
L22439 30839
L22476 30830
L22504 30830
L22542 30839
L22560 30849
L22579 30868
L22589 30896
L22589 30943
" />
<path d="M22392 30661
L22392 30699
L22401 30718
L22410 30727
L22439 30746
L22476 30755
L22551 30755
L22570 30746
L22579 30736
L22589 30718
L22589 30680
L22579 30661
L22570 30652
L22551 30643
L22504 30643
L22485 30652
L22476 30661
L22467 30680
L22467 30718
L22476 30736
L22485 30746
L22504 30755
" />
<path d="M22392 30521
L22392 30502
L22401 30483
L22410 30474
L22429 30464
L22467 30455
L22514 30455
L22551 30464
L22570 30474
L22579 30483
L22589 30502
L22589 30521
L22579 30539
L22570 30549
L22551 30558
L22514 30568
L22467 30568
L22429 30558
L22410 30549
L22401 30539
L22392 30521
" />
<path d="M22410 30380
L22401 30371
L22392 30352
L22392 30305
L22401 30286
L22410 30277
L22429 30268
L22448 30268
L22476 30277
L22589 30389
L22589 30268
" />
<g transform="rotate(-90 21240.2 30610.2)">
<text x="21240.2" y="30708.7"
textLength="800.225" font-size="262.467" lengthAdjust="spacingAndGlyphs"
text-anchor="middle" opacity="0">D603</text>
</g>
<path d="M21329 30943
L21132 30943
L21132 30896
L21141 30868
L21160 30849
L21179 30839
L21216 30830
L21244 30830
L21282 30839
L21301 30849
L21319 30868
L21329 30896
L21329 30943
" />
<path d="M21132 30661
L21132 30699
L21141 30718
L21151 30727
L21179 30746
L21216 30755
L21291 30755
L21310 30746
L21319 30736
L21329 30718
L21329 30680
L21319 30661
L21310 30652
L21291 30643
L21244 30643
L21226 30652
L21216 30661
L21207 30680
L21207 30718
L21216 30736
L21226 30746
L21244 30755
" />
<path d="M21132 30521
L21132 30502
L21141 30483
L21151 30474
L21169 30464
L21207 30455
L21254 30455
L21291 30464
L21310 30474
L21319 30483
L21329 30502
L21329 30521
L21319 30539
L21310 30549
L21291 30558
L21254 30568
L21207 30568
L21169 30558
L21151 30549
L21141 30539
L21132 30521
" />
<path d="M21132 30389
L21132 30268
L21207 30333
L21207 30305
L21216 30286
L21226 30277
L21244 30268
L21291 30268
L21310 30277
L21319 30286
L21329 30305
L21329 30361
L21319 30380
L21310 30389
" />
<g transform="rotate(-90 20708.7 36692.9)">
<text x="20708.7" y="36791.3"
textLength="800.225" font-size="262.467" lengthAdjust="spacingAndGlyphs"
text-anchor="middle" opacity="0">R201</text>
</g>
<path d="M20797 36913
L20703 36978
" />
<path d="M20797 37025
L20600 37025
L20600 36950
L20610 36931
L20619 36922
L20638 36913
L20666 36913
L20685 36922
L20694 36931
L20703 36950
L20703 37025
" />
<path d="M20619 36838
L20610 36828
L20600 36810
L20600 36763
L20610 36744
L20619 36735
L20638 36725
L20657 36725
L20685 36735
L20797 36847
L20797 36725
" />
<path d="M20600 36603
L20600 36585
L20610 36566
L20619 36556
L20638 36547
L20675 36538
L20722 36538
L20760 36547
L20778 36556
L20788 36566
L20797 36585
L20797 36603
L20788 36622
L20778 36631
L20760 36641
L20722 36650
L20675 36650
L20638 36641
L20619 36631
L20610 36622
L20600 36603
" />
<path d="M20797 36350
L20797 36463
" />
<path d="M20797 36407
L20600 36407
L20628 36425
L20647 36444
L20657 36463
" />
<g transform="rotate(-90 21338.6 36692.9)">
<text x="21338.6" y="36791.3"
textLength="800.225" font-size="262.467" lengthAdjust="spacingAndGlyphs"
text-anchor="middle" opacity="0">R202</text>
</g>
<path d="M21427 36913
L21333 36978
" />
<path d="M21427 37025
L21230 37025
L21230 36950
L21240 36931
L21249 36922
L21268 36913
L21296 36913
L21315 36922
L21324 36931
L21333 36950
L21333 37025
" />
<path d="M21249 36838
L21240 36828
L21230 36810
L21230 36763
L21240 36744
L21249 36735
L21268 36725
L21287 36725
L21315 36735
L21427 36847
L21427 36725
" />
<path d="M21230 36603
L21230 36585
L21240 36566
L21249 36556
L21268 36547
L21305 36538
L21352 36538
L21390 36547
L21408 36556
L21418 36566
L21427 36585
L21427 36603
L21418 36622
L21408 36631
L21390 36641
L21352 36650
L21305 36650
L21268 36641
L21249 36631
L21240 36622
L21230 36603
" />
<path d="M21249 36463
L21240 36453
L21230 36435
L21230 36388
L21240 36369
L21249 36360
L21268 36350
L21287 36350
L21315 36360
L21427 36472
L21427 36350
" />
<g transform="rotate(-90 21968.5 36692.9)">
<text x="21968.5" y="36791.3"
textLength="800.225" font-size="262.467" lengthAdjust="spacingAndGlyphs"
text-anchor="middle" opacity="0">R204</text>
</g>
<path d="M22057 36913
L21963 36978
" />
<path d="M22057 37025
L21860 37025
L21860 36950
L21870 36931
L21879 36922
L21898 36913
L21926 36913
L21945 36922
L21954 36931
L21963 36950
L21963 37025
" />
<path d="M21879 36838
L21870 36828
L21860 36810
L21860 36763
L21870 36744
L21879 36735
L21898 36725
L21916 36725
L21945 36735
L22057 36847
L22057 36725
" />
<path d="M21860 36603
L21860 36585
L21870 36566
L21879 36556
L21898 36547
L21935 36538
L21982 36538
L22020 36547
L22038 36556
L22048 36566
L22057 36585
L22057 36603
L22048 36622
L22038 36631
L22020 36641
L21982 36650
L21935 36650
L21898 36641
L21879 36631
L21870 36622
L21860 36603
" />
<path d="M21926 36369
L22057 36369
" />
<path d="M21851 36416
L21991 36463
L21991 36341
" />
<g transform="rotate(-90 24389.8 30570.9)">
<text x="24389.8" y="30669.3"
textLength="800.225" font-size="262.467" lengthAdjust="spacingAndGlyphs"
text-anchor="middle" opacity="0">R601</text>
</g>
<path d="M24478 30791
L24385 30856
" />
<path d="M24478 30903
L24281 30903
L24281 30828
L24291 30809
L24300 30800
L24319 30791
L24347 30791
L24366 30800
L24375 30809
L24385 30828
L24385 30903
" />
<path d="M24281 30622
L24281 30659
L24291 30678
L24300 30688
L24328 30706
L24366 30716
L24441 30716
L24460 30706
L24469 30697
L24478 30678
L24478 30641
L24469 30622
L24460 30613
L24441 30603
L24394 30603
L24375 30613
L24366 30622
L24356 30641
L24356 30678
L24366 30697
L24375 30706
L24394 30716
" />
<path d="M24281 30481
L24281 30463
L24291 30444
L24300 30434
L24319 30425
L24356 30416
L24403 30416
L24441 30425
L24460 30434
L24469 30444
L24478 30463
L24478 30481
L24469 30500
L24460 30509
L24441 30519
L24403 30528
L24356 30528
L24319 30519
L24300 30509
L24291 30500
L24281 30481
" />
<path d="M24478 30228
L24478 30341
" />
<path d="M24478 30284
L24281 30284
L24310 30303
L24328 30322
L24338 30341
" />
<g transform="rotate(-90 23129.9 30570.9)">
<text x="23129.9" y="30669.3"
textLength="800.225" font-size="262.467" lengthAdjust="spacingAndGlyphs"
text-anchor="middle" opacity="0">R602</text>
</g>
<path d="M23218 30791
L23125 30856
" />
<path d="M23218 30903
L23022 30903
L23022 30828
L23031 30809
L23040 30800
L23059 30791
L23087 30791
L23106 30800
L23115 30809
L23125 30828
L23125 30903
" />
<path d="M23022 30622
L23022 30659
L23031 30678
L23040 30688
L23068 30706
L23106 30716
L23181 30716
L23200 30706
L23209 30697
L23218 30678
L23218 30641
L23209 30622
L23200 30613
L23181 30603
L23134 30603
L23115 30613
L23106 30622
L23097 30641
L23097 30678
L23106 30697
L23115 30706
L23134 30716
" />
<path d="M23022 30481
L23022 30463
L23031 30444
L23040 30434
L23059 30425
L23097 30416
L23143 30416
L23181 30425
L23200 30434
L23209 30444
L23218 30463
L23218 30481
L23209 30500
L23200 30509
L23181 30519
L23143 30528
L23097 30528
L23059 30519
L23040 30509
L23031 30500
L23022 30481
" />
<path d="M23040 30341
L23031 30331
L23022 30313
L23022 30266
L23031 30247
L23040 30238
L23059 30228
L23078 30228
L23106 30238
L23218 30350
L23218 30228
" />
<g transform="rotate(-90 21889.8 30570.9)">
<text x="21889.8" y="30669.3"
textLength="800.225" font-size="262.467" lengthAdjust="spacingAndGlyphs"
text-anchor="middle" opacity="0">R603</text>
</g>
<path d="M21978 30791
L21885 30856
" />
<path d="M21978 30903
L21781 30903
L21781 30828
L21791 30809
L21800 30800
L21819 30791
L21847 30791
L21866 30800
L21875 30809
L21885 30828
L21885 30903
" />
<path d="M21781 30622
L21781 30659
L21791 30678
L21800 30688
L21828 30706
L21866 30716
L21941 30716
L21960 30706
L21969 30697
L21978 30678
L21978 30641
L21969 30622
L21960 30613
L21941 30603
L21894 30603
L21875 30613
L21866 30622
L21856 30641
L21856 30678
L21866 30697
L21875 30706
L21894 30716
" />
<path d="M21781 30481
L21781 30463
L21791 30444
L21800 30434
L21819 30425
L21856 30416
L21903 30416
L21941 30425
L21960 30434
L21969 30444
L21978 30463
L21978 30481
L21969 30500
L21960 30509
L21941 30519
L21903 30528
L21856 30528
L21819 30519
L21800 30509
L21791 30500
L21781 30481
" />
<path d="M21781 30350
L21781 30228
L21856 30294
L21856 30266
L21866 30247
L21875 30238
L21894 30228
L21941 30228
L21960 30238
L21969 30247
L21978 30266
L21978 30322
L21969 30341
L21960 30350
" />
<g transform="rotate(-90 26397.6 31102.4)">
<text x="26397.6" y="31200.8"
textLength="809.599" font-size="262.467" lengthAdjust="spacingAndGlyphs"
text-anchor="middle" opacity="0">U301</text>
</g>
<path d="M26289 31439
L26449 31439
L26467 31430
L26477 31421
L26486 31402
L26486 31364
L26477 31346
L26467 31336
L26449 31327
L26289 31327
" />
<path d="M26289 31252
L26289 31130
L26364 31196
L26364 31167
L26374 31149
L26383 31139
L26402 31130
L26449 31130
L26467 31139
L26477 31149
L26486 31167
L26486 31224
L26477 31242
L26467 31252
" />
<path d="M26289 31008
L26289 30989
L26299 30971
L26308 30961
L26327 30952
L26364 30943
L26411 30943
L26449 30952
L26467 30961
L26477 30971
L26486 30989
L26486 31008
L26477 31027
L26467 31036
L26449 31046
L26411 31055
L26364 31055
L26327 31046
L26308 31036
L26299 31027
L26289 31008
" />
<path d="M26486 30755
L26486 30868
" />
<path d="M26486 30811
L26289 30811
L26317 30830
L26336 30849
L26346 30868
" />
</g>
<g style="fill:#848484; fill-opacity:0.0; 
stroke:#848484; stroke-width:98.4252; stroke-opacity:1; 
stroke-linecap:round; stroke-linejoin:round;">
<g transform="rotate(-90 26653.5 36102.4)">
<text x="26653.5" y="36348.4"
textLength="1962.58" font-size="656.168" lengthAdjust="spacingAndGlyphs"
text-anchor="middle" opacity="0">U401</text>
</g>
<path d="M26384 36946
L26782 36946
L26829 36922
L26852 36899
L26876 36852
L26876 36758
L26852 36711
L26829 36688
L26782 36664
L26384 36664
" />
<path d="M26548 36219
L26876 36219
" />
<path d="M26360 36336
L26712 36453
L26712 36149
" />
<path d="M26384 35868
L26384 35821
L26407 35774
L26430 35750
L26477 35727
L26571 35703
L26688 35703
L26782 35727
L26829 35750
L26852 35774
L26876 35821
L26876 35868
L26852 35914
L26829 35938
L26782 35961
L26688 35985
L26571 35985
L26477 35961
L26430 35938
L26407 35914
L26384 35868
" />
<path d="M26876 35235
L26876 35516
" />
<path d="M26876 35375
L26384 35375
L26454 35422
L26501 35469
L26524 35516
" />
</g>
<g style="fill:#848484; fill-opacity:0.0; 
stroke:#848484; stroke-width:31.4961; stroke-opacity:1; 
stroke-linecap:round; stroke-linejoin:round;">
<text x="25551.2" y="33346.5"
textLength="887.233" font-size="262.467" lengthAdjust="spacingAndGlyphs"
text-anchor="middle" opacity="0">C208</text>
<path d="M25330 33318
L25321 33327
L25293 33337
L25274 33337
L25246 33327
L25227 33308
L25218 33290
L25209 33252
L25209 33224
L25218 33187
L25227 33168
L25246 33149
L25274 33140
L25293 33140
L25321 33149
L25330 33158
" />
<path d="M25405 33158
L25415 33149
L25434 33140
L25480 33140
L25499 33149
L25508 33158
L25518 33177
L25518 33196
L25508 33224
L25396 33337
L25518 33337
" />
<path d="M25640 33140
L25658 33140
L25677 33149
L25687 33158
L25696 33177
L25705 33215
L25705 33262
L25696 33299
L25687 33318
L25677 33327
L25658 33337
L25640 33337
L25621 33327
L25612 33318
L25602 33299
L25593 33262
L25593 33215
L25602 33177
L25612 33158
L25621 33149
L25640 33140
" />
<path d="M25818 33224
L25799 33215
L25790 33205
L25780 33187
L25780 33177
L25790 33158
L25799 33149
L25818 33140
L25855 33140
L25874 33149
L25883 33158
L25893 33177
L25893 33187
L25883 33205
L25874 33215
L25855 33224
L25818 33224
L25799 33233
L25790 33243
L25780 33262
L25780 33299
L25790 33318
L25799 33327
L25818 33337
L25855 33337
L25874 33327
L25883 33318
L25893 33299
L25893 33262
L25883 33243
L25874 33233
L25855 33224
" />
<g transform="rotate(-90 28208.7 33661.4)">
<text x="28208.7" y="33759.8"
textLength="800.225" font-size="262.467" lengthAdjust="spacingAndGlyphs"
text-anchor="middle" opacity="0">R402</text>
</g>
<path d="M28297 33881
L28203 33947
" />
<path d="M28297 33994
L28100 33994
L28100 33919
L28110 33900
L28119 33891
L28138 33881
L28166 33881
L28185 33891
L28194 33900
L28203 33919
L28203 33994
" />
<path d="M28166 33712
L28297 33712
" />
<path d="M28091 33759
L28232 33806
L28232 33684
" />
<path d="M28100 33572
L28100 33553
L28110 33534
L28119 33525
L28138 33516
L28175 33506
L28222 33506
L28260 33516
L28278 33525
L28288 33534
L28297 33553
L28297 33572
L28288 33591
L28278 33600
L28260 33609
L28222 33619
L28175 33619
L28138 33609
L28119 33600
L28110 33591
L28100 33572
" />
<path d="M28119 33431
L28110 33422
L28100 33403
L28100 33356
L28110 33338
L28119 33328
L28138 33319
L28157 33319
L28185 33328
L28297 33441
L28297 33319
" />
</g>
<g style="fill:#848484; fill-opacity:0.0; 
stroke:#848484; stroke-width:98.4252; stroke-opacity:1; 
stroke-linecap:round; stroke-linejoin:round;">
<g transform="rotate(-90 30689 33464.6)">
<text x="30689" y="33710.6"
textLength="1915.71" font-size="656.168" lengthAdjust="spacingAndGlyphs"
text-anchor="middle" opacity="0">X502</text>
</g>
<path d="M30419 34331
L30911 34003
" />
<path d="M30419 34003
L30911 34331
" />
<path d="M30419 33581
L30419 33816
L30653 33839
L30630 33816
L30606 33769
L30606 33652
L30630 33605
L30653 33581
L30700 33558
L30817 33558
L30864 33581
L30888 33605
L30911 33652
L30911 33769
L30888 33816
L30864 33839
" />
<path d="M30419 33253
L30419 33206
L30442 33159
L30466 33136
L30513 33113
L30606 33089
L30724 33089
L30817 33113
L30864 33136
L30888 33159
L30911 33206
L30911 33253
L30888 33300
L30864 33323
L30817 33347
L30724 33370
L30606 33370
L30513 33347
L30466 33323
L30442 33300
L30419 33253
" />
<path d="M30466 32902
L30442 32878
L30419 32831
L30419 32714
L30442 32667
L30466 32644
L30513 32620
L30560 32620
L30630 32644
L30911 32925
L30911 32620
" />
<g >
</g>
</g>
<g style="fill:#000000; fill-opacity:0.0; 
stroke:#000000; stroke-width:98.4252; stroke-opacity:1; 
stroke-linecap:round; stroke-linejoin:round;">
</g>
<g style="fill:#C2C200; fill-opacity:0.0; 
stroke:#C2C200; stroke-width:98.4252; stroke-opacity:1; 
stroke-linecap:round; stroke-linejoin:round;">
</g>
<g style="fill:#C2C200; fill-opacity:0.0; 
stroke:#C2C200; stroke-width:59.0551; stroke-opacity:1; 
stroke-linecap:round; stroke-linejoin:round;">
<path d="M16299 29527
L16299 31929
" />
<path d="M31141 29527
L31141 37401
" />
<path d="M18503 32244
L18503 34685
" />
<path d="M16299 31929
L18188 31929
" />
<path d="M18503.9 32244.1 A314.961 314.961 0.0 0 0 18189 31929.1" />
<path d="M18189 35000 A314.961 314.961 0.0 0 0 18503.9 34685" />
<path d="M16299 35000
L18188 35000
" />
<path d="M16299 37401
L16299 35000
" />
<path d="M31141 37401
L16299 37401
" />
<path d="M16299 29527
L31141 29527
" />
<g >
</g>
<g >
</g>
<g >
</g>
<g >
</g>
<g >
</g>
<g >
</g>
<g >
</g>
<g >
</g>
<g >
</g>
<g >
</g>
<g >
</g>
<g >
</g>
<g >
</g>
<g >
</g>
<g >
</g>
<g >
</g>
<g >
</g>
<g >
</g>
<g >
</g>
<g >
</g>
<g >
</g>
<g >
</g>
<g >
</g>
<g >
</g>
<g >
</g>
<g >
</g>
<g >
</g>
<g >
</g>
<g >
</g>
<g >
</g>
<g >
</g>
<g >
</g>
<g >
</g>
<g >
</g>
<g >
</g>
<g >
</g>
<g >
</g>
<g >
</g>
<g >
</g>
<g >
</g>
<g >
</g>
<g >
</g>
<g >
</g>
<g >
</g>
<g >
</g>
<g >
</g>
</g> 
</svg>
