<?xml version="1.0" standalone="no"?>
 <!DOCTYPE svg PUBLIC "-//W3C//DTD SVG 1.1//EN" 
 "http://www.w3.org/Graphics/SVG/1.1/DTD/svg11.dtd"> 
<svg
  xmlns:svg="http://www.w3.org/2000/svg"
  xmlns="http://www.w3.org/2000/svg"
  xmlns:xlink="http://www.w3.org/1999/xlink"
  version="1.1"
  width="29.700220cm" height="21.000720cm" viewBox="0 0 116930 82680">
<title>SVG Picture created as candleLight-B_Fab.svg date 2021/03/04 17:41:33 </title>
  <desc>Picture generated by PCBNEW </desc>
<g style="fill:#000000; fill-opacity:1;stroke:#000000; stroke-opacity:1;
stroke-linecap:round; stroke-linejoin:round;"
 transform="translate(0 0) scale(1 1)">
</g>
<g style="fill:#000000; fill-opacity:0.0; 
stroke:#000000; stroke-width:-0.000393701; stroke-opacity:1; 
stroke-linecap:round; stroke-linejoin:round;">
</g>
<g style="fill:#000000; fill-opacity:0.0; 
stroke:#000000; stroke-width:39.3701; stroke-opacity:1; 
stroke-linecap:round; stroke-linejoin:round;">
</g>
<g style="fill:#000000; fill-opacity:0.0; 
stroke:#000000; stroke-width:59.0551; stroke-opacity:1; 
stroke-linecap:round; stroke-linejoin:round;">
<rect x="69685.9" y="70869" width="43307.1" height="7874.02" rx="0" />
</g>
<g style="fill:#000000; fill-opacity:0.0; 
stroke:#000000; stroke-width:39.3701; stroke-opacity:1; 
stroke-linecap:round; stroke-linejoin:round;">
</g>
<g style="fill:#000000; fill-opacity:0.0; 
stroke:#000000; stroke-width:59.0551; stroke-opacity:1; 
stroke-linecap:round; stroke-linejoin:round;">
<rect x="3937.01" y="3937.01" width="109056" height="74806" rx="0" />
</g>
<g style="fill:#000000; fill-opacity:0.0; 
stroke:#000000; stroke-width:39.3701; stroke-opacity:1; 
stroke-linecap:round; stroke-linejoin:round;">
</g>
<g style="fill:#000000; fill-opacity:0.0; 
stroke:#000000; stroke-width:59.0551; stroke-opacity:1; 
stroke-linecap:round; stroke-linejoin:round;">
<text x="78741" y="77109.1"
textLength="8789.37" font-size="787.402" lengthAdjust="spacingAndGlyphs"
text-anchor="start" opacity="0">Date: 2021-03-03</text>
<path d="M78911 77081
L78911 76490
L79051 76490
L79136 76518
L79192 76574
L79220 76631
L79248 76743
L79248 76827
L79220 76940
L79192 76996
L79136 77052
L79051 77081
L78911 77081
" />
<path d="M79754 77081
L79754 76771
L79726 76715
L79670 76687
L79557 76687
L79501 76715
" />
<path d="M79754 77052
L79698 77081
L79557 77081
L79501 77052
L79473 76996
L79473 76940
L79501 76884
L79557 76856
L79698 76856
L79754 76827
" />
<path d="M79951 76687
L80176 76687
" />
<path d="M80036 76490
L80036 76996
L80064 77052
L80120 77081
L80176 77081
" />
<path d="M80598 77052
L80542 77081
L80429 77081
L80373 77052
L80345 76996
L80345 76771
L80373 76715
L80429 76687
L80542 76687
L80598 76715
L80626 76771
L80626 76827
L80345 76884
" />
<path d="M80879 77024
L80907 77052
L80879 77081
L80851 77052
L80879 77024
L80879 77081
" />
<path d="M80879 76715
L80907 76743
L80879 76771
L80851 76743
L80879 76715
L80879 76771
" />
<path d="M81582 76546
L81610 76518
L81667 76490
L81807 76490
L81863 76518
L81892 76546
L81920 76602
L81920 76659
L81892 76743
L81554 77081
L81920 77081
" />
<path d="M82285 76490
L82341 76490
L82398 76518
L82426 76546
L82454 76602
L82482 76715
L82482 76856
L82454 76968
L82426 77024
L82398 77052
L82341 77081
L82285 77081
L82229 77052
L82201 77024
L82173 76968
L82145 76856
L82145 76715
L82173 76602
L82201 76546
L82229 76518
L82285 76490
" />
<path d="M82707 76546
L82735 76518
L82791 76490
L82932 76490
L82988 76518
L83016 76546
L83045 76602
L83045 76659
L83016 76743
L82679 77081
L83045 77081
" />
<path d="M83607 77081
L83269 77081
" />
<path d="M83438 77081
L83438 76490
L83382 76574
L83326 76631
L83269 76659
" />
<path d="M83860 76856
L84310 76856
" />
<path d="M84704 76490
L84760 76490
L84816 76518
L84844 76546
L84872 76602
L84901 76715
L84901 76856
L84872 76968
L84844 77024
L84816 77052
L84760 77081
L84704 77081
L84647 77052
L84619 77024
L84591 76968
L84563 76856
L84563 76715
L84591 76602
L84619 76546
L84647 76518
L84704 76490
" />
<path d="M85097 76490
L85463 76490
L85266 76715
L85350 76715
L85407 76743
L85435 76771
L85463 76827
L85463 76968
L85435 77024
L85407 77052
L85350 77081
L85182 77081
L85126 77052
L85097 77024
" />
<path d="M85716 76856
L86166 76856
" />
<path d="M86560 76490
L86616 76490
L86672 76518
L86700 76546
L86728 76602
L86757 76715
L86757 76856
L86728 76968
L86700 77024
L86672 77052
L86616 77081
L86560 77081
L86503 77052
L86475 77024
L86447 76968
L86419 76856
L86419 76715
L86447 76602
L86475 76546
L86503 76518
L86560 76490
" />
<path d="M86953 76490
L87319 76490
L87122 76715
L87206 76715
L87263 76743
L87291 76771
L87319 76827
L87319 76968
L87291 77024
L87263 77052
L87206 77081
L87038 77081
L86982 77052
L86953 77024
" />
</g>
<g style="fill:#000000; fill-opacity:0.0; 
stroke:#000000; stroke-width:39.3701; stroke-opacity:1; 
stroke-linecap:round; stroke-linejoin:round;">
</g>
<g style="fill:#000000; fill-opacity:0.0; 
stroke:#000000; stroke-width:59.0551; stroke-opacity:1; 
stroke-linecap:round; stroke-linejoin:round;">
<text x="70079.6" y="74195.7"
textLength="17410" font-size="787.402" lengthAdjust="spacingAndGlyphs"
text-anchor="start" opacity="0">Item: candlelight-P01-R01-B01-C00</text>
<path d="M70249 74167
L70249 73577
" />
<path d="M70446 73773
L70671 73773
" />
<path d="M70530 73577
L70530 74083
L70559 74139
L70615 74167
L70671 74167
" />
<path d="M71093 74139
L71037 74167
L70924 74167
L70868 74139
L70840 74083
L70840 73858
L70868 73802
L70924 73773
L71037 73773
L71093 73802
L71121 73858
L71121 73914
L70840 73970
" />
<path d="M71374 74167
L71374 73773
" />
<path d="M71374 73830
L71402 73802
L71458 73773
L71543 73773
L71599 73802
L71627 73858
L71627 74167
" />
<path d="M71627 73858
L71655 73802
L71712 73773
L71796 73773
L71852 73802
L71880 73858
L71880 74167
" />
<path d="M72162 74111
L72190 74139
L72162 74167
L72133 74139
L72162 74111
L72162 74167
" />
<path d="M72162 73802
L72190 73830
L72162 73858
L72133 73830
L72162 73802
L72162 73858
" />
<path d="M73146 74139
L73090 74167
L72977 74167
L72921 74139
L72893 74111
L72865 74055
L72865 73886
L72893 73830
L72921 73802
L72977 73773
L73090 73773
L73146 73802
" />
<path d="M73652 74167
L73652 73858
L73624 73802
L73568 73773
L73455 73773
L73399 73802
" />
<path d="M73652 74139
L73596 74167
L73455 74167
L73399 74139
L73371 74083
L73371 74027
L73399 73970
L73455 73942
L73596 73942
L73652 73914
" />
<path d="M73933 73773
L73933 74167
" />
<path d="M73933 73830
L73961 73802
L74018 73773
L74102 73773
L74158 73802
L74186 73858
L74186 74167
" />
<path d="M74721 74167
L74721 73577
" />
<path d="M74721 74139
L74664 74167
L74552 74167
L74496 74139
L74467 74111
L74439 74055
L74439 73886
L74467 73830
L74496 73802
L74552 73773
L74664 73773
L74721 73802
" />
<path d="M75086 74167
L75030 74139
L75002 74083
L75002 73577
" />
<path d="M75536 74139
L75480 74167
L75367 74167
L75311 74139
L75283 74083
L75283 73858
L75311 73802
L75367 73773
L75480 73773
L75536 73802
L75564 73858
L75564 73914
L75283 73970
" />
<path d="M75902 74167
L75845 74139
L75817 74083
L75817 73577
" />
<path d="M76127 74167
L76127 73773
" />
<path d="M76127 73577
L76099 73605
L76127 73633
L76155 73605
L76127 73577
L76127 73633
" />
<path d="M76661 73773
L76661 74251
L76633 74308
L76605 74336
L76548 74364
L76464 74364
L76408 74336
" />
<path d="M76661 74139
L76605 74167
L76492 74167
L76436 74139
L76408 74111
L76380 74055
L76380 73886
L76408 73830
L76436 73802
L76492 73773
L76605 73773
L76661 73802
" />
<path d="M76942 74167
L76942 73577
" />
<path d="M77195 74167
L77195 73858
L77167 73802
L77111 73773
L77027 73773
L76970 73802
L76942 73830
" />
<path d="M77392 73773
L77617 73773
" />
<path d="M77476 73577
L77476 74083
L77505 74139
L77561 74167
L77617 74167
" />
<path d="M77814 73942
L78264 73942
" />
<path d="M78545 74167
L78545 73577
L78770 73577
L78826 73605
L78854 73633
L78883 73689
L78883 73773
L78854 73830
L78826 73858
L78770 73886
L78545 73886
" />
<path d="M79248 73577
L79304 73577
L79361 73605
L79389 73633
L79417 73689
L79445 73802
L79445 73942
L79417 74055
L79389 74111
L79361 74139
L79304 74167
L79248 74167
L79192 74139
L79164 74111
L79136 74055
L79108 73942
L79108 73802
L79136 73689
L79164 73633
L79192 73605
L79248 73577
" />
<path d="M80007 74167
L79670 74167
" />
<path d="M79839 74167
L79839 73577
L79782 73661
L79726 73717
L79670 73745
" />
<path d="M80260 73942
L80710 73942
" />
<path d="M81329 74167
L81132 73886
" />
<path d="M80992 74167
L80992 73577
L81217 73577
L81273 73605
L81301 73633
L81329 73689
L81329 73773
L81301 73830
L81273 73858
L81217 73886
L80992 73886
" />
<path d="M81695 73577
L81751 73577
L81807 73605
L81835 73633
L81863 73689
L81892 73802
L81892 73942
L81863 74055
L81835 74111
L81807 74139
L81751 74167
L81695 74167
L81638 74139
L81610 74111
L81582 74055
L81554 73942
L81554 73802
L81582 73689
L81610 73633
L81638 73605
L81695 73577
" />
<path d="M82454 74167
L82117 74167
" />
<path d="M82285 74167
L82285 73577
L82229 73661
L82173 73717
L82117 73745
" />
<path d="M82707 73942
L83157 73942
" />
<path d="M83635 73858
L83719 73886
L83748 73914
L83776 73970
L83776 74055
L83748 74111
L83719 74139
L83663 74167
L83438 74167
L83438 73577
L83635 73577
L83691 73605
L83719 73633
L83748 73689
L83748 73745
L83719 73802
L83691 73830
L83635 73858
L83438 73858
" />
<path d="M84141 73577
L84197 73577
L84254 73605
L84282 73633
L84310 73689
L84338 73802
L84338 73942
L84310 74055
L84282 74111
L84254 74139
L84197 74167
L84141 74167
L84085 74139
L84057 74111
L84029 74055
L84001 73942
L84001 73802
L84029 73689
L84057 73633
L84085 73605
L84141 73577
" />
<path d="M84901 74167
L84563 74167
" />
<path d="M84732 74167
L84732 73577
L84676 73661
L84619 73717
L84563 73745
" />
<path d="M85154 73942
L85604 73942
" />
<path d="M86222 74111
L86194 74139
L86110 74167
L86054 74167
L85969 74139
L85913 74083
L85885 74027
L85857 73914
L85857 73830
L85885 73717
L85913 73661
L85969 73605
L86054 73577
L86110 73577
L86194 73605
L86222 73633
" />
<path d="M86588 73577
L86644 73577
L86700 73605
L86728 73633
L86757 73689
L86785 73802
L86785 73942
L86757 74055
L86728 74111
L86700 74139
L86644 74167
L86588 74167
L86532 74139
L86503 74111
L86475 74055
L86447 73942
L86447 73802
L86475 73689
L86503 73633
L86532 73605
L86588 73577
" />
<path d="M87150 73577
L87206 73577
L87263 73605
L87291 73633
L87319 73689
L87347 73802
L87347 73942
L87319 74055
L87291 74111
L87263 74139
L87206 74167
L87150 74167
L87094 74139
L87066 74111
L87038 74055
L87010 73942
L87010 73802
L87038 73689
L87066 73633
L87094 73605
L87150 73577
" />
</g>
<g style="fill:#000000; fill-opacity:0.0; 
stroke:#000000; stroke-width:39.3701; stroke-opacity:1; 
stroke-linecap:round; stroke-linejoin:round;">
</g>
<g style="fill:#000000; fill-opacity:0.0; 
stroke:#000000; stroke-width:59.0551; stroke-opacity:1; 
stroke-linecap:round; stroke-linejoin:round;">
<path d="M69685 77365
L112992 77365
" />
</g>
<g style="fill:#000000; fill-opacity:0.0; 
stroke:#000000; stroke-width:39.3701; stroke-opacity:1; 
stroke-linecap:round; stroke-linejoin:round;">
</g>
<g style="fill:#000000; fill-opacity:0.0; 
stroke:#000000; stroke-width:59.0551; stroke-opacity:1; 
stroke-linecap:round; stroke-linejoin:round;">
<text x="70079.6" y="78211.5"
textLength="5514.62" font-size="787.402" lengthAdjust="spacingAndGlyphs"
text-anchor="start" opacity="0">KiCad E.D.A.</text>
<path d="M70249 78183
L70249 77592
" />
<path d="M70587 78183
L70334 77845
" />
<path d="M70587 77592
L70249 77930
" />
<path d="M70840 78183
L70840 77789
" />
<path d="M70840 77592
L70812 77620
L70840 77649
L70868 77620
L70840 77592
L70840 77649
" />
<path d="M71458 78127
L71430 78155
L71346 78183
L71290 78183
L71205 78155
L71149 78099
L71121 78042
L71093 77930
L71093 77845
L71121 77733
L71149 77677
L71205 77620
L71290 77592
L71346 77592
L71430 77620
L71458 77649
" />
<path d="M71965 78183
L71965 77874
L71937 77817
L71880 77789
L71768 77789
L71712 77817
" />
<path d="M71965 78155
L71908 78183
L71768 78183
L71712 78155
L71683 78099
L71683 78042
L71712 77986
L71768 77958
L71908 77958
L71965 77930
" />
<path d="M72499 78183
L72499 77592
" />
<path d="M72499 78155
L72443 78183
L72330 78183
L72274 78155
L72246 78127
L72218 78070
L72218 77902
L72246 77845
L72274 77817
L72330 77789
L72443 77789
L72499 77817
" />
<path d="M73230 77874
L73427 77874
" />
<path d="M73511 78183
L73230 78183
L73230 77592
L73511 77592
" />
<path d="M73764 78127
L73793 78155
L73764 78183
L73736 78155
L73764 78127
L73764 78183
" />
<path d="M74046 78183
L74046 77592
L74186 77592
L74271 77620
L74327 77677
L74355 77733
L74383 77845
L74383 77930
L74355 78042
L74327 78099
L74271 78155
L74186 78183
L74046 78183
" />
<path d="M74636 78127
L74664 78155
L74636 78183
L74608 78155
L74636 78127
L74636 78183
" />
<path d="M74889 78014
L75171 78014
" />
<path d="M74833 78183
L75030 77592
L75227 78183
" />
<path d="M75424 78127
L75452 78155
L75424 78183
L75395 78155
L75424 78127
L75424 78183
" />
</g>
<g style="fill:#000000; fill-opacity:0.0; 
stroke:#000000; stroke-width:39.3701; stroke-opacity:1; 
stroke-linecap:round; stroke-linejoin:round;">
</g>
<g style="fill:#000000; fill-opacity:0.0; 
stroke:#000000; stroke-width:59.0551; stroke-opacity:1; 
stroke-linecap:round; stroke-linejoin:round;">
<path d="M69685 76183
L112992 76183
" />
</g>
<g style="fill:#000000; fill-opacity:0.0; 
stroke:#000000; stroke-width:39.3701; stroke-opacity:1; 
stroke-linecap:round; stroke-linejoin:round;">
</g>
<g style="fill:#000000; fill-opacity:0.0; 
stroke:#000000; stroke-width:118.11; stroke-opacity:1; 
stroke-linecap:round; stroke-linejoin:round;">
<text x="104332" y="77109.1"
textLength="4052.31" font-size="787.402" lengthAdjust="spacingAndGlyphs"
text-anchor="start" opacity="0">Rev: R01</text>
<path d="M104886 77081
L104689 76799
" />
<path d="M104548 77081
L104548 76490
L104773 76490
L104830 76518
L104858 76546
L104886 76602
L104886 76687
L104858 76743
L104830 76771
L104773 76799
L104548 76799
" />
<path d="M105364 77052
L105308 77081
L105195 77081
L105139 77052
L105111 76996
L105111 76771
L105139 76715
L105195 76687
L105308 76687
L105364 76715
L105392 76771
L105392 76827
L105111 76884
" />
<path d="M105589 76687
L105730 77081
L105870 76687
" />
<path d="M106095 77024
L106123 77052
L106095 77081
L106067 77052
L106095 77024
L106095 77081
" />
<path d="M106095 76715
L106123 76743
L106095 76771
L106067 76743
L106095 76715
L106095 76771
" />
<path d="M107164 77081
L106967 76799
" />
<path d="M106826 77081
L106826 76490
L107051 76490
L107108 76518
L107136 76546
L107164 76602
L107164 76687
L107136 76743
L107108 76771
L107051 76799
L106826 76799
" />
<path d="M107529 76490
L107586 76490
L107642 76518
L107670 76546
L107698 76602
L107726 76715
L107726 76856
L107698 76968
L107670 77024
L107642 77052
L107586 77081
L107529 77081
L107473 77052
L107445 77024
L107417 76968
L107389 76856
L107389 76715
L107417 76602
L107445 76546
L107473 76518
L107529 76490
" />
<path d="M108289 77081
L107951 77081
" />
<path d="M108120 77081
L108120 76490
L108064 76574
L108007 76631
L107951 76659
" />
</g>
<g style="fill:#000000; fill-opacity:0.0; 
stroke:#000000; stroke-width:39.3701; stroke-opacity:1; 
stroke-linecap:round; stroke-linejoin:round;">
</g>
<g style="fill:#000000; fill-opacity:0.0; 
stroke:#000000; stroke-width:59.0551; stroke-opacity:1; 
stroke-linecap:round; stroke-linejoin:round;">
<text x="70079.6" y="77109.1"
textLength="3781.21" font-size="787.402" lengthAdjust="spacingAndGlyphs"
text-anchor="start" opacity="0">Size: A4</text>
<path d="M70221 77052
L70305 77081
L70446 77081
L70502 77052
L70530 77024
L70559 76968
L70559 76912
L70530 76856
L70502 76827
L70446 76799
L70334 76771
L70277 76743
L70249 76715
L70221 76659
L70221 76602
L70249 76546
L70277 76518
L70334 76490
L70474 76490
L70559 76518
" />
<path d="M70812 77081
L70812 76687
" />
<path d="M70812 76490
L70784 76518
L70812 76546
L70840 76518
L70812 76490
L70812 76546
" />
<path d="M71037 76687
L71346 76687
L71037 77081
L71346 77081
" />
<path d="M71796 77052
L71740 77081
L71627 77081
L71571 77052
L71543 76996
L71543 76771
L71571 76715
L71627 76687
L71740 76687
L71796 76715
L71824 76771
L71824 76827
L71543 76884
" />
<path d="M72077 77024
L72105 77052
L72077 77081
L72049 77052
L72077 77024
L72077 77081
" />
<path d="M72077 76715
L72105 76743
L72077 76771
L72049 76743
L72077 76715
L72077 76771
" />
<path d="M72780 76912
L73061 76912
" />
<path d="M72724 77081
L72921 76490
L73118 77081
" />
<path d="M73568 76687
L73568 77081
" />
<path d="M73427 76462
L73286 76884
L73652 76884
" />
</g>
<g style="fill:#000000; fill-opacity:0.0; 
stroke:#000000; stroke-width:39.3701; stroke-opacity:1; 
stroke-linecap:round; stroke-linejoin:round;">
</g>
<g style="fill:#000000; fill-opacity:0.0; 
stroke:#000000; stroke-width:59.0551; stroke-opacity:1; 
stroke-linecap:round; stroke-linejoin:round;">
<text x="104332" y="78211.5"
textLength="4699.1" font-size="787.402" lengthAdjust="spacingAndGlyphs"
text-anchor="start" opacity="0">Sheet 1/1</text>
<path d="M104473 78155
L104557 78183
L104698 78183
L104754 78155
L104782 78127
L104811 78070
L104811 78014
L104782 77958
L104754 77930
L104698 77902
L104586 77874
L104529 77845
L104501 77817
L104473 77761
L104473 77705
L104501 77649
L104529 77620
L104586 77592
L104726 77592
L104811 77620
" />
<path d="M105064 78183
L105064 77592
" />
<path d="M105317 78183
L105317 77874
L105289 77817
L105232 77789
L105148 77789
L105092 77817
L105064 77845
" />
<path d="M105823 78155
L105767 78183
L105654 78183
L105598 78155
L105570 78099
L105570 77874
L105598 77817
L105654 77789
L105767 77789
L105823 77817
L105851 77874
L105851 77930
L105570 77986
" />
<path d="M106329 78155
L106273 78183
L106160 78183
L106104 78155
L106076 78099
L106076 77874
L106104 77817
L106160 77789
L106273 77789
L106329 77817
L106357 77874
L106357 77930
L106076 77986
" />
<path d="M106526 77789
L106751 77789
" />
<path d="M106610 77592
L106610 78099
L106638 78155
L106695 78183
L106751 78183
" />
<path d="M107707 78183
L107370 78183
" />
<path d="M107538 78183
L107538 77592
L107482 77677
L107426 77733
L107370 77761
" />
<path d="M108382 77564
L107876 78323
" />
<path d="M108888 78183
L108551 78183
" />
<path d="M108719 78183
L108719 77592
L108663 77677
L108607 77733
L108551 77761
" />
</g>
<g style="fill:#000000; fill-opacity:0.0; 
stroke:#000000; stroke-width:39.3701; stroke-opacity:1; 
stroke-linecap:round; stroke-linejoin:round;">
</g>
<g style="fill:#000000; fill-opacity:0.0; 
stroke:#000000; stroke-width:59.0551; stroke-opacity:1; 
stroke-linecap:round; stroke-linejoin:round;">
<path d="M69685 74609
L112992 74609
" />
</g>
<g style="fill:#000000; fill-opacity:0.0; 
stroke:#000000; stroke-width:39.3701; stroke-opacity:1; 
stroke-linecap:round; stroke-linejoin:round;">
</g>
<g style="fill:#000000; fill-opacity:0.0; 
stroke:#000000; stroke-width:157.48; stroke-opacity:1; 
stroke-linecap:round; stroke-linejoin:round;">
<text x="70079.6" y="75711.5"
textLength="10332.8" font-size="1049.87" lengthAdjust="spacingAndGlyphs"
text-anchor="start" opacity="0">Title: candleLight</text>
<path d="M70256 74886
L70706 74886
" />
<path d="M70481 75674
L70481 74886
" />
<path d="M70969 75674
L70969 75149
" />
<path d="M70969 74886
L70931 74924
L70969 74961
L71006 74924
L70969 74886
L70969 74961
" />
<path d="M71231 75149
L71531 75149
" />
<path d="M71344 74886
L71344 75561
L71381 75636
L71456 75674
L71531 75674
" />
<path d="M71906 75674
L71831 75636
L71794 75561
L71794 74886
" />
<path d="M72506 75636
L72431 75674
L72281 75674
L72206 75636
L72169 75561
L72169 75261
L72206 75186
L72281 75149
L72431 75149
L72506 75186
L72544 75261
L72544 75336
L72169 75411
" />
<path d="M72881 75599
L72919 75636
L72881 75674
L72844 75636
L72881 75599
L72881 75674
" />
<path d="M72881 75186
L72919 75224
L72881 75261
L72844 75224
L72881 75186
L72881 75261
" />
<path d="M74193 75636
L74118 75674
L73968 75674
L73894 75636
L73856 75599
L73819 75524
L73819 75299
L73856 75224
L73894 75186
L73968 75149
L74118 75149
L74193 75186
" />
<path d="M74868 75674
L74868 75261
L74831 75186
L74756 75149
L74606 75149
L74531 75186
" />
<path d="M74868 75636
L74793 75674
L74606 75674
L74531 75636
L74493 75561
L74493 75486
L74531 75411
L74606 75374
L74793 75374
L74868 75336
" />
<path d="M75243 75149
L75243 75674
" />
<path d="M75243 75224
L75281 75186
L75356 75149
L75468 75149
L75543 75186
L75581 75261
L75581 75674
" />
<path d="M76293 75674
L76293 74886
" />
<path d="M76293 75636
L76218 75674
L76068 75674
L75993 75636
L75956 75599
L75918 75524
L75918 75299
L75956 75224
L75993 75186
L76068 75149
L76218 75149
L76293 75186
" />
<path d="M76781 75674
L76706 75636
L76668 75561
L76668 74886
" />
<path d="M77381 75636
L77306 75674
L77156 75674
L77081 75636
L77043 75561
L77043 75261
L77081 75186
L77156 75149
L77306 75149
L77381 75186
L77418 75261
L77418 75336
L77043 75411
" />
<path d="M78130 75674
L77756 75674
L77756 74886
" />
<path d="M78393 75674
L78393 75149
" />
<path d="M78393 74886
L78355 74924
L78393 74961
L78430 74924
L78393 74886
L78393 74961
" />
<path d="M79105 75149
L79105 75786
L79068 75861
L79030 75898
L78955 75936
L78843 75936
L78768 75898
" />
<path d="M79105 75636
L79030 75674
L78880 75674
L78805 75636
L78768 75599
L78730 75524
L78730 75299
L78768 75224
L78805 75186
L78880 75149
L79030 75149
L79105 75186
" />
<path d="M79480 75674
L79480 74886
" />
<path d="M79818 75674
L79818 75261
L79780 75186
L79705 75149
L79593 75149
L79518 75186
L79480 75224
" />
<path d="M80080 75149
L80380 75149
" />
<path d="M80193 74886
L80193 75561
L80230 75636
L80305 75674
L80380 75674
" />
</g>
<g style="fill:#000000; fill-opacity:0.0; 
stroke:#000000; stroke-width:39.3701; stroke-opacity:1; 
stroke-linecap:round; stroke-linejoin:round;">
</g>
<g style="fill:#000000; fill-opacity:0.0; 
stroke:#000000; stroke-width:59.0551; stroke-opacity:1; 
stroke-linecap:round; stroke-linejoin:round;">
<path d="M69685 72246
L112992 72246
" />
</g>
<g style="fill:#000000; fill-opacity:0.0; 
stroke:#000000; stroke-width:39.3701; stroke-opacity:1; 
stroke-linecap:round; stroke-linejoin:round;">
</g>
<g style="fill:#000000; fill-opacity:0.0; 
stroke:#000000; stroke-width:59.0551; stroke-opacity:1; 
stroke-linecap:round; stroke-linejoin:round;">
<text x="70079.6" y="73132.8"
textLength="18961.8" font-size="787.402" lengthAdjust="spacingAndGlyphs"
text-anchor="start" opacity="0">Further Specifications: See LayerStack.txt</text>
<path d="M70446 72795
L70249 72795
" />
<path d="M70249 73104
L70249 72514
L70530 72514
" />
<path d="M71009 72710
L71009 73104
" />
<path d="M70755 72710
L70755 73020
L70784 73076
L70840 73104
L70924 73104
L70980 73076
L71009 73048
" />
<path d="M71290 73104
L71290 72710
" />
<path d="M71290 72823
L71318 72767
L71346 72739
L71402 72710
L71458 72710
" />
<path d="M71571 72710
L71796 72710
" />
<path d="M71655 72514
L71655 73020
L71683 73076
L71740 73104
L71796 73104
" />
<path d="M71993 73104
L71993 72514
" />
<path d="M72246 73104
L72246 72795
L72218 72739
L72162 72710
L72077 72710
L72021 72739
L71993 72767
" />
<path d="M72752 73076
L72696 73104
L72583 73104
L72527 73076
L72499 73020
L72499 72795
L72527 72739
L72583 72710
L72696 72710
L72752 72739
L72780 72795
L72780 72851
L72499 72907
" />
<path d="M73033 73104
L73033 72710
" />
<path d="M73033 72823
L73061 72767
L73090 72739
L73146 72710
L73202 72710
" />
<path d="M73821 73076
L73905 73104
L74046 73104
L74102 73076
L74130 73048
L74158 72992
L74158 72935
L74130 72879
L74102 72851
L74046 72823
L73933 72795
L73877 72767
L73849 72739
L73821 72682
L73821 72626
L73849 72570
L73877 72542
L73933 72514
L74074 72514
L74158 72542
" />
<path d="M74411 72710
L74411 73301
" />
<path d="M74411 72739
L74467 72710
L74580 72710
L74636 72739
L74664 72767
L74692 72823
L74692 72992
L74664 73048
L74636 73076
L74580 73104
L74467 73104
L74411 73076
" />
<path d="M75171 73076
L75114 73104
L75002 73104
L74946 73076
L74917 73020
L74917 72795
L74946 72739
L75002 72710
L75114 72710
L75171 72739
L75199 72795
L75199 72851
L74917 72907
" />
<path d="M75705 73076
L75649 73104
L75536 73104
L75480 73076
L75452 73048
L75424 72992
L75424 72823
L75452 72767
L75480 72739
L75536 72710
L75649 72710
L75705 72739
" />
<path d="M75958 73104
L75958 72710
" />
<path d="M75958 72514
L75930 72542
L75958 72570
L75986 72542
L75958 72514
L75958 72570
" />
<path d="M76155 72710
L76380 72710
" />
<path d="M76239 73104
L76239 72598
L76267 72542
L76323 72514
L76380 72514
" />
<path d="M76577 73104
L76577 72710
" />
<path d="M76577 72514
L76548 72542
L76577 72570
L76605 72542
L76577 72514
L76577 72570
" />
<path d="M77111 73076
L77055 73104
L76942 73104
L76886 73076
L76858 73048
L76830 72992
L76830 72823
L76858 72767
L76886 72739
L76942 72710
L77055 72710
L77111 72739
" />
<path d="M77617 73104
L77617 72795
L77589 72739
L77533 72710
L77420 72710
L77364 72739
" />
<path d="M77617 73076
L77561 73104
L77420 73104
L77364 73076
L77336 73020
L77336 72964
L77364 72907
L77420 72879
L77561 72879
L77617 72851
" />
<path d="M77814 72710
L78039 72710
" />
<path d="M77898 72514
L77898 73020
L77926 73076
L77983 73104
L78039 73104
" />
<path d="M78236 73104
L78236 72710
" />
<path d="M78236 72514
L78208 72542
L78236 72570
L78264 72542
L78236 72514
L78236 72570
" />
<path d="M78601 73104
L78545 73076
L78517 73048
L78489 72992
L78489 72823
L78517 72767
L78545 72739
L78601 72710
L78686 72710
L78742 72739
L78770 72767
L78798 72823
L78798 72992
L78770 73048
L78742 73076
L78686 73104
L78601 73104
" />
<path d="M79051 72710
L79051 73104
" />
<path d="M79051 72767
L79079 72739
L79136 72710
L79220 72710
L79276 72739
L79304 72795
L79304 73104
" />
<path d="M79557 73076
L79614 73104
L79726 73104
L79782 73076
L79811 73020
L79811 72992
L79782 72935
L79726 72907
L79642 72907
L79586 72879
L79557 72823
L79557 72795
L79586 72739
L79642 72710
L79726 72710
L79782 72739
" />
<path d="M80064 73048
L80092 73076
L80064 73104
L80036 73076
L80064 73048
L80064 73104
" />
<path d="M80064 72739
L80092 72767
L80064 72795
L80036 72767
L80064 72739
L80064 72795
" />
<path d="M80767 73076
L80851 73104
L80992 73104
L81048 73076
L81076 73048
L81104 72992
L81104 72935
L81076 72879
L81048 72851
L80992 72823
L80879 72795
L80823 72767
L80795 72739
L80767 72682
L80767 72626
L80795 72570
L80823 72542
L80879 72514
L81020 72514
L81104 72542
" />
<path d="M81582 73076
L81526 73104
L81413 73104
L81357 73076
L81329 73020
L81329 72795
L81357 72739
L81413 72710
L81526 72710
L81582 72739
L81610 72795
L81610 72851
L81329 72907
" />
<path d="M82088 73076
L82032 73104
L81920 73104
L81863 73076
L81835 73020
L81835 72795
L81863 72739
L81920 72710
L82032 72710
L82088 72739
L82117 72795
L82117 72851
L81835 72907
" />
<path d="M83101 73104
L82820 73104
L82820 72514
" />
<path d="M83551 73104
L83551 72795
L83523 72739
L83466 72710
L83354 72710
L83298 72739
" />
<path d="M83551 73076
L83494 73104
L83354 73104
L83298 73076
L83269 73020
L83269 72964
L83298 72907
L83354 72879
L83494 72879
L83551 72851
" />
<path d="M83776 72710
L83916 73104
" />
<path d="M84057 72710
L83916 73104
L83860 73245
L83832 73273
L83776 73301
" />
<path d="M84507 73076
L84451 73104
L84338 73104
L84282 73076
L84254 73020
L84254 72795
L84282 72739
L84338 72710
L84451 72710
L84507 72739
L84535 72795
L84535 72851
L84254 72907
" />
<path d="M84788 73104
L84788 72710
" />
<path d="M84788 72823
L84816 72767
L84844 72739
L84901 72710
L84957 72710
" />
<path d="M85126 73076
L85210 73104
L85350 73104
L85407 73076
L85435 73048
L85463 72992
L85463 72935
L85435 72879
L85407 72851
L85350 72823
L85238 72795
L85182 72767
L85154 72739
L85126 72682
L85126 72626
L85154 72570
L85182 72542
L85238 72514
L85379 72514
L85463 72542
" />
<path d="M85632 72710
L85857 72710
" />
<path d="M85716 72514
L85716 73020
L85744 73076
L85800 73104
L85857 73104
" />
<path d="M86307 73104
L86307 72795
L86278 72739
L86222 72710
L86110 72710
L86054 72739
" />
<path d="M86307 73076
L86250 73104
L86110 73104
L86054 73076
L86025 73020
L86025 72964
L86054 72907
L86110 72879
L86250 72879
L86307 72851
" />
<path d="M86841 73076
L86785 73104
L86672 73104
L86616 73076
L86588 73048
L86560 72992
L86560 72823
L86588 72767
L86616 72739
L86672 72710
L86785 72710
L86841 72739
" />
<path d="M87094 73104
L87094 72514
" />
<path d="M87150 72879
L87319 73104
" />
<path d="M87319 72710
L87094 72935
" />
<path d="M87572 73048
L87600 73076
L87572 73104
L87544 73076
L87572 73048
L87572 73104
" />
<path d="M87769 72710
L87994 72710
" />
<path d="M87853 72514
L87853 73020
L87881 73076
L87938 73104
L87994 73104
" />
<path d="M88135 73104
L88444 72710
" />
<path d="M88135 72710
L88444 73104
" />
<path d="M88584 72710
L88809 72710
" />
<path d="M88669 72514
L88669 73020
L88697 73076
L88753 73104
L88809 73104
" />
</g>
<g style="fill:#000000; fill-opacity:0.0; 
stroke:#000000; stroke-width:39.3701; stroke-opacity:1; 
stroke-linecap:round; stroke-linejoin:round;">
</g>
<g style="fill:#000000; fill-opacity:0.0; 
stroke:#000000; stroke-width:118.11; stroke-opacity:1; 
stroke-linecap:round; stroke-linejoin:round;">
<text x="70079.6" y="71951.7"
textLength="10717.1" font-size="787.402" lengthAdjust="spacingAndGlyphs"
text-anchor="start" opacity="0">Linux Automation GmbH</text>
<path d="M70578 71923
L70296 71923
L70296 71332
" />
<path d="M70775 71923
L70775 71529
" />
<path d="M70775 71332
L70746 71361
L70775 71389
L70803 71361
L70775 71332
L70775 71389
" />
<path d="M71056 71529
L71056 71923
" />
<path d="M71056 71586
L71084 71557
L71140 71529
L71224 71529
L71281 71557
L71309 71614
L71309 71923
" />
<path d="M71843 71529
L71843 71923
" />
<path d="M71590 71529
L71590 71839
L71618 71895
L71674 71923
L71759 71923
L71815 71895
L71843 71867
" />
<path d="M72068 71923
L72377 71529
" />
<path d="M72068 71529
L72377 71923
" />
<path d="M73024 71754
L73305 71754
" />
<path d="M72968 71923
L73165 71332
L73362 71923
" />
<path d="M73812 71529
L73812 71923
" />
<path d="M73559 71529
L73559 71839
L73587 71895
L73643 71923
L73727 71923
L73784 71895
L73812 71867
" />
<path d="M74009 71529
L74233 71529
" />
<path d="M74093 71332
L74093 71839
L74121 71895
L74177 71923
L74233 71923
" />
<path d="M74515 71923
L74458 71895
L74430 71867
L74402 71811
L74402 71642
L74430 71586
L74458 71557
L74515 71529
L74599 71529
L74655 71557
L74683 71586
L74712 71642
L74712 71811
L74683 71867
L74655 71895
L74599 71923
L74515 71923
" />
<path d="M74965 71923
L74965 71529
" />
<path d="M74965 71586
L74993 71557
L75049 71529
L75133 71529
L75190 71557
L75218 71614
L75218 71923
" />
<path d="M75218 71614
L75246 71557
L75302 71529
L75386 71529
L75443 71557
L75471 71614
L75471 71923
" />
<path d="M76005 71923
L76005 71614
L75977 71557
L75921 71529
L75808 71529
L75752 71557
" />
<path d="M76005 71895
L75949 71923
L75808 71923
L75752 71895
L75724 71839
L75724 71782
L75752 71726
L75808 71698
L75949 71698
L76005 71670
" />
<path d="M76202 71529
L76427 71529
" />
<path d="M76286 71332
L76286 71839
L76314 71895
L76371 71923
L76427 71923
" />
<path d="M76624 71923
L76624 71529
" />
<path d="M76624 71332
L76596 71361
L76624 71389
L76652 71361
L76624 71332
L76624 71389
" />
<path d="M76989 71923
L76933 71895
L76905 71867
L76877 71811
L76877 71642
L76905 71586
L76933 71557
L76989 71529
L77074 71529
L77130 71557
L77158 71586
L77186 71642
L77186 71811
L77158 71867
L77130 71895
L77074 71923
L76989 71923
" />
<path d="M77439 71529
L77439 71923
" />
<path d="M77439 71586
L77467 71557
L77524 71529
L77608 71529
L77664 71557
L77692 71614
L77692 71923
" />
<path d="M78733 71361
L78677 71332
L78592 71332
L78508 71361
L78452 71417
L78424 71473
L78395 71586
L78395 71670
L78424 71782
L78452 71839
L78508 71895
L78592 71923
L78649 71923
L78733 71895
L78761 71867
L78761 71670
L78649 71670
" />
<path d="M79014 71923
L79014 71529
" />
<path d="M79014 71586
L79042 71557
L79099 71529
L79183 71529
L79239 71557
L79267 71614
L79267 71923
" />
<path d="M79267 71614
L79295 71557
L79352 71529
L79436 71529
L79492 71557
L79520 71614
L79520 71923
" />
<path d="M79802 71923
L79802 71332
" />
<path d="M79802 71557
L79858 71529
L79970 71529
L80027 71557
L80055 71586
L80083 71642
L80083 71811
L80055 71867
L80027 71895
L79970 71923
L79858 71923
L79802 71895
" />
<path d="M80336 71923
L80336 71332
" />
<path d="M80336 71614
L80673 71614
" />
<path d="M80673 71923
L80673 71332
" />
</g>
<g style="fill:#000000; fill-opacity:0.0; 
stroke:#000000; stroke-width:39.3701; stroke-opacity:1; 
stroke-linecap:round; stroke-linejoin:round;">
</g>
<g style="fill:#000000; fill-opacity:0.0; 
stroke:#000000; stroke-width:59.0551; stroke-opacity:1; 
stroke-linecap:round; stroke-linejoin:round;">
<text x="78741" y="78211.5"
textLength="23297.5" font-size="787.402" lengthAdjust="spacingAndGlyphs"
text-anchor="start" opacity="0">git: github.com/linux-automation/candlelight-S01</text>
<path d="M79164 77789
L79164 78267
L79136 78323
L79108 78352
L79051 78380
L78967 78380
L78911 78352
" />
<path d="M79164 78155
L79108 78183
L78995 78183
L78939 78155
L78911 78127
L78883 78070
L78883 77902
L78911 77845
L78939 77817
L78995 77789
L79108 77789
L79164 77817
" />
<path d="M79445 78183
L79445 77789
" />
<path d="M79445 77592
L79417 77620
L79445 77649
L79473 77620
L79445 77592
L79445 77649
" />
<path d="M79642 77789
L79867 77789
" />
<path d="M79726 77592
L79726 78099
L79754 78155
L79811 78183
L79867 78183
" />
<path d="M80064 78127
L80092 78155
L80064 78183
L80036 78155
L80064 78127
L80064 78183
" />
<path d="M80064 77817
L80092 77845
L80064 77874
L80036 77845
L80064 77817
L80064 77874
" />
<path d="M81048 77789
L81048 78267
L81020 78323
L80992 78352
L80935 78380
L80851 78380
L80795 78352
" />
<path d="M81048 78155
L80992 78183
L80879 78183
L80823 78155
L80795 78127
L80767 78070
L80767 77902
L80795 77845
L80823 77817
L80879 77789
L80992 77789
L81048 77817
" />
<path d="M81329 78183
L81329 77789
" />
<path d="M81329 77592
L81301 77620
L81329 77649
L81357 77620
L81329 77592
L81329 77649
" />
<path d="M81526 77789
L81751 77789
" />
<path d="M81610 77592
L81610 78099
L81638 78155
L81695 78183
L81751 78183
" />
<path d="M81948 78183
L81948 77592
" />
<path d="M82201 78183
L82201 77874
L82173 77817
L82117 77789
L82032 77789
L81976 77817
L81948 77845
" />
<path d="M82735 77789
L82735 78183
" />
<path d="M82482 77789
L82482 78099
L82510 78155
L82566 78183
L82651 78183
L82707 78155
L82735 78127
" />
<path d="M83016 78183
L83016 77592
" />
<path d="M83016 77817
L83073 77789
L83185 77789
L83241 77817
L83269 77845
L83298 77902
L83298 78070
L83269 78127
L83241 78155
L83185 78183
L83073 78183
L83016 78155
" />
<path d="M83551 78127
L83579 78155
L83551 78183
L83523 78155
L83551 78127
L83551 78183
" />
<path d="M84085 78155
L84029 78183
L83916 78183
L83860 78155
L83832 78127
L83804 78070
L83804 77902
L83832 77845
L83860 77817
L83916 77789
L84029 77789
L84085 77817
" />
<path d="M84422 78183
L84366 78155
L84338 78127
L84310 78070
L84310 77902
L84338 77845
L84366 77817
L84422 77789
L84507 77789
L84563 77817
L84591 77845
L84619 77902
L84619 78070
L84591 78127
L84563 78155
L84507 78183
L84422 78183
" />
<path d="M84872 78183
L84872 77789
" />
<path d="M84872 77845
L84901 77817
L84957 77789
L85041 77789
L85097 77817
L85126 77874
L85126 78183
" />
<path d="M85126 77874
L85154 77817
L85210 77789
L85294 77789
L85350 77817
L85379 77874
L85379 78183
" />
<path d="M86082 77564
L85575 78323
" />
<path d="M86363 78183
L86307 78155
L86278 78099
L86278 77592
" />
<path d="M86588 78183
L86588 77789
" />
<path d="M86588 77592
L86560 77620
L86588 77649
L86616 77620
L86588 77592
L86588 77649
" />
<path d="M86869 77789
L86869 78183
" />
<path d="M86869 77845
L86897 77817
L86953 77789
L87038 77789
L87094 77817
L87122 77874
L87122 78183
" />
<path d="M87656 77789
L87656 78183
" />
<path d="M87403 77789
L87403 78099
L87431 78155
L87488 78183
L87572 78183
L87628 78155
L87656 78127
" />
<path d="M87881 78183
L88191 77789
" />
<path d="M87881 77789
L88191 78183
" />
<path d="M88416 77958
L88866 77958
" />
<path d="M89400 78183
L89400 77874
L89372 77817
L89316 77789
L89203 77789
L89147 77817
" />
<path d="M89400 78155
L89344 78183
L89203 78183
L89147 78155
L89119 78099
L89119 78042
L89147 77986
L89203 77958
L89344 77958
L89400 77930
" />
<path d="M89934 77789
L89934 78183
" />
<path d="M89681 77789
L89681 78099
L89709 78155
L89766 78183
L89850 78183
L89906 78155
L89934 78127
" />
<path d="M90131 77789
L90356 77789
" />
<path d="M90215 77592
L90215 78099
L90244 78155
L90300 78183
L90356 78183
" />
<path d="M90637 78183
L90581 78155
L90553 78127
L90525 78070
L90525 77902
L90553 77845
L90581 77817
L90637 77789
L90722 77789
L90778 77817
L90806 77845
L90834 77902
L90834 78070
L90806 78127
L90778 78155
L90722 78183
L90637 78183
" />
<path d="M91087 78183
L91087 77789
" />
<path d="M91087 77845
L91115 77817
L91172 77789
L91256 77789
L91312 77817
L91340 77874
L91340 78183
" />
<path d="M91340 77874
L91368 77817
L91425 77789
L91509 77789
L91565 77817
L91593 77874
L91593 78183
" />
<path d="M92128 78183
L92128 77874
L92100 77817
L92043 77789
L91931 77789
L91875 77817
" />
<path d="M92128 78155
L92072 78183
L91931 78183
L91875 78155
L91847 78099
L91847 78042
L91875 77986
L91931 77958
L92072 77958
L92128 77930
" />
<path d="M92325 77789
L92550 77789
" />
<path d="M92409 77592
L92409 78099
L92437 78155
L92493 78183
L92550 78183
" />
<path d="M92746 78183
L92746 77789
" />
<path d="M92746 77592
L92718 77620
L92746 77649
L92775 77620
L92746 77592
L92746 77649
" />
<path d="M93112 78183
L93056 78155
L93028 78127
L93000 78070
L93000 77902
L93028 77845
L93056 77817
L93112 77789
L93196 77789
L93253 77817
L93281 77845
L93309 77902
L93309 78070
L93281 78127
L93253 78155
L93196 78183
L93112 78183
" />
<path d="M93562 77789
L93562 78183
" />
<path d="M93562 77845
L93590 77817
L93646 77789
L93731 77789
L93787 77817
L93815 77874
L93815 78183
" />
<path d="M94518 77564
L94012 78323
" />
<path d="M94968 78155
L94912 78183
L94799 78183
L94743 78155
L94715 78127
L94687 78070
L94687 77902
L94715 77845
L94743 77817
L94799 77789
L94912 77789
L94968 77817
" />
<path d="M95474 78183
L95474 77874
L95446 77817
L95390 77789
L95277 77789
L95221 77817
" />
<path d="M95474 78155
L95418 78183
L95277 78183
L95221 78155
L95193 78099
L95193 78042
L95221 77986
L95277 77958
L95418 77958
L95474 77930
" />
<path d="M95755 77789
L95755 78183
" />
<path d="M95755 77845
L95784 77817
L95840 77789
L95924 77789
L95980 77817
L96009 77874
L96009 78183
" />
<path d="M96543 78183
L96543 77592
" />
<path d="M96543 78155
L96487 78183
L96374 78183
L96318 78155
L96290 78127
L96262 78070
L96262 77902
L96290 77845
L96318 77817
L96374 77789
L96487 77789
L96543 77817
" />
<path d="M96908 78183
L96852 78155
L96824 78099
L96824 77592
" />
<path d="M97358 78155
L97302 78183
L97190 78183
L97133 78155
L97105 78099
L97105 77874
L97133 77817
L97190 77789
L97302 77789
L97358 77817
L97386 77874
L97386 77930
L97105 77986
" />
<path d="M97724 78183
L97668 78155
L97640 78099
L97640 77592
" />
<path d="M97949 78183
L97949 77789
" />
<path d="M97949 77592
L97921 77620
L97949 77649
L97977 77620
L97949 77592
L97949 77649
" />
<path d="M98483 77789
L98483 78267
L98455 78323
L98427 78352
L98371 78380
L98286 78380
L98230 78352
" />
<path d="M98483 78155
L98427 78183
L98314 78183
L98258 78155
L98230 78127
L98202 78070
L98202 77902
L98230 77845
L98258 77817
L98314 77789
L98427 77789
L98483 77817
" />
<path d="M98764 78183
L98764 77592
" />
<path d="M99018 78183
L99018 77874
L98989 77817
L98933 77789
L98849 77789
L98793 77817
L98764 77845
" />
<path d="M99214 77789
L99439 77789
" />
<path d="M99299 77592
L99299 78099
L99327 78155
L99383 78183
L99439 78183
" />
<path d="M99636 77958
L100086 77958
" />
<path d="M100339 78155
L100424 78183
L100564 78183
L100620 78155
L100649 78127
L100677 78070
L100677 78014
L100649 77958
L100620 77930
L100564 77902
L100452 77874
L100395 77845
L100367 77817
L100339 77761
L100339 77705
L100367 77649
L100395 77620
L100452 77592
L100592 77592
L100677 77620
" />
<path d="M101042 77592
L101099 77592
L101155 77620
L101183 77649
L101211 77705
L101239 77817
L101239 77958
L101211 78070
L101183 78127
L101155 78155
L101099 78183
L101042 78183
L100986 78155
L100958 78127
L100930 78070
L100902 77958
L100902 77817
L100930 77705
L100958 77649
L100986 77620
L101042 77592
" />
<path d="M101802 78183
L101464 78183
" />
<path d="M101633 78183
L101633 77592
L101577 77677
L101520 77733
L101464 77761
" />
</g>
<g style="fill:#000000; fill-opacity:0.0; 
stroke:#000000; stroke-width:39.3701; stroke-opacity:1; 
stroke-linecap:round; stroke-linejoin:round;">
</g>
<g style="fill:#000000; fill-opacity:0.0; 
stroke:#000000; stroke-width:59.0551; stroke-opacity:1; 
stroke-linecap:round; stroke-linejoin:round;">
<path d="M77559 76183
L77559 78742
" />
</g>
<g style="fill:#000000; fill-opacity:0.0; 
stroke:#000000; stroke-width:39.3701; stroke-opacity:1; 
stroke-linecap:round; stroke-linejoin:round;">
</g>
<g style="fill:#000000; fill-opacity:0.0; 
stroke:#000000; stroke-width:59.0551; stroke-opacity:1; 
stroke-linecap:round; stroke-linejoin:round;">
<text x="93661.4" y="77106.3"
textLength="6808.21" font-size="787.402" lengthAdjust="spacingAndGlyphs"
text-anchor="start" opacity="0">State: released</text>
<path d="M93803 77050
L93887 77078
L94028 77078
L94084 77050
L94112 77021
L94140 76965
L94140 76909
L94112 76853
L94084 76825
L94028 76796
L93915 76768
L93859 76740
L93831 76712
L93803 76656
L93803 76600
L93831 76543
L93859 76515
L93915 76487
L94056 76487
L94140 76515
" />
<path d="M94309 76684
L94534 76684
" />
<path d="M94393 76487
L94393 76993
L94422 77050
L94478 77078
L94534 77078
" />
<path d="M94984 77078
L94984 76768
L94956 76712
L94900 76684
L94787 76684
L94731 76712
" />
<path d="M94984 77050
L94928 77078
L94787 77078
L94731 77050
L94703 76993
L94703 76937
L94731 76881
L94787 76853
L94928 76853
L94984 76825
" />
<path d="M95181 76684
L95406 76684
" />
<path d="M95265 76487
L95265 76993
L95293 77050
L95350 77078
L95406 77078
" />
<path d="M95828 77050
L95771 77078
L95659 77078
L95603 77050
L95575 76993
L95575 76768
L95603 76712
L95659 76684
L95771 76684
L95828 76712
L95856 76768
L95856 76825
L95575 76881
" />
<path d="M96109 77021
L96137 77050
L96109 77078
L96081 77050
L96109 77021
L96109 77078
" />
<path d="M96109 76712
L96137 76740
L96109 76768
L96081 76740
L96109 76712
L96109 76768
" />
<path d="M96840 77078
L96840 76684
" />
<path d="M96840 76796
L96868 76740
L96896 76712
L96953 76684
L97009 76684
" />
<path d="M97431 77050
L97374 77078
L97262 77078
L97206 77050
L97178 76993
L97178 76768
L97206 76712
L97262 76684
L97374 76684
L97431 76712
L97459 76768
L97459 76825
L97178 76881
" />
<path d="M97796 77078
L97740 77050
L97712 76993
L97712 76487
" />
<path d="M98246 77050
L98190 77078
L98077 77078
L98021 77050
L97993 76993
L97993 76768
L98021 76712
L98077 76684
L98190 76684
L98246 76712
L98274 76768
L98274 76825
L97993 76881
" />
<path d="M98780 77078
L98780 76768
L98752 76712
L98696 76684
L98584 76684
L98527 76712
" />
<path d="M98780 77050
L98724 77078
L98584 77078
L98527 77050
L98499 76993
L98499 76937
L98527 76881
L98584 76853
L98724 76853
L98780 76825
" />
<path d="M99034 77050
L99090 77078
L99202 77078
L99258 77050
L99287 76993
L99287 76965
L99258 76909
L99202 76881
L99118 76881
L99062 76853
L99034 76796
L99034 76768
L99062 76712
L99118 76684
L99202 76684
L99258 76712
" />
<path d="M99765 77050
L99708 77078
L99596 77078
L99540 77050
L99512 76993
L99512 76768
L99540 76712
L99596 76684
L99708 76684
L99765 76712
L99793 76768
L99793 76825
L99512 76881
" />
<path d="M100299 77078
L100299 76487
" />
<path d="M100299 77050
L100243 77078
L100130 77078
L100074 77050
L100046 77021
L100018 76965
L100018 76796
L100046 76740
L100074 76712
L100130 76684
L100243 76684
L100299 76712
" />
</g>
<g style="fill:#000000; fill-opacity:0.0; 
stroke:#000000; stroke-width:39.3701; stroke-opacity:1; 
stroke-linecap:round; stroke-linejoin:round;">
</g>
<g style="fill:#000000; fill-opacity:0.0; 
stroke:#000000; stroke-width:59.0551; stroke-opacity:1; 
stroke-linecap:round; stroke-linejoin:round;">
<path d="M93425 76181
L93425 77362
" />
</g>
<g style="fill:#000000; fill-opacity:0.0; 
stroke:#000000; stroke-width:39.3701; stroke-opacity:1; 
stroke-linecap:round; stroke-linejoin:round;">
</g>
<g style="fill:#000000; fill-opacity:0.0; 
stroke:#000000; stroke-width:59.0551; stroke-opacity:1; 
stroke-linecap:round; stroke-linejoin:round;">
<path d="M103937 76183
L103937 78742
" />
<g >
</g>
<g >
</g>
<g >
</g>
<g >
</g>
<g >
</g>
<g >
</g>
<g >
</g>
<g >
</g>
<g >
</g>
<g >
</g>
<g >
</g>
<g >
</g>
<g >
</g>
<g >
</g>
<g >
</g>
<g >
</g>
<g >
</g>
<g >
</g>
<g >
</g>
<g >
</g>
<g >
</g>
<g >
</g>
<g >
</g>
<g >
</g>
<g >
</g>
<g >
</g>
<g >
</g>
<g >
</g>
<g >
</g>
<g >
</g>
<g >
</g>
<g >
</g>
<g >
</g>
<g >
</g>
<g >
</g>
<g >
</g>
<g >
</g>
<g >
</g>
<g >
</g>
<g >
</g>
<g >
</g>
<g >
</g>
<g >
</g>
<g >
</g>
<g >
</g>
</g>
<g style="fill:#000084; fill-opacity:0.0; 
stroke:#000084; stroke-width:59.0551; stroke-opacity:1; 
stroke-linecap:round; stroke-linejoin:round;">
<text x="20275.6" y="33267.7"
transform="scale(-1 1) translate(-40551.181102 0)"
textLength="2340.64" font-size="524.934" lengthAdjust="spacingAndGlyphs"
text-anchor="middle" opacity="0">TEST_1P</text>
<path d="M21437 32855
L21212 32855
" />
<path d="M21325 33248
L21325 32855
" />
<path d="M21081 33042
L20950 33042
" />
<path d="M20894 33248
L21081 33248
L21081 32855
L20894 32855
" />
<path d="M20744 33230
L20688 33248
L20594 33248
L20556 33230
L20538 33211
L20519 33173
L20519 33136
L20538 33098
L20556 33080
L20594 33061
L20669 33042
L20706 33023
L20725 33005
L20744 32967
L20744 32930
L20725 32892
L20706 32874
L20669 32855
L20575 32855
L20519 32874
" />
<path d="M20406 32855
L20181 32855
" />
<path d="M20294 33248
L20294 32855
" />
<path d="M20144 33286
L19844 33286
" />
<path d="M19544 33248
L19769 33248
" />
<path d="M19656 33248
L19656 32855
L19694 32911
L19731 32949
L19769 32967
" />
<path d="M19375 33248
L19375 32855
L19225 32855
L19188 32874
L19169 32892
L19150 32930
L19150 32986
L19169 33023
L19188 33042
L19225 33061
L19375 33061
" />
<text x="21259.8" y="33267.7"
transform="scale(-1 1) translate(-42519.685039 0)"
textLength="2322.93" font-size="524.934" lengthAdjust="spacingAndGlyphs"
text-anchor="middle" opacity="0">TEST_1P</text>
<path d="M22422 32855
L22197 32855
" />
<path d="M22309 33248
L22309 32855
" />
<path d="M22065 33042
L21934 33042
" />
<path d="M21878 33248
L22065 33248
L22065 32855
L21878 32855
" />
<path d="M21728 33230
L21672 33248
L21578 33248
L21541 33230
L21522 33211
L21503 33173
L21503 33136
L21522 33098
L21541 33080
L21578 33061
L21653 33042
L21691 33023
L21709 33005
L21728 32967
L21728 32930
L21709 32892
L21691 32874
L21653 32855
L21559 32855
L21503 32874
" />
<path d="M21391 32855
L21166 32855
" />
<path d="M21278 33248
L21278 32855
" />
<path d="M21128 33286
L20828 33286
" />
<path d="M20528 33248
L20753 33248
" />
<path d="M20641 33248
L20641 32855
L20678 32911
L20716 32949
L20753 32967
" />
<path d="M20359 33248
L20359 32855
L20209 32855
L20172 32874
L20153 32892
L20134 32930
L20134 32986
L20153 33023
L20172 33042
L20209 33061
L20359 33061
" />
<text x="20669.3" y="35629.9"
transform="scale(-1 1) translate(-41338.582677 0)"
textLength="2322.93" font-size="524.934" lengthAdjust="spacingAndGlyphs"
text-anchor="middle" opacity="0">TEST_1P</text>
<path d="M21831 35217
L21606 35217
" />
<path d="M21719 35611
L21719 35217
" />
<path d="M21475 35404
L21344 35404
" />
<path d="M21287 35611
L21475 35611
L21475 35217
L21287 35217
" />
<path d="M21137 35592
L21081 35611
L20988 35611
L20950 35592
L20931 35573
L20913 35536
L20913 35498
L20931 35461
L20950 35442
L20988 35423
L21062 35404
L21100 35386
L21119 35367
L21137 35329
L21137 35292
L21119 35254
L21100 35236
L21062 35217
L20969 35217
L20913 35236
" />
<path d="M20800 35217
L20575 35217
" />
<path d="M20688 35611
L20688 35217
" />
<path d="M20538 35648
L20238 35648
" />
<path d="M19938 35611
L20163 35611
" />
<path d="M20050 35611
L20050 35217
L20088 35273
L20125 35311
L20163 35329
" />
<path d="M19769 35611
L19769 35217
L19619 35217
L19581 35236
L19563 35254
L19544 35292
L19544 35348
L19563 35386
L19581 35404
L19619 35423
L19769 35423
" />
<text x="21653.5" y="35629.9"
transform="scale(-1 1) translate(-43307.086614 0)"
textLength="2322.93" font-size="524.934" lengthAdjust="spacingAndGlyphs"
text-anchor="middle" opacity="0">TEST_1P</text>
<path d="M22815 35217
L22590 35217
" />
<path d="M22703 35611
L22703 35217
" />
<path d="M22459 35404
L22328 35404
" />
<path d="M22272 35611
L22459 35611
L22459 35217
L22272 35217
" />
<path d="M22122 35592
L22065 35611
L21972 35611
L21934 35592
L21916 35573
L21897 35536
L21897 35498
L21916 35461
L21934 35442
L21972 35423
L22047 35404
L22084 35386
L22103 35367
L22122 35329
L22122 35292
L22103 35254
L22084 35236
L22047 35217
L21953 35217
L21897 35236
" />
<path d="M21784 35217
L21559 35217
" />
<path d="M21672 35611
L21672 35217
" />
<path d="M21522 35648
L21222 35648
" />
<path d="M20922 35611
L21147 35611
" />
<path d="M21034 35611
L21034 35217
L21072 35273
L21109 35311
L21147 35329
" />
<path d="M20753 35611
L20753 35217
L20603 35217
L20566 35236
L20547 35254
L20528 35292
L20528 35348
L20547 35386
L20566 35404
L20603 35423
L20753 35423
" />
<text x="21259.8" y="31102.4"
transform="scale(-1 1) translate(-42519.685039 0)"
textLength="2322.93" font-size="524.934" lengthAdjust="spacingAndGlyphs"
text-anchor="middle" opacity="0">TEST_1P</text>
<path d="M22422 30689
L22197 30689
" />
<path d="M22309 31083
L22309 30689
" />
<path d="M22065 30877
L21934 30877
" />
<path d="M21878 31083
L22065 31083
L22065 30689
L21878 30689
" />
<path d="M21728 31064
L21672 31083
L21578 31083
L21541 31064
L21522 31046
L21503 31008
L21503 30971
L21522 30933
L21541 30914
L21578 30896
L21653 30877
L21691 30858
L21709 30839
L21728 30802
L21728 30764
L21709 30727
L21691 30708
L21653 30689
L21559 30689
L21503 30708
" />
<path d="M21391 30689
L21166 30689
" />
<path d="M21278 31083
L21278 30689
" />
<path d="M21128 31121
L20828 31121
" />
<path d="M20528 31083
L20753 31083
" />
<path d="M20641 31083
L20641 30689
L20678 30746
L20716 30783
L20753 30802
" />
<path d="M20359 31083
L20359 30689
L20209 30689
L20172 30708
L20153 30727
L20134 30764
L20134 30821
L20153 30858
L20172 30877
L20209 30896
L20359 30896
" />
<text x="20275.6" y="31102.4"
transform="scale(-1 1) translate(-40551.181102 0)"
textLength="2322.93" font-size="524.934" lengthAdjust="spacingAndGlyphs"
text-anchor="middle" opacity="0">TEST_1P</text>
<path d="M21437 30689
L21212 30689
" />
<path d="M21325 31083
L21325 30689
" />
<path d="M21081 30877
L20950 30877
" />
<path d="M20894 31083
L21081 31083
L21081 30689
L20894 30689
" />
<path d="M20744 31064
L20688 31083
L20594 31083
L20556 31064
L20538 31046
L20519 31008
L20519 30971
L20538 30933
L20556 30914
L20594 30896
L20669 30877
L20706 30858
L20725 30839
L20744 30802
L20744 30764
L20725 30727
L20706 30708
L20669 30689
L20575 30689
L20519 30708
" />
<path d="M20406 30689
L20181 30689
" />
<path d="M20294 31083
L20294 30689
" />
<path d="M20144 31121
L19844 31121
" />
<path d="M19544 31083
L19769 31083
" />
<path d="M19656 31083
L19656 30689
L19694 30746
L19731 30783
L19769 30802
" />
<path d="M19375 31083
L19375 30689
L19225 30689
L19188 30708
L19169 30727
L19150 30764
L19150 30821
L19169 30858
L19188 30877
L19225 30896
L19375 30896
" />
<text x="20275.6" y="32086.6"
transform="scale(-1 1) translate(-40551.181102 0)"
textLength="2322.93" font-size="524.934" lengthAdjust="spacingAndGlyphs"
text-anchor="middle" opacity="0">TEST_1P</text>
<path d="M21437 31674
L21212 31674
" />
<path d="M21325 32067
L21325 31674
" />
<path d="M21081 31861
L20950 31861
" />
<path d="M20894 32067
L21081 32067
L21081 31674
L20894 31674
" />
<path d="M20744 32049
L20688 32067
L20594 32067
L20556 32049
L20538 32030
L20519 31992
L20519 31955
L20538 31917
L20556 31899
L20594 31880
L20669 31861
L20706 31842
L20725 31824
L20744 31786
L20744 31749
L20725 31711
L20706 31692
L20669 31674
L20575 31674
L20519 31692
" />
<path d="M20406 31674
L20181 31674
" />
<path d="M20294 32067
L20294 31674
" />
<path d="M20144 32105
L19844 32105
" />
<path d="M19544 32067
L19769 32067
" />
<path d="M19656 32067
L19656 31674
L19694 31730
L19731 31767
L19769 31786
" />
<path d="M19375 32067
L19375 31674
L19225 31674
L19188 31692
L19169 31711
L19150 31749
L19150 31805
L19169 31842
L19188 31861
L19225 31880
L19375 31880
" />
<text x="21259.8" y="32086.6"
transform="scale(-1 1) translate(-42519.685039 0)"
textLength="2322.93" font-size="524.934" lengthAdjust="spacingAndGlyphs"
text-anchor="middle" opacity="0">TEST_1P</text>
<path d="M22422 31674
L22197 31674
" />
<path d="M22309 32067
L22309 31674
" />
<path d="M22065 31861
L21934 31861
" />
<path d="M21878 32067
L22065 32067
L22065 31674
L21878 31674
" />
<path d="M21728 32049
L21672 32067
L21578 32067
L21541 32049
L21522 32030
L21503 31992
L21503 31955
L21522 31917
L21541 31899
L21578 31880
L21653 31861
L21691 31842
L21709 31824
L21728 31786
L21728 31749
L21709 31711
L21691 31692
L21653 31674
L21559 31674
L21503 31692
" />
<path d="M21391 31674
L21166 31674
" />
<path d="M21278 32067
L21278 31674
" />
<path d="M21128 32105
L20828 32105
" />
<path d="M20528 32067
L20753 32067
" />
<path d="M20641 32067
L20641 31674
L20678 31730
L20716 31767
L20753 31786
" />
<path d="M20359 32067
L20359 31674
L20209 31674
L20172 31692
L20153 31711
L20134 31749
L20134 31805
L20153 31842
L20172 31861
L20209 31880
L20359 31880
" />
<text x="18956.7" y="29921.3"
transform="scale(-1 1) translate(-37913.385827 0)"
textLength="2322.93" font-size="524.934" lengthAdjust="spacingAndGlyphs"
text-anchor="middle" opacity="0">TEST_1P</text>
<path d="M20119 29508
L19894 29508
" />
<path d="M20006 29902
L20006 29508
" />
<path d="M19762 29696
L19631 29696
" />
<path d="M19575 29902
L19762 29902
L19762 29508
L19575 29508
" />
<path d="M19425 29883
L19369 29902
L19275 29902
L19237 29883
L19219 29865
L19200 29827
L19200 29790
L19219 29752
L19237 29733
L19275 29715
L19350 29696
L19387 29677
L19406 29658
L19425 29621
L19425 29583
L19406 29546
L19387 29527
L19350 29508
L19256 29508
L19200 29527
" />
<path d="M19087 29508
L18862 29508
" />
<path d="M18975 29902
L18975 29508
" />
<path d="M18825 29940
L18525 29940
" />
<path d="M18225 29902
L18450 29902
" />
<path d="M18338 29902
L18338 29508
L18375 29565
L18413 29602
L18450 29621
" />
<path d="M18056 29902
L18056 29508
L17906 29508
L17869 29527
L17850 29546
L17831 29583
L17831 29640
L17850 29677
L17869 29696
L17906 29715
L18056 29715
" />
<text x="17440.9" y="29921.3"
transform="scale(-1 1) translate(-34881.889764 0)"
textLength="2322.93" font-size="524.934" lengthAdjust="spacingAndGlyphs"
text-anchor="middle" opacity="0">TEST_1P</text>
<path d="M18603 29508
L18378 29508
" />
<path d="M18490 29902
L18490 29508
" />
<path d="M18247 29696
L18115 29696
" />
<path d="M18059 29902
L18247 29902
L18247 29508
L18059 29508
" />
<path d="M17909 29883
L17853 29902
L17759 29902
L17722 29883
L17703 29865
L17684 29827
L17684 29790
L17703 29752
L17722 29733
L17759 29715
L17834 29696
L17872 29677
L17890 29658
L17909 29621
L17909 29583
L17890 29546
L17872 29527
L17834 29508
L17740 29508
L17684 29527
" />
<path d="M17572 29508
L17347 29508
" />
<path d="M17459 29902
L17459 29508
" />
<path d="M17309 29940
L17009 29940
" />
<path d="M16709 29902
L16934 29902
" />
<path d="M16822 29902
L16822 29508
L16859 29565
L16897 29602
L16934 29621
" />
<path d="M16541 29902
L16541 29508
L16391 29508
L16353 29527
L16334 29546
L16316 29583
L16316 29640
L16334 29677
L16353 29696
L16391 29715
L16541 29715
" />
<g >
</g>
</g>
<g style="fill:#000000; fill-opacity:0.0; 
stroke:#000000; stroke-width:59.0551; stroke-opacity:1; 
stroke-linecap:round; stroke-linejoin:round;">
</g>
<g style="fill:#C2C200; fill-opacity:0.0; 
stroke:#C2C200; stroke-width:59.0551; stroke-opacity:1; 
stroke-linecap:round; stroke-linejoin:round;">
<path d="M16299 29527
L16299 31929
" />
<path d="M31141 29527
L31141 37401
" />
<path d="M18503 32244
L18503 34685
" />
<path d="M16299 31929
L18188 31929
" />
<path d="M18503.9 32244.1 A314.961 314.961 0.0 0 0 18189 31929.1" />
<path d="M18189 35000 A314.961 314.961 0.0 0 0 18503.9 34685" />
<path d="M16299 35000
L18188 35000
" />
<path d="M16299 37401
L16299 35000
" />
<path d="M31141 37401
L16299 37401
" />
<path d="M16299 29527
L31141 29527
" />
<g >
</g>
<g >
</g>
<g >
</g>
<g >
</g>
<g >
</g>
<g >
</g>
<g >
</g>
<g >
</g>
<g >
</g>
<g >
</g>
<g >
</g>
<g >
</g>
<g >
</g>
<g >
</g>
<g >
</g>
<g >
</g>
<g >
</g>
<g >
</g>
<g >
</g>
<g >
</g>
<g >
</g>
<g >
</g>
<g >
</g>
<g >
</g>
<g >
</g>
<g >
</g>
<g >
</g>
<g >
</g>
<g >
</g>
<g >
</g>
<g >
</g>
<g >
</g>
<g >
</g>
<g >
</g>
<g >
</g>
<g >
</g>
<g >
</g>
<g >
</g>
<g >
</g>
<g >
</g>
<g >
</g>
<g >
</g>
<g >
</g>
<g >
</g>
<g >
</g>
<g >
</g>
</g> 
</svg>
