%TF.GenerationSoftware,KiCad,Pcbnew,5.1.9+dfsg1-1~bpo10+1*%
%TF.CreationDate,2021-03-04T17:44:12+01:00*%
%TF.ProjectId,candleLight,63616e64-6c65-44c6-9967-68742e6b6963,R01*%
%TF.SameCoordinates,Original*%
%TF.FileFunction,Soldermask,Bot*%
%TF.FilePolarity,Negative*%
%FSLAX46Y46*%
G04 Gerber Fmt 4.6, Leading zero omitted, Abs format (unit mm)*
G04 Created by KiCad (PCBNEW 5.1.9+dfsg1-1~bpo10+1) date 2021-03-04 17:44:12*
%MOMM*%
%LPD*%
G01*
G04 APERTURE LIST*
%ADD10C,0.100000*%
%ADD11C,0.150000*%
%ADD12C,0.300000*%
%ADD13C,0.400000*%
%ADD14C,0.250000*%
%TA.AperFunction,Profile*%
%ADD15C,0.150000*%
%TD*%
%ADD16C,0.010000*%
%ADD17C,0.990600*%
%ADD18C,1.500000*%
%ADD19C,3.000000*%
%ADD20R,5.080000X1.778000*%
G04 APERTURE END LIST*
D10*
D11*
X177002200Y-180007200D02*
X177002200Y-200007200D01*
X287002200Y-200007200D01*
X287002200Y-180007200D01*
X177002200Y-180007200D01*
D10*
D11*
X10000000Y-10000000D02*
X10000000Y-200007200D01*
X287002200Y-200007200D01*
X287002200Y-10000000D01*
X10000000Y-10000000D01*
D10*
D11*
X200434342Y-195785771D02*
X200434342Y-194285771D01*
X200791485Y-194285771D01*
X201005771Y-194357200D01*
X201148628Y-194500057D01*
X201220057Y-194642914D01*
X201291485Y-194928628D01*
X201291485Y-195142914D01*
X201220057Y-195428628D01*
X201148628Y-195571485D01*
X201005771Y-195714342D01*
X200791485Y-195785771D01*
X200434342Y-195785771D01*
X202577200Y-195785771D02*
X202577200Y-195000057D01*
X202505771Y-194857200D01*
X202362914Y-194785771D01*
X202077200Y-194785771D01*
X201934342Y-194857200D01*
X202577200Y-195714342D02*
X202434342Y-195785771D01*
X202077200Y-195785771D01*
X201934342Y-195714342D01*
X201862914Y-195571485D01*
X201862914Y-195428628D01*
X201934342Y-195285771D01*
X202077200Y-195214342D01*
X202434342Y-195214342D01*
X202577200Y-195142914D01*
X203077200Y-194785771D02*
X203648628Y-194785771D01*
X203291485Y-194285771D02*
X203291485Y-195571485D01*
X203362914Y-195714342D01*
X203505771Y-195785771D01*
X203648628Y-195785771D01*
X204720057Y-195714342D02*
X204577200Y-195785771D01*
X204291485Y-195785771D01*
X204148628Y-195714342D01*
X204077200Y-195571485D01*
X204077200Y-195000057D01*
X204148628Y-194857200D01*
X204291485Y-194785771D01*
X204577200Y-194785771D01*
X204720057Y-194857200D01*
X204791485Y-195000057D01*
X204791485Y-195142914D01*
X204077200Y-195285771D01*
X205434342Y-195642914D02*
X205505771Y-195714342D01*
X205434342Y-195785771D01*
X205362914Y-195714342D01*
X205434342Y-195642914D01*
X205434342Y-195785771D01*
X205434342Y-194857200D02*
X205505771Y-194928628D01*
X205434342Y-195000057D01*
X205362914Y-194928628D01*
X205434342Y-194857200D01*
X205434342Y-195000057D01*
X207220057Y-194428628D02*
X207291485Y-194357200D01*
X207434342Y-194285771D01*
X207791485Y-194285771D01*
X207934342Y-194357200D01*
X208005771Y-194428628D01*
X208077200Y-194571485D01*
X208077200Y-194714342D01*
X208005771Y-194928628D01*
X207148628Y-195785771D01*
X208077200Y-195785771D01*
X209005771Y-194285771D02*
X209148628Y-194285771D01*
X209291485Y-194357200D01*
X209362914Y-194428628D01*
X209434342Y-194571485D01*
X209505771Y-194857200D01*
X209505771Y-195214342D01*
X209434342Y-195500057D01*
X209362914Y-195642914D01*
X209291485Y-195714342D01*
X209148628Y-195785771D01*
X209005771Y-195785771D01*
X208862914Y-195714342D01*
X208791485Y-195642914D01*
X208720057Y-195500057D01*
X208648628Y-195214342D01*
X208648628Y-194857200D01*
X208720057Y-194571485D01*
X208791485Y-194428628D01*
X208862914Y-194357200D01*
X209005771Y-194285771D01*
X210077200Y-194428628D02*
X210148628Y-194357200D01*
X210291485Y-194285771D01*
X210648628Y-194285771D01*
X210791485Y-194357200D01*
X210862914Y-194428628D01*
X210934342Y-194571485D01*
X210934342Y-194714342D01*
X210862914Y-194928628D01*
X210005771Y-195785771D01*
X210934342Y-195785771D01*
X212362914Y-195785771D02*
X211505771Y-195785771D01*
X211934342Y-195785771D02*
X211934342Y-194285771D01*
X211791485Y-194500057D01*
X211648628Y-194642914D01*
X211505771Y-194714342D01*
X213005771Y-195214342D02*
X214148628Y-195214342D01*
X215148628Y-194285771D02*
X215291485Y-194285771D01*
X215434342Y-194357200D01*
X215505771Y-194428628D01*
X215577200Y-194571485D01*
X215648628Y-194857200D01*
X215648628Y-195214342D01*
X215577200Y-195500057D01*
X215505771Y-195642914D01*
X215434342Y-195714342D01*
X215291485Y-195785771D01*
X215148628Y-195785771D01*
X215005771Y-195714342D01*
X214934342Y-195642914D01*
X214862914Y-195500057D01*
X214791485Y-195214342D01*
X214791485Y-194857200D01*
X214862914Y-194571485D01*
X214934342Y-194428628D01*
X215005771Y-194357200D01*
X215148628Y-194285771D01*
X216148628Y-194285771D02*
X217077200Y-194285771D01*
X216577200Y-194857200D01*
X216791485Y-194857200D01*
X216934342Y-194928628D01*
X217005771Y-195000057D01*
X217077200Y-195142914D01*
X217077200Y-195500057D01*
X217005771Y-195642914D01*
X216934342Y-195714342D01*
X216791485Y-195785771D01*
X216362914Y-195785771D01*
X216220057Y-195714342D01*
X216148628Y-195642914D01*
X217720057Y-195214342D02*
X218862914Y-195214342D01*
X219862914Y-194285771D02*
X220005771Y-194285771D01*
X220148628Y-194357200D01*
X220220057Y-194428628D01*
X220291485Y-194571485D01*
X220362914Y-194857200D01*
X220362914Y-195214342D01*
X220291485Y-195500057D01*
X220220057Y-195642914D01*
X220148628Y-195714342D01*
X220005771Y-195785771D01*
X219862914Y-195785771D01*
X219720057Y-195714342D01*
X219648628Y-195642914D01*
X219577200Y-195500057D01*
X219505771Y-195214342D01*
X219505771Y-194857200D01*
X219577200Y-194571485D01*
X219648628Y-194428628D01*
X219720057Y-194357200D01*
X219862914Y-194285771D01*
X220862914Y-194285771D02*
X221791485Y-194285771D01*
X221291485Y-194857200D01*
X221505771Y-194857200D01*
X221648628Y-194928628D01*
X221720057Y-195000057D01*
X221791485Y-195142914D01*
X221791485Y-195500057D01*
X221720057Y-195642914D01*
X221648628Y-195714342D01*
X221505771Y-195785771D01*
X221077200Y-195785771D01*
X220934342Y-195714342D01*
X220862914Y-195642914D01*
D10*
D11*
X178434342Y-188385771D02*
X178434342Y-186885771D01*
X178934342Y-187385771D02*
X179505771Y-187385771D01*
X179148628Y-186885771D02*
X179148628Y-188171485D01*
X179220057Y-188314342D01*
X179362914Y-188385771D01*
X179505771Y-188385771D01*
X180577200Y-188314342D02*
X180434342Y-188385771D01*
X180148628Y-188385771D01*
X180005771Y-188314342D01*
X179934342Y-188171485D01*
X179934342Y-187600057D01*
X180005771Y-187457200D01*
X180148628Y-187385771D01*
X180434342Y-187385771D01*
X180577200Y-187457200D01*
X180648628Y-187600057D01*
X180648628Y-187742914D01*
X179934342Y-187885771D01*
X181291485Y-188385771D02*
X181291485Y-187385771D01*
X181291485Y-187528628D02*
X181362914Y-187457200D01*
X181505771Y-187385771D01*
X181720057Y-187385771D01*
X181862914Y-187457200D01*
X181934342Y-187600057D01*
X181934342Y-188385771D01*
X181934342Y-187600057D02*
X182005771Y-187457200D01*
X182148628Y-187385771D01*
X182362914Y-187385771D01*
X182505771Y-187457200D01*
X182577200Y-187600057D01*
X182577200Y-188385771D01*
X183291485Y-188242914D02*
X183362914Y-188314342D01*
X183291485Y-188385771D01*
X183220057Y-188314342D01*
X183291485Y-188242914D01*
X183291485Y-188385771D01*
X183291485Y-187457200D02*
X183362914Y-187528628D01*
X183291485Y-187600057D01*
X183220057Y-187528628D01*
X183291485Y-187457200D01*
X183291485Y-187600057D01*
X185791485Y-188314342D02*
X185648628Y-188385771D01*
X185362914Y-188385771D01*
X185220057Y-188314342D01*
X185148628Y-188242914D01*
X185077200Y-188100057D01*
X185077200Y-187671485D01*
X185148628Y-187528628D01*
X185220057Y-187457200D01*
X185362914Y-187385771D01*
X185648628Y-187385771D01*
X185791485Y-187457200D01*
X187077200Y-188385771D02*
X187077200Y-187600057D01*
X187005771Y-187457200D01*
X186862914Y-187385771D01*
X186577200Y-187385771D01*
X186434342Y-187457200D01*
X187077200Y-188314342D02*
X186934342Y-188385771D01*
X186577200Y-188385771D01*
X186434342Y-188314342D01*
X186362914Y-188171485D01*
X186362914Y-188028628D01*
X186434342Y-187885771D01*
X186577200Y-187814342D01*
X186934342Y-187814342D01*
X187077200Y-187742914D01*
X187791485Y-187385771D02*
X187791485Y-188385771D01*
X187791485Y-187528628D02*
X187862914Y-187457200D01*
X188005771Y-187385771D01*
X188220057Y-187385771D01*
X188362914Y-187457200D01*
X188434342Y-187600057D01*
X188434342Y-188385771D01*
X189791485Y-188385771D02*
X189791485Y-186885771D01*
X189791485Y-188314342D02*
X189648628Y-188385771D01*
X189362914Y-188385771D01*
X189220057Y-188314342D01*
X189148628Y-188242914D01*
X189077200Y-188100057D01*
X189077200Y-187671485D01*
X189148628Y-187528628D01*
X189220057Y-187457200D01*
X189362914Y-187385771D01*
X189648628Y-187385771D01*
X189791485Y-187457200D01*
X190720057Y-188385771D02*
X190577200Y-188314342D01*
X190505771Y-188171485D01*
X190505771Y-186885771D01*
X191862914Y-188314342D02*
X191720057Y-188385771D01*
X191434342Y-188385771D01*
X191291485Y-188314342D01*
X191220057Y-188171485D01*
X191220057Y-187600057D01*
X191291485Y-187457200D01*
X191434342Y-187385771D01*
X191720057Y-187385771D01*
X191862914Y-187457200D01*
X191934342Y-187600057D01*
X191934342Y-187742914D01*
X191220057Y-187885771D01*
X192791485Y-188385771D02*
X192648628Y-188314342D01*
X192577200Y-188171485D01*
X192577200Y-186885771D01*
X193362914Y-188385771D02*
X193362914Y-187385771D01*
X193362914Y-186885771D02*
X193291485Y-186957200D01*
X193362914Y-187028628D01*
X193434342Y-186957200D01*
X193362914Y-186885771D01*
X193362914Y-187028628D01*
X194720057Y-187385771D02*
X194720057Y-188600057D01*
X194648628Y-188742914D01*
X194577200Y-188814342D01*
X194434342Y-188885771D01*
X194220057Y-188885771D01*
X194077200Y-188814342D01*
X194720057Y-188314342D02*
X194577200Y-188385771D01*
X194291485Y-188385771D01*
X194148628Y-188314342D01*
X194077200Y-188242914D01*
X194005771Y-188100057D01*
X194005771Y-187671485D01*
X194077200Y-187528628D01*
X194148628Y-187457200D01*
X194291485Y-187385771D01*
X194577200Y-187385771D01*
X194720057Y-187457200D01*
X195434342Y-188385771D02*
X195434342Y-186885771D01*
X196077200Y-188385771D02*
X196077200Y-187600057D01*
X196005771Y-187457200D01*
X195862914Y-187385771D01*
X195648628Y-187385771D01*
X195505771Y-187457200D01*
X195434342Y-187528628D01*
X196577200Y-187385771D02*
X197148628Y-187385771D01*
X196791485Y-186885771D02*
X196791485Y-188171485D01*
X196862914Y-188314342D01*
X197005771Y-188385771D01*
X197148628Y-188385771D01*
X197648628Y-187814342D02*
X198791485Y-187814342D01*
X199505771Y-188385771D02*
X199505771Y-186885771D01*
X200077200Y-186885771D01*
X200220057Y-186957200D01*
X200291485Y-187028628D01*
X200362914Y-187171485D01*
X200362914Y-187385771D01*
X200291485Y-187528628D01*
X200220057Y-187600057D01*
X200077200Y-187671485D01*
X199505771Y-187671485D01*
X201291485Y-186885771D02*
X201434342Y-186885771D01*
X201577200Y-186957200D01*
X201648628Y-187028628D01*
X201720057Y-187171485D01*
X201791485Y-187457200D01*
X201791485Y-187814342D01*
X201720057Y-188100057D01*
X201648628Y-188242914D01*
X201577200Y-188314342D01*
X201434342Y-188385771D01*
X201291485Y-188385771D01*
X201148628Y-188314342D01*
X201077200Y-188242914D01*
X201005771Y-188100057D01*
X200934342Y-187814342D01*
X200934342Y-187457200D01*
X201005771Y-187171485D01*
X201077200Y-187028628D01*
X201148628Y-186957200D01*
X201291485Y-186885771D01*
X203220057Y-188385771D02*
X202362914Y-188385771D01*
X202791485Y-188385771D02*
X202791485Y-186885771D01*
X202648628Y-187100057D01*
X202505771Y-187242914D01*
X202362914Y-187314342D01*
X203862914Y-187814342D02*
X205005771Y-187814342D01*
X206577200Y-188385771D02*
X206077200Y-187671485D01*
X205720057Y-188385771D02*
X205720057Y-186885771D01*
X206291485Y-186885771D01*
X206434342Y-186957200D01*
X206505771Y-187028628D01*
X206577200Y-187171485D01*
X206577200Y-187385771D01*
X206505771Y-187528628D01*
X206434342Y-187600057D01*
X206291485Y-187671485D01*
X205720057Y-187671485D01*
X207505771Y-186885771D02*
X207648628Y-186885771D01*
X207791485Y-186957200D01*
X207862914Y-187028628D01*
X207934342Y-187171485D01*
X208005771Y-187457200D01*
X208005771Y-187814342D01*
X207934342Y-188100057D01*
X207862914Y-188242914D01*
X207791485Y-188314342D01*
X207648628Y-188385771D01*
X207505771Y-188385771D01*
X207362914Y-188314342D01*
X207291485Y-188242914D01*
X207220057Y-188100057D01*
X207148628Y-187814342D01*
X207148628Y-187457200D01*
X207220057Y-187171485D01*
X207291485Y-187028628D01*
X207362914Y-186957200D01*
X207505771Y-186885771D01*
X209434342Y-188385771D02*
X208577200Y-188385771D01*
X209005771Y-188385771D02*
X209005771Y-186885771D01*
X208862914Y-187100057D01*
X208720057Y-187242914D01*
X208577200Y-187314342D01*
X210077200Y-187814342D02*
X211220057Y-187814342D01*
X212434342Y-187600057D02*
X212648628Y-187671485D01*
X212720057Y-187742914D01*
X212791485Y-187885771D01*
X212791485Y-188100057D01*
X212720057Y-188242914D01*
X212648628Y-188314342D01*
X212505771Y-188385771D01*
X211934342Y-188385771D01*
X211934342Y-186885771D01*
X212434342Y-186885771D01*
X212577200Y-186957200D01*
X212648628Y-187028628D01*
X212720057Y-187171485D01*
X212720057Y-187314342D01*
X212648628Y-187457200D01*
X212577200Y-187528628D01*
X212434342Y-187600057D01*
X211934342Y-187600057D01*
X213720057Y-186885771D02*
X213862914Y-186885771D01*
X214005771Y-186957200D01*
X214077200Y-187028628D01*
X214148628Y-187171485D01*
X214220057Y-187457200D01*
X214220057Y-187814342D01*
X214148628Y-188100057D01*
X214077200Y-188242914D01*
X214005771Y-188314342D01*
X213862914Y-188385771D01*
X213720057Y-188385771D01*
X213577200Y-188314342D01*
X213505771Y-188242914D01*
X213434342Y-188100057D01*
X213362914Y-187814342D01*
X213362914Y-187457200D01*
X213434342Y-187171485D01*
X213505771Y-187028628D01*
X213577200Y-186957200D01*
X213720057Y-186885771D01*
X215648628Y-188385771D02*
X214791485Y-188385771D01*
X215220057Y-188385771D02*
X215220057Y-186885771D01*
X215077200Y-187100057D01*
X214934342Y-187242914D01*
X214791485Y-187314342D01*
X216291485Y-187814342D02*
X217434342Y-187814342D01*
X219005771Y-188242914D02*
X218934342Y-188314342D01*
X218720057Y-188385771D01*
X218577200Y-188385771D01*
X218362914Y-188314342D01*
X218220057Y-188171485D01*
X218148628Y-188028628D01*
X218077200Y-187742914D01*
X218077200Y-187528628D01*
X218148628Y-187242914D01*
X218220057Y-187100057D01*
X218362914Y-186957200D01*
X218577200Y-186885771D01*
X218720057Y-186885771D01*
X218934342Y-186957200D01*
X219005771Y-187028628D01*
X219934342Y-186885771D02*
X220077200Y-186885771D01*
X220220057Y-186957200D01*
X220291485Y-187028628D01*
X220362914Y-187171485D01*
X220434342Y-187457200D01*
X220434342Y-187814342D01*
X220362914Y-188100057D01*
X220291485Y-188242914D01*
X220220057Y-188314342D01*
X220077200Y-188385771D01*
X219934342Y-188385771D01*
X219791485Y-188314342D01*
X219720057Y-188242914D01*
X219648628Y-188100057D01*
X219577200Y-187814342D01*
X219577200Y-187457200D01*
X219648628Y-187171485D01*
X219720057Y-187028628D01*
X219791485Y-186957200D01*
X219934342Y-186885771D01*
X221362914Y-186885771D02*
X221505771Y-186885771D01*
X221648628Y-186957200D01*
X221720057Y-187028628D01*
X221791485Y-187171485D01*
X221862914Y-187457200D01*
X221862914Y-187814342D01*
X221791485Y-188100057D01*
X221720057Y-188242914D01*
X221648628Y-188314342D01*
X221505771Y-188385771D01*
X221362914Y-188385771D01*
X221220057Y-188314342D01*
X221148628Y-188242914D01*
X221077200Y-188100057D01*
X221005771Y-187814342D01*
X221005771Y-187457200D01*
X221077200Y-187171485D01*
X221148628Y-187028628D01*
X221220057Y-186957200D01*
X221362914Y-186885771D01*
D10*
D11*
X177002200Y-196507200D02*
X287002200Y-196507200D01*
D10*
D11*
X178434342Y-198585771D02*
X178434342Y-197085771D01*
X179291485Y-198585771D02*
X178648628Y-197728628D01*
X179291485Y-197085771D02*
X178434342Y-197942914D01*
X179934342Y-198585771D02*
X179934342Y-197585771D01*
X179934342Y-197085771D02*
X179862914Y-197157200D01*
X179934342Y-197228628D01*
X180005771Y-197157200D01*
X179934342Y-197085771D01*
X179934342Y-197228628D01*
X181505771Y-198442914D02*
X181434342Y-198514342D01*
X181220057Y-198585771D01*
X181077200Y-198585771D01*
X180862914Y-198514342D01*
X180720057Y-198371485D01*
X180648628Y-198228628D01*
X180577200Y-197942914D01*
X180577200Y-197728628D01*
X180648628Y-197442914D01*
X180720057Y-197300057D01*
X180862914Y-197157200D01*
X181077200Y-197085771D01*
X181220057Y-197085771D01*
X181434342Y-197157200D01*
X181505771Y-197228628D01*
X182791485Y-198585771D02*
X182791485Y-197800057D01*
X182720057Y-197657200D01*
X182577200Y-197585771D01*
X182291485Y-197585771D01*
X182148628Y-197657200D01*
X182791485Y-198514342D02*
X182648628Y-198585771D01*
X182291485Y-198585771D01*
X182148628Y-198514342D01*
X182077200Y-198371485D01*
X182077200Y-198228628D01*
X182148628Y-198085771D01*
X182291485Y-198014342D01*
X182648628Y-198014342D01*
X182791485Y-197942914D01*
X184148628Y-198585771D02*
X184148628Y-197085771D01*
X184148628Y-198514342D02*
X184005771Y-198585771D01*
X183720057Y-198585771D01*
X183577200Y-198514342D01*
X183505771Y-198442914D01*
X183434342Y-198300057D01*
X183434342Y-197871485D01*
X183505771Y-197728628D01*
X183577200Y-197657200D01*
X183720057Y-197585771D01*
X184005771Y-197585771D01*
X184148628Y-197657200D01*
X186005771Y-197800057D02*
X186505771Y-197800057D01*
X186720057Y-198585771D02*
X186005771Y-198585771D01*
X186005771Y-197085771D01*
X186720057Y-197085771D01*
X187362914Y-198442914D02*
X187434342Y-198514342D01*
X187362914Y-198585771D01*
X187291485Y-198514342D01*
X187362914Y-198442914D01*
X187362914Y-198585771D01*
X188077200Y-198585771D02*
X188077200Y-197085771D01*
X188434342Y-197085771D01*
X188648628Y-197157200D01*
X188791485Y-197300057D01*
X188862914Y-197442914D01*
X188934342Y-197728628D01*
X188934342Y-197942914D01*
X188862914Y-198228628D01*
X188791485Y-198371485D01*
X188648628Y-198514342D01*
X188434342Y-198585771D01*
X188077200Y-198585771D01*
X189577200Y-198442914D02*
X189648628Y-198514342D01*
X189577200Y-198585771D01*
X189505771Y-198514342D01*
X189577200Y-198442914D01*
X189577200Y-198585771D01*
X190220057Y-198157200D02*
X190934342Y-198157200D01*
X190077200Y-198585771D02*
X190577200Y-197085771D01*
X191077200Y-198585771D01*
X191577200Y-198442914D02*
X191648628Y-198514342D01*
X191577200Y-198585771D01*
X191505771Y-198514342D01*
X191577200Y-198442914D01*
X191577200Y-198585771D01*
D10*
D11*
X177002200Y-193507200D02*
X287002200Y-193507200D01*
D10*
D12*
X266411485Y-195785771D02*
X265911485Y-195071485D01*
X265554342Y-195785771D02*
X265554342Y-194285771D01*
X266125771Y-194285771D01*
X266268628Y-194357200D01*
X266340057Y-194428628D01*
X266411485Y-194571485D01*
X266411485Y-194785771D01*
X266340057Y-194928628D01*
X266268628Y-195000057D01*
X266125771Y-195071485D01*
X265554342Y-195071485D01*
X267625771Y-195714342D02*
X267482914Y-195785771D01*
X267197200Y-195785771D01*
X267054342Y-195714342D01*
X266982914Y-195571485D01*
X266982914Y-195000057D01*
X267054342Y-194857200D01*
X267197200Y-194785771D01*
X267482914Y-194785771D01*
X267625771Y-194857200D01*
X267697200Y-195000057D01*
X267697200Y-195142914D01*
X266982914Y-195285771D01*
X268197200Y-194785771D02*
X268554342Y-195785771D01*
X268911485Y-194785771D01*
X269482914Y-195642914D02*
X269554342Y-195714342D01*
X269482914Y-195785771D01*
X269411485Y-195714342D01*
X269482914Y-195642914D01*
X269482914Y-195785771D01*
X269482914Y-194857200D02*
X269554342Y-194928628D01*
X269482914Y-195000057D01*
X269411485Y-194928628D01*
X269482914Y-194857200D01*
X269482914Y-195000057D01*
X272197200Y-195785771D02*
X271697200Y-195071485D01*
X271340057Y-195785771D02*
X271340057Y-194285771D01*
X271911485Y-194285771D01*
X272054342Y-194357200D01*
X272125771Y-194428628D01*
X272197200Y-194571485D01*
X272197200Y-194785771D01*
X272125771Y-194928628D01*
X272054342Y-195000057D01*
X271911485Y-195071485D01*
X271340057Y-195071485D01*
X273125771Y-194285771D02*
X273268628Y-194285771D01*
X273411485Y-194357200D01*
X273482914Y-194428628D01*
X273554342Y-194571485D01*
X273625771Y-194857200D01*
X273625771Y-195214342D01*
X273554342Y-195500057D01*
X273482914Y-195642914D01*
X273411485Y-195714342D01*
X273268628Y-195785771D01*
X273125771Y-195785771D01*
X272982914Y-195714342D01*
X272911485Y-195642914D01*
X272840057Y-195500057D01*
X272768628Y-195214342D01*
X272768628Y-194857200D01*
X272840057Y-194571485D01*
X272911485Y-194428628D01*
X272982914Y-194357200D01*
X273125771Y-194285771D01*
X275054342Y-195785771D02*
X274197200Y-195785771D01*
X274625771Y-195785771D02*
X274625771Y-194285771D01*
X274482914Y-194500057D01*
X274340057Y-194642914D01*
X274197200Y-194714342D01*
D10*
D11*
X178362914Y-195714342D02*
X178577200Y-195785771D01*
X178934342Y-195785771D01*
X179077200Y-195714342D01*
X179148628Y-195642914D01*
X179220057Y-195500057D01*
X179220057Y-195357200D01*
X179148628Y-195214342D01*
X179077200Y-195142914D01*
X178934342Y-195071485D01*
X178648628Y-195000057D01*
X178505771Y-194928628D01*
X178434342Y-194857200D01*
X178362914Y-194714342D01*
X178362914Y-194571485D01*
X178434342Y-194428628D01*
X178505771Y-194357200D01*
X178648628Y-194285771D01*
X179005771Y-194285771D01*
X179220057Y-194357200D01*
X179862914Y-195785771D02*
X179862914Y-194785771D01*
X179862914Y-194285771D02*
X179791485Y-194357200D01*
X179862914Y-194428628D01*
X179934342Y-194357200D01*
X179862914Y-194285771D01*
X179862914Y-194428628D01*
X180434342Y-194785771D02*
X181220057Y-194785771D01*
X180434342Y-195785771D01*
X181220057Y-195785771D01*
X182362914Y-195714342D02*
X182220057Y-195785771D01*
X181934342Y-195785771D01*
X181791485Y-195714342D01*
X181720057Y-195571485D01*
X181720057Y-195000057D01*
X181791485Y-194857200D01*
X181934342Y-194785771D01*
X182220057Y-194785771D01*
X182362914Y-194857200D01*
X182434342Y-195000057D01*
X182434342Y-195142914D01*
X181720057Y-195285771D01*
X183077200Y-195642914D02*
X183148628Y-195714342D01*
X183077200Y-195785771D01*
X183005771Y-195714342D01*
X183077200Y-195642914D01*
X183077200Y-195785771D01*
X183077200Y-194857200D02*
X183148628Y-194928628D01*
X183077200Y-195000057D01*
X183005771Y-194928628D01*
X183077200Y-194857200D01*
X183077200Y-195000057D01*
X184862914Y-195357200D02*
X185577200Y-195357200D01*
X184720057Y-195785771D02*
X185220057Y-194285771D01*
X185720057Y-195785771D01*
X186862914Y-194785771D02*
X186862914Y-195785771D01*
X186505771Y-194214342D02*
X186148628Y-195285771D01*
X187077200Y-195285771D01*
D10*
D11*
X265362914Y-198514342D02*
X265577200Y-198585771D01*
X265934342Y-198585771D01*
X266077200Y-198514342D01*
X266148628Y-198442914D01*
X266220057Y-198300057D01*
X266220057Y-198157200D01*
X266148628Y-198014342D01*
X266077200Y-197942914D01*
X265934342Y-197871485D01*
X265648628Y-197800057D01*
X265505771Y-197728628D01*
X265434342Y-197657200D01*
X265362914Y-197514342D01*
X265362914Y-197371485D01*
X265434342Y-197228628D01*
X265505771Y-197157200D01*
X265648628Y-197085771D01*
X266005771Y-197085771D01*
X266220057Y-197157200D01*
X266862914Y-198585771D02*
X266862914Y-197085771D01*
X267505771Y-198585771D02*
X267505771Y-197800057D01*
X267434342Y-197657200D01*
X267291485Y-197585771D01*
X267077200Y-197585771D01*
X266934342Y-197657200D01*
X266862914Y-197728628D01*
X268791485Y-198514342D02*
X268648628Y-198585771D01*
X268362914Y-198585771D01*
X268220057Y-198514342D01*
X268148628Y-198371485D01*
X268148628Y-197800057D01*
X268220057Y-197657200D01*
X268362914Y-197585771D01*
X268648628Y-197585771D01*
X268791485Y-197657200D01*
X268862914Y-197800057D01*
X268862914Y-197942914D01*
X268148628Y-198085771D01*
X270077200Y-198514342D02*
X269934342Y-198585771D01*
X269648628Y-198585771D01*
X269505771Y-198514342D01*
X269434342Y-198371485D01*
X269434342Y-197800057D01*
X269505771Y-197657200D01*
X269648628Y-197585771D01*
X269934342Y-197585771D01*
X270077200Y-197657200D01*
X270148628Y-197800057D01*
X270148628Y-197942914D01*
X269434342Y-198085771D01*
X270577200Y-197585771D02*
X271148628Y-197585771D01*
X270791485Y-197085771D02*
X270791485Y-198371485D01*
X270862914Y-198514342D01*
X271005771Y-198585771D01*
X271148628Y-198585771D01*
X273577200Y-198585771D02*
X272720057Y-198585771D01*
X273148628Y-198585771D02*
X273148628Y-197085771D01*
X273005771Y-197300057D01*
X272862914Y-197442914D01*
X272720057Y-197514342D01*
X275291485Y-197014342D02*
X274005771Y-198942914D01*
X276577200Y-198585771D02*
X275720057Y-198585771D01*
X276148628Y-198585771D02*
X276148628Y-197085771D01*
X276005771Y-197300057D01*
X275862914Y-197442914D01*
X275720057Y-197514342D01*
D10*
D11*
X177002200Y-189507200D02*
X287002200Y-189507200D01*
D10*
D13*
X178452676Y-190211961D02*
X179595533Y-190211961D01*
X179024104Y-192211961D02*
X179024104Y-190211961D01*
X180262200Y-192211961D02*
X180262200Y-190878628D01*
X180262200Y-190211961D02*
X180166961Y-190307200D01*
X180262200Y-190402438D01*
X180357438Y-190307200D01*
X180262200Y-190211961D01*
X180262200Y-190402438D01*
X180928866Y-190878628D02*
X181690771Y-190878628D01*
X181214580Y-190211961D02*
X181214580Y-191926247D01*
X181309819Y-192116723D01*
X181500295Y-192211961D01*
X181690771Y-192211961D01*
X182643152Y-192211961D02*
X182452676Y-192116723D01*
X182357438Y-191926247D01*
X182357438Y-190211961D01*
X184166961Y-192116723D02*
X183976485Y-192211961D01*
X183595533Y-192211961D01*
X183405057Y-192116723D01*
X183309819Y-191926247D01*
X183309819Y-191164342D01*
X183405057Y-190973866D01*
X183595533Y-190878628D01*
X183976485Y-190878628D01*
X184166961Y-190973866D01*
X184262200Y-191164342D01*
X184262200Y-191354819D01*
X183309819Y-191545295D01*
X185119342Y-192021485D02*
X185214580Y-192116723D01*
X185119342Y-192211961D01*
X185024104Y-192116723D01*
X185119342Y-192021485D01*
X185119342Y-192211961D01*
X185119342Y-190973866D02*
X185214580Y-191069104D01*
X185119342Y-191164342D01*
X185024104Y-191069104D01*
X185119342Y-190973866D01*
X185119342Y-191164342D01*
X188452676Y-192116723D02*
X188262200Y-192211961D01*
X187881247Y-192211961D01*
X187690771Y-192116723D01*
X187595533Y-192021485D01*
X187500295Y-191831009D01*
X187500295Y-191259580D01*
X187595533Y-191069104D01*
X187690771Y-190973866D01*
X187881247Y-190878628D01*
X188262200Y-190878628D01*
X188452676Y-190973866D01*
X190166961Y-192211961D02*
X190166961Y-191164342D01*
X190071723Y-190973866D01*
X189881247Y-190878628D01*
X189500295Y-190878628D01*
X189309819Y-190973866D01*
X190166961Y-192116723D02*
X189976485Y-192211961D01*
X189500295Y-192211961D01*
X189309819Y-192116723D01*
X189214580Y-191926247D01*
X189214580Y-191735771D01*
X189309819Y-191545295D01*
X189500295Y-191450057D01*
X189976485Y-191450057D01*
X190166961Y-191354819D01*
X191119342Y-190878628D02*
X191119342Y-192211961D01*
X191119342Y-191069104D02*
X191214580Y-190973866D01*
X191405057Y-190878628D01*
X191690771Y-190878628D01*
X191881247Y-190973866D01*
X191976485Y-191164342D01*
X191976485Y-192211961D01*
X193786009Y-192211961D02*
X193786009Y-190211961D01*
X193786009Y-192116723D02*
X193595533Y-192211961D01*
X193214580Y-192211961D01*
X193024104Y-192116723D01*
X192928866Y-192021485D01*
X192833628Y-191831009D01*
X192833628Y-191259580D01*
X192928866Y-191069104D01*
X193024104Y-190973866D01*
X193214580Y-190878628D01*
X193595533Y-190878628D01*
X193786009Y-190973866D01*
X195024104Y-192211961D02*
X194833628Y-192116723D01*
X194738390Y-191926247D01*
X194738390Y-190211961D01*
X196547914Y-192116723D02*
X196357438Y-192211961D01*
X195976485Y-192211961D01*
X195786009Y-192116723D01*
X195690771Y-191926247D01*
X195690771Y-191164342D01*
X195786009Y-190973866D01*
X195976485Y-190878628D01*
X196357438Y-190878628D01*
X196547914Y-190973866D01*
X196643152Y-191164342D01*
X196643152Y-191354819D01*
X195690771Y-191545295D01*
X198452676Y-192211961D02*
X197500295Y-192211961D01*
X197500295Y-190211961D01*
X199119342Y-192211961D02*
X199119342Y-190878628D01*
X199119342Y-190211961D02*
X199024104Y-190307200D01*
X199119342Y-190402438D01*
X199214580Y-190307200D01*
X199119342Y-190211961D01*
X199119342Y-190402438D01*
X200928866Y-190878628D02*
X200928866Y-192497676D01*
X200833628Y-192688152D01*
X200738390Y-192783390D01*
X200547914Y-192878628D01*
X200262200Y-192878628D01*
X200071723Y-192783390D01*
X200928866Y-192116723D02*
X200738390Y-192211961D01*
X200357438Y-192211961D01*
X200166961Y-192116723D01*
X200071723Y-192021485D01*
X199976485Y-191831009D01*
X199976485Y-191259580D01*
X200071723Y-191069104D01*
X200166961Y-190973866D01*
X200357438Y-190878628D01*
X200738390Y-190878628D01*
X200928866Y-190973866D01*
X201881247Y-192211961D02*
X201881247Y-190211961D01*
X202738390Y-192211961D02*
X202738390Y-191164342D01*
X202643152Y-190973866D01*
X202452676Y-190878628D01*
X202166961Y-190878628D01*
X201976485Y-190973866D01*
X201881247Y-191069104D01*
X203405057Y-190878628D02*
X204166961Y-190878628D01*
X203690771Y-190211961D02*
X203690771Y-191926247D01*
X203786009Y-192116723D01*
X203976485Y-192211961D01*
X204166961Y-192211961D01*
D10*
D11*
X177002200Y-183507200D02*
X287002200Y-183507200D01*
D10*
D11*
X178934342Y-184900057D02*
X178434342Y-184900057D01*
X178434342Y-185685771D02*
X178434342Y-184185771D01*
X179148628Y-184185771D01*
X180362914Y-184685771D02*
X180362914Y-185685771D01*
X179720057Y-184685771D02*
X179720057Y-185471485D01*
X179791485Y-185614342D01*
X179934342Y-185685771D01*
X180148628Y-185685771D01*
X180291485Y-185614342D01*
X180362914Y-185542914D01*
X181077200Y-185685771D02*
X181077200Y-184685771D01*
X181077200Y-184971485D02*
X181148628Y-184828628D01*
X181220057Y-184757200D01*
X181362914Y-184685771D01*
X181505771Y-184685771D01*
X181791485Y-184685771D02*
X182362914Y-184685771D01*
X182005771Y-184185771D02*
X182005771Y-185471485D01*
X182077200Y-185614342D01*
X182220057Y-185685771D01*
X182362914Y-185685771D01*
X182862914Y-185685771D02*
X182862914Y-184185771D01*
X183505771Y-185685771D02*
X183505771Y-184900057D01*
X183434342Y-184757200D01*
X183291485Y-184685771D01*
X183077200Y-184685771D01*
X182934342Y-184757200D01*
X182862914Y-184828628D01*
X184791485Y-185614342D02*
X184648628Y-185685771D01*
X184362914Y-185685771D01*
X184220057Y-185614342D01*
X184148628Y-185471485D01*
X184148628Y-184900057D01*
X184220057Y-184757200D01*
X184362914Y-184685771D01*
X184648628Y-184685771D01*
X184791485Y-184757200D01*
X184862914Y-184900057D01*
X184862914Y-185042914D01*
X184148628Y-185185771D01*
X185505771Y-185685771D02*
X185505771Y-184685771D01*
X185505771Y-184971485D02*
X185577200Y-184828628D01*
X185648628Y-184757200D01*
X185791485Y-184685771D01*
X185934342Y-184685771D01*
X187505771Y-185614342D02*
X187720057Y-185685771D01*
X188077200Y-185685771D01*
X188220057Y-185614342D01*
X188291485Y-185542914D01*
X188362914Y-185400057D01*
X188362914Y-185257200D01*
X188291485Y-185114342D01*
X188220057Y-185042914D01*
X188077200Y-184971485D01*
X187791485Y-184900057D01*
X187648628Y-184828628D01*
X187577200Y-184757200D01*
X187505771Y-184614342D01*
X187505771Y-184471485D01*
X187577200Y-184328628D01*
X187648628Y-184257200D01*
X187791485Y-184185771D01*
X188148628Y-184185771D01*
X188362914Y-184257200D01*
X189005771Y-184685771D02*
X189005771Y-186185771D01*
X189005771Y-184757200D02*
X189148628Y-184685771D01*
X189434342Y-184685771D01*
X189577200Y-184757200D01*
X189648628Y-184828628D01*
X189720057Y-184971485D01*
X189720057Y-185400057D01*
X189648628Y-185542914D01*
X189577200Y-185614342D01*
X189434342Y-185685771D01*
X189148628Y-185685771D01*
X189005771Y-185614342D01*
X190934342Y-185614342D02*
X190791485Y-185685771D01*
X190505771Y-185685771D01*
X190362914Y-185614342D01*
X190291485Y-185471485D01*
X190291485Y-184900057D01*
X190362914Y-184757200D01*
X190505771Y-184685771D01*
X190791485Y-184685771D01*
X190934342Y-184757200D01*
X191005771Y-184900057D01*
X191005771Y-185042914D01*
X190291485Y-185185771D01*
X192291485Y-185614342D02*
X192148628Y-185685771D01*
X191862914Y-185685771D01*
X191720057Y-185614342D01*
X191648628Y-185542914D01*
X191577200Y-185400057D01*
X191577200Y-184971485D01*
X191648628Y-184828628D01*
X191720057Y-184757200D01*
X191862914Y-184685771D01*
X192148628Y-184685771D01*
X192291485Y-184757200D01*
X192934342Y-185685771D02*
X192934342Y-184685771D01*
X192934342Y-184185771D02*
X192862914Y-184257200D01*
X192934342Y-184328628D01*
X193005771Y-184257200D01*
X192934342Y-184185771D01*
X192934342Y-184328628D01*
X193434342Y-184685771D02*
X194005771Y-184685771D01*
X193648628Y-185685771D02*
X193648628Y-184400057D01*
X193720057Y-184257200D01*
X193862914Y-184185771D01*
X194005771Y-184185771D01*
X194505771Y-185685771D02*
X194505771Y-184685771D01*
X194505771Y-184185771D02*
X194434342Y-184257200D01*
X194505771Y-184328628D01*
X194577200Y-184257200D01*
X194505771Y-184185771D01*
X194505771Y-184328628D01*
X195862914Y-185614342D02*
X195720057Y-185685771D01*
X195434342Y-185685771D01*
X195291485Y-185614342D01*
X195220057Y-185542914D01*
X195148628Y-185400057D01*
X195148628Y-184971485D01*
X195220057Y-184828628D01*
X195291485Y-184757200D01*
X195434342Y-184685771D01*
X195720057Y-184685771D01*
X195862914Y-184757200D01*
X197148628Y-185685771D02*
X197148628Y-184900057D01*
X197077200Y-184757200D01*
X196934342Y-184685771D01*
X196648628Y-184685771D01*
X196505771Y-184757200D01*
X197148628Y-185614342D02*
X197005771Y-185685771D01*
X196648628Y-185685771D01*
X196505771Y-185614342D01*
X196434342Y-185471485D01*
X196434342Y-185328628D01*
X196505771Y-185185771D01*
X196648628Y-185114342D01*
X197005771Y-185114342D01*
X197148628Y-185042914D01*
X197648628Y-184685771D02*
X198220057Y-184685771D01*
X197862914Y-184185771D02*
X197862914Y-185471485D01*
X197934342Y-185614342D01*
X198077200Y-185685771D01*
X198220057Y-185685771D01*
X198720057Y-185685771D02*
X198720057Y-184685771D01*
X198720057Y-184185771D02*
X198648628Y-184257200D01*
X198720057Y-184328628D01*
X198791485Y-184257200D01*
X198720057Y-184185771D01*
X198720057Y-184328628D01*
X199648628Y-185685771D02*
X199505771Y-185614342D01*
X199434342Y-185542914D01*
X199362914Y-185400057D01*
X199362914Y-184971485D01*
X199434342Y-184828628D01*
X199505771Y-184757200D01*
X199648628Y-184685771D01*
X199862914Y-184685771D01*
X200005771Y-184757200D01*
X200077200Y-184828628D01*
X200148628Y-184971485D01*
X200148628Y-185400057D01*
X200077200Y-185542914D01*
X200005771Y-185614342D01*
X199862914Y-185685771D01*
X199648628Y-185685771D01*
X200791485Y-184685771D02*
X200791485Y-185685771D01*
X200791485Y-184828628D02*
X200862914Y-184757200D01*
X201005771Y-184685771D01*
X201220057Y-184685771D01*
X201362914Y-184757200D01*
X201434342Y-184900057D01*
X201434342Y-185685771D01*
X202077200Y-185614342D02*
X202220057Y-185685771D01*
X202505771Y-185685771D01*
X202648628Y-185614342D01*
X202720057Y-185471485D01*
X202720057Y-185400057D01*
X202648628Y-185257200D01*
X202505771Y-185185771D01*
X202291485Y-185185771D01*
X202148628Y-185114342D01*
X202077200Y-184971485D01*
X202077200Y-184900057D01*
X202148628Y-184757200D01*
X202291485Y-184685771D01*
X202505771Y-184685771D01*
X202648628Y-184757200D01*
X203362914Y-185542914D02*
X203434342Y-185614342D01*
X203362914Y-185685771D01*
X203291485Y-185614342D01*
X203362914Y-185542914D01*
X203362914Y-185685771D01*
X203362914Y-184757200D02*
X203434342Y-184828628D01*
X203362914Y-184900057D01*
X203291485Y-184828628D01*
X203362914Y-184757200D01*
X203362914Y-184900057D01*
X205148628Y-185614342D02*
X205362914Y-185685771D01*
X205720057Y-185685771D01*
X205862914Y-185614342D01*
X205934342Y-185542914D01*
X206005771Y-185400057D01*
X206005771Y-185257200D01*
X205934342Y-185114342D01*
X205862914Y-185042914D01*
X205720057Y-184971485D01*
X205434342Y-184900057D01*
X205291485Y-184828628D01*
X205220057Y-184757200D01*
X205148628Y-184614342D01*
X205148628Y-184471485D01*
X205220057Y-184328628D01*
X205291485Y-184257200D01*
X205434342Y-184185771D01*
X205791485Y-184185771D01*
X206005771Y-184257200D01*
X207220057Y-185614342D02*
X207077200Y-185685771D01*
X206791485Y-185685771D01*
X206648628Y-185614342D01*
X206577200Y-185471485D01*
X206577200Y-184900057D01*
X206648628Y-184757200D01*
X206791485Y-184685771D01*
X207077200Y-184685771D01*
X207220057Y-184757200D01*
X207291485Y-184900057D01*
X207291485Y-185042914D01*
X206577200Y-185185771D01*
X208505771Y-185614342D02*
X208362914Y-185685771D01*
X208077200Y-185685771D01*
X207934342Y-185614342D01*
X207862914Y-185471485D01*
X207862914Y-184900057D01*
X207934342Y-184757200D01*
X208077200Y-184685771D01*
X208362914Y-184685771D01*
X208505771Y-184757200D01*
X208577200Y-184900057D01*
X208577200Y-185042914D01*
X207862914Y-185185771D01*
X211077200Y-185685771D02*
X210362914Y-185685771D01*
X210362914Y-184185771D01*
X212220057Y-185685771D02*
X212220057Y-184900057D01*
X212148628Y-184757200D01*
X212005771Y-184685771D01*
X211720057Y-184685771D01*
X211577200Y-184757200D01*
X212220057Y-185614342D02*
X212077200Y-185685771D01*
X211720057Y-185685771D01*
X211577200Y-185614342D01*
X211505771Y-185471485D01*
X211505771Y-185328628D01*
X211577200Y-185185771D01*
X211720057Y-185114342D01*
X212077200Y-185114342D01*
X212220057Y-185042914D01*
X212791485Y-184685771D02*
X213148628Y-185685771D01*
X213505771Y-184685771D02*
X213148628Y-185685771D01*
X213005771Y-186042914D01*
X212934342Y-186114342D01*
X212791485Y-186185771D01*
X214648628Y-185614342D02*
X214505771Y-185685771D01*
X214220057Y-185685771D01*
X214077200Y-185614342D01*
X214005771Y-185471485D01*
X214005771Y-184900057D01*
X214077200Y-184757200D01*
X214220057Y-184685771D01*
X214505771Y-184685771D01*
X214648628Y-184757200D01*
X214720057Y-184900057D01*
X214720057Y-185042914D01*
X214005771Y-185185771D01*
X215362914Y-185685771D02*
X215362914Y-184685771D01*
X215362914Y-184971485D02*
X215434342Y-184828628D01*
X215505771Y-184757200D01*
X215648628Y-184685771D01*
X215791485Y-184685771D01*
X216220057Y-185614342D02*
X216434342Y-185685771D01*
X216791485Y-185685771D01*
X216934342Y-185614342D01*
X217005771Y-185542914D01*
X217077200Y-185400057D01*
X217077200Y-185257200D01*
X217005771Y-185114342D01*
X216934342Y-185042914D01*
X216791485Y-184971485D01*
X216505771Y-184900057D01*
X216362914Y-184828628D01*
X216291485Y-184757200D01*
X216220057Y-184614342D01*
X216220057Y-184471485D01*
X216291485Y-184328628D01*
X216362914Y-184257200D01*
X216505771Y-184185771D01*
X216862914Y-184185771D01*
X217077200Y-184257200D01*
X217505771Y-184685771D02*
X218077200Y-184685771D01*
X217720057Y-184185771D02*
X217720057Y-185471485D01*
X217791485Y-185614342D01*
X217934342Y-185685771D01*
X218077200Y-185685771D01*
X219220057Y-185685771D02*
X219220057Y-184900057D01*
X219148628Y-184757200D01*
X219005771Y-184685771D01*
X218720057Y-184685771D01*
X218577200Y-184757200D01*
X219220057Y-185614342D02*
X219077200Y-185685771D01*
X218720057Y-185685771D01*
X218577200Y-185614342D01*
X218505771Y-185471485D01*
X218505771Y-185328628D01*
X218577200Y-185185771D01*
X218720057Y-185114342D01*
X219077200Y-185114342D01*
X219220057Y-185042914D01*
X220577200Y-185614342D02*
X220434342Y-185685771D01*
X220148628Y-185685771D01*
X220005771Y-185614342D01*
X219934342Y-185542914D01*
X219862914Y-185400057D01*
X219862914Y-184971485D01*
X219934342Y-184828628D01*
X220005771Y-184757200D01*
X220148628Y-184685771D01*
X220434342Y-184685771D01*
X220577200Y-184757200D01*
X221220057Y-185685771D02*
X221220057Y-184185771D01*
X221362914Y-185114342D02*
X221791485Y-185685771D01*
X221791485Y-184685771D02*
X221220057Y-185257200D01*
X222434342Y-185542914D02*
X222505771Y-185614342D01*
X222434342Y-185685771D01*
X222362914Y-185614342D01*
X222434342Y-185542914D01*
X222434342Y-185685771D01*
X222934342Y-184685771D02*
X223505771Y-184685771D01*
X223148628Y-184185771D02*
X223148628Y-185471485D01*
X223220057Y-185614342D01*
X223362914Y-185685771D01*
X223505771Y-185685771D01*
X223862914Y-185685771D02*
X224648628Y-184685771D01*
X223862914Y-184685771D02*
X224648628Y-185685771D01*
X225005771Y-184685771D02*
X225577200Y-184685771D01*
X225220057Y-184185771D02*
X225220057Y-185471485D01*
X225291485Y-185614342D01*
X225434342Y-185685771D01*
X225577200Y-185685771D01*
D10*
D12*
X179268628Y-182685771D02*
X178554342Y-182685771D01*
X178554342Y-181185771D01*
X179768628Y-182685771D02*
X179768628Y-181685771D01*
X179768628Y-181185771D02*
X179697200Y-181257200D01*
X179768628Y-181328628D01*
X179840057Y-181257200D01*
X179768628Y-181185771D01*
X179768628Y-181328628D01*
X180482914Y-181685771D02*
X180482914Y-182685771D01*
X180482914Y-181828628D02*
X180554342Y-181757200D01*
X180697200Y-181685771D01*
X180911485Y-181685771D01*
X181054342Y-181757200D01*
X181125771Y-181900057D01*
X181125771Y-182685771D01*
X182482914Y-181685771D02*
X182482914Y-182685771D01*
X181840057Y-181685771D02*
X181840057Y-182471485D01*
X181911485Y-182614342D01*
X182054342Y-182685771D01*
X182268628Y-182685771D01*
X182411485Y-182614342D01*
X182482914Y-182542914D01*
X183054342Y-182685771D02*
X183840057Y-181685771D01*
X183054342Y-181685771D02*
X183840057Y-182685771D01*
X185482914Y-182257200D02*
X186197200Y-182257200D01*
X185340057Y-182685771D02*
X185840057Y-181185771D01*
X186340057Y-182685771D01*
X187482914Y-181685771D02*
X187482914Y-182685771D01*
X186840057Y-181685771D02*
X186840057Y-182471485D01*
X186911485Y-182614342D01*
X187054342Y-182685771D01*
X187268628Y-182685771D01*
X187411485Y-182614342D01*
X187482914Y-182542914D01*
X187982914Y-181685771D02*
X188554342Y-181685771D01*
X188197200Y-181185771D02*
X188197200Y-182471485D01*
X188268628Y-182614342D01*
X188411485Y-182685771D01*
X188554342Y-182685771D01*
X189268628Y-182685771D02*
X189125771Y-182614342D01*
X189054342Y-182542914D01*
X188982914Y-182400057D01*
X188982914Y-181971485D01*
X189054342Y-181828628D01*
X189125771Y-181757200D01*
X189268628Y-181685771D01*
X189482914Y-181685771D01*
X189625771Y-181757200D01*
X189697200Y-181828628D01*
X189768628Y-181971485D01*
X189768628Y-182400057D01*
X189697200Y-182542914D01*
X189625771Y-182614342D01*
X189482914Y-182685771D01*
X189268628Y-182685771D01*
X190411485Y-182685771D02*
X190411485Y-181685771D01*
X190411485Y-181828628D02*
X190482914Y-181757200D01*
X190625771Y-181685771D01*
X190840057Y-181685771D01*
X190982914Y-181757200D01*
X191054342Y-181900057D01*
X191054342Y-182685771D01*
X191054342Y-181900057D02*
X191125771Y-181757200D01*
X191268628Y-181685771D01*
X191482914Y-181685771D01*
X191625771Y-181757200D01*
X191697200Y-181900057D01*
X191697200Y-182685771D01*
X193054342Y-182685771D02*
X193054342Y-181900057D01*
X192982914Y-181757200D01*
X192840057Y-181685771D01*
X192554342Y-181685771D01*
X192411485Y-181757200D01*
X193054342Y-182614342D02*
X192911485Y-182685771D01*
X192554342Y-182685771D01*
X192411485Y-182614342D01*
X192340057Y-182471485D01*
X192340057Y-182328628D01*
X192411485Y-182185771D01*
X192554342Y-182114342D01*
X192911485Y-182114342D01*
X193054342Y-182042914D01*
X193554342Y-181685771D02*
X194125771Y-181685771D01*
X193768628Y-181185771D02*
X193768628Y-182471485D01*
X193840057Y-182614342D01*
X193982914Y-182685771D01*
X194125771Y-182685771D01*
X194625771Y-182685771D02*
X194625771Y-181685771D01*
X194625771Y-181185771D02*
X194554342Y-181257200D01*
X194625771Y-181328628D01*
X194697200Y-181257200D01*
X194625771Y-181185771D01*
X194625771Y-181328628D01*
X195554342Y-182685771D02*
X195411485Y-182614342D01*
X195340057Y-182542914D01*
X195268628Y-182400057D01*
X195268628Y-181971485D01*
X195340057Y-181828628D01*
X195411485Y-181757200D01*
X195554342Y-181685771D01*
X195768628Y-181685771D01*
X195911485Y-181757200D01*
X195982914Y-181828628D01*
X196054342Y-181971485D01*
X196054342Y-182400057D01*
X195982914Y-182542914D01*
X195911485Y-182614342D01*
X195768628Y-182685771D01*
X195554342Y-182685771D01*
X196697200Y-181685771D02*
X196697200Y-182685771D01*
X196697200Y-181828628D02*
X196768628Y-181757200D01*
X196911485Y-181685771D01*
X197125771Y-181685771D01*
X197268628Y-181757200D01*
X197340057Y-181900057D01*
X197340057Y-182685771D01*
X199982914Y-181257200D02*
X199840057Y-181185771D01*
X199625771Y-181185771D01*
X199411485Y-181257200D01*
X199268628Y-181400057D01*
X199197200Y-181542914D01*
X199125771Y-181828628D01*
X199125771Y-182042914D01*
X199197200Y-182328628D01*
X199268628Y-182471485D01*
X199411485Y-182614342D01*
X199625771Y-182685771D01*
X199768628Y-182685771D01*
X199982914Y-182614342D01*
X200054342Y-182542914D01*
X200054342Y-182042914D01*
X199768628Y-182042914D01*
X200697200Y-182685771D02*
X200697200Y-181685771D01*
X200697200Y-181828628D02*
X200768628Y-181757200D01*
X200911485Y-181685771D01*
X201125771Y-181685771D01*
X201268628Y-181757200D01*
X201340057Y-181900057D01*
X201340057Y-182685771D01*
X201340057Y-181900057D02*
X201411485Y-181757200D01*
X201554342Y-181685771D01*
X201768628Y-181685771D01*
X201911485Y-181757200D01*
X201982914Y-181900057D01*
X201982914Y-182685771D01*
X202697200Y-182685771D02*
X202697200Y-181185771D01*
X202697200Y-181757200D02*
X202840057Y-181685771D01*
X203125771Y-181685771D01*
X203268628Y-181757200D01*
X203340057Y-181828628D01*
X203411485Y-181971485D01*
X203411485Y-182400057D01*
X203340057Y-182542914D01*
X203268628Y-182614342D01*
X203125771Y-182685771D01*
X202840057Y-182685771D01*
X202697200Y-182614342D01*
X204054342Y-182685771D02*
X204054342Y-181185771D01*
X204054342Y-181900057D02*
X204911485Y-181900057D01*
X204911485Y-182685771D02*
X204911485Y-181185771D01*
D10*
D11*
X201077200Y-197585771D02*
X201077200Y-198800057D01*
X201005771Y-198942914D01*
X200934342Y-199014342D01*
X200791485Y-199085771D01*
X200577200Y-199085771D01*
X200434342Y-199014342D01*
X201077200Y-198514342D02*
X200934342Y-198585771D01*
X200648628Y-198585771D01*
X200505771Y-198514342D01*
X200434342Y-198442914D01*
X200362914Y-198300057D01*
X200362914Y-197871485D01*
X200434342Y-197728628D01*
X200505771Y-197657200D01*
X200648628Y-197585771D01*
X200934342Y-197585771D01*
X201077200Y-197657200D01*
X201791485Y-198585771D02*
X201791485Y-197585771D01*
X201791485Y-197085771D02*
X201720057Y-197157200D01*
X201791485Y-197228628D01*
X201862914Y-197157200D01*
X201791485Y-197085771D01*
X201791485Y-197228628D01*
X202291485Y-197585771D02*
X202862914Y-197585771D01*
X202505771Y-197085771D02*
X202505771Y-198371485D01*
X202577200Y-198514342D01*
X202720057Y-198585771D01*
X202862914Y-198585771D01*
X203362914Y-198442914D02*
X203434342Y-198514342D01*
X203362914Y-198585771D01*
X203291485Y-198514342D01*
X203362914Y-198442914D01*
X203362914Y-198585771D01*
X203362914Y-197657200D02*
X203434342Y-197728628D01*
X203362914Y-197800057D01*
X203291485Y-197728628D01*
X203362914Y-197657200D01*
X203362914Y-197800057D01*
X205862914Y-197585771D02*
X205862914Y-198800057D01*
X205791485Y-198942914D01*
X205720057Y-199014342D01*
X205577200Y-199085771D01*
X205362914Y-199085771D01*
X205220057Y-199014342D01*
X205862914Y-198514342D02*
X205720057Y-198585771D01*
X205434342Y-198585771D01*
X205291485Y-198514342D01*
X205220057Y-198442914D01*
X205148628Y-198300057D01*
X205148628Y-197871485D01*
X205220057Y-197728628D01*
X205291485Y-197657200D01*
X205434342Y-197585771D01*
X205720057Y-197585771D01*
X205862914Y-197657200D01*
X206577200Y-198585771D02*
X206577200Y-197585771D01*
X206577200Y-197085771D02*
X206505771Y-197157200D01*
X206577200Y-197228628D01*
X206648628Y-197157200D01*
X206577200Y-197085771D01*
X206577200Y-197228628D01*
X207077200Y-197585771D02*
X207648628Y-197585771D01*
X207291485Y-197085771D02*
X207291485Y-198371485D01*
X207362914Y-198514342D01*
X207505771Y-198585771D01*
X207648628Y-198585771D01*
X208148628Y-198585771D02*
X208148628Y-197085771D01*
X208791485Y-198585771D02*
X208791485Y-197800057D01*
X208720057Y-197657200D01*
X208577200Y-197585771D01*
X208362914Y-197585771D01*
X208220057Y-197657200D01*
X208148628Y-197728628D01*
X210148628Y-197585771D02*
X210148628Y-198585771D01*
X209505771Y-197585771D02*
X209505771Y-198371485D01*
X209577200Y-198514342D01*
X209720057Y-198585771D01*
X209934342Y-198585771D01*
X210077200Y-198514342D01*
X210148628Y-198442914D01*
X210862914Y-198585771D02*
X210862914Y-197085771D01*
X210862914Y-197657200D02*
X211005771Y-197585771D01*
X211291485Y-197585771D01*
X211434342Y-197657200D01*
X211505771Y-197728628D01*
X211577200Y-197871485D01*
X211577200Y-198300057D01*
X211505771Y-198442914D01*
X211434342Y-198514342D01*
X211291485Y-198585771D01*
X211005771Y-198585771D01*
X210862914Y-198514342D01*
X212220057Y-198442914D02*
X212291485Y-198514342D01*
X212220057Y-198585771D01*
X212148628Y-198514342D01*
X212220057Y-198442914D01*
X212220057Y-198585771D01*
X213577200Y-198514342D02*
X213434342Y-198585771D01*
X213148628Y-198585771D01*
X213005771Y-198514342D01*
X212934342Y-198442914D01*
X212862914Y-198300057D01*
X212862914Y-197871485D01*
X212934342Y-197728628D01*
X213005771Y-197657200D01*
X213148628Y-197585771D01*
X213434342Y-197585771D01*
X213577200Y-197657200D01*
X214434342Y-198585771D02*
X214291485Y-198514342D01*
X214220057Y-198442914D01*
X214148628Y-198300057D01*
X214148628Y-197871485D01*
X214220057Y-197728628D01*
X214291485Y-197657200D01*
X214434342Y-197585771D01*
X214648628Y-197585771D01*
X214791485Y-197657200D01*
X214862914Y-197728628D01*
X214934342Y-197871485D01*
X214934342Y-198300057D01*
X214862914Y-198442914D01*
X214791485Y-198514342D01*
X214648628Y-198585771D01*
X214434342Y-198585771D01*
X215577200Y-198585771D02*
X215577200Y-197585771D01*
X215577200Y-197728628D02*
X215648628Y-197657200D01*
X215791485Y-197585771D01*
X216005771Y-197585771D01*
X216148628Y-197657200D01*
X216220057Y-197800057D01*
X216220057Y-198585771D01*
X216220057Y-197800057D02*
X216291485Y-197657200D01*
X216434342Y-197585771D01*
X216648628Y-197585771D01*
X216791485Y-197657200D01*
X216862914Y-197800057D01*
X216862914Y-198585771D01*
X218648628Y-197014342D02*
X217362914Y-198942914D01*
X219362914Y-198585771D02*
X219220057Y-198514342D01*
X219148628Y-198371485D01*
X219148628Y-197085771D01*
X219934342Y-198585771D02*
X219934342Y-197585771D01*
X219934342Y-197085771D02*
X219862914Y-197157200D01*
X219934342Y-197228628D01*
X220005771Y-197157200D01*
X219934342Y-197085771D01*
X219934342Y-197228628D01*
X220648628Y-197585771D02*
X220648628Y-198585771D01*
X220648628Y-197728628D02*
X220720057Y-197657200D01*
X220862914Y-197585771D01*
X221077200Y-197585771D01*
X221220057Y-197657200D01*
X221291485Y-197800057D01*
X221291485Y-198585771D01*
X222648628Y-197585771D02*
X222648628Y-198585771D01*
X222005771Y-197585771D02*
X222005771Y-198371485D01*
X222077200Y-198514342D01*
X222220057Y-198585771D01*
X222434342Y-198585771D01*
X222577200Y-198514342D01*
X222648628Y-198442914D01*
X223220057Y-198585771D02*
X224005771Y-197585771D01*
X223220057Y-197585771D02*
X224005771Y-198585771D01*
X224577200Y-198014342D02*
X225720057Y-198014342D01*
X227077200Y-198585771D02*
X227077200Y-197800057D01*
X227005771Y-197657200D01*
X226862914Y-197585771D01*
X226577200Y-197585771D01*
X226434342Y-197657200D01*
X227077200Y-198514342D02*
X226934342Y-198585771D01*
X226577200Y-198585771D01*
X226434342Y-198514342D01*
X226362914Y-198371485D01*
X226362914Y-198228628D01*
X226434342Y-198085771D01*
X226577200Y-198014342D01*
X226934342Y-198014342D01*
X227077200Y-197942914D01*
X228434342Y-197585771D02*
X228434342Y-198585771D01*
X227791485Y-197585771D02*
X227791485Y-198371485D01*
X227862914Y-198514342D01*
X228005771Y-198585771D01*
X228220057Y-198585771D01*
X228362914Y-198514342D01*
X228434342Y-198442914D01*
X228934342Y-197585771D02*
X229505771Y-197585771D01*
X229148628Y-197085771D02*
X229148628Y-198371485D01*
X229220057Y-198514342D01*
X229362914Y-198585771D01*
X229505771Y-198585771D01*
X230220057Y-198585771D02*
X230077200Y-198514342D01*
X230005771Y-198442914D01*
X229934342Y-198300057D01*
X229934342Y-197871485D01*
X230005771Y-197728628D01*
X230077200Y-197657200D01*
X230220057Y-197585771D01*
X230434342Y-197585771D01*
X230577200Y-197657200D01*
X230648628Y-197728628D01*
X230720057Y-197871485D01*
X230720057Y-198300057D01*
X230648628Y-198442914D01*
X230577200Y-198514342D01*
X230434342Y-198585771D01*
X230220057Y-198585771D01*
X231362914Y-198585771D02*
X231362914Y-197585771D01*
X231362914Y-197728628D02*
X231434342Y-197657200D01*
X231577200Y-197585771D01*
X231791485Y-197585771D01*
X231934342Y-197657200D01*
X232005771Y-197800057D01*
X232005771Y-198585771D01*
X232005771Y-197800057D02*
X232077200Y-197657200D01*
X232220057Y-197585771D01*
X232434342Y-197585771D01*
X232577200Y-197657200D01*
X232648628Y-197800057D01*
X232648628Y-198585771D01*
X234005771Y-198585771D02*
X234005771Y-197800057D01*
X233934342Y-197657200D01*
X233791485Y-197585771D01*
X233505771Y-197585771D01*
X233362914Y-197657200D01*
X234005771Y-198514342D02*
X233862914Y-198585771D01*
X233505771Y-198585771D01*
X233362914Y-198514342D01*
X233291485Y-198371485D01*
X233291485Y-198228628D01*
X233362914Y-198085771D01*
X233505771Y-198014342D01*
X233862914Y-198014342D01*
X234005771Y-197942914D01*
X234505771Y-197585771D02*
X235077200Y-197585771D01*
X234720057Y-197085771D02*
X234720057Y-198371485D01*
X234791485Y-198514342D01*
X234934342Y-198585771D01*
X235077200Y-198585771D01*
X235577200Y-198585771D02*
X235577200Y-197585771D01*
X235577200Y-197085771D02*
X235505771Y-197157200D01*
X235577200Y-197228628D01*
X235648628Y-197157200D01*
X235577200Y-197085771D01*
X235577200Y-197228628D01*
X236505771Y-198585771D02*
X236362914Y-198514342D01*
X236291485Y-198442914D01*
X236220057Y-198300057D01*
X236220057Y-197871485D01*
X236291485Y-197728628D01*
X236362914Y-197657200D01*
X236505771Y-197585771D01*
X236720057Y-197585771D01*
X236862914Y-197657200D01*
X236934342Y-197728628D01*
X237005771Y-197871485D01*
X237005771Y-198300057D01*
X236934342Y-198442914D01*
X236862914Y-198514342D01*
X236720057Y-198585771D01*
X236505771Y-198585771D01*
X237648628Y-197585771D02*
X237648628Y-198585771D01*
X237648628Y-197728628D02*
X237720057Y-197657200D01*
X237862914Y-197585771D01*
X238077200Y-197585771D01*
X238220057Y-197657200D01*
X238291485Y-197800057D01*
X238291485Y-198585771D01*
X240077200Y-197014342D02*
X238791485Y-198942914D01*
X241220057Y-198514342D02*
X241077200Y-198585771D01*
X240791485Y-198585771D01*
X240648628Y-198514342D01*
X240577200Y-198442914D01*
X240505771Y-198300057D01*
X240505771Y-197871485D01*
X240577200Y-197728628D01*
X240648628Y-197657200D01*
X240791485Y-197585771D01*
X241077200Y-197585771D01*
X241220057Y-197657200D01*
X242505771Y-198585771D02*
X242505771Y-197800057D01*
X242434342Y-197657200D01*
X242291485Y-197585771D01*
X242005771Y-197585771D01*
X241862914Y-197657200D01*
X242505771Y-198514342D02*
X242362914Y-198585771D01*
X242005771Y-198585771D01*
X241862914Y-198514342D01*
X241791485Y-198371485D01*
X241791485Y-198228628D01*
X241862914Y-198085771D01*
X242005771Y-198014342D01*
X242362914Y-198014342D01*
X242505771Y-197942914D01*
X243220057Y-197585771D02*
X243220057Y-198585771D01*
X243220057Y-197728628D02*
X243291485Y-197657200D01*
X243434342Y-197585771D01*
X243648628Y-197585771D01*
X243791485Y-197657200D01*
X243862914Y-197800057D01*
X243862914Y-198585771D01*
X245220057Y-198585771D02*
X245220057Y-197085771D01*
X245220057Y-198514342D02*
X245077200Y-198585771D01*
X244791485Y-198585771D01*
X244648628Y-198514342D01*
X244577200Y-198442914D01*
X244505771Y-198300057D01*
X244505771Y-197871485D01*
X244577200Y-197728628D01*
X244648628Y-197657200D01*
X244791485Y-197585771D01*
X245077200Y-197585771D01*
X245220057Y-197657200D01*
X246148628Y-198585771D02*
X246005771Y-198514342D01*
X245934342Y-198371485D01*
X245934342Y-197085771D01*
X247291485Y-198514342D02*
X247148628Y-198585771D01*
X246862914Y-198585771D01*
X246720057Y-198514342D01*
X246648628Y-198371485D01*
X246648628Y-197800057D01*
X246720057Y-197657200D01*
X246862914Y-197585771D01*
X247148628Y-197585771D01*
X247291485Y-197657200D01*
X247362914Y-197800057D01*
X247362914Y-197942914D01*
X246648628Y-198085771D01*
X248220057Y-198585771D02*
X248077200Y-198514342D01*
X248005771Y-198371485D01*
X248005771Y-197085771D01*
X248791485Y-198585771D02*
X248791485Y-197585771D01*
X248791485Y-197085771D02*
X248720057Y-197157200D01*
X248791485Y-197228628D01*
X248862914Y-197157200D01*
X248791485Y-197085771D01*
X248791485Y-197228628D01*
X250148628Y-197585771D02*
X250148628Y-198800057D01*
X250077200Y-198942914D01*
X250005771Y-199014342D01*
X249862914Y-199085771D01*
X249648628Y-199085771D01*
X249505771Y-199014342D01*
X250148628Y-198514342D02*
X250005771Y-198585771D01*
X249720057Y-198585771D01*
X249577200Y-198514342D01*
X249505771Y-198442914D01*
X249434342Y-198300057D01*
X249434342Y-197871485D01*
X249505771Y-197728628D01*
X249577200Y-197657200D01*
X249720057Y-197585771D01*
X250005771Y-197585771D01*
X250148628Y-197657200D01*
X250862914Y-198585771D02*
X250862914Y-197085771D01*
X251505771Y-198585771D02*
X251505771Y-197800057D01*
X251434342Y-197657200D01*
X251291485Y-197585771D01*
X251077200Y-197585771D01*
X250934342Y-197657200D01*
X250862914Y-197728628D01*
X252005771Y-197585771D02*
X252577200Y-197585771D01*
X252220057Y-197085771D02*
X252220057Y-198371485D01*
X252291485Y-198514342D01*
X252434342Y-198585771D01*
X252577200Y-198585771D01*
X253077200Y-198014342D02*
X254220057Y-198014342D01*
X254862914Y-198514342D02*
X255077200Y-198585771D01*
X255434342Y-198585771D01*
X255577200Y-198514342D01*
X255648628Y-198442914D01*
X255720057Y-198300057D01*
X255720057Y-198157200D01*
X255648628Y-198014342D01*
X255577200Y-197942914D01*
X255434342Y-197871485D01*
X255148628Y-197800057D01*
X255005771Y-197728628D01*
X254934342Y-197657200D01*
X254862914Y-197514342D01*
X254862914Y-197371485D01*
X254934342Y-197228628D01*
X255005771Y-197157200D01*
X255148628Y-197085771D01*
X255505771Y-197085771D01*
X255720057Y-197157200D01*
X256648628Y-197085771D02*
X256791485Y-197085771D01*
X256934342Y-197157200D01*
X257005771Y-197228628D01*
X257077200Y-197371485D01*
X257148628Y-197657200D01*
X257148628Y-198014342D01*
X257077200Y-198300057D01*
X257005771Y-198442914D01*
X256934342Y-198514342D01*
X256791485Y-198585771D01*
X256648628Y-198585771D01*
X256505771Y-198514342D01*
X256434342Y-198442914D01*
X256362914Y-198300057D01*
X256291485Y-198014342D01*
X256291485Y-197657200D01*
X256362914Y-197371485D01*
X256434342Y-197228628D01*
X256505771Y-197157200D01*
X256648628Y-197085771D01*
X258577200Y-198585771D02*
X257720057Y-198585771D01*
X258148628Y-198585771D02*
X258148628Y-197085771D01*
X258005771Y-197300057D01*
X257862914Y-197442914D01*
X257720057Y-197514342D01*
D10*
D11*
X197002200Y-193507200D02*
X197002200Y-200007200D01*
D10*
D11*
X238260714Y-195707142D02*
X238475000Y-195778571D01*
X238832142Y-195778571D01*
X238975000Y-195707142D01*
X239046428Y-195635714D01*
X239117857Y-195492857D01*
X239117857Y-195350000D01*
X239046428Y-195207142D01*
X238975000Y-195135714D01*
X238832142Y-195064285D01*
X238546428Y-194992857D01*
X238403571Y-194921428D01*
X238332142Y-194850000D01*
X238260714Y-194707142D01*
X238260714Y-194564285D01*
X238332142Y-194421428D01*
X238403571Y-194350000D01*
X238546428Y-194278571D01*
X238903571Y-194278571D01*
X239117857Y-194350000D01*
X239546428Y-194778571D02*
X240117857Y-194778571D01*
X239760714Y-194278571D02*
X239760714Y-195564285D01*
X239832142Y-195707142D01*
X239975000Y-195778571D01*
X240117857Y-195778571D01*
X241260714Y-195778571D02*
X241260714Y-194992857D01*
X241189285Y-194850000D01*
X241046428Y-194778571D01*
X240760714Y-194778571D01*
X240617857Y-194850000D01*
X241260714Y-195707142D02*
X241117857Y-195778571D01*
X240760714Y-195778571D01*
X240617857Y-195707142D01*
X240546428Y-195564285D01*
X240546428Y-195421428D01*
X240617857Y-195278571D01*
X240760714Y-195207142D01*
X241117857Y-195207142D01*
X241260714Y-195135714D01*
X241760714Y-194778571D02*
X242332142Y-194778571D01*
X241975000Y-194278571D02*
X241975000Y-195564285D01*
X242046428Y-195707142D01*
X242189285Y-195778571D01*
X242332142Y-195778571D01*
X243403571Y-195707142D02*
X243260714Y-195778571D01*
X242975000Y-195778571D01*
X242832142Y-195707142D01*
X242760714Y-195564285D01*
X242760714Y-194992857D01*
X242832142Y-194850000D01*
X242975000Y-194778571D01*
X243260714Y-194778571D01*
X243403571Y-194850000D01*
X243475000Y-194992857D01*
X243475000Y-195135714D01*
X242760714Y-195278571D01*
X244117857Y-195635714D02*
X244189285Y-195707142D01*
X244117857Y-195778571D01*
X244046428Y-195707142D01*
X244117857Y-195635714D01*
X244117857Y-195778571D01*
X244117857Y-194850000D02*
X244189285Y-194921428D01*
X244117857Y-194992857D01*
X244046428Y-194921428D01*
X244117857Y-194850000D01*
X244117857Y-194992857D01*
X245975000Y-195778571D02*
X245975000Y-194778571D01*
X245975000Y-195064285D02*
X246046428Y-194921428D01*
X246117857Y-194850000D01*
X246260714Y-194778571D01*
X246403571Y-194778571D01*
X247475000Y-195707142D02*
X247332142Y-195778571D01*
X247046428Y-195778571D01*
X246903571Y-195707142D01*
X246832142Y-195564285D01*
X246832142Y-194992857D01*
X246903571Y-194850000D01*
X247046428Y-194778571D01*
X247332142Y-194778571D01*
X247475000Y-194850000D01*
X247546428Y-194992857D01*
X247546428Y-195135714D01*
X246832142Y-195278571D01*
X248403571Y-195778571D02*
X248260714Y-195707142D01*
X248189285Y-195564285D01*
X248189285Y-194278571D01*
X249546428Y-195707142D02*
X249403571Y-195778571D01*
X249117857Y-195778571D01*
X248975000Y-195707142D01*
X248903571Y-195564285D01*
X248903571Y-194992857D01*
X248975000Y-194850000D01*
X249117857Y-194778571D01*
X249403571Y-194778571D01*
X249546428Y-194850000D01*
X249617857Y-194992857D01*
X249617857Y-195135714D01*
X248903571Y-195278571D01*
X250903571Y-195778571D02*
X250903571Y-194992857D01*
X250832142Y-194850000D01*
X250689285Y-194778571D01*
X250403571Y-194778571D01*
X250260714Y-194850000D01*
X250903571Y-195707142D02*
X250760714Y-195778571D01*
X250403571Y-195778571D01*
X250260714Y-195707142D01*
X250189285Y-195564285D01*
X250189285Y-195421428D01*
X250260714Y-195278571D01*
X250403571Y-195207142D01*
X250760714Y-195207142D01*
X250903571Y-195135714D01*
X251546428Y-195707142D02*
X251689285Y-195778571D01*
X251975000Y-195778571D01*
X252117857Y-195707142D01*
X252189285Y-195564285D01*
X252189285Y-195492857D01*
X252117857Y-195350000D01*
X251975000Y-195278571D01*
X251760714Y-195278571D01*
X251617857Y-195207142D01*
X251546428Y-195064285D01*
X251546428Y-194992857D01*
X251617857Y-194850000D01*
X251760714Y-194778571D01*
X251975000Y-194778571D01*
X252117857Y-194850000D01*
X253403571Y-195707142D02*
X253260714Y-195778571D01*
X252975000Y-195778571D01*
X252832142Y-195707142D01*
X252760714Y-195564285D01*
X252760714Y-194992857D01*
X252832142Y-194850000D01*
X252975000Y-194778571D01*
X253260714Y-194778571D01*
X253403571Y-194850000D01*
X253475000Y-194992857D01*
X253475000Y-195135714D01*
X252760714Y-195278571D01*
X254760714Y-195778571D02*
X254760714Y-194278571D01*
X254760714Y-195707142D02*
X254617857Y-195778571D01*
X254332142Y-195778571D01*
X254189285Y-195707142D01*
X254117857Y-195635714D01*
X254046428Y-195492857D01*
X254046428Y-195064285D01*
X254117857Y-194921428D01*
X254189285Y-194850000D01*
X254332142Y-194778571D01*
X254617857Y-194778571D01*
X254760714Y-194850000D01*
D10*
D11*
X237300000Y-193500000D02*
X237300000Y-196500000D01*
D10*
D11*
X264002000Y-193507000D02*
X264002000Y-200007000D01*
D12*
X55650000Y-85000000D02*
G75*
G03*
X55650000Y-85000000I-150000J0D01*
G01*
X51665137Y-84503018D02*
G75*
G03*
X51665137Y-84503018I-150000J0D01*
G01*
X54528015Y-84211888D02*
G75*
G03*
X54528015Y-84211888I-150000J0D01*
G01*
X51150000Y-81850000D02*
G75*
G03*
X51150000Y-81850000I-150000J0D01*
G01*
X52351740Y-81830177D02*
G75*
G03*
X52351740Y-81830177I-150000J0D01*
G01*
X55399523Y-83634057D02*
G75*
G03*
X55399523Y-83634057I-150000J0D01*
G01*
X55100000Y-93200000D02*
G75*
G03*
X55100000Y-93200000I-150000J0D01*
G01*
X53600000Y-93200000D02*
G75*
G03*
X53600000Y-93200000I-150000J0D01*
G01*
X59388503Y-88212519D02*
G75*
G03*
X59388503Y-88212519I-150000J0D01*
G01*
X61845031Y-89815236D02*
G75*
G03*
X61845031Y-89815236I-150000J0D01*
G01*
X58611607Y-88212741D02*
G75*
G03*
X58611607Y-88212741I-150000J0D01*
G01*
X62603828Y-90482905D02*
G75*
G03*
X62603828Y-90482905I-150000J0D01*
G01*
X44550000Y-91500000D02*
G75*
G03*
X44550000Y-91500000I-150000J0D01*
G01*
X52912530Y-89200929D02*
G75*
G03*
X52912530Y-89200929I-150000J0D01*
G01*
X59150000Y-86750000D02*
G75*
G03*
X59150000Y-86750000I-150000J0D01*
G01*
X60400000Y-85500000D02*
G75*
G03*
X60400000Y-85500000I-150000J0D01*
G01*
X71809907Y-85429747D02*
G75*
G03*
X71809907Y-85429747I-150000J0D01*
G01*
X70600000Y-81050000D02*
G75*
G03*
X70600000Y-81050000I-150000J0D01*
G01*
X66617266Y-92429853D02*
G75*
G03*
X66617266Y-92429853I-150000J0D01*
G01*
X48450000Y-82500000D02*
G75*
G03*
X48450000Y-82500000I-150000J0D01*
G01*
X50150000Y-92200000D02*
G75*
G03*
X50150000Y-92200000I-150000J0D01*
G01*
X54650000Y-88025010D02*
G75*
G03*
X54650000Y-88025010I-150000J0D01*
G01*
X55650000Y-86500000D02*
G75*
G03*
X55650000Y-86500000I-150000J0D01*
G01*
X51664644Y-94064644D02*
G75*
G03*
X51664644Y-94064644I-150000J0D01*
G01*
X51200000Y-78900000D02*
G75*
G03*
X51200000Y-78900000I-150000J0D01*
G01*
X45350000Y-90050000D02*
G75*
G03*
X45350000Y-90050000I-150000J0D01*
G01*
X45700000Y-79750000D02*
G75*
G03*
X45700000Y-79750000I-150000J0D01*
G01*
X48050000Y-87400000D02*
G75*
G03*
X48050000Y-87400000I-150000J0D01*
G01*
X49950000Y-89100000D02*
G75*
G03*
X49950000Y-89100000I-150000J0D01*
G01*
X58950000Y-91050000D02*
G75*
G03*
X58950000Y-91050000I-150000J0D01*
G01*
X63700000Y-91150000D02*
G75*
G03*
X63700000Y-91150000I-150000J0D01*
G01*
X73150000Y-91000000D02*
G75*
G03*
X73150000Y-91000000I-150000J0D01*
G01*
X66648356Y-82898246D02*
G75*
G03*
X66648356Y-82898246I-150000J0D01*
G01*
X66649068Y-84447739D02*
G75*
G03*
X66649068Y-84447739I-150000J0D01*
G01*
X66651375Y-85999137D02*
G75*
G03*
X66651375Y-85999137I-150000J0D01*
G01*
X66645089Y-87551599D02*
G75*
G03*
X66645089Y-87551599I-150000J0D01*
G01*
X66100000Y-80500000D02*
G75*
G03*
X66100000Y-80500000I-150000J0D01*
G01*
X65000000Y-80500000D02*
G75*
G03*
X65000000Y-80500000I-150000J0D01*
G01*
X67150000Y-80500000D02*
G75*
G03*
X67150000Y-80500000I-150000J0D01*
G01*
X60500000Y-84450000D02*
G75*
G03*
X60500000Y-84450000I-150000J0D01*
G01*
X70500000Y-79400000D02*
G75*
G03*
X70500000Y-79400000I-150000J0D01*
G01*
X72949594Y-83022129D02*
G75*
G03*
X72949594Y-83022129I-150000J0D01*
G01*
X56318804Y-87440390D02*
G75*
G03*
X56318804Y-87440390I-150000J0D01*
G01*
X55700000Y-79650000D02*
G75*
G03*
X55700000Y-79650000I-150000J0D01*
G01*
X55934003Y-93177524D02*
G75*
G03*
X55934003Y-93177524I-150000J0D01*
G01*
X49500000Y-90050000D02*
G75*
G03*
X49500000Y-90050000I-150000J0D01*
G01*
X60256996Y-93784245D02*
G75*
G03*
X60256996Y-93784245I-150000J0D01*
G01*
X53193249Y-79618617D02*
G75*
G03*
X53193249Y-79618617I-150000J0D01*
G01*
D14*
X77820833Y-77126190D02*
X77944642Y-77188095D01*
X78192261Y-77188095D01*
X78316071Y-77126190D01*
X78377976Y-77064285D01*
X78439880Y-76940476D01*
X78439880Y-76569047D01*
X78377976Y-76445238D01*
X78316071Y-76383333D01*
X78192261Y-76321428D01*
X77944642Y-76321428D01*
X77820833Y-76383333D01*
X76706547Y-77188095D02*
X76706547Y-76507142D01*
X76768452Y-76383333D01*
X76892261Y-76321428D01*
X77139880Y-76321428D01*
X77263690Y-76383333D01*
X76706547Y-77126190D02*
X76830357Y-77188095D01*
X77139880Y-77188095D01*
X77263690Y-77126190D01*
X77325595Y-77002380D01*
X77325595Y-76878571D01*
X77263690Y-76754761D01*
X77139880Y-76692857D01*
X76830357Y-76692857D01*
X76706547Y-76630952D01*
X76087500Y-76321428D02*
X76087500Y-77188095D01*
X76087500Y-76445238D02*
X76025595Y-76383333D01*
X75901785Y-76321428D01*
X75716071Y-76321428D01*
X75592261Y-76383333D01*
X75530357Y-76507142D01*
X75530357Y-77188095D01*
X74354166Y-77188095D02*
X74354166Y-75888095D01*
X74354166Y-77126190D02*
X74477976Y-77188095D01*
X74725595Y-77188095D01*
X74849404Y-77126190D01*
X74911309Y-77064285D01*
X74973214Y-76940476D01*
X74973214Y-76569047D01*
X74911309Y-76445238D01*
X74849404Y-76383333D01*
X74725595Y-76321428D01*
X74477976Y-76321428D01*
X74354166Y-76383333D01*
X73549404Y-77188095D02*
X73673214Y-77126190D01*
X73735119Y-77002380D01*
X73735119Y-75888095D01*
X72558928Y-77126190D02*
X72682738Y-77188095D01*
X72930357Y-77188095D01*
X73054166Y-77126190D01*
X73116071Y-77002380D01*
X73116071Y-76507142D01*
X73054166Y-76383333D01*
X72930357Y-76321428D01*
X72682738Y-76321428D01*
X72558928Y-76383333D01*
X72497023Y-76507142D01*
X72497023Y-76630952D01*
X73116071Y-76754761D01*
X71320833Y-77188095D02*
X71939880Y-77188095D01*
X71939880Y-75888095D01*
X70887500Y-77188095D02*
X70887500Y-76321428D01*
X70887500Y-75888095D02*
X70949404Y-75950000D01*
X70887500Y-76011904D01*
X70825595Y-75950000D01*
X70887500Y-75888095D01*
X70887500Y-76011904D01*
X69711309Y-76321428D02*
X69711309Y-77373809D01*
X69773214Y-77497619D01*
X69835119Y-77559523D01*
X69958928Y-77621428D01*
X70144642Y-77621428D01*
X70268452Y-77559523D01*
X69711309Y-77126190D02*
X69835119Y-77188095D01*
X70082738Y-77188095D01*
X70206547Y-77126190D01*
X70268452Y-77064285D01*
X70330357Y-76940476D01*
X70330357Y-76569047D01*
X70268452Y-76445238D01*
X70206547Y-76383333D01*
X70082738Y-76321428D01*
X69835119Y-76321428D01*
X69711309Y-76383333D01*
X69092261Y-77188095D02*
X69092261Y-75888095D01*
X68535119Y-77188095D02*
X68535119Y-76507142D01*
X68597023Y-76383333D01*
X68720833Y-76321428D01*
X68906547Y-76321428D01*
X69030357Y-76383333D01*
X69092261Y-76445238D01*
X68101785Y-76321428D02*
X67606547Y-76321428D01*
X67916071Y-75888095D02*
X67916071Y-77002380D01*
X67854166Y-77126190D01*
X67730357Y-77188095D01*
X67606547Y-77188095D01*
X67173214Y-76692857D02*
X66182738Y-76692857D01*
X65563690Y-77188095D02*
X65563690Y-75888095D01*
X65068452Y-75888095D01*
X64944642Y-75950000D01*
X64882738Y-76011904D01*
X64820833Y-76135714D01*
X64820833Y-76321428D01*
X64882738Y-76445238D01*
X64944642Y-76507142D01*
X65068452Y-76569047D01*
X65563690Y-76569047D01*
X64016071Y-75888095D02*
X63892261Y-75888095D01*
X63768452Y-75950000D01*
X63706547Y-76011904D01*
X63644642Y-76135714D01*
X63582738Y-76383333D01*
X63582738Y-76692857D01*
X63644642Y-76940476D01*
X63706547Y-77064285D01*
X63768452Y-77126190D01*
X63892261Y-77188095D01*
X64016071Y-77188095D01*
X64139880Y-77126190D01*
X64201785Y-77064285D01*
X64263690Y-76940476D01*
X64325595Y-76692857D01*
X64325595Y-76383333D01*
X64263690Y-76135714D01*
X64201785Y-76011904D01*
X64139880Y-75950000D01*
X64016071Y-75888095D01*
X62344642Y-77188095D02*
X63087499Y-77188095D01*
X62716071Y-77188095D02*
X62716071Y-75888095D01*
X62839880Y-76073809D01*
X62963690Y-76197619D01*
X63087499Y-76259523D01*
X61787499Y-76692857D02*
X60797023Y-76692857D01*
X59435119Y-77188095D02*
X59868452Y-76569047D01*
X60177976Y-77188095D02*
X60177976Y-75888095D01*
X59682738Y-75888095D01*
X59558928Y-75950000D01*
X59497023Y-76011904D01*
X59435119Y-76135714D01*
X59435119Y-76321428D01*
X59497023Y-76445238D01*
X59558928Y-76507142D01*
X59682738Y-76569047D01*
X60177976Y-76569047D01*
X58630357Y-75888095D02*
X58506547Y-75888095D01*
X58382738Y-75950000D01*
X58320833Y-76011904D01*
X58258928Y-76135714D01*
X58197023Y-76383333D01*
X58197023Y-76692857D01*
X58258928Y-76940476D01*
X58320833Y-77064285D01*
X58382738Y-77126190D01*
X58506547Y-77188095D01*
X58630357Y-77188095D01*
X58754166Y-77126190D01*
X58816071Y-77064285D01*
X58877976Y-76940476D01*
X58939880Y-76692857D01*
X58939880Y-76383333D01*
X58877976Y-76135714D01*
X58816071Y-76011904D01*
X58754166Y-75950000D01*
X58630357Y-75888095D01*
X56958928Y-77188095D02*
X57701785Y-77188095D01*
X57330357Y-77188095D02*
X57330357Y-75888095D01*
X57454166Y-76073809D01*
X57577976Y-76197619D01*
X57701785Y-76259523D01*
X56401785Y-76692857D02*
X55411309Y-76692857D01*
X54358928Y-76507142D02*
X54173214Y-76569047D01*
X54111309Y-76630952D01*
X54049404Y-76754761D01*
X54049404Y-76940476D01*
X54111309Y-77064285D01*
X54173214Y-77126190D01*
X54297023Y-77188095D01*
X54792261Y-77188095D01*
X54792261Y-75888095D01*
X54358928Y-75888095D01*
X54235119Y-75950000D01*
X54173214Y-76011904D01*
X54111309Y-76135714D01*
X54111309Y-76259523D01*
X54173214Y-76383333D01*
X54235119Y-76445238D01*
X54358928Y-76507142D01*
X54792261Y-76507142D01*
X53244642Y-75888095D02*
X53120833Y-75888095D01*
X52997023Y-75950000D01*
X52935119Y-76011904D01*
X52873214Y-76135714D01*
X52811309Y-76383333D01*
X52811309Y-76692857D01*
X52873214Y-76940476D01*
X52935119Y-77064285D01*
X52997023Y-77126190D01*
X53120833Y-77188095D01*
X53244642Y-77188095D01*
X53368452Y-77126190D01*
X53430357Y-77064285D01*
X53492261Y-76940476D01*
X53554166Y-76692857D01*
X53554166Y-76383333D01*
X53492261Y-76135714D01*
X53430357Y-76011904D01*
X53368452Y-75950000D01*
X53244642Y-75888095D01*
X51573214Y-77188095D02*
X52316071Y-77188095D01*
X51944642Y-77188095D02*
X51944642Y-75888095D01*
X52068452Y-76073809D01*
X52192261Y-76197619D01*
X52316071Y-76259523D01*
D15*
X41400000Y-75000000D02*
X41400000Y-81100000D01*
X79100000Y-75000000D02*
X79100000Y-95000000D01*
X47000000Y-81900000D02*
X47000000Y-88100000D01*
X41400000Y-81100000D02*
X46200000Y-81100000D01*
X47000000Y-81900000D02*
G75*
G03*
X46200000Y-81100000I-800000J0D01*
G01*
X46200000Y-88900000D02*
G75*
G03*
X47000000Y-88100000I0J800000D01*
G01*
X41400000Y-88900000D02*
X46200000Y-88900000D01*
X41400000Y-95000000D02*
X41400000Y-88900000D01*
X79100000Y-95000000D02*
X41400000Y-95000000D01*
X41400000Y-75000000D02*
X79100000Y-75000000D01*
D16*
%TO.C,NB101*%
G36*
X62408214Y-84639069D02*
G01*
X62361100Y-84642759D01*
X62354620Y-84643995D01*
X62266937Y-84678088D01*
X62176923Y-84737797D01*
X62093535Y-84815574D01*
X62025732Y-84903868D01*
X62006585Y-84937311D01*
X61997968Y-84961480D01*
X62007870Y-84978245D01*
X62042682Y-84995214D01*
X62061201Y-85002334D01*
X62229335Y-85050140D01*
X62397108Y-85066054D01*
X62501458Y-85066482D01*
X62608760Y-84956509D01*
X62660736Y-84897091D01*
X62707220Y-84832937D01*
X62744301Y-84770965D01*
X62768066Y-84718091D01*
X62774603Y-84681232D01*
X62770253Y-84671035D01*
X62745251Y-84662180D01*
X62694171Y-84653958D01*
X62625970Y-84646954D01*
X62549606Y-84641749D01*
X62474035Y-84638927D01*
X62408214Y-84639069D01*
G37*
X62408214Y-84639069D02*
X62361100Y-84642759D01*
X62354620Y-84643995D01*
X62266937Y-84678088D01*
X62176923Y-84737797D01*
X62093535Y-84815574D01*
X62025732Y-84903868D01*
X62006585Y-84937311D01*
X61997968Y-84961480D01*
X62007870Y-84978245D01*
X62042682Y-84995214D01*
X62061201Y-85002334D01*
X62229335Y-85050140D01*
X62397108Y-85066054D01*
X62501458Y-85066482D01*
X62608760Y-84956509D01*
X62660736Y-84897091D01*
X62707220Y-84832937D01*
X62744301Y-84770965D01*
X62768066Y-84718091D01*
X62774603Y-84681232D01*
X62770253Y-84671035D01*
X62745251Y-84662180D01*
X62694171Y-84653958D01*
X62625970Y-84646954D01*
X62549606Y-84641749D01*
X62474035Y-84638927D01*
X62408214Y-84639069D01*
G36*
X65209970Y-88050799D02*
G01*
X65112372Y-88059318D01*
X65045316Y-88068610D01*
X65004310Y-88079742D01*
X64984862Y-88093780D01*
X64981655Y-88104994D01*
X64996813Y-88123053D01*
X65034619Y-88141822D01*
X65049094Y-88146659D01*
X65130761Y-88184044D01*
X65213895Y-88243501D01*
X65285982Y-88314977D01*
X65323202Y-88366836D01*
X65353394Y-88426934D01*
X65377481Y-88495982D01*
X65396043Y-88578286D01*
X65409662Y-88678148D01*
X65418920Y-88799876D01*
X65424397Y-88947772D01*
X65426676Y-89126143D01*
X65426706Y-89133379D01*
X65426747Y-89250426D01*
X65425978Y-89355545D01*
X65424502Y-89443752D01*
X65422421Y-89510064D01*
X65419837Y-89549499D01*
X65417978Y-89558320D01*
X65396478Y-89557079D01*
X65349592Y-89540579D01*
X65282148Y-89511295D01*
X65198974Y-89471701D01*
X65104900Y-89424272D01*
X65004754Y-89371480D01*
X64903364Y-89315802D01*
X64805560Y-89259710D01*
X64716170Y-89205679D01*
X64662078Y-89170997D01*
X64540347Y-89082249D01*
X64449494Y-88995466D01*
X64386086Y-88905533D01*
X64346688Y-88807339D01*
X64327866Y-88695770D01*
X64326247Y-88670975D01*
X64319396Y-88611632D01*
X64305781Y-88583868D01*
X64284434Y-88588078D01*
X64254384Y-88624657D01*
X64214662Y-88694000D01*
X64200178Y-88722320D01*
X64129222Y-88899028D01*
X64087249Y-89084305D01*
X64073798Y-89272958D01*
X64088409Y-89459794D01*
X64130620Y-89639621D01*
X64199971Y-89807248D01*
X64296000Y-89957482D01*
X64311531Y-89976812D01*
X64409774Y-90080641D01*
X64539806Y-90193505D01*
X64699882Y-90314307D01*
X64888251Y-90441951D01*
X65103167Y-90575342D01*
X65342881Y-90713384D01*
X65605646Y-90854981D01*
X65889714Y-90999037D01*
X66116375Y-91108356D01*
X66236527Y-91165139D01*
X66328725Y-91208404D01*
X66396791Y-91239380D01*
X66444550Y-91259297D01*
X66475827Y-91269386D01*
X66494444Y-91270875D01*
X66504227Y-91264996D01*
X66508999Y-91252978D01*
X66512584Y-91236050D01*
X66512640Y-91235803D01*
X66517573Y-91196194D01*
X66522008Y-91126183D01*
X66525912Y-91030396D01*
X66529251Y-90913463D01*
X66531992Y-90780012D01*
X66534101Y-90634671D01*
X66535545Y-90482067D01*
X66536289Y-90326831D01*
X66536300Y-90173589D01*
X66535545Y-90026970D01*
X66533990Y-89891602D01*
X66531601Y-89772115D01*
X66528344Y-89673134D01*
X66524500Y-89603448D01*
X66504494Y-89375331D01*
X66479705Y-89178148D01*
X66448788Y-89007965D01*
X66410400Y-88860850D01*
X66363197Y-88732871D01*
X66305833Y-88620097D01*
X66236965Y-88518593D01*
X66155249Y-88424429D01*
X66104307Y-88374310D01*
X65949874Y-88252203D01*
X65777927Y-88156778D01*
X65594002Y-88090038D01*
X65403634Y-88053986D01*
X65212359Y-88050625D01*
X65209970Y-88050799D01*
G37*
X65209970Y-88050799D02*
X65112372Y-88059318D01*
X65045316Y-88068610D01*
X65004310Y-88079742D01*
X64984862Y-88093780D01*
X64981655Y-88104994D01*
X64996813Y-88123053D01*
X65034619Y-88141822D01*
X65049094Y-88146659D01*
X65130761Y-88184044D01*
X65213895Y-88243501D01*
X65285982Y-88314977D01*
X65323202Y-88366836D01*
X65353394Y-88426934D01*
X65377481Y-88495982D01*
X65396043Y-88578286D01*
X65409662Y-88678148D01*
X65418920Y-88799876D01*
X65424397Y-88947772D01*
X65426676Y-89126143D01*
X65426706Y-89133379D01*
X65426747Y-89250426D01*
X65425978Y-89355545D01*
X65424502Y-89443752D01*
X65422421Y-89510064D01*
X65419837Y-89549499D01*
X65417978Y-89558320D01*
X65396478Y-89557079D01*
X65349592Y-89540579D01*
X65282148Y-89511295D01*
X65198974Y-89471701D01*
X65104900Y-89424272D01*
X65004754Y-89371480D01*
X64903364Y-89315802D01*
X64805560Y-89259710D01*
X64716170Y-89205679D01*
X64662078Y-89170997D01*
X64540347Y-89082249D01*
X64449494Y-88995466D01*
X64386086Y-88905533D01*
X64346688Y-88807339D01*
X64327866Y-88695770D01*
X64326247Y-88670975D01*
X64319396Y-88611632D01*
X64305781Y-88583868D01*
X64284434Y-88588078D01*
X64254384Y-88624657D01*
X64214662Y-88694000D01*
X64200178Y-88722320D01*
X64129222Y-88899028D01*
X64087249Y-89084305D01*
X64073798Y-89272958D01*
X64088409Y-89459794D01*
X64130620Y-89639621D01*
X64199971Y-89807248D01*
X64296000Y-89957482D01*
X64311531Y-89976812D01*
X64409774Y-90080641D01*
X64539806Y-90193505D01*
X64699882Y-90314307D01*
X64888251Y-90441951D01*
X65103167Y-90575342D01*
X65342881Y-90713384D01*
X65605646Y-90854981D01*
X65889714Y-90999037D01*
X66116375Y-91108356D01*
X66236527Y-91165139D01*
X66328725Y-91208404D01*
X66396791Y-91239380D01*
X66444550Y-91259297D01*
X66475827Y-91269386D01*
X66494444Y-91270875D01*
X66504227Y-91264996D01*
X66508999Y-91252978D01*
X66512584Y-91236050D01*
X66512640Y-91235803D01*
X66517573Y-91196194D01*
X66522008Y-91126183D01*
X66525912Y-91030396D01*
X66529251Y-90913463D01*
X66531992Y-90780012D01*
X66534101Y-90634671D01*
X66535545Y-90482067D01*
X66536289Y-90326831D01*
X66536300Y-90173589D01*
X66535545Y-90026970D01*
X66533990Y-89891602D01*
X66531601Y-89772115D01*
X66528344Y-89673134D01*
X66524500Y-89603448D01*
X66504494Y-89375331D01*
X66479705Y-89178148D01*
X66448788Y-89007965D01*
X66410400Y-88860850D01*
X66363197Y-88732871D01*
X66305833Y-88620097D01*
X66236965Y-88518593D01*
X66155249Y-88424429D01*
X66104307Y-88374310D01*
X65949874Y-88252203D01*
X65777927Y-88156778D01*
X65594002Y-88090038D01*
X65403634Y-88053986D01*
X65212359Y-88050625D01*
X65209970Y-88050799D01*
%TD*%
D17*
%TO.C,X501*%
X42660000Y-94016000D03*
X42660000Y-91984000D03*
X47740000Y-93000000D03*
%TD*%
D18*
%TO.C,W201*%
X51500000Y-86000000D03*
%TD*%
%TO.C,W202*%
X54000000Y-86000000D03*
%TD*%
%TO.C,W203*%
X52500000Y-92000000D03*
%TD*%
%TO.C,W204*%
X55000000Y-92000000D03*
%TD*%
%TO.C,W205*%
X54000000Y-80500000D03*
%TD*%
%TO.C,W206*%
X51500000Y-80500000D03*
%TD*%
%TO.C,W207*%
X51500000Y-83000000D03*
%TD*%
%TO.C,W208*%
X54000000Y-83000000D03*
%TD*%
D19*
%TO.C,W301*%
X48150000Y-78500000D03*
%TD*%
%TO.C,W302*%
X44300000Y-78500000D03*
%TD*%
D20*
%TO.C,X502*%
X76333000Y-80809000D03*
X76333000Y-83603000D03*
X76333000Y-86397000D03*
X76333000Y-89191000D03*
%TD*%
M02*
