%TF.GenerationSoftware,KiCad,Pcbnew,5.1.9-73d0e3b20d~88~ubuntu18.04.1*%
%TF.CreationDate,2021-03-09T14:04:25+01:00*%
%TF.ProjectId,candleLight,63616e64-6c65-44c6-9967-68742e6b6963,R01*%
%TF.SameCoordinates,Original*%
%TF.FileFunction,Copper,L2,Bot*%
%TF.FilePolarity,Positive*%
%FSLAX46Y46*%
G04 Gerber Fmt 4.6, Leading zero omitted, Abs format (unit mm)*
G04 Created by KiCad (PCBNEW 5.1.9-73d0e3b20d~88~ubuntu18.04.1) date 2021-03-09 14:04:25*
%MOMM*%
%LPD*%
G01*
G04 APERTURE LIST*
%ADD10C,0.100000*%
%ADD11C,0.150000*%
%ADD12C,0.300000*%
%ADD13C,0.400000*%
%TA.AperFunction,NonConductor*%
%ADD14C,0.250000*%
%TD*%
%TA.AperFunction,Profile*%
%ADD15C,0.150000*%
%TD*%
%TA.AperFunction,SMDPad,CuDef*%
%ADD16C,1.500000*%
%TD*%
%TA.AperFunction,SMDPad,CuDef*%
%ADD17C,3.000000*%
%TD*%
%TA.AperFunction,ConnectorPad*%
%ADD18R,5.080000X1.778000*%
%TD*%
%TA.AperFunction,ViaPad*%
%ADD19C,0.600000*%
%TD*%
%TA.AperFunction,Conductor*%
%ADD20C,0.250000*%
%TD*%
%TA.AperFunction,Conductor*%
%ADD21C,0.400000*%
%TD*%
%TA.AperFunction,Conductor*%
%ADD22C,0.254000*%
%TD*%
%TA.AperFunction,Conductor*%
%ADD23C,0.100000*%
%TD*%
G04 APERTURE END LIST*
D10*
D11*
X177002200Y-180007200D02*
X177002200Y-200007200D01*
X287002200Y-200007200D01*
X287002200Y-180007200D01*
X177002200Y-180007200D01*
D10*
D11*
X10000000Y-10000000D02*
X10000000Y-200007200D01*
X287002200Y-200007200D01*
X287002200Y-10000000D01*
X10000000Y-10000000D01*
D10*
D11*
X200434342Y-195785771D02*
X200434342Y-194285771D01*
X200791485Y-194285771D01*
X201005771Y-194357200D01*
X201148628Y-194500057D01*
X201220057Y-194642914D01*
X201291485Y-194928628D01*
X201291485Y-195142914D01*
X201220057Y-195428628D01*
X201148628Y-195571485D01*
X201005771Y-195714342D01*
X200791485Y-195785771D01*
X200434342Y-195785771D01*
X202577200Y-195785771D02*
X202577200Y-195000057D01*
X202505771Y-194857200D01*
X202362914Y-194785771D01*
X202077200Y-194785771D01*
X201934342Y-194857200D01*
X202577200Y-195714342D02*
X202434342Y-195785771D01*
X202077200Y-195785771D01*
X201934342Y-195714342D01*
X201862914Y-195571485D01*
X201862914Y-195428628D01*
X201934342Y-195285771D01*
X202077200Y-195214342D01*
X202434342Y-195214342D01*
X202577200Y-195142914D01*
X203077200Y-194785771D02*
X203648628Y-194785771D01*
X203291485Y-194285771D02*
X203291485Y-195571485D01*
X203362914Y-195714342D01*
X203505771Y-195785771D01*
X203648628Y-195785771D01*
X204720057Y-195714342D02*
X204577200Y-195785771D01*
X204291485Y-195785771D01*
X204148628Y-195714342D01*
X204077200Y-195571485D01*
X204077200Y-195000057D01*
X204148628Y-194857200D01*
X204291485Y-194785771D01*
X204577200Y-194785771D01*
X204720057Y-194857200D01*
X204791485Y-195000057D01*
X204791485Y-195142914D01*
X204077200Y-195285771D01*
X205434342Y-195642914D02*
X205505771Y-195714342D01*
X205434342Y-195785771D01*
X205362914Y-195714342D01*
X205434342Y-195642914D01*
X205434342Y-195785771D01*
X205434342Y-194857200D02*
X205505771Y-194928628D01*
X205434342Y-195000057D01*
X205362914Y-194928628D01*
X205434342Y-194857200D01*
X205434342Y-195000057D01*
X206077200Y-194428628D02*
X206148628Y-194357200D01*
X206291485Y-194285771D01*
X206648628Y-194285771D01*
X206791485Y-194357200D01*
X206862914Y-194428628D01*
X206934342Y-194571485D01*
X206934342Y-194714342D01*
X206862914Y-194928628D01*
X206005771Y-195785771D01*
X206934342Y-195785771D01*
X207862914Y-194285771D02*
X208005771Y-194285771D01*
X208148628Y-194357200D01*
X208220057Y-194428628D01*
X208291485Y-194571485D01*
X208362914Y-194857200D01*
X208362914Y-195214342D01*
X208291485Y-195500057D01*
X208220057Y-195642914D01*
X208148628Y-195714342D01*
X208005771Y-195785771D01*
X207862914Y-195785771D01*
X207720057Y-195714342D01*
X207648628Y-195642914D01*
X207577200Y-195500057D01*
X207505771Y-195214342D01*
X207505771Y-194857200D01*
X207577200Y-194571485D01*
X207648628Y-194428628D01*
X207720057Y-194357200D01*
X207862914Y-194285771D01*
X208934342Y-194428628D02*
X209005771Y-194357200D01*
X209148628Y-194285771D01*
X209505771Y-194285771D01*
X209648628Y-194357200D01*
X209720057Y-194428628D01*
X209791485Y-194571485D01*
X209791485Y-194714342D01*
X209720057Y-194928628D01*
X208862914Y-195785771D01*
X209791485Y-195785771D01*
X211220057Y-195785771D02*
X210362914Y-195785771D01*
X210791485Y-195785771D02*
X210791485Y-194285771D01*
X210648628Y-194500057D01*
X210505771Y-194642914D01*
X210362914Y-194714342D01*
X211862914Y-195214342D02*
X213005771Y-195214342D01*
X214005771Y-194285771D02*
X214148628Y-194285771D01*
X214291485Y-194357200D01*
X214362914Y-194428628D01*
X214434342Y-194571485D01*
X214505771Y-194857200D01*
X214505771Y-195214342D01*
X214434342Y-195500057D01*
X214362914Y-195642914D01*
X214291485Y-195714342D01*
X214148628Y-195785771D01*
X214005771Y-195785771D01*
X213862914Y-195714342D01*
X213791485Y-195642914D01*
X213720057Y-195500057D01*
X213648628Y-195214342D01*
X213648628Y-194857200D01*
X213720057Y-194571485D01*
X213791485Y-194428628D01*
X213862914Y-194357200D01*
X214005771Y-194285771D01*
X215005771Y-194285771D02*
X215934342Y-194285771D01*
X215434342Y-194857200D01*
X215648628Y-194857200D01*
X215791485Y-194928628D01*
X215862914Y-195000057D01*
X215934342Y-195142914D01*
X215934342Y-195500057D01*
X215862914Y-195642914D01*
X215791485Y-195714342D01*
X215648628Y-195785771D01*
X215220057Y-195785771D01*
X215077200Y-195714342D01*
X215005771Y-195642914D01*
X216577200Y-195214342D02*
X217720057Y-195214342D01*
X218720057Y-194285771D02*
X218862914Y-194285771D01*
X219005771Y-194357200D01*
X219077200Y-194428628D01*
X219148628Y-194571485D01*
X219220057Y-194857200D01*
X219220057Y-195214342D01*
X219148628Y-195500057D01*
X219077200Y-195642914D01*
X219005771Y-195714342D01*
X218862914Y-195785771D01*
X218720057Y-195785771D01*
X218577200Y-195714342D01*
X218505771Y-195642914D01*
X218434342Y-195500057D01*
X218362914Y-195214342D01*
X218362914Y-194857200D01*
X218434342Y-194571485D01*
X218505771Y-194428628D01*
X218577200Y-194357200D01*
X218720057Y-194285771D01*
X219720057Y-194285771D02*
X220648628Y-194285771D01*
X220148628Y-194857200D01*
X220362914Y-194857200D01*
X220505771Y-194928628D01*
X220577200Y-195000057D01*
X220648628Y-195142914D01*
X220648628Y-195500057D01*
X220577200Y-195642914D01*
X220505771Y-195714342D01*
X220362914Y-195785771D01*
X219934342Y-195785771D01*
X219791485Y-195714342D01*
X219720057Y-195642914D01*
D10*
D11*
X178434342Y-188385771D02*
X178434342Y-186885771D01*
X178934342Y-187385771D02*
X179505771Y-187385771D01*
X179148628Y-186885771D02*
X179148628Y-188171485D01*
X179220057Y-188314342D01*
X179362914Y-188385771D01*
X179505771Y-188385771D01*
X180577200Y-188314342D02*
X180434342Y-188385771D01*
X180148628Y-188385771D01*
X180005771Y-188314342D01*
X179934342Y-188171485D01*
X179934342Y-187600057D01*
X180005771Y-187457200D01*
X180148628Y-187385771D01*
X180434342Y-187385771D01*
X180577200Y-187457200D01*
X180648628Y-187600057D01*
X180648628Y-187742914D01*
X179934342Y-187885771D01*
X181291485Y-188385771D02*
X181291485Y-187385771D01*
X181291485Y-187528628D02*
X181362914Y-187457200D01*
X181505771Y-187385771D01*
X181720057Y-187385771D01*
X181862914Y-187457200D01*
X181934342Y-187600057D01*
X181934342Y-188385771D01*
X181934342Y-187600057D02*
X182005771Y-187457200D01*
X182148628Y-187385771D01*
X182362914Y-187385771D01*
X182505771Y-187457200D01*
X182577200Y-187600057D01*
X182577200Y-188385771D01*
X183291485Y-188242914D02*
X183362914Y-188314342D01*
X183291485Y-188385771D01*
X183220057Y-188314342D01*
X183291485Y-188242914D01*
X183291485Y-188385771D01*
X183291485Y-187457200D02*
X183362914Y-187528628D01*
X183291485Y-187600057D01*
X183220057Y-187528628D01*
X183291485Y-187457200D01*
X183291485Y-187600057D01*
X185791485Y-188314342D02*
X185648628Y-188385771D01*
X185362914Y-188385771D01*
X185220057Y-188314342D01*
X185148628Y-188242914D01*
X185077200Y-188100057D01*
X185077200Y-187671485D01*
X185148628Y-187528628D01*
X185220057Y-187457200D01*
X185362914Y-187385771D01*
X185648628Y-187385771D01*
X185791485Y-187457200D01*
X187077200Y-188385771D02*
X187077200Y-187600057D01*
X187005771Y-187457200D01*
X186862914Y-187385771D01*
X186577200Y-187385771D01*
X186434342Y-187457200D01*
X187077200Y-188314342D02*
X186934342Y-188385771D01*
X186577200Y-188385771D01*
X186434342Y-188314342D01*
X186362914Y-188171485D01*
X186362914Y-188028628D01*
X186434342Y-187885771D01*
X186577200Y-187814342D01*
X186934342Y-187814342D01*
X187077200Y-187742914D01*
X187791485Y-187385771D02*
X187791485Y-188385771D01*
X187791485Y-187528628D02*
X187862914Y-187457200D01*
X188005771Y-187385771D01*
X188220057Y-187385771D01*
X188362914Y-187457200D01*
X188434342Y-187600057D01*
X188434342Y-188385771D01*
X189791485Y-188385771D02*
X189791485Y-186885771D01*
X189791485Y-188314342D02*
X189648628Y-188385771D01*
X189362914Y-188385771D01*
X189220057Y-188314342D01*
X189148628Y-188242914D01*
X189077200Y-188100057D01*
X189077200Y-187671485D01*
X189148628Y-187528628D01*
X189220057Y-187457200D01*
X189362914Y-187385771D01*
X189648628Y-187385771D01*
X189791485Y-187457200D01*
X190720057Y-188385771D02*
X190577200Y-188314342D01*
X190505771Y-188171485D01*
X190505771Y-186885771D01*
X191862914Y-188314342D02*
X191720057Y-188385771D01*
X191434342Y-188385771D01*
X191291485Y-188314342D01*
X191220057Y-188171485D01*
X191220057Y-187600057D01*
X191291485Y-187457200D01*
X191434342Y-187385771D01*
X191720057Y-187385771D01*
X191862914Y-187457200D01*
X191934342Y-187600057D01*
X191934342Y-187742914D01*
X191220057Y-187885771D01*
X192791485Y-188385771D02*
X192648628Y-188314342D01*
X192577200Y-188171485D01*
X192577200Y-186885771D01*
X193362914Y-188385771D02*
X193362914Y-187385771D01*
X193362914Y-186885771D02*
X193291485Y-186957200D01*
X193362914Y-187028628D01*
X193434342Y-186957200D01*
X193362914Y-186885771D01*
X193362914Y-187028628D01*
X194720057Y-187385771D02*
X194720057Y-188600057D01*
X194648628Y-188742914D01*
X194577200Y-188814342D01*
X194434342Y-188885771D01*
X194220057Y-188885771D01*
X194077200Y-188814342D01*
X194720057Y-188314342D02*
X194577200Y-188385771D01*
X194291485Y-188385771D01*
X194148628Y-188314342D01*
X194077200Y-188242914D01*
X194005771Y-188100057D01*
X194005771Y-187671485D01*
X194077200Y-187528628D01*
X194148628Y-187457200D01*
X194291485Y-187385771D01*
X194577200Y-187385771D01*
X194720057Y-187457200D01*
X195434342Y-188385771D02*
X195434342Y-186885771D01*
X196077200Y-188385771D02*
X196077200Y-187600057D01*
X196005771Y-187457200D01*
X195862914Y-187385771D01*
X195648628Y-187385771D01*
X195505771Y-187457200D01*
X195434342Y-187528628D01*
X196577200Y-187385771D02*
X197148628Y-187385771D01*
X196791485Y-186885771D02*
X196791485Y-188171485D01*
X196862914Y-188314342D01*
X197005771Y-188385771D01*
X197148628Y-188385771D01*
X197648628Y-187814342D02*
X198791485Y-187814342D01*
X199505771Y-188385771D02*
X199505771Y-186885771D01*
X200077200Y-186885771D01*
X200220057Y-186957200D01*
X200291485Y-187028628D01*
X200362914Y-187171485D01*
X200362914Y-187385771D01*
X200291485Y-187528628D01*
X200220057Y-187600057D01*
X200077200Y-187671485D01*
X199505771Y-187671485D01*
X201291485Y-186885771D02*
X201434342Y-186885771D01*
X201577200Y-186957200D01*
X201648628Y-187028628D01*
X201720057Y-187171485D01*
X201791485Y-187457200D01*
X201791485Y-187814342D01*
X201720057Y-188100057D01*
X201648628Y-188242914D01*
X201577200Y-188314342D01*
X201434342Y-188385771D01*
X201291485Y-188385771D01*
X201148628Y-188314342D01*
X201077200Y-188242914D01*
X201005771Y-188100057D01*
X200934342Y-187814342D01*
X200934342Y-187457200D01*
X201005771Y-187171485D01*
X201077200Y-187028628D01*
X201148628Y-186957200D01*
X201291485Y-186885771D01*
X203220057Y-188385771D02*
X202362914Y-188385771D01*
X202791485Y-188385771D02*
X202791485Y-186885771D01*
X202648628Y-187100057D01*
X202505771Y-187242914D01*
X202362914Y-187314342D01*
X203862914Y-187814342D02*
X205005771Y-187814342D01*
X206577200Y-188385771D02*
X206077200Y-187671485D01*
X205720057Y-188385771D02*
X205720057Y-186885771D01*
X206291485Y-186885771D01*
X206434342Y-186957200D01*
X206505771Y-187028628D01*
X206577200Y-187171485D01*
X206577200Y-187385771D01*
X206505771Y-187528628D01*
X206434342Y-187600057D01*
X206291485Y-187671485D01*
X205720057Y-187671485D01*
X207505771Y-186885771D02*
X207648628Y-186885771D01*
X207791485Y-186957200D01*
X207862914Y-187028628D01*
X207934342Y-187171485D01*
X208005771Y-187457200D01*
X208005771Y-187814342D01*
X207934342Y-188100057D01*
X207862914Y-188242914D01*
X207791485Y-188314342D01*
X207648628Y-188385771D01*
X207505771Y-188385771D01*
X207362914Y-188314342D01*
X207291485Y-188242914D01*
X207220057Y-188100057D01*
X207148628Y-187814342D01*
X207148628Y-187457200D01*
X207220057Y-187171485D01*
X207291485Y-187028628D01*
X207362914Y-186957200D01*
X207505771Y-186885771D01*
X209434342Y-188385771D02*
X208577200Y-188385771D01*
X209005771Y-188385771D02*
X209005771Y-186885771D01*
X208862914Y-187100057D01*
X208720057Y-187242914D01*
X208577200Y-187314342D01*
X210077200Y-187814342D02*
X211220057Y-187814342D01*
X212434342Y-187600057D02*
X212648628Y-187671485D01*
X212720057Y-187742914D01*
X212791485Y-187885771D01*
X212791485Y-188100057D01*
X212720057Y-188242914D01*
X212648628Y-188314342D01*
X212505771Y-188385771D01*
X211934342Y-188385771D01*
X211934342Y-186885771D01*
X212434342Y-186885771D01*
X212577200Y-186957200D01*
X212648628Y-187028628D01*
X212720057Y-187171485D01*
X212720057Y-187314342D01*
X212648628Y-187457200D01*
X212577200Y-187528628D01*
X212434342Y-187600057D01*
X211934342Y-187600057D01*
X213720057Y-186885771D02*
X213862914Y-186885771D01*
X214005771Y-186957200D01*
X214077200Y-187028628D01*
X214148628Y-187171485D01*
X214220057Y-187457200D01*
X214220057Y-187814342D01*
X214148628Y-188100057D01*
X214077200Y-188242914D01*
X214005771Y-188314342D01*
X213862914Y-188385771D01*
X213720057Y-188385771D01*
X213577200Y-188314342D01*
X213505771Y-188242914D01*
X213434342Y-188100057D01*
X213362914Y-187814342D01*
X213362914Y-187457200D01*
X213434342Y-187171485D01*
X213505771Y-187028628D01*
X213577200Y-186957200D01*
X213720057Y-186885771D01*
X215648628Y-188385771D02*
X214791485Y-188385771D01*
X215220057Y-188385771D02*
X215220057Y-186885771D01*
X215077200Y-187100057D01*
X214934342Y-187242914D01*
X214791485Y-187314342D01*
X216291485Y-187814342D02*
X217434342Y-187814342D01*
X219005771Y-188242914D02*
X218934342Y-188314342D01*
X218720057Y-188385771D01*
X218577200Y-188385771D01*
X218362914Y-188314342D01*
X218220057Y-188171485D01*
X218148628Y-188028628D01*
X218077200Y-187742914D01*
X218077200Y-187528628D01*
X218148628Y-187242914D01*
X218220057Y-187100057D01*
X218362914Y-186957200D01*
X218577200Y-186885771D01*
X218720057Y-186885771D01*
X218934342Y-186957200D01*
X219005771Y-187028628D01*
X219934342Y-186885771D02*
X220077200Y-186885771D01*
X220220057Y-186957200D01*
X220291485Y-187028628D01*
X220362914Y-187171485D01*
X220434342Y-187457200D01*
X220434342Y-187814342D01*
X220362914Y-188100057D01*
X220291485Y-188242914D01*
X220220057Y-188314342D01*
X220077200Y-188385771D01*
X219934342Y-188385771D01*
X219791485Y-188314342D01*
X219720057Y-188242914D01*
X219648628Y-188100057D01*
X219577200Y-187814342D01*
X219577200Y-187457200D01*
X219648628Y-187171485D01*
X219720057Y-187028628D01*
X219791485Y-186957200D01*
X219934342Y-186885771D01*
X221362914Y-186885771D02*
X221505771Y-186885771D01*
X221648628Y-186957200D01*
X221720057Y-187028628D01*
X221791485Y-187171485D01*
X221862914Y-187457200D01*
X221862914Y-187814342D01*
X221791485Y-188100057D01*
X221720057Y-188242914D01*
X221648628Y-188314342D01*
X221505771Y-188385771D01*
X221362914Y-188385771D01*
X221220057Y-188314342D01*
X221148628Y-188242914D01*
X221077200Y-188100057D01*
X221005771Y-187814342D01*
X221005771Y-187457200D01*
X221077200Y-187171485D01*
X221148628Y-187028628D01*
X221220057Y-186957200D01*
X221362914Y-186885771D01*
D10*
D11*
X177002200Y-196507200D02*
X287002200Y-196507200D01*
D10*
D11*
X178434342Y-198585771D02*
X178434342Y-197085771D01*
X179291485Y-198585771D02*
X178648628Y-197728628D01*
X179291485Y-197085771D02*
X178434342Y-197942914D01*
X179934342Y-198585771D02*
X179934342Y-197585771D01*
X179934342Y-197085771D02*
X179862914Y-197157200D01*
X179934342Y-197228628D01*
X180005771Y-197157200D01*
X179934342Y-197085771D01*
X179934342Y-197228628D01*
X181505771Y-198442914D02*
X181434342Y-198514342D01*
X181220057Y-198585771D01*
X181077200Y-198585771D01*
X180862914Y-198514342D01*
X180720057Y-198371485D01*
X180648628Y-198228628D01*
X180577200Y-197942914D01*
X180577200Y-197728628D01*
X180648628Y-197442914D01*
X180720057Y-197300057D01*
X180862914Y-197157200D01*
X181077200Y-197085771D01*
X181220057Y-197085771D01*
X181434342Y-197157200D01*
X181505771Y-197228628D01*
X182791485Y-198585771D02*
X182791485Y-197800057D01*
X182720057Y-197657200D01*
X182577200Y-197585771D01*
X182291485Y-197585771D01*
X182148628Y-197657200D01*
X182791485Y-198514342D02*
X182648628Y-198585771D01*
X182291485Y-198585771D01*
X182148628Y-198514342D01*
X182077200Y-198371485D01*
X182077200Y-198228628D01*
X182148628Y-198085771D01*
X182291485Y-198014342D01*
X182648628Y-198014342D01*
X182791485Y-197942914D01*
X184148628Y-198585771D02*
X184148628Y-197085771D01*
X184148628Y-198514342D02*
X184005771Y-198585771D01*
X183720057Y-198585771D01*
X183577200Y-198514342D01*
X183505771Y-198442914D01*
X183434342Y-198300057D01*
X183434342Y-197871485D01*
X183505771Y-197728628D01*
X183577200Y-197657200D01*
X183720057Y-197585771D01*
X184005771Y-197585771D01*
X184148628Y-197657200D01*
X186005771Y-197800057D02*
X186505771Y-197800057D01*
X186720057Y-198585771D02*
X186005771Y-198585771D01*
X186005771Y-197085771D01*
X186720057Y-197085771D01*
X187362914Y-198442914D02*
X187434342Y-198514342D01*
X187362914Y-198585771D01*
X187291485Y-198514342D01*
X187362914Y-198442914D01*
X187362914Y-198585771D01*
X188077200Y-198585771D02*
X188077200Y-197085771D01*
X188434342Y-197085771D01*
X188648628Y-197157200D01*
X188791485Y-197300057D01*
X188862914Y-197442914D01*
X188934342Y-197728628D01*
X188934342Y-197942914D01*
X188862914Y-198228628D01*
X188791485Y-198371485D01*
X188648628Y-198514342D01*
X188434342Y-198585771D01*
X188077200Y-198585771D01*
X189577200Y-198442914D02*
X189648628Y-198514342D01*
X189577200Y-198585771D01*
X189505771Y-198514342D01*
X189577200Y-198442914D01*
X189577200Y-198585771D01*
X190220057Y-198157200D02*
X190934342Y-198157200D01*
X190077200Y-198585771D02*
X190577200Y-197085771D01*
X191077200Y-198585771D01*
X191577200Y-198442914D02*
X191648628Y-198514342D01*
X191577200Y-198585771D01*
X191505771Y-198514342D01*
X191577200Y-198442914D01*
X191577200Y-198585771D01*
D10*
D11*
X177002200Y-193507200D02*
X287002200Y-193507200D01*
D10*
D12*
X266411485Y-195785771D02*
X265911485Y-195071485D01*
X265554342Y-195785771D02*
X265554342Y-194285771D01*
X266125771Y-194285771D01*
X266268628Y-194357200D01*
X266340057Y-194428628D01*
X266411485Y-194571485D01*
X266411485Y-194785771D01*
X266340057Y-194928628D01*
X266268628Y-195000057D01*
X266125771Y-195071485D01*
X265554342Y-195071485D01*
X267625771Y-195714342D02*
X267482914Y-195785771D01*
X267197200Y-195785771D01*
X267054342Y-195714342D01*
X266982914Y-195571485D01*
X266982914Y-195000057D01*
X267054342Y-194857200D01*
X267197200Y-194785771D01*
X267482914Y-194785771D01*
X267625771Y-194857200D01*
X267697200Y-195000057D01*
X267697200Y-195142914D01*
X266982914Y-195285771D01*
X268197200Y-194785771D02*
X268554342Y-195785771D01*
X268911485Y-194785771D01*
X269482914Y-195642914D02*
X269554342Y-195714342D01*
X269482914Y-195785771D01*
X269411485Y-195714342D01*
X269482914Y-195642914D01*
X269482914Y-195785771D01*
X269482914Y-194857200D02*
X269554342Y-194928628D01*
X269482914Y-195000057D01*
X269411485Y-194928628D01*
X269482914Y-194857200D01*
X269482914Y-195000057D01*
X272197200Y-195785771D02*
X271697200Y-195071485D01*
X271340057Y-195785771D02*
X271340057Y-194285771D01*
X271911485Y-194285771D01*
X272054342Y-194357200D01*
X272125771Y-194428628D01*
X272197200Y-194571485D01*
X272197200Y-194785771D01*
X272125771Y-194928628D01*
X272054342Y-195000057D01*
X271911485Y-195071485D01*
X271340057Y-195071485D01*
X273125771Y-194285771D02*
X273268628Y-194285771D01*
X273411485Y-194357200D01*
X273482914Y-194428628D01*
X273554342Y-194571485D01*
X273625771Y-194857200D01*
X273625771Y-195214342D01*
X273554342Y-195500057D01*
X273482914Y-195642914D01*
X273411485Y-195714342D01*
X273268628Y-195785771D01*
X273125771Y-195785771D01*
X272982914Y-195714342D01*
X272911485Y-195642914D01*
X272840057Y-195500057D01*
X272768628Y-195214342D01*
X272768628Y-194857200D01*
X272840057Y-194571485D01*
X272911485Y-194428628D01*
X272982914Y-194357200D01*
X273125771Y-194285771D01*
X275054342Y-195785771D02*
X274197200Y-195785771D01*
X274625771Y-195785771D02*
X274625771Y-194285771D01*
X274482914Y-194500057D01*
X274340057Y-194642914D01*
X274197200Y-194714342D01*
D10*
D11*
X178362914Y-195714342D02*
X178577200Y-195785771D01*
X178934342Y-195785771D01*
X179077200Y-195714342D01*
X179148628Y-195642914D01*
X179220057Y-195500057D01*
X179220057Y-195357200D01*
X179148628Y-195214342D01*
X179077200Y-195142914D01*
X178934342Y-195071485D01*
X178648628Y-195000057D01*
X178505771Y-194928628D01*
X178434342Y-194857200D01*
X178362914Y-194714342D01*
X178362914Y-194571485D01*
X178434342Y-194428628D01*
X178505771Y-194357200D01*
X178648628Y-194285771D01*
X179005771Y-194285771D01*
X179220057Y-194357200D01*
X179862914Y-195785771D02*
X179862914Y-194785771D01*
X179862914Y-194285771D02*
X179791485Y-194357200D01*
X179862914Y-194428628D01*
X179934342Y-194357200D01*
X179862914Y-194285771D01*
X179862914Y-194428628D01*
X180434342Y-194785771D02*
X181220057Y-194785771D01*
X180434342Y-195785771D01*
X181220057Y-195785771D01*
X182362914Y-195714342D02*
X182220057Y-195785771D01*
X181934342Y-195785771D01*
X181791485Y-195714342D01*
X181720057Y-195571485D01*
X181720057Y-195000057D01*
X181791485Y-194857200D01*
X181934342Y-194785771D01*
X182220057Y-194785771D01*
X182362914Y-194857200D01*
X182434342Y-195000057D01*
X182434342Y-195142914D01*
X181720057Y-195285771D01*
X183077200Y-195642914D02*
X183148628Y-195714342D01*
X183077200Y-195785771D01*
X183005771Y-195714342D01*
X183077200Y-195642914D01*
X183077200Y-195785771D01*
X183077200Y-194857200D02*
X183148628Y-194928628D01*
X183077200Y-195000057D01*
X183005771Y-194928628D01*
X183077200Y-194857200D01*
X183077200Y-195000057D01*
X184862914Y-195357200D02*
X185577200Y-195357200D01*
X184720057Y-195785771D02*
X185220057Y-194285771D01*
X185720057Y-195785771D01*
X186862914Y-194785771D02*
X186862914Y-195785771D01*
X186505771Y-194214342D02*
X186148628Y-195285771D01*
X187077200Y-195285771D01*
D10*
D11*
X265362914Y-198514342D02*
X265577200Y-198585771D01*
X265934342Y-198585771D01*
X266077200Y-198514342D01*
X266148628Y-198442914D01*
X266220057Y-198300057D01*
X266220057Y-198157200D01*
X266148628Y-198014342D01*
X266077200Y-197942914D01*
X265934342Y-197871485D01*
X265648628Y-197800057D01*
X265505771Y-197728628D01*
X265434342Y-197657200D01*
X265362914Y-197514342D01*
X265362914Y-197371485D01*
X265434342Y-197228628D01*
X265505771Y-197157200D01*
X265648628Y-197085771D01*
X266005771Y-197085771D01*
X266220057Y-197157200D01*
X266862914Y-198585771D02*
X266862914Y-197085771D01*
X267505771Y-198585771D02*
X267505771Y-197800057D01*
X267434342Y-197657200D01*
X267291485Y-197585771D01*
X267077200Y-197585771D01*
X266934342Y-197657200D01*
X266862914Y-197728628D01*
X268791485Y-198514342D02*
X268648628Y-198585771D01*
X268362914Y-198585771D01*
X268220057Y-198514342D01*
X268148628Y-198371485D01*
X268148628Y-197800057D01*
X268220057Y-197657200D01*
X268362914Y-197585771D01*
X268648628Y-197585771D01*
X268791485Y-197657200D01*
X268862914Y-197800057D01*
X268862914Y-197942914D01*
X268148628Y-198085771D01*
X270077200Y-198514342D02*
X269934342Y-198585771D01*
X269648628Y-198585771D01*
X269505771Y-198514342D01*
X269434342Y-198371485D01*
X269434342Y-197800057D01*
X269505771Y-197657200D01*
X269648628Y-197585771D01*
X269934342Y-197585771D01*
X270077200Y-197657200D01*
X270148628Y-197800057D01*
X270148628Y-197942914D01*
X269434342Y-198085771D01*
X270577200Y-197585771D02*
X271148628Y-197585771D01*
X270791485Y-197085771D02*
X270791485Y-198371485D01*
X270862914Y-198514342D01*
X271005771Y-198585771D01*
X271148628Y-198585771D01*
X273577200Y-198585771D02*
X272720057Y-198585771D01*
X273148628Y-198585771D02*
X273148628Y-197085771D01*
X273005771Y-197300057D01*
X272862914Y-197442914D01*
X272720057Y-197514342D01*
X275291485Y-197014342D02*
X274005771Y-198942914D01*
X276577200Y-198585771D02*
X275720057Y-198585771D01*
X276148628Y-198585771D02*
X276148628Y-197085771D01*
X276005771Y-197300057D01*
X275862914Y-197442914D01*
X275720057Y-197514342D01*
D10*
D11*
X177002200Y-189507200D02*
X287002200Y-189507200D01*
D10*
D13*
X178452676Y-190211961D02*
X179595533Y-190211961D01*
X179024104Y-192211961D02*
X179024104Y-190211961D01*
X180262200Y-192211961D02*
X180262200Y-190878628D01*
X180262200Y-190211961D02*
X180166961Y-190307200D01*
X180262200Y-190402438D01*
X180357438Y-190307200D01*
X180262200Y-190211961D01*
X180262200Y-190402438D01*
X180928866Y-190878628D02*
X181690771Y-190878628D01*
X181214580Y-190211961D02*
X181214580Y-191926247D01*
X181309819Y-192116723D01*
X181500295Y-192211961D01*
X181690771Y-192211961D01*
X182643152Y-192211961D02*
X182452676Y-192116723D01*
X182357438Y-191926247D01*
X182357438Y-190211961D01*
X184166961Y-192116723D02*
X183976485Y-192211961D01*
X183595533Y-192211961D01*
X183405057Y-192116723D01*
X183309819Y-191926247D01*
X183309819Y-191164342D01*
X183405057Y-190973866D01*
X183595533Y-190878628D01*
X183976485Y-190878628D01*
X184166961Y-190973866D01*
X184262200Y-191164342D01*
X184262200Y-191354819D01*
X183309819Y-191545295D01*
X185119342Y-192021485D02*
X185214580Y-192116723D01*
X185119342Y-192211961D01*
X185024104Y-192116723D01*
X185119342Y-192021485D01*
X185119342Y-192211961D01*
X185119342Y-190973866D02*
X185214580Y-191069104D01*
X185119342Y-191164342D01*
X185024104Y-191069104D01*
X185119342Y-190973866D01*
X185119342Y-191164342D01*
X188452676Y-192116723D02*
X188262200Y-192211961D01*
X187881247Y-192211961D01*
X187690771Y-192116723D01*
X187595533Y-192021485D01*
X187500295Y-191831009D01*
X187500295Y-191259580D01*
X187595533Y-191069104D01*
X187690771Y-190973866D01*
X187881247Y-190878628D01*
X188262200Y-190878628D01*
X188452676Y-190973866D01*
X190166961Y-192211961D02*
X190166961Y-191164342D01*
X190071723Y-190973866D01*
X189881247Y-190878628D01*
X189500295Y-190878628D01*
X189309819Y-190973866D01*
X190166961Y-192116723D02*
X189976485Y-192211961D01*
X189500295Y-192211961D01*
X189309819Y-192116723D01*
X189214580Y-191926247D01*
X189214580Y-191735771D01*
X189309819Y-191545295D01*
X189500295Y-191450057D01*
X189976485Y-191450057D01*
X190166961Y-191354819D01*
X191119342Y-190878628D02*
X191119342Y-192211961D01*
X191119342Y-191069104D02*
X191214580Y-190973866D01*
X191405057Y-190878628D01*
X191690771Y-190878628D01*
X191881247Y-190973866D01*
X191976485Y-191164342D01*
X191976485Y-192211961D01*
X193786009Y-192211961D02*
X193786009Y-190211961D01*
X193786009Y-192116723D02*
X193595533Y-192211961D01*
X193214580Y-192211961D01*
X193024104Y-192116723D01*
X192928866Y-192021485D01*
X192833628Y-191831009D01*
X192833628Y-191259580D01*
X192928866Y-191069104D01*
X193024104Y-190973866D01*
X193214580Y-190878628D01*
X193595533Y-190878628D01*
X193786009Y-190973866D01*
X195024104Y-192211961D02*
X194833628Y-192116723D01*
X194738390Y-191926247D01*
X194738390Y-190211961D01*
X196547914Y-192116723D02*
X196357438Y-192211961D01*
X195976485Y-192211961D01*
X195786009Y-192116723D01*
X195690771Y-191926247D01*
X195690771Y-191164342D01*
X195786009Y-190973866D01*
X195976485Y-190878628D01*
X196357438Y-190878628D01*
X196547914Y-190973866D01*
X196643152Y-191164342D01*
X196643152Y-191354819D01*
X195690771Y-191545295D01*
X198452676Y-192211961D02*
X197500295Y-192211961D01*
X197500295Y-190211961D01*
X199119342Y-192211961D02*
X199119342Y-190878628D01*
X199119342Y-190211961D02*
X199024104Y-190307200D01*
X199119342Y-190402438D01*
X199214580Y-190307200D01*
X199119342Y-190211961D01*
X199119342Y-190402438D01*
X200928866Y-190878628D02*
X200928866Y-192497676D01*
X200833628Y-192688152D01*
X200738390Y-192783390D01*
X200547914Y-192878628D01*
X200262200Y-192878628D01*
X200071723Y-192783390D01*
X200928866Y-192116723D02*
X200738390Y-192211961D01*
X200357438Y-192211961D01*
X200166961Y-192116723D01*
X200071723Y-192021485D01*
X199976485Y-191831009D01*
X199976485Y-191259580D01*
X200071723Y-191069104D01*
X200166961Y-190973866D01*
X200357438Y-190878628D01*
X200738390Y-190878628D01*
X200928866Y-190973866D01*
X201881247Y-192211961D02*
X201881247Y-190211961D01*
X202738390Y-192211961D02*
X202738390Y-191164342D01*
X202643152Y-190973866D01*
X202452676Y-190878628D01*
X202166961Y-190878628D01*
X201976485Y-190973866D01*
X201881247Y-191069104D01*
X203405057Y-190878628D02*
X204166961Y-190878628D01*
X203690771Y-190211961D02*
X203690771Y-191926247D01*
X203786009Y-192116723D01*
X203976485Y-192211961D01*
X204166961Y-192211961D01*
D10*
D11*
X177002200Y-183507200D02*
X287002200Y-183507200D01*
D10*
D12*
X179268628Y-182685771D02*
X178554342Y-182685771D01*
X178554342Y-181185771D01*
X179768628Y-182685771D02*
X179768628Y-181685771D01*
X179768628Y-181185771D02*
X179697200Y-181257200D01*
X179768628Y-181328628D01*
X179840057Y-181257200D01*
X179768628Y-181185771D01*
X179768628Y-181328628D01*
X180482914Y-181685771D02*
X180482914Y-182685771D01*
X180482914Y-181828628D02*
X180554342Y-181757200D01*
X180697200Y-181685771D01*
X180911485Y-181685771D01*
X181054342Y-181757200D01*
X181125771Y-181900057D01*
X181125771Y-182685771D01*
X182482914Y-181685771D02*
X182482914Y-182685771D01*
X181840057Y-181685771D02*
X181840057Y-182471485D01*
X181911485Y-182614342D01*
X182054342Y-182685771D01*
X182268628Y-182685771D01*
X182411485Y-182614342D01*
X182482914Y-182542914D01*
X183054342Y-182685771D02*
X183840057Y-181685771D01*
X183054342Y-181685771D02*
X183840057Y-182685771D01*
X185482914Y-182257200D02*
X186197200Y-182257200D01*
X185340057Y-182685771D02*
X185840057Y-181185771D01*
X186340057Y-182685771D01*
X187482914Y-181685771D02*
X187482914Y-182685771D01*
X186840057Y-181685771D02*
X186840057Y-182471485D01*
X186911485Y-182614342D01*
X187054342Y-182685771D01*
X187268628Y-182685771D01*
X187411485Y-182614342D01*
X187482914Y-182542914D01*
X187982914Y-181685771D02*
X188554342Y-181685771D01*
X188197200Y-181185771D02*
X188197200Y-182471485D01*
X188268628Y-182614342D01*
X188411485Y-182685771D01*
X188554342Y-182685771D01*
X189268628Y-182685771D02*
X189125771Y-182614342D01*
X189054342Y-182542914D01*
X188982914Y-182400057D01*
X188982914Y-181971485D01*
X189054342Y-181828628D01*
X189125771Y-181757200D01*
X189268628Y-181685771D01*
X189482914Y-181685771D01*
X189625771Y-181757200D01*
X189697200Y-181828628D01*
X189768628Y-181971485D01*
X189768628Y-182400057D01*
X189697200Y-182542914D01*
X189625771Y-182614342D01*
X189482914Y-182685771D01*
X189268628Y-182685771D01*
X190411485Y-182685771D02*
X190411485Y-181685771D01*
X190411485Y-181828628D02*
X190482914Y-181757200D01*
X190625771Y-181685771D01*
X190840057Y-181685771D01*
X190982914Y-181757200D01*
X191054342Y-181900057D01*
X191054342Y-182685771D01*
X191054342Y-181900057D02*
X191125771Y-181757200D01*
X191268628Y-181685771D01*
X191482914Y-181685771D01*
X191625771Y-181757200D01*
X191697200Y-181900057D01*
X191697200Y-182685771D01*
X193054342Y-182685771D02*
X193054342Y-181900057D01*
X192982914Y-181757200D01*
X192840057Y-181685771D01*
X192554342Y-181685771D01*
X192411485Y-181757200D01*
X193054342Y-182614342D02*
X192911485Y-182685771D01*
X192554342Y-182685771D01*
X192411485Y-182614342D01*
X192340057Y-182471485D01*
X192340057Y-182328628D01*
X192411485Y-182185771D01*
X192554342Y-182114342D01*
X192911485Y-182114342D01*
X193054342Y-182042914D01*
X193554342Y-181685771D02*
X194125771Y-181685771D01*
X193768628Y-181185771D02*
X193768628Y-182471485D01*
X193840057Y-182614342D01*
X193982914Y-182685771D01*
X194125771Y-182685771D01*
X194625771Y-182685771D02*
X194625771Y-181685771D01*
X194625771Y-181185771D02*
X194554342Y-181257200D01*
X194625771Y-181328628D01*
X194697200Y-181257200D01*
X194625771Y-181185771D01*
X194625771Y-181328628D01*
X195554342Y-182685771D02*
X195411485Y-182614342D01*
X195340057Y-182542914D01*
X195268628Y-182400057D01*
X195268628Y-181971485D01*
X195340057Y-181828628D01*
X195411485Y-181757200D01*
X195554342Y-181685771D01*
X195768628Y-181685771D01*
X195911485Y-181757200D01*
X195982914Y-181828628D01*
X196054342Y-181971485D01*
X196054342Y-182400057D01*
X195982914Y-182542914D01*
X195911485Y-182614342D01*
X195768628Y-182685771D01*
X195554342Y-182685771D01*
X196697200Y-181685771D02*
X196697200Y-182685771D01*
X196697200Y-181828628D02*
X196768628Y-181757200D01*
X196911485Y-181685771D01*
X197125771Y-181685771D01*
X197268628Y-181757200D01*
X197340057Y-181900057D01*
X197340057Y-182685771D01*
X199982914Y-181257200D02*
X199840057Y-181185771D01*
X199625771Y-181185771D01*
X199411485Y-181257200D01*
X199268628Y-181400057D01*
X199197200Y-181542914D01*
X199125771Y-181828628D01*
X199125771Y-182042914D01*
X199197200Y-182328628D01*
X199268628Y-182471485D01*
X199411485Y-182614342D01*
X199625771Y-182685771D01*
X199768628Y-182685771D01*
X199982914Y-182614342D01*
X200054342Y-182542914D01*
X200054342Y-182042914D01*
X199768628Y-182042914D01*
X200697200Y-182685771D02*
X200697200Y-181685771D01*
X200697200Y-181828628D02*
X200768628Y-181757200D01*
X200911485Y-181685771D01*
X201125771Y-181685771D01*
X201268628Y-181757200D01*
X201340057Y-181900057D01*
X201340057Y-182685771D01*
X201340057Y-181900057D02*
X201411485Y-181757200D01*
X201554342Y-181685771D01*
X201768628Y-181685771D01*
X201911485Y-181757200D01*
X201982914Y-181900057D01*
X201982914Y-182685771D01*
X202697200Y-182685771D02*
X202697200Y-181185771D01*
X202697200Y-181757200D02*
X202840057Y-181685771D01*
X203125771Y-181685771D01*
X203268628Y-181757200D01*
X203340057Y-181828628D01*
X203411485Y-181971485D01*
X203411485Y-182400057D01*
X203340057Y-182542914D01*
X203268628Y-182614342D01*
X203125771Y-182685771D01*
X202840057Y-182685771D01*
X202697200Y-182614342D01*
X204054342Y-182685771D02*
X204054342Y-181185771D01*
X204054342Y-181900057D02*
X204911485Y-181900057D01*
X204911485Y-182685771D02*
X204911485Y-181185771D01*
D10*
D11*
X201077200Y-197585771D02*
X201077200Y-198800057D01*
X201005771Y-198942914D01*
X200934342Y-199014342D01*
X200791485Y-199085771D01*
X200577200Y-199085771D01*
X200434342Y-199014342D01*
X201077200Y-198514342D02*
X200934342Y-198585771D01*
X200648628Y-198585771D01*
X200505771Y-198514342D01*
X200434342Y-198442914D01*
X200362914Y-198300057D01*
X200362914Y-197871485D01*
X200434342Y-197728628D01*
X200505771Y-197657200D01*
X200648628Y-197585771D01*
X200934342Y-197585771D01*
X201077200Y-197657200D01*
X201791485Y-198585771D02*
X201791485Y-197585771D01*
X201791485Y-197085771D02*
X201720057Y-197157200D01*
X201791485Y-197228628D01*
X201862914Y-197157200D01*
X201791485Y-197085771D01*
X201791485Y-197228628D01*
X202291485Y-197585771D02*
X202862914Y-197585771D01*
X202505771Y-197085771D02*
X202505771Y-198371485D01*
X202577200Y-198514342D01*
X202720057Y-198585771D01*
X202862914Y-198585771D01*
X203362914Y-198442914D02*
X203434342Y-198514342D01*
X203362914Y-198585771D01*
X203291485Y-198514342D01*
X203362914Y-198442914D01*
X203362914Y-198585771D01*
X203362914Y-197657200D02*
X203434342Y-197728628D01*
X203362914Y-197800057D01*
X203291485Y-197728628D01*
X203362914Y-197657200D01*
X203362914Y-197800057D01*
X205862914Y-197585771D02*
X205862914Y-198800057D01*
X205791485Y-198942914D01*
X205720057Y-199014342D01*
X205577200Y-199085771D01*
X205362914Y-199085771D01*
X205220057Y-199014342D01*
X205862914Y-198514342D02*
X205720057Y-198585771D01*
X205434342Y-198585771D01*
X205291485Y-198514342D01*
X205220057Y-198442914D01*
X205148628Y-198300057D01*
X205148628Y-197871485D01*
X205220057Y-197728628D01*
X205291485Y-197657200D01*
X205434342Y-197585771D01*
X205720057Y-197585771D01*
X205862914Y-197657200D01*
X206577200Y-198585771D02*
X206577200Y-197585771D01*
X206577200Y-197085771D02*
X206505771Y-197157200D01*
X206577200Y-197228628D01*
X206648628Y-197157200D01*
X206577200Y-197085771D01*
X206577200Y-197228628D01*
X207077200Y-197585771D02*
X207648628Y-197585771D01*
X207291485Y-197085771D02*
X207291485Y-198371485D01*
X207362914Y-198514342D01*
X207505771Y-198585771D01*
X207648628Y-198585771D01*
X208148628Y-198585771D02*
X208148628Y-197085771D01*
X208791485Y-198585771D02*
X208791485Y-197800057D01*
X208720057Y-197657200D01*
X208577200Y-197585771D01*
X208362914Y-197585771D01*
X208220057Y-197657200D01*
X208148628Y-197728628D01*
X210148628Y-197585771D02*
X210148628Y-198585771D01*
X209505771Y-197585771D02*
X209505771Y-198371485D01*
X209577200Y-198514342D01*
X209720057Y-198585771D01*
X209934342Y-198585771D01*
X210077200Y-198514342D01*
X210148628Y-198442914D01*
X210862914Y-198585771D02*
X210862914Y-197085771D01*
X210862914Y-197657200D02*
X211005771Y-197585771D01*
X211291485Y-197585771D01*
X211434342Y-197657200D01*
X211505771Y-197728628D01*
X211577200Y-197871485D01*
X211577200Y-198300057D01*
X211505771Y-198442914D01*
X211434342Y-198514342D01*
X211291485Y-198585771D01*
X211005771Y-198585771D01*
X210862914Y-198514342D01*
X212220057Y-198442914D02*
X212291485Y-198514342D01*
X212220057Y-198585771D01*
X212148628Y-198514342D01*
X212220057Y-198442914D01*
X212220057Y-198585771D01*
X213577200Y-198514342D02*
X213434342Y-198585771D01*
X213148628Y-198585771D01*
X213005771Y-198514342D01*
X212934342Y-198442914D01*
X212862914Y-198300057D01*
X212862914Y-197871485D01*
X212934342Y-197728628D01*
X213005771Y-197657200D01*
X213148628Y-197585771D01*
X213434342Y-197585771D01*
X213577200Y-197657200D01*
X214434342Y-198585771D02*
X214291485Y-198514342D01*
X214220057Y-198442914D01*
X214148628Y-198300057D01*
X214148628Y-197871485D01*
X214220057Y-197728628D01*
X214291485Y-197657200D01*
X214434342Y-197585771D01*
X214648628Y-197585771D01*
X214791485Y-197657200D01*
X214862914Y-197728628D01*
X214934342Y-197871485D01*
X214934342Y-198300057D01*
X214862914Y-198442914D01*
X214791485Y-198514342D01*
X214648628Y-198585771D01*
X214434342Y-198585771D01*
X215577200Y-198585771D02*
X215577200Y-197585771D01*
X215577200Y-197728628D02*
X215648628Y-197657200D01*
X215791485Y-197585771D01*
X216005771Y-197585771D01*
X216148628Y-197657200D01*
X216220057Y-197800057D01*
X216220057Y-198585771D01*
X216220057Y-197800057D02*
X216291485Y-197657200D01*
X216434342Y-197585771D01*
X216648628Y-197585771D01*
X216791485Y-197657200D01*
X216862914Y-197800057D01*
X216862914Y-198585771D01*
X218648628Y-197014342D02*
X217362914Y-198942914D01*
X219362914Y-198585771D02*
X219220057Y-198514342D01*
X219148628Y-198371485D01*
X219148628Y-197085771D01*
X219934342Y-198585771D02*
X219934342Y-197585771D01*
X219934342Y-197085771D02*
X219862914Y-197157200D01*
X219934342Y-197228628D01*
X220005771Y-197157200D01*
X219934342Y-197085771D01*
X219934342Y-197228628D01*
X220648628Y-197585771D02*
X220648628Y-198585771D01*
X220648628Y-197728628D02*
X220720057Y-197657200D01*
X220862914Y-197585771D01*
X221077200Y-197585771D01*
X221220057Y-197657200D01*
X221291485Y-197800057D01*
X221291485Y-198585771D01*
X222648628Y-197585771D02*
X222648628Y-198585771D01*
X222005771Y-197585771D02*
X222005771Y-198371485D01*
X222077200Y-198514342D01*
X222220057Y-198585771D01*
X222434342Y-198585771D01*
X222577200Y-198514342D01*
X222648628Y-198442914D01*
X223220057Y-198585771D02*
X224005771Y-197585771D01*
X223220057Y-197585771D02*
X224005771Y-198585771D01*
X224577200Y-198014342D02*
X225720057Y-198014342D01*
X227077200Y-198585771D02*
X227077200Y-197800057D01*
X227005771Y-197657200D01*
X226862914Y-197585771D01*
X226577200Y-197585771D01*
X226434342Y-197657200D01*
X227077200Y-198514342D02*
X226934342Y-198585771D01*
X226577200Y-198585771D01*
X226434342Y-198514342D01*
X226362914Y-198371485D01*
X226362914Y-198228628D01*
X226434342Y-198085771D01*
X226577200Y-198014342D01*
X226934342Y-198014342D01*
X227077200Y-197942914D01*
X228434342Y-197585771D02*
X228434342Y-198585771D01*
X227791485Y-197585771D02*
X227791485Y-198371485D01*
X227862914Y-198514342D01*
X228005771Y-198585771D01*
X228220057Y-198585771D01*
X228362914Y-198514342D01*
X228434342Y-198442914D01*
X228934342Y-197585771D02*
X229505771Y-197585771D01*
X229148628Y-197085771D02*
X229148628Y-198371485D01*
X229220057Y-198514342D01*
X229362914Y-198585771D01*
X229505771Y-198585771D01*
X230220057Y-198585771D02*
X230077200Y-198514342D01*
X230005771Y-198442914D01*
X229934342Y-198300057D01*
X229934342Y-197871485D01*
X230005771Y-197728628D01*
X230077200Y-197657200D01*
X230220057Y-197585771D01*
X230434342Y-197585771D01*
X230577200Y-197657200D01*
X230648628Y-197728628D01*
X230720057Y-197871485D01*
X230720057Y-198300057D01*
X230648628Y-198442914D01*
X230577200Y-198514342D01*
X230434342Y-198585771D01*
X230220057Y-198585771D01*
X231362914Y-198585771D02*
X231362914Y-197585771D01*
X231362914Y-197728628D02*
X231434342Y-197657200D01*
X231577200Y-197585771D01*
X231791485Y-197585771D01*
X231934342Y-197657200D01*
X232005771Y-197800057D01*
X232005771Y-198585771D01*
X232005771Y-197800057D02*
X232077200Y-197657200D01*
X232220057Y-197585771D01*
X232434342Y-197585771D01*
X232577200Y-197657200D01*
X232648628Y-197800057D01*
X232648628Y-198585771D01*
X234005771Y-198585771D02*
X234005771Y-197800057D01*
X233934342Y-197657200D01*
X233791485Y-197585771D01*
X233505771Y-197585771D01*
X233362914Y-197657200D01*
X234005771Y-198514342D02*
X233862914Y-198585771D01*
X233505771Y-198585771D01*
X233362914Y-198514342D01*
X233291485Y-198371485D01*
X233291485Y-198228628D01*
X233362914Y-198085771D01*
X233505771Y-198014342D01*
X233862914Y-198014342D01*
X234005771Y-197942914D01*
X234505771Y-197585771D02*
X235077200Y-197585771D01*
X234720057Y-197085771D02*
X234720057Y-198371485D01*
X234791485Y-198514342D01*
X234934342Y-198585771D01*
X235077200Y-198585771D01*
X235577200Y-198585771D02*
X235577200Y-197585771D01*
X235577200Y-197085771D02*
X235505771Y-197157200D01*
X235577200Y-197228628D01*
X235648628Y-197157200D01*
X235577200Y-197085771D01*
X235577200Y-197228628D01*
X236505771Y-198585771D02*
X236362914Y-198514342D01*
X236291485Y-198442914D01*
X236220057Y-198300057D01*
X236220057Y-197871485D01*
X236291485Y-197728628D01*
X236362914Y-197657200D01*
X236505771Y-197585771D01*
X236720057Y-197585771D01*
X236862914Y-197657200D01*
X236934342Y-197728628D01*
X237005771Y-197871485D01*
X237005771Y-198300057D01*
X236934342Y-198442914D01*
X236862914Y-198514342D01*
X236720057Y-198585771D01*
X236505771Y-198585771D01*
X237648628Y-197585771D02*
X237648628Y-198585771D01*
X237648628Y-197728628D02*
X237720057Y-197657200D01*
X237862914Y-197585771D01*
X238077200Y-197585771D01*
X238220057Y-197657200D01*
X238291485Y-197800057D01*
X238291485Y-198585771D01*
X240077200Y-197014342D02*
X238791485Y-198942914D01*
X241220057Y-198514342D02*
X241077200Y-198585771D01*
X240791485Y-198585771D01*
X240648628Y-198514342D01*
X240577200Y-198442914D01*
X240505771Y-198300057D01*
X240505771Y-197871485D01*
X240577200Y-197728628D01*
X240648628Y-197657200D01*
X240791485Y-197585771D01*
X241077200Y-197585771D01*
X241220057Y-197657200D01*
X242505771Y-198585771D02*
X242505771Y-197800057D01*
X242434342Y-197657200D01*
X242291485Y-197585771D01*
X242005771Y-197585771D01*
X241862914Y-197657200D01*
X242505771Y-198514342D02*
X242362914Y-198585771D01*
X242005771Y-198585771D01*
X241862914Y-198514342D01*
X241791485Y-198371485D01*
X241791485Y-198228628D01*
X241862914Y-198085771D01*
X242005771Y-198014342D01*
X242362914Y-198014342D01*
X242505771Y-197942914D01*
X243220057Y-197585771D02*
X243220057Y-198585771D01*
X243220057Y-197728628D02*
X243291485Y-197657200D01*
X243434342Y-197585771D01*
X243648628Y-197585771D01*
X243791485Y-197657200D01*
X243862914Y-197800057D01*
X243862914Y-198585771D01*
X245220057Y-198585771D02*
X245220057Y-197085771D01*
X245220057Y-198514342D02*
X245077200Y-198585771D01*
X244791485Y-198585771D01*
X244648628Y-198514342D01*
X244577200Y-198442914D01*
X244505771Y-198300057D01*
X244505771Y-197871485D01*
X244577200Y-197728628D01*
X244648628Y-197657200D01*
X244791485Y-197585771D01*
X245077200Y-197585771D01*
X245220057Y-197657200D01*
X246148628Y-198585771D02*
X246005771Y-198514342D01*
X245934342Y-198371485D01*
X245934342Y-197085771D01*
X247291485Y-198514342D02*
X247148628Y-198585771D01*
X246862914Y-198585771D01*
X246720057Y-198514342D01*
X246648628Y-198371485D01*
X246648628Y-197800057D01*
X246720057Y-197657200D01*
X246862914Y-197585771D01*
X247148628Y-197585771D01*
X247291485Y-197657200D01*
X247362914Y-197800057D01*
X247362914Y-197942914D01*
X246648628Y-198085771D01*
X248220057Y-198585771D02*
X248077200Y-198514342D01*
X248005771Y-198371485D01*
X248005771Y-197085771D01*
X248791485Y-198585771D02*
X248791485Y-197585771D01*
X248791485Y-197085771D02*
X248720057Y-197157200D01*
X248791485Y-197228628D01*
X248862914Y-197157200D01*
X248791485Y-197085771D01*
X248791485Y-197228628D01*
X250148628Y-197585771D02*
X250148628Y-198800057D01*
X250077200Y-198942914D01*
X250005771Y-199014342D01*
X249862914Y-199085771D01*
X249648628Y-199085771D01*
X249505771Y-199014342D01*
X250148628Y-198514342D02*
X250005771Y-198585771D01*
X249720057Y-198585771D01*
X249577200Y-198514342D01*
X249505771Y-198442914D01*
X249434342Y-198300057D01*
X249434342Y-197871485D01*
X249505771Y-197728628D01*
X249577200Y-197657200D01*
X249720057Y-197585771D01*
X250005771Y-197585771D01*
X250148628Y-197657200D01*
X250862914Y-198585771D02*
X250862914Y-197085771D01*
X251505771Y-198585771D02*
X251505771Y-197800057D01*
X251434342Y-197657200D01*
X251291485Y-197585771D01*
X251077200Y-197585771D01*
X250934342Y-197657200D01*
X250862914Y-197728628D01*
X252005771Y-197585771D02*
X252577200Y-197585771D01*
X252220057Y-197085771D02*
X252220057Y-198371485D01*
X252291485Y-198514342D01*
X252434342Y-198585771D01*
X252577200Y-198585771D01*
X253077200Y-198014342D02*
X254220057Y-198014342D01*
X254862914Y-198514342D02*
X255077200Y-198585771D01*
X255434342Y-198585771D01*
X255577200Y-198514342D01*
X255648628Y-198442914D01*
X255720057Y-198300057D01*
X255720057Y-198157200D01*
X255648628Y-198014342D01*
X255577200Y-197942914D01*
X255434342Y-197871485D01*
X255148628Y-197800057D01*
X255005771Y-197728628D01*
X254934342Y-197657200D01*
X254862914Y-197514342D01*
X254862914Y-197371485D01*
X254934342Y-197228628D01*
X255005771Y-197157200D01*
X255148628Y-197085771D01*
X255505771Y-197085771D01*
X255720057Y-197157200D01*
X256648628Y-197085771D02*
X256791485Y-197085771D01*
X256934342Y-197157200D01*
X257005771Y-197228628D01*
X257077200Y-197371485D01*
X257148628Y-197657200D01*
X257148628Y-198014342D01*
X257077200Y-198300057D01*
X257005771Y-198442914D01*
X256934342Y-198514342D01*
X256791485Y-198585771D01*
X256648628Y-198585771D01*
X256505771Y-198514342D01*
X256434342Y-198442914D01*
X256362914Y-198300057D01*
X256291485Y-198014342D01*
X256291485Y-197657200D01*
X256362914Y-197371485D01*
X256434342Y-197228628D01*
X256505771Y-197157200D01*
X256648628Y-197085771D01*
X258577200Y-198585771D02*
X257720057Y-198585771D01*
X258148628Y-198585771D02*
X258148628Y-197085771D01*
X258005771Y-197300057D01*
X257862914Y-197442914D01*
X257720057Y-197514342D01*
D10*
D11*
X197002200Y-193507200D02*
X197002200Y-200007200D01*
D10*
D11*
X238260914Y-195707342D02*
X238475200Y-195778771D01*
X238832342Y-195778771D01*
X238975200Y-195707342D01*
X239046628Y-195635914D01*
X239118057Y-195493057D01*
X239118057Y-195350200D01*
X239046628Y-195207342D01*
X238975200Y-195135914D01*
X238832342Y-195064485D01*
X238546628Y-194993057D01*
X238403771Y-194921628D01*
X238332342Y-194850200D01*
X238260914Y-194707342D01*
X238260914Y-194564485D01*
X238332342Y-194421628D01*
X238403771Y-194350200D01*
X238546628Y-194278771D01*
X238903771Y-194278771D01*
X239118057Y-194350200D01*
X239546628Y-194778771D02*
X240118057Y-194778771D01*
X239760914Y-194278771D02*
X239760914Y-195564485D01*
X239832342Y-195707342D01*
X239975200Y-195778771D01*
X240118057Y-195778771D01*
X241260914Y-195778771D02*
X241260914Y-194993057D01*
X241189485Y-194850200D01*
X241046628Y-194778771D01*
X240760914Y-194778771D01*
X240618057Y-194850200D01*
X241260914Y-195707342D02*
X241118057Y-195778771D01*
X240760914Y-195778771D01*
X240618057Y-195707342D01*
X240546628Y-195564485D01*
X240546628Y-195421628D01*
X240618057Y-195278771D01*
X240760914Y-195207342D01*
X241118057Y-195207342D01*
X241260914Y-195135914D01*
X241760914Y-194778771D02*
X242332342Y-194778771D01*
X241975200Y-194278771D02*
X241975200Y-195564485D01*
X242046628Y-195707342D01*
X242189485Y-195778771D01*
X242332342Y-195778771D01*
X243403771Y-195707342D02*
X243260914Y-195778771D01*
X242975200Y-195778771D01*
X242832342Y-195707342D01*
X242760914Y-195564485D01*
X242760914Y-194993057D01*
X242832342Y-194850200D01*
X242975200Y-194778771D01*
X243260914Y-194778771D01*
X243403771Y-194850200D01*
X243475200Y-194993057D01*
X243475200Y-195135914D01*
X242760914Y-195278771D01*
X244118057Y-195635914D02*
X244189485Y-195707342D01*
X244118057Y-195778771D01*
X244046628Y-195707342D01*
X244118057Y-195635914D01*
X244118057Y-195778771D01*
X244118057Y-194850200D02*
X244189485Y-194921628D01*
X244118057Y-194993057D01*
X244046628Y-194921628D01*
X244118057Y-194850200D01*
X244118057Y-194993057D01*
X244832342Y-195778771D02*
X244832342Y-194778771D01*
X244832342Y-195064485D02*
X244903771Y-194921628D01*
X244975200Y-194850200D01*
X245118057Y-194778771D01*
X245260914Y-194778771D01*
X246332342Y-195707342D02*
X246189485Y-195778771D01*
X245903771Y-195778771D01*
X245760914Y-195707342D01*
X245689485Y-195564485D01*
X245689485Y-194993057D01*
X245760914Y-194850200D01*
X245903771Y-194778771D01*
X246189485Y-194778771D01*
X246332342Y-194850200D01*
X246403771Y-194993057D01*
X246403771Y-195135914D01*
X245689485Y-195278771D01*
X247260914Y-195778771D02*
X247118057Y-195707342D01*
X247046628Y-195564485D01*
X247046628Y-194278771D01*
X248403771Y-195707342D02*
X248260914Y-195778771D01*
X247975200Y-195778771D01*
X247832342Y-195707342D01*
X247760914Y-195564485D01*
X247760914Y-194993057D01*
X247832342Y-194850200D01*
X247975200Y-194778771D01*
X248260914Y-194778771D01*
X248403771Y-194850200D01*
X248475200Y-194993057D01*
X248475200Y-195135914D01*
X247760914Y-195278771D01*
X249760914Y-195778771D02*
X249760914Y-194993057D01*
X249689485Y-194850200D01*
X249546628Y-194778771D01*
X249260914Y-194778771D01*
X249118057Y-194850200D01*
X249760914Y-195707342D02*
X249618057Y-195778771D01*
X249260914Y-195778771D01*
X249118057Y-195707342D01*
X249046628Y-195564485D01*
X249046628Y-195421628D01*
X249118057Y-195278771D01*
X249260914Y-195207342D01*
X249618057Y-195207342D01*
X249760914Y-195135914D01*
X250403771Y-195707342D02*
X250546628Y-195778771D01*
X250832342Y-195778771D01*
X250975200Y-195707342D01*
X251046628Y-195564485D01*
X251046628Y-195493057D01*
X250975200Y-195350200D01*
X250832342Y-195278771D01*
X250618057Y-195278771D01*
X250475200Y-195207342D01*
X250403771Y-195064485D01*
X250403771Y-194993057D01*
X250475200Y-194850200D01*
X250618057Y-194778771D01*
X250832342Y-194778771D01*
X250975200Y-194850200D01*
X252260914Y-195707342D02*
X252118057Y-195778771D01*
X251832342Y-195778771D01*
X251689485Y-195707342D01*
X251618057Y-195564485D01*
X251618057Y-194993057D01*
X251689485Y-194850200D01*
X251832342Y-194778771D01*
X252118057Y-194778771D01*
X252260914Y-194850200D01*
X252332342Y-194993057D01*
X252332342Y-195135914D01*
X251618057Y-195278771D01*
X253618057Y-195778771D02*
X253618057Y-194278771D01*
X253618057Y-195707342D02*
X253475200Y-195778771D01*
X253189485Y-195778771D01*
X253046628Y-195707342D01*
X252975200Y-195635914D01*
X252903771Y-195493057D01*
X252903771Y-195064485D01*
X252975200Y-194921628D01*
X253046628Y-194850200D01*
X253189485Y-194778771D01*
X253475200Y-194778771D01*
X253618057Y-194850200D01*
D10*
D11*
X237300000Y-193500000D02*
X237300000Y-196500000D01*
D10*
D11*
X264002000Y-193507000D02*
X264002000Y-200007000D01*
D10*
D11*
X242432342Y-72678771D02*
X242432342Y-71178771D01*
X242932342Y-72250200D01*
X243432342Y-71178771D01*
X243432342Y-72678771D01*
X244789485Y-72678771D02*
X244789485Y-71893057D01*
X244718057Y-71750200D01*
X244575200Y-71678771D01*
X244289485Y-71678771D01*
X244146628Y-71750200D01*
X244789485Y-72607342D02*
X244646628Y-72678771D01*
X244289485Y-72678771D01*
X244146628Y-72607342D01*
X244075200Y-72464485D01*
X244075200Y-72321628D01*
X244146628Y-72178771D01*
X244289485Y-72107342D01*
X244646628Y-72107342D01*
X244789485Y-72035914D01*
X245289485Y-71678771D02*
X245860914Y-71678771D01*
X245503771Y-71178771D02*
X245503771Y-72464485D01*
X245575200Y-72607342D01*
X245718057Y-72678771D01*
X245860914Y-72678771D01*
X246932342Y-72607342D02*
X246789485Y-72678771D01*
X246503771Y-72678771D01*
X246360914Y-72607342D01*
X246289485Y-72464485D01*
X246289485Y-71893057D01*
X246360914Y-71750200D01*
X246503771Y-71678771D01*
X246789485Y-71678771D01*
X246932342Y-71750200D01*
X247003771Y-71893057D01*
X247003771Y-72035914D01*
X246289485Y-72178771D01*
X247646628Y-72678771D02*
X247646628Y-71678771D01*
X247646628Y-71964485D02*
X247718057Y-71821628D01*
X247789485Y-71750200D01*
X247932342Y-71678771D01*
X248075200Y-71678771D01*
X248575200Y-72678771D02*
X248575200Y-71678771D01*
X248575200Y-71178771D02*
X248503771Y-71250200D01*
X248575200Y-71321628D01*
X248646628Y-71250200D01*
X248575200Y-71178771D01*
X248575200Y-71321628D01*
X249932342Y-72678771D02*
X249932342Y-71893057D01*
X249860914Y-71750200D01*
X249718057Y-71678771D01*
X249432342Y-71678771D01*
X249289485Y-71750200D01*
X249932342Y-72607342D02*
X249789485Y-72678771D01*
X249432342Y-72678771D01*
X249289485Y-72607342D01*
X249218057Y-72464485D01*
X249218057Y-72321628D01*
X249289485Y-72178771D01*
X249432342Y-72107342D01*
X249789485Y-72107342D01*
X249932342Y-72035914D01*
X250860914Y-72678771D02*
X250718057Y-72607342D01*
X250646628Y-72464485D01*
X250646628Y-71178771D01*
D10*
D11*
X268503571Y-76107142D02*
X267217857Y-78035714D01*
D10*
D11*
X244503571Y-76107142D02*
X243217857Y-78035714D01*
D10*
D11*
X206448494Y-77535306D02*
X206519923Y-77606734D01*
X206448494Y-77678163D01*
X206377066Y-77606734D01*
X206448494Y-77535306D01*
X206448494Y-77678163D01*
X207805637Y-76678163D02*
X207805637Y-77892449D01*
X207734209Y-78035306D01*
X207662780Y-78106734D01*
X207519923Y-78178163D01*
X207305637Y-78178163D01*
X207162780Y-78106734D01*
X207805637Y-77606734D02*
X207662780Y-77678163D01*
X207377066Y-77678163D01*
X207234209Y-77606734D01*
X207162780Y-77535306D01*
X207091352Y-77392449D01*
X207091352Y-76963877D01*
X207162780Y-76821020D01*
X207234209Y-76749592D01*
X207377066Y-76678163D01*
X207662780Y-76678163D01*
X207805637Y-76749592D01*
X208305637Y-76678163D02*
X208877066Y-76678163D01*
X208519923Y-76178163D02*
X208519923Y-77463877D01*
X208591352Y-77606734D01*
X208734209Y-77678163D01*
X208877066Y-77678163D01*
X209377066Y-76678163D02*
X209377066Y-78178163D01*
X209377066Y-76749592D02*
X209519923Y-76678163D01*
X209805637Y-76678163D01*
X209948494Y-76749592D01*
X210019923Y-76821020D01*
X210091352Y-76963877D01*
X210091352Y-77392449D01*
X210019923Y-77535306D01*
X209948494Y-77606734D01*
X209805637Y-77678163D01*
X209519923Y-77678163D01*
X209377066Y-77606734D01*
D10*
D11*
X189932342Y-76893057D02*
X189432342Y-76893057D01*
X189432342Y-77678771D02*
X189432342Y-76178771D01*
X190146628Y-76178771D01*
X190360914Y-77821628D02*
X191503771Y-77821628D01*
X191860914Y-77678771D02*
X191860914Y-76178771D01*
X192432342Y-76178771D01*
X192575200Y-76250200D01*
X192646628Y-76321628D01*
X192718057Y-76464485D01*
X192718057Y-76678771D01*
X192646628Y-76821628D01*
X192575200Y-76893057D01*
X192432342Y-76964485D01*
X191860914Y-76964485D01*
X194003771Y-77678771D02*
X194003771Y-76893057D01*
X193932342Y-76750200D01*
X193789485Y-76678771D01*
X193503771Y-76678771D01*
X193360914Y-76750200D01*
X194003771Y-77607342D02*
X193860914Y-77678771D01*
X193503771Y-77678771D01*
X193360914Y-77607342D01*
X193289485Y-77464485D01*
X193289485Y-77321628D01*
X193360914Y-77178771D01*
X193503771Y-77107342D01*
X193860914Y-77107342D01*
X194003771Y-77035914D01*
X194646628Y-77607342D02*
X194789485Y-77678771D01*
X195075200Y-77678771D01*
X195218057Y-77607342D01*
X195289485Y-77464485D01*
X195289485Y-77393057D01*
X195218057Y-77250200D01*
X195075200Y-77178771D01*
X194860914Y-77178771D01*
X194718057Y-77107342D01*
X194646628Y-76964485D01*
X194646628Y-76893057D01*
X194718057Y-76750200D01*
X194860914Y-76678771D01*
X195075200Y-76678771D01*
X195218057Y-76750200D01*
X195718057Y-76678771D02*
X196289485Y-76678771D01*
X195932342Y-76178771D02*
X195932342Y-77464485D01*
X196003771Y-77607342D01*
X196146628Y-77678771D01*
X196289485Y-77678771D01*
X197360914Y-77607342D02*
X197218057Y-77678771D01*
X196932342Y-77678771D01*
X196789485Y-77607342D01*
X196718057Y-77464485D01*
X196718057Y-76893057D01*
X196789485Y-76750200D01*
X196932342Y-76678771D01*
X197218057Y-76678771D01*
X197360914Y-76750200D01*
X197432342Y-76893057D01*
X197432342Y-77035914D01*
X196718057Y-77178771D01*
D10*
D11*
X287002200Y-75007200D02*
X187002200Y-75007200D01*
D10*
D11*
X287002200Y-80007200D02*
X187002200Y-80007200D01*
D10*
D11*
X287002200Y-85007200D02*
X187002200Y-85007200D01*
D10*
D11*
X287002200Y-90007200D02*
X187002200Y-90007200D01*
D10*
D11*
X287002200Y-95007200D02*
X187002200Y-95007200D01*
D10*
D11*
X287002200Y-100007200D02*
X187002200Y-100007200D01*
D10*
D11*
X287002200Y-105007200D02*
X187002200Y-105007200D01*
D10*
D11*
X287002200Y-110007200D02*
X187002200Y-110007200D01*
D10*
D11*
X287002200Y-115007200D02*
X187002200Y-115007200D01*
D10*
D11*
X287002200Y-120007200D02*
X187002200Y-120007200D01*
D10*
D11*
X287002200Y-125007200D02*
X187002200Y-125007200D01*
D10*
D11*
X287002200Y-130007200D02*
X187002200Y-130007200D01*
D10*
D11*
X287002200Y-135007200D02*
X187002200Y-135007200D01*
D10*
D11*
X287002200Y-140007200D02*
X187002200Y-140007200D01*
D10*
D11*
X287002200Y-145007200D02*
X187002200Y-145007200D01*
D10*
D11*
X287002200Y-150007200D02*
X187002200Y-150007200D01*
D10*
D11*
X287002200Y-155007200D02*
X187002200Y-155007200D01*
D10*
D11*
X287002200Y-160007200D02*
X187002200Y-160007200D01*
D10*
D11*
X287002200Y-165007200D02*
X187002200Y-165007200D01*
D10*
D11*
X287002200Y-170007200D02*
X187002200Y-170007200D01*
D10*
D11*
X287002200Y-175007200D02*
X187002200Y-175007200D01*
D10*
D11*
X268217857Y-71178571D02*
X269075000Y-71178571D01*
X268646428Y-72678571D02*
X268646428Y-71178571D01*
X269575000Y-72678571D02*
X269575000Y-71178571D01*
X270217857Y-72678571D02*
X270217857Y-71892857D01*
X270146428Y-71750000D01*
X270003571Y-71678571D01*
X269789285Y-71678571D01*
X269646428Y-71750000D01*
X269575000Y-71821428D01*
X270932142Y-72678571D02*
X270932142Y-71678571D01*
X270932142Y-71178571D02*
X270860714Y-71250000D01*
X270932142Y-71321428D01*
X271003571Y-71250000D01*
X270932142Y-71178571D01*
X270932142Y-71321428D01*
X272289285Y-72607142D02*
X272146428Y-72678571D01*
X271860714Y-72678571D01*
X271717857Y-72607142D01*
X271646428Y-72535714D01*
X271575000Y-72392857D01*
X271575000Y-71964285D01*
X271646428Y-71821428D01*
X271717857Y-71750000D01*
X271860714Y-71678571D01*
X272146428Y-71678571D01*
X272289285Y-71750000D01*
X272932142Y-72678571D02*
X272932142Y-71178571D01*
X273075000Y-72107142D02*
X273503571Y-72678571D01*
X273503571Y-71678571D02*
X272932142Y-72250000D01*
X274146428Y-71678571D02*
X274146428Y-72678571D01*
X274146428Y-71821428D02*
X274217857Y-71750000D01*
X274360714Y-71678571D01*
X274575000Y-71678571D01*
X274717857Y-71750000D01*
X274789285Y-71892857D01*
X274789285Y-72678571D01*
X276075000Y-72607142D02*
X275932142Y-72678571D01*
X275646428Y-72678571D01*
X275503571Y-72607142D01*
X275432142Y-72464285D01*
X275432142Y-71892857D01*
X275503571Y-71750000D01*
X275646428Y-71678571D01*
X275932142Y-71678571D01*
X276075000Y-71750000D01*
X276146428Y-71892857D01*
X276146428Y-72035714D01*
X275432142Y-72178571D01*
X276717857Y-72607142D02*
X276860714Y-72678571D01*
X277146428Y-72678571D01*
X277289285Y-72607142D01*
X277360714Y-72464285D01*
X277360714Y-72392857D01*
X277289285Y-72250000D01*
X277146428Y-72178571D01*
X276932142Y-72178571D01*
X276789285Y-72107142D01*
X276717857Y-71964285D01*
X276717857Y-71892857D01*
X276789285Y-71750000D01*
X276932142Y-71678571D01*
X277146428Y-71678571D01*
X277289285Y-71750000D01*
X277932142Y-72607142D02*
X278075000Y-72678571D01*
X278360714Y-72678571D01*
X278503571Y-72607142D01*
X278575000Y-72464285D01*
X278575000Y-72392857D01*
X278503571Y-72250000D01*
X278360714Y-72178571D01*
X278146428Y-72178571D01*
X278003571Y-72107142D01*
X277932142Y-71964285D01*
X277932142Y-71892857D01*
X278003571Y-71750000D01*
X278146428Y-71678571D01*
X278360714Y-71678571D01*
X278503571Y-71750000D01*
X280289285Y-71107142D02*
X279003571Y-73035714D01*
X281646428Y-72535714D02*
X281575000Y-72607142D01*
X281360714Y-72678571D01*
X281217857Y-72678571D01*
X281003571Y-72607142D01*
X280860714Y-72464285D01*
X280789285Y-72321428D01*
X280717857Y-72035714D01*
X280717857Y-71821428D01*
X280789285Y-71535714D01*
X280860714Y-71392857D01*
X281003571Y-71250000D01*
X281217857Y-71178571D01*
X281360714Y-71178571D01*
X281575000Y-71250000D01*
X281646428Y-71321428D01*
X282503571Y-72678571D02*
X282360714Y-72607142D01*
X282289285Y-72535714D01*
X282217857Y-72392857D01*
X282217857Y-71964285D01*
X282289285Y-71821428D01*
X282360714Y-71750000D01*
X282503571Y-71678571D01*
X282717857Y-71678571D01*
X282860714Y-71750000D01*
X282932142Y-71821428D01*
X283003571Y-71964285D01*
X283003571Y-72392857D01*
X282932142Y-72535714D01*
X282860714Y-72607142D01*
X282717857Y-72678571D01*
X282503571Y-72678571D01*
X283860714Y-72678571D02*
X283717857Y-72607142D01*
X283646428Y-72464285D01*
X283646428Y-71178571D01*
X284646428Y-72678571D02*
X284503571Y-72607142D01*
X284432142Y-72535714D01*
X284360714Y-72392857D01*
X284360714Y-71964285D01*
X284432142Y-71821428D01*
X284503571Y-71750000D01*
X284646428Y-71678571D01*
X284860714Y-71678571D01*
X285003571Y-71750000D01*
X285075000Y-71821428D01*
X285146428Y-71964285D01*
X285146428Y-72392857D01*
X285075000Y-72535714D01*
X285003571Y-72607142D01*
X284860714Y-72678571D01*
X284646428Y-72678571D01*
X285789285Y-72678571D02*
X285789285Y-71678571D01*
X285789285Y-71964285D02*
X285860714Y-71821428D01*
X285932142Y-71750000D01*
X286075000Y-71678571D01*
X286217857Y-71678571D01*
D10*
D11*
X265000000Y-180000000D02*
X265000000Y-70000000D01*
D10*
D11*
X241000000Y-180000000D02*
X241000000Y-70000000D01*
D10*
D11*
X203000200Y-180007200D02*
X203000200Y-70007200D01*
D10*
D11*
X205217857Y-71178571D02*
X206075000Y-71178571D01*
X205646428Y-72678571D02*
X205646428Y-71178571D01*
X207146428Y-72607142D02*
X207003571Y-72678571D01*
X206717857Y-72678571D01*
X206575000Y-72607142D01*
X206503571Y-72464285D01*
X206503571Y-71892857D01*
X206575000Y-71750000D01*
X206717857Y-71678571D01*
X207003571Y-71678571D01*
X207146428Y-71750000D01*
X207217857Y-71892857D01*
X207217857Y-72035714D01*
X206503571Y-72178571D01*
X207717857Y-72678571D02*
X208503571Y-71678571D01*
X207717857Y-71678571D02*
X208503571Y-72678571D01*
X208860714Y-71678571D02*
X209432142Y-71678571D01*
X209075000Y-71178571D02*
X209075000Y-72464285D01*
X209146428Y-72607142D01*
X209289285Y-72678571D01*
X209432142Y-72678571D01*
D10*
D11*
X190146428Y-72678571D02*
X189432142Y-72678571D01*
X189432142Y-71178571D01*
X191289285Y-72678571D02*
X191289285Y-71892857D01*
X191217857Y-71750000D01*
X191075000Y-71678571D01*
X190789285Y-71678571D01*
X190646428Y-71750000D01*
X191289285Y-72607142D02*
X191146428Y-72678571D01*
X190789285Y-72678571D01*
X190646428Y-72607142D01*
X190575000Y-72464285D01*
X190575000Y-72321428D01*
X190646428Y-72178571D01*
X190789285Y-72107142D01*
X191146428Y-72107142D01*
X191289285Y-72035714D01*
X191860714Y-71678571D02*
X192217857Y-72678571D01*
X192575000Y-71678571D02*
X192217857Y-72678571D01*
X192075000Y-73035714D01*
X192003571Y-73107142D01*
X191860714Y-73178571D01*
X193717857Y-72607142D02*
X193575000Y-72678571D01*
X193289285Y-72678571D01*
X193146428Y-72607142D01*
X193075000Y-72464285D01*
X193075000Y-71892857D01*
X193146428Y-71750000D01*
X193289285Y-71678571D01*
X193575000Y-71678571D01*
X193717857Y-71750000D01*
X193789285Y-71892857D01*
X193789285Y-72035714D01*
X193075000Y-72178571D01*
X194432142Y-72678571D02*
X194432142Y-71678571D01*
X194432142Y-71964285D02*
X194503571Y-71821428D01*
X194575000Y-71750000D01*
X194717857Y-71678571D01*
X194860714Y-71678571D01*
X196503571Y-72678571D02*
X196503571Y-71178571D01*
X197360714Y-72678571D01*
X197360714Y-71178571D01*
X198717857Y-72678571D02*
X198717857Y-71892857D01*
X198646428Y-71750000D01*
X198503571Y-71678571D01*
X198217857Y-71678571D01*
X198075000Y-71750000D01*
X198717857Y-72607142D02*
X198575000Y-72678571D01*
X198217857Y-72678571D01*
X198075000Y-72607142D01*
X198003571Y-72464285D01*
X198003571Y-72321428D01*
X198075000Y-72178571D01*
X198217857Y-72107142D01*
X198575000Y-72107142D01*
X198717857Y-72035714D01*
X199432142Y-72678571D02*
X199432142Y-71678571D01*
X199432142Y-71821428D02*
X199503571Y-71750000D01*
X199646428Y-71678571D01*
X199860714Y-71678571D01*
X200003571Y-71750000D01*
X200075000Y-71892857D01*
X200075000Y-72678571D01*
X200075000Y-71892857D02*
X200146428Y-71750000D01*
X200289285Y-71678571D01*
X200503571Y-71678571D01*
X200646428Y-71750000D01*
X200717857Y-71892857D01*
X200717857Y-72678571D01*
X202003571Y-72607142D02*
X201860714Y-72678571D01*
X201575000Y-72678571D01*
X201432142Y-72607142D01*
X201360714Y-72464285D01*
X201360714Y-71892857D01*
X201432142Y-71750000D01*
X201575000Y-71678571D01*
X201860714Y-71678571D01*
X202003571Y-71750000D01*
X202075000Y-71892857D01*
X202075000Y-72035714D01*
X201360714Y-72178571D01*
D10*
D11*
X287002200Y-180007200D02*
X287002200Y-70007200D01*
X187002200Y-70007200D01*
X187002200Y-180007200D01*
X287002200Y-180007200D01*
D10*
D11*
X243932142Y-96892857D02*
X243432142Y-96892857D01*
X243432142Y-97678571D02*
X243432142Y-96178571D01*
X244146428Y-96178571D01*
X245575000Y-97678571D02*
X245075000Y-96964285D01*
X244717857Y-97678571D02*
X244717857Y-96178571D01*
X245289285Y-96178571D01*
X245432142Y-96250000D01*
X245503571Y-96321428D01*
X245575000Y-96464285D01*
X245575000Y-96678571D01*
X245503571Y-96821428D01*
X245432142Y-96892857D01*
X245289285Y-96964285D01*
X244717857Y-96964285D01*
X246860714Y-96678571D02*
X246860714Y-97678571D01*
X246503571Y-96107142D02*
X246146428Y-97178571D01*
X247075000Y-97178571D01*
D10*
D11*
X207273125Y-97535266D02*
X207201697Y-97606694D01*
X206987411Y-97678123D01*
X206844554Y-97678123D01*
X206630268Y-97606694D01*
X206487411Y-97463837D01*
X206415982Y-97320980D01*
X206344554Y-97035266D01*
X206344554Y-96820980D01*
X206415982Y-96535266D01*
X206487411Y-96392409D01*
X206630268Y-96249552D01*
X206844554Y-96178123D01*
X206987411Y-96178123D01*
X207201697Y-96249552D01*
X207273125Y-96320980D01*
X208130268Y-97678123D02*
X207987411Y-97606694D01*
X207915982Y-97535266D01*
X207844554Y-97392409D01*
X207844554Y-96963837D01*
X207915982Y-96820980D01*
X207987411Y-96749552D01*
X208130268Y-96678123D01*
X208344554Y-96678123D01*
X208487411Y-96749552D01*
X208558840Y-96820980D01*
X208630268Y-96963837D01*
X208630268Y-97392409D01*
X208558840Y-97535266D01*
X208487411Y-97606694D01*
X208344554Y-97678123D01*
X208130268Y-97678123D01*
X209273125Y-97678123D02*
X209273125Y-96678123D01*
X209273125Y-96963837D02*
X209344554Y-96820980D01*
X209415982Y-96749552D01*
X209558840Y-96678123D01*
X209701697Y-96678123D01*
X210773125Y-97606694D02*
X210630268Y-97678123D01*
X210344554Y-97678123D01*
X210201697Y-97606694D01*
X210130268Y-97463837D01*
X210130268Y-96892409D01*
X210201697Y-96749552D01*
X210344554Y-96678123D01*
X210630268Y-96678123D01*
X210773125Y-96749552D01*
X210844554Y-96892409D01*
X210844554Y-97035266D01*
X210130268Y-97178123D01*
X213701697Y-96106694D02*
X212415982Y-98035266D01*
X215344554Y-97678123D02*
X215344554Y-96178123D01*
X215915982Y-96178123D01*
X216058840Y-96249552D01*
X216130268Y-96320980D01*
X216201697Y-96463837D01*
X216201697Y-96678123D01*
X216130268Y-96820980D01*
X216058840Y-96892409D01*
X215915982Y-96963837D01*
X215344554Y-96963837D01*
X216844554Y-97678123D02*
X216844554Y-96678123D01*
X216844554Y-96963837D02*
X216915982Y-96820980D01*
X216987411Y-96749552D01*
X217130268Y-96678123D01*
X217273125Y-96678123D01*
X218344554Y-97606694D02*
X218201697Y-97678123D01*
X217915982Y-97678123D01*
X217773125Y-97606694D01*
X217701697Y-97463837D01*
X217701697Y-96892409D01*
X217773125Y-96749552D01*
X217915982Y-96678123D01*
X218201697Y-96678123D01*
X218344554Y-96749552D01*
X218415982Y-96892409D01*
X218415982Y-97035266D01*
X217701697Y-97178123D01*
X219058840Y-96678123D02*
X219058840Y-98178123D01*
X219058840Y-96749552D02*
X219201697Y-96678123D01*
X219487411Y-96678123D01*
X219630268Y-96749552D01*
X219701697Y-96820980D01*
X219773125Y-96963837D01*
X219773125Y-97392409D01*
X219701697Y-97535266D01*
X219630268Y-97606694D01*
X219487411Y-97678123D01*
X219201697Y-97678123D01*
X219058840Y-97606694D01*
X220415982Y-97678123D02*
X220415982Y-96678123D01*
X220415982Y-96963837D02*
X220487411Y-96820980D01*
X220558840Y-96749552D01*
X220701697Y-96678123D01*
X220844554Y-96678123D01*
X221915982Y-97606694D02*
X221773125Y-97678123D01*
X221487411Y-97678123D01*
X221344554Y-97606694D01*
X221273125Y-97463837D01*
X221273125Y-96892409D01*
X221344554Y-96749552D01*
X221487411Y-96678123D01*
X221773125Y-96678123D01*
X221915982Y-96749552D01*
X221987411Y-96892409D01*
X221987411Y-97035266D01*
X221273125Y-97178123D01*
X223273125Y-96678123D02*
X223273125Y-97892409D01*
X223201697Y-98035266D01*
X223130268Y-98106694D01*
X222987411Y-98178123D01*
X222773125Y-98178123D01*
X222630268Y-98106694D01*
X223273125Y-97606694D02*
X223130268Y-97678123D01*
X222844554Y-97678123D01*
X222701697Y-97606694D01*
X222630268Y-97535266D01*
X222558840Y-97392409D01*
X222558840Y-96963837D01*
X222630268Y-96820980D01*
X222701697Y-96749552D01*
X222844554Y-96678123D01*
X223130268Y-96678123D01*
X223273125Y-96749552D01*
D10*
D11*
X267273765Y-91178387D02*
X268202337Y-91178387D01*
X267702337Y-91749816D01*
X267916622Y-91749816D01*
X268059480Y-91821244D01*
X268130908Y-91892673D01*
X268202337Y-92035530D01*
X268202337Y-92392673D01*
X268130908Y-92535530D01*
X268059480Y-92606958D01*
X267916622Y-92678387D01*
X267488051Y-92678387D01*
X267345194Y-92606958D01*
X267273765Y-92535530D01*
X269559480Y-91178387D02*
X268845194Y-91178387D01*
X268773765Y-91892673D01*
X268845194Y-91821244D01*
X268988051Y-91749816D01*
X269345194Y-91749816D01*
X269488051Y-91821244D01*
X269559480Y-91892673D01*
X269630908Y-92035530D01*
X269630908Y-92392673D01*
X269559480Y-92535530D01*
X269488051Y-92606958D01*
X269345194Y-92678387D01*
X268988051Y-92678387D01*
X268845194Y-92606958D01*
X268773765Y-92535530D01*
X270916622Y-91678387D02*
X270916622Y-92678387D01*
X270273765Y-91678387D02*
X270273765Y-92464101D01*
X270345194Y-92606958D01*
X270488051Y-92678387D01*
X270702337Y-92678387D01*
X270845194Y-92606958D01*
X270916622Y-92535530D01*
D10*
D11*
X244289485Y-92535914D02*
X244218057Y-92607342D01*
X244003771Y-92678771D01*
X243860914Y-92678771D01*
X243646628Y-92607342D01*
X243503771Y-92464485D01*
X243432342Y-92321628D01*
X243360914Y-92035914D01*
X243360914Y-91821628D01*
X243432342Y-91535914D01*
X243503771Y-91393057D01*
X243646628Y-91250200D01*
X243860914Y-91178771D01*
X244003771Y-91178771D01*
X244218057Y-91250200D01*
X244289485Y-91321628D01*
X245575200Y-91678771D02*
X245575200Y-92678771D01*
X244932342Y-91678771D02*
X244932342Y-92464485D01*
X245003771Y-92607342D01*
X245146628Y-92678771D01*
X245360914Y-92678771D01*
X245503771Y-92607342D01*
X245575200Y-92535914D01*
X247432342Y-92107342D02*
X248575200Y-92107342D01*
X248003771Y-92678771D02*
X248003771Y-91535914D01*
X250432342Y-91893057D02*
X250932342Y-91893057D01*
X251146628Y-92678771D02*
X250432342Y-92678771D01*
X250432342Y-91178771D01*
X251146628Y-91178771D01*
X251789485Y-92678771D02*
X251789485Y-91178771D01*
X252646628Y-92678771D01*
X252646628Y-91178771D01*
X253360914Y-92678771D02*
X253360914Y-91178771D01*
X254860914Y-91250200D02*
X254718057Y-91178771D01*
X254503771Y-91178771D01*
X254289485Y-91250200D01*
X254146628Y-91393057D01*
X254075200Y-91535914D01*
X254003771Y-91821628D01*
X254003771Y-92035914D01*
X254075200Y-92321628D01*
X254146628Y-92464485D01*
X254289485Y-92607342D01*
X254503771Y-92678771D01*
X254646628Y-92678771D01*
X254860914Y-92607342D01*
X254932342Y-92535914D01*
X254932342Y-92035914D01*
X254646628Y-92035914D01*
D10*
D11*
X206432142Y-107535714D02*
X206503571Y-107607142D01*
X206432142Y-107678571D01*
X206360714Y-107607142D01*
X206432142Y-107535714D01*
X206432142Y-107678571D01*
X207789285Y-106678571D02*
X207789285Y-107892857D01*
X207717857Y-108035714D01*
X207646428Y-108107142D01*
X207503571Y-108178571D01*
X207289285Y-108178571D01*
X207146428Y-108107142D01*
X207789285Y-107607142D02*
X207646428Y-107678571D01*
X207360714Y-107678571D01*
X207217857Y-107607142D01*
X207146428Y-107535714D01*
X207075000Y-107392857D01*
X207075000Y-106964285D01*
X207146428Y-106821428D01*
X207217857Y-106750000D01*
X207360714Y-106678571D01*
X207646428Y-106678571D01*
X207789285Y-106750000D01*
X208503571Y-107678571D02*
X208503571Y-106178571D01*
X208503571Y-106750000D02*
X208646428Y-106678571D01*
X208932142Y-106678571D01*
X209075000Y-106750000D01*
X209146428Y-106821428D01*
X209217857Y-106964285D01*
X209217857Y-107392857D01*
X209146428Y-107535714D01*
X209075000Y-107607142D01*
X208932142Y-107678571D01*
X208646428Y-107678571D01*
X208503571Y-107607142D01*
X209789285Y-107607142D02*
X209932142Y-107678571D01*
X210217857Y-107678571D01*
X210360714Y-107607142D01*
X210432142Y-107464285D01*
X210432142Y-107392857D01*
X210360714Y-107250000D01*
X210217857Y-107178571D01*
X210003571Y-107178571D01*
X209860714Y-107107142D01*
X209789285Y-106964285D01*
X209789285Y-106892857D01*
X209860714Y-106750000D01*
X210003571Y-106678571D01*
X210217857Y-106678571D01*
X210360714Y-106750000D01*
D10*
D11*
X190932142Y-106892857D02*
X191146428Y-106964285D01*
X191217857Y-107035714D01*
X191289285Y-107178571D01*
X191289285Y-107392857D01*
X191217857Y-107535714D01*
X191146428Y-107607142D01*
X191003571Y-107678571D01*
X190432142Y-107678571D01*
X190432142Y-106178571D01*
X190932142Y-106178571D01*
X191075000Y-106250000D01*
X191146428Y-106321428D01*
X191217857Y-106464285D01*
X191217857Y-106607142D01*
X191146428Y-106750000D01*
X191075000Y-106821428D01*
X190932142Y-106892857D01*
X190432142Y-106892857D01*
X191575000Y-107821428D02*
X192717857Y-107821428D01*
X193075000Y-107678571D02*
X193075000Y-106178571D01*
X193575000Y-107250000D01*
X194075000Y-106178571D01*
X194075000Y-107678571D01*
X195432142Y-107678571D02*
X195432142Y-106892857D01*
X195360714Y-106750000D01*
X195217857Y-106678571D01*
X194932142Y-106678571D01*
X194789285Y-106750000D01*
X195432142Y-107607142D02*
X195289285Y-107678571D01*
X194932142Y-107678571D01*
X194789285Y-107607142D01*
X194717857Y-107464285D01*
X194717857Y-107321428D01*
X194789285Y-107178571D01*
X194932142Y-107107142D01*
X195289285Y-107107142D01*
X195432142Y-107035714D01*
X196075000Y-107607142D02*
X196217857Y-107678571D01*
X196503571Y-107678571D01*
X196646428Y-107607142D01*
X196717857Y-107464285D01*
X196717857Y-107392857D01*
X196646428Y-107250000D01*
X196503571Y-107178571D01*
X196289285Y-107178571D01*
X196146428Y-107107142D01*
X196075000Y-106964285D01*
X196075000Y-106892857D01*
X196146428Y-106750000D01*
X196289285Y-106678571D01*
X196503571Y-106678571D01*
X196646428Y-106750000D01*
X197360714Y-107678571D02*
X197360714Y-106178571D01*
X197503571Y-107107142D02*
X197932142Y-107678571D01*
X197932142Y-106678571D02*
X197360714Y-107250000D01*
D10*
D11*
X267257509Y-101178875D02*
X268186081Y-101178875D01*
X267686081Y-101750304D01*
X267900366Y-101750304D01*
X268043224Y-101821732D01*
X268114652Y-101893161D01*
X268186081Y-102036018D01*
X268186081Y-102393161D01*
X268114652Y-102536018D01*
X268043224Y-102607446D01*
X267900366Y-102678875D01*
X267471795Y-102678875D01*
X267328938Y-102607446D01*
X267257509Y-102536018D01*
X269543224Y-101178875D02*
X268828938Y-101178875D01*
X268757509Y-101893161D01*
X268828938Y-101821732D01*
X268971795Y-101750304D01*
X269328938Y-101750304D01*
X269471795Y-101821732D01*
X269543224Y-101893161D01*
X269614652Y-102036018D01*
X269614652Y-102393161D01*
X269543224Y-102536018D01*
X269471795Y-102607446D01*
X269328938Y-102678875D01*
X268971795Y-102678875D01*
X268828938Y-102607446D01*
X268757509Y-102536018D01*
X270900366Y-101678875D02*
X270900366Y-102678875D01*
X270257509Y-101678875D02*
X270257509Y-102464589D01*
X270328938Y-102607446D01*
X270471795Y-102678875D01*
X270686081Y-102678875D01*
X270828938Y-102607446D01*
X270900366Y-102536018D01*
D10*
D11*
X244289485Y-102535914D02*
X244218057Y-102607342D01*
X244003771Y-102678771D01*
X243860914Y-102678771D01*
X243646628Y-102607342D01*
X243503771Y-102464485D01*
X243432342Y-102321628D01*
X243360914Y-102035914D01*
X243360914Y-101821628D01*
X243432342Y-101535914D01*
X243503771Y-101393057D01*
X243646628Y-101250200D01*
X243860914Y-101178771D01*
X244003771Y-101178771D01*
X244218057Y-101250200D01*
X244289485Y-101321628D01*
X245575200Y-101678771D02*
X245575200Y-102678771D01*
X244932342Y-101678771D02*
X244932342Y-102464485D01*
X245003771Y-102607342D01*
X245146628Y-102678771D01*
X245360914Y-102678771D01*
X245503771Y-102607342D01*
X245575200Y-102535914D01*
X247432342Y-102107342D02*
X248575200Y-102107342D01*
X248003771Y-102678771D02*
X248003771Y-101535914D01*
X250432342Y-101893057D02*
X250932342Y-101893057D01*
X251146628Y-102678771D02*
X250432342Y-102678771D01*
X250432342Y-101178771D01*
X251146628Y-101178771D01*
X251789485Y-102678771D02*
X251789485Y-101178771D01*
X252646628Y-102678771D01*
X252646628Y-101178771D01*
X253360914Y-102678771D02*
X253360914Y-101178771D01*
X254860914Y-101250200D02*
X254718057Y-101178771D01*
X254503771Y-101178771D01*
X254289485Y-101250200D01*
X254146628Y-101393057D01*
X254075200Y-101535914D01*
X254003771Y-101821628D01*
X254003771Y-102035914D01*
X254075200Y-102321628D01*
X254146628Y-102464485D01*
X254289485Y-102607342D01*
X254503771Y-102678771D01*
X254646628Y-102678771D01*
X254860914Y-102607342D01*
X254932342Y-102535914D01*
X254932342Y-102035914D01*
X254646628Y-102035914D01*
D10*
D11*
X206432142Y-102535714D02*
X206503571Y-102607142D01*
X206432142Y-102678571D01*
X206360714Y-102607142D01*
X206432142Y-102535714D01*
X206432142Y-102678571D01*
X207789285Y-101678571D02*
X207789285Y-102892857D01*
X207717857Y-103035714D01*
X207646428Y-103107142D01*
X207503571Y-103178571D01*
X207289285Y-103178571D01*
X207146428Y-103107142D01*
X207789285Y-102607142D02*
X207646428Y-102678571D01*
X207360714Y-102678571D01*
X207217857Y-102607142D01*
X207146428Y-102535714D01*
X207075000Y-102392857D01*
X207075000Y-101964285D01*
X207146428Y-101821428D01*
X207217857Y-101750000D01*
X207360714Y-101678571D01*
X207646428Y-101678571D01*
X207789285Y-101750000D01*
X208503571Y-102678571D02*
X208503571Y-101178571D01*
X208503571Y-101750000D02*
X208646428Y-101678571D01*
X208932142Y-101678571D01*
X209075000Y-101750000D01*
X209146428Y-101821428D01*
X209217857Y-101964285D01*
X209217857Y-102392857D01*
X209146428Y-102535714D01*
X209075000Y-102607142D01*
X208932142Y-102678571D01*
X208646428Y-102678571D01*
X208503571Y-102607142D01*
X210075000Y-102678571D02*
X209932142Y-102607142D01*
X209860714Y-102464285D01*
X209860714Y-101178571D01*
D10*
D11*
X190932142Y-101892857D02*
X191146428Y-101964285D01*
X191217857Y-102035714D01*
X191289285Y-102178571D01*
X191289285Y-102392857D01*
X191217857Y-102535714D01*
X191146428Y-102607142D01*
X191003571Y-102678571D01*
X190432142Y-102678571D01*
X190432142Y-101178571D01*
X190932142Y-101178571D01*
X191075000Y-101250000D01*
X191146428Y-101321428D01*
X191217857Y-101464285D01*
X191217857Y-101607142D01*
X191146428Y-101750000D01*
X191075000Y-101821428D01*
X190932142Y-101892857D01*
X190432142Y-101892857D01*
X191575000Y-102821428D02*
X192717857Y-102821428D01*
X193932142Y-102535714D02*
X193860714Y-102607142D01*
X193646428Y-102678571D01*
X193503571Y-102678571D01*
X193289285Y-102607142D01*
X193146428Y-102464285D01*
X193075000Y-102321428D01*
X193003571Y-102035714D01*
X193003571Y-101821428D01*
X193075000Y-101535714D01*
X193146428Y-101392857D01*
X193289285Y-101250000D01*
X193503571Y-101178571D01*
X193646428Y-101178571D01*
X193860714Y-101250000D01*
X193932142Y-101321428D01*
X195217857Y-101678571D02*
X195217857Y-102678571D01*
X194575000Y-101678571D02*
X194575000Y-102464285D01*
X194646428Y-102607142D01*
X194789285Y-102678571D01*
X195003571Y-102678571D01*
X195146428Y-102607142D01*
X195217857Y-102535714D01*
D10*
D11*
X206415982Y-92535530D02*
X206487411Y-92606958D01*
X206415982Y-92678387D01*
X206344554Y-92606958D01*
X206415982Y-92535530D01*
X206415982Y-92678387D01*
X207773125Y-91678387D02*
X207773125Y-92892673D01*
X207701697Y-93035530D01*
X207630268Y-93106958D01*
X207487411Y-93178387D01*
X207273125Y-93178387D01*
X207130268Y-93106958D01*
X207773125Y-92606958D02*
X207630268Y-92678387D01*
X207344554Y-92678387D01*
X207201697Y-92606958D01*
X207130268Y-92535530D01*
X207058840Y-92392673D01*
X207058840Y-91964101D01*
X207130268Y-91821244D01*
X207201697Y-91749816D01*
X207344554Y-91678387D01*
X207630268Y-91678387D01*
X207773125Y-91749816D01*
X208273125Y-91678387D02*
X208844554Y-91678387D01*
X208487411Y-91178387D02*
X208487411Y-92464101D01*
X208558840Y-92606958D01*
X208701697Y-92678387D01*
X208844554Y-92678387D01*
X209558840Y-92678387D02*
X209415982Y-92606958D01*
X209344554Y-92464101D01*
X209344554Y-91178387D01*
D10*
D11*
X190932142Y-91892857D02*
X190432142Y-91892857D01*
X190432142Y-92678571D02*
X190432142Y-91178571D01*
X191146428Y-91178571D01*
X191360714Y-92821428D02*
X192503571Y-92821428D01*
X193717857Y-92535714D02*
X193646428Y-92607142D01*
X193432142Y-92678571D01*
X193289285Y-92678571D01*
X193075000Y-92607142D01*
X192932142Y-92464285D01*
X192860714Y-92321428D01*
X192789285Y-92035714D01*
X192789285Y-91821428D01*
X192860714Y-91535714D01*
X192932142Y-91392857D01*
X193075000Y-91250000D01*
X193289285Y-91178571D01*
X193432142Y-91178571D01*
X193646428Y-91250000D01*
X193717857Y-91321428D01*
X195003571Y-91678571D02*
X195003571Y-92678571D01*
X194360714Y-91678571D02*
X194360714Y-92464285D01*
X194432142Y-92607142D01*
X194575000Y-92678571D01*
X194789285Y-92678571D01*
X194932142Y-92607142D01*
X195003571Y-92535714D01*
D10*
D11*
X267416622Y-87678651D02*
X267416622Y-86178651D01*
X267416622Y-86750080D02*
X267559480Y-86678651D01*
X267845194Y-86678651D01*
X267988051Y-86750080D01*
X268059480Y-86821508D01*
X268130908Y-86964365D01*
X268130908Y-87392937D01*
X268059480Y-87535794D01*
X267988051Y-87607222D01*
X267845194Y-87678651D01*
X267559480Y-87678651D01*
X267416622Y-87607222D01*
X268988051Y-87678651D02*
X268845194Y-87607222D01*
X268773765Y-87464365D01*
X268773765Y-86178651D01*
X270202337Y-87678651D02*
X270202337Y-86892937D01*
X270130908Y-86750080D01*
X269988051Y-86678651D01*
X269702337Y-86678651D01*
X269559480Y-86750080D01*
X270202337Y-87607222D02*
X270059480Y-87678651D01*
X269702337Y-87678651D01*
X269559480Y-87607222D01*
X269488051Y-87464365D01*
X269488051Y-87321508D01*
X269559480Y-87178651D01*
X269702337Y-87107222D01*
X270059480Y-87107222D01*
X270202337Y-87035794D01*
X271559480Y-87607222D02*
X271416622Y-87678651D01*
X271130908Y-87678651D01*
X270988051Y-87607222D01*
X270916622Y-87535794D01*
X270845194Y-87392937D01*
X270845194Y-86964365D01*
X270916622Y-86821508D01*
X270988051Y-86750080D01*
X271130908Y-86678651D01*
X271416622Y-86678651D01*
X271559480Y-86750080D01*
X272202337Y-87678651D02*
X272202337Y-86178651D01*
X272345194Y-87107222D02*
X272773765Y-87678651D01*
X272773765Y-86678651D02*
X272202337Y-87250080D01*
D10*
D11*
X244503571Y-86107142D02*
X243217857Y-88035714D01*
D10*
D11*
X206432142Y-87535714D02*
X206503571Y-87607142D01*
X206432142Y-87678571D01*
X206360714Y-87607142D01*
X206432142Y-87535714D01*
X206432142Y-87678571D01*
X207789285Y-86678571D02*
X207789285Y-87892857D01*
X207717857Y-88035714D01*
X207646428Y-88107142D01*
X207503571Y-88178571D01*
X207289285Y-88178571D01*
X207146428Y-88107142D01*
X207789285Y-87607142D02*
X207646428Y-87678571D01*
X207360714Y-87678571D01*
X207217857Y-87607142D01*
X207146428Y-87535714D01*
X207075000Y-87392857D01*
X207075000Y-86964285D01*
X207146428Y-86821428D01*
X207217857Y-86750000D01*
X207360714Y-86678571D01*
X207646428Y-86678571D01*
X207789285Y-86750000D01*
X208289285Y-86678571D02*
X208860714Y-86678571D01*
X208503571Y-86178571D02*
X208503571Y-87464285D01*
X208575000Y-87607142D01*
X208717857Y-87678571D01*
X208860714Y-87678571D01*
X209289285Y-87607142D02*
X209432142Y-87678571D01*
X209717857Y-87678571D01*
X209860714Y-87607142D01*
X209932142Y-87464285D01*
X209932142Y-87392857D01*
X209860714Y-87250000D01*
X209717857Y-87178571D01*
X209503571Y-87178571D01*
X209360714Y-87107142D01*
X209289285Y-86964285D01*
X209289285Y-86892857D01*
X209360714Y-86750000D01*
X209503571Y-86678571D01*
X209717857Y-86678571D01*
X209860714Y-86750000D01*
D10*
D11*
X189932142Y-86892857D02*
X189432142Y-86892857D01*
X189432142Y-87678571D02*
X189432142Y-86178571D01*
X190146428Y-86178571D01*
X190360714Y-87821428D02*
X191503571Y-87821428D01*
X191860714Y-87678571D02*
X191860714Y-86178571D01*
X192360714Y-87250000D01*
X192860714Y-86178571D01*
X192860714Y-87678571D01*
X194217857Y-87678571D02*
X194217857Y-86892857D01*
X194146428Y-86750000D01*
X194003571Y-86678571D01*
X193717857Y-86678571D01*
X193575000Y-86750000D01*
X194217857Y-87607142D02*
X194075000Y-87678571D01*
X193717857Y-87678571D01*
X193575000Y-87607142D01*
X193503571Y-87464285D01*
X193503571Y-87321428D01*
X193575000Y-87178571D01*
X193717857Y-87107142D01*
X194075000Y-87107142D01*
X194217857Y-87035714D01*
X194860714Y-87607142D02*
X195003571Y-87678571D01*
X195289285Y-87678571D01*
X195432142Y-87607142D01*
X195503571Y-87464285D01*
X195503571Y-87392857D01*
X195432142Y-87250000D01*
X195289285Y-87178571D01*
X195075000Y-87178571D01*
X194932142Y-87107142D01*
X194860714Y-86964285D01*
X194860714Y-86892857D01*
X194932142Y-86750000D01*
X195075000Y-86678571D01*
X195289285Y-86678571D01*
X195432142Y-86750000D01*
X196146428Y-87678571D02*
X196146428Y-86178571D01*
X196289285Y-87107142D02*
X196717857Y-87678571D01*
X196717857Y-86678571D02*
X196146428Y-87250000D01*
D10*
D11*
X267289285Y-81678571D02*
X267575000Y-82678571D01*
X267860714Y-81964285D01*
X268146428Y-82678571D01*
X268432142Y-81678571D01*
X269003571Y-82678571D02*
X269003571Y-81178571D01*
X269646428Y-82678571D02*
X269646428Y-81892857D01*
X269575000Y-81750000D01*
X269432142Y-81678571D01*
X269217857Y-81678571D01*
X269075000Y-81750000D01*
X269003571Y-81821428D01*
X270360714Y-82678571D02*
X270360714Y-81678571D01*
X270360714Y-81178571D02*
X270289285Y-81250000D01*
X270360714Y-81321428D01*
X270432142Y-81250000D01*
X270360714Y-81178571D01*
X270360714Y-81321428D01*
X270860714Y-81678571D02*
X271432142Y-81678571D01*
X271075000Y-81178571D02*
X271075000Y-82464285D01*
X271146428Y-82607142D01*
X271289285Y-82678571D01*
X271432142Y-82678571D01*
X272503571Y-82607142D02*
X272360714Y-82678571D01*
X272075000Y-82678571D01*
X271932142Y-82607142D01*
X271860714Y-82464285D01*
X271860714Y-81892857D01*
X271932142Y-81750000D01*
X272075000Y-81678571D01*
X272360714Y-81678571D01*
X272503571Y-81750000D01*
X272575000Y-81892857D01*
X272575000Y-82035714D01*
X271860714Y-82178571D01*
D10*
D11*
X244503571Y-81107142D02*
X243217857Y-83035714D01*
D10*
D11*
X206432342Y-82535914D02*
X206503771Y-82607342D01*
X206432342Y-82678771D01*
X206360914Y-82607342D01*
X206432342Y-82535914D01*
X206432342Y-82678771D01*
X207789485Y-81678771D02*
X207789485Y-82893057D01*
X207718057Y-83035914D01*
X207646628Y-83107342D01*
X207503771Y-83178771D01*
X207289485Y-83178771D01*
X207146628Y-83107342D01*
X207789485Y-82607342D02*
X207646628Y-82678771D01*
X207360914Y-82678771D01*
X207218057Y-82607342D01*
X207146628Y-82535914D01*
X207075200Y-82393057D01*
X207075200Y-81964485D01*
X207146628Y-81821628D01*
X207218057Y-81750200D01*
X207360914Y-81678771D01*
X207646628Y-81678771D01*
X207789485Y-81750200D01*
X208289485Y-81678771D02*
X208860914Y-81678771D01*
X208503771Y-81178771D02*
X208503771Y-82464485D01*
X208575200Y-82607342D01*
X208718057Y-82678771D01*
X208860914Y-82678771D01*
X209575200Y-82678771D02*
X209432342Y-82607342D01*
X209360914Y-82535914D01*
X209289485Y-82393057D01*
X209289485Y-81964485D01*
X209360914Y-81821628D01*
X209432342Y-81750200D01*
X209575200Y-81678771D01*
X209789485Y-81678771D01*
X209932342Y-81750200D01*
X210003771Y-81821628D01*
X210075200Y-81964485D01*
X210075200Y-82393057D01*
X210003771Y-82535914D01*
X209932342Y-82607342D01*
X209789485Y-82678771D01*
X209575200Y-82678771D01*
D10*
D11*
X190932142Y-81892857D02*
X190432142Y-81892857D01*
X190432142Y-82678571D02*
X190432142Y-81178571D01*
X191146428Y-81178571D01*
X191360714Y-82821428D02*
X192503571Y-82821428D01*
X192789285Y-82607142D02*
X193003571Y-82678571D01*
X193360714Y-82678571D01*
X193503571Y-82607142D01*
X193575000Y-82535714D01*
X193646428Y-82392857D01*
X193646428Y-82250000D01*
X193575000Y-82107142D01*
X193503571Y-82035714D01*
X193360714Y-81964285D01*
X193075000Y-81892857D01*
X192932142Y-81821428D01*
X192860714Y-81750000D01*
X192789285Y-81607142D01*
X192789285Y-81464285D01*
X192860714Y-81321428D01*
X192932142Y-81250000D01*
X193075000Y-81178571D01*
X193432142Y-81178571D01*
X193646428Y-81250000D01*
X194289285Y-82678571D02*
X194289285Y-81678571D01*
X194289285Y-81178571D02*
X194217857Y-81250000D01*
X194289285Y-81321428D01*
X194360714Y-81250000D01*
X194289285Y-81178571D01*
X194289285Y-81321428D01*
X195217857Y-82678571D02*
X195075000Y-82607142D01*
X195003571Y-82464285D01*
X195003571Y-81178571D01*
X195789285Y-82678571D02*
X195789285Y-81178571D01*
X195932142Y-82107142D02*
X196360714Y-82678571D01*
X196360714Y-81678571D02*
X195789285Y-82250000D01*
D10*
D11*
X267257509Y-111678347D02*
X267543224Y-112678347D01*
X267828938Y-111964061D01*
X268114652Y-112678347D01*
X268400366Y-111678347D01*
X268971795Y-112678347D02*
X268971795Y-111178347D01*
X269614652Y-112678347D02*
X269614652Y-111892633D01*
X269543224Y-111749776D01*
X269400366Y-111678347D01*
X269186081Y-111678347D01*
X269043224Y-111749776D01*
X268971795Y-111821204D01*
X270328938Y-112678347D02*
X270328938Y-111678347D01*
X270328938Y-111178347D02*
X270257509Y-111249776D01*
X270328938Y-111321204D01*
X270400366Y-111249776D01*
X270328938Y-111178347D01*
X270328938Y-111321204D01*
X270828938Y-111678347D02*
X271400366Y-111678347D01*
X271043224Y-111178347D02*
X271043224Y-112464061D01*
X271114652Y-112606918D01*
X271257509Y-112678347D01*
X271400366Y-112678347D01*
X272471795Y-112606918D02*
X272328938Y-112678347D01*
X272043224Y-112678347D01*
X271900366Y-112606918D01*
X271828938Y-112464061D01*
X271828938Y-111892633D01*
X271900366Y-111749776D01*
X272043224Y-111678347D01*
X272328938Y-111678347D01*
X272471795Y-111749776D01*
X272543224Y-111892633D01*
X272543224Y-112035490D01*
X271828938Y-112178347D01*
D10*
D11*
X244487083Y-111106918D02*
X243201369Y-113035490D01*
D10*
D11*
X206415982Y-112535490D02*
X206487411Y-112606918D01*
X206415982Y-112678347D01*
X206344554Y-112606918D01*
X206415982Y-112535490D01*
X206415982Y-112678347D01*
X207773125Y-111678347D02*
X207773125Y-112892633D01*
X207701697Y-113035490D01*
X207630268Y-113106918D01*
X207487411Y-113178347D01*
X207273125Y-113178347D01*
X207130268Y-113106918D01*
X207773125Y-112606918D02*
X207630268Y-112678347D01*
X207344554Y-112678347D01*
X207201697Y-112606918D01*
X207130268Y-112535490D01*
X207058840Y-112392633D01*
X207058840Y-111964061D01*
X207130268Y-111821204D01*
X207201697Y-111749776D01*
X207344554Y-111678347D01*
X207630268Y-111678347D01*
X207773125Y-111749776D01*
X208487411Y-112678347D02*
X208487411Y-111178347D01*
X208487411Y-111749776D02*
X208630268Y-111678347D01*
X208915982Y-111678347D01*
X209058840Y-111749776D01*
X209130268Y-111821204D01*
X209201697Y-111964061D01*
X209201697Y-112392633D01*
X209130268Y-112535490D01*
X209058840Y-112606918D01*
X208915982Y-112678347D01*
X208630268Y-112678347D01*
X208487411Y-112606918D01*
X210058840Y-112678347D02*
X209915982Y-112606918D01*
X209844554Y-112535490D01*
X209773125Y-112392633D01*
X209773125Y-111964061D01*
X209844554Y-111821204D01*
X209915982Y-111749776D01*
X210058840Y-111678347D01*
X210273125Y-111678347D01*
X210415982Y-111749776D01*
X210487411Y-111821204D01*
X210558840Y-111964061D01*
X210558840Y-112392633D01*
X210487411Y-112535490D01*
X210415982Y-112606918D01*
X210273125Y-112678347D01*
X210058840Y-112678347D01*
D10*
D11*
X191932342Y-111893057D02*
X192146628Y-111964485D01*
X192218057Y-112035914D01*
X192289485Y-112178771D01*
X192289485Y-112393057D01*
X192218057Y-112535914D01*
X192146628Y-112607342D01*
X192003771Y-112678771D01*
X191432342Y-112678771D01*
X191432342Y-111178771D01*
X191932342Y-111178771D01*
X192075200Y-111250200D01*
X192146628Y-111321628D01*
X192218057Y-111464485D01*
X192218057Y-111607342D01*
X192146628Y-111750200D01*
X192075200Y-111821628D01*
X191932342Y-111893057D01*
X191432342Y-111893057D01*
X192575200Y-112821628D02*
X193718057Y-112821628D01*
X194003771Y-112607342D02*
X194218057Y-112678771D01*
X194575200Y-112678771D01*
X194718057Y-112607342D01*
X194789485Y-112535914D01*
X194860914Y-112393057D01*
X194860914Y-112250200D01*
X194789485Y-112107342D01*
X194718057Y-112035914D01*
X194575200Y-111964485D01*
X194289485Y-111893057D01*
X194146628Y-111821628D01*
X194075200Y-111750200D01*
X194003771Y-111607342D01*
X194003771Y-111464485D01*
X194075200Y-111321628D01*
X194146628Y-111250200D01*
X194289485Y-111178771D01*
X194646628Y-111178771D01*
X194860914Y-111250200D01*
X195503771Y-112678771D02*
X195503771Y-111678771D01*
X195503771Y-111178771D02*
X195432342Y-111250200D01*
X195503771Y-111321628D01*
X195575200Y-111250200D01*
X195503771Y-111178771D01*
X195503771Y-111321628D01*
X196432342Y-112678771D02*
X196289485Y-112607342D01*
X196218057Y-112464485D01*
X196218057Y-111178771D01*
X197003771Y-112678771D02*
X197003771Y-111178771D01*
X197146628Y-112107342D02*
X197575200Y-112678771D01*
X197575200Y-111678771D02*
X197003771Y-112250200D01*
D10*
D11*
X267416622Y-107678611D02*
X267416622Y-106178611D01*
X267416622Y-106750040D02*
X267559480Y-106678611D01*
X267845194Y-106678611D01*
X267988051Y-106750040D01*
X268059480Y-106821468D01*
X268130908Y-106964325D01*
X268130908Y-107392897D01*
X268059480Y-107535754D01*
X267988051Y-107607182D01*
X267845194Y-107678611D01*
X267559480Y-107678611D01*
X267416622Y-107607182D01*
X268988051Y-107678611D02*
X268845194Y-107607182D01*
X268773765Y-107464325D01*
X268773765Y-106178611D01*
X270202337Y-107678611D02*
X270202337Y-106892897D01*
X270130908Y-106750040D01*
X269988051Y-106678611D01*
X269702337Y-106678611D01*
X269559480Y-106750040D01*
X270202337Y-107607182D02*
X270059480Y-107678611D01*
X269702337Y-107678611D01*
X269559480Y-107607182D01*
X269488051Y-107464325D01*
X269488051Y-107321468D01*
X269559480Y-107178611D01*
X269702337Y-107107182D01*
X270059480Y-107107182D01*
X270202337Y-107035754D01*
X271559480Y-107607182D02*
X271416622Y-107678611D01*
X271130908Y-107678611D01*
X270988051Y-107607182D01*
X270916622Y-107535754D01*
X270845194Y-107392897D01*
X270845194Y-106964325D01*
X270916622Y-106821468D01*
X270988051Y-106750040D01*
X271130908Y-106678611D01*
X271416622Y-106678611D01*
X271559480Y-106750040D01*
X272202337Y-107678611D02*
X272202337Y-106178611D01*
X272345194Y-107107182D02*
X272773765Y-107678611D01*
X272773765Y-106678611D02*
X272202337Y-107250040D01*
D10*
D11*
X244503571Y-106107142D02*
X243217857Y-108035714D01*
D10*
D11*
X268202337Y-137838571D02*
X267345194Y-137838571D01*
X267773765Y-137838571D02*
X267773765Y-136338571D01*
X267630908Y-136552857D01*
X267488051Y-136695714D01*
X267345194Y-136767142D01*
X268845194Y-137695714D02*
X268916622Y-137767142D01*
X268845194Y-137838571D01*
X268773765Y-137767142D01*
X268845194Y-137695714D01*
X268845194Y-137838571D01*
X270273765Y-136338571D02*
X269559480Y-136338571D01*
X269488051Y-137052857D01*
X269559480Y-136981428D01*
X269702337Y-136910000D01*
X270059480Y-136910000D01*
X270202337Y-136981428D01*
X270273765Y-137052857D01*
X270345194Y-137195714D01*
X270345194Y-137552857D01*
X270273765Y-137695714D01*
X270202337Y-137767142D01*
X270059480Y-137838571D01*
X269702337Y-137838571D01*
X269559480Y-137767142D01*
X269488051Y-137695714D01*
X272130908Y-137695714D02*
X272202337Y-137767142D01*
X272130908Y-137838571D01*
X272059480Y-137767142D01*
X272130908Y-137695714D01*
X272130908Y-137838571D01*
X272845194Y-137695714D02*
X272916622Y-137767142D01*
X272845194Y-137838571D01*
X272773765Y-137767142D01*
X272845194Y-137695714D01*
X272845194Y-137838571D01*
X275488051Y-137838571D02*
X274630908Y-137838571D01*
X275059480Y-137838571D02*
X275059480Y-136338571D01*
X274916622Y-136552857D01*
X274773765Y-136695714D01*
X274630908Y-136767142D01*
X276130908Y-137695714D02*
X276202337Y-137767142D01*
X276130908Y-137838571D01*
X276059480Y-137767142D01*
X276130908Y-137695714D01*
X276130908Y-137838571D01*
X277488051Y-136338571D02*
X277202337Y-136338571D01*
X277059480Y-136410000D01*
X276988051Y-136481428D01*
X276845194Y-136695714D01*
X276773765Y-136981428D01*
X276773765Y-137552857D01*
X276845194Y-137695714D01*
X276916622Y-137767142D01*
X277059480Y-137838571D01*
X277345194Y-137838571D01*
X277488051Y-137767142D01*
X277559480Y-137695714D01*
X277630908Y-137552857D01*
X277630908Y-137195714D01*
X277559480Y-137052857D01*
X277488051Y-136981428D01*
X277345194Y-136910000D01*
X277059480Y-136910000D01*
X276916622Y-136981428D01*
X276845194Y-137052857D01*
X276773765Y-137195714D01*
X279416622Y-137838571D02*
X279416622Y-136838571D01*
X279416622Y-136981428D02*
X279488051Y-136910000D01*
X279630908Y-136838571D01*
X279845194Y-136838571D01*
X279988051Y-136910000D01*
X280059480Y-137052857D01*
X280059480Y-137838571D01*
X280059480Y-137052857D02*
X280130908Y-136910000D01*
X280273765Y-136838571D01*
X280488051Y-136838571D01*
X280630908Y-136910000D01*
X280702337Y-137052857D01*
X280702337Y-137838571D01*
X281416622Y-137838571D02*
X281416622Y-136838571D01*
X281416622Y-136981428D02*
X281488051Y-136910000D01*
X281630908Y-136838571D01*
X281845194Y-136838571D01*
X281988051Y-136910000D01*
X282059480Y-137052857D01*
X282059480Y-137838571D01*
X282059480Y-137052857D02*
X282130908Y-136910000D01*
X282273765Y-136838571D01*
X282488051Y-136838571D01*
X282630908Y-136910000D01*
X282702337Y-137052857D01*
X282702337Y-137838571D01*
D10*
D11*
X219201417Y-136338571D02*
X220058560Y-136338571D01*
X219629988Y-137838571D02*
X219629988Y-136338571D01*
X220772845Y-137838571D02*
X220629988Y-137767142D01*
X220558560Y-137695714D01*
X220487131Y-137552857D01*
X220487131Y-137124285D01*
X220558560Y-136981428D01*
X220629988Y-136910000D01*
X220772845Y-136838571D01*
X220987131Y-136838571D01*
X221129988Y-136910000D01*
X221201417Y-136981428D01*
X221272845Y-137124285D01*
X221272845Y-137552857D01*
X221201417Y-137695714D01*
X221129988Y-137767142D01*
X220987131Y-137838571D01*
X220772845Y-137838571D01*
X221701417Y-136838571D02*
X222272845Y-136838571D01*
X221915702Y-136338571D02*
X221915702Y-137624285D01*
X221987131Y-137767142D01*
X222129988Y-137838571D01*
X222272845Y-137838571D01*
X223415702Y-137838571D02*
X223415702Y-137052857D01*
X223344274Y-136910000D01*
X223201417Y-136838571D01*
X222915702Y-136838571D01*
X222772845Y-136910000D01*
X223415702Y-137767142D02*
X223272845Y-137838571D01*
X222915702Y-137838571D01*
X222772845Y-137767142D01*
X222701417Y-137624285D01*
X222701417Y-137481428D01*
X222772845Y-137338571D01*
X222915702Y-137267142D01*
X223272845Y-137267142D01*
X223415702Y-137195714D01*
X224344274Y-137838571D02*
X224201417Y-137767142D01*
X224129988Y-137624285D01*
X224129988Y-136338571D01*
X225844274Y-136338571D02*
X226701417Y-136338571D01*
X226272845Y-137838571D02*
X226272845Y-136338571D01*
X227201417Y-137838571D02*
X227201417Y-136338571D01*
X227844274Y-137838571D02*
X227844274Y-137052857D01*
X227772845Y-136910000D01*
X227629988Y-136838571D01*
X227415702Y-136838571D01*
X227272845Y-136910000D01*
X227201417Y-136981428D01*
X228558560Y-137838571D02*
X228558560Y-136838571D01*
X228558560Y-136338571D02*
X228487131Y-136410000D01*
X228558560Y-136481428D01*
X228629988Y-136410000D01*
X228558560Y-136338571D01*
X228558560Y-136481428D01*
X229915702Y-137767142D02*
X229772845Y-137838571D01*
X229487131Y-137838571D01*
X229344274Y-137767142D01*
X229272845Y-137695714D01*
X229201417Y-137552857D01*
X229201417Y-137124285D01*
X229272845Y-136981428D01*
X229344274Y-136910000D01*
X229487131Y-136838571D01*
X229772845Y-136838571D01*
X229915702Y-136910000D01*
X230558560Y-137838571D02*
X230558560Y-136338571D01*
X230701417Y-137267142D02*
X231129988Y-137838571D01*
X231129988Y-136838571D02*
X230558560Y-137410000D01*
X231772845Y-136838571D02*
X231772845Y-137838571D01*
X231772845Y-136981428D02*
X231844274Y-136910000D01*
X231987131Y-136838571D01*
X232201417Y-136838571D01*
X232344274Y-136910000D01*
X232415702Y-137052857D01*
X232415702Y-137838571D01*
X233701417Y-137767142D02*
X233558560Y-137838571D01*
X233272845Y-137838571D01*
X233129988Y-137767142D01*
X233058560Y-137624285D01*
X233058560Y-137052857D01*
X233129988Y-136910000D01*
X233272845Y-136838571D01*
X233558560Y-136838571D01*
X233701417Y-136910000D01*
X233772845Y-137052857D01*
X233772845Y-137195714D01*
X233058560Y-137338571D01*
X234344274Y-137767142D02*
X234487131Y-137838571D01*
X234772845Y-137838571D01*
X234915702Y-137767142D01*
X234987131Y-137624285D01*
X234987131Y-137552857D01*
X234915702Y-137410000D01*
X234772845Y-137338571D01*
X234558560Y-137338571D01*
X234415702Y-137267142D01*
X234344274Y-137124285D01*
X234344274Y-137052857D01*
X234415702Y-136910000D01*
X234558560Y-136838571D01*
X234772845Y-136838571D01*
X234915702Y-136910000D01*
X235558560Y-137767142D02*
X235701417Y-137838571D01*
X235987131Y-137838571D01*
X236129988Y-137767142D01*
X236201417Y-137624285D01*
X236201417Y-137552857D01*
X236129988Y-137410000D01*
X235987131Y-137338571D01*
X235772845Y-137338571D01*
X235629988Y-137267142D01*
X235558560Y-137124285D01*
X235558560Y-137052857D01*
X235629988Y-136910000D01*
X235772845Y-136838571D01*
X235987131Y-136838571D01*
X236129988Y-136910000D01*
D10*
D11*
X189357342Y-127274057D02*
X189857342Y-127274057D01*
X190071628Y-128059771D02*
X189357342Y-128059771D01*
X189357342Y-126559771D01*
X190071628Y-126559771D01*
X191357342Y-128059771D02*
X191357342Y-126559771D01*
X191357342Y-127988342D02*
X191214485Y-128059771D01*
X190928771Y-128059771D01*
X190785914Y-127988342D01*
X190714485Y-127916914D01*
X190643057Y-127774057D01*
X190643057Y-127345485D01*
X190714485Y-127202628D01*
X190785914Y-127131200D01*
X190928771Y-127059771D01*
X191214485Y-127059771D01*
X191357342Y-127131200D01*
X192714485Y-127059771D02*
X192714485Y-128274057D01*
X192643057Y-128416914D01*
X192571628Y-128488342D01*
X192428771Y-128559771D01*
X192214485Y-128559771D01*
X192071628Y-128488342D01*
X192714485Y-127988342D02*
X192571628Y-128059771D01*
X192285914Y-128059771D01*
X192143057Y-127988342D01*
X192071628Y-127916914D01*
X192000200Y-127774057D01*
X192000200Y-127345485D01*
X192071628Y-127202628D01*
X192143057Y-127131200D01*
X192285914Y-127059771D01*
X192571628Y-127059771D01*
X192714485Y-127131200D01*
X194000200Y-127988342D02*
X193857342Y-128059771D01*
X193571628Y-128059771D01*
X193428771Y-127988342D01*
X193357342Y-127845485D01*
X193357342Y-127274057D01*
X193428771Y-127131200D01*
X193571628Y-127059771D01*
X193857342Y-127059771D01*
X194000200Y-127131200D01*
X194071628Y-127274057D01*
X194071628Y-127416914D01*
X193357342Y-127559771D01*
X194357342Y-128202628D02*
X195500200Y-128202628D01*
X196714485Y-127916914D02*
X196643057Y-127988342D01*
X196428771Y-128059771D01*
X196285914Y-128059771D01*
X196071628Y-127988342D01*
X195928771Y-127845485D01*
X195857342Y-127702628D01*
X195785914Y-127416914D01*
X195785914Y-127202628D01*
X195857342Y-126916914D01*
X195928771Y-126774057D01*
X196071628Y-126631200D01*
X196285914Y-126559771D01*
X196428771Y-126559771D01*
X196643057Y-126631200D01*
X196714485Y-126702628D01*
X198000200Y-127059771D02*
X198000200Y-128059771D01*
X197357342Y-127059771D02*
X197357342Y-127845485D01*
X197428771Y-127988342D01*
X197571628Y-128059771D01*
X197785914Y-128059771D01*
X197928771Y-127988342D01*
X198000200Y-127916914D01*
X198500200Y-127059771D02*
X199071628Y-127059771D01*
X198714485Y-126559771D02*
X198714485Y-127845485D01*
X198785914Y-127988342D01*
X198928771Y-128059771D01*
X199071628Y-128059771D01*
X199500200Y-127988342D02*
X199643057Y-128059771D01*
X199928771Y-128059771D01*
X200071628Y-127988342D01*
X200143057Y-127845485D01*
X200143057Y-127774057D01*
X200071628Y-127631200D01*
X199928771Y-127559771D01*
X199714485Y-127559771D01*
X199571628Y-127488342D01*
X199500200Y-127345485D01*
X199500200Y-127274057D01*
X199571628Y-127131200D01*
X199714485Y-127059771D01*
X199928771Y-127059771D01*
X200071628Y-127131200D01*
D10*
D11*
X205613342Y-127916914D02*
X205684771Y-127988342D01*
X205613342Y-128059771D01*
X205541914Y-127988342D01*
X205613342Y-127916914D01*
X205613342Y-128059771D01*
X206970485Y-127059771D02*
X206970485Y-128274057D01*
X206899057Y-128416914D01*
X206827628Y-128488342D01*
X206684771Y-128559771D01*
X206470485Y-128559771D01*
X206327628Y-128488342D01*
X206970485Y-127988342D02*
X206827628Y-128059771D01*
X206541914Y-128059771D01*
X206399057Y-127988342D01*
X206327628Y-127916914D01*
X206256200Y-127774057D01*
X206256200Y-127345485D01*
X206327628Y-127202628D01*
X206399057Y-127131200D01*
X206541914Y-127059771D01*
X206827628Y-127059771D01*
X206970485Y-127131200D01*
X207684771Y-128059771D02*
X207684771Y-127059771D01*
X207684771Y-127202628D02*
X207756200Y-127131200D01*
X207899057Y-127059771D01*
X208113342Y-127059771D01*
X208256200Y-127131200D01*
X208327628Y-127274057D01*
X208327628Y-128059771D01*
X208327628Y-127274057D02*
X208399057Y-127131200D01*
X208541914Y-127059771D01*
X208756200Y-127059771D01*
X208899057Y-127131200D01*
X208970485Y-127274057D01*
X208970485Y-128059771D01*
X210470485Y-128059771D02*
X209613342Y-128059771D01*
X210041914Y-128059771D02*
X210041914Y-126559771D01*
X209899057Y-126774057D01*
X209756200Y-126916914D01*
X209613342Y-126988342D01*
X212684771Y-128631200D02*
X212613342Y-128559771D01*
X212470485Y-128345485D01*
X212399057Y-128202628D01*
X212327628Y-127988342D01*
X212256200Y-127631200D01*
X212256200Y-127345485D01*
X212327628Y-126988342D01*
X212399057Y-126774057D01*
X212470485Y-126631200D01*
X212613342Y-126416914D01*
X212684771Y-126345485D01*
X213756200Y-127274057D02*
X213970485Y-127345485D01*
X214041914Y-127416914D01*
X214113342Y-127559771D01*
X214113342Y-127774057D01*
X214041914Y-127916914D01*
X213970485Y-127988342D01*
X213827628Y-128059771D01*
X213256200Y-128059771D01*
X213256200Y-126559771D01*
X213756200Y-126559771D01*
X213899057Y-126631200D01*
X213970485Y-126702628D01*
X214041914Y-126845485D01*
X214041914Y-126988342D01*
X213970485Y-127131200D01*
X213899057Y-127202628D01*
X213756200Y-127274057D01*
X213256200Y-127274057D01*
X214970485Y-128059771D02*
X214827628Y-127988342D01*
X214756200Y-127916914D01*
X214684771Y-127774057D01*
X214684771Y-127345485D01*
X214756200Y-127202628D01*
X214827628Y-127131200D01*
X214970485Y-127059771D01*
X215184771Y-127059771D01*
X215327628Y-127131200D01*
X215399057Y-127202628D01*
X215470485Y-127345485D01*
X215470485Y-127774057D01*
X215399057Y-127916914D01*
X215327628Y-127988342D01*
X215184771Y-128059771D01*
X214970485Y-128059771D01*
X216756200Y-128059771D02*
X216756200Y-127274057D01*
X216684771Y-127131200D01*
X216541914Y-127059771D01*
X216256200Y-127059771D01*
X216113342Y-127131200D01*
X216756200Y-127988342D02*
X216613342Y-128059771D01*
X216256200Y-128059771D01*
X216113342Y-127988342D01*
X216041914Y-127845485D01*
X216041914Y-127702628D01*
X216113342Y-127559771D01*
X216256200Y-127488342D01*
X216613342Y-127488342D01*
X216756200Y-127416914D01*
X217470485Y-128059771D02*
X217470485Y-127059771D01*
X217470485Y-127345485D02*
X217541914Y-127202628D01*
X217613342Y-127131200D01*
X217756200Y-127059771D01*
X217899057Y-127059771D01*
X219041914Y-128059771D02*
X219041914Y-126559771D01*
X219041914Y-127988342D02*
X218899057Y-128059771D01*
X218613342Y-128059771D01*
X218470485Y-127988342D01*
X218399057Y-127916914D01*
X218327628Y-127774057D01*
X218327628Y-127345485D01*
X218399057Y-127202628D01*
X218470485Y-127131200D01*
X218613342Y-127059771D01*
X218899057Y-127059771D01*
X219041914Y-127131200D01*
X221113342Y-128059771D02*
X220970485Y-127988342D01*
X220899057Y-127916914D01*
X220827628Y-127774057D01*
X220827628Y-127345485D01*
X220899057Y-127202628D01*
X220970485Y-127131200D01*
X221113342Y-127059771D01*
X221327628Y-127059771D01*
X221470485Y-127131200D01*
X221541914Y-127202628D01*
X221613342Y-127345485D01*
X221613342Y-127774057D01*
X221541914Y-127916914D01*
X221470485Y-127988342D01*
X221327628Y-128059771D01*
X221113342Y-128059771D01*
X222899057Y-127059771D02*
X222899057Y-128059771D01*
X222256200Y-127059771D02*
X222256200Y-127845485D01*
X222327628Y-127988342D01*
X222470485Y-128059771D01*
X222684771Y-128059771D01*
X222827628Y-127988342D01*
X222899057Y-127916914D01*
X223399057Y-127059771D02*
X223970485Y-127059771D01*
X223613342Y-126559771D02*
X223613342Y-127845485D01*
X223684771Y-127988342D01*
X223827628Y-128059771D01*
X223970485Y-128059771D01*
X224684771Y-128059771D02*
X224541914Y-127988342D01*
X224470485Y-127845485D01*
X224470485Y-126559771D01*
X225256200Y-128059771D02*
X225256200Y-127059771D01*
X225256200Y-126559771D02*
X225184771Y-126631200D01*
X225256200Y-126702628D01*
X225327628Y-126631200D01*
X225256200Y-126559771D01*
X225256200Y-126702628D01*
X225970485Y-127059771D02*
X225970485Y-128059771D01*
X225970485Y-127202628D02*
X226041914Y-127131200D01*
X226184771Y-127059771D01*
X226399057Y-127059771D01*
X226541914Y-127131200D01*
X226613342Y-127274057D01*
X226613342Y-128059771D01*
X227899057Y-127988342D02*
X227756200Y-128059771D01*
X227470485Y-128059771D01*
X227327628Y-127988342D01*
X227256200Y-127845485D01*
X227256200Y-127274057D01*
X227327628Y-127131200D01*
X227470485Y-127059771D01*
X227756200Y-127059771D01*
X227899057Y-127131200D01*
X227970485Y-127274057D01*
X227970485Y-127416914D01*
X227256200Y-127559771D01*
X228470485Y-128631200D02*
X228541914Y-128559771D01*
X228684771Y-128345485D01*
X228756200Y-128202628D01*
X228827628Y-127988342D01*
X228899057Y-127631200D01*
X228899057Y-127345485D01*
X228827628Y-126988342D01*
X228756200Y-126774057D01*
X228684771Y-126631200D01*
X228541914Y-126416914D01*
X228470485Y-126345485D01*
D10*
D11*
X244276771Y-126488142D02*
X242991057Y-128416714D01*
D10*
D11*
X268277739Y-126488142D02*
X266992025Y-128416714D01*
D14*
X77820833Y-77126190D02*
X77944642Y-77188095D01*
X78192261Y-77188095D01*
X78316071Y-77126190D01*
X78377976Y-77064285D01*
X78439880Y-76940476D01*
X78439880Y-76569047D01*
X78377976Y-76445238D01*
X78316071Y-76383333D01*
X78192261Y-76321428D01*
X77944642Y-76321428D01*
X77820833Y-76383333D01*
X76706547Y-77188095D02*
X76706547Y-76507142D01*
X76768452Y-76383333D01*
X76892261Y-76321428D01*
X77139880Y-76321428D01*
X77263690Y-76383333D01*
X76706547Y-77126190D02*
X76830357Y-77188095D01*
X77139880Y-77188095D01*
X77263690Y-77126190D01*
X77325595Y-77002380D01*
X77325595Y-76878571D01*
X77263690Y-76754761D01*
X77139880Y-76692857D01*
X76830357Y-76692857D01*
X76706547Y-76630952D01*
X76087500Y-76321428D02*
X76087500Y-77188095D01*
X76087500Y-76445238D02*
X76025595Y-76383333D01*
X75901785Y-76321428D01*
X75716071Y-76321428D01*
X75592261Y-76383333D01*
X75530357Y-76507142D01*
X75530357Y-77188095D01*
X74354166Y-77188095D02*
X74354166Y-75888095D01*
X74354166Y-77126190D02*
X74477976Y-77188095D01*
X74725595Y-77188095D01*
X74849404Y-77126190D01*
X74911309Y-77064285D01*
X74973214Y-76940476D01*
X74973214Y-76569047D01*
X74911309Y-76445238D01*
X74849404Y-76383333D01*
X74725595Y-76321428D01*
X74477976Y-76321428D01*
X74354166Y-76383333D01*
X73549404Y-77188095D02*
X73673214Y-77126190D01*
X73735119Y-77002380D01*
X73735119Y-75888095D01*
X72558928Y-77126190D02*
X72682738Y-77188095D01*
X72930357Y-77188095D01*
X73054166Y-77126190D01*
X73116071Y-77002380D01*
X73116071Y-76507142D01*
X73054166Y-76383333D01*
X72930357Y-76321428D01*
X72682738Y-76321428D01*
X72558928Y-76383333D01*
X72497023Y-76507142D01*
X72497023Y-76630952D01*
X73116071Y-76754761D01*
X71320833Y-77188095D02*
X71939880Y-77188095D01*
X71939880Y-75888095D01*
X70887500Y-77188095D02*
X70887500Y-76321428D01*
X70887500Y-75888095D02*
X70949404Y-75950000D01*
X70887500Y-76011904D01*
X70825595Y-75950000D01*
X70887500Y-75888095D01*
X70887500Y-76011904D01*
X69711309Y-76321428D02*
X69711309Y-77373809D01*
X69773214Y-77497619D01*
X69835119Y-77559523D01*
X69958928Y-77621428D01*
X70144642Y-77621428D01*
X70268452Y-77559523D01*
X69711309Y-77126190D02*
X69835119Y-77188095D01*
X70082738Y-77188095D01*
X70206547Y-77126190D01*
X70268452Y-77064285D01*
X70330357Y-76940476D01*
X70330357Y-76569047D01*
X70268452Y-76445238D01*
X70206547Y-76383333D01*
X70082738Y-76321428D01*
X69835119Y-76321428D01*
X69711309Y-76383333D01*
X69092261Y-77188095D02*
X69092261Y-75888095D01*
X68535119Y-77188095D02*
X68535119Y-76507142D01*
X68597023Y-76383333D01*
X68720833Y-76321428D01*
X68906547Y-76321428D01*
X69030357Y-76383333D01*
X69092261Y-76445238D01*
X68101785Y-76321428D02*
X67606547Y-76321428D01*
X67916071Y-75888095D02*
X67916071Y-77002380D01*
X67854166Y-77126190D01*
X67730357Y-77188095D01*
X67606547Y-77188095D01*
X67173214Y-76692857D02*
X66182738Y-76692857D01*
X65563690Y-77188095D02*
X65563690Y-75888095D01*
X65068452Y-75888095D01*
X64944642Y-75950000D01*
X64882738Y-76011904D01*
X64820833Y-76135714D01*
X64820833Y-76321428D01*
X64882738Y-76445238D01*
X64944642Y-76507142D01*
X65068452Y-76569047D01*
X65563690Y-76569047D01*
X64016071Y-75888095D02*
X63892261Y-75888095D01*
X63768452Y-75950000D01*
X63706547Y-76011904D01*
X63644642Y-76135714D01*
X63582738Y-76383333D01*
X63582738Y-76692857D01*
X63644642Y-76940476D01*
X63706547Y-77064285D01*
X63768452Y-77126190D01*
X63892261Y-77188095D01*
X64016071Y-77188095D01*
X64139880Y-77126190D01*
X64201785Y-77064285D01*
X64263690Y-76940476D01*
X64325595Y-76692857D01*
X64325595Y-76383333D01*
X64263690Y-76135714D01*
X64201785Y-76011904D01*
X64139880Y-75950000D01*
X64016071Y-75888095D01*
X62344642Y-77188095D02*
X63087499Y-77188095D01*
X62716071Y-77188095D02*
X62716071Y-75888095D01*
X62839880Y-76073809D01*
X62963690Y-76197619D01*
X63087499Y-76259523D01*
X61787499Y-76692857D02*
X60797023Y-76692857D01*
X59435119Y-77188095D02*
X59868452Y-76569047D01*
X60177976Y-77188095D02*
X60177976Y-75888095D01*
X59682738Y-75888095D01*
X59558928Y-75950000D01*
X59497023Y-76011904D01*
X59435119Y-76135714D01*
X59435119Y-76321428D01*
X59497023Y-76445238D01*
X59558928Y-76507142D01*
X59682738Y-76569047D01*
X60177976Y-76569047D01*
X58630357Y-75888095D02*
X58506547Y-75888095D01*
X58382738Y-75950000D01*
X58320833Y-76011904D01*
X58258928Y-76135714D01*
X58197023Y-76383333D01*
X58197023Y-76692857D01*
X58258928Y-76940476D01*
X58320833Y-77064285D01*
X58382738Y-77126190D01*
X58506547Y-77188095D01*
X58630357Y-77188095D01*
X58754166Y-77126190D01*
X58816071Y-77064285D01*
X58877976Y-76940476D01*
X58939880Y-76692857D01*
X58939880Y-76383333D01*
X58877976Y-76135714D01*
X58816071Y-76011904D01*
X58754166Y-75950000D01*
X58630357Y-75888095D01*
X56958928Y-77188095D02*
X57701785Y-77188095D01*
X57330357Y-77188095D02*
X57330357Y-75888095D01*
X57454166Y-76073809D01*
X57577976Y-76197619D01*
X57701785Y-76259523D01*
X56401785Y-76692857D02*
X55411309Y-76692857D01*
X54358928Y-76507142D02*
X54173214Y-76569047D01*
X54111309Y-76630952D01*
X54049404Y-76754761D01*
X54049404Y-76940476D01*
X54111309Y-77064285D01*
X54173214Y-77126190D01*
X54297023Y-77188095D01*
X54792261Y-77188095D01*
X54792261Y-75888095D01*
X54358928Y-75888095D01*
X54235119Y-75950000D01*
X54173214Y-76011904D01*
X54111309Y-76135714D01*
X54111309Y-76259523D01*
X54173214Y-76383333D01*
X54235119Y-76445238D01*
X54358928Y-76507142D01*
X54792261Y-76507142D01*
X53244642Y-75888095D02*
X53120833Y-75888095D01*
X52997023Y-75950000D01*
X52935119Y-76011904D01*
X52873214Y-76135714D01*
X52811309Y-76383333D01*
X52811309Y-76692857D01*
X52873214Y-76940476D01*
X52935119Y-77064285D01*
X52997023Y-77126190D01*
X53120833Y-77188095D01*
X53244642Y-77188095D01*
X53368452Y-77126190D01*
X53430357Y-77064285D01*
X53492261Y-76940476D01*
X53554166Y-76692857D01*
X53554166Y-76383333D01*
X53492261Y-76135714D01*
X53430357Y-76011904D01*
X53368452Y-75950000D01*
X53244642Y-75888095D01*
X51573214Y-77188095D02*
X52316071Y-77188095D01*
X51944642Y-77188095D02*
X51944642Y-75888095D01*
X52068452Y-76073809D01*
X52192261Y-76197619D01*
X52316071Y-76259523D01*
D15*
X41400000Y-75000000D02*
X41400000Y-81100000D01*
X79100000Y-75000000D02*
X79100000Y-95000000D01*
X47000000Y-81900000D02*
X47000000Y-88100000D01*
X41400000Y-81100000D02*
X46200000Y-81100000D01*
X47000000Y-81900000D02*
G75*
G03*
X46200000Y-81100000I-800000J0D01*
G01*
X46200000Y-88900000D02*
G75*
G03*
X47000000Y-88100000I0J800000D01*
G01*
X41400000Y-88900000D02*
X46200000Y-88900000D01*
X41400000Y-95000000D02*
X41400000Y-88900000D01*
X79100000Y-95000000D02*
X41400000Y-95000000D01*
X41400000Y-75000000D02*
X79100000Y-75000000D01*
D16*
%TO.P,W201,1*%
%TO.N,/MCU/TX*%
X51500000Y-86000000D03*
%TD*%
%TO.P,W202,1*%
%TO.N,/MCU/RX*%
X54000000Y-86000000D03*
%TD*%
%TO.P,W203,1*%
%TO.N,/MCU/SCL*%
X52500000Y-92000000D03*
%TD*%
%TO.P,W204,1*%
%TO.N,/MCU/SDA*%
X55000000Y-92000000D03*
%TD*%
%TO.P,W205,1*%
%TO.N,/MCU/CS*%
X54000000Y-80500000D03*
%TD*%
%TO.P,W206,1*%
%TO.N,/MCU/SCK*%
X51500000Y-80500000D03*
%TD*%
%TO.P,W207,1*%
%TO.N,/MCU/MISO*%
X51500000Y-83000000D03*
%TD*%
%TO.P,W208,1*%
%TO.N,/MCU/MOSI*%
X54000000Y-83000000D03*
%TD*%
D17*
%TO.P,W301,1*%
%TO.N,+5V*%
X48150000Y-78500000D03*
%TD*%
%TO.P,W302,1*%
%TO.N,GND*%
X44300000Y-78500000D03*
%TD*%
D18*
%TO.P,X502,9*%
%TO.N,N/C*%
X76333000Y-80809000D03*
%TO.P,X502,8*%
X76333000Y-83603000D03*
%TO.P,X502,7*%
%TO.N,/CAN/CAN_H*%
X76333000Y-86397000D03*
%TO.P,X502,6*%
%TO.N,N/C*%
X76333000Y-89191000D03*
%TD*%
D19*
%TO.N,GND*%
X53043249Y-79618617D03*
X60106996Y-93784245D03*
X49350000Y-90050000D03*
X55784003Y-93177524D03*
X55550000Y-79650000D03*
X56168804Y-87440390D03*
X72799594Y-83022129D03*
X70350000Y-79400000D03*
X60350000Y-84450000D03*
X67000000Y-80500000D03*
X64850000Y-80500000D03*
X65950000Y-80500000D03*
X66495089Y-87551599D03*
X66501375Y-85999137D03*
X66499068Y-84447739D03*
X66498356Y-82898246D03*
X73000000Y-91000000D03*
X63550000Y-91150000D03*
X58800000Y-91050000D03*
X49800000Y-89100000D03*
X47900000Y-87400000D03*
X45550000Y-79750000D03*
X45200000Y-90050000D03*
X51050000Y-78900000D03*
%TO.N,+3V3*%
X51514644Y-94064644D03*
X55500000Y-86500000D03*
X54500000Y-88025010D03*
X50000000Y-92200000D03*
%TO.N,+5V*%
X48300000Y-82500000D03*
X66467266Y-92429853D03*
X70450000Y-81050000D03*
%TO.N,/CAN/CAN_H*%
X71659907Y-85429747D03*
%TO.N,/Connectors/NRST*%
X60250000Y-85500000D03*
X59000000Y-86750000D03*
X52762530Y-89200929D03*
X44400000Y-91500000D03*
%TO.N,/MCU/CAN_RX*%
X62453828Y-90482905D03*
X58461607Y-88212741D03*
%TO.N,/MCU/CAN_TX*%
X61695031Y-89815236D03*
X59238503Y-88212519D03*
%TO.N,/MCU/SCL*%
X53450000Y-93200000D03*
%TO.N,/MCU/SDA*%
X54950000Y-93200000D03*
%TO.N,/MCU/CS*%
X55249523Y-83634057D03*
%TO.N,/MCU/SCK*%
X52201740Y-81830177D03*
%TO.N,/MCU/MISO*%
X51000000Y-81850000D03*
%TO.N,/MCU/MOSI*%
X54378015Y-84211888D03*
%TO.N,/MCU/TX*%
X51515137Y-84503018D03*
%TO.N,/MCU/RX*%
X55500000Y-85000000D03*
%TD*%
D20*
%TO.N,GND*%
X55550000Y-79650000D02*
X55250001Y-79350001D01*
X55250001Y-79350001D02*
X53311865Y-79350001D01*
X53311865Y-79350001D02*
X53043249Y-79618617D01*
X60106996Y-93359981D02*
X60106996Y-93784245D01*
X60106996Y-92356996D02*
X60106996Y-93359981D01*
X60050000Y-92300000D02*
X60106996Y-92356996D01*
X56208267Y-93177524D02*
X55784003Y-93177524D01*
X56672476Y-93177524D02*
X56208267Y-93177524D01*
X58800000Y-91050000D02*
X56672476Y-93177524D01*
X56468803Y-87140391D02*
X56168804Y-87440390D01*
X59159194Y-84450000D02*
X56468803Y-87140391D01*
X60350000Y-84450000D02*
X59159194Y-84450000D01*
X55868805Y-87740389D02*
X56168804Y-87440390D01*
X54983266Y-88625928D02*
X55868805Y-87740389D01*
X50274072Y-88625928D02*
X54983266Y-88625928D01*
X49800000Y-89100000D02*
X50274072Y-88625928D01*
X60350000Y-84450000D02*
X62250110Y-84450000D01*
X62250110Y-84450000D02*
X65150110Y-81550000D01*
X72799594Y-82597865D02*
X72799594Y-83022129D01*
X72799594Y-82572033D02*
X72799594Y-82597865D01*
X70350000Y-80122439D02*
X72799594Y-82572033D01*
X70350000Y-79400000D02*
X70350000Y-80122439D01*
X65150110Y-81550000D02*
X65150110Y-80800110D01*
X65150110Y-80800110D02*
X64850000Y-80500000D01*
X65950000Y-80500000D02*
X67000000Y-80500000D01*
X65950000Y-80500000D02*
X64850000Y-80500000D01*
X65150110Y-81550000D02*
X66498356Y-82898246D01*
X63550000Y-91150000D02*
X66896117Y-91150000D01*
X66795088Y-87851598D02*
X66495089Y-87551599D01*
X67275001Y-88331511D02*
X66795088Y-87851598D01*
X66501375Y-87545313D02*
X66495089Y-87551599D01*
X66896117Y-91150000D02*
X67275001Y-90771116D01*
X67275001Y-90771116D02*
X67275001Y-88331511D01*
X66501375Y-85999137D02*
X66501375Y-87545313D01*
X66499068Y-85996830D02*
X66501375Y-85999137D01*
X66499068Y-84447739D02*
X66499068Y-85996830D01*
X66498356Y-82898246D02*
X66498356Y-84447027D01*
X66498356Y-84447027D02*
X66499068Y-84447739D01*
X73000000Y-91000000D02*
X70995146Y-93004854D01*
X70995146Y-93004854D02*
X65404854Y-93004854D01*
X65404854Y-93004854D02*
X63849999Y-91449999D01*
X63849999Y-91449999D02*
X63550000Y-91150000D01*
X63550000Y-91150000D02*
X63125736Y-91150000D01*
X63125736Y-91150000D02*
X61975736Y-92300000D01*
X61975736Y-92300000D02*
X60050000Y-92300000D01*
X58800000Y-91050000D02*
X60050000Y-92300000D01*
X47100000Y-90050000D02*
X47900000Y-89250000D01*
X47900000Y-89250000D02*
X47900000Y-87400000D01*
X45200000Y-90050000D02*
X47100000Y-90050000D01*
X47900000Y-87400000D02*
X47424999Y-86924999D01*
X47424999Y-86924999D02*
X47424999Y-80402001D01*
X47424999Y-80402001D02*
X46772998Y-79750000D01*
X46772998Y-79750000D02*
X45974264Y-79750000D01*
X45974264Y-79750000D02*
X45550000Y-79750000D01*
X44300000Y-78500000D02*
X45550000Y-79750000D01*
X53043249Y-79618617D02*
X52324632Y-78900000D01*
X52324632Y-78900000D02*
X51050000Y-78900000D01*
%TO.N,+3V3*%
X50000000Y-92200000D02*
X51514644Y-93714644D01*
X51514644Y-93714644D02*
X51514644Y-94064644D01*
X54500000Y-88025010D02*
X54500000Y-87500000D01*
X54500000Y-87500000D02*
X55500000Y-86500000D01*
D21*
%TO.N,+5V*%
X48300000Y-82500000D02*
X48300000Y-78650000D01*
D20*
X48300000Y-78650000D02*
X48150000Y-78500000D01*
X70450000Y-88447119D02*
X66767265Y-92129854D01*
X66767265Y-92129854D02*
X66467266Y-92429853D01*
X70450000Y-81050000D02*
X70450000Y-88447119D01*
X48000000Y-78650000D02*
X48150000Y-78500000D01*
D21*
X67500000Y-78100000D02*
X70450000Y-81050000D01*
X49000000Y-78100000D02*
X67500000Y-78100000D01*
X48150000Y-78500000D02*
X48600000Y-78500000D01*
X48600000Y-78500000D02*
X49000000Y-78100000D01*
D20*
%TO.N,/CAN/CAN_H*%
X71959906Y-85729746D02*
X71659907Y-85429747D01*
X72627160Y-86397000D02*
X71959906Y-85729746D01*
X76333000Y-86397000D02*
X72627160Y-86397000D01*
%TO.N,/Connectors/NRST*%
X59000000Y-86750000D02*
X60250000Y-85500000D01*
X44400000Y-91500000D02*
X50463459Y-91500000D01*
X52462531Y-89500928D02*
X52762530Y-89200929D01*
X50463459Y-91500000D02*
X52462531Y-89500928D01*
%TO.N,/MCU/CAN_RX*%
X60307507Y-90482905D02*
X62029564Y-90482905D01*
X58461607Y-88212741D02*
X58461607Y-88637005D01*
X62029564Y-90482905D02*
X62453828Y-90482905D01*
X58461607Y-88637005D02*
X60307507Y-90482905D01*
%TO.N,/MCU/CAN_TX*%
X59238503Y-88212519D02*
X60092314Y-88212519D01*
X61395032Y-89515237D02*
X61695031Y-89815236D01*
X60092314Y-88212519D02*
X61395032Y-89515237D01*
%TO.N,/MCU/SCL*%
X52500000Y-92000000D02*
X52500000Y-92250000D01*
X52500000Y-92250000D02*
X53450000Y-93200000D01*
%TO.N,/MCU/SDA*%
X54950000Y-93200000D02*
X54950000Y-92050000D01*
X54950000Y-92050000D02*
X55000000Y-92000000D01*
%TO.N,/MCU/CS*%
X54000000Y-80500000D02*
X55249523Y-81749523D01*
X55249523Y-81749523D02*
X55249523Y-83209793D01*
X55249523Y-83209793D02*
X55249523Y-83634057D01*
%TO.N,/MCU/SCK*%
X51500000Y-80500000D02*
X52249999Y-81249999D01*
X52249999Y-81249999D02*
X52249999Y-81781918D01*
X52249999Y-81781918D02*
X52201740Y-81830177D01*
%TO.N,/MCU/MISO*%
X51000000Y-81850000D02*
X51000000Y-82500000D01*
X51000000Y-82500000D02*
X51500000Y-83000000D01*
%TO.N,/MCU/MOSI*%
X54000000Y-83000000D02*
X54000000Y-84060660D01*
X54151228Y-84211888D02*
X54378015Y-84211888D01*
X54000000Y-84060660D02*
X54151228Y-84211888D01*
%TO.N,/MCU/TX*%
X51500000Y-86000000D02*
X51500000Y-84518155D01*
X51500000Y-84518155D02*
X51515137Y-84503018D01*
%TO.N,/MCU/RX*%
X55500000Y-85000000D02*
X54500000Y-86000000D01*
X54500000Y-86000000D02*
X54000000Y-86000000D01*
%TD*%
D22*
%TO.N,GND*%
X50911095Y-77573000D02*
X49727912Y-77573000D01*
X49569124Y-77335355D01*
X49314645Y-77080876D01*
X49015409Y-76880934D01*
X48682916Y-76743211D01*
X48329944Y-76673000D01*
X47970056Y-76673000D01*
X47617084Y-76743211D01*
X47284591Y-76880934D01*
X46985355Y-77080876D01*
X46730876Y-77335355D01*
X46530934Y-77634591D01*
X46393211Y-77967084D01*
X46385072Y-78008001D01*
X46265243Y-77639617D01*
X46107214Y-77343962D01*
X45791653Y-77187952D01*
X44479605Y-78500000D01*
X45791653Y-79812048D01*
X46107214Y-79656038D01*
X46298020Y-79281255D01*
X46382764Y-78980397D01*
X46393211Y-79032916D01*
X46530934Y-79365409D01*
X46730876Y-79664645D01*
X46985355Y-79919124D01*
X47284591Y-80119066D01*
X47617084Y-80256789D01*
X47773001Y-80287803D01*
X47773000Y-82160141D01*
X47744360Y-82203004D01*
X47697095Y-82317111D01*
X47673000Y-82438246D01*
X47673000Y-82561754D01*
X47697095Y-82682889D01*
X47744360Y-82796996D01*
X47812977Y-82899689D01*
X47900311Y-82987023D01*
X48003004Y-83055640D01*
X48117111Y-83102905D01*
X48238246Y-83127000D01*
X48361754Y-83127000D01*
X48482889Y-83102905D01*
X48596996Y-83055640D01*
X48699689Y-82987023D01*
X48787023Y-82899689D01*
X48855640Y-82796996D01*
X48902905Y-82682889D01*
X48927000Y-82561754D01*
X48927000Y-82438246D01*
X48902905Y-82317111D01*
X48855640Y-82203004D01*
X48827000Y-82160141D01*
X48827000Y-81788246D01*
X50373000Y-81788246D01*
X50373000Y-81911754D01*
X50397095Y-82032889D01*
X50444360Y-82146996D01*
X50512977Y-82249689D01*
X50548001Y-82284713D01*
X50548001Y-82477785D01*
X50547027Y-82487676D01*
X50545575Y-82489849D01*
X50464389Y-82685851D01*
X50423000Y-82893925D01*
X50423000Y-83106075D01*
X50464389Y-83314149D01*
X50545575Y-83510151D01*
X50663440Y-83686547D01*
X50813453Y-83836560D01*
X50989849Y-83954425D01*
X51124267Y-84010102D01*
X51115448Y-84015995D01*
X51028114Y-84103329D01*
X50959497Y-84206022D01*
X50912232Y-84320129D01*
X50888137Y-84441264D01*
X50888137Y-84564772D01*
X50912232Y-84685907D01*
X50959497Y-84800014D01*
X51028114Y-84902707D01*
X51048001Y-84922594D01*
X51048001Y-85021488D01*
X50989849Y-85045575D01*
X50813453Y-85163440D01*
X50663440Y-85313453D01*
X50545575Y-85489849D01*
X50464389Y-85685851D01*
X50423000Y-85893925D01*
X50423000Y-86106075D01*
X50464389Y-86314149D01*
X50545575Y-86510151D01*
X50663440Y-86686547D01*
X50813453Y-86836560D01*
X50989849Y-86954425D01*
X51185851Y-87035611D01*
X51393925Y-87077000D01*
X51606075Y-87077000D01*
X51814149Y-87035611D01*
X52010151Y-86954425D01*
X52186547Y-86836560D01*
X52336560Y-86686547D01*
X52454425Y-86510151D01*
X52535611Y-86314149D01*
X52577000Y-86106075D01*
X52577000Y-85893925D01*
X52923000Y-85893925D01*
X52923000Y-86106075D01*
X52964389Y-86314149D01*
X53045575Y-86510151D01*
X53163440Y-86686547D01*
X53313453Y-86836560D01*
X53489849Y-86954425D01*
X53685851Y-87035611D01*
X53893925Y-87077000D01*
X54106075Y-87077000D01*
X54314149Y-87035611D01*
X54332956Y-87027821D01*
X54196096Y-87164681D01*
X54178842Y-87178841D01*
X54131093Y-87237023D01*
X54122358Y-87247667D01*
X54080386Y-87326191D01*
X54054540Y-87411393D01*
X54045813Y-87500000D01*
X54048001Y-87522214D01*
X54048001Y-87590297D01*
X54012977Y-87625321D01*
X53944360Y-87728014D01*
X53897095Y-87842121D01*
X53873000Y-87963256D01*
X53873000Y-88086764D01*
X53897095Y-88207899D01*
X53944360Y-88322006D01*
X54012977Y-88424699D01*
X54100311Y-88512033D01*
X54203004Y-88580650D01*
X54317111Y-88627915D01*
X54438246Y-88652010D01*
X54561754Y-88652010D01*
X54682889Y-88627915D01*
X54796996Y-88580650D01*
X54899689Y-88512033D01*
X54987023Y-88424699D01*
X55055640Y-88322006D01*
X55102905Y-88207899D01*
X55114225Y-88150987D01*
X57834607Y-88150987D01*
X57834607Y-88274495D01*
X57858702Y-88395630D01*
X57905967Y-88509737D01*
X57974584Y-88612430D01*
X58008323Y-88646169D01*
X58016147Y-88725612D01*
X58041993Y-88810814D01*
X58064253Y-88852459D01*
X58083965Y-88889338D01*
X58140449Y-88958164D01*
X58157703Y-88972324D01*
X59972188Y-90786810D01*
X59986348Y-90804064D01*
X60055174Y-90860548D01*
X60096420Y-90882594D01*
X60133697Y-90902519D01*
X60218899Y-90928365D01*
X60307507Y-90937092D01*
X60329712Y-90934905D01*
X62019116Y-90934905D01*
X62054139Y-90969928D01*
X62156832Y-91038545D01*
X62270939Y-91085810D01*
X62392074Y-91109905D01*
X62515582Y-91109905D01*
X62636717Y-91085810D01*
X62750824Y-91038545D01*
X62853517Y-90969928D01*
X62940851Y-90882594D01*
X63009468Y-90779901D01*
X63056733Y-90665794D01*
X63080828Y-90544659D01*
X63080828Y-90421151D01*
X63056733Y-90300016D01*
X63009468Y-90185909D01*
X62940851Y-90083216D01*
X62853517Y-89995882D01*
X62750824Y-89927265D01*
X62636717Y-89880000D01*
X62515582Y-89855905D01*
X62392074Y-89855905D01*
X62322031Y-89869837D01*
X62322031Y-89753482D01*
X62297936Y-89632347D01*
X62250671Y-89518240D01*
X62182054Y-89415547D01*
X62094720Y-89328213D01*
X61992027Y-89259596D01*
X61877920Y-89212331D01*
X61756785Y-89188236D01*
X61707256Y-89188236D01*
X60427637Y-87908619D01*
X60413473Y-87891360D01*
X60344647Y-87834876D01*
X60266124Y-87792905D01*
X60180921Y-87767059D01*
X60114519Y-87760519D01*
X60092314Y-87758332D01*
X60070109Y-87760519D01*
X59673215Y-87760519D01*
X59638192Y-87725496D01*
X59535499Y-87656879D01*
X59421392Y-87609614D01*
X59300257Y-87585519D01*
X59176749Y-87585519D01*
X59055614Y-87609614D01*
X58941507Y-87656879D01*
X58849889Y-87718096D01*
X58758603Y-87657101D01*
X58644496Y-87609836D01*
X58523361Y-87585741D01*
X58399853Y-87585741D01*
X58278718Y-87609836D01*
X58164611Y-87657101D01*
X58061918Y-87725718D01*
X57974584Y-87813052D01*
X57905967Y-87915745D01*
X57858702Y-88029852D01*
X57834607Y-88150987D01*
X55114225Y-88150987D01*
X55127000Y-88086764D01*
X55127000Y-87963256D01*
X55102905Y-87842121D01*
X55055640Y-87728014D01*
X54997789Y-87641434D01*
X55512224Y-87127000D01*
X55561754Y-87127000D01*
X55682889Y-87102905D01*
X55796996Y-87055640D01*
X55899689Y-86987023D01*
X55987023Y-86899689D01*
X56055640Y-86796996D01*
X56100686Y-86688246D01*
X58373000Y-86688246D01*
X58373000Y-86811754D01*
X58397095Y-86932889D01*
X58444360Y-87046996D01*
X58512977Y-87149689D01*
X58600311Y-87237023D01*
X58703004Y-87305640D01*
X58817111Y-87352905D01*
X58938246Y-87377000D01*
X59061754Y-87377000D01*
X59182889Y-87352905D01*
X59296996Y-87305640D01*
X59399689Y-87237023D01*
X59487023Y-87149689D01*
X59555640Y-87046996D01*
X59602905Y-86932889D01*
X59627000Y-86811754D01*
X59627000Y-86762223D01*
X60262224Y-86127000D01*
X60311754Y-86127000D01*
X60432889Y-86102905D01*
X60546996Y-86055640D01*
X60649689Y-85987023D01*
X60737023Y-85899689D01*
X60805640Y-85796996D01*
X60852905Y-85682889D01*
X60877000Y-85561754D01*
X60877000Y-85438246D01*
X60852905Y-85317111D01*
X60805640Y-85203004D01*
X60737023Y-85100311D01*
X60649689Y-85012977D01*
X60546996Y-84944360D01*
X60432889Y-84897095D01*
X60311754Y-84873000D01*
X60188246Y-84873000D01*
X60067111Y-84897095D01*
X59953004Y-84944360D01*
X59850311Y-85012977D01*
X59762977Y-85100311D01*
X59694360Y-85203004D01*
X59647095Y-85317111D01*
X59623000Y-85438246D01*
X59623000Y-85487776D01*
X58987777Y-86123000D01*
X58938246Y-86123000D01*
X58817111Y-86147095D01*
X58703004Y-86194360D01*
X58600311Y-86262977D01*
X58512977Y-86350311D01*
X58444360Y-86453004D01*
X58397095Y-86567111D01*
X58373000Y-86688246D01*
X56100686Y-86688246D01*
X56102905Y-86682889D01*
X56127000Y-86561754D01*
X56127000Y-86438246D01*
X56102905Y-86317111D01*
X56055640Y-86203004D01*
X55987023Y-86100311D01*
X55899689Y-86012977D01*
X55796996Y-85944360D01*
X55682889Y-85897095D01*
X55561754Y-85873000D01*
X55438246Y-85873000D01*
X55317111Y-85897095D01*
X55203004Y-85944360D01*
X55178471Y-85960752D01*
X55512224Y-85627000D01*
X55561754Y-85627000D01*
X55682889Y-85602905D01*
X55796996Y-85555640D01*
X55899689Y-85487023D01*
X55987023Y-85399689D01*
X56055640Y-85296996D01*
X56102905Y-85182889D01*
X56127000Y-85061754D01*
X56127000Y-84938246D01*
X56102905Y-84817111D01*
X56055640Y-84703004D01*
X55987023Y-84600311D01*
X55899689Y-84512977D01*
X55796996Y-84444360D01*
X55682889Y-84397095D01*
X55561754Y-84373000D01*
X55438246Y-84373000D01*
X55317111Y-84397095D01*
X55203004Y-84444360D01*
X55100311Y-84512977D01*
X55012977Y-84600311D01*
X54944360Y-84703004D01*
X54897095Y-84817111D01*
X54873000Y-84938246D01*
X54873000Y-84987776D01*
X54691942Y-85168835D01*
X54686547Y-85163440D01*
X54510151Y-85045575D01*
X54314149Y-84964389D01*
X54106075Y-84923000D01*
X53893925Y-84923000D01*
X53685851Y-84964389D01*
X53489849Y-85045575D01*
X53313453Y-85163440D01*
X53163440Y-85313453D01*
X53045575Y-85489849D01*
X52964389Y-85685851D01*
X52923000Y-85893925D01*
X52577000Y-85893925D01*
X52535611Y-85685851D01*
X52454425Y-85489849D01*
X52336560Y-85313453D01*
X52186547Y-85163440D01*
X52010151Y-85045575D01*
X51952000Y-85021488D01*
X51952000Y-84952867D01*
X52002160Y-84902707D01*
X52070777Y-84800014D01*
X52118042Y-84685907D01*
X52142137Y-84564772D01*
X52142137Y-84441264D01*
X52118042Y-84320129D01*
X52070777Y-84206022D01*
X52002160Y-84103329D01*
X51914826Y-84015995D01*
X51894422Y-84002361D01*
X52010151Y-83954425D01*
X52186547Y-83836560D01*
X52336560Y-83686547D01*
X52454425Y-83510151D01*
X52535611Y-83314149D01*
X52577000Y-83106075D01*
X52577000Y-82893925D01*
X52535611Y-82685851D01*
X52454425Y-82489849D01*
X52409587Y-82422744D01*
X52498736Y-82385817D01*
X52601429Y-82317200D01*
X52688763Y-82229866D01*
X52757380Y-82127173D01*
X52804645Y-82013066D01*
X52828740Y-81891931D01*
X52828740Y-81768423D01*
X52804645Y-81647288D01*
X52757380Y-81533181D01*
X52701999Y-81450297D01*
X52701999Y-81272204D01*
X52704186Y-81249999D01*
X52695459Y-81161391D01*
X52669613Y-81076189D01*
X52651065Y-81041488D01*
X52627642Y-80997666D01*
X52571158Y-80928840D01*
X52553905Y-80914681D01*
X52511524Y-80872300D01*
X52535611Y-80814149D01*
X52577000Y-80606075D01*
X52577000Y-80393925D01*
X52923000Y-80393925D01*
X52923000Y-80606075D01*
X52964389Y-80814149D01*
X53045575Y-81010151D01*
X53163440Y-81186547D01*
X53313453Y-81336560D01*
X53489849Y-81454425D01*
X53685851Y-81535611D01*
X53893925Y-81577000D01*
X54106075Y-81577000D01*
X54314149Y-81535611D01*
X54372300Y-81511524D01*
X54797523Y-81936748D01*
X54797523Y-82274416D01*
X54686547Y-82163440D01*
X54510151Y-82045575D01*
X54314149Y-81964389D01*
X54106075Y-81923000D01*
X53893925Y-81923000D01*
X53685851Y-81964389D01*
X53489849Y-82045575D01*
X53313453Y-82163440D01*
X53163440Y-82313453D01*
X53045575Y-82489849D01*
X52964389Y-82685851D01*
X52923000Y-82893925D01*
X52923000Y-83106075D01*
X52964389Y-83314149D01*
X53045575Y-83510151D01*
X53163440Y-83686547D01*
X53313453Y-83836560D01*
X53489849Y-83954425D01*
X53548001Y-83978512D01*
X53548001Y-84038445D01*
X53545813Y-84060660D01*
X53554540Y-84149267D01*
X53580386Y-84234469D01*
X53615678Y-84300495D01*
X53622358Y-84312993D01*
X53678842Y-84381819D01*
X53696096Y-84395979D01*
X53815905Y-84515788D01*
X53830069Y-84533047D01*
X53848781Y-84548404D01*
X53890992Y-84611577D01*
X53978326Y-84698911D01*
X54081019Y-84767528D01*
X54195126Y-84814793D01*
X54316261Y-84838888D01*
X54439769Y-84838888D01*
X54560904Y-84814793D01*
X54675011Y-84767528D01*
X54777704Y-84698911D01*
X54865038Y-84611577D01*
X54933655Y-84508884D01*
X54980920Y-84394777D01*
X55005015Y-84273642D01*
X55005015Y-84211438D01*
X55066634Y-84236962D01*
X55187769Y-84261057D01*
X55311277Y-84261057D01*
X55432412Y-84236962D01*
X55546519Y-84189697D01*
X55649212Y-84121080D01*
X55736546Y-84033746D01*
X55805163Y-83931053D01*
X55852428Y-83816946D01*
X55876523Y-83695811D01*
X55876523Y-83572303D01*
X55852428Y-83451168D01*
X55805163Y-83337061D01*
X55736546Y-83234368D01*
X55701523Y-83199345D01*
X55701523Y-81771727D01*
X55703710Y-81749522D01*
X55694983Y-81660915D01*
X55686740Y-81633744D01*
X55669137Y-81575713D01*
X55627166Y-81497190D01*
X55570682Y-81428364D01*
X55553435Y-81414210D01*
X55011524Y-80872300D01*
X55035611Y-80814149D01*
X55077000Y-80606075D01*
X55077000Y-80393925D01*
X55035611Y-80185851D01*
X54954425Y-79989849D01*
X54836560Y-79813453D01*
X54686547Y-79663440D01*
X54510151Y-79545575D01*
X54314149Y-79464389D01*
X54106075Y-79423000D01*
X53893925Y-79423000D01*
X53685851Y-79464389D01*
X53489849Y-79545575D01*
X53313453Y-79663440D01*
X53163440Y-79813453D01*
X53045575Y-79989849D01*
X52964389Y-80185851D01*
X52923000Y-80393925D01*
X52577000Y-80393925D01*
X52535611Y-80185851D01*
X52454425Y-79989849D01*
X52336560Y-79813453D01*
X52186547Y-79663440D01*
X52010151Y-79545575D01*
X51814149Y-79464389D01*
X51606075Y-79423000D01*
X51393925Y-79423000D01*
X51185851Y-79464389D01*
X50989849Y-79545575D01*
X50813453Y-79663440D01*
X50663440Y-79813453D01*
X50545575Y-79989849D01*
X50464389Y-80185851D01*
X50423000Y-80393925D01*
X50423000Y-80606075D01*
X50464389Y-80814149D01*
X50545575Y-81010151D01*
X50663440Y-81186547D01*
X50751263Y-81274370D01*
X50703004Y-81294360D01*
X50600311Y-81362977D01*
X50512977Y-81450311D01*
X50444360Y-81553004D01*
X50397095Y-81667111D01*
X50373000Y-81788246D01*
X48827000Y-81788246D01*
X48827000Y-80197108D01*
X49015409Y-80119066D01*
X49314645Y-79919124D01*
X49569124Y-79664645D01*
X49769066Y-79365409D01*
X49906789Y-79032916D01*
X49977000Y-78679944D01*
X49977000Y-78627000D01*
X67281711Y-78627000D01*
X69837038Y-81182328D01*
X69847095Y-81232889D01*
X69894360Y-81346996D01*
X69962977Y-81449689D01*
X69998000Y-81484712D01*
X69998001Y-88259894D01*
X66463355Y-91794541D01*
X66455043Y-91802853D01*
X66405512Y-91802853D01*
X66284377Y-91826948D01*
X66170270Y-91874213D01*
X66067577Y-91942830D01*
X65980243Y-92030164D01*
X65911626Y-92132857D01*
X65864361Y-92246964D01*
X65840266Y-92368099D01*
X65840266Y-92491607D01*
X65864361Y-92612742D01*
X65911626Y-92726849D01*
X65980243Y-92829542D01*
X66067577Y-92916876D01*
X66170270Y-92985493D01*
X66284377Y-93032758D01*
X66405512Y-93056853D01*
X66529020Y-93056853D01*
X66650155Y-93032758D01*
X66764262Y-92985493D01*
X66866955Y-92916876D01*
X66954289Y-92829542D01*
X67022906Y-92726849D01*
X67070171Y-92612742D01*
X67094266Y-92491607D01*
X67094266Y-92442076D01*
X67102578Y-92433764D01*
X70753905Y-88782438D01*
X70771159Y-88768278D01*
X70827643Y-88699452D01*
X70869614Y-88620929D01*
X70872192Y-88612430D01*
X70895460Y-88535727D01*
X70904187Y-88447119D01*
X70902000Y-88424914D01*
X70902000Y-81484712D01*
X70937023Y-81449689D01*
X71005640Y-81346996D01*
X71052905Y-81232889D01*
X71077000Y-81111754D01*
X71077000Y-80988246D01*
X71052905Y-80867111D01*
X71005640Y-80753004D01*
X70937023Y-80650311D01*
X70849689Y-80562977D01*
X70746996Y-80494360D01*
X70632889Y-80447095D01*
X70582328Y-80437038D01*
X68273789Y-78128500D01*
X78698000Y-78128500D01*
X78698000Y-79591418D01*
X73793000Y-79591418D01*
X73728897Y-79597732D01*
X73667257Y-79616430D01*
X73610450Y-79646794D01*
X73560657Y-79687657D01*
X73519794Y-79737450D01*
X73489430Y-79794257D01*
X73470732Y-79855897D01*
X73464418Y-79920000D01*
X73464418Y-81698000D01*
X73470732Y-81762103D01*
X73489430Y-81823743D01*
X73519794Y-81880550D01*
X73560657Y-81930343D01*
X73610450Y-81971206D01*
X73667257Y-82001570D01*
X73728897Y-82020268D01*
X73793000Y-82026582D01*
X78698000Y-82026582D01*
X78698000Y-82385418D01*
X73793000Y-82385418D01*
X73728897Y-82391732D01*
X73667257Y-82410430D01*
X73610450Y-82440794D01*
X73560657Y-82481657D01*
X73519794Y-82531450D01*
X73489430Y-82588257D01*
X73470732Y-82649897D01*
X73464418Y-82714000D01*
X73464418Y-84492000D01*
X73470732Y-84556103D01*
X73489430Y-84617743D01*
X73519794Y-84674550D01*
X73560657Y-84724343D01*
X73610450Y-84765206D01*
X73667257Y-84795570D01*
X73728897Y-84814268D01*
X73793000Y-84820582D01*
X78698000Y-84820582D01*
X78698001Y-85179418D01*
X73793000Y-85179418D01*
X73728897Y-85185732D01*
X73667257Y-85204430D01*
X73610450Y-85234794D01*
X73560657Y-85275657D01*
X73519794Y-85325450D01*
X73489430Y-85382257D01*
X73470732Y-85443897D01*
X73464418Y-85508000D01*
X73464418Y-85945000D01*
X72814384Y-85945000D01*
X72286907Y-85417524D01*
X72286907Y-85367993D01*
X72262812Y-85246858D01*
X72215547Y-85132751D01*
X72146930Y-85030058D01*
X72059596Y-84942724D01*
X71956903Y-84874107D01*
X71842796Y-84826842D01*
X71721661Y-84802747D01*
X71598153Y-84802747D01*
X71477018Y-84826842D01*
X71362911Y-84874107D01*
X71260218Y-84942724D01*
X71172884Y-85030058D01*
X71104267Y-85132751D01*
X71057002Y-85246858D01*
X71032907Y-85367993D01*
X71032907Y-85491501D01*
X71057002Y-85612636D01*
X71104267Y-85726743D01*
X71172884Y-85829436D01*
X71260218Y-85916770D01*
X71362911Y-85985387D01*
X71477018Y-86032652D01*
X71598153Y-86056747D01*
X71647684Y-86056747D01*
X72291841Y-86700905D01*
X72306001Y-86718159D01*
X72374827Y-86774643D01*
X72453350Y-86816614D01*
X72538552Y-86842460D01*
X72627160Y-86851187D01*
X72649365Y-86849000D01*
X73464418Y-86849000D01*
X73464418Y-87286000D01*
X73470732Y-87350103D01*
X73489430Y-87411743D01*
X73519794Y-87468550D01*
X73560657Y-87518343D01*
X73610450Y-87559206D01*
X73667257Y-87589570D01*
X73728897Y-87608268D01*
X73793000Y-87614582D01*
X78698001Y-87614582D01*
X78698001Y-87973418D01*
X73793000Y-87973418D01*
X73728897Y-87979732D01*
X73667257Y-87998430D01*
X73610450Y-88028794D01*
X73560657Y-88069657D01*
X73519794Y-88119450D01*
X73489430Y-88176257D01*
X73470732Y-88237897D01*
X73464418Y-88302000D01*
X73464418Y-90080000D01*
X73470732Y-90144103D01*
X73489430Y-90205743D01*
X73519794Y-90262550D01*
X73560657Y-90312343D01*
X73610450Y-90353206D01*
X73667257Y-90383570D01*
X73728897Y-90402268D01*
X73793000Y-90408582D01*
X78698001Y-90408582D01*
X78698001Y-94598000D01*
X51844990Y-94598000D01*
X51914333Y-94551667D01*
X52001667Y-94464333D01*
X52070284Y-94361640D01*
X52117549Y-94247533D01*
X52141644Y-94126398D01*
X52141644Y-94002890D01*
X52117549Y-93881755D01*
X52070284Y-93767648D01*
X52001667Y-93664955D01*
X51958953Y-93622241D01*
X51934258Y-93540834D01*
X51931307Y-93535313D01*
X51892287Y-93462311D01*
X51835803Y-93393485D01*
X51818556Y-93379331D01*
X50627000Y-92187777D01*
X50627000Y-92138246D01*
X50602905Y-92017111D01*
X50570864Y-91939758D01*
X50637269Y-91919614D01*
X50685330Y-91893925D01*
X51423000Y-91893925D01*
X51423000Y-92106075D01*
X51464389Y-92314149D01*
X51545575Y-92510151D01*
X51663440Y-92686547D01*
X51813453Y-92836560D01*
X51989849Y-92954425D01*
X52185851Y-93035611D01*
X52393925Y-93077000D01*
X52606075Y-93077000D01*
X52674221Y-93063445D01*
X52823000Y-93212224D01*
X52823000Y-93261754D01*
X52847095Y-93382889D01*
X52894360Y-93496996D01*
X52962977Y-93599689D01*
X53050311Y-93687023D01*
X53153004Y-93755640D01*
X53267111Y-93802905D01*
X53388246Y-93827000D01*
X53511754Y-93827000D01*
X53632889Y-93802905D01*
X53746996Y-93755640D01*
X53849689Y-93687023D01*
X53937023Y-93599689D01*
X54005640Y-93496996D01*
X54052905Y-93382889D01*
X54077000Y-93261754D01*
X54077000Y-93138246D01*
X54052905Y-93017111D01*
X54005640Y-92903004D01*
X53937023Y-92800311D01*
X53849689Y-92712977D01*
X53746996Y-92644360D01*
X53632889Y-92597095D01*
X53511754Y-92573000D01*
X53462224Y-92573000D01*
X53432375Y-92543151D01*
X53454425Y-92510151D01*
X53535611Y-92314149D01*
X53577000Y-92106075D01*
X53577000Y-91893925D01*
X53923000Y-91893925D01*
X53923000Y-92106075D01*
X53964389Y-92314149D01*
X54045575Y-92510151D01*
X54163440Y-92686547D01*
X54313453Y-92836560D01*
X54400080Y-92894443D01*
X54394360Y-92903004D01*
X54347095Y-93017111D01*
X54323000Y-93138246D01*
X54323000Y-93261754D01*
X54347095Y-93382889D01*
X54394360Y-93496996D01*
X54462977Y-93599689D01*
X54550311Y-93687023D01*
X54653004Y-93755640D01*
X54767111Y-93802905D01*
X54888246Y-93827000D01*
X55011754Y-93827000D01*
X55132889Y-93802905D01*
X55246996Y-93755640D01*
X55349689Y-93687023D01*
X55437023Y-93599689D01*
X55505640Y-93496996D01*
X55552905Y-93382889D01*
X55577000Y-93261754D01*
X55577000Y-93138246D01*
X55552905Y-93017111D01*
X55523300Y-92945639D01*
X55686547Y-92836560D01*
X55836560Y-92686547D01*
X55954425Y-92510151D01*
X56035611Y-92314149D01*
X56077000Y-92106075D01*
X56077000Y-91893925D01*
X56035611Y-91685851D01*
X55954425Y-91489849D01*
X55836560Y-91313453D01*
X55686547Y-91163440D01*
X55510151Y-91045575D01*
X55314149Y-90964389D01*
X55106075Y-90923000D01*
X54893925Y-90923000D01*
X54685851Y-90964389D01*
X54489849Y-91045575D01*
X54313453Y-91163440D01*
X54163440Y-91313453D01*
X54045575Y-91489849D01*
X53964389Y-91685851D01*
X53923000Y-91893925D01*
X53577000Y-91893925D01*
X53535611Y-91685851D01*
X53454425Y-91489849D01*
X53336560Y-91313453D01*
X53186547Y-91163440D01*
X53010151Y-91045575D01*
X52814149Y-90964389D01*
X52606075Y-90923000D01*
X52393925Y-90923000D01*
X52185851Y-90964389D01*
X51989849Y-91045575D01*
X51813453Y-91163440D01*
X51663440Y-91313453D01*
X51545575Y-91489849D01*
X51464389Y-91685851D01*
X51423000Y-91893925D01*
X50685330Y-91893925D01*
X50715792Y-91877643D01*
X50784618Y-91821159D01*
X50798782Y-91803900D01*
X52774754Y-89827929D01*
X52824284Y-89827929D01*
X52945419Y-89803834D01*
X53059526Y-89756569D01*
X53162219Y-89687952D01*
X53249553Y-89600618D01*
X53318170Y-89497925D01*
X53365435Y-89383818D01*
X53389530Y-89262683D01*
X53389530Y-89139175D01*
X53365435Y-89018040D01*
X53318170Y-88903933D01*
X53249553Y-88801240D01*
X53162219Y-88713906D01*
X53059526Y-88645289D01*
X52945419Y-88598024D01*
X52824284Y-88573929D01*
X52700776Y-88573929D01*
X52579641Y-88598024D01*
X52465534Y-88645289D01*
X52362841Y-88713906D01*
X52275507Y-88801240D01*
X52206890Y-88903933D01*
X52159625Y-89018040D01*
X52135530Y-89139175D01*
X52135530Y-89188705D01*
X50276236Y-91048000D01*
X44834712Y-91048000D01*
X44799689Y-91012977D01*
X44696996Y-90944360D01*
X44582889Y-90897095D01*
X44461754Y-90873000D01*
X44338246Y-90873000D01*
X44217111Y-90897095D01*
X44103004Y-90944360D01*
X44000311Y-91012977D01*
X43912977Y-91100311D01*
X43844360Y-91203004D01*
X43797095Y-91317111D01*
X43773000Y-91438246D01*
X43773000Y-91561754D01*
X43797095Y-91682889D01*
X43844360Y-91796996D01*
X43912977Y-91899689D01*
X44000311Y-91987023D01*
X44103004Y-92055640D01*
X44217111Y-92102905D01*
X44338246Y-92127000D01*
X44461754Y-92127000D01*
X44582889Y-92102905D01*
X44696996Y-92055640D01*
X44799689Y-91987023D01*
X44834712Y-91952000D01*
X49424065Y-91952000D01*
X49397095Y-92017111D01*
X49373000Y-92138246D01*
X49373000Y-92261754D01*
X49397095Y-92382889D01*
X49444360Y-92496996D01*
X49512977Y-92599689D01*
X49600311Y-92687023D01*
X49703004Y-92755640D01*
X49817111Y-92802905D01*
X49938246Y-92827000D01*
X49987777Y-92827000D01*
X50950047Y-93789272D01*
X50911739Y-93881755D01*
X50887644Y-94002890D01*
X50887644Y-94126398D01*
X50911739Y-94247533D01*
X50959004Y-94361640D01*
X51027621Y-94464333D01*
X51114955Y-94551667D01*
X51184298Y-94598000D01*
X43240908Y-94598000D01*
X43298722Y-94540186D01*
X43388713Y-94405505D01*
X43450700Y-94255856D01*
X43482300Y-94096990D01*
X43482300Y-93935010D01*
X43450700Y-93776144D01*
X43388713Y-93626495D01*
X43298722Y-93491814D01*
X43184186Y-93377278D01*
X43049505Y-93287287D01*
X42899856Y-93225300D01*
X42740990Y-93193700D01*
X42579010Y-93193700D01*
X42420144Y-93225300D01*
X42270495Y-93287287D01*
X42135814Y-93377278D01*
X42021278Y-93491814D01*
X41931287Y-93626495D01*
X41869300Y-93776144D01*
X41837700Y-93935010D01*
X41837700Y-94096990D01*
X41869300Y-94255856D01*
X41931287Y-94405505D01*
X42021278Y-94540186D01*
X42079092Y-94598000D01*
X41802000Y-94598000D01*
X41802000Y-92919010D01*
X46917700Y-92919010D01*
X46917700Y-93080990D01*
X46949300Y-93239856D01*
X47011287Y-93389505D01*
X47101278Y-93524186D01*
X47215814Y-93638722D01*
X47350495Y-93728713D01*
X47500144Y-93790700D01*
X47659010Y-93822300D01*
X47820990Y-93822300D01*
X47979856Y-93790700D01*
X48129505Y-93728713D01*
X48264186Y-93638722D01*
X48378722Y-93524186D01*
X48468713Y-93389505D01*
X48530700Y-93239856D01*
X48562300Y-93080990D01*
X48562300Y-92919010D01*
X48530700Y-92760144D01*
X48468713Y-92610495D01*
X48378722Y-92475814D01*
X48264186Y-92361278D01*
X48129505Y-92271287D01*
X47979856Y-92209300D01*
X47820990Y-92177700D01*
X47659010Y-92177700D01*
X47500144Y-92209300D01*
X47350495Y-92271287D01*
X47215814Y-92361278D01*
X47101278Y-92475814D01*
X47011287Y-92610495D01*
X46949300Y-92760144D01*
X46917700Y-92919010D01*
X41802000Y-92919010D01*
X41802000Y-91903010D01*
X41837700Y-91903010D01*
X41837700Y-92064990D01*
X41869300Y-92223856D01*
X41931287Y-92373505D01*
X42021278Y-92508186D01*
X42135814Y-92622722D01*
X42270495Y-92712713D01*
X42420144Y-92774700D01*
X42579010Y-92806300D01*
X42740990Y-92806300D01*
X42899856Y-92774700D01*
X43049505Y-92712713D01*
X43184186Y-92622722D01*
X43298722Y-92508186D01*
X43388713Y-92373505D01*
X43450700Y-92223856D01*
X43482300Y-92064990D01*
X43482300Y-91903010D01*
X43450700Y-91744144D01*
X43388713Y-91594495D01*
X43298722Y-91459814D01*
X43184186Y-91345278D01*
X43049505Y-91255287D01*
X42899856Y-91193300D01*
X42740990Y-91161700D01*
X42579010Y-91161700D01*
X42420144Y-91193300D01*
X42270495Y-91255287D01*
X42135814Y-91345278D01*
X42021278Y-91459814D01*
X41931287Y-91594495D01*
X41869300Y-91744144D01*
X41837700Y-91903010D01*
X41802000Y-91903010D01*
X41802000Y-89302000D01*
X46219747Y-89302000D01*
X46237083Y-89300293D01*
X46242021Y-89300327D01*
X46247607Y-89299779D01*
X46402884Y-89283458D01*
X46438578Y-89276131D01*
X46474362Y-89269305D01*
X46479735Y-89267682D01*
X46628885Y-89221513D01*
X46662465Y-89207398D01*
X46696258Y-89193745D01*
X46701207Y-89191113D01*
X46701211Y-89191111D01*
X46701214Y-89191109D01*
X46838556Y-89116848D01*
X46868741Y-89096488D01*
X46899248Y-89076525D01*
X46903598Y-89072977D01*
X47023901Y-88973454D01*
X47049608Y-88947567D01*
X47075607Y-88922107D01*
X47079180Y-88917788D01*
X47079184Y-88917784D01*
X47079187Y-88917780D01*
X47177865Y-88796789D01*
X47198028Y-88766440D01*
X47218612Y-88736379D01*
X47221282Y-88731441D01*
X47294582Y-88593584D01*
X47308461Y-88559909D01*
X47322820Y-88526408D01*
X47324480Y-88521046D01*
X47369607Y-88371577D01*
X47376690Y-88335807D01*
X47384259Y-88300198D01*
X47384844Y-88294622D01*
X47384846Y-88294614D01*
X47384846Y-88294606D01*
X47400081Y-88139229D01*
X47402000Y-88119747D01*
X47402000Y-81880253D01*
X47400293Y-81862917D01*
X47400327Y-81857979D01*
X47399779Y-81852392D01*
X47383458Y-81697116D01*
X47376131Y-81661422D01*
X47369305Y-81625638D01*
X47367682Y-81620265D01*
X47321513Y-81471115D01*
X47307398Y-81437535D01*
X47293745Y-81403742D01*
X47291109Y-81398786D01*
X47216848Y-81261444D01*
X47196466Y-81231227D01*
X47176524Y-81200751D01*
X47172980Y-81196407D01*
X47172976Y-81196401D01*
X47172971Y-81196396D01*
X47073454Y-81076099D01*
X47047584Y-81050409D01*
X47022107Y-81024393D01*
X47017782Y-81020815D01*
X46896788Y-80922135D01*
X46866458Y-80901984D01*
X46836379Y-80881388D01*
X46831441Y-80878718D01*
X46693584Y-80805418D01*
X46659881Y-80791527D01*
X46626408Y-80777180D01*
X46621046Y-80775520D01*
X46471577Y-80730393D01*
X46435826Y-80723315D01*
X46400198Y-80715741D01*
X46394616Y-80715155D01*
X46239513Y-80699947D01*
X46219747Y-80698000D01*
X41802000Y-80698000D01*
X41802000Y-79991653D01*
X42987952Y-79991653D01*
X43143962Y-80307214D01*
X43518745Y-80498020D01*
X43923551Y-80612044D01*
X44342824Y-80644902D01*
X44760451Y-80595334D01*
X45160383Y-80465243D01*
X45456038Y-80307214D01*
X45612048Y-79991653D01*
X44300000Y-78679605D01*
X42987952Y-79991653D01*
X41802000Y-79991653D01*
X41802000Y-78542824D01*
X42155098Y-78542824D01*
X42204666Y-78960451D01*
X42334757Y-79360383D01*
X42492786Y-79656038D01*
X42808347Y-79812048D01*
X44120395Y-78500000D01*
X42808347Y-77187952D01*
X42492786Y-77343962D01*
X42301980Y-77718745D01*
X42187956Y-78123551D01*
X42155098Y-78542824D01*
X41802000Y-78542824D01*
X41802000Y-77008347D01*
X42987952Y-77008347D01*
X44300000Y-78320395D01*
X45612048Y-77008347D01*
X45456038Y-76692786D01*
X45081255Y-76501980D01*
X44676449Y-76387956D01*
X44257176Y-76355098D01*
X43839549Y-76404666D01*
X43439617Y-76534757D01*
X43143962Y-76692786D01*
X42987952Y-77008347D01*
X41802000Y-77008347D01*
X41802000Y-75402000D01*
X50911095Y-75402000D01*
X50911095Y-77573000D01*
%TA.AperFunction,Conductor*%
D23*
G36*
X50911095Y-77573000D02*
G01*
X49727912Y-77573000D01*
X49569124Y-77335355D01*
X49314645Y-77080876D01*
X49015409Y-76880934D01*
X48682916Y-76743211D01*
X48329944Y-76673000D01*
X47970056Y-76673000D01*
X47617084Y-76743211D01*
X47284591Y-76880934D01*
X46985355Y-77080876D01*
X46730876Y-77335355D01*
X46530934Y-77634591D01*
X46393211Y-77967084D01*
X46385072Y-78008001D01*
X46265243Y-77639617D01*
X46107214Y-77343962D01*
X45791653Y-77187952D01*
X44479605Y-78500000D01*
X45791653Y-79812048D01*
X46107214Y-79656038D01*
X46298020Y-79281255D01*
X46382764Y-78980397D01*
X46393211Y-79032916D01*
X46530934Y-79365409D01*
X46730876Y-79664645D01*
X46985355Y-79919124D01*
X47284591Y-80119066D01*
X47617084Y-80256789D01*
X47773001Y-80287803D01*
X47773000Y-82160141D01*
X47744360Y-82203004D01*
X47697095Y-82317111D01*
X47673000Y-82438246D01*
X47673000Y-82561754D01*
X47697095Y-82682889D01*
X47744360Y-82796996D01*
X47812977Y-82899689D01*
X47900311Y-82987023D01*
X48003004Y-83055640D01*
X48117111Y-83102905D01*
X48238246Y-83127000D01*
X48361754Y-83127000D01*
X48482889Y-83102905D01*
X48596996Y-83055640D01*
X48699689Y-82987023D01*
X48787023Y-82899689D01*
X48855640Y-82796996D01*
X48902905Y-82682889D01*
X48927000Y-82561754D01*
X48927000Y-82438246D01*
X48902905Y-82317111D01*
X48855640Y-82203004D01*
X48827000Y-82160141D01*
X48827000Y-81788246D01*
X50373000Y-81788246D01*
X50373000Y-81911754D01*
X50397095Y-82032889D01*
X50444360Y-82146996D01*
X50512977Y-82249689D01*
X50548001Y-82284713D01*
X50548001Y-82477785D01*
X50547027Y-82487676D01*
X50545575Y-82489849D01*
X50464389Y-82685851D01*
X50423000Y-82893925D01*
X50423000Y-83106075D01*
X50464389Y-83314149D01*
X50545575Y-83510151D01*
X50663440Y-83686547D01*
X50813453Y-83836560D01*
X50989849Y-83954425D01*
X51124267Y-84010102D01*
X51115448Y-84015995D01*
X51028114Y-84103329D01*
X50959497Y-84206022D01*
X50912232Y-84320129D01*
X50888137Y-84441264D01*
X50888137Y-84564772D01*
X50912232Y-84685907D01*
X50959497Y-84800014D01*
X51028114Y-84902707D01*
X51048001Y-84922594D01*
X51048001Y-85021488D01*
X50989849Y-85045575D01*
X50813453Y-85163440D01*
X50663440Y-85313453D01*
X50545575Y-85489849D01*
X50464389Y-85685851D01*
X50423000Y-85893925D01*
X50423000Y-86106075D01*
X50464389Y-86314149D01*
X50545575Y-86510151D01*
X50663440Y-86686547D01*
X50813453Y-86836560D01*
X50989849Y-86954425D01*
X51185851Y-87035611D01*
X51393925Y-87077000D01*
X51606075Y-87077000D01*
X51814149Y-87035611D01*
X52010151Y-86954425D01*
X52186547Y-86836560D01*
X52336560Y-86686547D01*
X52454425Y-86510151D01*
X52535611Y-86314149D01*
X52577000Y-86106075D01*
X52577000Y-85893925D01*
X52923000Y-85893925D01*
X52923000Y-86106075D01*
X52964389Y-86314149D01*
X53045575Y-86510151D01*
X53163440Y-86686547D01*
X53313453Y-86836560D01*
X53489849Y-86954425D01*
X53685851Y-87035611D01*
X53893925Y-87077000D01*
X54106075Y-87077000D01*
X54314149Y-87035611D01*
X54332956Y-87027821D01*
X54196096Y-87164681D01*
X54178842Y-87178841D01*
X54131093Y-87237023D01*
X54122358Y-87247667D01*
X54080386Y-87326191D01*
X54054540Y-87411393D01*
X54045813Y-87500000D01*
X54048001Y-87522214D01*
X54048001Y-87590297D01*
X54012977Y-87625321D01*
X53944360Y-87728014D01*
X53897095Y-87842121D01*
X53873000Y-87963256D01*
X53873000Y-88086764D01*
X53897095Y-88207899D01*
X53944360Y-88322006D01*
X54012977Y-88424699D01*
X54100311Y-88512033D01*
X54203004Y-88580650D01*
X54317111Y-88627915D01*
X54438246Y-88652010D01*
X54561754Y-88652010D01*
X54682889Y-88627915D01*
X54796996Y-88580650D01*
X54899689Y-88512033D01*
X54987023Y-88424699D01*
X55055640Y-88322006D01*
X55102905Y-88207899D01*
X55114225Y-88150987D01*
X57834607Y-88150987D01*
X57834607Y-88274495D01*
X57858702Y-88395630D01*
X57905967Y-88509737D01*
X57974584Y-88612430D01*
X58008323Y-88646169D01*
X58016147Y-88725612D01*
X58041993Y-88810814D01*
X58064253Y-88852459D01*
X58083965Y-88889338D01*
X58140449Y-88958164D01*
X58157703Y-88972324D01*
X59972188Y-90786810D01*
X59986348Y-90804064D01*
X60055174Y-90860548D01*
X60096420Y-90882594D01*
X60133697Y-90902519D01*
X60218899Y-90928365D01*
X60307507Y-90937092D01*
X60329712Y-90934905D01*
X62019116Y-90934905D01*
X62054139Y-90969928D01*
X62156832Y-91038545D01*
X62270939Y-91085810D01*
X62392074Y-91109905D01*
X62515582Y-91109905D01*
X62636717Y-91085810D01*
X62750824Y-91038545D01*
X62853517Y-90969928D01*
X62940851Y-90882594D01*
X63009468Y-90779901D01*
X63056733Y-90665794D01*
X63080828Y-90544659D01*
X63080828Y-90421151D01*
X63056733Y-90300016D01*
X63009468Y-90185909D01*
X62940851Y-90083216D01*
X62853517Y-89995882D01*
X62750824Y-89927265D01*
X62636717Y-89880000D01*
X62515582Y-89855905D01*
X62392074Y-89855905D01*
X62322031Y-89869837D01*
X62322031Y-89753482D01*
X62297936Y-89632347D01*
X62250671Y-89518240D01*
X62182054Y-89415547D01*
X62094720Y-89328213D01*
X61992027Y-89259596D01*
X61877920Y-89212331D01*
X61756785Y-89188236D01*
X61707256Y-89188236D01*
X60427637Y-87908619D01*
X60413473Y-87891360D01*
X60344647Y-87834876D01*
X60266124Y-87792905D01*
X60180921Y-87767059D01*
X60114519Y-87760519D01*
X60092314Y-87758332D01*
X60070109Y-87760519D01*
X59673215Y-87760519D01*
X59638192Y-87725496D01*
X59535499Y-87656879D01*
X59421392Y-87609614D01*
X59300257Y-87585519D01*
X59176749Y-87585519D01*
X59055614Y-87609614D01*
X58941507Y-87656879D01*
X58849889Y-87718096D01*
X58758603Y-87657101D01*
X58644496Y-87609836D01*
X58523361Y-87585741D01*
X58399853Y-87585741D01*
X58278718Y-87609836D01*
X58164611Y-87657101D01*
X58061918Y-87725718D01*
X57974584Y-87813052D01*
X57905967Y-87915745D01*
X57858702Y-88029852D01*
X57834607Y-88150987D01*
X55114225Y-88150987D01*
X55127000Y-88086764D01*
X55127000Y-87963256D01*
X55102905Y-87842121D01*
X55055640Y-87728014D01*
X54997789Y-87641434D01*
X55512224Y-87127000D01*
X55561754Y-87127000D01*
X55682889Y-87102905D01*
X55796996Y-87055640D01*
X55899689Y-86987023D01*
X55987023Y-86899689D01*
X56055640Y-86796996D01*
X56100686Y-86688246D01*
X58373000Y-86688246D01*
X58373000Y-86811754D01*
X58397095Y-86932889D01*
X58444360Y-87046996D01*
X58512977Y-87149689D01*
X58600311Y-87237023D01*
X58703004Y-87305640D01*
X58817111Y-87352905D01*
X58938246Y-87377000D01*
X59061754Y-87377000D01*
X59182889Y-87352905D01*
X59296996Y-87305640D01*
X59399689Y-87237023D01*
X59487023Y-87149689D01*
X59555640Y-87046996D01*
X59602905Y-86932889D01*
X59627000Y-86811754D01*
X59627000Y-86762223D01*
X60262224Y-86127000D01*
X60311754Y-86127000D01*
X60432889Y-86102905D01*
X60546996Y-86055640D01*
X60649689Y-85987023D01*
X60737023Y-85899689D01*
X60805640Y-85796996D01*
X60852905Y-85682889D01*
X60877000Y-85561754D01*
X60877000Y-85438246D01*
X60852905Y-85317111D01*
X60805640Y-85203004D01*
X60737023Y-85100311D01*
X60649689Y-85012977D01*
X60546996Y-84944360D01*
X60432889Y-84897095D01*
X60311754Y-84873000D01*
X60188246Y-84873000D01*
X60067111Y-84897095D01*
X59953004Y-84944360D01*
X59850311Y-85012977D01*
X59762977Y-85100311D01*
X59694360Y-85203004D01*
X59647095Y-85317111D01*
X59623000Y-85438246D01*
X59623000Y-85487776D01*
X58987777Y-86123000D01*
X58938246Y-86123000D01*
X58817111Y-86147095D01*
X58703004Y-86194360D01*
X58600311Y-86262977D01*
X58512977Y-86350311D01*
X58444360Y-86453004D01*
X58397095Y-86567111D01*
X58373000Y-86688246D01*
X56100686Y-86688246D01*
X56102905Y-86682889D01*
X56127000Y-86561754D01*
X56127000Y-86438246D01*
X56102905Y-86317111D01*
X56055640Y-86203004D01*
X55987023Y-86100311D01*
X55899689Y-86012977D01*
X55796996Y-85944360D01*
X55682889Y-85897095D01*
X55561754Y-85873000D01*
X55438246Y-85873000D01*
X55317111Y-85897095D01*
X55203004Y-85944360D01*
X55178471Y-85960752D01*
X55512224Y-85627000D01*
X55561754Y-85627000D01*
X55682889Y-85602905D01*
X55796996Y-85555640D01*
X55899689Y-85487023D01*
X55987023Y-85399689D01*
X56055640Y-85296996D01*
X56102905Y-85182889D01*
X56127000Y-85061754D01*
X56127000Y-84938246D01*
X56102905Y-84817111D01*
X56055640Y-84703004D01*
X55987023Y-84600311D01*
X55899689Y-84512977D01*
X55796996Y-84444360D01*
X55682889Y-84397095D01*
X55561754Y-84373000D01*
X55438246Y-84373000D01*
X55317111Y-84397095D01*
X55203004Y-84444360D01*
X55100311Y-84512977D01*
X55012977Y-84600311D01*
X54944360Y-84703004D01*
X54897095Y-84817111D01*
X54873000Y-84938246D01*
X54873000Y-84987776D01*
X54691942Y-85168835D01*
X54686547Y-85163440D01*
X54510151Y-85045575D01*
X54314149Y-84964389D01*
X54106075Y-84923000D01*
X53893925Y-84923000D01*
X53685851Y-84964389D01*
X53489849Y-85045575D01*
X53313453Y-85163440D01*
X53163440Y-85313453D01*
X53045575Y-85489849D01*
X52964389Y-85685851D01*
X52923000Y-85893925D01*
X52577000Y-85893925D01*
X52535611Y-85685851D01*
X52454425Y-85489849D01*
X52336560Y-85313453D01*
X52186547Y-85163440D01*
X52010151Y-85045575D01*
X51952000Y-85021488D01*
X51952000Y-84952867D01*
X52002160Y-84902707D01*
X52070777Y-84800014D01*
X52118042Y-84685907D01*
X52142137Y-84564772D01*
X52142137Y-84441264D01*
X52118042Y-84320129D01*
X52070777Y-84206022D01*
X52002160Y-84103329D01*
X51914826Y-84015995D01*
X51894422Y-84002361D01*
X52010151Y-83954425D01*
X52186547Y-83836560D01*
X52336560Y-83686547D01*
X52454425Y-83510151D01*
X52535611Y-83314149D01*
X52577000Y-83106075D01*
X52577000Y-82893925D01*
X52535611Y-82685851D01*
X52454425Y-82489849D01*
X52409587Y-82422744D01*
X52498736Y-82385817D01*
X52601429Y-82317200D01*
X52688763Y-82229866D01*
X52757380Y-82127173D01*
X52804645Y-82013066D01*
X52828740Y-81891931D01*
X52828740Y-81768423D01*
X52804645Y-81647288D01*
X52757380Y-81533181D01*
X52701999Y-81450297D01*
X52701999Y-81272204D01*
X52704186Y-81249999D01*
X52695459Y-81161391D01*
X52669613Y-81076189D01*
X52651065Y-81041488D01*
X52627642Y-80997666D01*
X52571158Y-80928840D01*
X52553905Y-80914681D01*
X52511524Y-80872300D01*
X52535611Y-80814149D01*
X52577000Y-80606075D01*
X52577000Y-80393925D01*
X52923000Y-80393925D01*
X52923000Y-80606075D01*
X52964389Y-80814149D01*
X53045575Y-81010151D01*
X53163440Y-81186547D01*
X53313453Y-81336560D01*
X53489849Y-81454425D01*
X53685851Y-81535611D01*
X53893925Y-81577000D01*
X54106075Y-81577000D01*
X54314149Y-81535611D01*
X54372300Y-81511524D01*
X54797523Y-81936748D01*
X54797523Y-82274416D01*
X54686547Y-82163440D01*
X54510151Y-82045575D01*
X54314149Y-81964389D01*
X54106075Y-81923000D01*
X53893925Y-81923000D01*
X53685851Y-81964389D01*
X53489849Y-82045575D01*
X53313453Y-82163440D01*
X53163440Y-82313453D01*
X53045575Y-82489849D01*
X52964389Y-82685851D01*
X52923000Y-82893925D01*
X52923000Y-83106075D01*
X52964389Y-83314149D01*
X53045575Y-83510151D01*
X53163440Y-83686547D01*
X53313453Y-83836560D01*
X53489849Y-83954425D01*
X53548001Y-83978512D01*
X53548001Y-84038445D01*
X53545813Y-84060660D01*
X53554540Y-84149267D01*
X53580386Y-84234469D01*
X53615678Y-84300495D01*
X53622358Y-84312993D01*
X53678842Y-84381819D01*
X53696096Y-84395979D01*
X53815905Y-84515788D01*
X53830069Y-84533047D01*
X53848781Y-84548404D01*
X53890992Y-84611577D01*
X53978326Y-84698911D01*
X54081019Y-84767528D01*
X54195126Y-84814793D01*
X54316261Y-84838888D01*
X54439769Y-84838888D01*
X54560904Y-84814793D01*
X54675011Y-84767528D01*
X54777704Y-84698911D01*
X54865038Y-84611577D01*
X54933655Y-84508884D01*
X54980920Y-84394777D01*
X55005015Y-84273642D01*
X55005015Y-84211438D01*
X55066634Y-84236962D01*
X55187769Y-84261057D01*
X55311277Y-84261057D01*
X55432412Y-84236962D01*
X55546519Y-84189697D01*
X55649212Y-84121080D01*
X55736546Y-84033746D01*
X55805163Y-83931053D01*
X55852428Y-83816946D01*
X55876523Y-83695811D01*
X55876523Y-83572303D01*
X55852428Y-83451168D01*
X55805163Y-83337061D01*
X55736546Y-83234368D01*
X55701523Y-83199345D01*
X55701523Y-81771727D01*
X55703710Y-81749522D01*
X55694983Y-81660915D01*
X55686740Y-81633744D01*
X55669137Y-81575713D01*
X55627166Y-81497190D01*
X55570682Y-81428364D01*
X55553435Y-81414210D01*
X55011524Y-80872300D01*
X55035611Y-80814149D01*
X55077000Y-80606075D01*
X55077000Y-80393925D01*
X55035611Y-80185851D01*
X54954425Y-79989849D01*
X54836560Y-79813453D01*
X54686547Y-79663440D01*
X54510151Y-79545575D01*
X54314149Y-79464389D01*
X54106075Y-79423000D01*
X53893925Y-79423000D01*
X53685851Y-79464389D01*
X53489849Y-79545575D01*
X53313453Y-79663440D01*
X53163440Y-79813453D01*
X53045575Y-79989849D01*
X52964389Y-80185851D01*
X52923000Y-80393925D01*
X52577000Y-80393925D01*
X52535611Y-80185851D01*
X52454425Y-79989849D01*
X52336560Y-79813453D01*
X52186547Y-79663440D01*
X52010151Y-79545575D01*
X51814149Y-79464389D01*
X51606075Y-79423000D01*
X51393925Y-79423000D01*
X51185851Y-79464389D01*
X50989849Y-79545575D01*
X50813453Y-79663440D01*
X50663440Y-79813453D01*
X50545575Y-79989849D01*
X50464389Y-80185851D01*
X50423000Y-80393925D01*
X50423000Y-80606075D01*
X50464389Y-80814149D01*
X50545575Y-81010151D01*
X50663440Y-81186547D01*
X50751263Y-81274370D01*
X50703004Y-81294360D01*
X50600311Y-81362977D01*
X50512977Y-81450311D01*
X50444360Y-81553004D01*
X50397095Y-81667111D01*
X50373000Y-81788246D01*
X48827000Y-81788246D01*
X48827000Y-80197108D01*
X49015409Y-80119066D01*
X49314645Y-79919124D01*
X49569124Y-79664645D01*
X49769066Y-79365409D01*
X49906789Y-79032916D01*
X49977000Y-78679944D01*
X49977000Y-78627000D01*
X67281711Y-78627000D01*
X69837038Y-81182328D01*
X69847095Y-81232889D01*
X69894360Y-81346996D01*
X69962977Y-81449689D01*
X69998000Y-81484712D01*
X69998001Y-88259894D01*
X66463355Y-91794541D01*
X66455043Y-91802853D01*
X66405512Y-91802853D01*
X66284377Y-91826948D01*
X66170270Y-91874213D01*
X66067577Y-91942830D01*
X65980243Y-92030164D01*
X65911626Y-92132857D01*
X65864361Y-92246964D01*
X65840266Y-92368099D01*
X65840266Y-92491607D01*
X65864361Y-92612742D01*
X65911626Y-92726849D01*
X65980243Y-92829542D01*
X66067577Y-92916876D01*
X66170270Y-92985493D01*
X66284377Y-93032758D01*
X66405512Y-93056853D01*
X66529020Y-93056853D01*
X66650155Y-93032758D01*
X66764262Y-92985493D01*
X66866955Y-92916876D01*
X66954289Y-92829542D01*
X67022906Y-92726849D01*
X67070171Y-92612742D01*
X67094266Y-92491607D01*
X67094266Y-92442076D01*
X67102578Y-92433764D01*
X70753905Y-88782438D01*
X70771159Y-88768278D01*
X70827643Y-88699452D01*
X70869614Y-88620929D01*
X70872192Y-88612430D01*
X70895460Y-88535727D01*
X70904187Y-88447119D01*
X70902000Y-88424914D01*
X70902000Y-81484712D01*
X70937023Y-81449689D01*
X71005640Y-81346996D01*
X71052905Y-81232889D01*
X71077000Y-81111754D01*
X71077000Y-80988246D01*
X71052905Y-80867111D01*
X71005640Y-80753004D01*
X70937023Y-80650311D01*
X70849689Y-80562977D01*
X70746996Y-80494360D01*
X70632889Y-80447095D01*
X70582328Y-80437038D01*
X68273789Y-78128500D01*
X78698000Y-78128500D01*
X78698000Y-79591418D01*
X73793000Y-79591418D01*
X73728897Y-79597732D01*
X73667257Y-79616430D01*
X73610450Y-79646794D01*
X73560657Y-79687657D01*
X73519794Y-79737450D01*
X73489430Y-79794257D01*
X73470732Y-79855897D01*
X73464418Y-79920000D01*
X73464418Y-81698000D01*
X73470732Y-81762103D01*
X73489430Y-81823743D01*
X73519794Y-81880550D01*
X73560657Y-81930343D01*
X73610450Y-81971206D01*
X73667257Y-82001570D01*
X73728897Y-82020268D01*
X73793000Y-82026582D01*
X78698000Y-82026582D01*
X78698000Y-82385418D01*
X73793000Y-82385418D01*
X73728897Y-82391732D01*
X73667257Y-82410430D01*
X73610450Y-82440794D01*
X73560657Y-82481657D01*
X73519794Y-82531450D01*
X73489430Y-82588257D01*
X73470732Y-82649897D01*
X73464418Y-82714000D01*
X73464418Y-84492000D01*
X73470732Y-84556103D01*
X73489430Y-84617743D01*
X73519794Y-84674550D01*
X73560657Y-84724343D01*
X73610450Y-84765206D01*
X73667257Y-84795570D01*
X73728897Y-84814268D01*
X73793000Y-84820582D01*
X78698000Y-84820582D01*
X78698001Y-85179418D01*
X73793000Y-85179418D01*
X73728897Y-85185732D01*
X73667257Y-85204430D01*
X73610450Y-85234794D01*
X73560657Y-85275657D01*
X73519794Y-85325450D01*
X73489430Y-85382257D01*
X73470732Y-85443897D01*
X73464418Y-85508000D01*
X73464418Y-85945000D01*
X72814384Y-85945000D01*
X72286907Y-85417524D01*
X72286907Y-85367993D01*
X72262812Y-85246858D01*
X72215547Y-85132751D01*
X72146930Y-85030058D01*
X72059596Y-84942724D01*
X71956903Y-84874107D01*
X71842796Y-84826842D01*
X71721661Y-84802747D01*
X71598153Y-84802747D01*
X71477018Y-84826842D01*
X71362911Y-84874107D01*
X71260218Y-84942724D01*
X71172884Y-85030058D01*
X71104267Y-85132751D01*
X71057002Y-85246858D01*
X71032907Y-85367993D01*
X71032907Y-85491501D01*
X71057002Y-85612636D01*
X71104267Y-85726743D01*
X71172884Y-85829436D01*
X71260218Y-85916770D01*
X71362911Y-85985387D01*
X71477018Y-86032652D01*
X71598153Y-86056747D01*
X71647684Y-86056747D01*
X72291841Y-86700905D01*
X72306001Y-86718159D01*
X72374827Y-86774643D01*
X72453350Y-86816614D01*
X72538552Y-86842460D01*
X72627160Y-86851187D01*
X72649365Y-86849000D01*
X73464418Y-86849000D01*
X73464418Y-87286000D01*
X73470732Y-87350103D01*
X73489430Y-87411743D01*
X73519794Y-87468550D01*
X73560657Y-87518343D01*
X73610450Y-87559206D01*
X73667257Y-87589570D01*
X73728897Y-87608268D01*
X73793000Y-87614582D01*
X78698001Y-87614582D01*
X78698001Y-87973418D01*
X73793000Y-87973418D01*
X73728897Y-87979732D01*
X73667257Y-87998430D01*
X73610450Y-88028794D01*
X73560657Y-88069657D01*
X73519794Y-88119450D01*
X73489430Y-88176257D01*
X73470732Y-88237897D01*
X73464418Y-88302000D01*
X73464418Y-90080000D01*
X73470732Y-90144103D01*
X73489430Y-90205743D01*
X73519794Y-90262550D01*
X73560657Y-90312343D01*
X73610450Y-90353206D01*
X73667257Y-90383570D01*
X73728897Y-90402268D01*
X73793000Y-90408582D01*
X78698001Y-90408582D01*
X78698001Y-94598000D01*
X51844990Y-94598000D01*
X51914333Y-94551667D01*
X52001667Y-94464333D01*
X52070284Y-94361640D01*
X52117549Y-94247533D01*
X52141644Y-94126398D01*
X52141644Y-94002890D01*
X52117549Y-93881755D01*
X52070284Y-93767648D01*
X52001667Y-93664955D01*
X51958953Y-93622241D01*
X51934258Y-93540834D01*
X51931307Y-93535313D01*
X51892287Y-93462311D01*
X51835803Y-93393485D01*
X51818556Y-93379331D01*
X50627000Y-92187777D01*
X50627000Y-92138246D01*
X50602905Y-92017111D01*
X50570864Y-91939758D01*
X50637269Y-91919614D01*
X50685330Y-91893925D01*
X51423000Y-91893925D01*
X51423000Y-92106075D01*
X51464389Y-92314149D01*
X51545575Y-92510151D01*
X51663440Y-92686547D01*
X51813453Y-92836560D01*
X51989849Y-92954425D01*
X52185851Y-93035611D01*
X52393925Y-93077000D01*
X52606075Y-93077000D01*
X52674221Y-93063445D01*
X52823000Y-93212224D01*
X52823000Y-93261754D01*
X52847095Y-93382889D01*
X52894360Y-93496996D01*
X52962977Y-93599689D01*
X53050311Y-93687023D01*
X53153004Y-93755640D01*
X53267111Y-93802905D01*
X53388246Y-93827000D01*
X53511754Y-93827000D01*
X53632889Y-93802905D01*
X53746996Y-93755640D01*
X53849689Y-93687023D01*
X53937023Y-93599689D01*
X54005640Y-93496996D01*
X54052905Y-93382889D01*
X54077000Y-93261754D01*
X54077000Y-93138246D01*
X54052905Y-93017111D01*
X54005640Y-92903004D01*
X53937023Y-92800311D01*
X53849689Y-92712977D01*
X53746996Y-92644360D01*
X53632889Y-92597095D01*
X53511754Y-92573000D01*
X53462224Y-92573000D01*
X53432375Y-92543151D01*
X53454425Y-92510151D01*
X53535611Y-92314149D01*
X53577000Y-92106075D01*
X53577000Y-91893925D01*
X53923000Y-91893925D01*
X53923000Y-92106075D01*
X53964389Y-92314149D01*
X54045575Y-92510151D01*
X54163440Y-92686547D01*
X54313453Y-92836560D01*
X54400080Y-92894443D01*
X54394360Y-92903004D01*
X54347095Y-93017111D01*
X54323000Y-93138246D01*
X54323000Y-93261754D01*
X54347095Y-93382889D01*
X54394360Y-93496996D01*
X54462977Y-93599689D01*
X54550311Y-93687023D01*
X54653004Y-93755640D01*
X54767111Y-93802905D01*
X54888246Y-93827000D01*
X55011754Y-93827000D01*
X55132889Y-93802905D01*
X55246996Y-93755640D01*
X55349689Y-93687023D01*
X55437023Y-93599689D01*
X55505640Y-93496996D01*
X55552905Y-93382889D01*
X55577000Y-93261754D01*
X55577000Y-93138246D01*
X55552905Y-93017111D01*
X55523300Y-92945639D01*
X55686547Y-92836560D01*
X55836560Y-92686547D01*
X55954425Y-92510151D01*
X56035611Y-92314149D01*
X56077000Y-92106075D01*
X56077000Y-91893925D01*
X56035611Y-91685851D01*
X55954425Y-91489849D01*
X55836560Y-91313453D01*
X55686547Y-91163440D01*
X55510151Y-91045575D01*
X55314149Y-90964389D01*
X55106075Y-90923000D01*
X54893925Y-90923000D01*
X54685851Y-90964389D01*
X54489849Y-91045575D01*
X54313453Y-91163440D01*
X54163440Y-91313453D01*
X54045575Y-91489849D01*
X53964389Y-91685851D01*
X53923000Y-91893925D01*
X53577000Y-91893925D01*
X53535611Y-91685851D01*
X53454425Y-91489849D01*
X53336560Y-91313453D01*
X53186547Y-91163440D01*
X53010151Y-91045575D01*
X52814149Y-90964389D01*
X52606075Y-90923000D01*
X52393925Y-90923000D01*
X52185851Y-90964389D01*
X51989849Y-91045575D01*
X51813453Y-91163440D01*
X51663440Y-91313453D01*
X51545575Y-91489849D01*
X51464389Y-91685851D01*
X51423000Y-91893925D01*
X50685330Y-91893925D01*
X50715792Y-91877643D01*
X50784618Y-91821159D01*
X50798782Y-91803900D01*
X52774754Y-89827929D01*
X52824284Y-89827929D01*
X52945419Y-89803834D01*
X53059526Y-89756569D01*
X53162219Y-89687952D01*
X53249553Y-89600618D01*
X53318170Y-89497925D01*
X53365435Y-89383818D01*
X53389530Y-89262683D01*
X53389530Y-89139175D01*
X53365435Y-89018040D01*
X53318170Y-88903933D01*
X53249553Y-88801240D01*
X53162219Y-88713906D01*
X53059526Y-88645289D01*
X52945419Y-88598024D01*
X52824284Y-88573929D01*
X52700776Y-88573929D01*
X52579641Y-88598024D01*
X52465534Y-88645289D01*
X52362841Y-88713906D01*
X52275507Y-88801240D01*
X52206890Y-88903933D01*
X52159625Y-89018040D01*
X52135530Y-89139175D01*
X52135530Y-89188705D01*
X50276236Y-91048000D01*
X44834712Y-91048000D01*
X44799689Y-91012977D01*
X44696996Y-90944360D01*
X44582889Y-90897095D01*
X44461754Y-90873000D01*
X44338246Y-90873000D01*
X44217111Y-90897095D01*
X44103004Y-90944360D01*
X44000311Y-91012977D01*
X43912977Y-91100311D01*
X43844360Y-91203004D01*
X43797095Y-91317111D01*
X43773000Y-91438246D01*
X43773000Y-91561754D01*
X43797095Y-91682889D01*
X43844360Y-91796996D01*
X43912977Y-91899689D01*
X44000311Y-91987023D01*
X44103004Y-92055640D01*
X44217111Y-92102905D01*
X44338246Y-92127000D01*
X44461754Y-92127000D01*
X44582889Y-92102905D01*
X44696996Y-92055640D01*
X44799689Y-91987023D01*
X44834712Y-91952000D01*
X49424065Y-91952000D01*
X49397095Y-92017111D01*
X49373000Y-92138246D01*
X49373000Y-92261754D01*
X49397095Y-92382889D01*
X49444360Y-92496996D01*
X49512977Y-92599689D01*
X49600311Y-92687023D01*
X49703004Y-92755640D01*
X49817111Y-92802905D01*
X49938246Y-92827000D01*
X49987777Y-92827000D01*
X50950047Y-93789272D01*
X50911739Y-93881755D01*
X50887644Y-94002890D01*
X50887644Y-94126398D01*
X50911739Y-94247533D01*
X50959004Y-94361640D01*
X51027621Y-94464333D01*
X51114955Y-94551667D01*
X51184298Y-94598000D01*
X43240908Y-94598000D01*
X43298722Y-94540186D01*
X43388713Y-94405505D01*
X43450700Y-94255856D01*
X43482300Y-94096990D01*
X43482300Y-93935010D01*
X43450700Y-93776144D01*
X43388713Y-93626495D01*
X43298722Y-93491814D01*
X43184186Y-93377278D01*
X43049505Y-93287287D01*
X42899856Y-93225300D01*
X42740990Y-93193700D01*
X42579010Y-93193700D01*
X42420144Y-93225300D01*
X42270495Y-93287287D01*
X42135814Y-93377278D01*
X42021278Y-93491814D01*
X41931287Y-93626495D01*
X41869300Y-93776144D01*
X41837700Y-93935010D01*
X41837700Y-94096990D01*
X41869300Y-94255856D01*
X41931287Y-94405505D01*
X42021278Y-94540186D01*
X42079092Y-94598000D01*
X41802000Y-94598000D01*
X41802000Y-92919010D01*
X46917700Y-92919010D01*
X46917700Y-93080990D01*
X46949300Y-93239856D01*
X47011287Y-93389505D01*
X47101278Y-93524186D01*
X47215814Y-93638722D01*
X47350495Y-93728713D01*
X47500144Y-93790700D01*
X47659010Y-93822300D01*
X47820990Y-93822300D01*
X47979856Y-93790700D01*
X48129505Y-93728713D01*
X48264186Y-93638722D01*
X48378722Y-93524186D01*
X48468713Y-93389505D01*
X48530700Y-93239856D01*
X48562300Y-93080990D01*
X48562300Y-92919010D01*
X48530700Y-92760144D01*
X48468713Y-92610495D01*
X48378722Y-92475814D01*
X48264186Y-92361278D01*
X48129505Y-92271287D01*
X47979856Y-92209300D01*
X47820990Y-92177700D01*
X47659010Y-92177700D01*
X47500144Y-92209300D01*
X47350495Y-92271287D01*
X47215814Y-92361278D01*
X47101278Y-92475814D01*
X47011287Y-92610495D01*
X46949300Y-92760144D01*
X46917700Y-92919010D01*
X41802000Y-92919010D01*
X41802000Y-91903010D01*
X41837700Y-91903010D01*
X41837700Y-92064990D01*
X41869300Y-92223856D01*
X41931287Y-92373505D01*
X42021278Y-92508186D01*
X42135814Y-92622722D01*
X42270495Y-92712713D01*
X42420144Y-92774700D01*
X42579010Y-92806300D01*
X42740990Y-92806300D01*
X42899856Y-92774700D01*
X43049505Y-92712713D01*
X43184186Y-92622722D01*
X43298722Y-92508186D01*
X43388713Y-92373505D01*
X43450700Y-92223856D01*
X43482300Y-92064990D01*
X43482300Y-91903010D01*
X43450700Y-91744144D01*
X43388713Y-91594495D01*
X43298722Y-91459814D01*
X43184186Y-91345278D01*
X43049505Y-91255287D01*
X42899856Y-91193300D01*
X42740990Y-91161700D01*
X42579010Y-91161700D01*
X42420144Y-91193300D01*
X42270495Y-91255287D01*
X42135814Y-91345278D01*
X42021278Y-91459814D01*
X41931287Y-91594495D01*
X41869300Y-91744144D01*
X41837700Y-91903010D01*
X41802000Y-91903010D01*
X41802000Y-89302000D01*
X46219747Y-89302000D01*
X46237083Y-89300293D01*
X46242021Y-89300327D01*
X46247607Y-89299779D01*
X46402884Y-89283458D01*
X46438578Y-89276131D01*
X46474362Y-89269305D01*
X46479735Y-89267682D01*
X46628885Y-89221513D01*
X46662465Y-89207398D01*
X46696258Y-89193745D01*
X46701207Y-89191113D01*
X46701211Y-89191111D01*
X46701214Y-89191109D01*
X46838556Y-89116848D01*
X46868741Y-89096488D01*
X46899248Y-89076525D01*
X46903598Y-89072977D01*
X47023901Y-88973454D01*
X47049608Y-88947567D01*
X47075607Y-88922107D01*
X47079180Y-88917788D01*
X47079184Y-88917784D01*
X47079187Y-88917780D01*
X47177865Y-88796789D01*
X47198028Y-88766440D01*
X47218612Y-88736379D01*
X47221282Y-88731441D01*
X47294582Y-88593584D01*
X47308461Y-88559909D01*
X47322820Y-88526408D01*
X47324480Y-88521046D01*
X47369607Y-88371577D01*
X47376690Y-88335807D01*
X47384259Y-88300198D01*
X47384844Y-88294622D01*
X47384846Y-88294614D01*
X47384846Y-88294606D01*
X47400081Y-88139229D01*
X47402000Y-88119747D01*
X47402000Y-81880253D01*
X47400293Y-81862917D01*
X47400327Y-81857979D01*
X47399779Y-81852392D01*
X47383458Y-81697116D01*
X47376131Y-81661422D01*
X47369305Y-81625638D01*
X47367682Y-81620265D01*
X47321513Y-81471115D01*
X47307398Y-81437535D01*
X47293745Y-81403742D01*
X47291109Y-81398786D01*
X47216848Y-81261444D01*
X47196466Y-81231227D01*
X47176524Y-81200751D01*
X47172980Y-81196407D01*
X47172976Y-81196401D01*
X47172971Y-81196396D01*
X47073454Y-81076099D01*
X47047584Y-81050409D01*
X47022107Y-81024393D01*
X47017782Y-81020815D01*
X46896788Y-80922135D01*
X46866458Y-80901984D01*
X46836379Y-80881388D01*
X46831441Y-80878718D01*
X46693584Y-80805418D01*
X46659881Y-80791527D01*
X46626408Y-80777180D01*
X46621046Y-80775520D01*
X46471577Y-80730393D01*
X46435826Y-80723315D01*
X46400198Y-80715741D01*
X46394616Y-80715155D01*
X46239513Y-80699947D01*
X46219747Y-80698000D01*
X41802000Y-80698000D01*
X41802000Y-79991653D01*
X42987952Y-79991653D01*
X43143962Y-80307214D01*
X43518745Y-80498020D01*
X43923551Y-80612044D01*
X44342824Y-80644902D01*
X44760451Y-80595334D01*
X45160383Y-80465243D01*
X45456038Y-80307214D01*
X45612048Y-79991653D01*
X44300000Y-78679605D01*
X42987952Y-79991653D01*
X41802000Y-79991653D01*
X41802000Y-78542824D01*
X42155098Y-78542824D01*
X42204666Y-78960451D01*
X42334757Y-79360383D01*
X42492786Y-79656038D01*
X42808347Y-79812048D01*
X44120395Y-78500000D01*
X42808347Y-77187952D01*
X42492786Y-77343962D01*
X42301980Y-77718745D01*
X42187956Y-78123551D01*
X42155098Y-78542824D01*
X41802000Y-78542824D01*
X41802000Y-77008347D01*
X42987952Y-77008347D01*
X44300000Y-78320395D01*
X45612048Y-77008347D01*
X45456038Y-76692786D01*
X45081255Y-76501980D01*
X44676449Y-76387956D01*
X44257176Y-76355098D01*
X43839549Y-76404666D01*
X43439617Y-76534757D01*
X43143962Y-76692786D01*
X42987952Y-77008347D01*
X41802000Y-77008347D01*
X41802000Y-75402000D01*
X50911095Y-75402000D01*
X50911095Y-77573000D01*
G37*
%TD.AperFunction*%
%TD*%
M02*
