%TF.GenerationSoftware,KiCad,Pcbnew,5.1.9+dfsg1-1~bpo10+1*%
%TF.CreationDate,2021-03-04T17:44:12+01:00*%
%TF.ProjectId,candleLight,63616e64-6c65-44c6-9967-68742e6b6963,R01*%
%TF.SameCoordinates,Original*%
%TF.FileFunction,Legend,Bot*%
%TF.FilePolarity,Positive*%
%FSLAX46Y46*%
G04 Gerber Fmt 4.6, Leading zero omitted, Abs format (unit mm)*
G04 Created by KiCad (PCBNEW 5.1.9+dfsg1-1~bpo10+1) date 2021-03-04 17:44:12*
%MOMM*%
%LPD*%
G01*
G04 APERTURE LIST*
%ADD10C,0.100000*%
%ADD11C,0.150000*%
%ADD12C,0.300000*%
%ADD13C,0.400000*%
%ADD14C,0.200000*%
%ADD15C,0.250000*%
%TA.AperFunction,Profile*%
%ADD16C,0.150000*%
%TD*%
%ADD17C,0.010000*%
G04 APERTURE END LIST*
D10*
D11*
X177002200Y-180007200D02*
X177002200Y-200007200D01*
X287002200Y-200007200D01*
X287002200Y-180007200D01*
X177002200Y-180007200D01*
D10*
D11*
X10000000Y-10000000D02*
X10000000Y-200007200D01*
X287002200Y-200007200D01*
X287002200Y-10000000D01*
X10000000Y-10000000D01*
D10*
D11*
X200434342Y-195785771D02*
X200434342Y-194285771D01*
X200791485Y-194285771D01*
X201005771Y-194357200D01*
X201148628Y-194500057D01*
X201220057Y-194642914D01*
X201291485Y-194928628D01*
X201291485Y-195142914D01*
X201220057Y-195428628D01*
X201148628Y-195571485D01*
X201005771Y-195714342D01*
X200791485Y-195785771D01*
X200434342Y-195785771D01*
X202577200Y-195785771D02*
X202577200Y-195000057D01*
X202505771Y-194857200D01*
X202362914Y-194785771D01*
X202077200Y-194785771D01*
X201934342Y-194857200D01*
X202577200Y-195714342D02*
X202434342Y-195785771D01*
X202077200Y-195785771D01*
X201934342Y-195714342D01*
X201862914Y-195571485D01*
X201862914Y-195428628D01*
X201934342Y-195285771D01*
X202077200Y-195214342D01*
X202434342Y-195214342D01*
X202577200Y-195142914D01*
X203077200Y-194785771D02*
X203648628Y-194785771D01*
X203291485Y-194285771D02*
X203291485Y-195571485D01*
X203362914Y-195714342D01*
X203505771Y-195785771D01*
X203648628Y-195785771D01*
X204720057Y-195714342D02*
X204577200Y-195785771D01*
X204291485Y-195785771D01*
X204148628Y-195714342D01*
X204077200Y-195571485D01*
X204077200Y-195000057D01*
X204148628Y-194857200D01*
X204291485Y-194785771D01*
X204577200Y-194785771D01*
X204720057Y-194857200D01*
X204791485Y-195000057D01*
X204791485Y-195142914D01*
X204077200Y-195285771D01*
X205434342Y-195642914D02*
X205505771Y-195714342D01*
X205434342Y-195785771D01*
X205362914Y-195714342D01*
X205434342Y-195642914D01*
X205434342Y-195785771D01*
X205434342Y-194857200D02*
X205505771Y-194928628D01*
X205434342Y-195000057D01*
X205362914Y-194928628D01*
X205434342Y-194857200D01*
X205434342Y-195000057D01*
X207220057Y-194428628D02*
X207291485Y-194357200D01*
X207434342Y-194285771D01*
X207791485Y-194285771D01*
X207934342Y-194357200D01*
X208005771Y-194428628D01*
X208077200Y-194571485D01*
X208077200Y-194714342D01*
X208005771Y-194928628D01*
X207148628Y-195785771D01*
X208077200Y-195785771D01*
X209005771Y-194285771D02*
X209148628Y-194285771D01*
X209291485Y-194357200D01*
X209362914Y-194428628D01*
X209434342Y-194571485D01*
X209505771Y-194857200D01*
X209505771Y-195214342D01*
X209434342Y-195500057D01*
X209362914Y-195642914D01*
X209291485Y-195714342D01*
X209148628Y-195785771D01*
X209005771Y-195785771D01*
X208862914Y-195714342D01*
X208791485Y-195642914D01*
X208720057Y-195500057D01*
X208648628Y-195214342D01*
X208648628Y-194857200D01*
X208720057Y-194571485D01*
X208791485Y-194428628D01*
X208862914Y-194357200D01*
X209005771Y-194285771D01*
X210077200Y-194428628D02*
X210148628Y-194357200D01*
X210291485Y-194285771D01*
X210648628Y-194285771D01*
X210791485Y-194357200D01*
X210862914Y-194428628D01*
X210934342Y-194571485D01*
X210934342Y-194714342D01*
X210862914Y-194928628D01*
X210005771Y-195785771D01*
X210934342Y-195785771D01*
X212362914Y-195785771D02*
X211505771Y-195785771D01*
X211934342Y-195785771D02*
X211934342Y-194285771D01*
X211791485Y-194500057D01*
X211648628Y-194642914D01*
X211505771Y-194714342D01*
X213005771Y-195214342D02*
X214148628Y-195214342D01*
X215148628Y-194285771D02*
X215291485Y-194285771D01*
X215434342Y-194357200D01*
X215505771Y-194428628D01*
X215577200Y-194571485D01*
X215648628Y-194857200D01*
X215648628Y-195214342D01*
X215577200Y-195500057D01*
X215505771Y-195642914D01*
X215434342Y-195714342D01*
X215291485Y-195785771D01*
X215148628Y-195785771D01*
X215005771Y-195714342D01*
X214934342Y-195642914D01*
X214862914Y-195500057D01*
X214791485Y-195214342D01*
X214791485Y-194857200D01*
X214862914Y-194571485D01*
X214934342Y-194428628D01*
X215005771Y-194357200D01*
X215148628Y-194285771D01*
X216148628Y-194285771D02*
X217077200Y-194285771D01*
X216577200Y-194857200D01*
X216791485Y-194857200D01*
X216934342Y-194928628D01*
X217005771Y-195000057D01*
X217077200Y-195142914D01*
X217077200Y-195500057D01*
X217005771Y-195642914D01*
X216934342Y-195714342D01*
X216791485Y-195785771D01*
X216362914Y-195785771D01*
X216220057Y-195714342D01*
X216148628Y-195642914D01*
X217720057Y-195214342D02*
X218862914Y-195214342D01*
X219862914Y-194285771D02*
X220005771Y-194285771D01*
X220148628Y-194357200D01*
X220220057Y-194428628D01*
X220291485Y-194571485D01*
X220362914Y-194857200D01*
X220362914Y-195214342D01*
X220291485Y-195500057D01*
X220220057Y-195642914D01*
X220148628Y-195714342D01*
X220005771Y-195785771D01*
X219862914Y-195785771D01*
X219720057Y-195714342D01*
X219648628Y-195642914D01*
X219577200Y-195500057D01*
X219505771Y-195214342D01*
X219505771Y-194857200D01*
X219577200Y-194571485D01*
X219648628Y-194428628D01*
X219720057Y-194357200D01*
X219862914Y-194285771D01*
X220862914Y-194285771D02*
X221791485Y-194285771D01*
X221291485Y-194857200D01*
X221505771Y-194857200D01*
X221648628Y-194928628D01*
X221720057Y-195000057D01*
X221791485Y-195142914D01*
X221791485Y-195500057D01*
X221720057Y-195642914D01*
X221648628Y-195714342D01*
X221505771Y-195785771D01*
X221077200Y-195785771D01*
X220934342Y-195714342D01*
X220862914Y-195642914D01*
D10*
D11*
X178434342Y-188385771D02*
X178434342Y-186885771D01*
X178934342Y-187385771D02*
X179505771Y-187385771D01*
X179148628Y-186885771D02*
X179148628Y-188171485D01*
X179220057Y-188314342D01*
X179362914Y-188385771D01*
X179505771Y-188385771D01*
X180577200Y-188314342D02*
X180434342Y-188385771D01*
X180148628Y-188385771D01*
X180005771Y-188314342D01*
X179934342Y-188171485D01*
X179934342Y-187600057D01*
X180005771Y-187457200D01*
X180148628Y-187385771D01*
X180434342Y-187385771D01*
X180577200Y-187457200D01*
X180648628Y-187600057D01*
X180648628Y-187742914D01*
X179934342Y-187885771D01*
X181291485Y-188385771D02*
X181291485Y-187385771D01*
X181291485Y-187528628D02*
X181362914Y-187457200D01*
X181505771Y-187385771D01*
X181720057Y-187385771D01*
X181862914Y-187457200D01*
X181934342Y-187600057D01*
X181934342Y-188385771D01*
X181934342Y-187600057D02*
X182005771Y-187457200D01*
X182148628Y-187385771D01*
X182362914Y-187385771D01*
X182505771Y-187457200D01*
X182577200Y-187600057D01*
X182577200Y-188385771D01*
X183291485Y-188242914D02*
X183362914Y-188314342D01*
X183291485Y-188385771D01*
X183220057Y-188314342D01*
X183291485Y-188242914D01*
X183291485Y-188385771D01*
X183291485Y-187457200D02*
X183362914Y-187528628D01*
X183291485Y-187600057D01*
X183220057Y-187528628D01*
X183291485Y-187457200D01*
X183291485Y-187600057D01*
X185791485Y-188314342D02*
X185648628Y-188385771D01*
X185362914Y-188385771D01*
X185220057Y-188314342D01*
X185148628Y-188242914D01*
X185077200Y-188100057D01*
X185077200Y-187671485D01*
X185148628Y-187528628D01*
X185220057Y-187457200D01*
X185362914Y-187385771D01*
X185648628Y-187385771D01*
X185791485Y-187457200D01*
X187077200Y-188385771D02*
X187077200Y-187600057D01*
X187005771Y-187457200D01*
X186862914Y-187385771D01*
X186577200Y-187385771D01*
X186434342Y-187457200D01*
X187077200Y-188314342D02*
X186934342Y-188385771D01*
X186577200Y-188385771D01*
X186434342Y-188314342D01*
X186362914Y-188171485D01*
X186362914Y-188028628D01*
X186434342Y-187885771D01*
X186577200Y-187814342D01*
X186934342Y-187814342D01*
X187077200Y-187742914D01*
X187791485Y-187385771D02*
X187791485Y-188385771D01*
X187791485Y-187528628D02*
X187862914Y-187457200D01*
X188005771Y-187385771D01*
X188220057Y-187385771D01*
X188362914Y-187457200D01*
X188434342Y-187600057D01*
X188434342Y-188385771D01*
X189791485Y-188385771D02*
X189791485Y-186885771D01*
X189791485Y-188314342D02*
X189648628Y-188385771D01*
X189362914Y-188385771D01*
X189220057Y-188314342D01*
X189148628Y-188242914D01*
X189077200Y-188100057D01*
X189077200Y-187671485D01*
X189148628Y-187528628D01*
X189220057Y-187457200D01*
X189362914Y-187385771D01*
X189648628Y-187385771D01*
X189791485Y-187457200D01*
X190720057Y-188385771D02*
X190577200Y-188314342D01*
X190505771Y-188171485D01*
X190505771Y-186885771D01*
X191862914Y-188314342D02*
X191720057Y-188385771D01*
X191434342Y-188385771D01*
X191291485Y-188314342D01*
X191220057Y-188171485D01*
X191220057Y-187600057D01*
X191291485Y-187457200D01*
X191434342Y-187385771D01*
X191720057Y-187385771D01*
X191862914Y-187457200D01*
X191934342Y-187600057D01*
X191934342Y-187742914D01*
X191220057Y-187885771D01*
X192791485Y-188385771D02*
X192648628Y-188314342D01*
X192577200Y-188171485D01*
X192577200Y-186885771D01*
X193362914Y-188385771D02*
X193362914Y-187385771D01*
X193362914Y-186885771D02*
X193291485Y-186957200D01*
X193362914Y-187028628D01*
X193434342Y-186957200D01*
X193362914Y-186885771D01*
X193362914Y-187028628D01*
X194720057Y-187385771D02*
X194720057Y-188600057D01*
X194648628Y-188742914D01*
X194577200Y-188814342D01*
X194434342Y-188885771D01*
X194220057Y-188885771D01*
X194077200Y-188814342D01*
X194720057Y-188314342D02*
X194577200Y-188385771D01*
X194291485Y-188385771D01*
X194148628Y-188314342D01*
X194077200Y-188242914D01*
X194005771Y-188100057D01*
X194005771Y-187671485D01*
X194077200Y-187528628D01*
X194148628Y-187457200D01*
X194291485Y-187385771D01*
X194577200Y-187385771D01*
X194720057Y-187457200D01*
X195434342Y-188385771D02*
X195434342Y-186885771D01*
X196077200Y-188385771D02*
X196077200Y-187600057D01*
X196005771Y-187457200D01*
X195862914Y-187385771D01*
X195648628Y-187385771D01*
X195505771Y-187457200D01*
X195434342Y-187528628D01*
X196577200Y-187385771D02*
X197148628Y-187385771D01*
X196791485Y-186885771D02*
X196791485Y-188171485D01*
X196862914Y-188314342D01*
X197005771Y-188385771D01*
X197148628Y-188385771D01*
X197648628Y-187814342D02*
X198791485Y-187814342D01*
X199505771Y-188385771D02*
X199505771Y-186885771D01*
X200077200Y-186885771D01*
X200220057Y-186957200D01*
X200291485Y-187028628D01*
X200362914Y-187171485D01*
X200362914Y-187385771D01*
X200291485Y-187528628D01*
X200220057Y-187600057D01*
X200077200Y-187671485D01*
X199505771Y-187671485D01*
X201291485Y-186885771D02*
X201434342Y-186885771D01*
X201577200Y-186957200D01*
X201648628Y-187028628D01*
X201720057Y-187171485D01*
X201791485Y-187457200D01*
X201791485Y-187814342D01*
X201720057Y-188100057D01*
X201648628Y-188242914D01*
X201577200Y-188314342D01*
X201434342Y-188385771D01*
X201291485Y-188385771D01*
X201148628Y-188314342D01*
X201077200Y-188242914D01*
X201005771Y-188100057D01*
X200934342Y-187814342D01*
X200934342Y-187457200D01*
X201005771Y-187171485D01*
X201077200Y-187028628D01*
X201148628Y-186957200D01*
X201291485Y-186885771D01*
X203220057Y-188385771D02*
X202362914Y-188385771D01*
X202791485Y-188385771D02*
X202791485Y-186885771D01*
X202648628Y-187100057D01*
X202505771Y-187242914D01*
X202362914Y-187314342D01*
X203862914Y-187814342D02*
X205005771Y-187814342D01*
X206577200Y-188385771D02*
X206077200Y-187671485D01*
X205720057Y-188385771D02*
X205720057Y-186885771D01*
X206291485Y-186885771D01*
X206434342Y-186957200D01*
X206505771Y-187028628D01*
X206577200Y-187171485D01*
X206577200Y-187385771D01*
X206505771Y-187528628D01*
X206434342Y-187600057D01*
X206291485Y-187671485D01*
X205720057Y-187671485D01*
X207505771Y-186885771D02*
X207648628Y-186885771D01*
X207791485Y-186957200D01*
X207862914Y-187028628D01*
X207934342Y-187171485D01*
X208005771Y-187457200D01*
X208005771Y-187814342D01*
X207934342Y-188100057D01*
X207862914Y-188242914D01*
X207791485Y-188314342D01*
X207648628Y-188385771D01*
X207505771Y-188385771D01*
X207362914Y-188314342D01*
X207291485Y-188242914D01*
X207220057Y-188100057D01*
X207148628Y-187814342D01*
X207148628Y-187457200D01*
X207220057Y-187171485D01*
X207291485Y-187028628D01*
X207362914Y-186957200D01*
X207505771Y-186885771D01*
X209434342Y-188385771D02*
X208577200Y-188385771D01*
X209005771Y-188385771D02*
X209005771Y-186885771D01*
X208862914Y-187100057D01*
X208720057Y-187242914D01*
X208577200Y-187314342D01*
X210077200Y-187814342D02*
X211220057Y-187814342D01*
X212434342Y-187600057D02*
X212648628Y-187671485D01*
X212720057Y-187742914D01*
X212791485Y-187885771D01*
X212791485Y-188100057D01*
X212720057Y-188242914D01*
X212648628Y-188314342D01*
X212505771Y-188385771D01*
X211934342Y-188385771D01*
X211934342Y-186885771D01*
X212434342Y-186885771D01*
X212577200Y-186957200D01*
X212648628Y-187028628D01*
X212720057Y-187171485D01*
X212720057Y-187314342D01*
X212648628Y-187457200D01*
X212577200Y-187528628D01*
X212434342Y-187600057D01*
X211934342Y-187600057D01*
X213720057Y-186885771D02*
X213862914Y-186885771D01*
X214005771Y-186957200D01*
X214077200Y-187028628D01*
X214148628Y-187171485D01*
X214220057Y-187457200D01*
X214220057Y-187814342D01*
X214148628Y-188100057D01*
X214077200Y-188242914D01*
X214005771Y-188314342D01*
X213862914Y-188385771D01*
X213720057Y-188385771D01*
X213577200Y-188314342D01*
X213505771Y-188242914D01*
X213434342Y-188100057D01*
X213362914Y-187814342D01*
X213362914Y-187457200D01*
X213434342Y-187171485D01*
X213505771Y-187028628D01*
X213577200Y-186957200D01*
X213720057Y-186885771D01*
X215648628Y-188385771D02*
X214791485Y-188385771D01*
X215220057Y-188385771D02*
X215220057Y-186885771D01*
X215077200Y-187100057D01*
X214934342Y-187242914D01*
X214791485Y-187314342D01*
X216291485Y-187814342D02*
X217434342Y-187814342D01*
X219005771Y-188242914D02*
X218934342Y-188314342D01*
X218720057Y-188385771D01*
X218577200Y-188385771D01*
X218362914Y-188314342D01*
X218220057Y-188171485D01*
X218148628Y-188028628D01*
X218077200Y-187742914D01*
X218077200Y-187528628D01*
X218148628Y-187242914D01*
X218220057Y-187100057D01*
X218362914Y-186957200D01*
X218577200Y-186885771D01*
X218720057Y-186885771D01*
X218934342Y-186957200D01*
X219005771Y-187028628D01*
X219934342Y-186885771D02*
X220077200Y-186885771D01*
X220220057Y-186957200D01*
X220291485Y-187028628D01*
X220362914Y-187171485D01*
X220434342Y-187457200D01*
X220434342Y-187814342D01*
X220362914Y-188100057D01*
X220291485Y-188242914D01*
X220220057Y-188314342D01*
X220077200Y-188385771D01*
X219934342Y-188385771D01*
X219791485Y-188314342D01*
X219720057Y-188242914D01*
X219648628Y-188100057D01*
X219577200Y-187814342D01*
X219577200Y-187457200D01*
X219648628Y-187171485D01*
X219720057Y-187028628D01*
X219791485Y-186957200D01*
X219934342Y-186885771D01*
X221362914Y-186885771D02*
X221505771Y-186885771D01*
X221648628Y-186957200D01*
X221720057Y-187028628D01*
X221791485Y-187171485D01*
X221862914Y-187457200D01*
X221862914Y-187814342D01*
X221791485Y-188100057D01*
X221720057Y-188242914D01*
X221648628Y-188314342D01*
X221505771Y-188385771D01*
X221362914Y-188385771D01*
X221220057Y-188314342D01*
X221148628Y-188242914D01*
X221077200Y-188100057D01*
X221005771Y-187814342D01*
X221005771Y-187457200D01*
X221077200Y-187171485D01*
X221148628Y-187028628D01*
X221220057Y-186957200D01*
X221362914Y-186885771D01*
D10*
D11*
X177002200Y-196507200D02*
X287002200Y-196507200D01*
D10*
D11*
X178434342Y-198585771D02*
X178434342Y-197085771D01*
X179291485Y-198585771D02*
X178648628Y-197728628D01*
X179291485Y-197085771D02*
X178434342Y-197942914D01*
X179934342Y-198585771D02*
X179934342Y-197585771D01*
X179934342Y-197085771D02*
X179862914Y-197157200D01*
X179934342Y-197228628D01*
X180005771Y-197157200D01*
X179934342Y-197085771D01*
X179934342Y-197228628D01*
X181505771Y-198442914D02*
X181434342Y-198514342D01*
X181220057Y-198585771D01*
X181077200Y-198585771D01*
X180862914Y-198514342D01*
X180720057Y-198371485D01*
X180648628Y-198228628D01*
X180577200Y-197942914D01*
X180577200Y-197728628D01*
X180648628Y-197442914D01*
X180720057Y-197300057D01*
X180862914Y-197157200D01*
X181077200Y-197085771D01*
X181220057Y-197085771D01*
X181434342Y-197157200D01*
X181505771Y-197228628D01*
X182791485Y-198585771D02*
X182791485Y-197800057D01*
X182720057Y-197657200D01*
X182577200Y-197585771D01*
X182291485Y-197585771D01*
X182148628Y-197657200D01*
X182791485Y-198514342D02*
X182648628Y-198585771D01*
X182291485Y-198585771D01*
X182148628Y-198514342D01*
X182077200Y-198371485D01*
X182077200Y-198228628D01*
X182148628Y-198085771D01*
X182291485Y-198014342D01*
X182648628Y-198014342D01*
X182791485Y-197942914D01*
X184148628Y-198585771D02*
X184148628Y-197085771D01*
X184148628Y-198514342D02*
X184005771Y-198585771D01*
X183720057Y-198585771D01*
X183577200Y-198514342D01*
X183505771Y-198442914D01*
X183434342Y-198300057D01*
X183434342Y-197871485D01*
X183505771Y-197728628D01*
X183577200Y-197657200D01*
X183720057Y-197585771D01*
X184005771Y-197585771D01*
X184148628Y-197657200D01*
X186005771Y-197800057D02*
X186505771Y-197800057D01*
X186720057Y-198585771D02*
X186005771Y-198585771D01*
X186005771Y-197085771D01*
X186720057Y-197085771D01*
X187362914Y-198442914D02*
X187434342Y-198514342D01*
X187362914Y-198585771D01*
X187291485Y-198514342D01*
X187362914Y-198442914D01*
X187362914Y-198585771D01*
X188077200Y-198585771D02*
X188077200Y-197085771D01*
X188434342Y-197085771D01*
X188648628Y-197157200D01*
X188791485Y-197300057D01*
X188862914Y-197442914D01*
X188934342Y-197728628D01*
X188934342Y-197942914D01*
X188862914Y-198228628D01*
X188791485Y-198371485D01*
X188648628Y-198514342D01*
X188434342Y-198585771D01*
X188077200Y-198585771D01*
X189577200Y-198442914D02*
X189648628Y-198514342D01*
X189577200Y-198585771D01*
X189505771Y-198514342D01*
X189577200Y-198442914D01*
X189577200Y-198585771D01*
X190220057Y-198157200D02*
X190934342Y-198157200D01*
X190077200Y-198585771D02*
X190577200Y-197085771D01*
X191077200Y-198585771D01*
X191577200Y-198442914D02*
X191648628Y-198514342D01*
X191577200Y-198585771D01*
X191505771Y-198514342D01*
X191577200Y-198442914D01*
X191577200Y-198585771D01*
D10*
D11*
X177002200Y-193507200D02*
X287002200Y-193507200D01*
D10*
D12*
X266411485Y-195785771D02*
X265911485Y-195071485D01*
X265554342Y-195785771D02*
X265554342Y-194285771D01*
X266125771Y-194285771D01*
X266268628Y-194357200D01*
X266340057Y-194428628D01*
X266411485Y-194571485D01*
X266411485Y-194785771D01*
X266340057Y-194928628D01*
X266268628Y-195000057D01*
X266125771Y-195071485D01*
X265554342Y-195071485D01*
X267625771Y-195714342D02*
X267482914Y-195785771D01*
X267197200Y-195785771D01*
X267054342Y-195714342D01*
X266982914Y-195571485D01*
X266982914Y-195000057D01*
X267054342Y-194857200D01*
X267197200Y-194785771D01*
X267482914Y-194785771D01*
X267625771Y-194857200D01*
X267697200Y-195000057D01*
X267697200Y-195142914D01*
X266982914Y-195285771D01*
X268197200Y-194785771D02*
X268554342Y-195785771D01*
X268911485Y-194785771D01*
X269482914Y-195642914D02*
X269554342Y-195714342D01*
X269482914Y-195785771D01*
X269411485Y-195714342D01*
X269482914Y-195642914D01*
X269482914Y-195785771D01*
X269482914Y-194857200D02*
X269554342Y-194928628D01*
X269482914Y-195000057D01*
X269411485Y-194928628D01*
X269482914Y-194857200D01*
X269482914Y-195000057D01*
X272197200Y-195785771D02*
X271697200Y-195071485D01*
X271340057Y-195785771D02*
X271340057Y-194285771D01*
X271911485Y-194285771D01*
X272054342Y-194357200D01*
X272125771Y-194428628D01*
X272197200Y-194571485D01*
X272197200Y-194785771D01*
X272125771Y-194928628D01*
X272054342Y-195000057D01*
X271911485Y-195071485D01*
X271340057Y-195071485D01*
X273125771Y-194285771D02*
X273268628Y-194285771D01*
X273411485Y-194357200D01*
X273482914Y-194428628D01*
X273554342Y-194571485D01*
X273625771Y-194857200D01*
X273625771Y-195214342D01*
X273554342Y-195500057D01*
X273482914Y-195642914D01*
X273411485Y-195714342D01*
X273268628Y-195785771D01*
X273125771Y-195785771D01*
X272982914Y-195714342D01*
X272911485Y-195642914D01*
X272840057Y-195500057D01*
X272768628Y-195214342D01*
X272768628Y-194857200D01*
X272840057Y-194571485D01*
X272911485Y-194428628D01*
X272982914Y-194357200D01*
X273125771Y-194285771D01*
X275054342Y-195785771D02*
X274197200Y-195785771D01*
X274625771Y-195785771D02*
X274625771Y-194285771D01*
X274482914Y-194500057D01*
X274340057Y-194642914D01*
X274197200Y-194714342D01*
D10*
D11*
X178362914Y-195714342D02*
X178577200Y-195785771D01*
X178934342Y-195785771D01*
X179077200Y-195714342D01*
X179148628Y-195642914D01*
X179220057Y-195500057D01*
X179220057Y-195357200D01*
X179148628Y-195214342D01*
X179077200Y-195142914D01*
X178934342Y-195071485D01*
X178648628Y-195000057D01*
X178505771Y-194928628D01*
X178434342Y-194857200D01*
X178362914Y-194714342D01*
X178362914Y-194571485D01*
X178434342Y-194428628D01*
X178505771Y-194357200D01*
X178648628Y-194285771D01*
X179005771Y-194285771D01*
X179220057Y-194357200D01*
X179862914Y-195785771D02*
X179862914Y-194785771D01*
X179862914Y-194285771D02*
X179791485Y-194357200D01*
X179862914Y-194428628D01*
X179934342Y-194357200D01*
X179862914Y-194285771D01*
X179862914Y-194428628D01*
X180434342Y-194785771D02*
X181220057Y-194785771D01*
X180434342Y-195785771D01*
X181220057Y-195785771D01*
X182362914Y-195714342D02*
X182220057Y-195785771D01*
X181934342Y-195785771D01*
X181791485Y-195714342D01*
X181720057Y-195571485D01*
X181720057Y-195000057D01*
X181791485Y-194857200D01*
X181934342Y-194785771D01*
X182220057Y-194785771D01*
X182362914Y-194857200D01*
X182434342Y-195000057D01*
X182434342Y-195142914D01*
X181720057Y-195285771D01*
X183077200Y-195642914D02*
X183148628Y-195714342D01*
X183077200Y-195785771D01*
X183005771Y-195714342D01*
X183077200Y-195642914D01*
X183077200Y-195785771D01*
X183077200Y-194857200D02*
X183148628Y-194928628D01*
X183077200Y-195000057D01*
X183005771Y-194928628D01*
X183077200Y-194857200D01*
X183077200Y-195000057D01*
X184862914Y-195357200D02*
X185577200Y-195357200D01*
X184720057Y-195785771D02*
X185220057Y-194285771D01*
X185720057Y-195785771D01*
X186862914Y-194785771D02*
X186862914Y-195785771D01*
X186505771Y-194214342D02*
X186148628Y-195285771D01*
X187077200Y-195285771D01*
D10*
D11*
X265362914Y-198514342D02*
X265577200Y-198585771D01*
X265934342Y-198585771D01*
X266077200Y-198514342D01*
X266148628Y-198442914D01*
X266220057Y-198300057D01*
X266220057Y-198157200D01*
X266148628Y-198014342D01*
X266077200Y-197942914D01*
X265934342Y-197871485D01*
X265648628Y-197800057D01*
X265505771Y-197728628D01*
X265434342Y-197657200D01*
X265362914Y-197514342D01*
X265362914Y-197371485D01*
X265434342Y-197228628D01*
X265505771Y-197157200D01*
X265648628Y-197085771D01*
X266005771Y-197085771D01*
X266220057Y-197157200D01*
X266862914Y-198585771D02*
X266862914Y-197085771D01*
X267505771Y-198585771D02*
X267505771Y-197800057D01*
X267434342Y-197657200D01*
X267291485Y-197585771D01*
X267077200Y-197585771D01*
X266934342Y-197657200D01*
X266862914Y-197728628D01*
X268791485Y-198514342D02*
X268648628Y-198585771D01*
X268362914Y-198585771D01*
X268220057Y-198514342D01*
X268148628Y-198371485D01*
X268148628Y-197800057D01*
X268220057Y-197657200D01*
X268362914Y-197585771D01*
X268648628Y-197585771D01*
X268791485Y-197657200D01*
X268862914Y-197800057D01*
X268862914Y-197942914D01*
X268148628Y-198085771D01*
X270077200Y-198514342D02*
X269934342Y-198585771D01*
X269648628Y-198585771D01*
X269505771Y-198514342D01*
X269434342Y-198371485D01*
X269434342Y-197800057D01*
X269505771Y-197657200D01*
X269648628Y-197585771D01*
X269934342Y-197585771D01*
X270077200Y-197657200D01*
X270148628Y-197800057D01*
X270148628Y-197942914D01*
X269434342Y-198085771D01*
X270577200Y-197585771D02*
X271148628Y-197585771D01*
X270791485Y-197085771D02*
X270791485Y-198371485D01*
X270862914Y-198514342D01*
X271005771Y-198585771D01*
X271148628Y-198585771D01*
X273577200Y-198585771D02*
X272720057Y-198585771D01*
X273148628Y-198585771D02*
X273148628Y-197085771D01*
X273005771Y-197300057D01*
X272862914Y-197442914D01*
X272720057Y-197514342D01*
X275291485Y-197014342D02*
X274005771Y-198942914D01*
X276577200Y-198585771D02*
X275720057Y-198585771D01*
X276148628Y-198585771D02*
X276148628Y-197085771D01*
X276005771Y-197300057D01*
X275862914Y-197442914D01*
X275720057Y-197514342D01*
D10*
D11*
X177002200Y-189507200D02*
X287002200Y-189507200D01*
D10*
D13*
X178452676Y-190211961D02*
X179595533Y-190211961D01*
X179024104Y-192211961D02*
X179024104Y-190211961D01*
X180262200Y-192211961D02*
X180262200Y-190878628D01*
X180262200Y-190211961D02*
X180166961Y-190307200D01*
X180262200Y-190402438D01*
X180357438Y-190307200D01*
X180262200Y-190211961D01*
X180262200Y-190402438D01*
X180928866Y-190878628D02*
X181690771Y-190878628D01*
X181214580Y-190211961D02*
X181214580Y-191926247D01*
X181309819Y-192116723D01*
X181500295Y-192211961D01*
X181690771Y-192211961D01*
X182643152Y-192211961D02*
X182452676Y-192116723D01*
X182357438Y-191926247D01*
X182357438Y-190211961D01*
X184166961Y-192116723D02*
X183976485Y-192211961D01*
X183595533Y-192211961D01*
X183405057Y-192116723D01*
X183309819Y-191926247D01*
X183309819Y-191164342D01*
X183405057Y-190973866D01*
X183595533Y-190878628D01*
X183976485Y-190878628D01*
X184166961Y-190973866D01*
X184262200Y-191164342D01*
X184262200Y-191354819D01*
X183309819Y-191545295D01*
X185119342Y-192021485D02*
X185214580Y-192116723D01*
X185119342Y-192211961D01*
X185024104Y-192116723D01*
X185119342Y-192021485D01*
X185119342Y-192211961D01*
X185119342Y-190973866D02*
X185214580Y-191069104D01*
X185119342Y-191164342D01*
X185024104Y-191069104D01*
X185119342Y-190973866D01*
X185119342Y-191164342D01*
X188452676Y-192116723D02*
X188262200Y-192211961D01*
X187881247Y-192211961D01*
X187690771Y-192116723D01*
X187595533Y-192021485D01*
X187500295Y-191831009D01*
X187500295Y-191259580D01*
X187595533Y-191069104D01*
X187690771Y-190973866D01*
X187881247Y-190878628D01*
X188262200Y-190878628D01*
X188452676Y-190973866D01*
X190166961Y-192211961D02*
X190166961Y-191164342D01*
X190071723Y-190973866D01*
X189881247Y-190878628D01*
X189500295Y-190878628D01*
X189309819Y-190973866D01*
X190166961Y-192116723D02*
X189976485Y-192211961D01*
X189500295Y-192211961D01*
X189309819Y-192116723D01*
X189214580Y-191926247D01*
X189214580Y-191735771D01*
X189309819Y-191545295D01*
X189500295Y-191450057D01*
X189976485Y-191450057D01*
X190166961Y-191354819D01*
X191119342Y-190878628D02*
X191119342Y-192211961D01*
X191119342Y-191069104D02*
X191214580Y-190973866D01*
X191405057Y-190878628D01*
X191690771Y-190878628D01*
X191881247Y-190973866D01*
X191976485Y-191164342D01*
X191976485Y-192211961D01*
X193786009Y-192211961D02*
X193786009Y-190211961D01*
X193786009Y-192116723D02*
X193595533Y-192211961D01*
X193214580Y-192211961D01*
X193024104Y-192116723D01*
X192928866Y-192021485D01*
X192833628Y-191831009D01*
X192833628Y-191259580D01*
X192928866Y-191069104D01*
X193024104Y-190973866D01*
X193214580Y-190878628D01*
X193595533Y-190878628D01*
X193786009Y-190973866D01*
X195024104Y-192211961D02*
X194833628Y-192116723D01*
X194738390Y-191926247D01*
X194738390Y-190211961D01*
X196547914Y-192116723D02*
X196357438Y-192211961D01*
X195976485Y-192211961D01*
X195786009Y-192116723D01*
X195690771Y-191926247D01*
X195690771Y-191164342D01*
X195786009Y-190973866D01*
X195976485Y-190878628D01*
X196357438Y-190878628D01*
X196547914Y-190973866D01*
X196643152Y-191164342D01*
X196643152Y-191354819D01*
X195690771Y-191545295D01*
X198452676Y-192211961D02*
X197500295Y-192211961D01*
X197500295Y-190211961D01*
X199119342Y-192211961D02*
X199119342Y-190878628D01*
X199119342Y-190211961D02*
X199024104Y-190307200D01*
X199119342Y-190402438D01*
X199214580Y-190307200D01*
X199119342Y-190211961D01*
X199119342Y-190402438D01*
X200928866Y-190878628D02*
X200928866Y-192497676D01*
X200833628Y-192688152D01*
X200738390Y-192783390D01*
X200547914Y-192878628D01*
X200262200Y-192878628D01*
X200071723Y-192783390D01*
X200928866Y-192116723D02*
X200738390Y-192211961D01*
X200357438Y-192211961D01*
X200166961Y-192116723D01*
X200071723Y-192021485D01*
X199976485Y-191831009D01*
X199976485Y-191259580D01*
X200071723Y-191069104D01*
X200166961Y-190973866D01*
X200357438Y-190878628D01*
X200738390Y-190878628D01*
X200928866Y-190973866D01*
X201881247Y-192211961D02*
X201881247Y-190211961D01*
X202738390Y-192211961D02*
X202738390Y-191164342D01*
X202643152Y-190973866D01*
X202452676Y-190878628D01*
X202166961Y-190878628D01*
X201976485Y-190973866D01*
X201881247Y-191069104D01*
X203405057Y-190878628D02*
X204166961Y-190878628D01*
X203690771Y-190211961D02*
X203690771Y-191926247D01*
X203786009Y-192116723D01*
X203976485Y-192211961D01*
X204166961Y-192211961D01*
D10*
D11*
X177002200Y-183507200D02*
X287002200Y-183507200D01*
D10*
D11*
X178934342Y-184900057D02*
X178434342Y-184900057D01*
X178434342Y-185685771D02*
X178434342Y-184185771D01*
X179148628Y-184185771D01*
X180362914Y-184685771D02*
X180362914Y-185685771D01*
X179720057Y-184685771D02*
X179720057Y-185471485D01*
X179791485Y-185614342D01*
X179934342Y-185685771D01*
X180148628Y-185685771D01*
X180291485Y-185614342D01*
X180362914Y-185542914D01*
X181077200Y-185685771D02*
X181077200Y-184685771D01*
X181077200Y-184971485D02*
X181148628Y-184828628D01*
X181220057Y-184757200D01*
X181362914Y-184685771D01*
X181505771Y-184685771D01*
X181791485Y-184685771D02*
X182362914Y-184685771D01*
X182005771Y-184185771D02*
X182005771Y-185471485D01*
X182077200Y-185614342D01*
X182220057Y-185685771D01*
X182362914Y-185685771D01*
X182862914Y-185685771D02*
X182862914Y-184185771D01*
X183505771Y-185685771D02*
X183505771Y-184900057D01*
X183434342Y-184757200D01*
X183291485Y-184685771D01*
X183077200Y-184685771D01*
X182934342Y-184757200D01*
X182862914Y-184828628D01*
X184791485Y-185614342D02*
X184648628Y-185685771D01*
X184362914Y-185685771D01*
X184220057Y-185614342D01*
X184148628Y-185471485D01*
X184148628Y-184900057D01*
X184220057Y-184757200D01*
X184362914Y-184685771D01*
X184648628Y-184685771D01*
X184791485Y-184757200D01*
X184862914Y-184900057D01*
X184862914Y-185042914D01*
X184148628Y-185185771D01*
X185505771Y-185685771D02*
X185505771Y-184685771D01*
X185505771Y-184971485D02*
X185577200Y-184828628D01*
X185648628Y-184757200D01*
X185791485Y-184685771D01*
X185934342Y-184685771D01*
X187505771Y-185614342D02*
X187720057Y-185685771D01*
X188077200Y-185685771D01*
X188220057Y-185614342D01*
X188291485Y-185542914D01*
X188362914Y-185400057D01*
X188362914Y-185257200D01*
X188291485Y-185114342D01*
X188220057Y-185042914D01*
X188077200Y-184971485D01*
X187791485Y-184900057D01*
X187648628Y-184828628D01*
X187577200Y-184757200D01*
X187505771Y-184614342D01*
X187505771Y-184471485D01*
X187577200Y-184328628D01*
X187648628Y-184257200D01*
X187791485Y-184185771D01*
X188148628Y-184185771D01*
X188362914Y-184257200D01*
X189005771Y-184685771D02*
X189005771Y-186185771D01*
X189005771Y-184757200D02*
X189148628Y-184685771D01*
X189434342Y-184685771D01*
X189577200Y-184757200D01*
X189648628Y-184828628D01*
X189720057Y-184971485D01*
X189720057Y-185400057D01*
X189648628Y-185542914D01*
X189577200Y-185614342D01*
X189434342Y-185685771D01*
X189148628Y-185685771D01*
X189005771Y-185614342D01*
X190934342Y-185614342D02*
X190791485Y-185685771D01*
X190505771Y-185685771D01*
X190362914Y-185614342D01*
X190291485Y-185471485D01*
X190291485Y-184900057D01*
X190362914Y-184757200D01*
X190505771Y-184685771D01*
X190791485Y-184685771D01*
X190934342Y-184757200D01*
X191005771Y-184900057D01*
X191005771Y-185042914D01*
X190291485Y-185185771D01*
X192291485Y-185614342D02*
X192148628Y-185685771D01*
X191862914Y-185685771D01*
X191720057Y-185614342D01*
X191648628Y-185542914D01*
X191577200Y-185400057D01*
X191577200Y-184971485D01*
X191648628Y-184828628D01*
X191720057Y-184757200D01*
X191862914Y-184685771D01*
X192148628Y-184685771D01*
X192291485Y-184757200D01*
X192934342Y-185685771D02*
X192934342Y-184685771D01*
X192934342Y-184185771D02*
X192862914Y-184257200D01*
X192934342Y-184328628D01*
X193005771Y-184257200D01*
X192934342Y-184185771D01*
X192934342Y-184328628D01*
X193434342Y-184685771D02*
X194005771Y-184685771D01*
X193648628Y-185685771D02*
X193648628Y-184400057D01*
X193720057Y-184257200D01*
X193862914Y-184185771D01*
X194005771Y-184185771D01*
X194505771Y-185685771D02*
X194505771Y-184685771D01*
X194505771Y-184185771D02*
X194434342Y-184257200D01*
X194505771Y-184328628D01*
X194577200Y-184257200D01*
X194505771Y-184185771D01*
X194505771Y-184328628D01*
X195862914Y-185614342D02*
X195720057Y-185685771D01*
X195434342Y-185685771D01*
X195291485Y-185614342D01*
X195220057Y-185542914D01*
X195148628Y-185400057D01*
X195148628Y-184971485D01*
X195220057Y-184828628D01*
X195291485Y-184757200D01*
X195434342Y-184685771D01*
X195720057Y-184685771D01*
X195862914Y-184757200D01*
X197148628Y-185685771D02*
X197148628Y-184900057D01*
X197077200Y-184757200D01*
X196934342Y-184685771D01*
X196648628Y-184685771D01*
X196505771Y-184757200D01*
X197148628Y-185614342D02*
X197005771Y-185685771D01*
X196648628Y-185685771D01*
X196505771Y-185614342D01*
X196434342Y-185471485D01*
X196434342Y-185328628D01*
X196505771Y-185185771D01*
X196648628Y-185114342D01*
X197005771Y-185114342D01*
X197148628Y-185042914D01*
X197648628Y-184685771D02*
X198220057Y-184685771D01*
X197862914Y-184185771D02*
X197862914Y-185471485D01*
X197934342Y-185614342D01*
X198077200Y-185685771D01*
X198220057Y-185685771D01*
X198720057Y-185685771D02*
X198720057Y-184685771D01*
X198720057Y-184185771D02*
X198648628Y-184257200D01*
X198720057Y-184328628D01*
X198791485Y-184257200D01*
X198720057Y-184185771D01*
X198720057Y-184328628D01*
X199648628Y-185685771D02*
X199505771Y-185614342D01*
X199434342Y-185542914D01*
X199362914Y-185400057D01*
X199362914Y-184971485D01*
X199434342Y-184828628D01*
X199505771Y-184757200D01*
X199648628Y-184685771D01*
X199862914Y-184685771D01*
X200005771Y-184757200D01*
X200077200Y-184828628D01*
X200148628Y-184971485D01*
X200148628Y-185400057D01*
X200077200Y-185542914D01*
X200005771Y-185614342D01*
X199862914Y-185685771D01*
X199648628Y-185685771D01*
X200791485Y-184685771D02*
X200791485Y-185685771D01*
X200791485Y-184828628D02*
X200862914Y-184757200D01*
X201005771Y-184685771D01*
X201220057Y-184685771D01*
X201362914Y-184757200D01*
X201434342Y-184900057D01*
X201434342Y-185685771D01*
X202077200Y-185614342D02*
X202220057Y-185685771D01*
X202505771Y-185685771D01*
X202648628Y-185614342D01*
X202720057Y-185471485D01*
X202720057Y-185400057D01*
X202648628Y-185257200D01*
X202505771Y-185185771D01*
X202291485Y-185185771D01*
X202148628Y-185114342D01*
X202077200Y-184971485D01*
X202077200Y-184900057D01*
X202148628Y-184757200D01*
X202291485Y-184685771D01*
X202505771Y-184685771D01*
X202648628Y-184757200D01*
X203362914Y-185542914D02*
X203434342Y-185614342D01*
X203362914Y-185685771D01*
X203291485Y-185614342D01*
X203362914Y-185542914D01*
X203362914Y-185685771D01*
X203362914Y-184757200D02*
X203434342Y-184828628D01*
X203362914Y-184900057D01*
X203291485Y-184828628D01*
X203362914Y-184757200D01*
X203362914Y-184900057D01*
X205148628Y-185614342D02*
X205362914Y-185685771D01*
X205720057Y-185685771D01*
X205862914Y-185614342D01*
X205934342Y-185542914D01*
X206005771Y-185400057D01*
X206005771Y-185257200D01*
X205934342Y-185114342D01*
X205862914Y-185042914D01*
X205720057Y-184971485D01*
X205434342Y-184900057D01*
X205291485Y-184828628D01*
X205220057Y-184757200D01*
X205148628Y-184614342D01*
X205148628Y-184471485D01*
X205220057Y-184328628D01*
X205291485Y-184257200D01*
X205434342Y-184185771D01*
X205791485Y-184185771D01*
X206005771Y-184257200D01*
X207220057Y-185614342D02*
X207077200Y-185685771D01*
X206791485Y-185685771D01*
X206648628Y-185614342D01*
X206577200Y-185471485D01*
X206577200Y-184900057D01*
X206648628Y-184757200D01*
X206791485Y-184685771D01*
X207077200Y-184685771D01*
X207220057Y-184757200D01*
X207291485Y-184900057D01*
X207291485Y-185042914D01*
X206577200Y-185185771D01*
X208505771Y-185614342D02*
X208362914Y-185685771D01*
X208077200Y-185685771D01*
X207934342Y-185614342D01*
X207862914Y-185471485D01*
X207862914Y-184900057D01*
X207934342Y-184757200D01*
X208077200Y-184685771D01*
X208362914Y-184685771D01*
X208505771Y-184757200D01*
X208577200Y-184900057D01*
X208577200Y-185042914D01*
X207862914Y-185185771D01*
X211077200Y-185685771D02*
X210362914Y-185685771D01*
X210362914Y-184185771D01*
X212220057Y-185685771D02*
X212220057Y-184900057D01*
X212148628Y-184757200D01*
X212005771Y-184685771D01*
X211720057Y-184685771D01*
X211577200Y-184757200D01*
X212220057Y-185614342D02*
X212077200Y-185685771D01*
X211720057Y-185685771D01*
X211577200Y-185614342D01*
X211505771Y-185471485D01*
X211505771Y-185328628D01*
X211577200Y-185185771D01*
X211720057Y-185114342D01*
X212077200Y-185114342D01*
X212220057Y-185042914D01*
X212791485Y-184685771D02*
X213148628Y-185685771D01*
X213505771Y-184685771D02*
X213148628Y-185685771D01*
X213005771Y-186042914D01*
X212934342Y-186114342D01*
X212791485Y-186185771D01*
X214648628Y-185614342D02*
X214505771Y-185685771D01*
X214220057Y-185685771D01*
X214077200Y-185614342D01*
X214005771Y-185471485D01*
X214005771Y-184900057D01*
X214077200Y-184757200D01*
X214220057Y-184685771D01*
X214505771Y-184685771D01*
X214648628Y-184757200D01*
X214720057Y-184900057D01*
X214720057Y-185042914D01*
X214005771Y-185185771D01*
X215362914Y-185685771D02*
X215362914Y-184685771D01*
X215362914Y-184971485D02*
X215434342Y-184828628D01*
X215505771Y-184757200D01*
X215648628Y-184685771D01*
X215791485Y-184685771D01*
X216220057Y-185614342D02*
X216434342Y-185685771D01*
X216791485Y-185685771D01*
X216934342Y-185614342D01*
X217005771Y-185542914D01*
X217077200Y-185400057D01*
X217077200Y-185257200D01*
X217005771Y-185114342D01*
X216934342Y-185042914D01*
X216791485Y-184971485D01*
X216505771Y-184900057D01*
X216362914Y-184828628D01*
X216291485Y-184757200D01*
X216220057Y-184614342D01*
X216220057Y-184471485D01*
X216291485Y-184328628D01*
X216362914Y-184257200D01*
X216505771Y-184185771D01*
X216862914Y-184185771D01*
X217077200Y-184257200D01*
X217505771Y-184685771D02*
X218077200Y-184685771D01*
X217720057Y-184185771D02*
X217720057Y-185471485D01*
X217791485Y-185614342D01*
X217934342Y-185685771D01*
X218077200Y-185685771D01*
X219220057Y-185685771D02*
X219220057Y-184900057D01*
X219148628Y-184757200D01*
X219005771Y-184685771D01*
X218720057Y-184685771D01*
X218577200Y-184757200D01*
X219220057Y-185614342D02*
X219077200Y-185685771D01*
X218720057Y-185685771D01*
X218577200Y-185614342D01*
X218505771Y-185471485D01*
X218505771Y-185328628D01*
X218577200Y-185185771D01*
X218720057Y-185114342D01*
X219077200Y-185114342D01*
X219220057Y-185042914D01*
X220577200Y-185614342D02*
X220434342Y-185685771D01*
X220148628Y-185685771D01*
X220005771Y-185614342D01*
X219934342Y-185542914D01*
X219862914Y-185400057D01*
X219862914Y-184971485D01*
X219934342Y-184828628D01*
X220005771Y-184757200D01*
X220148628Y-184685771D01*
X220434342Y-184685771D01*
X220577200Y-184757200D01*
X221220057Y-185685771D02*
X221220057Y-184185771D01*
X221362914Y-185114342D02*
X221791485Y-185685771D01*
X221791485Y-184685771D02*
X221220057Y-185257200D01*
X222434342Y-185542914D02*
X222505771Y-185614342D01*
X222434342Y-185685771D01*
X222362914Y-185614342D01*
X222434342Y-185542914D01*
X222434342Y-185685771D01*
X222934342Y-184685771D02*
X223505771Y-184685771D01*
X223148628Y-184185771D02*
X223148628Y-185471485D01*
X223220057Y-185614342D01*
X223362914Y-185685771D01*
X223505771Y-185685771D01*
X223862914Y-185685771D02*
X224648628Y-184685771D01*
X223862914Y-184685771D02*
X224648628Y-185685771D01*
X225005771Y-184685771D02*
X225577200Y-184685771D01*
X225220057Y-184185771D02*
X225220057Y-185471485D01*
X225291485Y-185614342D01*
X225434342Y-185685771D01*
X225577200Y-185685771D01*
D10*
D12*
X179268628Y-182685771D02*
X178554342Y-182685771D01*
X178554342Y-181185771D01*
X179768628Y-182685771D02*
X179768628Y-181685771D01*
X179768628Y-181185771D02*
X179697200Y-181257200D01*
X179768628Y-181328628D01*
X179840057Y-181257200D01*
X179768628Y-181185771D01*
X179768628Y-181328628D01*
X180482914Y-181685771D02*
X180482914Y-182685771D01*
X180482914Y-181828628D02*
X180554342Y-181757200D01*
X180697200Y-181685771D01*
X180911485Y-181685771D01*
X181054342Y-181757200D01*
X181125771Y-181900057D01*
X181125771Y-182685771D01*
X182482914Y-181685771D02*
X182482914Y-182685771D01*
X181840057Y-181685771D02*
X181840057Y-182471485D01*
X181911485Y-182614342D01*
X182054342Y-182685771D01*
X182268628Y-182685771D01*
X182411485Y-182614342D01*
X182482914Y-182542914D01*
X183054342Y-182685771D02*
X183840057Y-181685771D01*
X183054342Y-181685771D02*
X183840057Y-182685771D01*
X185482914Y-182257200D02*
X186197200Y-182257200D01*
X185340057Y-182685771D02*
X185840057Y-181185771D01*
X186340057Y-182685771D01*
X187482914Y-181685771D02*
X187482914Y-182685771D01*
X186840057Y-181685771D02*
X186840057Y-182471485D01*
X186911485Y-182614342D01*
X187054342Y-182685771D01*
X187268628Y-182685771D01*
X187411485Y-182614342D01*
X187482914Y-182542914D01*
X187982914Y-181685771D02*
X188554342Y-181685771D01*
X188197200Y-181185771D02*
X188197200Y-182471485D01*
X188268628Y-182614342D01*
X188411485Y-182685771D01*
X188554342Y-182685771D01*
X189268628Y-182685771D02*
X189125771Y-182614342D01*
X189054342Y-182542914D01*
X188982914Y-182400057D01*
X188982914Y-181971485D01*
X189054342Y-181828628D01*
X189125771Y-181757200D01*
X189268628Y-181685771D01*
X189482914Y-181685771D01*
X189625771Y-181757200D01*
X189697200Y-181828628D01*
X189768628Y-181971485D01*
X189768628Y-182400057D01*
X189697200Y-182542914D01*
X189625771Y-182614342D01*
X189482914Y-182685771D01*
X189268628Y-182685771D01*
X190411485Y-182685771D02*
X190411485Y-181685771D01*
X190411485Y-181828628D02*
X190482914Y-181757200D01*
X190625771Y-181685771D01*
X190840057Y-181685771D01*
X190982914Y-181757200D01*
X191054342Y-181900057D01*
X191054342Y-182685771D01*
X191054342Y-181900057D02*
X191125771Y-181757200D01*
X191268628Y-181685771D01*
X191482914Y-181685771D01*
X191625771Y-181757200D01*
X191697200Y-181900057D01*
X191697200Y-182685771D01*
X193054342Y-182685771D02*
X193054342Y-181900057D01*
X192982914Y-181757200D01*
X192840057Y-181685771D01*
X192554342Y-181685771D01*
X192411485Y-181757200D01*
X193054342Y-182614342D02*
X192911485Y-182685771D01*
X192554342Y-182685771D01*
X192411485Y-182614342D01*
X192340057Y-182471485D01*
X192340057Y-182328628D01*
X192411485Y-182185771D01*
X192554342Y-182114342D01*
X192911485Y-182114342D01*
X193054342Y-182042914D01*
X193554342Y-181685771D02*
X194125771Y-181685771D01*
X193768628Y-181185771D02*
X193768628Y-182471485D01*
X193840057Y-182614342D01*
X193982914Y-182685771D01*
X194125771Y-182685771D01*
X194625771Y-182685771D02*
X194625771Y-181685771D01*
X194625771Y-181185771D02*
X194554342Y-181257200D01*
X194625771Y-181328628D01*
X194697200Y-181257200D01*
X194625771Y-181185771D01*
X194625771Y-181328628D01*
X195554342Y-182685771D02*
X195411485Y-182614342D01*
X195340057Y-182542914D01*
X195268628Y-182400057D01*
X195268628Y-181971485D01*
X195340057Y-181828628D01*
X195411485Y-181757200D01*
X195554342Y-181685771D01*
X195768628Y-181685771D01*
X195911485Y-181757200D01*
X195982914Y-181828628D01*
X196054342Y-181971485D01*
X196054342Y-182400057D01*
X195982914Y-182542914D01*
X195911485Y-182614342D01*
X195768628Y-182685771D01*
X195554342Y-182685771D01*
X196697200Y-181685771D02*
X196697200Y-182685771D01*
X196697200Y-181828628D02*
X196768628Y-181757200D01*
X196911485Y-181685771D01*
X197125771Y-181685771D01*
X197268628Y-181757200D01*
X197340057Y-181900057D01*
X197340057Y-182685771D01*
X199982914Y-181257200D02*
X199840057Y-181185771D01*
X199625771Y-181185771D01*
X199411485Y-181257200D01*
X199268628Y-181400057D01*
X199197200Y-181542914D01*
X199125771Y-181828628D01*
X199125771Y-182042914D01*
X199197200Y-182328628D01*
X199268628Y-182471485D01*
X199411485Y-182614342D01*
X199625771Y-182685771D01*
X199768628Y-182685771D01*
X199982914Y-182614342D01*
X200054342Y-182542914D01*
X200054342Y-182042914D01*
X199768628Y-182042914D01*
X200697200Y-182685771D02*
X200697200Y-181685771D01*
X200697200Y-181828628D02*
X200768628Y-181757200D01*
X200911485Y-181685771D01*
X201125771Y-181685771D01*
X201268628Y-181757200D01*
X201340057Y-181900057D01*
X201340057Y-182685771D01*
X201340057Y-181900057D02*
X201411485Y-181757200D01*
X201554342Y-181685771D01*
X201768628Y-181685771D01*
X201911485Y-181757200D01*
X201982914Y-181900057D01*
X201982914Y-182685771D01*
X202697200Y-182685771D02*
X202697200Y-181185771D01*
X202697200Y-181757200D02*
X202840057Y-181685771D01*
X203125771Y-181685771D01*
X203268628Y-181757200D01*
X203340057Y-181828628D01*
X203411485Y-181971485D01*
X203411485Y-182400057D01*
X203340057Y-182542914D01*
X203268628Y-182614342D01*
X203125771Y-182685771D01*
X202840057Y-182685771D01*
X202697200Y-182614342D01*
X204054342Y-182685771D02*
X204054342Y-181185771D01*
X204054342Y-181900057D02*
X204911485Y-181900057D01*
X204911485Y-182685771D02*
X204911485Y-181185771D01*
D10*
D11*
X201077200Y-197585771D02*
X201077200Y-198800057D01*
X201005771Y-198942914D01*
X200934342Y-199014342D01*
X200791485Y-199085771D01*
X200577200Y-199085771D01*
X200434342Y-199014342D01*
X201077200Y-198514342D02*
X200934342Y-198585771D01*
X200648628Y-198585771D01*
X200505771Y-198514342D01*
X200434342Y-198442914D01*
X200362914Y-198300057D01*
X200362914Y-197871485D01*
X200434342Y-197728628D01*
X200505771Y-197657200D01*
X200648628Y-197585771D01*
X200934342Y-197585771D01*
X201077200Y-197657200D01*
X201791485Y-198585771D02*
X201791485Y-197585771D01*
X201791485Y-197085771D02*
X201720057Y-197157200D01*
X201791485Y-197228628D01*
X201862914Y-197157200D01*
X201791485Y-197085771D01*
X201791485Y-197228628D01*
X202291485Y-197585771D02*
X202862914Y-197585771D01*
X202505771Y-197085771D02*
X202505771Y-198371485D01*
X202577200Y-198514342D01*
X202720057Y-198585771D01*
X202862914Y-198585771D01*
X203362914Y-198442914D02*
X203434342Y-198514342D01*
X203362914Y-198585771D01*
X203291485Y-198514342D01*
X203362914Y-198442914D01*
X203362914Y-198585771D01*
X203362914Y-197657200D02*
X203434342Y-197728628D01*
X203362914Y-197800057D01*
X203291485Y-197728628D01*
X203362914Y-197657200D01*
X203362914Y-197800057D01*
X205862914Y-197585771D02*
X205862914Y-198800057D01*
X205791485Y-198942914D01*
X205720057Y-199014342D01*
X205577200Y-199085771D01*
X205362914Y-199085771D01*
X205220057Y-199014342D01*
X205862914Y-198514342D02*
X205720057Y-198585771D01*
X205434342Y-198585771D01*
X205291485Y-198514342D01*
X205220057Y-198442914D01*
X205148628Y-198300057D01*
X205148628Y-197871485D01*
X205220057Y-197728628D01*
X205291485Y-197657200D01*
X205434342Y-197585771D01*
X205720057Y-197585771D01*
X205862914Y-197657200D01*
X206577200Y-198585771D02*
X206577200Y-197585771D01*
X206577200Y-197085771D02*
X206505771Y-197157200D01*
X206577200Y-197228628D01*
X206648628Y-197157200D01*
X206577200Y-197085771D01*
X206577200Y-197228628D01*
X207077200Y-197585771D02*
X207648628Y-197585771D01*
X207291485Y-197085771D02*
X207291485Y-198371485D01*
X207362914Y-198514342D01*
X207505771Y-198585771D01*
X207648628Y-198585771D01*
X208148628Y-198585771D02*
X208148628Y-197085771D01*
X208791485Y-198585771D02*
X208791485Y-197800057D01*
X208720057Y-197657200D01*
X208577200Y-197585771D01*
X208362914Y-197585771D01*
X208220057Y-197657200D01*
X208148628Y-197728628D01*
X210148628Y-197585771D02*
X210148628Y-198585771D01*
X209505771Y-197585771D02*
X209505771Y-198371485D01*
X209577200Y-198514342D01*
X209720057Y-198585771D01*
X209934342Y-198585771D01*
X210077200Y-198514342D01*
X210148628Y-198442914D01*
X210862914Y-198585771D02*
X210862914Y-197085771D01*
X210862914Y-197657200D02*
X211005771Y-197585771D01*
X211291485Y-197585771D01*
X211434342Y-197657200D01*
X211505771Y-197728628D01*
X211577200Y-197871485D01*
X211577200Y-198300057D01*
X211505771Y-198442914D01*
X211434342Y-198514342D01*
X211291485Y-198585771D01*
X211005771Y-198585771D01*
X210862914Y-198514342D01*
X212220057Y-198442914D02*
X212291485Y-198514342D01*
X212220057Y-198585771D01*
X212148628Y-198514342D01*
X212220057Y-198442914D01*
X212220057Y-198585771D01*
X213577200Y-198514342D02*
X213434342Y-198585771D01*
X213148628Y-198585771D01*
X213005771Y-198514342D01*
X212934342Y-198442914D01*
X212862914Y-198300057D01*
X212862914Y-197871485D01*
X212934342Y-197728628D01*
X213005771Y-197657200D01*
X213148628Y-197585771D01*
X213434342Y-197585771D01*
X213577200Y-197657200D01*
X214434342Y-198585771D02*
X214291485Y-198514342D01*
X214220057Y-198442914D01*
X214148628Y-198300057D01*
X214148628Y-197871485D01*
X214220057Y-197728628D01*
X214291485Y-197657200D01*
X214434342Y-197585771D01*
X214648628Y-197585771D01*
X214791485Y-197657200D01*
X214862914Y-197728628D01*
X214934342Y-197871485D01*
X214934342Y-198300057D01*
X214862914Y-198442914D01*
X214791485Y-198514342D01*
X214648628Y-198585771D01*
X214434342Y-198585771D01*
X215577200Y-198585771D02*
X215577200Y-197585771D01*
X215577200Y-197728628D02*
X215648628Y-197657200D01*
X215791485Y-197585771D01*
X216005771Y-197585771D01*
X216148628Y-197657200D01*
X216220057Y-197800057D01*
X216220057Y-198585771D01*
X216220057Y-197800057D02*
X216291485Y-197657200D01*
X216434342Y-197585771D01*
X216648628Y-197585771D01*
X216791485Y-197657200D01*
X216862914Y-197800057D01*
X216862914Y-198585771D01*
X218648628Y-197014342D02*
X217362914Y-198942914D01*
X219362914Y-198585771D02*
X219220057Y-198514342D01*
X219148628Y-198371485D01*
X219148628Y-197085771D01*
X219934342Y-198585771D02*
X219934342Y-197585771D01*
X219934342Y-197085771D02*
X219862914Y-197157200D01*
X219934342Y-197228628D01*
X220005771Y-197157200D01*
X219934342Y-197085771D01*
X219934342Y-197228628D01*
X220648628Y-197585771D02*
X220648628Y-198585771D01*
X220648628Y-197728628D02*
X220720057Y-197657200D01*
X220862914Y-197585771D01*
X221077200Y-197585771D01*
X221220057Y-197657200D01*
X221291485Y-197800057D01*
X221291485Y-198585771D01*
X222648628Y-197585771D02*
X222648628Y-198585771D01*
X222005771Y-197585771D02*
X222005771Y-198371485D01*
X222077200Y-198514342D01*
X222220057Y-198585771D01*
X222434342Y-198585771D01*
X222577200Y-198514342D01*
X222648628Y-198442914D01*
X223220057Y-198585771D02*
X224005771Y-197585771D01*
X223220057Y-197585771D02*
X224005771Y-198585771D01*
X224577200Y-198014342D02*
X225720057Y-198014342D01*
X227077200Y-198585771D02*
X227077200Y-197800057D01*
X227005771Y-197657200D01*
X226862914Y-197585771D01*
X226577200Y-197585771D01*
X226434342Y-197657200D01*
X227077200Y-198514342D02*
X226934342Y-198585771D01*
X226577200Y-198585771D01*
X226434342Y-198514342D01*
X226362914Y-198371485D01*
X226362914Y-198228628D01*
X226434342Y-198085771D01*
X226577200Y-198014342D01*
X226934342Y-198014342D01*
X227077200Y-197942914D01*
X228434342Y-197585771D02*
X228434342Y-198585771D01*
X227791485Y-197585771D02*
X227791485Y-198371485D01*
X227862914Y-198514342D01*
X228005771Y-198585771D01*
X228220057Y-198585771D01*
X228362914Y-198514342D01*
X228434342Y-198442914D01*
X228934342Y-197585771D02*
X229505771Y-197585771D01*
X229148628Y-197085771D02*
X229148628Y-198371485D01*
X229220057Y-198514342D01*
X229362914Y-198585771D01*
X229505771Y-198585771D01*
X230220057Y-198585771D02*
X230077200Y-198514342D01*
X230005771Y-198442914D01*
X229934342Y-198300057D01*
X229934342Y-197871485D01*
X230005771Y-197728628D01*
X230077200Y-197657200D01*
X230220057Y-197585771D01*
X230434342Y-197585771D01*
X230577200Y-197657200D01*
X230648628Y-197728628D01*
X230720057Y-197871485D01*
X230720057Y-198300057D01*
X230648628Y-198442914D01*
X230577200Y-198514342D01*
X230434342Y-198585771D01*
X230220057Y-198585771D01*
X231362914Y-198585771D02*
X231362914Y-197585771D01*
X231362914Y-197728628D02*
X231434342Y-197657200D01*
X231577200Y-197585771D01*
X231791485Y-197585771D01*
X231934342Y-197657200D01*
X232005771Y-197800057D01*
X232005771Y-198585771D01*
X232005771Y-197800057D02*
X232077200Y-197657200D01*
X232220057Y-197585771D01*
X232434342Y-197585771D01*
X232577200Y-197657200D01*
X232648628Y-197800057D01*
X232648628Y-198585771D01*
X234005771Y-198585771D02*
X234005771Y-197800057D01*
X233934342Y-197657200D01*
X233791485Y-197585771D01*
X233505771Y-197585771D01*
X233362914Y-197657200D01*
X234005771Y-198514342D02*
X233862914Y-198585771D01*
X233505771Y-198585771D01*
X233362914Y-198514342D01*
X233291485Y-198371485D01*
X233291485Y-198228628D01*
X233362914Y-198085771D01*
X233505771Y-198014342D01*
X233862914Y-198014342D01*
X234005771Y-197942914D01*
X234505771Y-197585771D02*
X235077200Y-197585771D01*
X234720057Y-197085771D02*
X234720057Y-198371485D01*
X234791485Y-198514342D01*
X234934342Y-198585771D01*
X235077200Y-198585771D01*
X235577200Y-198585771D02*
X235577200Y-197585771D01*
X235577200Y-197085771D02*
X235505771Y-197157200D01*
X235577200Y-197228628D01*
X235648628Y-197157200D01*
X235577200Y-197085771D01*
X235577200Y-197228628D01*
X236505771Y-198585771D02*
X236362914Y-198514342D01*
X236291485Y-198442914D01*
X236220057Y-198300057D01*
X236220057Y-197871485D01*
X236291485Y-197728628D01*
X236362914Y-197657200D01*
X236505771Y-197585771D01*
X236720057Y-197585771D01*
X236862914Y-197657200D01*
X236934342Y-197728628D01*
X237005771Y-197871485D01*
X237005771Y-198300057D01*
X236934342Y-198442914D01*
X236862914Y-198514342D01*
X236720057Y-198585771D01*
X236505771Y-198585771D01*
X237648628Y-197585771D02*
X237648628Y-198585771D01*
X237648628Y-197728628D02*
X237720057Y-197657200D01*
X237862914Y-197585771D01*
X238077200Y-197585771D01*
X238220057Y-197657200D01*
X238291485Y-197800057D01*
X238291485Y-198585771D01*
X240077200Y-197014342D02*
X238791485Y-198942914D01*
X241220057Y-198514342D02*
X241077200Y-198585771D01*
X240791485Y-198585771D01*
X240648628Y-198514342D01*
X240577200Y-198442914D01*
X240505771Y-198300057D01*
X240505771Y-197871485D01*
X240577200Y-197728628D01*
X240648628Y-197657200D01*
X240791485Y-197585771D01*
X241077200Y-197585771D01*
X241220057Y-197657200D01*
X242505771Y-198585771D02*
X242505771Y-197800057D01*
X242434342Y-197657200D01*
X242291485Y-197585771D01*
X242005771Y-197585771D01*
X241862914Y-197657200D01*
X242505771Y-198514342D02*
X242362914Y-198585771D01*
X242005771Y-198585771D01*
X241862914Y-198514342D01*
X241791485Y-198371485D01*
X241791485Y-198228628D01*
X241862914Y-198085771D01*
X242005771Y-198014342D01*
X242362914Y-198014342D01*
X242505771Y-197942914D01*
X243220057Y-197585771D02*
X243220057Y-198585771D01*
X243220057Y-197728628D02*
X243291485Y-197657200D01*
X243434342Y-197585771D01*
X243648628Y-197585771D01*
X243791485Y-197657200D01*
X243862914Y-197800057D01*
X243862914Y-198585771D01*
X245220057Y-198585771D02*
X245220057Y-197085771D01*
X245220057Y-198514342D02*
X245077200Y-198585771D01*
X244791485Y-198585771D01*
X244648628Y-198514342D01*
X244577200Y-198442914D01*
X244505771Y-198300057D01*
X244505771Y-197871485D01*
X244577200Y-197728628D01*
X244648628Y-197657200D01*
X244791485Y-197585771D01*
X245077200Y-197585771D01*
X245220057Y-197657200D01*
X246148628Y-198585771D02*
X246005771Y-198514342D01*
X245934342Y-198371485D01*
X245934342Y-197085771D01*
X247291485Y-198514342D02*
X247148628Y-198585771D01*
X246862914Y-198585771D01*
X246720057Y-198514342D01*
X246648628Y-198371485D01*
X246648628Y-197800057D01*
X246720057Y-197657200D01*
X246862914Y-197585771D01*
X247148628Y-197585771D01*
X247291485Y-197657200D01*
X247362914Y-197800057D01*
X247362914Y-197942914D01*
X246648628Y-198085771D01*
X248220057Y-198585771D02*
X248077200Y-198514342D01*
X248005771Y-198371485D01*
X248005771Y-197085771D01*
X248791485Y-198585771D02*
X248791485Y-197585771D01*
X248791485Y-197085771D02*
X248720057Y-197157200D01*
X248791485Y-197228628D01*
X248862914Y-197157200D01*
X248791485Y-197085771D01*
X248791485Y-197228628D01*
X250148628Y-197585771D02*
X250148628Y-198800057D01*
X250077200Y-198942914D01*
X250005771Y-199014342D01*
X249862914Y-199085771D01*
X249648628Y-199085771D01*
X249505771Y-199014342D01*
X250148628Y-198514342D02*
X250005771Y-198585771D01*
X249720057Y-198585771D01*
X249577200Y-198514342D01*
X249505771Y-198442914D01*
X249434342Y-198300057D01*
X249434342Y-197871485D01*
X249505771Y-197728628D01*
X249577200Y-197657200D01*
X249720057Y-197585771D01*
X250005771Y-197585771D01*
X250148628Y-197657200D01*
X250862914Y-198585771D02*
X250862914Y-197085771D01*
X251505771Y-198585771D02*
X251505771Y-197800057D01*
X251434342Y-197657200D01*
X251291485Y-197585771D01*
X251077200Y-197585771D01*
X250934342Y-197657200D01*
X250862914Y-197728628D01*
X252005771Y-197585771D02*
X252577200Y-197585771D01*
X252220057Y-197085771D02*
X252220057Y-198371485D01*
X252291485Y-198514342D01*
X252434342Y-198585771D01*
X252577200Y-198585771D01*
X253077200Y-198014342D02*
X254220057Y-198014342D01*
X254862914Y-198514342D02*
X255077200Y-198585771D01*
X255434342Y-198585771D01*
X255577200Y-198514342D01*
X255648628Y-198442914D01*
X255720057Y-198300057D01*
X255720057Y-198157200D01*
X255648628Y-198014342D01*
X255577200Y-197942914D01*
X255434342Y-197871485D01*
X255148628Y-197800057D01*
X255005771Y-197728628D01*
X254934342Y-197657200D01*
X254862914Y-197514342D01*
X254862914Y-197371485D01*
X254934342Y-197228628D01*
X255005771Y-197157200D01*
X255148628Y-197085771D01*
X255505771Y-197085771D01*
X255720057Y-197157200D01*
X256648628Y-197085771D02*
X256791485Y-197085771D01*
X256934342Y-197157200D01*
X257005771Y-197228628D01*
X257077200Y-197371485D01*
X257148628Y-197657200D01*
X257148628Y-198014342D01*
X257077200Y-198300057D01*
X257005771Y-198442914D01*
X256934342Y-198514342D01*
X256791485Y-198585771D01*
X256648628Y-198585771D01*
X256505771Y-198514342D01*
X256434342Y-198442914D01*
X256362914Y-198300057D01*
X256291485Y-198014342D01*
X256291485Y-197657200D01*
X256362914Y-197371485D01*
X256434342Y-197228628D01*
X256505771Y-197157200D01*
X256648628Y-197085771D01*
X258577200Y-198585771D02*
X257720057Y-198585771D01*
X258148628Y-198585771D02*
X258148628Y-197085771D01*
X258005771Y-197300057D01*
X257862914Y-197442914D01*
X257720057Y-197514342D01*
D10*
D11*
X197002200Y-193507200D02*
X197002200Y-200007200D01*
D10*
D11*
X238260714Y-195707142D02*
X238475000Y-195778571D01*
X238832142Y-195778571D01*
X238975000Y-195707142D01*
X239046428Y-195635714D01*
X239117857Y-195492857D01*
X239117857Y-195350000D01*
X239046428Y-195207142D01*
X238975000Y-195135714D01*
X238832142Y-195064285D01*
X238546428Y-194992857D01*
X238403571Y-194921428D01*
X238332142Y-194850000D01*
X238260714Y-194707142D01*
X238260714Y-194564285D01*
X238332142Y-194421428D01*
X238403571Y-194350000D01*
X238546428Y-194278571D01*
X238903571Y-194278571D01*
X239117857Y-194350000D01*
X239546428Y-194778571D02*
X240117857Y-194778571D01*
X239760714Y-194278571D02*
X239760714Y-195564285D01*
X239832142Y-195707142D01*
X239975000Y-195778571D01*
X240117857Y-195778571D01*
X241260714Y-195778571D02*
X241260714Y-194992857D01*
X241189285Y-194850000D01*
X241046428Y-194778571D01*
X240760714Y-194778571D01*
X240617857Y-194850000D01*
X241260714Y-195707142D02*
X241117857Y-195778571D01*
X240760714Y-195778571D01*
X240617857Y-195707142D01*
X240546428Y-195564285D01*
X240546428Y-195421428D01*
X240617857Y-195278571D01*
X240760714Y-195207142D01*
X241117857Y-195207142D01*
X241260714Y-195135714D01*
X241760714Y-194778571D02*
X242332142Y-194778571D01*
X241975000Y-194278571D02*
X241975000Y-195564285D01*
X242046428Y-195707142D01*
X242189285Y-195778571D01*
X242332142Y-195778571D01*
X243403571Y-195707142D02*
X243260714Y-195778571D01*
X242975000Y-195778571D01*
X242832142Y-195707142D01*
X242760714Y-195564285D01*
X242760714Y-194992857D01*
X242832142Y-194850000D01*
X242975000Y-194778571D01*
X243260714Y-194778571D01*
X243403571Y-194850000D01*
X243475000Y-194992857D01*
X243475000Y-195135714D01*
X242760714Y-195278571D01*
X244117857Y-195635714D02*
X244189285Y-195707142D01*
X244117857Y-195778571D01*
X244046428Y-195707142D01*
X244117857Y-195635714D01*
X244117857Y-195778571D01*
X244117857Y-194850000D02*
X244189285Y-194921428D01*
X244117857Y-194992857D01*
X244046428Y-194921428D01*
X244117857Y-194850000D01*
X244117857Y-194992857D01*
X245975000Y-195778571D02*
X245975000Y-194778571D01*
X245975000Y-195064285D02*
X246046428Y-194921428D01*
X246117857Y-194850000D01*
X246260714Y-194778571D01*
X246403571Y-194778571D01*
X247475000Y-195707142D02*
X247332142Y-195778571D01*
X247046428Y-195778571D01*
X246903571Y-195707142D01*
X246832142Y-195564285D01*
X246832142Y-194992857D01*
X246903571Y-194850000D01*
X247046428Y-194778571D01*
X247332142Y-194778571D01*
X247475000Y-194850000D01*
X247546428Y-194992857D01*
X247546428Y-195135714D01*
X246832142Y-195278571D01*
X248403571Y-195778571D02*
X248260714Y-195707142D01*
X248189285Y-195564285D01*
X248189285Y-194278571D01*
X249546428Y-195707142D02*
X249403571Y-195778571D01*
X249117857Y-195778571D01*
X248975000Y-195707142D01*
X248903571Y-195564285D01*
X248903571Y-194992857D01*
X248975000Y-194850000D01*
X249117857Y-194778571D01*
X249403571Y-194778571D01*
X249546428Y-194850000D01*
X249617857Y-194992857D01*
X249617857Y-195135714D01*
X248903571Y-195278571D01*
X250903571Y-195778571D02*
X250903571Y-194992857D01*
X250832142Y-194850000D01*
X250689285Y-194778571D01*
X250403571Y-194778571D01*
X250260714Y-194850000D01*
X250903571Y-195707142D02*
X250760714Y-195778571D01*
X250403571Y-195778571D01*
X250260714Y-195707142D01*
X250189285Y-195564285D01*
X250189285Y-195421428D01*
X250260714Y-195278571D01*
X250403571Y-195207142D01*
X250760714Y-195207142D01*
X250903571Y-195135714D01*
X251546428Y-195707142D02*
X251689285Y-195778571D01*
X251975000Y-195778571D01*
X252117857Y-195707142D01*
X252189285Y-195564285D01*
X252189285Y-195492857D01*
X252117857Y-195350000D01*
X251975000Y-195278571D01*
X251760714Y-195278571D01*
X251617857Y-195207142D01*
X251546428Y-195064285D01*
X251546428Y-194992857D01*
X251617857Y-194850000D01*
X251760714Y-194778571D01*
X251975000Y-194778571D01*
X252117857Y-194850000D01*
X253403571Y-195707142D02*
X253260714Y-195778571D01*
X252975000Y-195778571D01*
X252832142Y-195707142D01*
X252760714Y-195564285D01*
X252760714Y-194992857D01*
X252832142Y-194850000D01*
X252975000Y-194778571D01*
X253260714Y-194778571D01*
X253403571Y-194850000D01*
X253475000Y-194992857D01*
X253475000Y-195135714D01*
X252760714Y-195278571D01*
X254760714Y-195778571D02*
X254760714Y-194278571D01*
X254760714Y-195707142D02*
X254617857Y-195778571D01*
X254332142Y-195778571D01*
X254189285Y-195707142D01*
X254117857Y-195635714D01*
X254046428Y-195492857D01*
X254046428Y-195064285D01*
X254117857Y-194921428D01*
X254189285Y-194850000D01*
X254332142Y-194778571D01*
X254617857Y-194778571D01*
X254760714Y-194850000D01*
D10*
D11*
X237300000Y-193500000D02*
X237300000Y-196500000D01*
D10*
D11*
X264002000Y-193507000D02*
X264002000Y-200007000D01*
X78464404Y-79002380D02*
X78464404Y-78002380D01*
X78035833Y-79002380D02*
X78035833Y-78478571D01*
X78083452Y-78383333D01*
X78178690Y-78335714D01*
X78321547Y-78335714D01*
X78416785Y-78383333D01*
X78464404Y-78430952D01*
X77702500Y-78335714D02*
X77321547Y-78335714D01*
X77559642Y-78002380D02*
X77559642Y-78859523D01*
X77512023Y-78954761D01*
X77416785Y-79002380D01*
X77321547Y-79002380D01*
X77131071Y-78335714D02*
X76750119Y-78335714D01*
X76988214Y-78002380D02*
X76988214Y-78859523D01*
X76940595Y-78954761D01*
X76845357Y-79002380D01*
X76750119Y-79002380D01*
X76416785Y-78335714D02*
X76416785Y-79335714D01*
X76416785Y-78383333D02*
X76321547Y-78335714D01*
X76131071Y-78335714D01*
X76035833Y-78383333D01*
X75988214Y-78430952D01*
X75940595Y-78526190D01*
X75940595Y-78811904D01*
X75988214Y-78907142D01*
X76035833Y-78954761D01*
X76131071Y-79002380D01*
X76321547Y-79002380D01*
X76416785Y-78954761D01*
X75559642Y-78954761D02*
X75464404Y-79002380D01*
X75273928Y-79002380D01*
X75178690Y-78954761D01*
X75131071Y-78859523D01*
X75131071Y-78811904D01*
X75178690Y-78716666D01*
X75273928Y-78669047D01*
X75416785Y-78669047D01*
X75512023Y-78621428D01*
X75559642Y-78526190D01*
X75559642Y-78478571D01*
X75512023Y-78383333D01*
X75416785Y-78335714D01*
X75273928Y-78335714D01*
X75178690Y-78383333D01*
X74702500Y-78907142D02*
X74654880Y-78954761D01*
X74702500Y-79002380D01*
X74750119Y-78954761D01*
X74702500Y-78907142D01*
X74702500Y-79002380D01*
X74702500Y-78383333D02*
X74654880Y-78430952D01*
X74702500Y-78478571D01*
X74750119Y-78430952D01*
X74702500Y-78383333D01*
X74702500Y-78478571D01*
X73512023Y-77954761D02*
X74369166Y-79240476D01*
X72464404Y-77954761D02*
X73321547Y-79240476D01*
X71988214Y-79002380D02*
X72083452Y-78954761D01*
X72131071Y-78859523D01*
X72131071Y-78002380D01*
X71607261Y-79002380D02*
X71607261Y-78335714D01*
X71607261Y-78002380D02*
X71654880Y-78050000D01*
X71607261Y-78097619D01*
X71559642Y-78050000D01*
X71607261Y-78002380D01*
X71607261Y-78097619D01*
X71131071Y-78335714D02*
X71131071Y-79002380D01*
X71131071Y-78430952D02*
X71083452Y-78383333D01*
X70988214Y-78335714D01*
X70845357Y-78335714D01*
X70750119Y-78383333D01*
X70702500Y-78478571D01*
X70702500Y-79002380D01*
X69797738Y-78335714D02*
X69797738Y-79002380D01*
X70226309Y-78335714D02*
X70226309Y-78859523D01*
X70178690Y-78954761D01*
X70083452Y-79002380D01*
X69940595Y-79002380D01*
X69845357Y-78954761D01*
X69797738Y-78907142D01*
X69416785Y-79002380D02*
X68892976Y-78335714D01*
X69416785Y-78335714D02*
X68892976Y-79002380D01*
X68512023Y-78621428D02*
X67750119Y-78621428D01*
X66845357Y-79002380D02*
X66845357Y-78478571D01*
X66892976Y-78383333D01*
X66988214Y-78335714D01*
X67178690Y-78335714D01*
X67273928Y-78383333D01*
X66845357Y-78954761D02*
X66940595Y-79002380D01*
X67178690Y-79002380D01*
X67273928Y-78954761D01*
X67321547Y-78859523D01*
X67321547Y-78764285D01*
X67273928Y-78669047D01*
X67178690Y-78621428D01*
X66940595Y-78621428D01*
X66845357Y-78573809D01*
X65940595Y-78335714D02*
X65940595Y-79002380D01*
X66369166Y-78335714D02*
X66369166Y-78859523D01*
X66321547Y-78954761D01*
X66226309Y-79002380D01*
X66083452Y-79002380D01*
X65988214Y-78954761D01*
X65940595Y-78907142D01*
X65607261Y-78335714D02*
X65226309Y-78335714D01*
X65464404Y-78002380D02*
X65464404Y-78859523D01*
X65416785Y-78954761D01*
X65321547Y-79002380D01*
X65226309Y-79002380D01*
X64750119Y-79002380D02*
X64845357Y-78954761D01*
X64892976Y-78907142D01*
X64940595Y-78811904D01*
X64940595Y-78526190D01*
X64892976Y-78430952D01*
X64845357Y-78383333D01*
X64750119Y-78335714D01*
X64607261Y-78335714D01*
X64512023Y-78383333D01*
X64464404Y-78430952D01*
X64416785Y-78526190D01*
X64416785Y-78811904D01*
X64464404Y-78907142D01*
X64512023Y-78954761D01*
X64607261Y-79002380D01*
X64750119Y-79002380D01*
X63988214Y-79002380D02*
X63988214Y-78335714D01*
X63988214Y-78430952D02*
X63940595Y-78383333D01*
X63845357Y-78335714D01*
X63702500Y-78335714D01*
X63607261Y-78383333D01*
X63559642Y-78478571D01*
X63559642Y-79002380D01*
X63559642Y-78478571D02*
X63512023Y-78383333D01*
X63416785Y-78335714D01*
X63273928Y-78335714D01*
X63178690Y-78383333D01*
X63131071Y-78478571D01*
X63131071Y-79002380D01*
X62226309Y-79002380D02*
X62226309Y-78478571D01*
X62273928Y-78383333D01*
X62369166Y-78335714D01*
X62559642Y-78335714D01*
X62654880Y-78383333D01*
X62226309Y-78954761D02*
X62321547Y-79002380D01*
X62559642Y-79002380D01*
X62654880Y-78954761D01*
X62702500Y-78859523D01*
X62702500Y-78764285D01*
X62654880Y-78669047D01*
X62559642Y-78621428D01*
X62321547Y-78621428D01*
X62226309Y-78573809D01*
X61892976Y-78335714D02*
X61512023Y-78335714D01*
X61750119Y-78002380D02*
X61750119Y-78859523D01*
X61702500Y-78954761D01*
X61607261Y-79002380D01*
X61512023Y-79002380D01*
X61178690Y-79002380D02*
X61178690Y-78335714D01*
X61178690Y-78002380D02*
X61226309Y-78050000D01*
X61178690Y-78097619D01*
X61131071Y-78050000D01*
X61178690Y-78002380D01*
X61178690Y-78097619D01*
X60559642Y-79002380D02*
X60654880Y-78954761D01*
X60702500Y-78907142D01*
X60750119Y-78811904D01*
X60750119Y-78526190D01*
X60702500Y-78430952D01*
X60654880Y-78383333D01*
X60559642Y-78335714D01*
X60416785Y-78335714D01*
X60321547Y-78383333D01*
X60273928Y-78430952D01*
X60226309Y-78526190D01*
X60226309Y-78811904D01*
X60273928Y-78907142D01*
X60321547Y-78954761D01*
X60416785Y-79002380D01*
X60559642Y-79002380D01*
X59797738Y-78335714D02*
X59797738Y-79002380D01*
X59797738Y-78430952D02*
X59750119Y-78383333D01*
X59654880Y-78335714D01*
X59512023Y-78335714D01*
X59416785Y-78383333D01*
X59369166Y-78478571D01*
X59369166Y-79002380D01*
X58892976Y-78907142D02*
X58845357Y-78954761D01*
X58892976Y-79002380D01*
X58940595Y-78954761D01*
X58892976Y-78907142D01*
X58892976Y-79002380D01*
X57988214Y-78954761D02*
X58083452Y-79002380D01*
X58273928Y-79002380D01*
X58369166Y-78954761D01*
X58416785Y-78907142D01*
X58464404Y-78811904D01*
X58464404Y-78526190D01*
X58416785Y-78430952D01*
X58369166Y-78383333D01*
X58273928Y-78335714D01*
X58083452Y-78335714D01*
X57988214Y-78383333D01*
X57416785Y-79002380D02*
X57512023Y-78954761D01*
X57559642Y-78907142D01*
X57607261Y-78811904D01*
X57607261Y-78526190D01*
X57559642Y-78430952D01*
X57512023Y-78383333D01*
X57416785Y-78335714D01*
X57273928Y-78335714D01*
X57178690Y-78383333D01*
X57131071Y-78430952D01*
X57083452Y-78526190D01*
X57083452Y-78811904D01*
X57131071Y-78907142D01*
X57178690Y-78954761D01*
X57273928Y-79002380D01*
X57416785Y-79002380D01*
X56654880Y-79002380D02*
X56654880Y-78335714D01*
X56654880Y-78430952D02*
X56607261Y-78383333D01*
X56512023Y-78335714D01*
X56369166Y-78335714D01*
X56273928Y-78383333D01*
X56226309Y-78478571D01*
X56226309Y-79002380D01*
X56226309Y-78478571D02*
X56178690Y-78383333D01*
X56083452Y-78335714D01*
X55940595Y-78335714D01*
X55845357Y-78383333D01*
X55797738Y-78478571D01*
X55797738Y-79002380D01*
D14*
X53179523Y-90804761D02*
X53036666Y-90852380D01*
X52798571Y-90852380D01*
X52703333Y-90804761D01*
X52655714Y-90757142D01*
X52608095Y-90661904D01*
X52608095Y-90566666D01*
X52655714Y-90471428D01*
X52703333Y-90423809D01*
X52798571Y-90376190D01*
X52989047Y-90328571D01*
X53084285Y-90280952D01*
X53131904Y-90233333D01*
X53179523Y-90138095D01*
X53179523Y-90042857D01*
X53131904Y-89947619D01*
X53084285Y-89900000D01*
X52989047Y-89852380D01*
X52750952Y-89852380D01*
X52608095Y-89900000D01*
X51608095Y-90757142D02*
X51655714Y-90804761D01*
X51798571Y-90852380D01*
X51893809Y-90852380D01*
X52036666Y-90804761D01*
X52131904Y-90709523D01*
X52179523Y-90614285D01*
X52227142Y-90423809D01*
X52227142Y-90280952D01*
X52179523Y-90090476D01*
X52131904Y-89995238D01*
X52036666Y-89900000D01*
X51893809Y-89852380D01*
X51798571Y-89852380D01*
X51655714Y-89900000D01*
X51608095Y-89947619D01*
X50703333Y-90852380D02*
X51179523Y-90852380D01*
X51179523Y-89852380D01*
X56679523Y-90804761D02*
X56536666Y-90852380D01*
X56298571Y-90852380D01*
X56203333Y-90804761D01*
X56155714Y-90757142D01*
X56108095Y-90661904D01*
X56108095Y-90566666D01*
X56155714Y-90471428D01*
X56203333Y-90423809D01*
X56298571Y-90376190D01*
X56489047Y-90328571D01*
X56584285Y-90280952D01*
X56631904Y-90233333D01*
X56679523Y-90138095D01*
X56679523Y-90042857D01*
X56631904Y-89947619D01*
X56584285Y-89900000D01*
X56489047Y-89852380D01*
X56250952Y-89852380D01*
X56108095Y-89900000D01*
X55679523Y-90852380D02*
X55679523Y-89852380D01*
X55441428Y-89852380D01*
X55298571Y-89900000D01*
X55203333Y-89995238D01*
X55155714Y-90090476D01*
X55108095Y-90280952D01*
X55108095Y-90423809D01*
X55155714Y-90614285D01*
X55203333Y-90709523D01*
X55298571Y-90804761D01*
X55441428Y-90852380D01*
X55679523Y-90852380D01*
X54727142Y-90566666D02*
X54250952Y-90566666D01*
X54822380Y-90852380D02*
X54489047Y-89852380D01*
X54155714Y-90852380D01*
X50279523Y-81504761D02*
X50136666Y-81552380D01*
X49898571Y-81552380D01*
X49803333Y-81504761D01*
X49755714Y-81457142D01*
X49708095Y-81361904D01*
X49708095Y-81266666D01*
X49755714Y-81171428D01*
X49803333Y-81123809D01*
X49898571Y-81076190D01*
X50089047Y-81028571D01*
X50184285Y-80980952D01*
X50231904Y-80933333D01*
X50279523Y-80838095D01*
X50279523Y-80742857D01*
X50231904Y-80647619D01*
X50184285Y-80600000D01*
X50089047Y-80552380D01*
X49850952Y-80552380D01*
X49708095Y-80600000D01*
X48708095Y-81457142D02*
X48755714Y-81504761D01*
X48898571Y-81552380D01*
X48993809Y-81552380D01*
X49136666Y-81504761D01*
X49231904Y-81409523D01*
X49279523Y-81314285D01*
X49327142Y-81123809D01*
X49327142Y-80980952D01*
X49279523Y-80790476D01*
X49231904Y-80695238D01*
X49136666Y-80600000D01*
X48993809Y-80552380D01*
X48898571Y-80552380D01*
X48755714Y-80600000D01*
X48708095Y-80647619D01*
X48279523Y-81552380D02*
X48279523Y-80552380D01*
X47708095Y-81552380D02*
X48136666Y-80980952D01*
X47708095Y-80552380D02*
X48279523Y-81123809D01*
X50431904Y-84202380D02*
X50431904Y-83202380D01*
X50098571Y-83916666D01*
X49765238Y-83202380D01*
X49765238Y-84202380D01*
X49289047Y-84202380D02*
X49289047Y-83202380D01*
X48860476Y-84154761D02*
X48717619Y-84202380D01*
X48479523Y-84202380D01*
X48384285Y-84154761D01*
X48336666Y-84107142D01*
X48289047Y-84011904D01*
X48289047Y-83916666D01*
X48336666Y-83821428D01*
X48384285Y-83773809D01*
X48479523Y-83726190D01*
X48670000Y-83678571D01*
X48765238Y-83630952D01*
X48812857Y-83583333D01*
X48860476Y-83488095D01*
X48860476Y-83392857D01*
X48812857Y-83297619D01*
X48765238Y-83250000D01*
X48670000Y-83202380D01*
X48431904Y-83202380D01*
X48289047Y-83250000D01*
X47670000Y-83202380D02*
X47479523Y-83202380D01*
X47384285Y-83250000D01*
X47289047Y-83345238D01*
X47241428Y-83535714D01*
X47241428Y-83869047D01*
X47289047Y-84059523D01*
X47384285Y-84154761D01*
X47479523Y-84202380D01*
X47670000Y-84202380D01*
X47765238Y-84154761D01*
X47860476Y-84059523D01*
X47908095Y-83869047D01*
X47908095Y-83535714D01*
X47860476Y-83345238D01*
X47765238Y-83250000D01*
X47670000Y-83202380D01*
X50424761Y-85452380D02*
X49853333Y-85452380D01*
X50139047Y-86452380D02*
X50139047Y-85452380D01*
X49615238Y-85452380D02*
X48948571Y-86452380D01*
X48948571Y-85452380D02*
X49615238Y-86452380D01*
X56872857Y-86352380D02*
X57206190Y-85876190D01*
X57444285Y-86352380D02*
X57444285Y-85352380D01*
X57063333Y-85352380D01*
X56968095Y-85400000D01*
X56920476Y-85447619D01*
X56872857Y-85542857D01*
X56872857Y-85685714D01*
X56920476Y-85780952D01*
X56968095Y-85828571D01*
X57063333Y-85876190D01*
X57444285Y-85876190D01*
X56539523Y-85352380D02*
X55872857Y-86352380D01*
X55872857Y-85352380D02*
X56539523Y-86352380D01*
X58410952Y-83152380D02*
X58410952Y-82152380D01*
X58077619Y-82866666D01*
X57744285Y-82152380D01*
X57744285Y-83152380D01*
X57077619Y-82152380D02*
X56887142Y-82152380D01*
X56791904Y-82200000D01*
X56696666Y-82295238D01*
X56649047Y-82485714D01*
X56649047Y-82819047D01*
X56696666Y-83009523D01*
X56791904Y-83104761D01*
X56887142Y-83152380D01*
X57077619Y-83152380D01*
X57172857Y-83104761D01*
X57268095Y-83009523D01*
X57315714Y-82819047D01*
X57315714Y-82485714D01*
X57268095Y-82295238D01*
X57172857Y-82200000D01*
X57077619Y-82152380D01*
X56268095Y-83104761D02*
X56125238Y-83152380D01*
X55887142Y-83152380D01*
X55791904Y-83104761D01*
X55744285Y-83057142D01*
X55696666Y-82961904D01*
X55696666Y-82866666D01*
X55744285Y-82771428D01*
X55791904Y-82723809D01*
X55887142Y-82676190D01*
X56077619Y-82628571D01*
X56172857Y-82580952D01*
X56220476Y-82533333D01*
X56268095Y-82438095D01*
X56268095Y-82342857D01*
X56220476Y-82247619D01*
X56172857Y-82200000D01*
X56077619Y-82152380D01*
X55839523Y-82152380D01*
X55696666Y-82200000D01*
X55268095Y-83152380D02*
X55268095Y-82152380D01*
X56372857Y-81057142D02*
X56420476Y-81104761D01*
X56563333Y-81152380D01*
X56658571Y-81152380D01*
X56801428Y-81104761D01*
X56896666Y-81009523D01*
X56944285Y-80914285D01*
X56991904Y-80723809D01*
X56991904Y-80580952D01*
X56944285Y-80390476D01*
X56896666Y-80295238D01*
X56801428Y-80200000D01*
X56658571Y-80152380D01*
X56563333Y-80152380D01*
X56420476Y-80200000D01*
X56372857Y-80247619D01*
X55991904Y-81104761D02*
X55849047Y-81152380D01*
X55610952Y-81152380D01*
X55515714Y-81104761D01*
X55468095Y-81057142D01*
X55420476Y-80961904D01*
X55420476Y-80866666D01*
X55468095Y-80771428D01*
X55515714Y-80723809D01*
X55610952Y-80676190D01*
X55801428Y-80628571D01*
X55896666Y-80580952D01*
X55944285Y-80533333D01*
X55991904Y-80438095D01*
X55991904Y-80342857D01*
X55944285Y-80247619D01*
X55896666Y-80200000D01*
X55801428Y-80152380D01*
X55563333Y-80152380D01*
X55420476Y-80200000D01*
X73324761Y-80152380D02*
X72991428Y-81152380D01*
X72658095Y-80152380D01*
X71991428Y-80628571D02*
X71848571Y-80676190D01*
X71800952Y-80723809D01*
X71753333Y-80819047D01*
X71753333Y-80961904D01*
X71800952Y-81057142D01*
X71848571Y-81104761D01*
X71943809Y-81152380D01*
X72324761Y-81152380D01*
X72324761Y-80152380D01*
X71991428Y-80152380D01*
X71896190Y-80200000D01*
X71848571Y-80247619D01*
X71800952Y-80342857D01*
X71800952Y-80438095D01*
X71848571Y-80533333D01*
X71896190Y-80580952D01*
X71991428Y-80628571D01*
X72324761Y-80628571D01*
X71324761Y-80771428D02*
X70562857Y-80771428D01*
X70943809Y-81152380D02*
X70943809Y-80390476D01*
X73374761Y-88652380D02*
X73041428Y-89652380D01*
X72708095Y-88652380D01*
X72041428Y-89128571D02*
X71898571Y-89176190D01*
X71850952Y-89223809D01*
X71803333Y-89319047D01*
X71803333Y-89461904D01*
X71850952Y-89557142D01*
X71898571Y-89604761D01*
X71993809Y-89652380D01*
X72374761Y-89652380D01*
X72374761Y-88652380D01*
X72041428Y-88652380D01*
X71946190Y-88700000D01*
X71898571Y-88747619D01*
X71850952Y-88842857D01*
X71850952Y-88938095D01*
X71898571Y-89033333D01*
X71946190Y-89080952D01*
X72041428Y-89128571D01*
X72374761Y-89128571D01*
X71374761Y-89271428D02*
X70612857Y-89271428D01*
X72660476Y-86807142D02*
X72708095Y-86854761D01*
X72850952Y-86902380D01*
X72946190Y-86902380D01*
X73089047Y-86854761D01*
X73184285Y-86759523D01*
X73231904Y-86664285D01*
X73279523Y-86473809D01*
X73279523Y-86330952D01*
X73231904Y-86140476D01*
X73184285Y-86045238D01*
X73089047Y-85950000D01*
X72946190Y-85902380D01*
X72850952Y-85902380D01*
X72708095Y-85950000D01*
X72660476Y-85997619D01*
X72279523Y-86616666D02*
X71803333Y-86616666D01*
X72374761Y-86902380D02*
X72041428Y-85902380D01*
X71708095Y-86902380D01*
X71374761Y-86902380D02*
X71374761Y-85902380D01*
X70803333Y-86902380D01*
X70803333Y-85902380D01*
X70565238Y-86997619D02*
X69803333Y-86997619D01*
X69565238Y-86902380D02*
X69565238Y-85902380D01*
X69565238Y-86378571D02*
X68993809Y-86378571D01*
X68993809Y-86902380D02*
X68993809Y-85902380D01*
D15*
X49885714Y-76171428D02*
X49123809Y-76171428D01*
X49504761Y-76552380D02*
X49504761Y-75790476D01*
X48171428Y-75552380D02*
X48647619Y-75552380D01*
X48695238Y-76028571D01*
X48647619Y-75980952D01*
X48552380Y-75933333D01*
X48314285Y-75933333D01*
X48219047Y-75980952D01*
X48171428Y-76028571D01*
X48123809Y-76123809D01*
X48123809Y-76361904D01*
X48171428Y-76457142D01*
X48219047Y-76504761D01*
X48314285Y-76552380D01*
X48552380Y-76552380D01*
X48647619Y-76504761D01*
X48695238Y-76457142D01*
X47838095Y-75552380D02*
X47504761Y-76552380D01*
X47171428Y-75552380D01*
X45011904Y-75600000D02*
X45107142Y-75552380D01*
X45250000Y-75552380D01*
X45392857Y-75600000D01*
X45488095Y-75695238D01*
X45535714Y-75790476D01*
X45583333Y-75980952D01*
X45583333Y-76123809D01*
X45535714Y-76314285D01*
X45488095Y-76409523D01*
X45392857Y-76504761D01*
X45250000Y-76552380D01*
X45154761Y-76552380D01*
X45011904Y-76504761D01*
X44964285Y-76457142D01*
X44964285Y-76123809D01*
X45154761Y-76123809D01*
X44535714Y-76552380D02*
X44535714Y-75552380D01*
X43964285Y-76552380D01*
X43964285Y-75552380D01*
X43488095Y-76552380D02*
X43488095Y-75552380D01*
X43250000Y-75552380D01*
X43107142Y-75600000D01*
X43011904Y-75695238D01*
X42964285Y-75790476D01*
X42916666Y-75980952D01*
X42916666Y-76123809D01*
X42964285Y-76314285D01*
X43011904Y-76409523D01*
X43107142Y-76504761D01*
X43250000Y-76552380D01*
X43488095Y-76552380D01*
D16*
X41400000Y-75000000D02*
X41400000Y-81100000D01*
X79100000Y-75000000D02*
X79100000Y-95000000D01*
X47000000Y-81900000D02*
X47000000Y-88100000D01*
X41400000Y-81100000D02*
X46200000Y-81100000D01*
X47000000Y-81900000D02*
G75*
G03*
X46200000Y-81100000I-800000J0D01*
G01*
X46200000Y-88900000D02*
G75*
G03*
X47000000Y-88100000I0J800000D01*
G01*
X41400000Y-88900000D02*
X46200000Y-88900000D01*
X41400000Y-95000000D02*
X41400000Y-88900000D01*
X79100000Y-95000000D02*
X41400000Y-95000000D01*
X41400000Y-75000000D02*
X79100000Y-75000000D01*
D17*
%TO.C,NB101*%
G36*
X62597150Y-83492512D02*
G01*
X62490574Y-83526160D01*
X62400156Y-83580572D01*
X62348159Y-83633535D01*
X62288766Y-83739087D01*
X62253929Y-83864125D01*
X62243571Y-84003225D01*
X62257615Y-84150961D01*
X62295985Y-84301908D01*
X62358603Y-84450640D01*
X62359792Y-84452952D01*
X62400204Y-84531353D01*
X62585639Y-84551904D01*
X62695127Y-84566043D01*
X62773844Y-84581697D01*
X62826052Y-84600706D01*
X62856013Y-84624912D01*
X62867989Y-84656154D01*
X62868603Y-84674128D01*
X62855997Y-84733032D01*
X62825660Y-84808051D01*
X62782837Y-84888855D01*
X62732773Y-84965112D01*
X62700222Y-85005776D01*
X62631933Y-85076105D01*
X62569211Y-85120738D01*
X62501071Y-85144858D01*
X62416528Y-85153647D01*
X62385851Y-85154069D01*
X62300446Y-85149223D01*
X62208659Y-85135980D01*
X62117026Y-85116279D01*
X62032080Y-85092060D01*
X61960355Y-85065261D01*
X61908386Y-85037823D01*
X61882705Y-85011685D01*
X61881103Y-85004239D01*
X61893941Y-84953799D01*
X61929608Y-84887688D01*
X61983837Y-84812440D01*
X62052360Y-84734590D01*
X62066808Y-84719878D01*
X62145379Y-84641307D01*
X61935157Y-84641307D01*
X61922340Y-84710625D01*
X61886911Y-84769001D01*
X61818453Y-84828709D01*
X61741497Y-84854584D01*
X61655055Y-84846848D01*
X61610187Y-84831380D01*
X61549338Y-84789366D01*
X61511760Y-84729337D01*
X61497426Y-84659442D01*
X61506306Y-84587830D01*
X61538374Y-84522649D01*
X61593600Y-84472048D01*
X61611464Y-84462421D01*
X61691186Y-84439624D01*
X61766444Y-84444377D01*
X61832853Y-84471801D01*
X61886031Y-84517016D01*
X61921593Y-84575144D01*
X61935157Y-84641307D01*
X62145379Y-84641307D01*
X62177612Y-84609074D01*
X62141785Y-84518089D01*
X62077471Y-84385218D01*
X61993794Y-84258491D01*
X61897003Y-84145371D01*
X61793346Y-84053317D01*
X61706418Y-83998179D01*
X61594960Y-83959049D01*
X61477207Y-83948713D01*
X61361288Y-83966128D01*
X61255329Y-84010254D01*
X61181816Y-84065407D01*
X61146532Y-84102071D01*
X61125321Y-84135441D01*
X61113273Y-84177525D01*
X61105479Y-84240329D01*
X61104081Y-84255520D01*
X61103256Y-84453122D01*
X61134958Y-84645402D01*
X61196727Y-84828889D01*
X61286103Y-85000114D01*
X61400627Y-85155605D01*
X61537840Y-85291894D01*
X61695283Y-85405510D01*
X61870496Y-85492983D01*
X62014400Y-85539938D01*
X62154052Y-85564644D01*
X62309007Y-85573752D01*
X62464555Y-85567266D01*
X62605988Y-85545190D01*
X62628003Y-85539773D01*
X62817723Y-85472351D01*
X62993437Y-85374723D01*
X63151096Y-85250190D01*
X63286648Y-85102049D01*
X63396045Y-84933599D01*
X63413272Y-84900111D01*
X63444537Y-84834192D01*
X63461036Y-84789770D01*
X63464990Y-84757701D01*
X63458618Y-84728841D01*
X63456339Y-84722749D01*
X63448205Y-84685514D01*
X63440928Y-84622356D01*
X63435344Y-84542388D01*
X63432429Y-84462138D01*
X63429046Y-84360716D01*
X63422466Y-84282613D01*
X63421272Y-84275720D01*
X62970570Y-84275720D01*
X62944075Y-84347392D01*
X62889536Y-84407743D01*
X62879586Y-84414886D01*
X62803305Y-84446967D01*
X62720586Y-84449502D01*
X62642208Y-84423390D01*
X62598709Y-84391493D01*
X62551508Y-84327289D01*
X62534156Y-84259549D01*
X62542458Y-84193003D01*
X62572215Y-84132378D01*
X62619233Y-84082402D01*
X62679315Y-84047804D01*
X62748263Y-84033311D01*
X62821882Y-84043652D01*
X62881375Y-84073019D01*
X62939262Y-84130511D01*
X62968980Y-84200752D01*
X62970570Y-84275720D01*
X63421272Y-84275720D01*
X63410950Y-84216140D01*
X63392760Y-84149611D01*
X63380319Y-84111793D01*
X63311852Y-83947042D01*
X63226493Y-83800626D01*
X63127619Y-83676955D01*
X63018605Y-83580444D01*
X62935248Y-83530012D01*
X62827344Y-83493053D01*
X62712026Y-83481014D01*
X62597150Y-83492512D01*
G37*
X62597150Y-83492512D02*
X62490574Y-83526160D01*
X62400156Y-83580572D01*
X62348159Y-83633535D01*
X62288766Y-83739087D01*
X62253929Y-83864125D01*
X62243571Y-84003225D01*
X62257615Y-84150961D01*
X62295985Y-84301908D01*
X62358603Y-84450640D01*
X62359792Y-84452952D01*
X62400204Y-84531353D01*
X62585639Y-84551904D01*
X62695127Y-84566043D01*
X62773844Y-84581697D01*
X62826052Y-84600706D01*
X62856013Y-84624912D01*
X62867989Y-84656154D01*
X62868603Y-84674128D01*
X62855997Y-84733032D01*
X62825660Y-84808051D01*
X62782837Y-84888855D01*
X62732773Y-84965112D01*
X62700222Y-85005776D01*
X62631933Y-85076105D01*
X62569211Y-85120738D01*
X62501071Y-85144858D01*
X62416528Y-85153647D01*
X62385851Y-85154069D01*
X62300446Y-85149223D01*
X62208659Y-85135980D01*
X62117026Y-85116279D01*
X62032080Y-85092060D01*
X61960355Y-85065261D01*
X61908386Y-85037823D01*
X61882705Y-85011685D01*
X61881103Y-85004239D01*
X61893941Y-84953799D01*
X61929608Y-84887688D01*
X61983837Y-84812440D01*
X62052360Y-84734590D01*
X62066808Y-84719878D01*
X62145379Y-84641307D01*
X61935157Y-84641307D01*
X61922340Y-84710625D01*
X61886911Y-84769001D01*
X61818453Y-84828709D01*
X61741497Y-84854584D01*
X61655055Y-84846848D01*
X61610187Y-84831380D01*
X61549338Y-84789366D01*
X61511760Y-84729337D01*
X61497426Y-84659442D01*
X61506306Y-84587830D01*
X61538374Y-84522649D01*
X61593600Y-84472048D01*
X61611464Y-84462421D01*
X61691186Y-84439624D01*
X61766444Y-84444377D01*
X61832853Y-84471801D01*
X61886031Y-84517016D01*
X61921593Y-84575144D01*
X61935157Y-84641307D01*
X62145379Y-84641307D01*
X62177612Y-84609074D01*
X62141785Y-84518089D01*
X62077471Y-84385218D01*
X61993794Y-84258491D01*
X61897003Y-84145371D01*
X61793346Y-84053317D01*
X61706418Y-83998179D01*
X61594960Y-83959049D01*
X61477207Y-83948713D01*
X61361288Y-83966128D01*
X61255329Y-84010254D01*
X61181816Y-84065407D01*
X61146532Y-84102071D01*
X61125321Y-84135441D01*
X61113273Y-84177525D01*
X61105479Y-84240329D01*
X61104081Y-84255520D01*
X61103256Y-84453122D01*
X61134958Y-84645402D01*
X61196727Y-84828889D01*
X61286103Y-85000114D01*
X61400627Y-85155605D01*
X61537840Y-85291894D01*
X61695283Y-85405510D01*
X61870496Y-85492983D01*
X62014400Y-85539938D01*
X62154052Y-85564644D01*
X62309007Y-85573752D01*
X62464555Y-85567266D01*
X62605988Y-85545190D01*
X62628003Y-85539773D01*
X62817723Y-85472351D01*
X62993437Y-85374723D01*
X63151096Y-85250190D01*
X63286648Y-85102049D01*
X63396045Y-84933599D01*
X63413272Y-84900111D01*
X63444537Y-84834192D01*
X63461036Y-84789770D01*
X63464990Y-84757701D01*
X63458618Y-84728841D01*
X63456339Y-84722749D01*
X63448205Y-84685514D01*
X63440928Y-84622356D01*
X63435344Y-84542388D01*
X63432429Y-84462138D01*
X63429046Y-84360716D01*
X63422466Y-84282613D01*
X63421272Y-84275720D01*
X62970570Y-84275720D01*
X62944075Y-84347392D01*
X62889536Y-84407743D01*
X62879586Y-84414886D01*
X62803305Y-84446967D01*
X62720586Y-84449502D01*
X62642208Y-84423390D01*
X62598709Y-84391493D01*
X62551508Y-84327289D01*
X62534156Y-84259549D01*
X62542458Y-84193003D01*
X62572215Y-84132378D01*
X62619233Y-84082402D01*
X62679315Y-84047804D01*
X62748263Y-84033311D01*
X62821882Y-84043652D01*
X62881375Y-84073019D01*
X62939262Y-84130511D01*
X62968980Y-84200752D01*
X62970570Y-84275720D01*
X63421272Y-84275720D01*
X63410950Y-84216140D01*
X63392760Y-84149611D01*
X63380319Y-84111793D01*
X63311852Y-83947042D01*
X63226493Y-83800626D01*
X63127619Y-83676955D01*
X63018605Y-83580444D01*
X62935248Y-83530012D01*
X62827344Y-83493053D01*
X62712026Y-83481014D01*
X62597150Y-83492512D01*
G36*
X65326438Y-82953851D02*
G01*
X65272392Y-82993764D01*
X65229545Y-83056704D01*
X65216196Y-83123617D01*
X65228250Y-83188527D01*
X65261615Y-83245455D01*
X65312194Y-83288425D01*
X65375896Y-83311459D01*
X65448626Y-83308580D01*
X65480896Y-83298198D01*
X65540693Y-83257348D01*
X65576968Y-83198982D01*
X65589793Y-83131482D01*
X65579241Y-83063229D01*
X65545384Y-83002607D01*
X65488295Y-82957996D01*
X65477918Y-82953282D01*
X65398972Y-82936358D01*
X65326438Y-82953851D01*
G37*
X65326438Y-82953851D02*
X65272392Y-82993764D01*
X65229545Y-83056704D01*
X65216196Y-83123617D01*
X65228250Y-83188527D01*
X65261615Y-83245455D01*
X65312194Y-83288425D01*
X65375896Y-83311459D01*
X65448626Y-83308580D01*
X65480896Y-83298198D01*
X65540693Y-83257348D01*
X65576968Y-83198982D01*
X65589793Y-83131482D01*
X65579241Y-83063229D01*
X65545384Y-83002607D01*
X65488295Y-82957996D01*
X65477918Y-82953282D01*
X65398972Y-82936358D01*
X65326438Y-82953851D01*
G36*
X65329636Y-83893806D02*
G01*
X65280020Y-83927633D01*
X65237701Y-83978805D01*
X65212541Y-84033967D01*
X65209444Y-84056594D01*
X65223870Y-84119488D01*
X65261023Y-84181182D01*
X65311362Y-84226832D01*
X65322863Y-84233060D01*
X65375845Y-84254352D01*
X65418074Y-84257273D01*
X65467617Y-84242048D01*
X65484142Y-84235050D01*
X65542403Y-84192003D01*
X65579733Y-84128159D01*
X65590493Y-84054240D01*
X65588545Y-84036500D01*
X65560986Y-83963816D01*
X65509777Y-83911096D01*
X65442565Y-83882556D01*
X65366993Y-83882408D01*
X65329636Y-83893806D01*
G37*
X65329636Y-83893806D02*
X65280020Y-83927633D01*
X65237701Y-83978805D01*
X65212541Y-84033967D01*
X65209444Y-84056594D01*
X65223870Y-84119488D01*
X65261023Y-84181182D01*
X65311362Y-84226832D01*
X65322863Y-84233060D01*
X65375845Y-84254352D01*
X65418074Y-84257273D01*
X65467617Y-84242048D01*
X65484142Y-84235050D01*
X65542403Y-84192003D01*
X65579733Y-84128159D01*
X65590493Y-84054240D01*
X65588545Y-84036500D01*
X65560986Y-83963816D01*
X65509777Y-83911096D01*
X65442565Y-83882556D01*
X65366993Y-83882408D01*
X65329636Y-83893806D01*
G36*
X66758709Y-84355923D02*
G01*
X66701331Y-84387600D01*
X66657424Y-84436470D01*
X66631315Y-84496612D01*
X66627334Y-84562101D01*
X66649807Y-84627015D01*
X66679480Y-84664933D01*
X66717827Y-84697333D01*
X66750336Y-84715025D01*
X66756875Y-84716138D01*
X66796956Y-84721512D01*
X66806395Y-84724258D01*
X66837452Y-84723280D01*
X66881221Y-84709890D01*
X66884407Y-84708531D01*
X66946799Y-84664897D01*
X66984661Y-84604561D01*
X66997695Y-84535830D01*
X66985605Y-84467009D01*
X66948095Y-84406405D01*
X66896565Y-84367843D01*
X66825230Y-84347363D01*
X66758709Y-84355923D01*
G37*
X66758709Y-84355923D02*
X66701331Y-84387600D01*
X66657424Y-84436470D01*
X66631315Y-84496612D01*
X66627334Y-84562101D01*
X66649807Y-84627015D01*
X66679480Y-84664933D01*
X66717827Y-84697333D01*
X66750336Y-84715025D01*
X66756875Y-84716138D01*
X66796956Y-84721512D01*
X66806395Y-84724258D01*
X66837452Y-84723280D01*
X66881221Y-84709890D01*
X66884407Y-84708531D01*
X66946799Y-84664897D01*
X66984661Y-84604561D01*
X66997695Y-84535830D01*
X66985605Y-84467009D01*
X66948095Y-84406405D01*
X66896565Y-84367843D01*
X66825230Y-84347363D01*
X66758709Y-84355923D01*
G36*
X59699607Y-84830571D02*
G01*
X59645142Y-84863434D01*
X59634793Y-84872356D01*
X59597996Y-84910898D01*
X59581406Y-84949794D01*
X59577586Y-85005172D01*
X59581552Y-85061268D01*
X59598408Y-85100022D01*
X59634793Y-85137988D01*
X59689837Y-85175833D01*
X59749084Y-85188836D01*
X59761517Y-85189103D01*
X59823427Y-85179773D01*
X59877892Y-85146911D01*
X59888241Y-85137988D01*
X59925038Y-85099446D01*
X59941628Y-85060550D01*
X59945448Y-85005172D01*
X59941482Y-84949076D01*
X59924626Y-84910322D01*
X59888241Y-84872356D01*
X59833197Y-84834511D01*
X59773950Y-84821508D01*
X59761517Y-84821241D01*
X59699607Y-84830571D01*
G37*
X59699607Y-84830571D02*
X59645142Y-84863434D01*
X59634793Y-84872356D01*
X59597996Y-84910898D01*
X59581406Y-84949794D01*
X59577586Y-85005172D01*
X59581552Y-85061268D01*
X59598408Y-85100022D01*
X59634793Y-85137988D01*
X59689837Y-85175833D01*
X59749084Y-85188836D01*
X59761517Y-85189103D01*
X59823427Y-85179773D01*
X59877892Y-85146911D01*
X59888241Y-85137988D01*
X59925038Y-85099446D01*
X59941628Y-85060550D01*
X59945448Y-85005172D01*
X59941482Y-84949076D01*
X59924626Y-84910322D01*
X59888241Y-84872356D01*
X59833197Y-84834511D01*
X59773950Y-84821508D01*
X59761517Y-84821241D01*
X59699607Y-84830571D01*
G36*
X59941904Y-86235345D02*
G01*
X59903150Y-86252201D01*
X59865183Y-86288586D01*
X59822492Y-86358629D01*
X59813040Y-86432292D01*
X59836892Y-86503938D01*
X59862241Y-86538263D01*
X59921781Y-86582416D01*
X59992471Y-86602389D01*
X60061582Y-86594909D01*
X60070029Y-86591647D01*
X60131057Y-86548637D01*
X60168469Y-86487039D01*
X60180500Y-86415652D01*
X60165386Y-86343273D01*
X60130816Y-86288586D01*
X60092274Y-86251789D01*
X60053378Y-86235199D01*
X59998000Y-86231379D01*
X59941904Y-86235345D01*
G37*
X59941904Y-86235345D02*
X59903150Y-86252201D01*
X59865183Y-86288586D01*
X59822492Y-86358629D01*
X59813040Y-86432292D01*
X59836892Y-86503938D01*
X59862241Y-86538263D01*
X59921781Y-86582416D01*
X59992471Y-86602389D01*
X60061582Y-86594909D01*
X60070029Y-86591647D01*
X60131057Y-86548637D01*
X60168469Y-86487039D01*
X60180500Y-86415652D01*
X60165386Y-86343273D01*
X60130816Y-86288586D01*
X60092274Y-86251789D01*
X60053378Y-86235199D01*
X59998000Y-86231379D01*
X59941904Y-86235345D01*
G36*
X65286255Y-85543338D02*
G01*
X65279448Y-85546527D01*
X65285881Y-85565806D01*
X65303486Y-85610975D01*
X65329721Y-85675683D01*
X65362042Y-85753583D01*
X65368853Y-85769806D01*
X65412516Y-85876662D01*
X65461696Y-86002054D01*
X65513161Y-86137278D01*
X65563680Y-86273630D01*
X65610022Y-86402407D01*
X65648956Y-86514907D01*
X65673805Y-86591210D01*
X65703958Y-86688282D01*
X65921698Y-86681033D01*
X66120763Y-86681287D01*
X66340006Y-86693713D01*
X66567130Y-86717344D01*
X66770488Y-86747803D01*
X66866495Y-86766376D01*
X66981149Y-86791514D01*
X67105299Y-86820924D01*
X67229792Y-86852314D01*
X67345476Y-86883389D01*
X67443200Y-86911856D01*
X67501961Y-86931092D01*
X67562411Y-86950769D01*
X67600430Y-86956838D01*
X67625684Y-86949733D01*
X67640772Y-86937324D01*
X67657140Y-86911206D01*
X67657600Y-86877262D01*
X67640412Y-86830878D01*
X67603841Y-86767440D01*
X67546148Y-86682332D01*
X67543133Y-86678069D01*
X67357534Y-86445788D01*
X67147596Y-86238255D01*
X66914419Y-86056128D01*
X66659103Y-85900065D01*
X66382747Y-85770725D01*
X66086452Y-85668764D01*
X65771315Y-85594842D01*
X65717379Y-85585351D01*
X65630862Y-85572110D01*
X65541292Y-85560574D01*
X65455359Y-85551336D01*
X65379749Y-85544989D01*
X65321152Y-85542125D01*
X65286255Y-85543338D01*
G37*
X65286255Y-85543338D02*
X65279448Y-85546527D01*
X65285881Y-85565806D01*
X65303486Y-85610975D01*
X65329721Y-85675683D01*
X65362042Y-85753583D01*
X65368853Y-85769806D01*
X65412516Y-85876662D01*
X65461696Y-86002054D01*
X65513161Y-86137278D01*
X65563680Y-86273630D01*
X65610022Y-86402407D01*
X65648956Y-86514907D01*
X65673805Y-86591210D01*
X65703958Y-86688282D01*
X65921698Y-86681033D01*
X66120763Y-86681287D01*
X66340006Y-86693713D01*
X66567130Y-86717344D01*
X66770488Y-86747803D01*
X66866495Y-86766376D01*
X66981149Y-86791514D01*
X67105299Y-86820924D01*
X67229792Y-86852314D01*
X67345476Y-86883389D01*
X67443200Y-86911856D01*
X67501961Y-86931092D01*
X67562411Y-86950769D01*
X67600430Y-86956838D01*
X67625684Y-86949733D01*
X67640772Y-86937324D01*
X67657140Y-86911206D01*
X67657600Y-86877262D01*
X67640412Y-86830878D01*
X67603841Y-86767440D01*
X67546148Y-86682332D01*
X67543133Y-86678069D01*
X67357534Y-86445788D01*
X67147596Y-86238255D01*
X66914419Y-86056128D01*
X66659103Y-85900065D01*
X66382747Y-85770725D01*
X66086452Y-85668764D01*
X65771315Y-85594842D01*
X65717379Y-85585351D01*
X65630862Y-85572110D01*
X65541292Y-85560574D01*
X65455359Y-85551336D01*
X65379749Y-85544989D01*
X65321152Y-85542125D01*
X65286255Y-85543338D01*
G36*
X60761640Y-87237073D02*
G01*
X60701594Y-87280030D01*
X60664814Y-87346100D01*
X60654896Y-87414393D01*
X60670829Y-87475646D01*
X60712480Y-87530875D01*
X60770630Y-87571474D01*
X60836056Y-87588836D01*
X60841936Y-87588965D01*
X60898102Y-87581539D01*
X60946045Y-87563364D01*
X60950642Y-87560400D01*
X61003440Y-87505590D01*
X61028162Y-87440783D01*
X61027182Y-87373306D01*
X61002875Y-87310489D01*
X60957615Y-87259660D01*
X60893776Y-87228147D01*
X60840844Y-87221493D01*
X60761640Y-87237073D01*
G37*
X60761640Y-87237073D02*
X60701594Y-87280030D01*
X60664814Y-87346100D01*
X60654896Y-87414393D01*
X60670829Y-87475646D01*
X60712480Y-87530875D01*
X60770630Y-87571474D01*
X60836056Y-87588836D01*
X60841936Y-87588965D01*
X60898102Y-87581539D01*
X60946045Y-87563364D01*
X60950642Y-87560400D01*
X61003440Y-87505590D01*
X61028162Y-87440783D01*
X61027182Y-87373306D01*
X61002875Y-87310489D01*
X60957615Y-87259660D01*
X60893776Y-87228147D01*
X60840844Y-87221493D01*
X60761640Y-87237073D01*
G36*
X59699607Y-87650847D02*
G01*
X59645142Y-87683709D01*
X59634793Y-87692632D01*
X59597996Y-87731174D01*
X59581406Y-87770070D01*
X59577586Y-87825448D01*
X59581552Y-87881544D01*
X59598408Y-87920298D01*
X59634793Y-87958264D01*
X59689837Y-87996109D01*
X59749084Y-88009112D01*
X59761517Y-88009379D01*
X59823427Y-88000049D01*
X59877892Y-87967187D01*
X59888241Y-87958264D01*
X59925038Y-87919722D01*
X59941628Y-87880826D01*
X59945448Y-87825448D01*
X59941482Y-87769352D01*
X59924626Y-87730598D01*
X59888241Y-87692632D01*
X59833197Y-87654787D01*
X59773950Y-87641784D01*
X59761517Y-87641517D01*
X59699607Y-87650847D01*
G37*
X59699607Y-87650847D02*
X59645142Y-87683709D01*
X59634793Y-87692632D01*
X59597996Y-87731174D01*
X59581406Y-87770070D01*
X59577586Y-87825448D01*
X59581552Y-87881544D01*
X59598408Y-87920298D01*
X59634793Y-87958264D01*
X59689837Y-87996109D01*
X59749084Y-88009112D01*
X59761517Y-88009379D01*
X59823427Y-88000049D01*
X59877892Y-87967187D01*
X59888241Y-87958264D01*
X59925038Y-87919722D01*
X59941628Y-87880826D01*
X59945448Y-87825448D01*
X59941482Y-87769352D01*
X59924626Y-87730598D01*
X59888241Y-87692632D01*
X59833197Y-87654787D01*
X59773950Y-87641784D01*
X59761517Y-87641517D01*
X59699607Y-87650847D01*
G36*
X60250607Y-80944909D02*
G01*
X60240311Y-80972697D01*
X60230473Y-81031624D01*
X60221315Y-81117794D01*
X60213058Y-81227314D01*
X60205925Y-81356288D01*
X60200136Y-81500820D01*
X60195914Y-81657018D01*
X60193480Y-81820984D01*
X60192973Y-81957172D01*
X60208423Y-82513455D01*
X60253083Y-83052652D01*
X60326832Y-83574288D01*
X60429550Y-84077889D01*
X60561117Y-84562979D01*
X60721413Y-85029082D01*
X60910316Y-85475725D01*
X61127708Y-85902432D01*
X61242120Y-86100000D01*
X61458267Y-86444976D01*
X61687541Y-86785489D01*
X61926431Y-87117060D01*
X62171429Y-87435208D01*
X62419021Y-87735451D01*
X62665699Y-88013309D01*
X62907951Y-88264302D01*
X63029771Y-88381556D01*
X63156019Y-88499734D01*
X63258100Y-88372798D01*
X63399605Y-88211187D01*
X63565842Y-88045403D01*
X63748426Y-87882705D01*
X63938971Y-87730350D01*
X64129092Y-87595594D01*
X64229181Y-87532366D01*
X64478878Y-87395225D01*
X64744964Y-87273074D01*
X65017850Y-87169639D01*
X65287944Y-87088644D01*
X65485276Y-87044422D01*
X65541688Y-87032000D01*
X65581215Y-87019810D01*
X65594758Y-87011176D01*
X65589651Y-86986428D01*
X65575636Y-86934762D01*
X65554678Y-86862563D01*
X65528737Y-86776218D01*
X65499778Y-86682115D01*
X65469762Y-86586640D01*
X65440652Y-86496179D01*
X65414411Y-86417120D01*
X65395505Y-86362758D01*
X65225751Y-85923436D01*
X65029993Y-85474659D01*
X64812245Y-85025039D01*
X64576522Y-84583185D01*
X64516362Y-84476882D01*
X64440174Y-84348276D01*
X63727901Y-84348276D01*
X63725901Y-84485536D01*
X63717680Y-84598336D01*
X63701000Y-84697019D01*
X63673623Y-84791932D01*
X63633312Y-84893421D01*
X63589591Y-84987655D01*
X63480971Y-85173052D01*
X63345358Y-85338390D01*
X63185994Y-85481310D01*
X63006123Y-85599450D01*
X62808987Y-85690452D01*
X62597828Y-85751954D01*
X62519801Y-85766295D01*
X62418859Y-85775129D01*
X62297974Y-85775137D01*
X62170909Y-85767041D01*
X62051429Y-85751563D01*
X61986207Y-85738335D01*
X61885365Y-85707360D01*
X61769823Y-85661591D01*
X61653032Y-85607090D01*
X61548442Y-85549917D01*
X61501660Y-85519989D01*
X61343557Y-85390511D01*
X61206073Y-85235956D01*
X61091479Y-85061092D01*
X61002044Y-84870688D01*
X60940038Y-84669511D01*
X60907732Y-84462331D01*
X60906264Y-84269448D01*
X60937440Y-84055679D01*
X61000379Y-83850532D01*
X61092584Y-83657640D01*
X61211555Y-83480642D01*
X61354795Y-83323173D01*
X61519807Y-83188869D01*
X61704090Y-83081366D01*
X61731233Y-83068686D01*
X61895356Y-83005775D01*
X62060808Y-82967157D01*
X62238013Y-82950928D01*
X62371586Y-82951750D01*
X62514204Y-82960735D01*
X62633656Y-82977261D01*
X62741479Y-83004069D01*
X62849211Y-83043901D01*
X62945316Y-83088077D01*
X63136691Y-83200751D01*
X63305532Y-83339655D01*
X63450204Y-83502901D01*
X63569075Y-83688602D01*
X63660511Y-83894872D01*
X63671717Y-83927343D01*
X63693877Y-83996188D01*
X63709245Y-84052958D01*
X63719075Y-84107062D01*
X63724624Y-84167908D01*
X63727146Y-84244903D01*
X63727899Y-84347457D01*
X63727901Y-84348276D01*
X64440174Y-84348276D01*
X64352090Y-84199590D01*
X64190962Y-83948665D01*
X64027241Y-83716583D01*
X63855190Y-83495822D01*
X63669071Y-83278857D01*
X63463146Y-83058165D01*
X63335991Y-82929099D01*
X63013421Y-82621821D01*
X62684838Y-82338920D01*
X62343563Y-82075330D01*
X61982918Y-81825988D01*
X61596224Y-81585830D01*
X61460689Y-81507117D01*
X61346993Y-81443792D01*
X61222921Y-81377580D01*
X61092283Y-81310253D01*
X60958891Y-81243581D01*
X60826554Y-81179333D01*
X60699084Y-81119281D01*
X60580290Y-81065195D01*
X60473984Y-81018845D01*
X60383975Y-80982002D01*
X60314074Y-80956436D01*
X60268092Y-80943916D01*
X60250607Y-80944909D01*
G37*
X60250607Y-80944909D02*
X60240311Y-80972697D01*
X60230473Y-81031624D01*
X60221315Y-81117794D01*
X60213058Y-81227314D01*
X60205925Y-81356288D01*
X60200136Y-81500820D01*
X60195914Y-81657018D01*
X60193480Y-81820984D01*
X60192973Y-81957172D01*
X60208423Y-82513455D01*
X60253083Y-83052652D01*
X60326832Y-83574288D01*
X60429550Y-84077889D01*
X60561117Y-84562979D01*
X60721413Y-85029082D01*
X60910316Y-85475725D01*
X61127708Y-85902432D01*
X61242120Y-86100000D01*
X61458267Y-86444976D01*
X61687541Y-86785489D01*
X61926431Y-87117060D01*
X62171429Y-87435208D01*
X62419021Y-87735451D01*
X62665699Y-88013309D01*
X62907951Y-88264302D01*
X63029771Y-88381556D01*
X63156019Y-88499734D01*
X63258100Y-88372798D01*
X63399605Y-88211187D01*
X63565842Y-88045403D01*
X63748426Y-87882705D01*
X63938971Y-87730350D01*
X64129092Y-87595594D01*
X64229181Y-87532366D01*
X64478878Y-87395225D01*
X64744964Y-87273074D01*
X65017850Y-87169639D01*
X65287944Y-87088644D01*
X65485276Y-87044422D01*
X65541688Y-87032000D01*
X65581215Y-87019810D01*
X65594758Y-87011176D01*
X65589651Y-86986428D01*
X65575636Y-86934762D01*
X65554678Y-86862563D01*
X65528737Y-86776218D01*
X65499778Y-86682115D01*
X65469762Y-86586640D01*
X65440652Y-86496179D01*
X65414411Y-86417120D01*
X65395505Y-86362758D01*
X65225751Y-85923436D01*
X65029993Y-85474659D01*
X64812245Y-85025039D01*
X64576522Y-84583185D01*
X64516362Y-84476882D01*
X64440174Y-84348276D01*
X63727901Y-84348276D01*
X63725901Y-84485536D01*
X63717680Y-84598336D01*
X63701000Y-84697019D01*
X63673623Y-84791932D01*
X63633312Y-84893421D01*
X63589591Y-84987655D01*
X63480971Y-85173052D01*
X63345358Y-85338390D01*
X63185994Y-85481310D01*
X63006123Y-85599450D01*
X62808987Y-85690452D01*
X62597828Y-85751954D01*
X62519801Y-85766295D01*
X62418859Y-85775129D01*
X62297974Y-85775137D01*
X62170909Y-85767041D01*
X62051429Y-85751563D01*
X61986207Y-85738335D01*
X61885365Y-85707360D01*
X61769823Y-85661591D01*
X61653032Y-85607090D01*
X61548442Y-85549917D01*
X61501660Y-85519989D01*
X61343557Y-85390511D01*
X61206073Y-85235956D01*
X61091479Y-85061092D01*
X61002044Y-84870688D01*
X60940038Y-84669511D01*
X60907732Y-84462331D01*
X60906264Y-84269448D01*
X60937440Y-84055679D01*
X61000379Y-83850532D01*
X61092584Y-83657640D01*
X61211555Y-83480642D01*
X61354795Y-83323173D01*
X61519807Y-83188869D01*
X61704090Y-83081366D01*
X61731233Y-83068686D01*
X61895356Y-83005775D01*
X62060808Y-82967157D01*
X62238013Y-82950928D01*
X62371586Y-82951750D01*
X62514204Y-82960735D01*
X62633656Y-82977261D01*
X62741479Y-83004069D01*
X62849211Y-83043901D01*
X62945316Y-83088077D01*
X63136691Y-83200751D01*
X63305532Y-83339655D01*
X63450204Y-83502901D01*
X63569075Y-83688602D01*
X63660511Y-83894872D01*
X63671717Y-83927343D01*
X63693877Y-83996188D01*
X63709245Y-84052958D01*
X63719075Y-84107062D01*
X63724624Y-84167908D01*
X63727146Y-84244903D01*
X63727899Y-84347457D01*
X63727901Y-84348276D01*
X64440174Y-84348276D01*
X64352090Y-84199590D01*
X64190962Y-83948665D01*
X64027241Y-83716583D01*
X63855190Y-83495822D01*
X63669071Y-83278857D01*
X63463146Y-83058165D01*
X63335991Y-82929099D01*
X63013421Y-82621821D01*
X62684838Y-82338920D01*
X62343563Y-82075330D01*
X61982918Y-81825988D01*
X61596224Y-81585830D01*
X61460689Y-81507117D01*
X61346993Y-81443792D01*
X61222921Y-81377580D01*
X61092283Y-81310253D01*
X60958891Y-81243581D01*
X60826554Y-81179333D01*
X60699084Y-81119281D01*
X60580290Y-81065195D01*
X60473984Y-81018845D01*
X60383975Y-80982002D01*
X60314074Y-80956436D01*
X60268092Y-80943916D01*
X60250607Y-80944909D01*
G36*
X65526808Y-87235979D02*
G01*
X65461852Y-87247179D01*
X65425040Y-87254923D01*
X65086393Y-87348141D01*
X64758841Y-87473849D01*
X64444829Y-87630588D01*
X64146806Y-87816898D01*
X63867216Y-88031317D01*
X63608509Y-88272387D01*
X63472024Y-88420362D01*
X63418672Y-88482499D01*
X63375030Y-88535228D01*
X63345639Y-88572931D01*
X63335034Y-88589922D01*
X63347810Y-88605064D01*
X63381496Y-88635778D01*
X63429127Y-88676411D01*
X63483741Y-88721308D01*
X63538373Y-88764817D01*
X63586060Y-88801285D01*
X63619838Y-88825058D01*
X63632161Y-88831138D01*
X63647200Y-88818461D01*
X63680718Y-88785295D01*
X63727480Y-88736939D01*
X63772965Y-88688669D01*
X64016155Y-88453296D01*
X64286196Y-88239724D01*
X64582040Y-88048562D01*
X64902640Y-87880420D01*
X65246949Y-87735906D01*
X65613921Y-87615629D01*
X65622740Y-87613118D01*
X65676998Y-87597724D01*
X65643485Y-87422551D01*
X65628142Y-87347655D01*
X65613577Y-87285820D01*
X65601789Y-87245074D01*
X65596438Y-87233569D01*
X65574454Y-87231095D01*
X65526808Y-87235979D01*
G37*
X65526808Y-87235979D02*
X65461852Y-87247179D01*
X65425040Y-87254923D01*
X65086393Y-87348141D01*
X64758841Y-87473849D01*
X64444829Y-87630588D01*
X64146806Y-87816898D01*
X63867216Y-88031317D01*
X63608509Y-88272387D01*
X63472024Y-88420362D01*
X63418672Y-88482499D01*
X63375030Y-88535228D01*
X63345639Y-88572931D01*
X63335034Y-88589922D01*
X63347810Y-88605064D01*
X63381496Y-88635778D01*
X63429127Y-88676411D01*
X63483741Y-88721308D01*
X63538373Y-88764817D01*
X63586060Y-88801285D01*
X63619838Y-88825058D01*
X63632161Y-88831138D01*
X63647200Y-88818461D01*
X63680718Y-88785295D01*
X63727480Y-88736939D01*
X63772965Y-88688669D01*
X64016155Y-88453296D01*
X64286196Y-88239724D01*
X64582040Y-88048562D01*
X64902640Y-87880420D01*
X65246949Y-87735906D01*
X65613921Y-87615629D01*
X65622740Y-87613118D01*
X65676998Y-87597724D01*
X65643485Y-87422551D01*
X65628142Y-87347655D01*
X65613577Y-87285820D01*
X65601789Y-87245074D01*
X65596438Y-87233569D01*
X65574454Y-87231095D01*
X65526808Y-87235979D01*
G36*
X63112576Y-80995425D02*
G01*
X62952485Y-80998722D01*
X62812078Y-81005371D01*
X62683702Y-81016112D01*
X62559708Y-81031684D01*
X62432444Y-81052827D01*
X62294261Y-81080280D01*
X62197317Y-81101334D01*
X62115963Y-81120844D01*
X62022717Y-81145495D01*
X61923252Y-81173522D01*
X61823242Y-81203158D01*
X61728361Y-81232639D01*
X61644285Y-81260199D01*
X61576686Y-81284072D01*
X61531239Y-81302493D01*
X61513619Y-81313695D01*
X61513570Y-81314093D01*
X61527936Y-81327492D01*
X61566434Y-81353736D01*
X61622604Y-81388594D01*
X61668505Y-81415581D01*
X61823112Y-81504611D01*
X61900280Y-81480785D01*
X62258883Y-81387054D01*
X62632302Y-81321707D01*
X63014243Y-81285168D01*
X63398412Y-81277862D01*
X63778515Y-81300212D01*
X64052215Y-81335888D01*
X64445341Y-81417423D01*
X64830013Y-81532436D01*
X65203975Y-81679926D01*
X65564975Y-81858891D01*
X65910760Y-82068327D01*
X66239076Y-82307234D01*
X66242896Y-82310272D01*
X66348660Y-82399591D01*
X66468302Y-82509141D01*
X66594337Y-82631389D01*
X66719277Y-82758799D01*
X66835635Y-82883838D01*
X66935925Y-82998972D01*
X66974865Y-83046868D01*
X67215055Y-83378465D01*
X67424567Y-83725885D01*
X67602738Y-84087538D01*
X67748906Y-84461837D01*
X67862410Y-84847194D01*
X67942588Y-85242021D01*
X67968782Y-85432207D01*
X67981480Y-85575619D01*
X67989684Y-85743361D01*
X67993393Y-85925019D01*
X67992611Y-86110178D01*
X67987337Y-86288424D01*
X67977575Y-86449343D01*
X67968622Y-86541429D01*
X67904815Y-86937346D01*
X67807398Y-87325067D01*
X67677224Y-87702700D01*
X67515148Y-88068353D01*
X67322021Y-88420134D01*
X67098698Y-88756149D01*
X66846032Y-89074508D01*
X66805687Y-89120585D01*
X66682424Y-89259583D01*
X66693198Y-89400860D01*
X66700244Y-89492766D01*
X66707758Y-89554780D01*
X66719823Y-89587799D01*
X66740520Y-89592721D01*
X66773930Y-89570444D01*
X66824134Y-89521864D01*
X66895214Y-89447881D01*
X66897269Y-89445739D01*
X67176108Y-89130320D01*
X67425698Y-88795984D01*
X67645387Y-88444053D01*
X67834525Y-88075850D01*
X67992460Y-87692696D01*
X68118540Y-87295913D01*
X68212114Y-86886824D01*
X68240267Y-86720229D01*
X68263169Y-86532156D01*
X68279085Y-86321163D01*
X68287760Y-86098667D01*
X68288940Y-85876085D01*
X68282370Y-85664834D01*
X68267989Y-85478138D01*
X68206027Y-85058581D01*
X68111428Y-84650879D01*
X67984714Y-84256148D01*
X67826405Y-83875504D01*
X67637022Y-83510064D01*
X67417087Y-83160942D01*
X67167120Y-82829255D01*
X66887642Y-82516120D01*
X66882753Y-82511081D01*
X66574173Y-82217639D01*
X66248152Y-81954581D01*
X65904700Y-81721914D01*
X65543829Y-81519644D01*
X65165550Y-81347777D01*
X64769872Y-81206319D01*
X64482413Y-81125361D01*
X64318923Y-81086329D01*
X64168012Y-81055516D01*
X64021950Y-81032066D01*
X63873004Y-81015127D01*
X63713444Y-81003844D01*
X63535537Y-80997363D01*
X63331553Y-80994829D01*
X63300000Y-80994740D01*
X63112576Y-80995425D01*
G37*
X63112576Y-80995425D02*
X62952485Y-80998722D01*
X62812078Y-81005371D01*
X62683702Y-81016112D01*
X62559708Y-81031684D01*
X62432444Y-81052827D01*
X62294261Y-81080280D01*
X62197317Y-81101334D01*
X62115963Y-81120844D01*
X62022717Y-81145495D01*
X61923252Y-81173522D01*
X61823242Y-81203158D01*
X61728361Y-81232639D01*
X61644285Y-81260199D01*
X61576686Y-81284072D01*
X61531239Y-81302493D01*
X61513619Y-81313695D01*
X61513570Y-81314093D01*
X61527936Y-81327492D01*
X61566434Y-81353736D01*
X61622604Y-81388594D01*
X61668505Y-81415581D01*
X61823112Y-81504611D01*
X61900280Y-81480785D01*
X62258883Y-81387054D01*
X62632302Y-81321707D01*
X63014243Y-81285168D01*
X63398412Y-81277862D01*
X63778515Y-81300212D01*
X64052215Y-81335888D01*
X64445341Y-81417423D01*
X64830013Y-81532436D01*
X65203975Y-81679926D01*
X65564975Y-81858891D01*
X65910760Y-82068327D01*
X66239076Y-82307234D01*
X66242896Y-82310272D01*
X66348660Y-82399591D01*
X66468302Y-82509141D01*
X66594337Y-82631389D01*
X66719277Y-82758799D01*
X66835635Y-82883838D01*
X66935925Y-82998972D01*
X66974865Y-83046868D01*
X67215055Y-83378465D01*
X67424567Y-83725885D01*
X67602738Y-84087538D01*
X67748906Y-84461837D01*
X67862410Y-84847194D01*
X67942588Y-85242021D01*
X67968782Y-85432207D01*
X67981480Y-85575619D01*
X67989684Y-85743361D01*
X67993393Y-85925019D01*
X67992611Y-86110178D01*
X67987337Y-86288424D01*
X67977575Y-86449343D01*
X67968622Y-86541429D01*
X67904815Y-86937346D01*
X67807398Y-87325067D01*
X67677224Y-87702700D01*
X67515148Y-88068353D01*
X67322021Y-88420134D01*
X67098698Y-88756149D01*
X66846032Y-89074508D01*
X66805687Y-89120585D01*
X66682424Y-89259583D01*
X66693198Y-89400860D01*
X66700244Y-89492766D01*
X66707758Y-89554780D01*
X66719823Y-89587799D01*
X66740520Y-89592721D01*
X66773930Y-89570444D01*
X66824134Y-89521864D01*
X66895214Y-89447881D01*
X66897269Y-89445739D01*
X67176108Y-89130320D01*
X67425698Y-88795984D01*
X67645387Y-88444053D01*
X67834525Y-88075850D01*
X67992460Y-87692696D01*
X68118540Y-87295913D01*
X68212114Y-86886824D01*
X68240267Y-86720229D01*
X68263169Y-86532156D01*
X68279085Y-86321163D01*
X68287760Y-86098667D01*
X68288940Y-85876085D01*
X68282370Y-85664834D01*
X68267989Y-85478138D01*
X68206027Y-85058581D01*
X68111428Y-84650879D01*
X67984714Y-84256148D01*
X67826405Y-83875504D01*
X67637022Y-83510064D01*
X67417087Y-83160942D01*
X67167120Y-82829255D01*
X66887642Y-82516120D01*
X66882753Y-82511081D01*
X66574173Y-82217639D01*
X66248152Y-81954581D01*
X65904700Y-81721914D01*
X65543829Y-81519644D01*
X65165550Y-81347777D01*
X64769872Y-81206319D01*
X64482413Y-81125361D01*
X64318923Y-81086329D01*
X64168012Y-81055516D01*
X64021950Y-81032066D01*
X63873004Y-81015127D01*
X63713444Y-81003844D01*
X63535537Y-80997363D01*
X63331553Y-80994829D01*
X63300000Y-80994740D01*
X63112576Y-80995425D01*
G36*
X61942470Y-87633031D02*
G01*
X61898671Y-87739982D01*
X61851900Y-87869601D01*
X61805926Y-88010173D01*
X61764517Y-88149987D01*
X61731443Y-88277329D01*
X61722717Y-88315931D01*
X61705623Y-88408518D01*
X61692862Y-88510238D01*
X61683692Y-88629021D01*
X61677374Y-88772797D01*
X61676109Y-88815172D01*
X61673796Y-88986163D01*
X61677927Y-89132280D01*
X61689697Y-89263291D01*
X61710300Y-89388961D01*
X61740929Y-89519055D01*
X61777824Y-89647241D01*
X61805194Y-89727974D01*
X61840909Y-89820763D01*
X61881844Y-89918738D01*
X61924874Y-90015033D01*
X61966875Y-90102777D01*
X62004721Y-90175103D01*
X62035289Y-90225142D01*
X62047714Y-90240522D01*
X62089583Y-90265274D01*
X62132018Y-90264649D01*
X62156112Y-90247207D01*
X62165381Y-90222662D01*
X62179244Y-90170673D01*
X62196003Y-90098260D01*
X62213958Y-90012441D01*
X62218608Y-89988827D01*
X62279529Y-89718652D01*
X62356559Y-89447836D01*
X62446980Y-89183801D01*
X62548076Y-88933972D01*
X62657126Y-88705772D01*
X62746803Y-88546180D01*
X62809194Y-88443602D01*
X62631883Y-88257146D01*
X62550990Y-88170387D01*
X62458724Y-88068738D01*
X62365987Y-87964352D01*
X62283678Y-87869381D01*
X62277320Y-87861906D01*
X62211229Y-87784233D01*
X62148545Y-87710881D01*
X62094864Y-87648376D01*
X62055781Y-87603242D01*
X62044733Y-87590661D01*
X61989398Y-87528199D01*
X61942470Y-87633031D01*
G37*
X61942470Y-87633031D02*
X61898671Y-87739982D01*
X61851900Y-87869601D01*
X61805926Y-88010173D01*
X61764517Y-88149987D01*
X61731443Y-88277329D01*
X61722717Y-88315931D01*
X61705623Y-88408518D01*
X61692862Y-88510238D01*
X61683692Y-88629021D01*
X61677374Y-88772797D01*
X61676109Y-88815172D01*
X61673796Y-88986163D01*
X61677927Y-89132280D01*
X61689697Y-89263291D01*
X61710300Y-89388961D01*
X61740929Y-89519055D01*
X61777824Y-89647241D01*
X61805194Y-89727974D01*
X61840909Y-89820763D01*
X61881844Y-89918738D01*
X61924874Y-90015033D01*
X61966875Y-90102777D01*
X62004721Y-90175103D01*
X62035289Y-90225142D01*
X62047714Y-90240522D01*
X62089583Y-90265274D01*
X62132018Y-90264649D01*
X62156112Y-90247207D01*
X62165381Y-90222662D01*
X62179244Y-90170673D01*
X62196003Y-90098260D01*
X62213958Y-90012441D01*
X62218608Y-89988827D01*
X62279529Y-89718652D01*
X62356559Y-89447836D01*
X62446980Y-89183801D01*
X62548076Y-88933972D01*
X62657126Y-88705772D01*
X62746803Y-88546180D01*
X62809194Y-88443602D01*
X62631883Y-88257146D01*
X62550990Y-88170387D01*
X62458724Y-88068738D01*
X62365987Y-87964352D01*
X62283678Y-87869381D01*
X62277320Y-87861906D01*
X62211229Y-87784233D01*
X62148545Y-87710881D01*
X62094864Y-87648376D01*
X62055781Y-87603242D01*
X62044733Y-87590661D01*
X61989398Y-87528199D01*
X61942470Y-87633031D01*
G36*
X59970880Y-82241068D02*
G01*
X59932990Y-82275479D01*
X59879489Y-82327833D01*
X59814243Y-82394043D01*
X59741122Y-82470019D01*
X59663994Y-82551673D01*
X59586726Y-82634916D01*
X59513188Y-82715661D01*
X59447246Y-82789819D01*
X59392770Y-82853300D01*
X59359505Y-82894345D01*
X59110871Y-83242313D01*
X58894655Y-83603534D01*
X58710929Y-83977827D01*
X58559765Y-84365013D01*
X58441236Y-84764914D01*
X58355415Y-85177349D01*
X58313698Y-85484001D01*
X58299923Y-85664187D01*
X58293661Y-85867579D01*
X58294657Y-86083219D01*
X58302657Y-86300152D01*
X58317404Y-86507420D01*
X58338644Y-86694067D01*
X58342468Y-86720229D01*
X58421049Y-87126199D01*
X58531373Y-87519904D01*
X58672035Y-87899910D01*
X58841633Y-88264783D01*
X59038760Y-88613090D01*
X59262011Y-88943397D01*
X59509983Y-89254271D01*
X59781271Y-89544278D01*
X60074470Y-89811985D01*
X60388176Y-90055959D01*
X60720983Y-90274765D01*
X61071487Y-90466971D01*
X61438284Y-90631143D01*
X61819969Y-90765847D01*
X62215137Y-90869650D01*
X62453533Y-90915734D01*
X62672970Y-90946769D01*
X62905934Y-90969273D01*
X63141621Y-90982699D01*
X63369227Y-90986503D01*
X63577948Y-90980140D01*
X63641586Y-90975655D01*
X63904600Y-90947448D01*
X64168793Y-90906748D01*
X64423748Y-90855507D01*
X64659045Y-90795674D01*
X64751506Y-90767815D01*
X64950530Y-90704553D01*
X64638126Y-90502523D01*
X64411373Y-90559009D01*
X64229566Y-90601066D01*
X64058497Y-90633142D01*
X63887909Y-90656530D01*
X63707542Y-90672523D01*
X63507137Y-90682414D01*
X63410705Y-90685150D01*
X63128075Y-90686003D01*
X62868446Y-90673967D01*
X62621800Y-90647874D01*
X62378121Y-90606552D01*
X62127391Y-90548832D01*
X62036307Y-90524592D01*
X61655358Y-90402082D01*
X61288359Y-90248182D01*
X60937069Y-90064346D01*
X60603245Y-89852026D01*
X60288645Y-89612678D01*
X59995028Y-89347756D01*
X59724152Y-89058713D01*
X59477775Y-88747003D01*
X59257656Y-88414081D01*
X59070824Y-88072121D01*
X58936404Y-87778495D01*
X58826323Y-87489321D01*
X58737309Y-87194286D01*
X58666093Y-86883076D01*
X58630380Y-86683277D01*
X58618133Y-86585649D01*
X58607924Y-86460829D01*
X58599925Y-86316607D01*
X58594308Y-86160776D01*
X58591246Y-86001129D01*
X58590910Y-85845456D01*
X58593473Y-85701550D01*
X58599106Y-85577203D01*
X58604480Y-85510712D01*
X58662407Y-85109922D01*
X58753822Y-84718230D01*
X58877998Y-84337221D01*
X59034203Y-83968479D01*
X59221708Y-83613589D01*
X59439784Y-83274134D01*
X59687700Y-82951698D01*
X59885616Y-82729547D01*
X60024687Y-82582629D01*
X60013089Y-82405659D01*
X60007125Y-82331756D01*
X60000247Y-82272994D01*
X59993448Y-82236736D01*
X59989290Y-82228689D01*
X59970880Y-82241068D01*
G37*
X59970880Y-82241068D02*
X59932990Y-82275479D01*
X59879489Y-82327833D01*
X59814243Y-82394043D01*
X59741122Y-82470019D01*
X59663994Y-82551673D01*
X59586726Y-82634916D01*
X59513188Y-82715661D01*
X59447246Y-82789819D01*
X59392770Y-82853300D01*
X59359505Y-82894345D01*
X59110871Y-83242313D01*
X58894655Y-83603534D01*
X58710929Y-83977827D01*
X58559765Y-84365013D01*
X58441236Y-84764914D01*
X58355415Y-85177349D01*
X58313698Y-85484001D01*
X58299923Y-85664187D01*
X58293661Y-85867579D01*
X58294657Y-86083219D01*
X58302657Y-86300152D01*
X58317404Y-86507420D01*
X58338644Y-86694067D01*
X58342468Y-86720229D01*
X58421049Y-87126199D01*
X58531373Y-87519904D01*
X58672035Y-87899910D01*
X58841633Y-88264783D01*
X59038760Y-88613090D01*
X59262011Y-88943397D01*
X59509983Y-89254271D01*
X59781271Y-89544278D01*
X60074470Y-89811985D01*
X60388176Y-90055959D01*
X60720983Y-90274765D01*
X61071487Y-90466971D01*
X61438284Y-90631143D01*
X61819969Y-90765847D01*
X62215137Y-90869650D01*
X62453533Y-90915734D01*
X62672970Y-90946769D01*
X62905934Y-90969273D01*
X63141621Y-90982699D01*
X63369227Y-90986503D01*
X63577948Y-90980140D01*
X63641586Y-90975655D01*
X63904600Y-90947448D01*
X64168793Y-90906748D01*
X64423748Y-90855507D01*
X64659045Y-90795674D01*
X64751506Y-90767815D01*
X64950530Y-90704553D01*
X64638126Y-90502523D01*
X64411373Y-90559009D01*
X64229566Y-90601066D01*
X64058497Y-90633142D01*
X63887909Y-90656530D01*
X63707542Y-90672523D01*
X63507137Y-90682414D01*
X63410705Y-90685150D01*
X63128075Y-90686003D01*
X62868446Y-90673967D01*
X62621800Y-90647874D01*
X62378121Y-90606552D01*
X62127391Y-90548832D01*
X62036307Y-90524592D01*
X61655358Y-90402082D01*
X61288359Y-90248182D01*
X60937069Y-90064346D01*
X60603245Y-89852026D01*
X60288645Y-89612678D01*
X59995028Y-89347756D01*
X59724152Y-89058713D01*
X59477775Y-88747003D01*
X59257656Y-88414081D01*
X59070824Y-88072121D01*
X58936404Y-87778495D01*
X58826323Y-87489321D01*
X58737309Y-87194286D01*
X58666093Y-86883076D01*
X58630380Y-86683277D01*
X58618133Y-86585649D01*
X58607924Y-86460829D01*
X58599925Y-86316607D01*
X58594308Y-86160776D01*
X58591246Y-86001129D01*
X58590910Y-85845456D01*
X58593473Y-85701550D01*
X58599106Y-85577203D01*
X58604480Y-85510712D01*
X58662407Y-85109922D01*
X58753822Y-84718230D01*
X58877998Y-84337221D01*
X59034203Y-83968479D01*
X59221708Y-83613589D01*
X59439784Y-83274134D01*
X59687700Y-82951698D01*
X59885616Y-82729547D01*
X60024687Y-82582629D01*
X60013089Y-82405659D01*
X60007125Y-82331756D01*
X60000247Y-82272994D01*
X59993448Y-82236736D01*
X59989290Y-82228689D01*
X59970880Y-82241068D01*
%TD*%
M02*
