%TF.GenerationSoftware,KiCad,Pcbnew,5.1.9+dfsg1-1~bpo10+1*%
%TF.CreationDate,2021-03-04T17:44:12+01:00*%
%TF.ProjectId,candleLight,63616e64-6c65-44c6-9967-68742e6b6963,R01*%
%TF.SameCoordinates,Original*%
%TF.FileFunction,OtherDrawing,Comment*%
%FSLAX46Y46*%
G04 Gerber Fmt 4.6, Leading zero omitted, Abs format (unit mm)*
G04 Created by KiCad (PCBNEW 5.1.9+dfsg1-1~bpo10+1) date 2021-03-04 17:44:12*
%MOMM*%
%LPD*%
G01*
G04 APERTURE LIST*
%ADD10C,0.100000*%
%ADD11C,0.150000*%
%ADD12C,0.300000*%
%ADD13C,0.400000*%
%ADD14C,0.250000*%
%TA.AperFunction,Profile*%
%ADD15C,0.150000*%
%TD*%
G04 APERTURE END LIST*
D10*
D11*
X177002200Y-180007200D02*
X177002200Y-200007200D01*
X287002200Y-200007200D01*
X287002200Y-180007200D01*
X177002200Y-180007200D01*
D10*
D11*
X10000000Y-10000000D02*
X10000000Y-200007200D01*
X287002200Y-200007200D01*
X287002200Y-10000000D01*
X10000000Y-10000000D01*
D10*
D11*
X200434342Y-195785771D02*
X200434342Y-194285771D01*
X200791485Y-194285771D01*
X201005771Y-194357200D01*
X201148628Y-194500057D01*
X201220057Y-194642914D01*
X201291485Y-194928628D01*
X201291485Y-195142914D01*
X201220057Y-195428628D01*
X201148628Y-195571485D01*
X201005771Y-195714342D01*
X200791485Y-195785771D01*
X200434342Y-195785771D01*
X202577200Y-195785771D02*
X202577200Y-195000057D01*
X202505771Y-194857200D01*
X202362914Y-194785771D01*
X202077200Y-194785771D01*
X201934342Y-194857200D01*
X202577200Y-195714342D02*
X202434342Y-195785771D01*
X202077200Y-195785771D01*
X201934342Y-195714342D01*
X201862914Y-195571485D01*
X201862914Y-195428628D01*
X201934342Y-195285771D01*
X202077200Y-195214342D01*
X202434342Y-195214342D01*
X202577200Y-195142914D01*
X203077200Y-194785771D02*
X203648628Y-194785771D01*
X203291485Y-194285771D02*
X203291485Y-195571485D01*
X203362914Y-195714342D01*
X203505771Y-195785771D01*
X203648628Y-195785771D01*
X204720057Y-195714342D02*
X204577200Y-195785771D01*
X204291485Y-195785771D01*
X204148628Y-195714342D01*
X204077200Y-195571485D01*
X204077200Y-195000057D01*
X204148628Y-194857200D01*
X204291485Y-194785771D01*
X204577200Y-194785771D01*
X204720057Y-194857200D01*
X204791485Y-195000057D01*
X204791485Y-195142914D01*
X204077200Y-195285771D01*
X205434342Y-195642914D02*
X205505771Y-195714342D01*
X205434342Y-195785771D01*
X205362914Y-195714342D01*
X205434342Y-195642914D01*
X205434342Y-195785771D01*
X205434342Y-194857200D02*
X205505771Y-194928628D01*
X205434342Y-195000057D01*
X205362914Y-194928628D01*
X205434342Y-194857200D01*
X205434342Y-195000057D01*
X207220057Y-194428628D02*
X207291485Y-194357200D01*
X207434342Y-194285771D01*
X207791485Y-194285771D01*
X207934342Y-194357200D01*
X208005771Y-194428628D01*
X208077200Y-194571485D01*
X208077200Y-194714342D01*
X208005771Y-194928628D01*
X207148628Y-195785771D01*
X208077200Y-195785771D01*
X209005771Y-194285771D02*
X209148628Y-194285771D01*
X209291485Y-194357200D01*
X209362914Y-194428628D01*
X209434342Y-194571485D01*
X209505771Y-194857200D01*
X209505771Y-195214342D01*
X209434342Y-195500057D01*
X209362914Y-195642914D01*
X209291485Y-195714342D01*
X209148628Y-195785771D01*
X209005771Y-195785771D01*
X208862914Y-195714342D01*
X208791485Y-195642914D01*
X208720057Y-195500057D01*
X208648628Y-195214342D01*
X208648628Y-194857200D01*
X208720057Y-194571485D01*
X208791485Y-194428628D01*
X208862914Y-194357200D01*
X209005771Y-194285771D01*
X210077200Y-194428628D02*
X210148628Y-194357200D01*
X210291485Y-194285771D01*
X210648628Y-194285771D01*
X210791485Y-194357200D01*
X210862914Y-194428628D01*
X210934342Y-194571485D01*
X210934342Y-194714342D01*
X210862914Y-194928628D01*
X210005771Y-195785771D01*
X210934342Y-195785771D01*
X212362914Y-195785771D02*
X211505771Y-195785771D01*
X211934342Y-195785771D02*
X211934342Y-194285771D01*
X211791485Y-194500057D01*
X211648628Y-194642914D01*
X211505771Y-194714342D01*
X213005771Y-195214342D02*
X214148628Y-195214342D01*
X215148628Y-194285771D02*
X215291485Y-194285771D01*
X215434342Y-194357200D01*
X215505771Y-194428628D01*
X215577200Y-194571485D01*
X215648628Y-194857200D01*
X215648628Y-195214342D01*
X215577200Y-195500057D01*
X215505771Y-195642914D01*
X215434342Y-195714342D01*
X215291485Y-195785771D01*
X215148628Y-195785771D01*
X215005771Y-195714342D01*
X214934342Y-195642914D01*
X214862914Y-195500057D01*
X214791485Y-195214342D01*
X214791485Y-194857200D01*
X214862914Y-194571485D01*
X214934342Y-194428628D01*
X215005771Y-194357200D01*
X215148628Y-194285771D01*
X216148628Y-194285771D02*
X217077200Y-194285771D01*
X216577200Y-194857200D01*
X216791485Y-194857200D01*
X216934342Y-194928628D01*
X217005771Y-195000057D01*
X217077200Y-195142914D01*
X217077200Y-195500057D01*
X217005771Y-195642914D01*
X216934342Y-195714342D01*
X216791485Y-195785771D01*
X216362914Y-195785771D01*
X216220057Y-195714342D01*
X216148628Y-195642914D01*
X217720057Y-195214342D02*
X218862914Y-195214342D01*
X219862914Y-194285771D02*
X220005771Y-194285771D01*
X220148628Y-194357200D01*
X220220057Y-194428628D01*
X220291485Y-194571485D01*
X220362914Y-194857200D01*
X220362914Y-195214342D01*
X220291485Y-195500057D01*
X220220057Y-195642914D01*
X220148628Y-195714342D01*
X220005771Y-195785771D01*
X219862914Y-195785771D01*
X219720057Y-195714342D01*
X219648628Y-195642914D01*
X219577200Y-195500057D01*
X219505771Y-195214342D01*
X219505771Y-194857200D01*
X219577200Y-194571485D01*
X219648628Y-194428628D01*
X219720057Y-194357200D01*
X219862914Y-194285771D01*
X220862914Y-194285771D02*
X221791485Y-194285771D01*
X221291485Y-194857200D01*
X221505771Y-194857200D01*
X221648628Y-194928628D01*
X221720057Y-195000057D01*
X221791485Y-195142914D01*
X221791485Y-195500057D01*
X221720057Y-195642914D01*
X221648628Y-195714342D01*
X221505771Y-195785771D01*
X221077200Y-195785771D01*
X220934342Y-195714342D01*
X220862914Y-195642914D01*
D10*
D11*
X178434342Y-188385771D02*
X178434342Y-186885771D01*
X178934342Y-187385771D02*
X179505771Y-187385771D01*
X179148628Y-186885771D02*
X179148628Y-188171485D01*
X179220057Y-188314342D01*
X179362914Y-188385771D01*
X179505771Y-188385771D01*
X180577200Y-188314342D02*
X180434342Y-188385771D01*
X180148628Y-188385771D01*
X180005771Y-188314342D01*
X179934342Y-188171485D01*
X179934342Y-187600057D01*
X180005771Y-187457200D01*
X180148628Y-187385771D01*
X180434342Y-187385771D01*
X180577200Y-187457200D01*
X180648628Y-187600057D01*
X180648628Y-187742914D01*
X179934342Y-187885771D01*
X181291485Y-188385771D02*
X181291485Y-187385771D01*
X181291485Y-187528628D02*
X181362914Y-187457200D01*
X181505771Y-187385771D01*
X181720057Y-187385771D01*
X181862914Y-187457200D01*
X181934342Y-187600057D01*
X181934342Y-188385771D01*
X181934342Y-187600057D02*
X182005771Y-187457200D01*
X182148628Y-187385771D01*
X182362914Y-187385771D01*
X182505771Y-187457200D01*
X182577200Y-187600057D01*
X182577200Y-188385771D01*
X183291485Y-188242914D02*
X183362914Y-188314342D01*
X183291485Y-188385771D01*
X183220057Y-188314342D01*
X183291485Y-188242914D01*
X183291485Y-188385771D01*
X183291485Y-187457200D02*
X183362914Y-187528628D01*
X183291485Y-187600057D01*
X183220057Y-187528628D01*
X183291485Y-187457200D01*
X183291485Y-187600057D01*
X185791485Y-188314342D02*
X185648628Y-188385771D01*
X185362914Y-188385771D01*
X185220057Y-188314342D01*
X185148628Y-188242914D01*
X185077200Y-188100057D01*
X185077200Y-187671485D01*
X185148628Y-187528628D01*
X185220057Y-187457200D01*
X185362914Y-187385771D01*
X185648628Y-187385771D01*
X185791485Y-187457200D01*
X187077200Y-188385771D02*
X187077200Y-187600057D01*
X187005771Y-187457200D01*
X186862914Y-187385771D01*
X186577200Y-187385771D01*
X186434342Y-187457200D01*
X187077200Y-188314342D02*
X186934342Y-188385771D01*
X186577200Y-188385771D01*
X186434342Y-188314342D01*
X186362914Y-188171485D01*
X186362914Y-188028628D01*
X186434342Y-187885771D01*
X186577200Y-187814342D01*
X186934342Y-187814342D01*
X187077200Y-187742914D01*
X187791485Y-187385771D02*
X187791485Y-188385771D01*
X187791485Y-187528628D02*
X187862914Y-187457200D01*
X188005771Y-187385771D01*
X188220057Y-187385771D01*
X188362914Y-187457200D01*
X188434342Y-187600057D01*
X188434342Y-188385771D01*
X189791485Y-188385771D02*
X189791485Y-186885771D01*
X189791485Y-188314342D02*
X189648628Y-188385771D01*
X189362914Y-188385771D01*
X189220057Y-188314342D01*
X189148628Y-188242914D01*
X189077200Y-188100057D01*
X189077200Y-187671485D01*
X189148628Y-187528628D01*
X189220057Y-187457200D01*
X189362914Y-187385771D01*
X189648628Y-187385771D01*
X189791485Y-187457200D01*
X190720057Y-188385771D02*
X190577200Y-188314342D01*
X190505771Y-188171485D01*
X190505771Y-186885771D01*
X191862914Y-188314342D02*
X191720057Y-188385771D01*
X191434342Y-188385771D01*
X191291485Y-188314342D01*
X191220057Y-188171485D01*
X191220057Y-187600057D01*
X191291485Y-187457200D01*
X191434342Y-187385771D01*
X191720057Y-187385771D01*
X191862914Y-187457200D01*
X191934342Y-187600057D01*
X191934342Y-187742914D01*
X191220057Y-187885771D01*
X192791485Y-188385771D02*
X192648628Y-188314342D01*
X192577200Y-188171485D01*
X192577200Y-186885771D01*
X193362914Y-188385771D02*
X193362914Y-187385771D01*
X193362914Y-186885771D02*
X193291485Y-186957200D01*
X193362914Y-187028628D01*
X193434342Y-186957200D01*
X193362914Y-186885771D01*
X193362914Y-187028628D01*
X194720057Y-187385771D02*
X194720057Y-188600057D01*
X194648628Y-188742914D01*
X194577200Y-188814342D01*
X194434342Y-188885771D01*
X194220057Y-188885771D01*
X194077200Y-188814342D01*
X194720057Y-188314342D02*
X194577200Y-188385771D01*
X194291485Y-188385771D01*
X194148628Y-188314342D01*
X194077200Y-188242914D01*
X194005771Y-188100057D01*
X194005771Y-187671485D01*
X194077200Y-187528628D01*
X194148628Y-187457200D01*
X194291485Y-187385771D01*
X194577200Y-187385771D01*
X194720057Y-187457200D01*
X195434342Y-188385771D02*
X195434342Y-186885771D01*
X196077200Y-188385771D02*
X196077200Y-187600057D01*
X196005771Y-187457200D01*
X195862914Y-187385771D01*
X195648628Y-187385771D01*
X195505771Y-187457200D01*
X195434342Y-187528628D01*
X196577200Y-187385771D02*
X197148628Y-187385771D01*
X196791485Y-186885771D02*
X196791485Y-188171485D01*
X196862914Y-188314342D01*
X197005771Y-188385771D01*
X197148628Y-188385771D01*
X197648628Y-187814342D02*
X198791485Y-187814342D01*
X199505771Y-188385771D02*
X199505771Y-186885771D01*
X200077200Y-186885771D01*
X200220057Y-186957200D01*
X200291485Y-187028628D01*
X200362914Y-187171485D01*
X200362914Y-187385771D01*
X200291485Y-187528628D01*
X200220057Y-187600057D01*
X200077200Y-187671485D01*
X199505771Y-187671485D01*
X201291485Y-186885771D02*
X201434342Y-186885771D01*
X201577200Y-186957200D01*
X201648628Y-187028628D01*
X201720057Y-187171485D01*
X201791485Y-187457200D01*
X201791485Y-187814342D01*
X201720057Y-188100057D01*
X201648628Y-188242914D01*
X201577200Y-188314342D01*
X201434342Y-188385771D01*
X201291485Y-188385771D01*
X201148628Y-188314342D01*
X201077200Y-188242914D01*
X201005771Y-188100057D01*
X200934342Y-187814342D01*
X200934342Y-187457200D01*
X201005771Y-187171485D01*
X201077200Y-187028628D01*
X201148628Y-186957200D01*
X201291485Y-186885771D01*
X203220057Y-188385771D02*
X202362914Y-188385771D01*
X202791485Y-188385771D02*
X202791485Y-186885771D01*
X202648628Y-187100057D01*
X202505771Y-187242914D01*
X202362914Y-187314342D01*
X203862914Y-187814342D02*
X205005771Y-187814342D01*
X206577200Y-188385771D02*
X206077200Y-187671485D01*
X205720057Y-188385771D02*
X205720057Y-186885771D01*
X206291485Y-186885771D01*
X206434342Y-186957200D01*
X206505771Y-187028628D01*
X206577200Y-187171485D01*
X206577200Y-187385771D01*
X206505771Y-187528628D01*
X206434342Y-187600057D01*
X206291485Y-187671485D01*
X205720057Y-187671485D01*
X207505771Y-186885771D02*
X207648628Y-186885771D01*
X207791485Y-186957200D01*
X207862914Y-187028628D01*
X207934342Y-187171485D01*
X208005771Y-187457200D01*
X208005771Y-187814342D01*
X207934342Y-188100057D01*
X207862914Y-188242914D01*
X207791485Y-188314342D01*
X207648628Y-188385771D01*
X207505771Y-188385771D01*
X207362914Y-188314342D01*
X207291485Y-188242914D01*
X207220057Y-188100057D01*
X207148628Y-187814342D01*
X207148628Y-187457200D01*
X207220057Y-187171485D01*
X207291485Y-187028628D01*
X207362914Y-186957200D01*
X207505771Y-186885771D01*
X209434342Y-188385771D02*
X208577200Y-188385771D01*
X209005771Y-188385771D02*
X209005771Y-186885771D01*
X208862914Y-187100057D01*
X208720057Y-187242914D01*
X208577200Y-187314342D01*
X210077200Y-187814342D02*
X211220057Y-187814342D01*
X212434342Y-187600057D02*
X212648628Y-187671485D01*
X212720057Y-187742914D01*
X212791485Y-187885771D01*
X212791485Y-188100057D01*
X212720057Y-188242914D01*
X212648628Y-188314342D01*
X212505771Y-188385771D01*
X211934342Y-188385771D01*
X211934342Y-186885771D01*
X212434342Y-186885771D01*
X212577200Y-186957200D01*
X212648628Y-187028628D01*
X212720057Y-187171485D01*
X212720057Y-187314342D01*
X212648628Y-187457200D01*
X212577200Y-187528628D01*
X212434342Y-187600057D01*
X211934342Y-187600057D01*
X213720057Y-186885771D02*
X213862914Y-186885771D01*
X214005771Y-186957200D01*
X214077200Y-187028628D01*
X214148628Y-187171485D01*
X214220057Y-187457200D01*
X214220057Y-187814342D01*
X214148628Y-188100057D01*
X214077200Y-188242914D01*
X214005771Y-188314342D01*
X213862914Y-188385771D01*
X213720057Y-188385771D01*
X213577200Y-188314342D01*
X213505771Y-188242914D01*
X213434342Y-188100057D01*
X213362914Y-187814342D01*
X213362914Y-187457200D01*
X213434342Y-187171485D01*
X213505771Y-187028628D01*
X213577200Y-186957200D01*
X213720057Y-186885771D01*
X215648628Y-188385771D02*
X214791485Y-188385771D01*
X215220057Y-188385771D02*
X215220057Y-186885771D01*
X215077200Y-187100057D01*
X214934342Y-187242914D01*
X214791485Y-187314342D01*
X216291485Y-187814342D02*
X217434342Y-187814342D01*
X219005771Y-188242914D02*
X218934342Y-188314342D01*
X218720057Y-188385771D01*
X218577200Y-188385771D01*
X218362914Y-188314342D01*
X218220057Y-188171485D01*
X218148628Y-188028628D01*
X218077200Y-187742914D01*
X218077200Y-187528628D01*
X218148628Y-187242914D01*
X218220057Y-187100057D01*
X218362914Y-186957200D01*
X218577200Y-186885771D01*
X218720057Y-186885771D01*
X218934342Y-186957200D01*
X219005771Y-187028628D01*
X219934342Y-186885771D02*
X220077200Y-186885771D01*
X220220057Y-186957200D01*
X220291485Y-187028628D01*
X220362914Y-187171485D01*
X220434342Y-187457200D01*
X220434342Y-187814342D01*
X220362914Y-188100057D01*
X220291485Y-188242914D01*
X220220057Y-188314342D01*
X220077200Y-188385771D01*
X219934342Y-188385771D01*
X219791485Y-188314342D01*
X219720057Y-188242914D01*
X219648628Y-188100057D01*
X219577200Y-187814342D01*
X219577200Y-187457200D01*
X219648628Y-187171485D01*
X219720057Y-187028628D01*
X219791485Y-186957200D01*
X219934342Y-186885771D01*
X221362914Y-186885771D02*
X221505771Y-186885771D01*
X221648628Y-186957200D01*
X221720057Y-187028628D01*
X221791485Y-187171485D01*
X221862914Y-187457200D01*
X221862914Y-187814342D01*
X221791485Y-188100057D01*
X221720057Y-188242914D01*
X221648628Y-188314342D01*
X221505771Y-188385771D01*
X221362914Y-188385771D01*
X221220057Y-188314342D01*
X221148628Y-188242914D01*
X221077200Y-188100057D01*
X221005771Y-187814342D01*
X221005771Y-187457200D01*
X221077200Y-187171485D01*
X221148628Y-187028628D01*
X221220057Y-186957200D01*
X221362914Y-186885771D01*
D10*
D11*
X177002200Y-196507200D02*
X287002200Y-196507200D01*
D10*
D11*
X178434342Y-198585771D02*
X178434342Y-197085771D01*
X179291485Y-198585771D02*
X178648628Y-197728628D01*
X179291485Y-197085771D02*
X178434342Y-197942914D01*
X179934342Y-198585771D02*
X179934342Y-197585771D01*
X179934342Y-197085771D02*
X179862914Y-197157200D01*
X179934342Y-197228628D01*
X180005771Y-197157200D01*
X179934342Y-197085771D01*
X179934342Y-197228628D01*
X181505771Y-198442914D02*
X181434342Y-198514342D01*
X181220057Y-198585771D01*
X181077200Y-198585771D01*
X180862914Y-198514342D01*
X180720057Y-198371485D01*
X180648628Y-198228628D01*
X180577200Y-197942914D01*
X180577200Y-197728628D01*
X180648628Y-197442914D01*
X180720057Y-197300057D01*
X180862914Y-197157200D01*
X181077200Y-197085771D01*
X181220057Y-197085771D01*
X181434342Y-197157200D01*
X181505771Y-197228628D01*
X182791485Y-198585771D02*
X182791485Y-197800057D01*
X182720057Y-197657200D01*
X182577200Y-197585771D01*
X182291485Y-197585771D01*
X182148628Y-197657200D01*
X182791485Y-198514342D02*
X182648628Y-198585771D01*
X182291485Y-198585771D01*
X182148628Y-198514342D01*
X182077200Y-198371485D01*
X182077200Y-198228628D01*
X182148628Y-198085771D01*
X182291485Y-198014342D01*
X182648628Y-198014342D01*
X182791485Y-197942914D01*
X184148628Y-198585771D02*
X184148628Y-197085771D01*
X184148628Y-198514342D02*
X184005771Y-198585771D01*
X183720057Y-198585771D01*
X183577200Y-198514342D01*
X183505771Y-198442914D01*
X183434342Y-198300057D01*
X183434342Y-197871485D01*
X183505771Y-197728628D01*
X183577200Y-197657200D01*
X183720057Y-197585771D01*
X184005771Y-197585771D01*
X184148628Y-197657200D01*
X186005771Y-197800057D02*
X186505771Y-197800057D01*
X186720057Y-198585771D02*
X186005771Y-198585771D01*
X186005771Y-197085771D01*
X186720057Y-197085771D01*
X187362914Y-198442914D02*
X187434342Y-198514342D01*
X187362914Y-198585771D01*
X187291485Y-198514342D01*
X187362914Y-198442914D01*
X187362914Y-198585771D01*
X188077200Y-198585771D02*
X188077200Y-197085771D01*
X188434342Y-197085771D01*
X188648628Y-197157200D01*
X188791485Y-197300057D01*
X188862914Y-197442914D01*
X188934342Y-197728628D01*
X188934342Y-197942914D01*
X188862914Y-198228628D01*
X188791485Y-198371485D01*
X188648628Y-198514342D01*
X188434342Y-198585771D01*
X188077200Y-198585771D01*
X189577200Y-198442914D02*
X189648628Y-198514342D01*
X189577200Y-198585771D01*
X189505771Y-198514342D01*
X189577200Y-198442914D01*
X189577200Y-198585771D01*
X190220057Y-198157200D02*
X190934342Y-198157200D01*
X190077200Y-198585771D02*
X190577200Y-197085771D01*
X191077200Y-198585771D01*
X191577200Y-198442914D02*
X191648628Y-198514342D01*
X191577200Y-198585771D01*
X191505771Y-198514342D01*
X191577200Y-198442914D01*
X191577200Y-198585771D01*
D10*
D11*
X177002200Y-193507200D02*
X287002200Y-193507200D01*
D10*
D12*
X266411485Y-195785771D02*
X265911485Y-195071485D01*
X265554342Y-195785771D02*
X265554342Y-194285771D01*
X266125771Y-194285771D01*
X266268628Y-194357200D01*
X266340057Y-194428628D01*
X266411485Y-194571485D01*
X266411485Y-194785771D01*
X266340057Y-194928628D01*
X266268628Y-195000057D01*
X266125771Y-195071485D01*
X265554342Y-195071485D01*
X267625771Y-195714342D02*
X267482914Y-195785771D01*
X267197200Y-195785771D01*
X267054342Y-195714342D01*
X266982914Y-195571485D01*
X266982914Y-195000057D01*
X267054342Y-194857200D01*
X267197200Y-194785771D01*
X267482914Y-194785771D01*
X267625771Y-194857200D01*
X267697200Y-195000057D01*
X267697200Y-195142914D01*
X266982914Y-195285771D01*
X268197200Y-194785771D02*
X268554342Y-195785771D01*
X268911485Y-194785771D01*
X269482914Y-195642914D02*
X269554342Y-195714342D01*
X269482914Y-195785771D01*
X269411485Y-195714342D01*
X269482914Y-195642914D01*
X269482914Y-195785771D01*
X269482914Y-194857200D02*
X269554342Y-194928628D01*
X269482914Y-195000057D01*
X269411485Y-194928628D01*
X269482914Y-194857200D01*
X269482914Y-195000057D01*
X272197200Y-195785771D02*
X271697200Y-195071485D01*
X271340057Y-195785771D02*
X271340057Y-194285771D01*
X271911485Y-194285771D01*
X272054342Y-194357200D01*
X272125771Y-194428628D01*
X272197200Y-194571485D01*
X272197200Y-194785771D01*
X272125771Y-194928628D01*
X272054342Y-195000057D01*
X271911485Y-195071485D01*
X271340057Y-195071485D01*
X273125771Y-194285771D02*
X273268628Y-194285771D01*
X273411485Y-194357200D01*
X273482914Y-194428628D01*
X273554342Y-194571485D01*
X273625771Y-194857200D01*
X273625771Y-195214342D01*
X273554342Y-195500057D01*
X273482914Y-195642914D01*
X273411485Y-195714342D01*
X273268628Y-195785771D01*
X273125771Y-195785771D01*
X272982914Y-195714342D01*
X272911485Y-195642914D01*
X272840057Y-195500057D01*
X272768628Y-195214342D01*
X272768628Y-194857200D01*
X272840057Y-194571485D01*
X272911485Y-194428628D01*
X272982914Y-194357200D01*
X273125771Y-194285771D01*
X275054342Y-195785771D02*
X274197200Y-195785771D01*
X274625771Y-195785771D02*
X274625771Y-194285771D01*
X274482914Y-194500057D01*
X274340057Y-194642914D01*
X274197200Y-194714342D01*
D10*
D11*
X178362914Y-195714342D02*
X178577200Y-195785771D01*
X178934342Y-195785771D01*
X179077200Y-195714342D01*
X179148628Y-195642914D01*
X179220057Y-195500057D01*
X179220057Y-195357200D01*
X179148628Y-195214342D01*
X179077200Y-195142914D01*
X178934342Y-195071485D01*
X178648628Y-195000057D01*
X178505771Y-194928628D01*
X178434342Y-194857200D01*
X178362914Y-194714342D01*
X178362914Y-194571485D01*
X178434342Y-194428628D01*
X178505771Y-194357200D01*
X178648628Y-194285771D01*
X179005771Y-194285771D01*
X179220057Y-194357200D01*
X179862914Y-195785771D02*
X179862914Y-194785771D01*
X179862914Y-194285771D02*
X179791485Y-194357200D01*
X179862914Y-194428628D01*
X179934342Y-194357200D01*
X179862914Y-194285771D01*
X179862914Y-194428628D01*
X180434342Y-194785771D02*
X181220057Y-194785771D01*
X180434342Y-195785771D01*
X181220057Y-195785771D01*
X182362914Y-195714342D02*
X182220057Y-195785771D01*
X181934342Y-195785771D01*
X181791485Y-195714342D01*
X181720057Y-195571485D01*
X181720057Y-195000057D01*
X181791485Y-194857200D01*
X181934342Y-194785771D01*
X182220057Y-194785771D01*
X182362914Y-194857200D01*
X182434342Y-195000057D01*
X182434342Y-195142914D01*
X181720057Y-195285771D01*
X183077200Y-195642914D02*
X183148628Y-195714342D01*
X183077200Y-195785771D01*
X183005771Y-195714342D01*
X183077200Y-195642914D01*
X183077200Y-195785771D01*
X183077200Y-194857200D02*
X183148628Y-194928628D01*
X183077200Y-195000057D01*
X183005771Y-194928628D01*
X183077200Y-194857200D01*
X183077200Y-195000057D01*
X184862914Y-195357200D02*
X185577200Y-195357200D01*
X184720057Y-195785771D02*
X185220057Y-194285771D01*
X185720057Y-195785771D01*
X186862914Y-194785771D02*
X186862914Y-195785771D01*
X186505771Y-194214342D02*
X186148628Y-195285771D01*
X187077200Y-195285771D01*
D10*
D11*
X265362914Y-198514342D02*
X265577200Y-198585771D01*
X265934342Y-198585771D01*
X266077200Y-198514342D01*
X266148628Y-198442914D01*
X266220057Y-198300057D01*
X266220057Y-198157200D01*
X266148628Y-198014342D01*
X266077200Y-197942914D01*
X265934342Y-197871485D01*
X265648628Y-197800057D01*
X265505771Y-197728628D01*
X265434342Y-197657200D01*
X265362914Y-197514342D01*
X265362914Y-197371485D01*
X265434342Y-197228628D01*
X265505771Y-197157200D01*
X265648628Y-197085771D01*
X266005771Y-197085771D01*
X266220057Y-197157200D01*
X266862914Y-198585771D02*
X266862914Y-197085771D01*
X267505771Y-198585771D02*
X267505771Y-197800057D01*
X267434342Y-197657200D01*
X267291485Y-197585771D01*
X267077200Y-197585771D01*
X266934342Y-197657200D01*
X266862914Y-197728628D01*
X268791485Y-198514342D02*
X268648628Y-198585771D01*
X268362914Y-198585771D01*
X268220057Y-198514342D01*
X268148628Y-198371485D01*
X268148628Y-197800057D01*
X268220057Y-197657200D01*
X268362914Y-197585771D01*
X268648628Y-197585771D01*
X268791485Y-197657200D01*
X268862914Y-197800057D01*
X268862914Y-197942914D01*
X268148628Y-198085771D01*
X270077200Y-198514342D02*
X269934342Y-198585771D01*
X269648628Y-198585771D01*
X269505771Y-198514342D01*
X269434342Y-198371485D01*
X269434342Y-197800057D01*
X269505771Y-197657200D01*
X269648628Y-197585771D01*
X269934342Y-197585771D01*
X270077200Y-197657200D01*
X270148628Y-197800057D01*
X270148628Y-197942914D01*
X269434342Y-198085771D01*
X270577200Y-197585771D02*
X271148628Y-197585771D01*
X270791485Y-197085771D02*
X270791485Y-198371485D01*
X270862914Y-198514342D01*
X271005771Y-198585771D01*
X271148628Y-198585771D01*
X273577200Y-198585771D02*
X272720057Y-198585771D01*
X273148628Y-198585771D02*
X273148628Y-197085771D01*
X273005771Y-197300057D01*
X272862914Y-197442914D01*
X272720057Y-197514342D01*
X275291485Y-197014342D02*
X274005771Y-198942914D01*
X276577200Y-198585771D02*
X275720057Y-198585771D01*
X276148628Y-198585771D02*
X276148628Y-197085771D01*
X276005771Y-197300057D01*
X275862914Y-197442914D01*
X275720057Y-197514342D01*
D10*
D11*
X177002200Y-189507200D02*
X287002200Y-189507200D01*
D10*
D13*
X178452676Y-190211961D02*
X179595533Y-190211961D01*
X179024104Y-192211961D02*
X179024104Y-190211961D01*
X180262200Y-192211961D02*
X180262200Y-190878628D01*
X180262200Y-190211961D02*
X180166961Y-190307200D01*
X180262200Y-190402438D01*
X180357438Y-190307200D01*
X180262200Y-190211961D01*
X180262200Y-190402438D01*
X180928866Y-190878628D02*
X181690771Y-190878628D01*
X181214580Y-190211961D02*
X181214580Y-191926247D01*
X181309819Y-192116723D01*
X181500295Y-192211961D01*
X181690771Y-192211961D01*
X182643152Y-192211961D02*
X182452676Y-192116723D01*
X182357438Y-191926247D01*
X182357438Y-190211961D01*
X184166961Y-192116723D02*
X183976485Y-192211961D01*
X183595533Y-192211961D01*
X183405057Y-192116723D01*
X183309819Y-191926247D01*
X183309819Y-191164342D01*
X183405057Y-190973866D01*
X183595533Y-190878628D01*
X183976485Y-190878628D01*
X184166961Y-190973866D01*
X184262200Y-191164342D01*
X184262200Y-191354819D01*
X183309819Y-191545295D01*
X185119342Y-192021485D02*
X185214580Y-192116723D01*
X185119342Y-192211961D01*
X185024104Y-192116723D01*
X185119342Y-192021485D01*
X185119342Y-192211961D01*
X185119342Y-190973866D02*
X185214580Y-191069104D01*
X185119342Y-191164342D01*
X185024104Y-191069104D01*
X185119342Y-190973866D01*
X185119342Y-191164342D01*
X188452676Y-192116723D02*
X188262200Y-192211961D01*
X187881247Y-192211961D01*
X187690771Y-192116723D01*
X187595533Y-192021485D01*
X187500295Y-191831009D01*
X187500295Y-191259580D01*
X187595533Y-191069104D01*
X187690771Y-190973866D01*
X187881247Y-190878628D01*
X188262200Y-190878628D01*
X188452676Y-190973866D01*
X190166961Y-192211961D02*
X190166961Y-191164342D01*
X190071723Y-190973866D01*
X189881247Y-190878628D01*
X189500295Y-190878628D01*
X189309819Y-190973866D01*
X190166961Y-192116723D02*
X189976485Y-192211961D01*
X189500295Y-192211961D01*
X189309819Y-192116723D01*
X189214580Y-191926247D01*
X189214580Y-191735771D01*
X189309819Y-191545295D01*
X189500295Y-191450057D01*
X189976485Y-191450057D01*
X190166961Y-191354819D01*
X191119342Y-190878628D02*
X191119342Y-192211961D01*
X191119342Y-191069104D02*
X191214580Y-190973866D01*
X191405057Y-190878628D01*
X191690771Y-190878628D01*
X191881247Y-190973866D01*
X191976485Y-191164342D01*
X191976485Y-192211961D01*
X193786009Y-192211961D02*
X193786009Y-190211961D01*
X193786009Y-192116723D02*
X193595533Y-192211961D01*
X193214580Y-192211961D01*
X193024104Y-192116723D01*
X192928866Y-192021485D01*
X192833628Y-191831009D01*
X192833628Y-191259580D01*
X192928866Y-191069104D01*
X193024104Y-190973866D01*
X193214580Y-190878628D01*
X193595533Y-190878628D01*
X193786009Y-190973866D01*
X195024104Y-192211961D02*
X194833628Y-192116723D01*
X194738390Y-191926247D01*
X194738390Y-190211961D01*
X196547914Y-192116723D02*
X196357438Y-192211961D01*
X195976485Y-192211961D01*
X195786009Y-192116723D01*
X195690771Y-191926247D01*
X195690771Y-191164342D01*
X195786009Y-190973866D01*
X195976485Y-190878628D01*
X196357438Y-190878628D01*
X196547914Y-190973866D01*
X196643152Y-191164342D01*
X196643152Y-191354819D01*
X195690771Y-191545295D01*
X198452676Y-192211961D02*
X197500295Y-192211961D01*
X197500295Y-190211961D01*
X199119342Y-192211961D02*
X199119342Y-190878628D01*
X199119342Y-190211961D02*
X199024104Y-190307200D01*
X199119342Y-190402438D01*
X199214580Y-190307200D01*
X199119342Y-190211961D01*
X199119342Y-190402438D01*
X200928866Y-190878628D02*
X200928866Y-192497676D01*
X200833628Y-192688152D01*
X200738390Y-192783390D01*
X200547914Y-192878628D01*
X200262200Y-192878628D01*
X200071723Y-192783390D01*
X200928866Y-192116723D02*
X200738390Y-192211961D01*
X200357438Y-192211961D01*
X200166961Y-192116723D01*
X200071723Y-192021485D01*
X199976485Y-191831009D01*
X199976485Y-191259580D01*
X200071723Y-191069104D01*
X200166961Y-190973866D01*
X200357438Y-190878628D01*
X200738390Y-190878628D01*
X200928866Y-190973866D01*
X201881247Y-192211961D02*
X201881247Y-190211961D01*
X202738390Y-192211961D02*
X202738390Y-191164342D01*
X202643152Y-190973866D01*
X202452676Y-190878628D01*
X202166961Y-190878628D01*
X201976485Y-190973866D01*
X201881247Y-191069104D01*
X203405057Y-190878628D02*
X204166961Y-190878628D01*
X203690771Y-190211961D02*
X203690771Y-191926247D01*
X203786009Y-192116723D01*
X203976485Y-192211961D01*
X204166961Y-192211961D01*
D10*
D11*
X177002200Y-183507200D02*
X287002200Y-183507200D01*
D10*
D11*
X178934342Y-184900057D02*
X178434342Y-184900057D01*
X178434342Y-185685771D02*
X178434342Y-184185771D01*
X179148628Y-184185771D01*
X180362914Y-184685771D02*
X180362914Y-185685771D01*
X179720057Y-184685771D02*
X179720057Y-185471485D01*
X179791485Y-185614342D01*
X179934342Y-185685771D01*
X180148628Y-185685771D01*
X180291485Y-185614342D01*
X180362914Y-185542914D01*
X181077200Y-185685771D02*
X181077200Y-184685771D01*
X181077200Y-184971485D02*
X181148628Y-184828628D01*
X181220057Y-184757200D01*
X181362914Y-184685771D01*
X181505771Y-184685771D01*
X181791485Y-184685771D02*
X182362914Y-184685771D01*
X182005771Y-184185771D02*
X182005771Y-185471485D01*
X182077200Y-185614342D01*
X182220057Y-185685771D01*
X182362914Y-185685771D01*
X182862914Y-185685771D02*
X182862914Y-184185771D01*
X183505771Y-185685771D02*
X183505771Y-184900057D01*
X183434342Y-184757200D01*
X183291485Y-184685771D01*
X183077200Y-184685771D01*
X182934342Y-184757200D01*
X182862914Y-184828628D01*
X184791485Y-185614342D02*
X184648628Y-185685771D01*
X184362914Y-185685771D01*
X184220057Y-185614342D01*
X184148628Y-185471485D01*
X184148628Y-184900057D01*
X184220057Y-184757200D01*
X184362914Y-184685771D01*
X184648628Y-184685771D01*
X184791485Y-184757200D01*
X184862914Y-184900057D01*
X184862914Y-185042914D01*
X184148628Y-185185771D01*
X185505771Y-185685771D02*
X185505771Y-184685771D01*
X185505771Y-184971485D02*
X185577200Y-184828628D01*
X185648628Y-184757200D01*
X185791485Y-184685771D01*
X185934342Y-184685771D01*
X187505771Y-185614342D02*
X187720057Y-185685771D01*
X188077200Y-185685771D01*
X188220057Y-185614342D01*
X188291485Y-185542914D01*
X188362914Y-185400057D01*
X188362914Y-185257200D01*
X188291485Y-185114342D01*
X188220057Y-185042914D01*
X188077200Y-184971485D01*
X187791485Y-184900057D01*
X187648628Y-184828628D01*
X187577200Y-184757200D01*
X187505771Y-184614342D01*
X187505771Y-184471485D01*
X187577200Y-184328628D01*
X187648628Y-184257200D01*
X187791485Y-184185771D01*
X188148628Y-184185771D01*
X188362914Y-184257200D01*
X189005771Y-184685771D02*
X189005771Y-186185771D01*
X189005771Y-184757200D02*
X189148628Y-184685771D01*
X189434342Y-184685771D01*
X189577200Y-184757200D01*
X189648628Y-184828628D01*
X189720057Y-184971485D01*
X189720057Y-185400057D01*
X189648628Y-185542914D01*
X189577200Y-185614342D01*
X189434342Y-185685771D01*
X189148628Y-185685771D01*
X189005771Y-185614342D01*
X190934342Y-185614342D02*
X190791485Y-185685771D01*
X190505771Y-185685771D01*
X190362914Y-185614342D01*
X190291485Y-185471485D01*
X190291485Y-184900057D01*
X190362914Y-184757200D01*
X190505771Y-184685771D01*
X190791485Y-184685771D01*
X190934342Y-184757200D01*
X191005771Y-184900057D01*
X191005771Y-185042914D01*
X190291485Y-185185771D01*
X192291485Y-185614342D02*
X192148628Y-185685771D01*
X191862914Y-185685771D01*
X191720057Y-185614342D01*
X191648628Y-185542914D01*
X191577200Y-185400057D01*
X191577200Y-184971485D01*
X191648628Y-184828628D01*
X191720057Y-184757200D01*
X191862914Y-184685771D01*
X192148628Y-184685771D01*
X192291485Y-184757200D01*
X192934342Y-185685771D02*
X192934342Y-184685771D01*
X192934342Y-184185771D02*
X192862914Y-184257200D01*
X192934342Y-184328628D01*
X193005771Y-184257200D01*
X192934342Y-184185771D01*
X192934342Y-184328628D01*
X193434342Y-184685771D02*
X194005771Y-184685771D01*
X193648628Y-185685771D02*
X193648628Y-184400057D01*
X193720057Y-184257200D01*
X193862914Y-184185771D01*
X194005771Y-184185771D01*
X194505771Y-185685771D02*
X194505771Y-184685771D01*
X194505771Y-184185771D02*
X194434342Y-184257200D01*
X194505771Y-184328628D01*
X194577200Y-184257200D01*
X194505771Y-184185771D01*
X194505771Y-184328628D01*
X195862914Y-185614342D02*
X195720057Y-185685771D01*
X195434342Y-185685771D01*
X195291485Y-185614342D01*
X195220057Y-185542914D01*
X195148628Y-185400057D01*
X195148628Y-184971485D01*
X195220057Y-184828628D01*
X195291485Y-184757200D01*
X195434342Y-184685771D01*
X195720057Y-184685771D01*
X195862914Y-184757200D01*
X197148628Y-185685771D02*
X197148628Y-184900057D01*
X197077200Y-184757200D01*
X196934342Y-184685771D01*
X196648628Y-184685771D01*
X196505771Y-184757200D01*
X197148628Y-185614342D02*
X197005771Y-185685771D01*
X196648628Y-185685771D01*
X196505771Y-185614342D01*
X196434342Y-185471485D01*
X196434342Y-185328628D01*
X196505771Y-185185771D01*
X196648628Y-185114342D01*
X197005771Y-185114342D01*
X197148628Y-185042914D01*
X197648628Y-184685771D02*
X198220057Y-184685771D01*
X197862914Y-184185771D02*
X197862914Y-185471485D01*
X197934342Y-185614342D01*
X198077200Y-185685771D01*
X198220057Y-185685771D01*
X198720057Y-185685771D02*
X198720057Y-184685771D01*
X198720057Y-184185771D02*
X198648628Y-184257200D01*
X198720057Y-184328628D01*
X198791485Y-184257200D01*
X198720057Y-184185771D01*
X198720057Y-184328628D01*
X199648628Y-185685771D02*
X199505771Y-185614342D01*
X199434342Y-185542914D01*
X199362914Y-185400057D01*
X199362914Y-184971485D01*
X199434342Y-184828628D01*
X199505771Y-184757200D01*
X199648628Y-184685771D01*
X199862914Y-184685771D01*
X200005771Y-184757200D01*
X200077200Y-184828628D01*
X200148628Y-184971485D01*
X200148628Y-185400057D01*
X200077200Y-185542914D01*
X200005771Y-185614342D01*
X199862914Y-185685771D01*
X199648628Y-185685771D01*
X200791485Y-184685771D02*
X200791485Y-185685771D01*
X200791485Y-184828628D02*
X200862914Y-184757200D01*
X201005771Y-184685771D01*
X201220057Y-184685771D01*
X201362914Y-184757200D01*
X201434342Y-184900057D01*
X201434342Y-185685771D01*
X202077200Y-185614342D02*
X202220057Y-185685771D01*
X202505771Y-185685771D01*
X202648628Y-185614342D01*
X202720057Y-185471485D01*
X202720057Y-185400057D01*
X202648628Y-185257200D01*
X202505771Y-185185771D01*
X202291485Y-185185771D01*
X202148628Y-185114342D01*
X202077200Y-184971485D01*
X202077200Y-184900057D01*
X202148628Y-184757200D01*
X202291485Y-184685771D01*
X202505771Y-184685771D01*
X202648628Y-184757200D01*
X203362914Y-185542914D02*
X203434342Y-185614342D01*
X203362914Y-185685771D01*
X203291485Y-185614342D01*
X203362914Y-185542914D01*
X203362914Y-185685771D01*
X203362914Y-184757200D02*
X203434342Y-184828628D01*
X203362914Y-184900057D01*
X203291485Y-184828628D01*
X203362914Y-184757200D01*
X203362914Y-184900057D01*
X205148628Y-185614342D02*
X205362914Y-185685771D01*
X205720057Y-185685771D01*
X205862914Y-185614342D01*
X205934342Y-185542914D01*
X206005771Y-185400057D01*
X206005771Y-185257200D01*
X205934342Y-185114342D01*
X205862914Y-185042914D01*
X205720057Y-184971485D01*
X205434342Y-184900057D01*
X205291485Y-184828628D01*
X205220057Y-184757200D01*
X205148628Y-184614342D01*
X205148628Y-184471485D01*
X205220057Y-184328628D01*
X205291485Y-184257200D01*
X205434342Y-184185771D01*
X205791485Y-184185771D01*
X206005771Y-184257200D01*
X207220057Y-185614342D02*
X207077200Y-185685771D01*
X206791485Y-185685771D01*
X206648628Y-185614342D01*
X206577200Y-185471485D01*
X206577200Y-184900057D01*
X206648628Y-184757200D01*
X206791485Y-184685771D01*
X207077200Y-184685771D01*
X207220057Y-184757200D01*
X207291485Y-184900057D01*
X207291485Y-185042914D01*
X206577200Y-185185771D01*
X208505771Y-185614342D02*
X208362914Y-185685771D01*
X208077200Y-185685771D01*
X207934342Y-185614342D01*
X207862914Y-185471485D01*
X207862914Y-184900057D01*
X207934342Y-184757200D01*
X208077200Y-184685771D01*
X208362914Y-184685771D01*
X208505771Y-184757200D01*
X208577200Y-184900057D01*
X208577200Y-185042914D01*
X207862914Y-185185771D01*
X211077200Y-185685771D02*
X210362914Y-185685771D01*
X210362914Y-184185771D01*
X212220057Y-185685771D02*
X212220057Y-184900057D01*
X212148628Y-184757200D01*
X212005771Y-184685771D01*
X211720057Y-184685771D01*
X211577200Y-184757200D01*
X212220057Y-185614342D02*
X212077200Y-185685771D01*
X211720057Y-185685771D01*
X211577200Y-185614342D01*
X211505771Y-185471485D01*
X211505771Y-185328628D01*
X211577200Y-185185771D01*
X211720057Y-185114342D01*
X212077200Y-185114342D01*
X212220057Y-185042914D01*
X212791485Y-184685771D02*
X213148628Y-185685771D01*
X213505771Y-184685771D02*
X213148628Y-185685771D01*
X213005771Y-186042914D01*
X212934342Y-186114342D01*
X212791485Y-186185771D01*
X214648628Y-185614342D02*
X214505771Y-185685771D01*
X214220057Y-185685771D01*
X214077200Y-185614342D01*
X214005771Y-185471485D01*
X214005771Y-184900057D01*
X214077200Y-184757200D01*
X214220057Y-184685771D01*
X214505771Y-184685771D01*
X214648628Y-184757200D01*
X214720057Y-184900057D01*
X214720057Y-185042914D01*
X214005771Y-185185771D01*
X215362914Y-185685771D02*
X215362914Y-184685771D01*
X215362914Y-184971485D02*
X215434342Y-184828628D01*
X215505771Y-184757200D01*
X215648628Y-184685771D01*
X215791485Y-184685771D01*
X216220057Y-185614342D02*
X216434342Y-185685771D01*
X216791485Y-185685771D01*
X216934342Y-185614342D01*
X217005771Y-185542914D01*
X217077200Y-185400057D01*
X217077200Y-185257200D01*
X217005771Y-185114342D01*
X216934342Y-185042914D01*
X216791485Y-184971485D01*
X216505771Y-184900057D01*
X216362914Y-184828628D01*
X216291485Y-184757200D01*
X216220057Y-184614342D01*
X216220057Y-184471485D01*
X216291485Y-184328628D01*
X216362914Y-184257200D01*
X216505771Y-184185771D01*
X216862914Y-184185771D01*
X217077200Y-184257200D01*
X217505771Y-184685771D02*
X218077200Y-184685771D01*
X217720057Y-184185771D02*
X217720057Y-185471485D01*
X217791485Y-185614342D01*
X217934342Y-185685771D01*
X218077200Y-185685771D01*
X219220057Y-185685771D02*
X219220057Y-184900057D01*
X219148628Y-184757200D01*
X219005771Y-184685771D01*
X218720057Y-184685771D01*
X218577200Y-184757200D01*
X219220057Y-185614342D02*
X219077200Y-185685771D01*
X218720057Y-185685771D01*
X218577200Y-185614342D01*
X218505771Y-185471485D01*
X218505771Y-185328628D01*
X218577200Y-185185771D01*
X218720057Y-185114342D01*
X219077200Y-185114342D01*
X219220057Y-185042914D01*
X220577200Y-185614342D02*
X220434342Y-185685771D01*
X220148628Y-185685771D01*
X220005771Y-185614342D01*
X219934342Y-185542914D01*
X219862914Y-185400057D01*
X219862914Y-184971485D01*
X219934342Y-184828628D01*
X220005771Y-184757200D01*
X220148628Y-184685771D01*
X220434342Y-184685771D01*
X220577200Y-184757200D01*
X221220057Y-185685771D02*
X221220057Y-184185771D01*
X221362914Y-185114342D02*
X221791485Y-185685771D01*
X221791485Y-184685771D02*
X221220057Y-185257200D01*
X222434342Y-185542914D02*
X222505771Y-185614342D01*
X222434342Y-185685771D01*
X222362914Y-185614342D01*
X222434342Y-185542914D01*
X222434342Y-185685771D01*
X222934342Y-184685771D02*
X223505771Y-184685771D01*
X223148628Y-184185771D02*
X223148628Y-185471485D01*
X223220057Y-185614342D01*
X223362914Y-185685771D01*
X223505771Y-185685771D01*
X223862914Y-185685771D02*
X224648628Y-184685771D01*
X223862914Y-184685771D02*
X224648628Y-185685771D01*
X225005771Y-184685771D02*
X225577200Y-184685771D01*
X225220057Y-184185771D02*
X225220057Y-185471485D01*
X225291485Y-185614342D01*
X225434342Y-185685771D01*
X225577200Y-185685771D01*
D10*
D12*
X179268628Y-182685771D02*
X178554342Y-182685771D01*
X178554342Y-181185771D01*
X179768628Y-182685771D02*
X179768628Y-181685771D01*
X179768628Y-181185771D02*
X179697200Y-181257200D01*
X179768628Y-181328628D01*
X179840057Y-181257200D01*
X179768628Y-181185771D01*
X179768628Y-181328628D01*
X180482914Y-181685771D02*
X180482914Y-182685771D01*
X180482914Y-181828628D02*
X180554342Y-181757200D01*
X180697200Y-181685771D01*
X180911485Y-181685771D01*
X181054342Y-181757200D01*
X181125771Y-181900057D01*
X181125771Y-182685771D01*
X182482914Y-181685771D02*
X182482914Y-182685771D01*
X181840057Y-181685771D02*
X181840057Y-182471485D01*
X181911485Y-182614342D01*
X182054342Y-182685771D01*
X182268628Y-182685771D01*
X182411485Y-182614342D01*
X182482914Y-182542914D01*
X183054342Y-182685771D02*
X183840057Y-181685771D01*
X183054342Y-181685771D02*
X183840057Y-182685771D01*
X185482914Y-182257200D02*
X186197200Y-182257200D01*
X185340057Y-182685771D02*
X185840057Y-181185771D01*
X186340057Y-182685771D01*
X187482914Y-181685771D02*
X187482914Y-182685771D01*
X186840057Y-181685771D02*
X186840057Y-182471485D01*
X186911485Y-182614342D01*
X187054342Y-182685771D01*
X187268628Y-182685771D01*
X187411485Y-182614342D01*
X187482914Y-182542914D01*
X187982914Y-181685771D02*
X188554342Y-181685771D01*
X188197200Y-181185771D02*
X188197200Y-182471485D01*
X188268628Y-182614342D01*
X188411485Y-182685771D01*
X188554342Y-182685771D01*
X189268628Y-182685771D02*
X189125771Y-182614342D01*
X189054342Y-182542914D01*
X188982914Y-182400057D01*
X188982914Y-181971485D01*
X189054342Y-181828628D01*
X189125771Y-181757200D01*
X189268628Y-181685771D01*
X189482914Y-181685771D01*
X189625771Y-181757200D01*
X189697200Y-181828628D01*
X189768628Y-181971485D01*
X189768628Y-182400057D01*
X189697200Y-182542914D01*
X189625771Y-182614342D01*
X189482914Y-182685771D01*
X189268628Y-182685771D01*
X190411485Y-182685771D02*
X190411485Y-181685771D01*
X190411485Y-181828628D02*
X190482914Y-181757200D01*
X190625771Y-181685771D01*
X190840057Y-181685771D01*
X190982914Y-181757200D01*
X191054342Y-181900057D01*
X191054342Y-182685771D01*
X191054342Y-181900057D02*
X191125771Y-181757200D01*
X191268628Y-181685771D01*
X191482914Y-181685771D01*
X191625771Y-181757200D01*
X191697200Y-181900057D01*
X191697200Y-182685771D01*
X193054342Y-182685771D02*
X193054342Y-181900057D01*
X192982914Y-181757200D01*
X192840057Y-181685771D01*
X192554342Y-181685771D01*
X192411485Y-181757200D01*
X193054342Y-182614342D02*
X192911485Y-182685771D01*
X192554342Y-182685771D01*
X192411485Y-182614342D01*
X192340057Y-182471485D01*
X192340057Y-182328628D01*
X192411485Y-182185771D01*
X192554342Y-182114342D01*
X192911485Y-182114342D01*
X193054342Y-182042914D01*
X193554342Y-181685771D02*
X194125771Y-181685771D01*
X193768628Y-181185771D02*
X193768628Y-182471485D01*
X193840057Y-182614342D01*
X193982914Y-182685771D01*
X194125771Y-182685771D01*
X194625771Y-182685771D02*
X194625771Y-181685771D01*
X194625771Y-181185771D02*
X194554342Y-181257200D01*
X194625771Y-181328628D01*
X194697200Y-181257200D01*
X194625771Y-181185771D01*
X194625771Y-181328628D01*
X195554342Y-182685771D02*
X195411485Y-182614342D01*
X195340057Y-182542914D01*
X195268628Y-182400057D01*
X195268628Y-181971485D01*
X195340057Y-181828628D01*
X195411485Y-181757200D01*
X195554342Y-181685771D01*
X195768628Y-181685771D01*
X195911485Y-181757200D01*
X195982914Y-181828628D01*
X196054342Y-181971485D01*
X196054342Y-182400057D01*
X195982914Y-182542914D01*
X195911485Y-182614342D01*
X195768628Y-182685771D01*
X195554342Y-182685771D01*
X196697200Y-181685771D02*
X196697200Y-182685771D01*
X196697200Y-181828628D02*
X196768628Y-181757200D01*
X196911485Y-181685771D01*
X197125771Y-181685771D01*
X197268628Y-181757200D01*
X197340057Y-181900057D01*
X197340057Y-182685771D01*
X199982914Y-181257200D02*
X199840057Y-181185771D01*
X199625771Y-181185771D01*
X199411485Y-181257200D01*
X199268628Y-181400057D01*
X199197200Y-181542914D01*
X199125771Y-181828628D01*
X199125771Y-182042914D01*
X199197200Y-182328628D01*
X199268628Y-182471485D01*
X199411485Y-182614342D01*
X199625771Y-182685771D01*
X199768628Y-182685771D01*
X199982914Y-182614342D01*
X200054342Y-182542914D01*
X200054342Y-182042914D01*
X199768628Y-182042914D01*
X200697200Y-182685771D02*
X200697200Y-181685771D01*
X200697200Y-181828628D02*
X200768628Y-181757200D01*
X200911485Y-181685771D01*
X201125771Y-181685771D01*
X201268628Y-181757200D01*
X201340057Y-181900057D01*
X201340057Y-182685771D01*
X201340057Y-181900057D02*
X201411485Y-181757200D01*
X201554342Y-181685771D01*
X201768628Y-181685771D01*
X201911485Y-181757200D01*
X201982914Y-181900057D01*
X201982914Y-182685771D01*
X202697200Y-182685771D02*
X202697200Y-181185771D01*
X202697200Y-181757200D02*
X202840057Y-181685771D01*
X203125771Y-181685771D01*
X203268628Y-181757200D01*
X203340057Y-181828628D01*
X203411485Y-181971485D01*
X203411485Y-182400057D01*
X203340057Y-182542914D01*
X203268628Y-182614342D01*
X203125771Y-182685771D01*
X202840057Y-182685771D01*
X202697200Y-182614342D01*
X204054342Y-182685771D02*
X204054342Y-181185771D01*
X204054342Y-181900057D02*
X204911485Y-181900057D01*
X204911485Y-182685771D02*
X204911485Y-181185771D01*
D10*
D11*
X201077200Y-197585771D02*
X201077200Y-198800057D01*
X201005771Y-198942914D01*
X200934342Y-199014342D01*
X200791485Y-199085771D01*
X200577200Y-199085771D01*
X200434342Y-199014342D01*
X201077200Y-198514342D02*
X200934342Y-198585771D01*
X200648628Y-198585771D01*
X200505771Y-198514342D01*
X200434342Y-198442914D01*
X200362914Y-198300057D01*
X200362914Y-197871485D01*
X200434342Y-197728628D01*
X200505771Y-197657200D01*
X200648628Y-197585771D01*
X200934342Y-197585771D01*
X201077200Y-197657200D01*
X201791485Y-198585771D02*
X201791485Y-197585771D01*
X201791485Y-197085771D02*
X201720057Y-197157200D01*
X201791485Y-197228628D01*
X201862914Y-197157200D01*
X201791485Y-197085771D01*
X201791485Y-197228628D01*
X202291485Y-197585771D02*
X202862914Y-197585771D01*
X202505771Y-197085771D02*
X202505771Y-198371485D01*
X202577200Y-198514342D01*
X202720057Y-198585771D01*
X202862914Y-198585771D01*
X203362914Y-198442914D02*
X203434342Y-198514342D01*
X203362914Y-198585771D01*
X203291485Y-198514342D01*
X203362914Y-198442914D01*
X203362914Y-198585771D01*
X203362914Y-197657200D02*
X203434342Y-197728628D01*
X203362914Y-197800057D01*
X203291485Y-197728628D01*
X203362914Y-197657200D01*
X203362914Y-197800057D01*
X205862914Y-197585771D02*
X205862914Y-198800057D01*
X205791485Y-198942914D01*
X205720057Y-199014342D01*
X205577200Y-199085771D01*
X205362914Y-199085771D01*
X205220057Y-199014342D01*
X205862914Y-198514342D02*
X205720057Y-198585771D01*
X205434342Y-198585771D01*
X205291485Y-198514342D01*
X205220057Y-198442914D01*
X205148628Y-198300057D01*
X205148628Y-197871485D01*
X205220057Y-197728628D01*
X205291485Y-197657200D01*
X205434342Y-197585771D01*
X205720057Y-197585771D01*
X205862914Y-197657200D01*
X206577200Y-198585771D02*
X206577200Y-197585771D01*
X206577200Y-197085771D02*
X206505771Y-197157200D01*
X206577200Y-197228628D01*
X206648628Y-197157200D01*
X206577200Y-197085771D01*
X206577200Y-197228628D01*
X207077200Y-197585771D02*
X207648628Y-197585771D01*
X207291485Y-197085771D02*
X207291485Y-198371485D01*
X207362914Y-198514342D01*
X207505771Y-198585771D01*
X207648628Y-198585771D01*
X208148628Y-198585771D02*
X208148628Y-197085771D01*
X208791485Y-198585771D02*
X208791485Y-197800057D01*
X208720057Y-197657200D01*
X208577200Y-197585771D01*
X208362914Y-197585771D01*
X208220057Y-197657200D01*
X208148628Y-197728628D01*
X210148628Y-197585771D02*
X210148628Y-198585771D01*
X209505771Y-197585771D02*
X209505771Y-198371485D01*
X209577200Y-198514342D01*
X209720057Y-198585771D01*
X209934342Y-198585771D01*
X210077200Y-198514342D01*
X210148628Y-198442914D01*
X210862914Y-198585771D02*
X210862914Y-197085771D01*
X210862914Y-197657200D02*
X211005771Y-197585771D01*
X211291485Y-197585771D01*
X211434342Y-197657200D01*
X211505771Y-197728628D01*
X211577200Y-197871485D01*
X211577200Y-198300057D01*
X211505771Y-198442914D01*
X211434342Y-198514342D01*
X211291485Y-198585771D01*
X211005771Y-198585771D01*
X210862914Y-198514342D01*
X212220057Y-198442914D02*
X212291485Y-198514342D01*
X212220057Y-198585771D01*
X212148628Y-198514342D01*
X212220057Y-198442914D01*
X212220057Y-198585771D01*
X213577200Y-198514342D02*
X213434342Y-198585771D01*
X213148628Y-198585771D01*
X213005771Y-198514342D01*
X212934342Y-198442914D01*
X212862914Y-198300057D01*
X212862914Y-197871485D01*
X212934342Y-197728628D01*
X213005771Y-197657200D01*
X213148628Y-197585771D01*
X213434342Y-197585771D01*
X213577200Y-197657200D01*
X214434342Y-198585771D02*
X214291485Y-198514342D01*
X214220057Y-198442914D01*
X214148628Y-198300057D01*
X214148628Y-197871485D01*
X214220057Y-197728628D01*
X214291485Y-197657200D01*
X214434342Y-197585771D01*
X214648628Y-197585771D01*
X214791485Y-197657200D01*
X214862914Y-197728628D01*
X214934342Y-197871485D01*
X214934342Y-198300057D01*
X214862914Y-198442914D01*
X214791485Y-198514342D01*
X214648628Y-198585771D01*
X214434342Y-198585771D01*
X215577200Y-198585771D02*
X215577200Y-197585771D01*
X215577200Y-197728628D02*
X215648628Y-197657200D01*
X215791485Y-197585771D01*
X216005771Y-197585771D01*
X216148628Y-197657200D01*
X216220057Y-197800057D01*
X216220057Y-198585771D01*
X216220057Y-197800057D02*
X216291485Y-197657200D01*
X216434342Y-197585771D01*
X216648628Y-197585771D01*
X216791485Y-197657200D01*
X216862914Y-197800057D01*
X216862914Y-198585771D01*
X218648628Y-197014342D02*
X217362914Y-198942914D01*
X219362914Y-198585771D02*
X219220057Y-198514342D01*
X219148628Y-198371485D01*
X219148628Y-197085771D01*
X219934342Y-198585771D02*
X219934342Y-197585771D01*
X219934342Y-197085771D02*
X219862914Y-197157200D01*
X219934342Y-197228628D01*
X220005771Y-197157200D01*
X219934342Y-197085771D01*
X219934342Y-197228628D01*
X220648628Y-197585771D02*
X220648628Y-198585771D01*
X220648628Y-197728628D02*
X220720057Y-197657200D01*
X220862914Y-197585771D01*
X221077200Y-197585771D01*
X221220057Y-197657200D01*
X221291485Y-197800057D01*
X221291485Y-198585771D01*
X222648628Y-197585771D02*
X222648628Y-198585771D01*
X222005771Y-197585771D02*
X222005771Y-198371485D01*
X222077200Y-198514342D01*
X222220057Y-198585771D01*
X222434342Y-198585771D01*
X222577200Y-198514342D01*
X222648628Y-198442914D01*
X223220057Y-198585771D02*
X224005771Y-197585771D01*
X223220057Y-197585771D02*
X224005771Y-198585771D01*
X224577200Y-198014342D02*
X225720057Y-198014342D01*
X227077200Y-198585771D02*
X227077200Y-197800057D01*
X227005771Y-197657200D01*
X226862914Y-197585771D01*
X226577200Y-197585771D01*
X226434342Y-197657200D01*
X227077200Y-198514342D02*
X226934342Y-198585771D01*
X226577200Y-198585771D01*
X226434342Y-198514342D01*
X226362914Y-198371485D01*
X226362914Y-198228628D01*
X226434342Y-198085771D01*
X226577200Y-198014342D01*
X226934342Y-198014342D01*
X227077200Y-197942914D01*
X228434342Y-197585771D02*
X228434342Y-198585771D01*
X227791485Y-197585771D02*
X227791485Y-198371485D01*
X227862914Y-198514342D01*
X228005771Y-198585771D01*
X228220057Y-198585771D01*
X228362914Y-198514342D01*
X228434342Y-198442914D01*
X228934342Y-197585771D02*
X229505771Y-197585771D01*
X229148628Y-197085771D02*
X229148628Y-198371485D01*
X229220057Y-198514342D01*
X229362914Y-198585771D01*
X229505771Y-198585771D01*
X230220057Y-198585771D02*
X230077200Y-198514342D01*
X230005771Y-198442914D01*
X229934342Y-198300057D01*
X229934342Y-197871485D01*
X230005771Y-197728628D01*
X230077200Y-197657200D01*
X230220057Y-197585771D01*
X230434342Y-197585771D01*
X230577200Y-197657200D01*
X230648628Y-197728628D01*
X230720057Y-197871485D01*
X230720057Y-198300057D01*
X230648628Y-198442914D01*
X230577200Y-198514342D01*
X230434342Y-198585771D01*
X230220057Y-198585771D01*
X231362914Y-198585771D02*
X231362914Y-197585771D01*
X231362914Y-197728628D02*
X231434342Y-197657200D01*
X231577200Y-197585771D01*
X231791485Y-197585771D01*
X231934342Y-197657200D01*
X232005771Y-197800057D01*
X232005771Y-198585771D01*
X232005771Y-197800057D02*
X232077200Y-197657200D01*
X232220057Y-197585771D01*
X232434342Y-197585771D01*
X232577200Y-197657200D01*
X232648628Y-197800057D01*
X232648628Y-198585771D01*
X234005771Y-198585771D02*
X234005771Y-197800057D01*
X233934342Y-197657200D01*
X233791485Y-197585771D01*
X233505771Y-197585771D01*
X233362914Y-197657200D01*
X234005771Y-198514342D02*
X233862914Y-198585771D01*
X233505771Y-198585771D01*
X233362914Y-198514342D01*
X233291485Y-198371485D01*
X233291485Y-198228628D01*
X233362914Y-198085771D01*
X233505771Y-198014342D01*
X233862914Y-198014342D01*
X234005771Y-197942914D01*
X234505771Y-197585771D02*
X235077200Y-197585771D01*
X234720057Y-197085771D02*
X234720057Y-198371485D01*
X234791485Y-198514342D01*
X234934342Y-198585771D01*
X235077200Y-198585771D01*
X235577200Y-198585771D02*
X235577200Y-197585771D01*
X235577200Y-197085771D02*
X235505771Y-197157200D01*
X235577200Y-197228628D01*
X235648628Y-197157200D01*
X235577200Y-197085771D01*
X235577200Y-197228628D01*
X236505771Y-198585771D02*
X236362914Y-198514342D01*
X236291485Y-198442914D01*
X236220057Y-198300057D01*
X236220057Y-197871485D01*
X236291485Y-197728628D01*
X236362914Y-197657200D01*
X236505771Y-197585771D01*
X236720057Y-197585771D01*
X236862914Y-197657200D01*
X236934342Y-197728628D01*
X237005771Y-197871485D01*
X237005771Y-198300057D01*
X236934342Y-198442914D01*
X236862914Y-198514342D01*
X236720057Y-198585771D01*
X236505771Y-198585771D01*
X237648628Y-197585771D02*
X237648628Y-198585771D01*
X237648628Y-197728628D02*
X237720057Y-197657200D01*
X237862914Y-197585771D01*
X238077200Y-197585771D01*
X238220057Y-197657200D01*
X238291485Y-197800057D01*
X238291485Y-198585771D01*
X240077200Y-197014342D02*
X238791485Y-198942914D01*
X241220057Y-198514342D02*
X241077200Y-198585771D01*
X240791485Y-198585771D01*
X240648628Y-198514342D01*
X240577200Y-198442914D01*
X240505771Y-198300057D01*
X240505771Y-197871485D01*
X240577200Y-197728628D01*
X240648628Y-197657200D01*
X240791485Y-197585771D01*
X241077200Y-197585771D01*
X241220057Y-197657200D01*
X242505771Y-198585771D02*
X242505771Y-197800057D01*
X242434342Y-197657200D01*
X242291485Y-197585771D01*
X242005771Y-197585771D01*
X241862914Y-197657200D01*
X242505771Y-198514342D02*
X242362914Y-198585771D01*
X242005771Y-198585771D01*
X241862914Y-198514342D01*
X241791485Y-198371485D01*
X241791485Y-198228628D01*
X241862914Y-198085771D01*
X242005771Y-198014342D01*
X242362914Y-198014342D01*
X242505771Y-197942914D01*
X243220057Y-197585771D02*
X243220057Y-198585771D01*
X243220057Y-197728628D02*
X243291485Y-197657200D01*
X243434342Y-197585771D01*
X243648628Y-197585771D01*
X243791485Y-197657200D01*
X243862914Y-197800057D01*
X243862914Y-198585771D01*
X245220057Y-198585771D02*
X245220057Y-197085771D01*
X245220057Y-198514342D02*
X245077200Y-198585771D01*
X244791485Y-198585771D01*
X244648628Y-198514342D01*
X244577200Y-198442914D01*
X244505771Y-198300057D01*
X244505771Y-197871485D01*
X244577200Y-197728628D01*
X244648628Y-197657200D01*
X244791485Y-197585771D01*
X245077200Y-197585771D01*
X245220057Y-197657200D01*
X246148628Y-198585771D02*
X246005771Y-198514342D01*
X245934342Y-198371485D01*
X245934342Y-197085771D01*
X247291485Y-198514342D02*
X247148628Y-198585771D01*
X246862914Y-198585771D01*
X246720057Y-198514342D01*
X246648628Y-198371485D01*
X246648628Y-197800057D01*
X246720057Y-197657200D01*
X246862914Y-197585771D01*
X247148628Y-197585771D01*
X247291485Y-197657200D01*
X247362914Y-197800057D01*
X247362914Y-197942914D01*
X246648628Y-198085771D01*
X248220057Y-198585771D02*
X248077200Y-198514342D01*
X248005771Y-198371485D01*
X248005771Y-197085771D01*
X248791485Y-198585771D02*
X248791485Y-197585771D01*
X248791485Y-197085771D02*
X248720057Y-197157200D01*
X248791485Y-197228628D01*
X248862914Y-197157200D01*
X248791485Y-197085771D01*
X248791485Y-197228628D01*
X250148628Y-197585771D02*
X250148628Y-198800057D01*
X250077200Y-198942914D01*
X250005771Y-199014342D01*
X249862914Y-199085771D01*
X249648628Y-199085771D01*
X249505771Y-199014342D01*
X250148628Y-198514342D02*
X250005771Y-198585771D01*
X249720057Y-198585771D01*
X249577200Y-198514342D01*
X249505771Y-198442914D01*
X249434342Y-198300057D01*
X249434342Y-197871485D01*
X249505771Y-197728628D01*
X249577200Y-197657200D01*
X249720057Y-197585771D01*
X250005771Y-197585771D01*
X250148628Y-197657200D01*
X250862914Y-198585771D02*
X250862914Y-197085771D01*
X251505771Y-198585771D02*
X251505771Y-197800057D01*
X251434342Y-197657200D01*
X251291485Y-197585771D01*
X251077200Y-197585771D01*
X250934342Y-197657200D01*
X250862914Y-197728628D01*
X252005771Y-197585771D02*
X252577200Y-197585771D01*
X252220057Y-197085771D02*
X252220057Y-198371485D01*
X252291485Y-198514342D01*
X252434342Y-198585771D01*
X252577200Y-198585771D01*
X253077200Y-198014342D02*
X254220057Y-198014342D01*
X254862914Y-198514342D02*
X255077200Y-198585771D01*
X255434342Y-198585771D01*
X255577200Y-198514342D01*
X255648628Y-198442914D01*
X255720057Y-198300057D01*
X255720057Y-198157200D01*
X255648628Y-198014342D01*
X255577200Y-197942914D01*
X255434342Y-197871485D01*
X255148628Y-197800057D01*
X255005771Y-197728628D01*
X254934342Y-197657200D01*
X254862914Y-197514342D01*
X254862914Y-197371485D01*
X254934342Y-197228628D01*
X255005771Y-197157200D01*
X255148628Y-197085771D01*
X255505771Y-197085771D01*
X255720057Y-197157200D01*
X256648628Y-197085771D02*
X256791485Y-197085771D01*
X256934342Y-197157200D01*
X257005771Y-197228628D01*
X257077200Y-197371485D01*
X257148628Y-197657200D01*
X257148628Y-198014342D01*
X257077200Y-198300057D01*
X257005771Y-198442914D01*
X256934342Y-198514342D01*
X256791485Y-198585771D01*
X256648628Y-198585771D01*
X256505771Y-198514342D01*
X256434342Y-198442914D01*
X256362914Y-198300057D01*
X256291485Y-198014342D01*
X256291485Y-197657200D01*
X256362914Y-197371485D01*
X256434342Y-197228628D01*
X256505771Y-197157200D01*
X256648628Y-197085771D01*
X258577200Y-198585771D02*
X257720057Y-198585771D01*
X258148628Y-198585771D02*
X258148628Y-197085771D01*
X258005771Y-197300057D01*
X257862914Y-197442914D01*
X257720057Y-197514342D01*
D10*
D11*
X197002200Y-193507200D02*
X197002200Y-200007200D01*
D10*
D11*
X238260714Y-195707142D02*
X238475000Y-195778571D01*
X238832142Y-195778571D01*
X238975000Y-195707142D01*
X239046428Y-195635714D01*
X239117857Y-195492857D01*
X239117857Y-195350000D01*
X239046428Y-195207142D01*
X238975000Y-195135714D01*
X238832142Y-195064285D01*
X238546428Y-194992857D01*
X238403571Y-194921428D01*
X238332142Y-194850000D01*
X238260714Y-194707142D01*
X238260714Y-194564285D01*
X238332142Y-194421428D01*
X238403571Y-194350000D01*
X238546428Y-194278571D01*
X238903571Y-194278571D01*
X239117857Y-194350000D01*
X239546428Y-194778571D02*
X240117857Y-194778571D01*
X239760714Y-194278571D02*
X239760714Y-195564285D01*
X239832142Y-195707142D01*
X239975000Y-195778571D01*
X240117857Y-195778571D01*
X241260714Y-195778571D02*
X241260714Y-194992857D01*
X241189285Y-194850000D01*
X241046428Y-194778571D01*
X240760714Y-194778571D01*
X240617857Y-194850000D01*
X241260714Y-195707142D02*
X241117857Y-195778571D01*
X240760714Y-195778571D01*
X240617857Y-195707142D01*
X240546428Y-195564285D01*
X240546428Y-195421428D01*
X240617857Y-195278571D01*
X240760714Y-195207142D01*
X241117857Y-195207142D01*
X241260714Y-195135714D01*
X241760714Y-194778571D02*
X242332142Y-194778571D01*
X241975000Y-194278571D02*
X241975000Y-195564285D01*
X242046428Y-195707142D01*
X242189285Y-195778571D01*
X242332142Y-195778571D01*
X243403571Y-195707142D02*
X243260714Y-195778571D01*
X242975000Y-195778571D01*
X242832142Y-195707142D01*
X242760714Y-195564285D01*
X242760714Y-194992857D01*
X242832142Y-194850000D01*
X242975000Y-194778571D01*
X243260714Y-194778571D01*
X243403571Y-194850000D01*
X243475000Y-194992857D01*
X243475000Y-195135714D01*
X242760714Y-195278571D01*
X244117857Y-195635714D02*
X244189285Y-195707142D01*
X244117857Y-195778571D01*
X244046428Y-195707142D01*
X244117857Y-195635714D01*
X244117857Y-195778571D01*
X244117857Y-194850000D02*
X244189285Y-194921428D01*
X244117857Y-194992857D01*
X244046428Y-194921428D01*
X244117857Y-194850000D01*
X244117857Y-194992857D01*
X245975000Y-195778571D02*
X245975000Y-194778571D01*
X245975000Y-195064285D02*
X246046428Y-194921428D01*
X246117857Y-194850000D01*
X246260714Y-194778571D01*
X246403571Y-194778571D01*
X247475000Y-195707142D02*
X247332142Y-195778571D01*
X247046428Y-195778571D01*
X246903571Y-195707142D01*
X246832142Y-195564285D01*
X246832142Y-194992857D01*
X246903571Y-194850000D01*
X247046428Y-194778571D01*
X247332142Y-194778571D01*
X247475000Y-194850000D01*
X247546428Y-194992857D01*
X247546428Y-195135714D01*
X246832142Y-195278571D01*
X248403571Y-195778571D02*
X248260714Y-195707142D01*
X248189285Y-195564285D01*
X248189285Y-194278571D01*
X249546428Y-195707142D02*
X249403571Y-195778571D01*
X249117857Y-195778571D01*
X248975000Y-195707142D01*
X248903571Y-195564285D01*
X248903571Y-194992857D01*
X248975000Y-194850000D01*
X249117857Y-194778571D01*
X249403571Y-194778571D01*
X249546428Y-194850000D01*
X249617857Y-194992857D01*
X249617857Y-195135714D01*
X248903571Y-195278571D01*
X250903571Y-195778571D02*
X250903571Y-194992857D01*
X250832142Y-194850000D01*
X250689285Y-194778571D01*
X250403571Y-194778571D01*
X250260714Y-194850000D01*
X250903571Y-195707142D02*
X250760714Y-195778571D01*
X250403571Y-195778571D01*
X250260714Y-195707142D01*
X250189285Y-195564285D01*
X250189285Y-195421428D01*
X250260714Y-195278571D01*
X250403571Y-195207142D01*
X250760714Y-195207142D01*
X250903571Y-195135714D01*
X251546428Y-195707142D02*
X251689285Y-195778571D01*
X251975000Y-195778571D01*
X252117857Y-195707142D01*
X252189285Y-195564285D01*
X252189285Y-195492857D01*
X252117857Y-195350000D01*
X251975000Y-195278571D01*
X251760714Y-195278571D01*
X251617857Y-195207142D01*
X251546428Y-195064285D01*
X251546428Y-194992857D01*
X251617857Y-194850000D01*
X251760714Y-194778571D01*
X251975000Y-194778571D01*
X252117857Y-194850000D01*
X253403571Y-195707142D02*
X253260714Y-195778571D01*
X252975000Y-195778571D01*
X252832142Y-195707142D01*
X252760714Y-195564285D01*
X252760714Y-194992857D01*
X252832142Y-194850000D01*
X252975000Y-194778571D01*
X253260714Y-194778571D01*
X253403571Y-194850000D01*
X253475000Y-194992857D01*
X253475000Y-195135714D01*
X252760714Y-195278571D01*
X254760714Y-195778571D02*
X254760714Y-194278571D01*
X254760714Y-195707142D02*
X254617857Y-195778571D01*
X254332142Y-195778571D01*
X254189285Y-195707142D01*
X254117857Y-195635714D01*
X254046428Y-195492857D01*
X254046428Y-195064285D01*
X254117857Y-194921428D01*
X254189285Y-194850000D01*
X254332142Y-194778571D01*
X254617857Y-194778571D01*
X254760714Y-194850000D01*
D10*
D11*
X237300000Y-193500000D02*
X237300000Y-196500000D01*
D10*
D11*
X264002000Y-193507000D02*
X264002000Y-200007000D01*
D14*
X37602380Y-80857142D02*
X37650000Y-80904761D01*
X37697619Y-81000000D01*
X37697619Y-81238095D01*
X37650000Y-81333333D01*
X37602380Y-81380952D01*
X37507142Y-81428571D01*
X37411904Y-81428571D01*
X37269047Y-81380952D01*
X36697619Y-80809523D01*
X36697619Y-81428571D01*
X37697619Y-82047619D02*
X37697619Y-82142857D01*
X37650000Y-82238095D01*
X37602380Y-82285714D01*
X37507142Y-82333333D01*
X37316666Y-82380952D01*
X37078571Y-82380952D01*
X36888095Y-82333333D01*
X36792857Y-82285714D01*
X36745238Y-82238095D01*
X36697619Y-82142857D01*
X36697619Y-82047619D01*
X36745238Y-81952380D01*
X36792857Y-81904761D01*
X36888095Y-81857142D01*
X37078571Y-81809523D01*
X37316666Y-81809523D01*
X37507142Y-81857142D01*
X37602380Y-81904761D01*
X37650000Y-81952380D01*
X37697619Y-82047619D01*
X36792857Y-82809523D02*
X36745238Y-82857142D01*
X36697619Y-82809523D01*
X36745238Y-82761904D01*
X36792857Y-82809523D01*
X36697619Y-82809523D01*
X37697619Y-83476190D02*
X37697619Y-83571428D01*
X37650000Y-83666666D01*
X37602380Y-83714285D01*
X37507142Y-83761904D01*
X37316666Y-83809523D01*
X37078571Y-83809523D01*
X36888095Y-83761904D01*
X36792857Y-83714285D01*
X36745238Y-83666666D01*
X36697619Y-83571428D01*
X36697619Y-83476190D01*
X36745238Y-83380952D01*
X36792857Y-83333333D01*
X36888095Y-83285714D01*
X37078571Y-83238095D01*
X37316666Y-83238095D01*
X37507142Y-83285714D01*
X37602380Y-83333333D01*
X37650000Y-83380952D01*
X37697619Y-83476190D01*
X37697619Y-84428571D02*
X37697619Y-84523809D01*
X37650000Y-84619047D01*
X37602380Y-84666666D01*
X37507142Y-84714285D01*
X37316666Y-84761904D01*
X37078571Y-84761904D01*
X36888095Y-84714285D01*
X36792857Y-84666666D01*
X36745238Y-84619047D01*
X36697619Y-84523809D01*
X36697619Y-84428571D01*
X36745238Y-84333333D01*
X36792857Y-84285714D01*
X36888095Y-84238095D01*
X37078571Y-84190476D01*
X37316666Y-84190476D01*
X37507142Y-84238095D01*
X37602380Y-84285714D01*
X37650000Y-84333333D01*
X37697619Y-84428571D01*
X37697619Y-85380952D02*
X37697619Y-85476190D01*
X37650000Y-85571428D01*
X37602380Y-85619047D01*
X37507142Y-85666666D01*
X37316666Y-85714285D01*
X37078571Y-85714285D01*
X36888095Y-85666666D01*
X36792857Y-85619047D01*
X36745238Y-85571428D01*
X36697619Y-85476190D01*
X36697619Y-85380952D01*
X36745238Y-85285714D01*
X36792857Y-85238095D01*
X36888095Y-85190476D01*
X37078571Y-85142857D01*
X37316666Y-85142857D01*
X37507142Y-85190476D01*
X37602380Y-85238095D01*
X37650000Y-85285714D01*
X37697619Y-85380952D01*
X36697619Y-86904761D02*
X37364285Y-86904761D01*
X37269047Y-86904761D02*
X37316666Y-86952380D01*
X37364285Y-87047619D01*
X37364285Y-87190476D01*
X37316666Y-87285714D01*
X37221428Y-87333333D01*
X36697619Y-87333333D01*
X37221428Y-87333333D02*
X37316666Y-87380952D01*
X37364285Y-87476190D01*
X37364285Y-87619047D01*
X37316666Y-87714285D01*
X37221428Y-87761904D01*
X36697619Y-87761904D01*
X36697619Y-88238095D02*
X37364285Y-88238095D01*
X37269047Y-88238095D02*
X37316666Y-88285714D01*
X37364285Y-88380952D01*
X37364285Y-88523809D01*
X37316666Y-88619047D01*
X37221428Y-88666666D01*
X36697619Y-88666666D01*
X37221428Y-88666666D02*
X37316666Y-88714285D01*
X37364285Y-88809523D01*
X37364285Y-88952380D01*
X37316666Y-89047619D01*
X37221428Y-89095238D01*
X36697619Y-89095238D01*
X38650000Y-75000000D02*
X38650000Y-95000000D01*
X41400000Y-75000000D02*
X38063579Y-75000000D01*
X41400000Y-95000000D02*
X38063579Y-95000000D01*
X38650000Y-95000000D02*
X38063579Y-93873496D01*
X38650000Y-95000000D02*
X39236421Y-93873496D01*
X38650000Y-75000000D02*
X38063579Y-76126504D01*
X38650000Y-75000000D02*
X39236421Y-76126504D01*
X56059523Y-70252381D02*
X56678571Y-70252381D01*
X56345238Y-70633334D01*
X56488095Y-70633334D01*
X56583333Y-70680953D01*
X56630952Y-70728572D01*
X56678571Y-70823810D01*
X56678571Y-71061905D01*
X56630952Y-71157143D01*
X56583333Y-71204762D01*
X56488095Y-71252381D01*
X56202380Y-71252381D01*
X56107142Y-71204762D01*
X56059523Y-71157143D01*
X57011904Y-70252381D02*
X57678571Y-70252381D01*
X57250000Y-71252381D01*
X58059523Y-71157143D02*
X58107142Y-71204762D01*
X58059523Y-71252381D01*
X58011904Y-71204762D01*
X58059523Y-71157143D01*
X58059523Y-71252381D01*
X58440476Y-70252381D02*
X59107142Y-70252381D01*
X58678571Y-71252381D01*
X59678571Y-70252381D02*
X59773809Y-70252381D01*
X59869047Y-70300001D01*
X59916666Y-70347620D01*
X59964285Y-70442858D01*
X60011904Y-70633334D01*
X60011904Y-70871429D01*
X59964285Y-71061905D01*
X59916666Y-71157143D01*
X59869047Y-71204762D01*
X59773809Y-71252381D01*
X59678571Y-71252381D01*
X59583333Y-71204762D01*
X59535714Y-71157143D01*
X59488095Y-71061905D01*
X59440476Y-70871429D01*
X59440476Y-70633334D01*
X59488095Y-70442858D01*
X59535714Y-70347620D01*
X59583333Y-70300001D01*
X59678571Y-70252381D01*
X60630952Y-70252381D02*
X60726190Y-70252381D01*
X60821428Y-70300001D01*
X60869047Y-70347620D01*
X60916666Y-70442858D01*
X60964285Y-70633334D01*
X60964285Y-70871429D01*
X60916666Y-71061905D01*
X60869047Y-71157143D01*
X60821428Y-71204762D01*
X60726190Y-71252381D01*
X60630952Y-71252381D01*
X60535714Y-71204762D01*
X60488095Y-71157143D01*
X60440476Y-71061905D01*
X60392857Y-70871429D01*
X60392857Y-70633334D01*
X60440476Y-70442858D01*
X60488095Y-70347620D01*
X60535714Y-70300001D01*
X60630952Y-70252381D01*
X62154761Y-71252381D02*
X62154761Y-70585715D01*
X62154761Y-70680953D02*
X62202380Y-70633334D01*
X62297619Y-70585715D01*
X62440476Y-70585715D01*
X62535714Y-70633334D01*
X62583333Y-70728572D01*
X62583333Y-71252381D01*
X62583333Y-70728572D02*
X62630952Y-70633334D01*
X62726190Y-70585715D01*
X62869047Y-70585715D01*
X62964285Y-70633334D01*
X63011904Y-70728572D01*
X63011904Y-71252381D01*
X63488095Y-71252381D02*
X63488095Y-70585715D01*
X63488095Y-70680953D02*
X63535714Y-70633334D01*
X63630952Y-70585715D01*
X63773809Y-70585715D01*
X63869047Y-70633334D01*
X63916666Y-70728572D01*
X63916666Y-71252381D01*
X63916666Y-70728572D02*
X63964285Y-70633334D01*
X64059523Y-70585715D01*
X64202380Y-70585715D01*
X64297619Y-70633334D01*
X64345238Y-70728572D01*
X64345238Y-71252381D01*
X79100000Y-72300001D02*
X41400000Y-72300001D01*
X79100000Y-75000000D02*
X79100000Y-71713580D01*
X41400000Y-75000000D02*
X41400000Y-71713580D01*
X41400000Y-72300001D02*
X42526504Y-71713580D01*
X41400000Y-72300001D02*
X42526504Y-72886422D01*
X79100000Y-72300001D02*
X77973496Y-71713580D01*
X79100000Y-72300001D02*
X77973496Y-72886422D01*
D15*
X41400000Y-75000000D02*
X41400000Y-81100000D01*
X79100000Y-75000000D02*
X79100000Y-95000000D01*
X47000000Y-81900000D02*
X47000000Y-88100000D01*
X41400000Y-81100000D02*
X46200000Y-81100000D01*
X47000000Y-81900000D02*
G75*
G03*
X46200000Y-81100000I-800000J0D01*
G01*
X46200000Y-88900000D02*
G75*
G03*
X47000000Y-88100000I0J800000D01*
G01*
X41400000Y-88900000D02*
X46200000Y-88900000D01*
X41400000Y-95000000D02*
X41400000Y-88900000D01*
X79100000Y-95000000D02*
X41400000Y-95000000D01*
X41400000Y-75000000D02*
X79100000Y-75000000D01*
D11*
%TO.C,P501*%
X46200000Y-88900000D02*
X41400000Y-88900000D01*
X47000000Y-81900000D02*
X47000000Y-88100000D01*
X41400000Y-81100000D02*
X46200000Y-81100000D01*
X41400000Y-88900000D02*
X41400000Y-91900000D01*
X41400000Y-78100000D02*
X41400000Y-81100000D01*
X46200000Y-88900000D02*
G75*
G03*
X47000000Y-88100000I0J800000D01*
G01*
X47000000Y-81900000D02*
G75*
G03*
X46200000Y-81100000I-800000J0D01*
G01*
%TO.C,X502*%
X90938000Y-76491000D02*
X90938000Y-93636000D01*
X80143000Y-94271000D02*
X80143000Y-75856000D01*
X80143000Y-94906000D02*
X80143000Y-94271000D01*
X83318000Y-94906000D02*
X83318000Y-75221000D01*
X83318000Y-100621000D02*
X83318000Y-94906000D01*
X84588000Y-69506000D02*
X84588000Y-100621000D01*
X84588000Y-93636000D02*
X90938000Y-93636000D01*
X83318000Y-100621000D02*
X84588000Y-100621000D01*
X80143000Y-94906000D02*
X83318000Y-94906000D01*
X78873000Y-92366000D02*
X78873000Y-94271000D01*
X78873000Y-94271000D02*
X80143000Y-94271000D01*
X84588000Y-76491000D02*
X90938000Y-76491000D01*
X83318000Y-75221000D02*
X83318000Y-69506000D01*
X83318000Y-69506000D02*
X84588000Y-69506000D01*
X80143000Y-75856000D02*
X80143000Y-75221000D01*
X80143000Y-75221000D02*
X83318000Y-75221000D01*
X78873000Y-77761000D02*
X78873000Y-75856000D01*
X78873000Y-75856000D02*
X80143000Y-75856000D01*
%TD*%
M02*
