M48
; DRILL file {KiCad 5.1.9+dfsg1-1~bpo10+1} date Thu Mar  4 17:45:08 2021
; FORMAT={-:-/ absolute / metric / decimal}
; #@! TF.CreationDate,2021-03-04T17:45:08+01:00
; #@! TF.GenerationSoftware,Kicad,Pcbnew,5.1.9+dfsg1-1~bpo10+1
; #@! TF.FileFunction,Plated,1,2,PTH
FMAT,2
METRIC
T1C0.400
%
G90
G05
T1
X44.4Y-91.5
X45.2Y-90.05
X45.55Y-79.75
X47.9Y-87.4
X48.3Y-82.5
X49.35Y-90.05
X49.8Y-89.1
X50.0Y-92.2
X51.0Y-81.85
X51.05Y-78.9
X51.515Y-94.065
X51.515Y-84.503
X52.202Y-81.83
X52.763Y-89.201
X53.043Y-79.619
X53.45Y-93.2
X54.378Y-84.212
X54.5Y-88.025
X54.95Y-93.2
X55.25Y-83.634
X55.5Y-85.0
X55.5Y-86.5
X55.55Y-79.65
X55.784Y-93.178
X56.169Y-87.44
X58.462Y-88.213
X58.8Y-91.05
X59.0Y-86.75
X59.239Y-88.213
X60.107Y-93.784
X60.25Y-85.5
X60.35Y-84.45
X61.695Y-89.815
X62.454Y-90.483
X63.55Y-91.15
X64.85Y-80.5
X65.95Y-80.5
X66.467Y-92.43
X66.495Y-87.552
X66.498Y-82.898
X66.499Y-84.448
X66.501Y-85.999
X67.0Y-80.5
X70.35Y-79.4
X70.45Y-81.05
X71.66Y-85.43
X72.8Y-83.022
X73.0Y-91.0
T0
M30
